G75*
G70*
%OFA0B0*%
%FSLAX24Y24*%
%IPPOS*%
%LPD*%
%AMOC8*
5,1,8,0,0,1.08239X$1,22.5*
%
%ADD10R,0.0748X0.0433*%
%ADD11R,0.0472X0.0315*%
%ADD12R,0.0500X0.0500*%
%ADD13C,0.0060*%
%ADD14C,0.0240*%
%ADD15C,0.0200*%
%ADD16C,0.0160*%
%ADD17C,0.0100*%
%ADD18C,0.0240*%
%ADD19C,0.0280*%
%ADD20C,0.0420*%
D10*
X008465Y001197D03*
X008465Y002103D03*
X009921Y002103D03*
X009921Y001197D03*
D11*
X007073Y002026D03*
X007073Y002734D03*
D12*
X007133Y001300D03*
D13*
X006821Y002273D02*
X006821Y002447D01*
X007043Y002447D01*
X007043Y002704D01*
X007103Y002704D01*
X007103Y002447D01*
X007326Y002447D01*
X007359Y002456D01*
X007389Y002473D01*
X007413Y002497D01*
X007430Y002527D01*
X007439Y002560D01*
X007439Y002704D01*
X007103Y002704D01*
X007103Y002764D01*
X007439Y002764D01*
X007439Y002909D01*
X007430Y002942D01*
X007413Y002972D01*
X007389Y002996D01*
X007359Y003013D01*
X007326Y003022D01*
X007103Y003022D01*
X007103Y002764D01*
X007043Y002764D01*
X007043Y003022D01*
X006821Y003022D01*
X006821Y005860D01*
X011249Y005860D01*
X011209Y005820D01*
X011163Y005710D01*
X011163Y005590D01*
X011209Y005480D01*
X011293Y005396D01*
X011403Y005350D01*
X011523Y005350D01*
X011633Y005396D01*
X011679Y005442D01*
X011679Y001002D01*
X010385Y001002D01*
X010385Y001451D01*
X010373Y001463D01*
X010603Y001701D01*
X010643Y001741D01*
X010643Y001742D01*
X010644Y001743D01*
X010643Y001800D01*
X010643Y001925D01*
X010733Y002015D01*
X010733Y002205D01*
X010598Y002340D01*
X010408Y002340D01*
X010385Y002318D01*
X010385Y002357D01*
X010333Y002409D01*
X009510Y002409D01*
X009457Y002357D01*
X009457Y001849D01*
X009510Y001796D01*
X009692Y001796D01*
X009676Y001780D01*
X008915Y001780D01*
X008918Y001782D01*
X008943Y001806D01*
X008960Y001836D01*
X008969Y001869D01*
X008969Y002073D01*
X008495Y002073D01*
X008495Y002133D01*
X008969Y002133D01*
X008969Y002336D01*
X008960Y002369D01*
X008943Y002399D01*
X008918Y002423D01*
X008889Y002440D01*
X008856Y002449D01*
X008495Y002449D01*
X008495Y002133D01*
X008435Y002133D01*
X008435Y002449D01*
X008073Y002449D01*
X008073Y004634D01*
X008427Y005240D01*
X008440Y005240D01*
X008563Y005363D01*
X008563Y005537D01*
X008440Y005660D01*
X008266Y005660D01*
X008143Y005537D01*
X008143Y005428D01*
X007767Y004785D01*
X007733Y004750D01*
X007733Y004726D01*
X007721Y004705D01*
X007733Y004658D01*
X007733Y001851D01*
X007722Y001834D01*
X007733Y001782D01*
X007733Y001770D01*
X007643Y001770D01*
X007543Y001670D01*
X007466Y001594D01*
X007420Y001640D01*
X007343Y001640D01*
X007343Y001778D01*
X007346Y001778D01*
X007399Y001831D01*
X007399Y002220D01*
X007346Y002273D01*
X006821Y002273D01*
X006821Y002278D02*
X007733Y002278D01*
X007733Y002220D02*
X007399Y002220D01*
X007399Y002161D02*
X007733Y002161D01*
X007733Y002103D02*
X007399Y002103D01*
X007399Y002044D02*
X007733Y002044D01*
X007733Y001986D02*
X007399Y001986D01*
X007399Y001927D02*
X007733Y001927D01*
X007733Y001869D02*
X007399Y001869D01*
X007378Y001810D02*
X007727Y001810D01*
X007624Y001752D02*
X007343Y001752D01*
X007343Y001693D02*
X007566Y001693D01*
X007507Y001635D02*
X007426Y001635D01*
X008435Y002161D02*
X008495Y002161D01*
X008495Y002103D02*
X009457Y002103D01*
X009457Y002161D02*
X008969Y002161D01*
X008969Y002220D02*
X009457Y002220D01*
X009457Y002278D02*
X008969Y002278D01*
X008969Y002337D02*
X009457Y002337D01*
X009496Y002395D02*
X008945Y002395D01*
X008495Y002395D02*
X008435Y002395D01*
X008435Y002337D02*
X008495Y002337D01*
X008495Y002278D02*
X008435Y002278D01*
X008435Y002220D02*
X008495Y002220D01*
X008073Y002449D02*
X008073Y002449D01*
X008073Y002454D02*
X011679Y002454D01*
X011679Y002512D02*
X008073Y002512D01*
X008073Y002571D02*
X011679Y002571D01*
X011679Y002629D02*
X008073Y002629D01*
X008073Y002688D02*
X011679Y002688D01*
X011679Y002746D02*
X008073Y002746D01*
X008073Y002805D02*
X011679Y002805D01*
X011679Y002863D02*
X008073Y002863D01*
X008073Y002922D02*
X011679Y002922D01*
X011679Y002980D02*
X008073Y002980D01*
X008073Y003039D02*
X011679Y003039D01*
X011679Y003097D02*
X008073Y003097D01*
X008073Y003156D02*
X011679Y003156D01*
X011679Y003214D02*
X008073Y003214D01*
X008073Y003273D02*
X011679Y003273D01*
X011679Y003331D02*
X008073Y003331D01*
X008073Y003390D02*
X011679Y003390D01*
X011679Y003448D02*
X008073Y003448D01*
X008073Y003507D02*
X011679Y003507D01*
X011679Y003565D02*
X008073Y003565D01*
X008073Y003624D02*
X011679Y003624D01*
X011679Y003682D02*
X008073Y003682D01*
X008073Y003741D02*
X011679Y003741D01*
X011679Y003799D02*
X008073Y003799D01*
X008073Y003858D02*
X011679Y003858D01*
X011679Y003916D02*
X008073Y003916D01*
X008073Y003975D02*
X011679Y003975D01*
X011679Y004033D02*
X008073Y004033D01*
X008073Y004092D02*
X011679Y004092D01*
X011679Y004150D02*
X008073Y004150D01*
X008073Y004209D02*
X011679Y004209D01*
X011679Y004267D02*
X008073Y004267D01*
X008073Y004326D02*
X011679Y004326D01*
X011679Y004384D02*
X008073Y004384D01*
X008073Y004443D02*
X011679Y004443D01*
X011679Y004501D02*
X008073Y004501D01*
X008073Y004560D02*
X011679Y004560D01*
X011679Y004618D02*
X008073Y004618D01*
X008098Y004677D02*
X011679Y004677D01*
X011679Y004735D02*
X008132Y004735D01*
X008166Y004794D02*
X011679Y004794D01*
X011679Y004852D02*
X008200Y004852D01*
X008235Y004911D02*
X011679Y004911D01*
X011679Y004969D02*
X008269Y004969D01*
X008303Y005028D02*
X011679Y005028D01*
X011679Y005086D02*
X008337Y005086D01*
X008371Y005145D02*
X011679Y005145D01*
X011679Y005203D02*
X008406Y005203D01*
X008461Y005262D02*
X011679Y005262D01*
X011679Y005320D02*
X008520Y005320D01*
X008563Y005379D02*
X011334Y005379D01*
X011252Y005437D02*
X008563Y005437D01*
X008563Y005496D02*
X011202Y005496D01*
X011178Y005554D02*
X008546Y005554D01*
X008487Y005613D02*
X011163Y005613D01*
X011163Y005671D02*
X006821Y005671D01*
X006821Y005613D02*
X008219Y005613D01*
X008160Y005554D02*
X006821Y005554D01*
X006821Y005496D02*
X008143Y005496D01*
X008143Y005437D02*
X006821Y005437D01*
X006821Y005379D02*
X008114Y005379D01*
X008080Y005320D02*
X006821Y005320D01*
X006821Y005262D02*
X008046Y005262D01*
X008012Y005203D02*
X006821Y005203D01*
X006821Y005145D02*
X007978Y005145D01*
X007943Y005086D02*
X006821Y005086D01*
X006821Y005028D02*
X007909Y005028D01*
X007875Y004969D02*
X006821Y004969D01*
X006821Y004911D02*
X007841Y004911D01*
X007807Y004852D02*
X006821Y004852D01*
X006821Y004794D02*
X007772Y004794D01*
X007733Y004735D02*
X006821Y004735D01*
X006821Y004677D02*
X007728Y004677D01*
X007733Y004618D02*
X006821Y004618D01*
X006821Y004560D02*
X007733Y004560D01*
X007733Y004501D02*
X006821Y004501D01*
X006821Y004443D02*
X007733Y004443D01*
X007733Y004384D02*
X006821Y004384D01*
X006821Y004326D02*
X007733Y004326D01*
X007733Y004267D02*
X006821Y004267D01*
X006821Y004209D02*
X007733Y004209D01*
X007733Y004150D02*
X006821Y004150D01*
X006821Y004092D02*
X007733Y004092D01*
X007733Y004033D02*
X006821Y004033D01*
X006821Y003975D02*
X007733Y003975D01*
X007733Y003916D02*
X006821Y003916D01*
X006821Y003858D02*
X007733Y003858D01*
X007733Y003799D02*
X006821Y003799D01*
X006821Y003741D02*
X007733Y003741D01*
X007733Y003682D02*
X006821Y003682D01*
X006821Y003624D02*
X007733Y003624D01*
X007733Y003565D02*
X006821Y003565D01*
X006821Y003507D02*
X007733Y003507D01*
X007733Y003448D02*
X006821Y003448D01*
X006821Y003390D02*
X007733Y003390D01*
X007733Y003331D02*
X006821Y003331D01*
X006821Y003273D02*
X007733Y003273D01*
X007733Y003214D02*
X006821Y003214D01*
X006821Y003156D02*
X007733Y003156D01*
X007733Y003097D02*
X006821Y003097D01*
X006821Y003039D02*
X007733Y003039D01*
X007733Y002980D02*
X007405Y002980D01*
X007436Y002922D02*
X007733Y002922D01*
X007733Y002863D02*
X007439Y002863D01*
X007439Y002805D02*
X007733Y002805D01*
X007733Y002746D02*
X007103Y002746D01*
X007103Y002688D02*
X007043Y002688D01*
X007043Y002629D02*
X007103Y002629D01*
X007103Y002571D02*
X007043Y002571D01*
X007043Y002512D02*
X007103Y002512D01*
X007103Y002454D02*
X007043Y002454D01*
X006821Y002395D02*
X007733Y002395D01*
X007733Y002337D02*
X006821Y002337D01*
X007351Y002454D02*
X007733Y002454D01*
X007733Y002512D02*
X007422Y002512D01*
X007439Y002571D02*
X007733Y002571D01*
X007733Y002629D02*
X007439Y002629D01*
X007439Y002688D02*
X007733Y002688D01*
X007103Y002805D02*
X007043Y002805D01*
X007043Y002863D02*
X007103Y002863D01*
X007103Y002922D02*
X007043Y002922D01*
X007043Y002980D02*
X007103Y002980D01*
X008969Y002044D02*
X009457Y002044D01*
X009457Y001986D02*
X008969Y001986D01*
X008969Y001927D02*
X009457Y001927D01*
X009457Y001869D02*
X008968Y001869D01*
X008945Y001810D02*
X009496Y001810D01*
X010377Y001459D02*
X011679Y001459D01*
X011679Y001401D02*
X010385Y001401D01*
X010385Y001342D02*
X011679Y001342D01*
X011679Y001284D02*
X010385Y001284D01*
X010385Y001225D02*
X011679Y001225D01*
X011679Y001167D02*
X010385Y001167D01*
X010385Y001108D02*
X011679Y001108D01*
X011679Y001050D02*
X010385Y001050D01*
X010426Y001518D02*
X011679Y001518D01*
X011679Y001576D02*
X010482Y001576D01*
X010539Y001635D02*
X011679Y001635D01*
X011679Y001693D02*
X010595Y001693D01*
X010644Y001752D02*
X011679Y001752D01*
X011679Y001810D02*
X010643Y001810D01*
X010643Y001869D02*
X011679Y001869D01*
X011679Y001927D02*
X010645Y001927D01*
X010704Y001986D02*
X011679Y001986D01*
X011679Y002044D02*
X010733Y002044D01*
X010733Y002103D02*
X011679Y002103D01*
X011679Y002161D02*
X010733Y002161D01*
X010719Y002220D02*
X011679Y002220D01*
X011679Y002278D02*
X010660Y002278D01*
X010602Y002337D02*
X011679Y002337D01*
X011679Y002395D02*
X010347Y002395D01*
X010385Y002337D02*
X010404Y002337D01*
X011592Y005379D02*
X011679Y005379D01*
X011674Y005437D02*
X011679Y005437D01*
X011171Y005730D02*
X006821Y005730D01*
X006821Y005788D02*
X011195Y005788D01*
X011235Y005847D02*
X006821Y005847D01*
D14*
X007613Y005760D03*
X008353Y005450D03*
X008593Y005760D03*
X009023Y005760D03*
X009113Y003960D03*
X009453Y003960D03*
X009793Y003960D03*
X009793Y003610D03*
X009453Y003610D03*
X009113Y003610D03*
X008773Y003610D03*
X008433Y003610D03*
X008433Y003270D03*
X008773Y003270D03*
X009113Y003270D03*
X009453Y003270D03*
X009793Y003270D03*
X009793Y002920D03*
X009453Y002920D03*
X009113Y002920D03*
X008773Y002920D03*
X008433Y002920D03*
X008433Y002580D03*
X008773Y002580D03*
X009113Y002580D03*
X009453Y002580D03*
X009793Y002580D03*
X009803Y001610D03*
X011343Y001120D03*
X008233Y001610D03*
X011433Y003370D03*
X008773Y003960D03*
X008433Y003960D03*
D15*
X007643Y004610D03*
X010883Y005090D03*
X011223Y005090D03*
X011543Y005090D03*
X007573Y002200D03*
D16*
X007903Y001800D02*
X008193Y001610D01*
X008233Y001610D01*
X009803Y001610D01*
X008223Y001600D02*
X007713Y001600D01*
X007493Y001380D01*
X007133Y001300D01*
X007903Y001800D02*
X007903Y004680D01*
X008353Y005450D01*
D17*
X010503Y002110D02*
X010503Y001799D01*
X009921Y001197D01*
X008233Y001610D02*
X008223Y001600D01*
D18*
X007133Y001300D02*
X007133Y002026D01*
X007073Y002026D01*
D19*
X010503Y002110D03*
D20*
X011463Y005650D03*
M02*
