G75*
G70*
%OFA0B0*%
%FSLAX24Y24*%
%IPPOS*%
%LPD*%
%AMOC8*
5,1,8,0,0,1.08239X$1,22.5*
%
%ADD10R,0.1772X0.1772*%
%ADD11R,0.0335X0.0110*%
%ADD12R,0.0110X0.0335*%
%ADD13R,0.0276X0.0354*%
%ADD14R,0.0433X0.0394*%
%ADD15R,0.0354X0.0276*%
%ADD16R,0.0500X0.0500*%
%ADD17C,0.0120*%
%ADD18C,0.0160*%
%ADD19C,0.0100*%
%ADD20C,0.0240*%
%ADD21C,0.0200*%
%ADD22C,0.0060*%
%ADD23C,0.0080*%
%ADD24C,0.0200*%
%ADD25C,0.0280*%
%ADD26C,0.0420*%
D10*
X009103Y003270D03*
D11*
X010274Y003172D03*
X010274Y003368D03*
X010274Y003565D03*
X010274Y003762D03*
X010274Y003959D03*
X010274Y004156D03*
X010274Y002975D03*
X010274Y002778D03*
X010274Y002581D03*
X010274Y002384D03*
X007932Y002384D03*
X007932Y002581D03*
X007932Y002778D03*
X007932Y002975D03*
X007932Y003172D03*
X007932Y003368D03*
X007932Y003565D03*
X007932Y003762D03*
X007932Y003959D03*
X007932Y004156D03*
D12*
X008217Y004441D03*
X008414Y004441D03*
X008611Y004441D03*
X008808Y004441D03*
X009005Y004441D03*
X009201Y004441D03*
X009398Y004441D03*
X009595Y004441D03*
X009792Y004441D03*
X009989Y004441D03*
X009989Y002099D03*
X009792Y002099D03*
X009595Y002099D03*
X009398Y002099D03*
X009201Y002099D03*
X009005Y002099D03*
X008808Y002099D03*
X008611Y002099D03*
X008414Y002099D03*
X008217Y002099D03*
D13*
X007659Y001800D03*
X007147Y001800D03*
X007157Y001210D03*
X007669Y001210D03*
X008777Y001210D03*
X009289Y001210D03*
X009677Y001210D03*
X010189Y001210D03*
X010149Y005070D03*
X009637Y005070D03*
X009299Y005070D03*
X008787Y005070D03*
X008349Y005070D03*
X007837Y005070D03*
X009627Y005580D03*
X010139Y005580D03*
D14*
X010558Y004620D03*
X011228Y004620D03*
D15*
X010523Y005034D03*
X010523Y005546D03*
X010933Y003886D03*
X010933Y003374D03*
X010953Y002966D03*
X010953Y002454D03*
X010953Y002066D03*
X010953Y001554D03*
D16*
X007083Y002290D03*
X007083Y002940D03*
X007083Y003590D03*
X007083Y004240D03*
X007073Y004890D03*
X007083Y005540D03*
D17*
X008414Y004441D02*
X008414Y003960D01*
X008433Y003960D02*
X007932Y003960D01*
X007932Y003762D01*
X007932Y003959D02*
X007932Y004156D01*
X008217Y004176D02*
X008433Y003960D01*
X008611Y003960D02*
X008611Y004441D01*
X008808Y004441D02*
X008808Y003270D01*
X008413Y003070D02*
X008413Y002099D01*
X009201Y002099D02*
X009398Y002099D01*
X009398Y002525D01*
X009453Y002580D01*
X009793Y002580D02*
X009793Y002099D01*
X009793Y002581D02*
X010274Y002581D01*
X010274Y002970D02*
X009743Y002980D01*
X009773Y003170D02*
X010273Y003170D01*
X010274Y003172D02*
X010274Y002970D01*
X010274Y003959D02*
X009794Y003959D01*
X009793Y003960D01*
X009792Y003961D01*
X009792Y004441D01*
X009398Y004441D02*
X009398Y004015D01*
X009453Y003960D01*
X009201Y004048D02*
X009113Y003960D01*
X009201Y004048D02*
X009201Y004441D01*
D18*
X009299Y005070D02*
X009637Y005070D01*
X010149Y005070D02*
X010559Y005070D01*
X008353Y005074D02*
X008353Y005450D01*
X008808Y003270D02*
X009103Y003270D01*
X010953Y002966D02*
X011287Y002966D01*
X011333Y002920D01*
X011333Y001730D01*
X011157Y001554D01*
X010953Y001554D01*
X010897Y001610D01*
X009803Y001610D01*
D19*
X009792Y002099D02*
X009793Y002099D01*
X010274Y002339D02*
X010503Y002110D01*
X010274Y002339D02*
X010274Y002384D01*
X009793Y002581D02*
X009793Y002580D01*
X009743Y002640D02*
X009743Y002950D01*
X009743Y002980D02*
X009743Y003270D01*
X009103Y003270D01*
X008808Y003270D02*
X008808Y003070D01*
X008413Y003070D01*
X008414Y003960D02*
X008433Y003960D01*
X008611Y003960D02*
X008773Y003960D01*
X009005Y004441D02*
X009005Y004678D01*
X008923Y004760D02*
X008443Y004760D01*
X008363Y004840D01*
X008363Y005056D01*
X009595Y005028D02*
X009595Y004441D01*
X009989Y004441D02*
X009989Y004656D01*
X010143Y004810D01*
X010143Y005064D01*
X010274Y003762D02*
X010274Y003565D01*
X010274Y003368D01*
X010279Y003176D02*
X010274Y003172D01*
X010273Y003170D01*
X008413Y002099D02*
X008217Y002099D01*
D20*
X008233Y001610D03*
X008433Y002580D03*
X008773Y002580D03*
X009113Y002580D03*
X009453Y002580D03*
X009793Y002580D03*
X009793Y002920D03*
X009453Y002920D03*
X009113Y002920D03*
X008773Y002920D03*
X008433Y002920D03*
X008433Y003270D03*
X008773Y003270D03*
X009113Y003270D03*
X009453Y003270D03*
X009793Y003270D03*
X009793Y003610D03*
X009453Y003610D03*
X009113Y003610D03*
X008773Y003610D03*
X008433Y003610D03*
X008433Y003960D03*
X008773Y003960D03*
X009113Y003960D03*
X009453Y003960D03*
X009793Y003960D03*
X011433Y003370D03*
X009803Y001610D03*
X011343Y001120D03*
X008353Y005450D03*
X008593Y005760D03*
X009023Y005760D03*
X007613Y005760D03*
D21*
X007643Y004610D03*
X010883Y005090D03*
X011223Y005090D03*
X011543Y005090D03*
X007573Y002200D03*
D22*
X006821Y001950D02*
X006821Y001002D01*
X006929Y001002D01*
X006929Y001424D01*
X006982Y001477D01*
X007248Y001477D01*
X007431Y001653D01*
X007431Y002014D01*
X007484Y002067D01*
X007834Y002067D01*
X007887Y002014D01*
X007887Y001756D01*
X007903Y001740D01*
X008066Y001740D01*
X008146Y001820D01*
X008320Y001820D01*
X008390Y001750D01*
X008481Y001842D01*
X008481Y001879D01*
X008466Y001894D01*
X008466Y002303D01*
X008518Y002356D01*
X008703Y002356D01*
X008709Y002350D01*
X008715Y002356D01*
X008900Y002356D01*
X008906Y002350D01*
X008912Y002356D01*
X009097Y002356D01*
X009150Y002303D01*
X009150Y001894D01*
X009133Y001877D01*
X009133Y001546D01*
X009057Y001470D01*
X009005Y001418D01*
X009005Y001002D01*
X009449Y001002D01*
X009449Y001424D01*
X009502Y001477D01*
X009547Y001477D01*
X009547Y001538D01*
X009593Y001584D01*
X009593Y001636D01*
X009465Y001764D01*
X009465Y001879D01*
X009450Y001894D01*
X009450Y002303D01*
X009503Y002356D01*
X009687Y002356D01*
X009740Y002303D01*
X009740Y001894D01*
X009725Y001879D01*
X009725Y001872D01*
X009777Y001820D01*
X009829Y001820D01*
X009859Y001850D01*
X009859Y001879D01*
X009844Y001894D01*
X009844Y002303D01*
X009896Y002356D01*
X010017Y002356D01*
X010017Y002477D01*
X010070Y002529D01*
X010479Y002529D01*
X010532Y002477D01*
X010532Y002340D01*
X010598Y002340D01*
X010733Y002205D01*
X010733Y002015D01*
X010598Y001880D01*
X010408Y001880D01*
X010273Y002015D01*
X010273Y002142D01*
X010176Y002239D01*
X010134Y002239D01*
X010134Y001894D01*
X010119Y001879D01*
X010119Y001780D01*
X010737Y001780D01*
X010739Y001782D01*
X011144Y001782D01*
X011163Y001800D01*
X011163Y002738D01*
X010909Y002738D01*
X010819Y002648D01*
X010494Y002648D01*
X010479Y002633D01*
X010070Y002633D01*
X010017Y002685D01*
X010017Y002870D01*
X010070Y002923D01*
X010479Y002923D01*
X010494Y002908D01*
X010686Y002908D01*
X010686Y003141D01*
X010705Y003160D01*
X010666Y003199D01*
X010666Y003313D01*
X010549Y003430D01*
X010532Y003430D01*
X010532Y003276D01*
X010479Y003223D01*
X010070Y003223D01*
X010017Y003276D01*
X010017Y003461D01*
X010023Y003467D01*
X010017Y003473D01*
X010017Y003658D01*
X010023Y003664D01*
X010017Y003670D01*
X010017Y003855D01*
X010070Y003907D01*
X010479Y003907D01*
X010532Y003855D01*
X010532Y003690D01*
X010657Y003690D01*
X010733Y003614D01*
X010745Y003602D01*
X011147Y003602D01*
X011200Y003549D01*
X011200Y003199D01*
X011181Y003180D01*
X011220Y003141D01*
X011220Y003136D01*
X011357Y003136D01*
X011403Y003090D01*
X011503Y002990D01*
X011503Y001660D01*
X011227Y001384D01*
X011220Y001384D01*
X011220Y001379D01*
X011167Y001326D01*
X010739Y001326D01*
X010686Y001379D01*
X010686Y001440D01*
X009930Y001440D01*
X009905Y001415D01*
X009905Y001002D01*
X011679Y001002D01*
X011679Y005180D01*
X010790Y005180D01*
X010790Y004907D01*
X010812Y004907D01*
X010865Y004854D01*
X010865Y004441D01*
X010921Y004497D01*
X010921Y004854D01*
X010974Y004907D01*
X011481Y004907D01*
X011534Y004854D01*
X011534Y004386D01*
X011481Y004333D01*
X011125Y004333D01*
X010961Y004170D01*
X010627Y004170D01*
X010532Y004075D01*
X010532Y004063D01*
X010479Y004011D01*
X010070Y004011D01*
X010017Y004063D01*
X010017Y004184D01*
X009896Y004184D01*
X009844Y004237D01*
X009844Y004646D01*
X009849Y004651D01*
X009849Y004714D01*
X009956Y004821D01*
X009921Y004856D01*
X009921Y005284D01*
X009974Y005337D01*
X010324Y005337D01*
X010377Y005284D01*
X010377Y005262D01*
X010653Y005262D01*
X010653Y005860D01*
X006821Y005860D01*
X006821Y005230D01*
X007360Y005230D01*
X007413Y005177D01*
X007413Y005014D01*
X007483Y004944D01*
X007563Y004864D01*
X007563Y004144D01*
X007703Y004004D01*
X007703Y003724D01*
X007722Y003705D01*
X007727Y003710D01*
X008136Y003710D01*
X008189Y003658D01*
X008189Y003473D01*
X008183Y003467D01*
X008189Y003461D01*
X008189Y003276D01*
X008183Y003270D01*
X008189Y003264D01*
X008189Y003079D01*
X008183Y003073D01*
X008189Y003067D01*
X008189Y002882D01*
X008183Y002876D01*
X008189Y002870D01*
X008189Y002685D01*
X008183Y002679D01*
X008189Y002673D01*
X008189Y002489D01*
X008183Y002483D01*
X008189Y002477D01*
X008189Y002292D01*
X008136Y002239D01*
X007727Y002239D01*
X007674Y002292D01*
X007674Y002477D01*
X007680Y002483D01*
X007674Y002489D01*
X007674Y002568D01*
X007443Y002336D01*
X007423Y002316D01*
X007423Y002003D01*
X007370Y001950D01*
X006821Y001950D01*
X006821Y001927D02*
X007431Y001927D01*
X007431Y001869D02*
X006821Y001869D01*
X006821Y001810D02*
X007431Y001810D01*
X007431Y001752D02*
X006821Y001752D01*
X006821Y001693D02*
X007431Y001693D01*
X007412Y001635D02*
X006821Y001635D01*
X006821Y001576D02*
X007351Y001576D01*
X007290Y001518D02*
X006821Y001518D01*
X006821Y001459D02*
X006964Y001459D01*
X006929Y001401D02*
X006821Y001401D01*
X006821Y001342D02*
X006929Y001342D01*
X006929Y001284D02*
X006821Y001284D01*
X006821Y001225D02*
X006929Y001225D01*
X006929Y001167D02*
X006821Y001167D01*
X006821Y001108D02*
X006929Y001108D01*
X006929Y001050D02*
X006821Y001050D01*
X007891Y001752D02*
X008078Y001752D01*
X008136Y001810D02*
X007887Y001810D01*
X007887Y001869D02*
X008481Y001869D01*
X008466Y001927D02*
X007887Y001927D01*
X007887Y001986D02*
X008466Y001986D01*
X008466Y002044D02*
X007857Y002044D01*
X007688Y002278D02*
X007423Y002278D01*
X007423Y002220D02*
X008466Y002220D01*
X008466Y002278D02*
X008175Y002278D01*
X008189Y002337D02*
X008499Y002337D01*
X008466Y002161D02*
X007423Y002161D01*
X007423Y002103D02*
X008466Y002103D01*
X008449Y001810D02*
X008330Y001810D01*
X008388Y001752D02*
X008391Y001752D01*
X009005Y001401D02*
X009449Y001401D01*
X009449Y001342D02*
X009005Y001342D01*
X009005Y001284D02*
X009449Y001284D01*
X009449Y001225D02*
X009005Y001225D01*
X009005Y001167D02*
X009449Y001167D01*
X009449Y001108D02*
X009005Y001108D01*
X009005Y001050D02*
X009449Y001050D01*
X009905Y001050D02*
X011679Y001050D01*
X011679Y001108D02*
X009905Y001108D01*
X009905Y001167D02*
X011679Y001167D01*
X011679Y001225D02*
X009905Y001225D01*
X009905Y001284D02*
X011679Y001284D01*
X011679Y001342D02*
X011183Y001342D01*
X011244Y001401D02*
X011679Y001401D01*
X011679Y001459D02*
X011302Y001459D01*
X011361Y001518D02*
X011679Y001518D01*
X011679Y001576D02*
X011419Y001576D01*
X011478Y001635D02*
X011679Y001635D01*
X011679Y001693D02*
X011503Y001693D01*
X011503Y001752D02*
X011679Y001752D01*
X011679Y001810D02*
X011503Y001810D01*
X011503Y001869D02*
X011679Y001869D01*
X011679Y001927D02*
X011503Y001927D01*
X011503Y001986D02*
X011679Y001986D01*
X011679Y002044D02*
X011503Y002044D01*
X011503Y002103D02*
X011679Y002103D01*
X011679Y002161D02*
X011503Y002161D01*
X011503Y002220D02*
X011679Y002220D01*
X011679Y002278D02*
X011503Y002278D01*
X011503Y002337D02*
X011679Y002337D01*
X011679Y002395D02*
X011503Y002395D01*
X011503Y002454D02*
X011679Y002454D01*
X011679Y002512D02*
X011503Y002512D01*
X011503Y002571D02*
X011679Y002571D01*
X011679Y002629D02*
X011503Y002629D01*
X011503Y002688D02*
X011679Y002688D01*
X011679Y002746D02*
X011503Y002746D01*
X011503Y002805D02*
X011679Y002805D01*
X011679Y002863D02*
X011503Y002863D01*
X011503Y002922D02*
X011679Y002922D01*
X011679Y002980D02*
X011503Y002980D01*
X011455Y003039D02*
X011679Y003039D01*
X011679Y003097D02*
X011396Y003097D01*
X011206Y003156D02*
X011679Y003156D01*
X011679Y003214D02*
X011200Y003214D01*
X011200Y003273D02*
X011679Y003273D01*
X011679Y003331D02*
X011200Y003331D01*
X011200Y003390D02*
X011679Y003390D01*
X011679Y003448D02*
X011200Y003448D01*
X011200Y003507D02*
X011679Y003507D01*
X011679Y003565D02*
X011184Y003565D01*
X010723Y003624D02*
X011679Y003624D01*
X011679Y003682D02*
X010665Y003682D01*
X010532Y003741D02*
X011679Y003741D01*
X011679Y003799D02*
X010532Y003799D01*
X010529Y003858D02*
X011679Y003858D01*
X011679Y003916D02*
X007703Y003916D01*
X007703Y003858D02*
X010020Y003858D01*
X010017Y003799D02*
X007703Y003799D01*
X007703Y003741D02*
X010017Y003741D01*
X010017Y003682D02*
X008165Y003682D01*
X008189Y003624D02*
X010017Y003624D01*
X010017Y003565D02*
X008189Y003565D01*
X008189Y003507D02*
X010017Y003507D01*
X010017Y003448D02*
X008189Y003448D01*
X008189Y003390D02*
X010017Y003390D01*
X010017Y003331D02*
X008189Y003331D01*
X008186Y003273D02*
X010020Y003273D01*
X010068Y002922D02*
X008189Y002922D01*
X008189Y002980D02*
X010686Y002980D01*
X010686Y002922D02*
X010480Y002922D01*
X010686Y003039D02*
X008189Y003039D01*
X008189Y003097D02*
X010686Y003097D01*
X010700Y003156D02*
X008189Y003156D01*
X008189Y003214D02*
X010666Y003214D01*
X010666Y003273D02*
X010528Y003273D01*
X010532Y003331D02*
X010648Y003331D01*
X010590Y003390D02*
X010532Y003390D01*
X010501Y004033D02*
X011679Y004033D01*
X011679Y003975D02*
X007703Y003975D01*
X007674Y004033D02*
X010047Y004033D01*
X010017Y004092D02*
X007615Y004092D01*
X007563Y004150D02*
X010017Y004150D01*
X009872Y004209D02*
X009712Y004209D01*
X009687Y004184D02*
X009740Y004237D01*
X009740Y004646D01*
X009735Y004651D01*
X009735Y004803D01*
X009812Y004803D01*
X009865Y004856D01*
X009865Y005284D01*
X009812Y005337D01*
X009124Y005337D01*
X009071Y005284D01*
X009071Y004856D01*
X009124Y004803D01*
X009455Y004803D01*
X009455Y004651D01*
X009450Y004646D01*
X009450Y004237D01*
X009503Y004184D01*
X009687Y004184D01*
X009740Y004267D02*
X009844Y004267D01*
X009844Y004326D02*
X009740Y004326D01*
X009740Y004384D02*
X009844Y004384D01*
X009844Y004443D02*
X009740Y004443D01*
X009740Y004501D02*
X009844Y004501D01*
X009844Y004560D02*
X009740Y004560D01*
X009740Y004618D02*
X009844Y004618D01*
X009849Y004677D02*
X009735Y004677D01*
X009735Y004735D02*
X009870Y004735D01*
X009929Y004794D02*
X009735Y004794D01*
X009861Y004852D02*
X009925Y004852D01*
X009921Y004911D02*
X009865Y004911D01*
X009865Y004969D02*
X009921Y004969D01*
X009921Y005028D02*
X009865Y005028D01*
X009865Y005086D02*
X009921Y005086D01*
X009921Y005145D02*
X009865Y005145D01*
X009865Y005203D02*
X009921Y005203D01*
X009921Y005262D02*
X009865Y005262D01*
X009829Y005320D02*
X009957Y005320D01*
X010149Y005070D02*
X010143Y005064D01*
X010341Y005320D02*
X010653Y005320D01*
X010653Y005379D02*
X008563Y005379D01*
X008563Y005363D02*
X008563Y005537D01*
X008440Y005660D01*
X008266Y005660D01*
X008143Y005537D01*
X008143Y005363D01*
X008171Y005335D01*
X008121Y005284D01*
X008121Y004856D01*
X008174Y004803D01*
X008223Y004803D01*
X008223Y004782D01*
X008305Y004700D01*
X008385Y004620D01*
X008859Y004620D01*
X008859Y004237D01*
X008912Y004184D01*
X009097Y004184D01*
X009150Y004237D01*
X009150Y004646D01*
X009145Y004651D01*
X009145Y004736D01*
X009063Y004818D01*
X008981Y004900D01*
X008577Y004900D01*
X008577Y005284D01*
X008531Y005331D01*
X008563Y005363D01*
X008541Y005320D02*
X009107Y005320D01*
X009071Y005262D02*
X008577Y005262D01*
X008577Y005203D02*
X009071Y005203D01*
X009071Y005145D02*
X008577Y005145D01*
X008577Y005086D02*
X009071Y005086D01*
X009071Y005028D02*
X008577Y005028D01*
X008577Y004969D02*
X009071Y004969D01*
X009071Y004911D02*
X008577Y004911D01*
X008363Y005056D02*
X008349Y005070D01*
X008283Y005160D01*
X008121Y005145D02*
X007413Y005145D01*
X007413Y005086D02*
X008121Y005086D01*
X008121Y005028D02*
X007413Y005028D01*
X007458Y004969D02*
X008121Y004969D01*
X008121Y004911D02*
X007516Y004911D01*
X007563Y004852D02*
X008125Y004852D01*
X008223Y004794D02*
X007563Y004794D01*
X007563Y004735D02*
X008270Y004735D01*
X008328Y004677D02*
X007563Y004677D01*
X007563Y004618D02*
X008859Y004618D01*
X008859Y004560D02*
X007563Y004560D01*
X007563Y004501D02*
X008859Y004501D01*
X008859Y004443D02*
X007563Y004443D01*
X007563Y004384D02*
X008859Y004384D01*
X008859Y004326D02*
X007563Y004326D01*
X007563Y004267D02*
X008859Y004267D01*
X008888Y004209D02*
X007563Y004209D01*
X009029Y004852D02*
X009075Y004852D01*
X009087Y004794D02*
X009455Y004794D01*
X009455Y004735D02*
X009145Y004735D01*
X009145Y004677D02*
X009455Y004677D01*
X009450Y004618D02*
X009150Y004618D01*
X009150Y004560D02*
X009450Y004560D01*
X009450Y004501D02*
X009150Y004501D01*
X009150Y004443D02*
X009450Y004443D01*
X009450Y004384D02*
X009150Y004384D01*
X009150Y004326D02*
X009450Y004326D01*
X009450Y004267D02*
X009150Y004267D01*
X009122Y004209D02*
X009478Y004209D01*
X010548Y004092D02*
X011679Y004092D01*
X011679Y004150D02*
X010607Y004150D01*
X010865Y004443D02*
X010866Y004443D01*
X010865Y004501D02*
X010921Y004501D01*
X010921Y004560D02*
X010865Y004560D01*
X010865Y004618D02*
X010921Y004618D01*
X010921Y004677D02*
X010865Y004677D01*
X010865Y004735D02*
X010921Y004735D01*
X010921Y004794D02*
X010865Y004794D01*
X010865Y004852D02*
X010921Y004852D01*
X010790Y004911D02*
X011679Y004911D01*
X011679Y004969D02*
X010790Y004969D01*
X010790Y005028D02*
X011679Y005028D01*
X011679Y005086D02*
X010790Y005086D01*
X010790Y005145D02*
X011679Y005145D01*
X011679Y004852D02*
X011534Y004852D01*
X011534Y004794D02*
X011679Y004794D01*
X011679Y004735D02*
X011534Y004735D01*
X011534Y004677D02*
X011679Y004677D01*
X011679Y004618D02*
X011534Y004618D01*
X011534Y004560D02*
X011679Y004560D01*
X011679Y004501D02*
X011534Y004501D01*
X011534Y004443D02*
X011679Y004443D01*
X011679Y004384D02*
X011532Y004384D01*
X011679Y004326D02*
X011117Y004326D01*
X011058Y004267D02*
X011679Y004267D01*
X011679Y004209D02*
X011000Y004209D01*
X009637Y005070D02*
X009595Y005028D01*
X008563Y005437D02*
X010653Y005437D01*
X010653Y005496D02*
X008563Y005496D01*
X008546Y005554D02*
X010653Y005554D01*
X010653Y005613D02*
X008487Y005613D01*
X008219Y005613D02*
X006821Y005613D01*
X006821Y005671D02*
X010653Y005671D01*
X010653Y005730D02*
X006821Y005730D01*
X006821Y005788D02*
X010653Y005788D01*
X010653Y005847D02*
X006821Y005847D01*
X006821Y005554D02*
X008160Y005554D01*
X008143Y005496D02*
X006821Y005496D01*
X006821Y005437D02*
X008143Y005437D01*
X008143Y005379D02*
X006821Y005379D01*
X006821Y005320D02*
X008157Y005320D01*
X008121Y005262D02*
X006821Y005262D01*
X007387Y005203D02*
X008121Y005203D01*
X008189Y002863D02*
X010017Y002863D01*
X010017Y002805D02*
X008189Y002805D01*
X008189Y002746D02*
X010017Y002746D01*
X010017Y002688D02*
X008189Y002688D01*
X008189Y002629D02*
X011163Y002629D01*
X011163Y002571D02*
X008189Y002571D01*
X008189Y002512D02*
X010052Y002512D01*
X010017Y002454D02*
X008189Y002454D01*
X008189Y002395D02*
X010017Y002395D01*
X009877Y002337D02*
X009707Y002337D01*
X009740Y002278D02*
X009844Y002278D01*
X009844Y002220D02*
X009740Y002220D01*
X009740Y002161D02*
X009844Y002161D01*
X009844Y002103D02*
X009740Y002103D01*
X009740Y002044D02*
X009844Y002044D01*
X009844Y001986D02*
X009740Y001986D01*
X009740Y001927D02*
X009844Y001927D01*
X009859Y001869D02*
X009728Y001869D01*
X009536Y001693D02*
X009133Y001693D01*
X009133Y001635D02*
X009593Y001635D01*
X009585Y001576D02*
X009133Y001576D01*
X009104Y001518D02*
X009547Y001518D01*
X009484Y001459D02*
X009046Y001459D01*
X009133Y001752D02*
X009478Y001752D01*
X009465Y001810D02*
X009133Y001810D01*
X009133Y001869D02*
X009465Y001869D01*
X009450Y001927D02*
X009150Y001927D01*
X009150Y001986D02*
X009450Y001986D01*
X009450Y002044D02*
X009150Y002044D01*
X009150Y002103D02*
X009450Y002103D01*
X009450Y002161D02*
X009150Y002161D01*
X009150Y002220D02*
X009450Y002220D01*
X009450Y002278D02*
X009150Y002278D01*
X009116Y002337D02*
X009483Y002337D01*
X010134Y002220D02*
X010195Y002220D01*
X010254Y002161D02*
X010134Y002161D01*
X010134Y002103D02*
X010273Y002103D01*
X010273Y002044D02*
X010134Y002044D01*
X010134Y001986D02*
X010302Y001986D01*
X010361Y001927D02*
X010134Y001927D01*
X010119Y001869D02*
X011163Y001869D01*
X011163Y001927D02*
X010645Y001927D01*
X010704Y001986D02*
X011163Y001986D01*
X011163Y002044D02*
X010733Y002044D01*
X010733Y002103D02*
X011163Y002103D01*
X011163Y002161D02*
X010733Y002161D01*
X010719Y002220D02*
X011163Y002220D01*
X011163Y002278D02*
X010660Y002278D01*
X010602Y002337D02*
X011163Y002337D01*
X011163Y002395D02*
X010532Y002395D01*
X010532Y002454D02*
X011163Y002454D01*
X011163Y002512D02*
X010496Y002512D01*
X010858Y002688D02*
X011163Y002688D01*
X011163Y001810D02*
X010119Y001810D01*
X009905Y001401D02*
X010686Y001401D01*
X010723Y001342D02*
X009905Y001342D01*
X007674Y002337D02*
X007443Y002337D01*
X007502Y002395D02*
X007674Y002395D01*
X007674Y002454D02*
X007560Y002454D01*
X007619Y002512D02*
X007674Y002512D01*
X007461Y002044D02*
X007423Y002044D01*
X007431Y001986D02*
X007406Y001986D01*
D23*
X007659Y001800D02*
X007849Y001610D01*
X008233Y001610D01*
X008433Y001610D01*
X008611Y001788D01*
X008611Y002099D01*
X008808Y002099D02*
X008808Y001755D01*
X008243Y001190D01*
X007669Y001210D01*
X007659Y001692D02*
X007157Y001210D01*
X007659Y001692D02*
X007659Y001800D01*
X007083Y002290D02*
X007183Y002390D01*
X007313Y002390D01*
X007701Y002778D01*
X007932Y002778D01*
X007927Y002970D02*
X007673Y002970D01*
X007533Y002830D01*
X007273Y002830D01*
X007163Y002940D01*
X007083Y002940D01*
X007673Y003170D02*
X007253Y003590D01*
X007083Y003590D01*
X007433Y003610D02*
X007433Y003890D01*
X007083Y004240D01*
X007433Y004090D02*
X007433Y004810D01*
X007353Y004890D01*
X007073Y004890D01*
X007837Y004821D02*
X007837Y005070D01*
X008349Y005070D02*
X008353Y005074D01*
X008923Y004760D02*
X009005Y004678D01*
X010274Y004156D02*
X010429Y004156D01*
X010573Y004300D01*
X010908Y004300D01*
X011228Y004620D01*
X010558Y004620D02*
X010558Y004999D01*
X010523Y005034D01*
X010559Y005070D01*
X010603Y003560D02*
X010279Y003560D01*
X010274Y003565D01*
X010603Y003560D02*
X010789Y003374D01*
X010933Y003374D01*
X010953Y003354D01*
X010953Y002966D01*
X010765Y002778D01*
X010274Y002778D01*
X009989Y002099D02*
X009989Y001796D01*
X009803Y001610D01*
X009677Y001484D01*
X009677Y001210D01*
X009803Y001610D02*
X009595Y001818D01*
X009595Y002099D01*
X009005Y002099D02*
X009003Y002097D01*
X009003Y001600D01*
X008787Y001384D01*
X008777Y001210D01*
X007927Y002970D02*
X007932Y002975D01*
X007930Y003170D02*
X007673Y003170D01*
X007675Y003368D02*
X007433Y003610D01*
X007573Y003670D02*
X007573Y003950D01*
X007433Y004090D01*
X007573Y003670D02*
X007678Y003565D01*
X007932Y003565D01*
X007932Y003368D02*
X007675Y003368D01*
X007930Y003170D02*
X007932Y003172D01*
D24*
X010523Y005546D02*
X011359Y005546D01*
X011463Y005650D01*
D25*
X010503Y002110D03*
D26*
X011463Y005650D03*
M02*
