%
M48
M72
T01C0.0120
T02C0.0160
T03C0.0300
%
T01
X7573Y2200
X8433Y2580
X8773Y2580
X9113Y2580
X9453Y2580
X9793Y2580
X9793Y2920
X9453Y2920
X9113Y2920
X8773Y2920
X8433Y2920
X8433Y3270
X8773Y3270
X9113Y3270
X9453Y3270
X9793Y3270
X9793Y3610
X9453Y3610
X9113Y3610
X8773Y3610
X8433Y3610
X8433Y3960
X8773Y3960
X9113Y3960
X9453Y3960
X9793Y3960
X11433Y3370
X9803Y1610
X11343Y1120
X8233Y1610
X7643Y4610
X8353Y5450
X8593Y5760
X9023Y5760
X7613Y5760
T02
X10503Y2110
T03
X11463Y5650
M30
