G75*
G70*
%OFA0B0*%
%FSLAX24Y24*%
%IPPOS*%
%LPD*%
%AMOC8*
5,1,8,0,0,1.08239X$1,22.5*
%
%ADD10R,0.1772X0.1772*%
%ADD11R,0.0335X0.0110*%
%ADD12R,0.0110X0.0335*%
%ADD13R,0.0354X0.0276*%
%ADD14R,0.0276X0.0354*%
%ADD15R,0.0433X0.0394*%
%ADD16R,0.0748X0.0433*%
%ADD17R,0.0315X0.0472*%
%ADD18R,0.1000X0.0500*%
%ADD19C,0.0120*%
%ADD20C,0.0160*%
%ADD21C,0.0240*%
%ADD22C,0.0100*%
%ADD23C,0.0060*%
%ADD24C,0.0200*%
%ADD25C,0.0210*%
D10*
X008703Y007850D03*
D11*
X007532Y007752D03*
X007532Y007555D03*
X007532Y007358D03*
X007532Y007161D03*
X007532Y006964D03*
X007532Y007948D03*
X007532Y008145D03*
X007532Y008342D03*
X007532Y008539D03*
X007532Y008736D03*
X009875Y008736D03*
X009875Y008539D03*
X009875Y008342D03*
X009875Y008145D03*
X009875Y007948D03*
X009875Y007752D03*
X009875Y007555D03*
X009875Y007358D03*
X009875Y007161D03*
X009875Y006964D03*
D12*
X009589Y006679D03*
X009392Y006679D03*
X009195Y006679D03*
X008999Y006679D03*
X008802Y006679D03*
X008605Y006679D03*
X008408Y006679D03*
X008211Y006679D03*
X008014Y006679D03*
X007817Y006679D03*
X007817Y009021D03*
X008014Y009021D03*
X008211Y009021D03*
X008408Y009021D03*
X008605Y009021D03*
X008802Y009021D03*
X008999Y009021D03*
X009195Y009021D03*
X009392Y009021D03*
X009589Y009021D03*
D13*
X010363Y009954D03*
X010363Y010466D03*
X010603Y008906D03*
X010603Y008394D03*
X010603Y007716D03*
X010603Y007204D03*
X011073Y007204D03*
X011073Y007716D03*
X009393Y005686D03*
X009393Y005174D03*
X008603Y005174D03*
X008603Y005686D03*
D14*
X007659Y005680D03*
X007659Y005090D03*
X007147Y005090D03*
X007147Y005680D03*
X007387Y009950D03*
X007899Y009950D03*
X008667Y009950D03*
X009179Y009950D03*
X009177Y010460D03*
X009689Y010460D03*
X009847Y011120D03*
X010359Y011120D03*
D15*
X010929Y009960D03*
X011598Y009960D03*
D16*
X009902Y004223D03*
X009902Y003317D03*
X008445Y003317D03*
X008445Y004223D03*
D17*
X007568Y004210D03*
X006859Y004210D03*
D18*
X005833Y003800D03*
X005833Y004750D03*
X005833Y005750D03*
X005833Y006750D03*
X005833Y007750D03*
X005833Y008750D03*
X005833Y009750D03*
D19*
X006793Y009950D02*
X006803Y009940D01*
X007203Y009030D02*
X007238Y009030D01*
X007532Y008736D01*
X007532Y008539D01*
X007532Y008540D02*
X008033Y008540D01*
X007817Y008756D01*
X007817Y009021D01*
X008014Y009021D02*
X008014Y008540D01*
X008211Y008540D02*
X008211Y009021D01*
X008408Y009021D02*
X008408Y007850D01*
X008013Y007650D02*
X008013Y006679D01*
X008211Y006679D02*
X008211Y006328D01*
X007943Y006060D01*
X007659Y005776D01*
X007659Y005680D02*
X007659Y005090D01*
X007933Y004670D02*
X008113Y004850D01*
X008113Y005800D01*
X008408Y006095D01*
X008408Y006679D01*
X008605Y006679D02*
X008605Y005686D01*
X008603Y005174D02*
X008603Y004810D01*
X007933Y004670D02*
X007253Y004670D01*
X007147Y004776D01*
X007147Y005090D01*
X007147Y005680D02*
X007137Y005690D01*
X007143Y005970D01*
X008802Y006679D02*
X008999Y006679D01*
X008999Y007105D01*
X009053Y007160D01*
X009393Y007160D02*
X009393Y006679D01*
X009589Y006679D02*
X009589Y006256D01*
X009393Y006060D01*
X009195Y006258D01*
X009195Y006679D01*
X009393Y007161D02*
X009875Y007161D01*
X009875Y006964D02*
X009875Y006609D01*
X010353Y006130D01*
X010353Y004674D01*
X009902Y004223D01*
X009393Y004750D02*
X009393Y005174D01*
X009393Y005686D02*
X009393Y006060D01*
X009875Y007358D02*
X010285Y007358D01*
X010403Y007240D01*
X010543Y007240D01*
X010543Y006780D01*
X010763Y006560D01*
X011173Y006560D01*
X011463Y006850D01*
X011463Y007570D01*
X011277Y007756D01*
X011073Y007716D02*
X011073Y008030D01*
X010599Y008790D02*
X010603Y008906D01*
X010599Y008790D02*
X010393Y008790D01*
X010142Y008539D01*
X009875Y008539D01*
X009394Y008539D01*
X009393Y008540D01*
X009392Y008541D01*
X009392Y009021D01*
X009589Y009021D02*
X009589Y009954D01*
X010363Y009954D01*
X010923Y009954D01*
X010929Y009960D01*
X010363Y009960D02*
X010363Y009954D01*
X010363Y010466D02*
X010359Y010466D01*
X010359Y011120D01*
X009689Y010460D02*
X009649Y010460D01*
X009589Y010400D01*
X009589Y009954D01*
X009179Y009950D02*
X009177Y009950D01*
X009177Y010460D01*
X009195Y010460D02*
X009195Y009021D01*
X008999Y009021D02*
X008999Y008595D01*
X009053Y008540D01*
X008802Y008628D02*
X008713Y008540D01*
X008802Y008628D02*
X008802Y009021D01*
X008605Y009021D02*
X008605Y009244D01*
X007899Y009950D01*
X007899Y010184D01*
X007683Y010400D01*
X008667Y009950D02*
X008673Y009944D01*
X008673Y009710D01*
X008999Y009385D01*
X008999Y009021D01*
X009875Y008931D02*
X009875Y008736D01*
X009875Y008931D02*
X010253Y009310D01*
X011613Y009310D01*
X011753Y009450D01*
X011753Y009955D01*
X011598Y009960D01*
X009875Y008145D02*
X009875Y007948D01*
X009875Y007752D02*
X009875Y007550D01*
X009343Y007560D01*
X009373Y007750D02*
X009873Y007750D01*
X011073Y007204D02*
X010983Y006800D01*
X009589Y010400D02*
X009589Y010460D01*
X007532Y008540D02*
X007532Y008342D01*
X006249Y003800D02*
X005833Y003800D01*
D20*
X006249Y003800D02*
X006659Y004210D01*
X006859Y004210D01*
X006659Y004210D02*
X006659Y005926D01*
X006983Y006250D01*
X007753Y006250D01*
X007943Y006060D01*
X008408Y007850D02*
X008703Y007850D01*
X006183Y008850D02*
X005833Y008750D01*
D21*
X005833Y008310D03*
X005833Y007310D03*
X005833Y006310D03*
X005833Y005310D03*
X005833Y004310D03*
X005833Y003350D03*
X005833Y002350D03*
X007033Y002350D03*
X007033Y003350D03*
X007833Y003350D03*
X008033Y002350D03*
X009033Y002350D03*
X009173Y003350D03*
X009173Y004350D03*
X009403Y004750D03*
X010033Y005350D03*
X009393Y006060D03*
X009393Y007160D03*
X009393Y007500D03*
X009393Y007850D03*
X009393Y008190D03*
X009393Y008540D03*
X009053Y008540D03*
X008713Y008540D03*
X008713Y008190D03*
X008713Y007850D03*
X009053Y007850D03*
X009053Y008190D03*
X009053Y007500D03*
X008713Y007500D03*
X008713Y007160D03*
X009053Y007160D03*
X008373Y007160D03*
X008373Y007500D03*
X008373Y007850D03*
X008373Y008190D03*
X008373Y008540D03*
X008033Y008540D03*
X008033Y008190D03*
X008033Y007850D03*
X008033Y007500D03*
X008033Y007160D03*
X007293Y006510D03*
X007033Y006950D03*
X007143Y005970D03*
X007943Y006060D03*
X008603Y004750D03*
X007233Y004350D03*
X010053Y002360D03*
X011033Y002360D03*
X011023Y003350D03*
X011033Y004350D03*
X012233Y004350D03*
X012233Y003350D03*
X012233Y002350D03*
X012233Y005350D03*
X012233Y006350D03*
X012233Y007350D03*
X012233Y008350D03*
X012233Y009350D03*
X012233Y010150D03*
X012233Y010750D03*
X012133Y011350D03*
X011683Y011350D03*
X011233Y011350D03*
X010833Y011350D03*
X009333Y011350D03*
X008833Y011350D03*
X008333Y011350D03*
X008033Y010750D03*
X007683Y010400D03*
X007033Y010750D03*
X006833Y011350D03*
X006333Y011350D03*
X005833Y011350D03*
X005833Y010750D03*
X005833Y010350D03*
X005833Y009350D03*
X007003Y009950D03*
X007203Y009030D03*
X007033Y008550D03*
X007333Y011350D03*
X007833Y011350D03*
X011033Y008550D03*
X010983Y006800D03*
X010543Y006780D03*
X011033Y006200D03*
D22*
X010603Y007204D02*
X010599Y007240D01*
X010543Y007240D01*
X010603Y007716D02*
X010603Y007752D01*
X009875Y007752D01*
X009873Y007750D01*
X009875Y007752D02*
X009879Y007756D01*
X009875Y007948D02*
X010158Y007948D01*
X010603Y008394D01*
X010709Y008394D01*
X011073Y008030D01*
X011073Y007716D02*
X011277Y007756D01*
X010603Y008394D02*
X010551Y008342D01*
X009875Y008342D01*
X009343Y007850D02*
X008703Y007850D01*
X008408Y007850D02*
X008408Y007650D01*
X008013Y007650D01*
X007532Y007555D02*
X006888Y007555D01*
X006533Y007200D01*
X006533Y006500D01*
X005833Y005750D01*
X006463Y005380D02*
X005833Y004750D01*
X006463Y005380D02*
X006463Y006130D01*
X006733Y006400D01*
X006733Y007150D01*
X006941Y007358D01*
X007532Y007358D01*
X007532Y007752D02*
X006735Y007752D01*
X005833Y006750D01*
X005833Y007750D02*
X005932Y007948D01*
X007532Y007948D01*
X007532Y008145D02*
X006888Y008145D01*
X006183Y008850D01*
X007817Y006679D02*
X008013Y006679D01*
X007659Y005776D02*
X007659Y005680D01*
X008603Y005686D02*
X008605Y005686D01*
X008603Y004810D02*
X008603Y004750D01*
X009393Y004750D02*
X009403Y004750D01*
X009392Y006679D02*
X009393Y006679D01*
X009393Y007160D02*
X009393Y007161D01*
X009343Y007220D02*
X009343Y007530D01*
X009343Y007560D02*
X009343Y007850D01*
X008373Y008540D02*
X008211Y008540D01*
X008033Y008540D02*
X008014Y008540D01*
X010535Y008342D02*
X010603Y008394D01*
D23*
X005363Y003460D02*
X005363Y001840D01*
X012353Y001840D01*
X012353Y011450D01*
X010663Y011450D01*
X010663Y010900D01*
X012046Y010900D01*
X012063Y010882D01*
X012063Y009518D01*
X012046Y009500D01*
X011903Y009500D01*
X011903Y009388D01*
X011815Y009300D01*
X011675Y009160D01*
X010315Y009160D01*
X010036Y008881D01*
X010079Y008881D01*
X010132Y008828D01*
X010132Y008643D01*
X010079Y008591D01*
X009942Y008591D01*
X009937Y008586D01*
X009812Y008586D01*
X009808Y008591D01*
X009670Y008591D01*
X009617Y008643D01*
X009617Y008764D01*
X009497Y008764D01*
X009444Y008817D01*
X009444Y008954D01*
X009439Y008959D01*
X009439Y009500D01*
X009345Y009500D01*
X009345Y008959D01*
X009341Y008954D01*
X009341Y008817D01*
X009288Y008764D01*
X009103Y008764D01*
X009050Y008817D01*
X009050Y008954D01*
X009045Y008959D01*
X009045Y009500D01*
X008751Y009500D01*
X008733Y009518D01*
X008733Y010882D01*
X008751Y010900D01*
X010003Y010900D01*
X010003Y011450D01*
X005363Y011450D01*
X005363Y009090D01*
X006371Y009090D01*
X006423Y009037D01*
X006423Y008808D01*
X006946Y008285D01*
X007322Y008285D01*
X007327Y008290D01*
X007737Y008290D01*
X007789Y008238D01*
X007789Y008053D01*
X007783Y008047D01*
X007789Y008041D01*
X007789Y007856D01*
X007783Y007850D01*
X007789Y007844D01*
X007789Y007659D01*
X007783Y007653D01*
X007789Y007647D01*
X007789Y007462D01*
X007783Y007456D01*
X007789Y007450D01*
X007789Y007265D01*
X007783Y007259D01*
X007789Y007253D01*
X007789Y007069D01*
X007783Y007063D01*
X007789Y007057D01*
X007789Y006872D01*
X007737Y006819D01*
X007327Y006819D01*
X007275Y006872D01*
X007275Y007057D01*
X007281Y007063D01*
X007275Y007069D01*
X007275Y007218D01*
X006999Y007218D01*
X006873Y007092D01*
X006873Y006380D01*
X006913Y006420D01*
X007824Y006420D01*
X007957Y006286D01*
X008061Y006390D01*
X008061Y006741D01*
X008066Y006746D01*
X008066Y006883D01*
X008119Y006936D01*
X008304Y006936D01*
X008310Y006930D01*
X008316Y006936D01*
X008500Y006936D01*
X008506Y006930D01*
X008512Y006936D01*
X008697Y006936D01*
X008750Y006883D01*
X008750Y006746D01*
X008755Y006741D01*
X008755Y005914D01*
X008818Y005914D01*
X008870Y005861D01*
X008870Y005511D01*
X008818Y005458D01*
X008389Y005458D01*
X008336Y005511D01*
X008336Y005811D01*
X008263Y005738D01*
X008263Y004788D01*
X008175Y004700D01*
X007995Y004520D01*
X007191Y004520D01*
X007103Y004608D01*
X006997Y004714D01*
X006997Y004823D01*
X006972Y004823D01*
X006920Y004876D01*
X006920Y005304D01*
X006972Y005357D01*
X007322Y005357D01*
X007375Y005304D01*
X007375Y004876D01*
X007322Y004823D01*
X007313Y004823D01*
X007315Y004820D01*
X007871Y004820D01*
X007963Y004912D01*
X007963Y005850D01*
X007945Y005850D01*
X007887Y005792D01*
X007887Y005466D01*
X007834Y005413D01*
X007809Y005413D01*
X007809Y005357D01*
X007834Y005357D01*
X007887Y005304D01*
X007887Y004876D01*
X007834Y004823D01*
X007484Y004823D01*
X007431Y004876D01*
X007431Y005304D01*
X007484Y005357D01*
X007509Y005357D01*
X007509Y005413D01*
X007484Y005413D01*
X007431Y005466D01*
X007431Y005894D01*
X007484Y005947D01*
X007618Y005947D01*
X007717Y006046D01*
X007683Y006080D01*
X007054Y006080D01*
X006829Y005855D01*
X006829Y004536D01*
X007054Y004536D01*
X007106Y004483D01*
X007106Y003936D01*
X007054Y003884D01*
X006664Y003884D01*
X006619Y003929D01*
X006423Y003734D01*
X006423Y003513D01*
X006371Y003460D01*
X005363Y003460D01*
X005363Y003443D02*
X009438Y003443D01*
X009438Y003385D02*
X005363Y003385D01*
X005363Y003326D02*
X009438Y003326D01*
X009438Y003268D02*
X005363Y003268D01*
X005363Y003209D02*
X009438Y003209D01*
X009438Y003151D02*
X005363Y003151D01*
X005363Y003092D02*
X009438Y003092D01*
X009438Y003063D02*
X009490Y003011D01*
X010313Y003011D01*
X010366Y003063D01*
X010366Y003571D01*
X010313Y003624D01*
X009490Y003624D01*
X009438Y003571D01*
X009438Y003063D01*
X009468Y003034D02*
X005363Y003034D01*
X005363Y002975D02*
X012353Y002975D01*
X012353Y002917D02*
X005363Y002917D01*
X005363Y002858D02*
X012353Y002858D01*
X012353Y002800D02*
X005363Y002800D01*
X005363Y002741D02*
X012353Y002741D01*
X012353Y002683D02*
X005363Y002683D01*
X005363Y002624D02*
X012353Y002624D01*
X012353Y002566D02*
X005363Y002566D01*
X005363Y002507D02*
X012353Y002507D01*
X012353Y002449D02*
X005363Y002449D01*
X005363Y002390D02*
X012353Y002390D01*
X012353Y002332D02*
X005363Y002332D01*
X005363Y002273D02*
X012353Y002273D01*
X012353Y002215D02*
X005363Y002215D01*
X005363Y002156D02*
X012353Y002156D01*
X012353Y002098D02*
X005363Y002098D01*
X005363Y002039D02*
X012353Y002039D01*
X012353Y001981D02*
X005363Y001981D01*
X005363Y001922D02*
X012353Y001922D01*
X012353Y001864D02*
X005363Y001864D01*
X006412Y003502D02*
X009438Y003502D01*
X009438Y003560D02*
X006423Y003560D01*
X006423Y003619D02*
X009485Y003619D01*
X009490Y003916D02*
X010313Y003916D01*
X010366Y003969D01*
X010366Y004475D01*
X010503Y004612D01*
X010503Y006192D01*
X010415Y006280D01*
X010025Y006671D01*
X010025Y006819D01*
X010079Y006819D01*
X010132Y006872D01*
X010132Y007057D01*
X010079Y007109D01*
X009942Y007109D01*
X009937Y007114D01*
X009812Y007114D01*
X009808Y007109D01*
X009670Y007109D01*
X009617Y007057D01*
X009617Y006936D01*
X009497Y006936D01*
X009444Y006883D01*
X009444Y006746D01*
X009439Y006741D01*
X009439Y006318D01*
X009393Y006272D01*
X009345Y006320D01*
X009345Y006741D01*
X009341Y006746D01*
X009341Y006883D01*
X009288Y006936D01*
X009103Y006936D01*
X009050Y006883D01*
X009050Y006746D01*
X009045Y006741D01*
X009045Y006196D01*
X009183Y006058D01*
X009183Y005973D01*
X009243Y005914D01*
X009179Y005914D01*
X009126Y005861D01*
X009126Y005511D01*
X009179Y005458D01*
X009608Y005458D01*
X009660Y005511D01*
X009660Y005861D01*
X009608Y005914D01*
X009544Y005914D01*
X009603Y005973D01*
X009603Y006058D01*
X009651Y006106D01*
X009739Y006194D01*
X009739Y006532D01*
X010203Y006068D01*
X010203Y004737D01*
X009996Y004529D01*
X009490Y004529D01*
X009438Y004477D01*
X009438Y003969D01*
X009490Y003916D01*
X009438Y003970D02*
X008909Y003970D01*
X008909Y003969D02*
X008856Y003916D01*
X008034Y003916D01*
X007981Y003969D01*
X007981Y004477D01*
X008034Y004529D01*
X008856Y004529D01*
X008909Y004477D01*
X008909Y003969D01*
X008909Y004028D02*
X009438Y004028D01*
X009438Y004087D02*
X008909Y004087D01*
X008909Y004145D02*
X009438Y004145D01*
X009438Y004204D02*
X008909Y004204D01*
X008909Y004262D02*
X009438Y004262D01*
X009438Y004321D02*
X008909Y004321D01*
X008909Y004379D02*
X009438Y004379D01*
X009438Y004438D02*
X008909Y004438D01*
X008890Y004496D02*
X009457Y004496D01*
X010021Y004555D02*
X008030Y004555D01*
X008000Y004496D02*
X007094Y004496D01*
X007106Y004438D02*
X007981Y004438D01*
X007981Y004379D02*
X007106Y004379D01*
X007106Y004321D02*
X007981Y004321D01*
X007981Y004262D02*
X007106Y004262D01*
X007106Y004204D02*
X007981Y004204D01*
X007981Y004145D02*
X007106Y004145D01*
X007106Y004087D02*
X007981Y004087D01*
X007981Y004028D02*
X007106Y004028D01*
X007106Y003970D02*
X007981Y003970D01*
X008088Y004613D02*
X010080Y004613D01*
X010138Y004672D02*
X008147Y004672D01*
X008205Y004730D02*
X010197Y004730D01*
X010203Y004789D02*
X008263Y004789D01*
X008263Y004847D02*
X010203Y004847D01*
X010203Y004906D02*
X008263Y004906D01*
X008263Y004964D02*
X010203Y004964D01*
X010203Y005023D02*
X008263Y005023D01*
X008263Y005081D02*
X010203Y005081D01*
X010203Y005140D02*
X008263Y005140D01*
X008263Y005198D02*
X010203Y005198D01*
X010203Y005257D02*
X008263Y005257D01*
X008263Y005315D02*
X010203Y005315D01*
X010203Y005374D02*
X008263Y005374D01*
X008263Y005432D02*
X010203Y005432D01*
X010203Y005491D02*
X009640Y005491D01*
X009660Y005549D02*
X010203Y005549D01*
X010203Y005608D02*
X009660Y005608D01*
X009660Y005666D02*
X010203Y005666D01*
X010203Y005725D02*
X009660Y005725D01*
X009660Y005783D02*
X010203Y005783D01*
X010203Y005842D02*
X009660Y005842D01*
X009621Y005900D02*
X010203Y005900D01*
X010203Y005959D02*
X009589Y005959D01*
X009603Y006017D02*
X010203Y006017D01*
X010196Y006076D02*
X009621Y006076D01*
X009651Y006106D02*
X009651Y006106D01*
X009679Y006134D02*
X010137Y006134D01*
X010079Y006193D02*
X009738Y006193D01*
X009739Y006251D02*
X010020Y006251D01*
X009962Y006310D02*
X009739Y006310D01*
X009739Y006368D02*
X009903Y006368D01*
X009845Y006427D02*
X009739Y006427D01*
X009739Y006485D02*
X009786Y006485D01*
X010035Y006661D02*
X010366Y006661D01*
X010333Y006693D02*
X010456Y006570D01*
X010541Y006570D01*
X010613Y006498D01*
X010701Y006410D01*
X011235Y006410D01*
X011525Y006700D01*
X011613Y006788D01*
X011613Y007632D01*
X011340Y007906D01*
X011326Y007906D01*
X011288Y007944D01*
X011223Y007944D01*
X011223Y008092D01*
X011135Y008180D01*
X011121Y008180D01*
X010870Y008431D01*
X010870Y008569D01*
X010818Y008622D01*
X010389Y008622D01*
X010336Y008569D01*
X010336Y008482D01*
X010084Y008482D01*
X010079Y008487D01*
X009670Y008487D01*
X009617Y008435D01*
X009617Y008250D01*
X009623Y008244D01*
X009617Y008238D01*
X009617Y008053D01*
X009623Y008047D01*
X009617Y008041D01*
X009617Y007856D01*
X009670Y007803D01*
X009808Y007803D01*
X009812Y007798D01*
X009937Y007798D01*
X009942Y007803D01*
X010079Y007803D01*
X010084Y007808D01*
X010216Y007808D01*
X010574Y008166D01*
X010739Y008166D01*
X010923Y007982D01*
X010923Y007944D01*
X010859Y007944D01*
X010806Y007891D01*
X010806Y007541D01*
X010859Y007488D01*
X011288Y007488D01*
X011310Y007511D01*
X011313Y007508D01*
X011313Y006912D01*
X011111Y006710D01*
X010825Y006710D01*
X010753Y006782D01*
X010753Y006867D01*
X010693Y006927D01*
X010693Y006976D01*
X010818Y006976D01*
X010870Y007029D01*
X010870Y007379D01*
X010818Y007432D01*
X010424Y007432D01*
X010348Y007508D01*
X009812Y007508D01*
X009808Y007503D01*
X009670Y007503D01*
X009617Y007450D01*
X009617Y007265D01*
X009670Y007213D01*
X009808Y007213D01*
X009812Y007208D01*
X010223Y007208D01*
X010253Y007178D01*
X010336Y007095D01*
X010336Y007029D01*
X010389Y006976D01*
X010393Y006976D01*
X010393Y006927D01*
X010333Y006867D01*
X010333Y006693D01*
X010333Y006719D02*
X010025Y006719D01*
X010025Y006778D02*
X010333Y006778D01*
X010333Y006836D02*
X010096Y006836D01*
X010132Y006895D02*
X010361Y006895D01*
X010393Y006953D02*
X010132Y006953D01*
X010132Y007012D02*
X010354Y007012D01*
X010336Y007070D02*
X010118Y007070D01*
X010244Y007187D02*
X007789Y007187D01*
X007789Y007129D02*
X010303Y007129D01*
X010376Y007480D02*
X011313Y007480D01*
X011313Y007421D02*
X010829Y007421D01*
X010870Y007363D02*
X011313Y007363D01*
X011313Y007304D02*
X010870Y007304D01*
X010870Y007246D02*
X011313Y007246D01*
X011313Y007187D02*
X010870Y007187D01*
X010870Y007129D02*
X011313Y007129D01*
X011313Y007070D02*
X010870Y007070D01*
X010853Y007012D02*
X011313Y007012D01*
X011313Y006953D02*
X010693Y006953D01*
X010726Y006895D02*
X011296Y006895D01*
X011237Y006836D02*
X010753Y006836D01*
X010758Y006778D02*
X011179Y006778D01*
X011120Y006719D02*
X010816Y006719D01*
X010685Y006427D02*
X010269Y006427D01*
X010210Y006485D02*
X010626Y006485D01*
X010568Y006544D02*
X010152Y006544D01*
X010093Y006602D02*
X010424Y006602D01*
X010327Y006368D02*
X012353Y006368D01*
X012353Y006310D02*
X010386Y006310D01*
X010444Y006251D02*
X012353Y006251D01*
X012353Y006193D02*
X010503Y006193D01*
X010503Y006134D02*
X012353Y006134D01*
X012353Y006076D02*
X010503Y006076D01*
X010503Y006017D02*
X012353Y006017D01*
X012353Y005959D02*
X010503Y005959D01*
X010503Y005900D02*
X012353Y005900D01*
X012353Y005842D02*
X010503Y005842D01*
X010503Y005783D02*
X012353Y005783D01*
X012353Y005725D02*
X010503Y005725D01*
X010503Y005666D02*
X012353Y005666D01*
X012353Y005608D02*
X010503Y005608D01*
X010503Y005549D02*
X012353Y005549D01*
X012353Y005491D02*
X010503Y005491D01*
X010503Y005432D02*
X012353Y005432D01*
X012353Y005374D02*
X010503Y005374D01*
X010503Y005315D02*
X012353Y005315D01*
X012353Y005257D02*
X010503Y005257D01*
X010503Y005198D02*
X012353Y005198D01*
X012353Y005140D02*
X010503Y005140D01*
X010503Y005081D02*
X012353Y005081D01*
X012353Y005023D02*
X010503Y005023D01*
X010503Y004964D02*
X012353Y004964D01*
X012353Y004906D02*
X010503Y004906D01*
X010503Y004847D02*
X012353Y004847D01*
X012353Y004789D02*
X010503Y004789D01*
X010503Y004730D02*
X012353Y004730D01*
X012353Y004672D02*
X010503Y004672D01*
X010503Y004613D02*
X012353Y004613D01*
X012353Y004555D02*
X010446Y004555D01*
X010387Y004496D02*
X012353Y004496D01*
X012353Y004438D02*
X010366Y004438D01*
X010366Y004379D02*
X012353Y004379D01*
X012353Y004321D02*
X010366Y004321D01*
X010366Y004262D02*
X012353Y004262D01*
X012353Y004204D02*
X010366Y004204D01*
X010366Y004145D02*
X012353Y004145D01*
X012353Y004087D02*
X010366Y004087D01*
X010366Y004028D02*
X012353Y004028D01*
X012353Y003970D02*
X010366Y003970D01*
X010318Y003619D02*
X012353Y003619D01*
X012353Y003677D02*
X006423Y003677D01*
X006425Y003736D02*
X012353Y003736D01*
X012353Y003794D02*
X006483Y003794D01*
X006542Y003853D02*
X012353Y003853D01*
X012353Y003911D02*
X007081Y003911D01*
X006637Y003911D02*
X006600Y003911D01*
X006354Y004145D02*
X005363Y004145D01*
X005363Y004140D02*
X005363Y004410D01*
X006371Y004410D01*
X006423Y004463D01*
X006423Y005037D01*
X006371Y005090D01*
X006489Y005208D01*
X006489Y004280D01*
X006349Y004140D01*
X005363Y004140D01*
X005363Y004204D02*
X006412Y004204D01*
X006471Y004262D02*
X005363Y004262D01*
X005363Y004321D02*
X006489Y004321D01*
X006489Y004379D02*
X005363Y004379D01*
X005363Y005090D02*
X005975Y005090D01*
X006295Y005410D01*
X005363Y005410D01*
X005363Y005090D01*
X005363Y005140D02*
X006025Y005140D01*
X006083Y005198D02*
X005363Y005198D01*
X005363Y005257D02*
X006142Y005257D01*
X006200Y005315D02*
X005363Y005315D01*
X005363Y005374D02*
X006259Y005374D01*
X006479Y005198D02*
X006489Y005198D01*
X006489Y005140D02*
X006421Y005140D01*
X006380Y005081D02*
X006489Y005081D01*
X006489Y005023D02*
X006423Y005023D01*
X006423Y004964D02*
X006489Y004964D01*
X006489Y004906D02*
X006423Y004906D01*
X006423Y004847D02*
X006489Y004847D01*
X006489Y004789D02*
X006423Y004789D01*
X006423Y004730D02*
X006489Y004730D01*
X006489Y004672D02*
X006423Y004672D01*
X006423Y004613D02*
X006489Y004613D01*
X006489Y004555D02*
X006423Y004555D01*
X006423Y004496D02*
X006489Y004496D01*
X006489Y004438D02*
X006398Y004438D01*
X006829Y004555D02*
X007157Y004555D01*
X007098Y004613D02*
X006829Y004613D01*
X006829Y004672D02*
X007040Y004672D01*
X006997Y004730D02*
X006829Y004730D01*
X006829Y004789D02*
X006997Y004789D01*
X006948Y004847D02*
X006829Y004847D01*
X006829Y004906D02*
X006920Y004906D01*
X006920Y004964D02*
X006829Y004964D01*
X006829Y005023D02*
X006920Y005023D01*
X006920Y005081D02*
X006829Y005081D01*
X006829Y005140D02*
X006920Y005140D01*
X006920Y005198D02*
X006829Y005198D01*
X006829Y005257D02*
X006920Y005257D01*
X006930Y005315D02*
X006829Y005315D01*
X006829Y005374D02*
X007509Y005374D01*
X007465Y005432D02*
X006829Y005432D01*
X006829Y005491D02*
X007431Y005491D01*
X007431Y005549D02*
X006829Y005549D01*
X006829Y005608D02*
X007431Y005608D01*
X007431Y005666D02*
X006829Y005666D01*
X006829Y005725D02*
X007431Y005725D01*
X007431Y005783D02*
X006829Y005783D01*
X006829Y005842D02*
X007431Y005842D01*
X007437Y005900D02*
X006874Y005900D01*
X006932Y005959D02*
X007630Y005959D01*
X007688Y006017D02*
X006991Y006017D01*
X007049Y006076D02*
X007687Y006076D01*
X007876Y006368D02*
X008039Y006368D01*
X008061Y006427D02*
X006873Y006427D01*
X006873Y006485D02*
X008061Y006485D01*
X008061Y006544D02*
X006873Y006544D01*
X006873Y006602D02*
X008061Y006602D01*
X008061Y006661D02*
X006873Y006661D01*
X006873Y006719D02*
X008061Y006719D01*
X008066Y006778D02*
X006873Y006778D01*
X006873Y006836D02*
X007310Y006836D01*
X007275Y006895D02*
X006873Y006895D01*
X006873Y006953D02*
X007275Y006953D01*
X007275Y007012D02*
X006873Y007012D01*
X006873Y007070D02*
X007275Y007070D01*
X007275Y007129D02*
X006910Y007129D01*
X006968Y007187D02*
X007275Y007187D01*
X007754Y006836D02*
X008066Y006836D01*
X008077Y006895D02*
X007789Y006895D01*
X007789Y006953D02*
X009617Y006953D01*
X009617Y007012D02*
X007789Y007012D01*
X007789Y007070D02*
X009631Y007070D01*
X009637Y007246D02*
X007789Y007246D01*
X007789Y007304D02*
X009617Y007304D01*
X009617Y007363D02*
X007789Y007363D01*
X007789Y007421D02*
X009617Y007421D01*
X009647Y007480D02*
X007789Y007480D01*
X007789Y007538D02*
X010809Y007538D01*
X010806Y007597D02*
X007789Y007597D01*
X007785Y007655D02*
X010806Y007655D01*
X010806Y007714D02*
X007789Y007714D01*
X007789Y007772D02*
X010806Y007772D01*
X010806Y007831D02*
X010238Y007831D01*
X010296Y007889D02*
X010806Y007889D01*
X010923Y007948D02*
X010355Y007948D01*
X010413Y008006D02*
X010899Y008006D01*
X010841Y008065D02*
X010472Y008065D01*
X010530Y008123D02*
X010782Y008123D01*
X011003Y008299D02*
X012353Y008299D01*
X012353Y008357D02*
X010944Y008357D01*
X010886Y008416D02*
X012353Y008416D01*
X012353Y008474D02*
X010870Y008474D01*
X010870Y008533D02*
X012353Y008533D01*
X012353Y008591D02*
X010849Y008591D01*
X011061Y008240D02*
X012353Y008240D01*
X012353Y008182D02*
X011120Y008182D01*
X011192Y008123D02*
X012353Y008123D01*
X012353Y008065D02*
X011223Y008065D01*
X011223Y008006D02*
X012353Y008006D01*
X012353Y007948D02*
X011223Y007948D01*
X011356Y007889D02*
X012353Y007889D01*
X012353Y007831D02*
X011415Y007831D01*
X011473Y007772D02*
X012353Y007772D01*
X012353Y007714D02*
X011532Y007714D01*
X011590Y007655D02*
X012353Y007655D01*
X012353Y007597D02*
X011613Y007597D01*
X011613Y007538D02*
X012353Y007538D01*
X012353Y007480D02*
X011613Y007480D01*
X011613Y007421D02*
X012353Y007421D01*
X012353Y007363D02*
X011613Y007363D01*
X011613Y007304D02*
X012353Y007304D01*
X012353Y007246D02*
X011613Y007246D01*
X011613Y007187D02*
X012353Y007187D01*
X012353Y007129D02*
X011613Y007129D01*
X011613Y007070D02*
X012353Y007070D01*
X012353Y007012D02*
X011613Y007012D01*
X011613Y006953D02*
X012353Y006953D01*
X012353Y006895D02*
X011613Y006895D01*
X011613Y006836D02*
X012353Y006836D01*
X012353Y006778D02*
X011603Y006778D01*
X011544Y006719D02*
X012353Y006719D01*
X012353Y006661D02*
X011486Y006661D01*
X011427Y006602D02*
X012353Y006602D01*
X012353Y006544D02*
X011369Y006544D01*
X011310Y006485D02*
X012353Y006485D01*
X012353Y006427D02*
X011252Y006427D01*
X009643Y007831D02*
X007789Y007831D01*
X007789Y007889D02*
X009617Y007889D01*
X009617Y007948D02*
X007789Y007948D01*
X007789Y008006D02*
X009617Y008006D01*
X009617Y008065D02*
X007789Y008065D01*
X007789Y008123D02*
X009617Y008123D01*
X009617Y008182D02*
X007789Y008182D01*
X007787Y008240D02*
X009620Y008240D01*
X009617Y008299D02*
X006933Y008299D01*
X006874Y008357D02*
X009617Y008357D01*
X009617Y008416D02*
X006816Y008416D01*
X006757Y008474D02*
X009657Y008474D01*
X009670Y008591D02*
X006640Y008591D01*
X006582Y008650D02*
X009617Y008650D01*
X009617Y008708D02*
X006523Y008708D01*
X006465Y008767D02*
X008510Y008767D01*
X008512Y008764D02*
X008697Y008764D01*
X008750Y008817D01*
X008750Y008954D01*
X008755Y008959D01*
X008755Y009306D01*
X008127Y009934D01*
X008127Y010164D01*
X008074Y010217D01*
X008049Y010217D01*
X008049Y010246D01*
X007893Y010402D01*
X007893Y010487D01*
X007770Y010610D01*
X007596Y010610D01*
X007473Y010487D01*
X007473Y010313D01*
X007596Y010190D01*
X007681Y010190D01*
X007689Y010182D01*
X007671Y010164D01*
X007671Y009736D01*
X007724Y009683D01*
X007954Y009683D01*
X008455Y009182D01*
X008455Y008959D01*
X008460Y008954D01*
X008460Y008817D01*
X008512Y008764D01*
X008460Y008825D02*
X006423Y008825D01*
X006423Y008884D02*
X008460Y008884D01*
X008460Y008942D02*
X006423Y008942D01*
X006423Y009001D02*
X008455Y009001D01*
X008455Y009059D02*
X006402Y009059D01*
X006699Y008533D02*
X010336Y008533D01*
X010358Y008591D02*
X010079Y008591D01*
X010132Y008650D02*
X012353Y008650D01*
X012353Y008708D02*
X010132Y008708D01*
X010132Y008767D02*
X012353Y008767D01*
X012353Y008825D02*
X010132Y008825D01*
X010039Y008884D02*
X012353Y008884D01*
X012353Y008942D02*
X010097Y008942D01*
X010156Y009001D02*
X012353Y009001D01*
X012353Y009059D02*
X010214Y009059D01*
X010273Y009118D02*
X012353Y009118D01*
X012353Y009176D02*
X011691Y009176D01*
X011750Y009235D02*
X012353Y009235D01*
X012353Y009293D02*
X011808Y009293D01*
X011867Y009352D02*
X012353Y009352D01*
X012353Y009410D02*
X011903Y009410D01*
X011903Y009469D02*
X012353Y009469D01*
X012353Y009527D02*
X012063Y009527D01*
X012063Y009586D02*
X012353Y009586D01*
X012353Y009644D02*
X012063Y009644D01*
X012063Y009703D02*
X012353Y009703D01*
X012353Y009761D02*
X012063Y009761D01*
X012063Y009820D02*
X012353Y009820D01*
X012353Y009878D02*
X012063Y009878D01*
X012063Y009937D02*
X012353Y009937D01*
X012353Y009995D02*
X012063Y009995D01*
X012063Y010054D02*
X012353Y010054D01*
X012353Y010112D02*
X012063Y010112D01*
X012063Y010171D02*
X012353Y010171D01*
X012353Y010229D02*
X012063Y010229D01*
X012063Y010288D02*
X012353Y010288D01*
X012353Y010346D02*
X012063Y010346D01*
X012063Y010405D02*
X012353Y010405D01*
X012353Y010463D02*
X012063Y010463D01*
X012063Y010522D02*
X012353Y010522D01*
X012353Y010580D02*
X012063Y010580D01*
X012063Y010639D02*
X012353Y010639D01*
X012353Y010697D02*
X012063Y010697D01*
X012063Y010756D02*
X012353Y010756D01*
X012353Y010814D02*
X012063Y010814D01*
X012063Y010873D02*
X012353Y010873D01*
X012353Y010931D02*
X010663Y010931D01*
X010663Y010990D02*
X012353Y010990D01*
X012353Y011048D02*
X010663Y011048D01*
X010663Y011107D02*
X012353Y011107D01*
X012353Y011165D02*
X010663Y011165D01*
X010663Y011224D02*
X012353Y011224D01*
X012353Y011282D02*
X010663Y011282D01*
X010663Y011341D02*
X012353Y011341D01*
X012353Y011399D02*
X010663Y011399D01*
X010003Y011399D02*
X005363Y011399D01*
X005363Y011341D02*
X010003Y011341D01*
X010003Y011282D02*
X005363Y011282D01*
X005363Y011224D02*
X010003Y011224D01*
X010003Y011165D02*
X005363Y011165D01*
X005363Y011107D02*
X010003Y011107D01*
X010003Y011048D02*
X005363Y011048D01*
X005363Y010990D02*
X010003Y010990D01*
X010003Y010931D02*
X005363Y010931D01*
X005363Y010873D02*
X008733Y010873D01*
X008733Y010814D02*
X005363Y010814D01*
X005363Y010756D02*
X008733Y010756D01*
X008733Y010697D02*
X005363Y010697D01*
X005363Y010639D02*
X008733Y010639D01*
X008733Y010580D02*
X007800Y010580D01*
X007859Y010522D02*
X008733Y010522D01*
X008733Y010463D02*
X007893Y010463D01*
X007893Y010405D02*
X008733Y010405D01*
X008733Y010346D02*
X007949Y010346D01*
X008008Y010288D02*
X008733Y010288D01*
X008733Y010229D02*
X008049Y010229D01*
X008121Y010171D02*
X008733Y010171D01*
X008733Y010112D02*
X008127Y010112D01*
X008127Y010054D02*
X008733Y010054D01*
X008733Y009995D02*
X008127Y009995D01*
X008127Y009937D02*
X008733Y009937D01*
X008733Y009878D02*
X008183Y009878D01*
X008242Y009820D02*
X008733Y009820D01*
X008733Y009761D02*
X008300Y009761D01*
X008359Y009703D02*
X008733Y009703D01*
X008733Y009644D02*
X008417Y009644D01*
X008476Y009586D02*
X008733Y009586D01*
X008733Y009527D02*
X008534Y009527D01*
X008593Y009469D02*
X009045Y009469D01*
X009045Y009410D02*
X008651Y009410D01*
X008710Y009352D02*
X009045Y009352D01*
X009045Y009293D02*
X008755Y009293D01*
X008755Y009235D02*
X009045Y009235D01*
X009045Y009176D02*
X008755Y009176D01*
X008755Y009118D02*
X009045Y009118D01*
X009045Y009059D02*
X008755Y009059D01*
X008755Y009001D02*
X009045Y009001D01*
X009050Y008942D02*
X008750Y008942D01*
X008750Y008884D02*
X009050Y008884D01*
X009050Y008825D02*
X008750Y008825D01*
X008700Y008767D02*
X009100Y008767D01*
X009290Y008767D02*
X009494Y008767D01*
X009444Y008825D02*
X009341Y008825D01*
X009341Y008884D02*
X009444Y008884D01*
X009444Y008942D02*
X009341Y008942D01*
X009345Y009001D02*
X009439Y009001D01*
X009439Y009059D02*
X009345Y009059D01*
X009345Y009118D02*
X009439Y009118D01*
X009439Y009176D02*
X009345Y009176D01*
X009345Y009235D02*
X009439Y009235D01*
X009439Y009293D02*
X009345Y009293D01*
X009345Y009352D02*
X009439Y009352D01*
X009439Y009410D02*
X009345Y009410D01*
X009345Y009469D02*
X009439Y009469D01*
X008455Y009176D02*
X005363Y009176D01*
X005363Y009118D02*
X008455Y009118D01*
X008403Y009235D02*
X005363Y009235D01*
X005363Y009293D02*
X008344Y009293D01*
X008286Y009352D02*
X005363Y009352D01*
X005363Y009410D02*
X008227Y009410D01*
X008169Y009469D02*
X005363Y009469D01*
X005363Y009527D02*
X008110Y009527D01*
X008052Y009586D02*
X005363Y009586D01*
X005363Y009644D02*
X007993Y009644D01*
X007704Y009703D02*
X005363Y009703D01*
X005363Y009761D02*
X007671Y009761D01*
X007671Y009820D02*
X005363Y009820D01*
X005363Y009878D02*
X007671Y009878D01*
X007671Y009937D02*
X005363Y009937D01*
X005363Y009995D02*
X007671Y009995D01*
X007671Y010054D02*
X005363Y010054D01*
X005363Y010112D02*
X007671Y010112D01*
X007678Y010171D02*
X005363Y010171D01*
X005363Y010229D02*
X007557Y010229D01*
X007499Y010288D02*
X005363Y010288D01*
X005363Y010346D02*
X007473Y010346D01*
X007473Y010405D02*
X005363Y010405D01*
X005363Y010463D02*
X007473Y010463D01*
X007508Y010522D02*
X005363Y010522D01*
X005363Y010580D02*
X007566Y010580D01*
X006398Y008437D02*
X006747Y008088D01*
X006372Y008088D01*
X006371Y008090D01*
X005961Y008090D01*
X005942Y008100D01*
X005913Y008090D01*
X005363Y008090D01*
X005363Y008410D01*
X006371Y008410D01*
X006398Y008437D01*
X006376Y008416D02*
X006420Y008416D01*
X006478Y008357D02*
X005363Y008357D01*
X005363Y008299D02*
X006537Y008299D01*
X006595Y008240D02*
X005363Y008240D01*
X005363Y008182D02*
X006654Y008182D01*
X006712Y008123D02*
X005363Y008123D01*
X005363Y007410D02*
X006239Y007410D01*
X005951Y007090D01*
X005363Y007090D01*
X005363Y007410D01*
X005363Y007363D02*
X006196Y007363D01*
X006144Y007304D02*
X005363Y007304D01*
X005363Y007246D02*
X006091Y007246D01*
X006038Y007187D02*
X005363Y007187D01*
X005363Y007129D02*
X005986Y007129D01*
X006258Y006410D02*
X005959Y006090D01*
X005363Y006090D01*
X005363Y006410D01*
X006258Y006410D01*
X006219Y006368D02*
X005363Y006368D01*
X005363Y006310D02*
X006164Y006310D01*
X006109Y006251D02*
X005363Y006251D01*
X005363Y006193D02*
X006055Y006193D01*
X006000Y006134D02*
X005363Y006134D01*
X007365Y005315D02*
X007442Y005315D01*
X007431Y005257D02*
X007375Y005257D01*
X007375Y005198D02*
X007431Y005198D01*
X007431Y005140D02*
X007375Y005140D01*
X007375Y005081D02*
X007431Y005081D01*
X007431Y005023D02*
X007375Y005023D01*
X007375Y004964D02*
X007431Y004964D01*
X007431Y004906D02*
X007375Y004906D01*
X007347Y004847D02*
X007460Y004847D01*
X007858Y004847D02*
X007898Y004847D01*
X007887Y004906D02*
X007957Y004906D01*
X007963Y004964D02*
X007887Y004964D01*
X007887Y005023D02*
X007963Y005023D01*
X007963Y005081D02*
X007887Y005081D01*
X007887Y005140D02*
X007963Y005140D01*
X007963Y005198D02*
X007887Y005198D01*
X007887Y005257D02*
X007963Y005257D01*
X007963Y005315D02*
X007876Y005315D01*
X007809Y005374D02*
X007963Y005374D01*
X007963Y005432D02*
X007853Y005432D01*
X007887Y005491D02*
X007963Y005491D01*
X007963Y005549D02*
X007887Y005549D01*
X007887Y005608D02*
X007963Y005608D01*
X007963Y005666D02*
X007887Y005666D01*
X007887Y005725D02*
X007963Y005725D01*
X007963Y005783D02*
X007887Y005783D01*
X007937Y005842D02*
X007963Y005842D01*
X008263Y005725D02*
X008336Y005725D01*
X008336Y005783D02*
X008308Y005783D01*
X008336Y005666D02*
X008263Y005666D01*
X008263Y005608D02*
X008336Y005608D01*
X008336Y005549D02*
X008263Y005549D01*
X008263Y005491D02*
X008356Y005491D01*
X008755Y005959D02*
X009198Y005959D01*
X009183Y006017D02*
X008755Y006017D01*
X008755Y006076D02*
X009166Y006076D01*
X009107Y006134D02*
X008755Y006134D01*
X008755Y006193D02*
X009049Y006193D01*
X009045Y006251D02*
X008755Y006251D01*
X008755Y006310D02*
X009045Y006310D01*
X009045Y006368D02*
X008755Y006368D01*
X008755Y006427D02*
X009045Y006427D01*
X009045Y006485D02*
X008755Y006485D01*
X008755Y006544D02*
X009045Y006544D01*
X009045Y006602D02*
X008755Y006602D01*
X008755Y006661D02*
X009045Y006661D01*
X009045Y006719D02*
X008755Y006719D01*
X008750Y006778D02*
X009050Y006778D01*
X009050Y006836D02*
X008750Y006836D01*
X008739Y006895D02*
X009062Y006895D01*
X009329Y006895D02*
X009455Y006895D01*
X009444Y006836D02*
X009341Y006836D01*
X009341Y006778D02*
X009444Y006778D01*
X009439Y006719D02*
X009345Y006719D01*
X009345Y006661D02*
X009439Y006661D01*
X009439Y006602D02*
X009345Y006602D01*
X009345Y006544D02*
X009439Y006544D01*
X009439Y006485D02*
X009345Y006485D01*
X009345Y006427D02*
X009439Y006427D01*
X009439Y006368D02*
X009345Y006368D01*
X009356Y006310D02*
X009431Y006310D01*
X009165Y005900D02*
X008831Y005900D01*
X008870Y005842D02*
X009126Y005842D01*
X009126Y005783D02*
X008870Y005783D01*
X008870Y005725D02*
X009126Y005725D01*
X009126Y005666D02*
X008870Y005666D01*
X008870Y005608D02*
X009126Y005608D01*
X009126Y005549D02*
X008870Y005549D01*
X008850Y005491D02*
X009146Y005491D01*
X007981Y006310D02*
X007934Y006310D01*
X010366Y003560D02*
X012353Y003560D01*
X012353Y003502D02*
X010366Y003502D01*
X010366Y003443D02*
X012353Y003443D01*
X012353Y003385D02*
X010366Y003385D01*
X010366Y003326D02*
X012353Y003326D01*
X012353Y003268D02*
X010366Y003268D01*
X010366Y003209D02*
X012353Y003209D01*
X012353Y003151D02*
X010366Y003151D01*
X010366Y003092D02*
X012353Y003092D01*
X012353Y003034D02*
X010336Y003034D01*
D24*
X009195Y010460D02*
X009177Y010460D01*
X010333Y011300D02*
X010333Y011850D01*
X007503Y011850D01*
X007633Y012650D02*
X007633Y014150D01*
X005983Y014150D01*
X007633Y012650D02*
X008083Y012650D01*
X008083Y014150D01*
X008533Y014150D01*
X008533Y012650D01*
X008983Y012650D01*
X008983Y014150D01*
X009433Y014150D01*
X009433Y012650D01*
X009883Y012650D01*
X009883Y014150D01*
X010333Y014150D01*
X010333Y011850D01*
D25*
X007503Y011850D03*
M02*
