%
M48
M72
T01C0.0120
T02C0.0150
%
T01
X5833Y2350
X5833Y3350
X5833Y4310
X5833Y5310
X5833Y6310
X5833Y7310
X5833Y8310
X5833Y9350
X5833Y10350
X5833Y10750
X5833Y11350
X6333Y11350
X6833Y11350
X7033Y10750
X7333Y11350
X7833Y11350
X8033Y10750
X7683Y10400
X7003Y9950
X7203Y9030
X7033Y8550
X8033Y8540
X8033Y8190
X8033Y7850
X8033Y7500
X8033Y7160
X8373Y7160
X8373Y7500
X8373Y7850
X8373Y8190
X8373Y8540
X8713Y8540
X9053Y8540
X9053Y8190
X8713Y8190
X8713Y7850
X9053Y7850
X9053Y7500
X8713Y7500
X8713Y7160
X9053Y7160
X9393Y7160
X9393Y7500
X9393Y7850
X9393Y8190
X9393Y8540
X10543Y6780
X10983Y6800
X11033Y6200
X10033Y5350
X9403Y4750
X9173Y4350
X8603Y4750
X7943Y6060
X7293Y6510
X7033Y6950
X7143Y5970
X7233Y4350
X7033Y3350
X7833Y3350
X8033Y2350
X7033Y2350
X9033Y2350
X9173Y3350
X10053Y2360
X11033Y2360
X11023Y3350
X11033Y4350
X12233Y4350
X12233Y3350
X12233Y2350
X12233Y5350
X12233Y6350
X12233Y7350
X12233Y8350
X12233Y9350
X12233Y10150
X12233Y10750
X12133Y11350
X11683Y11350
X11233Y11350
X10833Y11350
X9333Y11350
X8833Y11350
X8333Y11350
X11033Y8550
X9393Y6060
T02
X7503Y11850
M30
