G75*
G70*
%OFA0B0*%
%FSLAX24Y24*%
%IPPOS*%
%LPD*%
%AMOC8*
5,1,8,0,0,1.08239X$1,22.5*
%
%ADD10C,0.0000*%
%ADD11C,0.0080*%
%ADD12C,0.0050*%
%ADD13C,0.0197*%
%ADD14C,0.0020*%
%ADD15C,0.0060*%
%ADD16C,0.0160*%
%ADD17R,0.0236X0.0118*%
%ADD18C,0.0010*%
%ADD19R,0.0118X0.0236*%
%ADD20C,0.0040*%
%ADD21R,0.0197X0.0374*%
D10*
X005233Y001710D02*
X005233Y015050D01*
X012483Y015050D01*
X012483Y001710D01*
X005233Y001710D01*
D11*
X008189Y003652D02*
X008189Y003888D01*
X008937Y004400D02*
X009410Y004400D01*
X010158Y003888D02*
X010158Y003652D01*
X009410Y003140D02*
X008937Y003140D01*
X009983Y011450D02*
X005383Y011450D01*
X010683Y011450D02*
X012333Y011450D01*
D12*
X012077Y009972D02*
X012118Y009931D01*
X012118Y009847D01*
X012077Y009806D01*
X011910Y009806D01*
X011868Y009847D01*
X011868Y009931D01*
X011910Y009972D01*
X012118Y009696D02*
X012118Y009529D01*
X011868Y009529D01*
X012118Y009420D02*
X012118Y009253D01*
X011868Y009253D01*
X011951Y008868D02*
X011951Y008742D01*
X011993Y008701D01*
X012077Y008701D01*
X012118Y008742D01*
X012118Y008868D01*
X012160Y008868D02*
X011951Y008868D01*
X012160Y008868D02*
X012202Y008826D01*
X012202Y008784D01*
X012118Y008591D02*
X011993Y008591D01*
X011951Y008550D01*
X011951Y008424D01*
X012118Y008424D01*
X012118Y008324D02*
X012118Y008240D01*
X012118Y008282D02*
X011951Y008282D01*
X011951Y008240D01*
X011868Y008282D02*
X011826Y008282D01*
X011951Y008135D02*
X011951Y008094D01*
X012035Y008010D01*
X012118Y008010D02*
X011951Y008010D01*
X011993Y007901D02*
X012035Y007901D01*
X012035Y007734D01*
X012077Y007734D02*
X011993Y007734D01*
X011951Y007776D01*
X011951Y007859D01*
X011993Y007901D01*
X012118Y007859D02*
X012118Y007776D01*
X012077Y007734D01*
X012035Y007624D02*
X012035Y007458D01*
X012077Y007458D02*
X011993Y007458D01*
X011951Y007499D01*
X011951Y007583D01*
X011993Y007624D01*
X012035Y007624D01*
X012118Y007583D02*
X012118Y007499D01*
X012077Y007458D01*
X012118Y007348D02*
X011993Y007348D01*
X011951Y007307D01*
X011951Y007181D01*
X012118Y007181D01*
X012118Y007081D02*
X012118Y006997D01*
X012118Y007039D02*
X011951Y007039D01*
X011951Y006997D01*
X011868Y007039D02*
X011826Y007039D01*
X011951Y006888D02*
X011951Y006763D01*
X011993Y006721D01*
X012077Y006721D01*
X012118Y006763D01*
X012118Y006888D01*
X012160Y006888D02*
X011951Y006888D01*
X012160Y006888D02*
X012202Y006846D01*
X012202Y006804D01*
X012118Y006612D02*
X011993Y006612D01*
X011951Y006570D01*
X011951Y006445D01*
X012118Y006445D01*
X012118Y006335D02*
X012118Y006169D01*
X011868Y006169D01*
X011868Y006335D01*
X011993Y006252D02*
X011993Y006169D01*
X011951Y005783D02*
X011951Y005658D01*
X011993Y005616D01*
X012077Y005616D01*
X012118Y005658D01*
X012118Y005783D01*
X011868Y005783D01*
X011638Y005708D02*
X011338Y005708D01*
X011338Y005908D01*
X011488Y005808D02*
X011488Y005708D01*
X011488Y005586D02*
X011388Y005586D01*
X011338Y005536D01*
X011338Y005386D01*
X011638Y005386D01*
X011538Y005386D02*
X011538Y005536D01*
X011488Y005586D01*
X011538Y005486D02*
X011638Y005586D01*
X011388Y005264D02*
X011338Y005264D01*
X011388Y005264D02*
X011488Y005164D01*
X011638Y005164D01*
X011488Y005164D02*
X011388Y005064D01*
X011338Y005064D01*
X011388Y004942D02*
X011338Y004891D01*
X011338Y004791D01*
X011388Y004741D01*
X011588Y004741D01*
X011638Y004791D01*
X011638Y004891D01*
X011588Y004942D01*
X011868Y004921D02*
X012118Y004921D01*
X012118Y004879D02*
X012118Y004963D01*
X012077Y005064D02*
X012035Y005105D01*
X012035Y005230D01*
X011993Y005230D02*
X012118Y005230D01*
X012118Y005105D01*
X012077Y005064D01*
X011951Y005105D02*
X011951Y005189D01*
X011993Y005230D01*
X011951Y005340D02*
X011951Y005465D01*
X011993Y005507D01*
X012118Y005507D01*
X012118Y005340D02*
X011951Y005340D01*
X011868Y004921D02*
X011868Y004879D01*
X011993Y004770D02*
X012035Y004770D01*
X012035Y004603D01*
X012077Y004603D02*
X011993Y004603D01*
X011951Y004645D01*
X011951Y004728D01*
X011993Y004770D01*
X012118Y004728D02*
X012118Y004645D01*
X012077Y004603D01*
X011951Y004498D02*
X011951Y004456D01*
X012035Y004373D01*
X012118Y004373D02*
X011951Y004373D01*
X011993Y004264D02*
X011951Y004222D01*
X011951Y004138D01*
X011993Y004097D01*
X012077Y004097D01*
X012118Y004138D01*
X012118Y004222D01*
X012077Y004264D01*
X011993Y004264D01*
X011868Y003987D02*
X012118Y003987D01*
X012118Y003821D02*
X011868Y003821D01*
X011951Y003904D01*
X011868Y003987D01*
X011868Y003435D02*
X011868Y003351D01*
X011868Y003393D02*
X012077Y003393D01*
X012118Y003351D01*
X012118Y003310D01*
X012077Y003268D01*
X011588Y006030D02*
X011488Y006030D01*
X011488Y006181D01*
X011538Y006231D01*
X011588Y006231D01*
X011638Y006181D01*
X011638Y006080D01*
X011588Y006030D01*
X011488Y006030D02*
X011388Y006131D01*
X011338Y006231D01*
X011388Y006353D02*
X011438Y006353D01*
X011488Y006403D01*
X011488Y006553D01*
X011388Y006553D02*
X011338Y006503D01*
X011338Y006403D01*
X011388Y006353D01*
X011388Y006553D02*
X011588Y006553D01*
X011638Y006503D01*
X011638Y006403D01*
X011588Y006353D01*
X011588Y006675D02*
X011638Y006725D01*
X011638Y006825D01*
X011588Y006875D01*
X011538Y006875D01*
X011488Y006825D01*
X011488Y006775D01*
X011488Y006825D02*
X011438Y006875D01*
X011388Y006875D01*
X011338Y006825D01*
X011338Y006725D01*
X011388Y006675D01*
X011488Y006997D02*
X011488Y007147D01*
X011538Y007197D01*
X011588Y007197D01*
X011638Y007147D01*
X011638Y007047D01*
X011588Y006997D01*
X011488Y006997D01*
X011388Y007097D01*
X011338Y007197D01*
X011488Y007320D02*
X011488Y007520D01*
X011488Y007642D02*
X011488Y007792D01*
X011538Y007842D01*
X011588Y007842D01*
X011638Y007792D01*
X011638Y007642D01*
X011338Y007642D01*
X011338Y007792D01*
X011388Y007842D01*
X011438Y007842D01*
X011488Y007792D01*
X011488Y007964D02*
X011588Y007964D01*
X011638Y008014D01*
X011638Y008114D01*
X011588Y008164D01*
X011488Y008164D01*
X011438Y008114D01*
X011438Y008014D01*
X011488Y007964D01*
X011488Y008286D02*
X011488Y008436D01*
X011538Y008487D01*
X011588Y008487D01*
X011638Y008436D01*
X011638Y008286D01*
X011338Y008286D01*
X011338Y008436D01*
X011388Y008487D01*
X011438Y008487D01*
X011488Y008436D01*
X009883Y008880D02*
X009883Y009030D01*
X009733Y009030D01*
X009864Y006843D02*
X009711Y006689D01*
X007703Y006670D02*
X007522Y006670D01*
X007522Y006840D01*
X007522Y008850D02*
X007522Y009030D01*
X007703Y009030D01*
X006349Y003985D02*
X006349Y003535D01*
X006199Y003535D02*
X006499Y003535D01*
X006199Y003835D02*
X006349Y003985D01*
X006039Y003985D02*
X006039Y003910D01*
X005888Y003760D01*
X005888Y003535D01*
X005888Y003760D02*
X005738Y003910D01*
X005738Y003985D01*
D13*
X009914Y006600D02*
X009916Y006612D01*
X009921Y006623D01*
X009930Y006632D01*
X009941Y006637D01*
X009953Y006639D01*
X009965Y006637D01*
X009976Y006632D01*
X009985Y006623D01*
X009990Y006612D01*
X009992Y006600D01*
X009990Y006588D01*
X009985Y006577D01*
X009976Y006568D01*
X009965Y006563D01*
X009953Y006561D01*
X009941Y006563D01*
X009930Y006568D01*
X009921Y006577D01*
X009916Y006588D01*
X009914Y006600D01*
D14*
X009482Y009200D02*
X009409Y009200D01*
X009372Y009237D01*
X009372Y009310D01*
X009482Y009310D01*
X009519Y009273D01*
X009519Y009237D01*
X009482Y009200D01*
X009372Y009310D02*
X009446Y009383D01*
X009519Y009420D01*
X009298Y009383D02*
X009298Y009347D01*
X009261Y009310D01*
X009298Y009273D01*
X009298Y009237D01*
X009261Y009200D01*
X009188Y009200D01*
X009151Y009237D01*
X009077Y009237D02*
X009077Y009383D01*
X009040Y009420D01*
X008967Y009420D01*
X008930Y009383D01*
X008930Y009347D01*
X008967Y009310D01*
X009077Y009310D01*
X009077Y009237D02*
X009040Y009200D01*
X008967Y009200D01*
X008930Y009237D01*
X008856Y009237D02*
X008856Y009273D01*
X008819Y009310D01*
X008709Y009310D01*
X008709Y009237D01*
X008746Y009200D01*
X008819Y009200D01*
X008856Y009237D01*
X008783Y009383D02*
X008709Y009310D01*
X008783Y009383D02*
X008856Y009420D01*
X008635Y009420D02*
X008488Y009420D01*
X008488Y009200D01*
X008414Y009200D02*
X008341Y009273D01*
X008377Y009273D02*
X008267Y009273D01*
X008267Y009200D02*
X008267Y009420D01*
X008377Y009420D01*
X008414Y009383D01*
X008414Y009310D01*
X008377Y009273D01*
X008488Y009310D02*
X008562Y009310D01*
X008193Y009383D02*
X008193Y009420D01*
X008193Y009383D02*
X008120Y009310D01*
X008120Y009200D01*
X008120Y009310D02*
X008046Y009383D01*
X008046Y009420D01*
X007972Y009383D02*
X007935Y009420D01*
X007862Y009420D01*
X007825Y009383D01*
X007825Y009237D01*
X007862Y009200D01*
X007935Y009200D01*
X007972Y009237D01*
X009151Y009383D02*
X009188Y009420D01*
X009261Y009420D01*
X009298Y009383D01*
X009261Y009310D02*
X009225Y009310D01*
X006730Y006330D02*
X006656Y006330D01*
X006693Y006330D02*
X006693Y006110D01*
X006656Y006110D02*
X006730Y006110D01*
X006582Y006147D02*
X006545Y006110D01*
X006472Y006110D01*
X006435Y006147D01*
X006361Y006147D02*
X006361Y006293D01*
X006324Y006330D01*
X006251Y006330D01*
X006214Y006293D01*
X006214Y006147D01*
X006251Y006110D01*
X006324Y006110D01*
X006361Y006147D01*
X006435Y006257D02*
X006472Y006220D01*
X006545Y006220D01*
X006582Y006183D01*
X006582Y006147D01*
X006582Y006293D02*
X006545Y006330D01*
X006472Y006330D01*
X006435Y006293D01*
X006435Y006257D01*
X006140Y006330D02*
X006140Y006110D01*
X005993Y006110D02*
X005993Y006330D01*
X006067Y006257D01*
X006140Y006330D01*
X006141Y007110D02*
X006141Y007330D01*
X006251Y007330D01*
X006287Y007293D01*
X006287Y007220D01*
X006251Y007183D01*
X006141Y007183D01*
X006214Y007183D02*
X006287Y007110D01*
X006362Y007147D02*
X006362Y007293D01*
X006398Y007330D01*
X006472Y007330D01*
X006508Y007293D01*
X006508Y007147D01*
X006472Y007110D01*
X006398Y007110D01*
X006362Y007147D01*
X006435Y007183D02*
X006508Y007110D01*
X006067Y007110D02*
X005993Y007110D01*
X006030Y007110D02*
X006030Y007330D01*
X005993Y007330D02*
X006067Y007330D01*
X006103Y008110D02*
X006030Y008110D01*
X005993Y008147D01*
X006030Y008220D02*
X006103Y008220D01*
X006140Y008183D01*
X006140Y008147D01*
X006103Y008110D01*
X006214Y008147D02*
X006251Y008110D01*
X006324Y008110D01*
X006361Y008147D01*
X006435Y008183D02*
X006582Y008330D01*
X006435Y008330D02*
X006435Y008110D01*
X006472Y008220D02*
X006582Y008110D01*
X006361Y008293D02*
X006324Y008330D01*
X006251Y008330D01*
X006214Y008293D01*
X006214Y008147D01*
X006140Y008293D02*
X006103Y008330D01*
X006030Y008330D01*
X005993Y008293D01*
X005993Y008257D01*
X006030Y008220D01*
X005993Y009073D02*
X006140Y009073D01*
X006214Y009147D02*
X006251Y009110D01*
X006324Y009110D01*
X006361Y009147D01*
X006361Y009183D01*
X006324Y009220D01*
X006251Y009220D01*
X006214Y009257D01*
X006214Y009293D01*
X006251Y009330D01*
X006324Y009330D01*
X006361Y009293D01*
X006435Y009293D02*
X006435Y009257D01*
X006472Y009220D01*
X006545Y009220D01*
X006582Y009183D01*
X006582Y009147D01*
X006545Y009110D01*
X006472Y009110D01*
X006435Y009147D01*
X006435Y009293D02*
X006472Y009330D01*
X006545Y009330D01*
X006582Y009293D01*
X006535Y010120D02*
X006425Y010120D01*
X006425Y010340D01*
X006535Y010340D01*
X006572Y010303D01*
X006572Y010157D01*
X006535Y010120D01*
X006351Y010120D02*
X006351Y010340D01*
X006204Y010340D02*
X006204Y010120D01*
X006130Y010157D02*
X006130Y010230D01*
X006057Y010230D01*
X006130Y010157D02*
X006093Y010120D01*
X006020Y010120D01*
X005983Y010157D01*
X005983Y010303D01*
X006020Y010340D01*
X006093Y010340D01*
X006130Y010303D01*
X006204Y010340D02*
X006351Y010120D01*
X006398Y005330D02*
X006362Y005293D01*
X006362Y005257D01*
X006398Y005220D01*
X006472Y005220D01*
X006508Y005183D01*
X006508Y005147D01*
X006472Y005110D01*
X006398Y005110D01*
X006362Y005147D01*
X006288Y005110D02*
X006214Y005110D01*
X006251Y005110D02*
X006251Y005330D01*
X006214Y005330D02*
X006288Y005330D01*
X006398Y005330D02*
X006472Y005330D01*
X006508Y005293D01*
X006583Y005293D02*
X006583Y005147D01*
X006619Y005110D01*
X006693Y005110D01*
X006729Y005147D01*
X006729Y005293D01*
X006693Y005330D01*
X006619Y005330D01*
X006583Y005293D01*
X006140Y005330D02*
X006140Y005110D01*
X005993Y005110D02*
X005993Y005330D01*
X006067Y005257D01*
X006140Y005330D01*
X006140Y004380D02*
X006140Y004233D01*
X006067Y004160D01*
X005993Y004233D01*
X005993Y004380D01*
X006214Y004343D02*
X006214Y004197D01*
X006251Y004160D01*
X006324Y004160D01*
X006361Y004197D01*
X006435Y004197D02*
X006472Y004160D01*
X006545Y004160D01*
X006582Y004197D01*
X006582Y004343D02*
X006545Y004380D01*
X006472Y004380D01*
X006435Y004343D01*
X006435Y004197D01*
X006361Y004343D02*
X006324Y004380D01*
X006251Y004380D01*
X006214Y004343D01*
D15*
X007095Y004446D02*
X007331Y004446D01*
X007331Y003974D02*
X007095Y003974D01*
X007307Y005002D02*
X007500Y005002D01*
X007500Y005178D02*
X007307Y005178D01*
X007307Y005592D02*
X007500Y005592D01*
X007500Y005768D02*
X007307Y005768D01*
X008515Y005526D02*
X008515Y005334D01*
X008691Y005334D02*
X008691Y005526D01*
X009305Y005526D02*
X009305Y005334D01*
X009481Y005334D02*
X009481Y005526D01*
X010515Y007364D02*
X010515Y007556D01*
X010691Y007556D02*
X010691Y007364D01*
X010985Y007364D02*
X010985Y007556D01*
X011161Y007556D02*
X011161Y007364D01*
X010691Y008554D02*
X010691Y008746D01*
X010515Y008746D02*
X010515Y008554D01*
X010451Y010114D02*
X010451Y010306D01*
X010275Y010306D02*
X010275Y010114D01*
X010200Y011032D02*
X010007Y011032D01*
X010007Y011208D02*
X010200Y011208D01*
X009530Y010548D02*
X009337Y010548D01*
X009337Y010372D02*
X009530Y010372D01*
X009020Y010038D02*
X008827Y010038D01*
X008827Y009862D02*
X009020Y009862D01*
X007740Y009862D02*
X007547Y009862D01*
X007547Y010038D02*
X007740Y010038D01*
D16*
X007643Y009962D02*
X007643Y009938D01*
X008923Y009938D02*
X008923Y009962D01*
X010103Y011108D02*
X010103Y011132D01*
X010351Y010210D02*
X010375Y010210D01*
X010591Y008650D02*
X010615Y008650D01*
X010591Y007460D02*
X010615Y007460D01*
X011061Y007460D02*
X011085Y007460D01*
X009405Y005430D02*
X009381Y005430D01*
X008615Y005430D02*
X008591Y005430D01*
X007403Y005668D02*
X007403Y005692D01*
X007403Y005102D02*
X007403Y005078D01*
D17*
X008601Y005269D03*
X008601Y005589D03*
X009391Y005589D03*
X009391Y005269D03*
X010605Y007301D03*
X010605Y007621D03*
X011071Y007619D03*
X011071Y007299D03*
X010605Y008491D03*
X010605Y008811D03*
X010365Y010051D03*
X010365Y010371D03*
D18*
X010658Y010565D02*
X010683Y010540D01*
X010733Y010540D01*
X010758Y010565D01*
X010806Y010540D02*
X010906Y010540D01*
X010856Y010540D02*
X010856Y010690D01*
X010806Y010640D01*
X010758Y010665D02*
X010733Y010690D01*
X010683Y010690D01*
X010658Y010665D01*
X010658Y010565D01*
X011324Y009655D02*
X011324Y009505D01*
X011424Y009505D01*
X011471Y009505D02*
X011571Y009505D01*
X011521Y009505D02*
X011521Y009655D01*
X011471Y009605D01*
X011248Y008320D02*
X011273Y008295D01*
X011173Y008195D01*
X011198Y008170D01*
X011248Y008170D01*
X011273Y008195D01*
X011273Y008295D01*
X011248Y008320D02*
X011198Y008320D01*
X011173Y008295D01*
X011173Y008195D01*
X011126Y008170D02*
X011026Y008170D01*
X011076Y008170D02*
X011076Y008320D01*
X011026Y008270D01*
X010978Y008295D02*
X010953Y008320D01*
X010903Y008320D01*
X010878Y008295D01*
X010878Y008195D01*
X010903Y008170D01*
X010953Y008170D01*
X010978Y008195D01*
X010323Y008330D02*
X010323Y008380D01*
X010298Y008405D01*
X010323Y008452D02*
X010323Y008552D01*
X010323Y008600D02*
X010323Y008700D01*
X010323Y008650D02*
X010173Y008650D01*
X010223Y008600D01*
X010173Y008502D02*
X010323Y008502D01*
X010223Y008452D02*
X010173Y008502D01*
X010198Y008405D02*
X010173Y008380D01*
X010173Y008330D01*
X010198Y008305D01*
X010298Y008305D01*
X010323Y008330D01*
X010523Y006610D02*
X010498Y006585D01*
X010498Y006485D01*
X010523Y006460D01*
X010573Y006460D01*
X010598Y006485D01*
X010646Y006485D02*
X010746Y006585D01*
X010746Y006610D01*
X010646Y006610D01*
X010598Y006585D02*
X010573Y006610D01*
X010523Y006610D01*
X010646Y006485D02*
X010646Y006460D01*
X009511Y004630D02*
X009461Y004630D01*
X009436Y004605D01*
X009436Y004580D01*
X009461Y004555D01*
X009536Y004555D01*
X009536Y004505D02*
X009536Y004605D01*
X009511Y004630D01*
X009388Y004605D02*
X009363Y004630D01*
X009313Y004630D01*
X009288Y004605D01*
X009288Y004505D01*
X009313Y004480D01*
X009363Y004480D01*
X009388Y004505D01*
X009436Y004505D02*
X009461Y004480D01*
X009511Y004480D01*
X009536Y004505D01*
X008716Y004505D02*
X008691Y004480D01*
X008641Y004480D01*
X008616Y004505D01*
X008568Y004505D02*
X008543Y004480D01*
X008493Y004480D01*
X008468Y004505D01*
X008468Y004605D01*
X008493Y004630D01*
X008543Y004630D01*
X008568Y004605D01*
X008616Y004630D02*
X008616Y004555D01*
X008666Y004580D01*
X008691Y004580D01*
X008716Y004555D01*
X008716Y004505D01*
X008716Y004630D02*
X008616Y004630D01*
X008368Y005030D02*
X008318Y005030D01*
X008293Y005055D01*
X008293Y005105D02*
X008343Y005130D01*
X008368Y005130D01*
X008393Y005105D01*
X008393Y005055D01*
X008368Y005030D01*
X008293Y005105D02*
X008293Y005180D01*
X008393Y005180D01*
X008196Y005180D02*
X008196Y005030D01*
X008146Y005030D02*
X008246Y005030D01*
X008146Y005130D02*
X008196Y005180D01*
X008098Y005155D02*
X008073Y005180D01*
X008023Y005180D01*
X007998Y005155D01*
X007998Y005055D01*
X008023Y005030D01*
X008073Y005030D01*
X008098Y005055D01*
X008083Y005620D02*
X008033Y005620D01*
X008008Y005645D01*
X008008Y005745D01*
X008033Y005770D01*
X008083Y005770D01*
X008108Y005745D01*
X008156Y005745D02*
X008156Y005720D01*
X008181Y005695D01*
X008231Y005695D01*
X008256Y005670D01*
X008256Y005645D01*
X008231Y005620D01*
X008181Y005620D01*
X008156Y005645D01*
X008156Y005670D01*
X008181Y005695D01*
X008231Y005695D02*
X008256Y005720D01*
X008256Y005745D01*
X008231Y005770D01*
X008181Y005770D01*
X008156Y005745D01*
X008108Y005645D02*
X008083Y005620D01*
X008006Y004210D02*
X008006Y004060D01*
X007956Y004060D02*
X008056Y004060D01*
X008103Y004135D02*
X008203Y004135D01*
X008178Y004060D02*
X008178Y004210D01*
X008103Y004135D01*
X008006Y004210D02*
X007956Y004160D01*
X007908Y004185D02*
X007883Y004210D01*
X007833Y004210D01*
X007808Y004185D01*
X007808Y004085D01*
X007833Y004060D01*
X007883Y004060D01*
X007908Y004085D01*
X007371Y009580D02*
X007396Y009605D01*
X007396Y009630D01*
X007371Y009655D01*
X007296Y009655D01*
X007296Y009605D01*
X007321Y009580D01*
X007371Y009580D01*
X007296Y009655D02*
X007346Y009705D01*
X007396Y009730D01*
X007248Y009705D02*
X007223Y009730D01*
X007173Y009730D01*
X007148Y009705D01*
X007148Y009605D01*
X007173Y009580D01*
X007223Y009580D01*
X007248Y009605D01*
X008428Y009605D02*
X008453Y009580D01*
X008503Y009580D01*
X008528Y009605D01*
X008576Y009605D02*
X008601Y009580D01*
X008651Y009580D01*
X008676Y009605D01*
X008676Y009630D01*
X008651Y009655D01*
X008626Y009655D01*
X008651Y009655D02*
X008676Y009680D01*
X008676Y009705D01*
X008651Y009730D01*
X008601Y009730D01*
X008576Y009705D01*
X008528Y009705D02*
X008503Y009730D01*
X008453Y009730D01*
X008428Y009705D01*
X008428Y009605D01*
X008438Y010400D02*
X008538Y010400D01*
X008586Y010400D02*
X008686Y010500D01*
X008686Y010525D01*
X008661Y010550D01*
X008611Y010550D01*
X008586Y010525D01*
X008586Y010400D02*
X008686Y010400D01*
X008438Y010400D02*
X008438Y010550D01*
X009084Y011075D02*
X009109Y011050D01*
X009159Y011050D01*
X009184Y011075D01*
X009231Y011125D02*
X009331Y011125D01*
X009306Y011050D02*
X009306Y011200D01*
X009231Y011125D01*
X009184Y011175D02*
X009159Y011200D01*
X009109Y011200D01*
X009084Y011175D01*
X009084Y011075D01*
D19*
X009274Y010458D03*
X009594Y010458D03*
X009082Y009952D03*
X008762Y009952D03*
X007802Y009952D03*
X007482Y009952D03*
X009942Y011122D03*
X010262Y011122D03*
X007562Y005682D03*
X007242Y005682D03*
X007242Y005092D03*
X007562Y005092D03*
D20*
X011123Y009790D02*
X011403Y009790D01*
X011403Y010125D02*
X011123Y010125D01*
D21*
X011035Y009958D03*
X011495Y009958D03*
M02*
