G75*
G70*
%OFA0B0*%
%FSLAX24Y24*%
%IPPOS*%
%LPD*%
%AMOC8*
5,1,8,0,0,1.08239X$1,22.5*
%
%ADD10C,0.0060*%
%ADD11C,0.0240*%
%ADD12C,0.0210*%
%ADD13C,0.0160*%
D10*
X005363Y001840D02*
X005363Y012130D01*
X010003Y012130D01*
X010003Y011488D01*
X010021Y011470D01*
X011146Y011470D01*
X011163Y011488D01*
X011163Y012130D01*
X012353Y012130D01*
X012353Y001840D01*
X005363Y001840D01*
X005363Y001864D02*
X012353Y001864D01*
X012353Y001922D02*
X005363Y001922D01*
X005363Y001981D02*
X012353Y001981D01*
X012353Y002039D02*
X005363Y002039D01*
X005363Y002098D02*
X012353Y002098D01*
X012353Y002156D02*
X005363Y002156D01*
X005363Y002215D02*
X012353Y002215D01*
X012353Y002273D02*
X005363Y002273D01*
X005363Y002332D02*
X012353Y002332D01*
X012353Y002390D02*
X005363Y002390D01*
X005363Y002449D02*
X012353Y002449D01*
X012353Y002507D02*
X005363Y002507D01*
X005363Y002566D02*
X012353Y002566D01*
X012353Y002624D02*
X005363Y002624D01*
X005363Y002683D02*
X012353Y002683D01*
X012353Y002741D02*
X005363Y002741D01*
X005363Y002800D02*
X012353Y002800D01*
X012353Y002858D02*
X005363Y002858D01*
X005363Y002917D02*
X012353Y002917D01*
X012353Y002975D02*
X005363Y002975D01*
X005363Y003034D02*
X012353Y003034D01*
X012353Y003092D02*
X005363Y003092D01*
X005363Y003151D02*
X012353Y003151D01*
X012353Y003209D02*
X005363Y003209D01*
X005363Y003268D02*
X012353Y003268D01*
X012353Y003326D02*
X005363Y003326D01*
X005363Y003385D02*
X012353Y003385D01*
X012353Y003443D02*
X005363Y003443D01*
X005363Y003502D02*
X012353Y003502D01*
X012353Y003560D02*
X005363Y003560D01*
X005363Y003619D02*
X012353Y003619D01*
X012353Y003677D02*
X005363Y003677D01*
X005363Y003736D02*
X012353Y003736D01*
X012353Y003794D02*
X005363Y003794D01*
X005363Y003853D02*
X012353Y003853D01*
X012353Y003911D02*
X005363Y003911D01*
X005363Y003970D02*
X012353Y003970D01*
X012353Y004028D02*
X005363Y004028D01*
X005363Y004087D02*
X012353Y004087D01*
X012353Y004145D02*
X005363Y004145D01*
X005363Y004204D02*
X012353Y004204D01*
X012353Y004262D02*
X005363Y004262D01*
X005363Y004321D02*
X012353Y004321D01*
X012353Y004379D02*
X005363Y004379D01*
X005363Y004438D02*
X012353Y004438D01*
X012353Y004496D02*
X005363Y004496D01*
X005363Y004555D02*
X012353Y004555D01*
X012353Y004613D02*
X005363Y004613D01*
X005363Y004672D02*
X012353Y004672D01*
X012353Y004730D02*
X005363Y004730D01*
X005363Y004789D02*
X012353Y004789D01*
X012353Y004847D02*
X005363Y004847D01*
X005363Y004906D02*
X012353Y004906D01*
X012353Y004964D02*
X005363Y004964D01*
X005363Y005023D02*
X012353Y005023D01*
X012353Y005081D02*
X005363Y005081D01*
X005363Y005140D02*
X012353Y005140D01*
X012353Y005198D02*
X005363Y005198D01*
X005363Y005257D02*
X012353Y005257D01*
X012353Y005315D02*
X005363Y005315D01*
X005363Y005374D02*
X012353Y005374D01*
X012353Y005432D02*
X005363Y005432D01*
X005363Y005491D02*
X012353Y005491D01*
X012353Y005549D02*
X005363Y005549D01*
X005363Y005608D02*
X012353Y005608D01*
X012353Y005666D02*
X005363Y005666D01*
X005363Y005725D02*
X012353Y005725D01*
X012353Y005783D02*
X005363Y005783D01*
X005363Y005842D02*
X012353Y005842D01*
X012353Y005900D02*
X010174Y005900D01*
X010164Y005890D02*
X010263Y005990D01*
X010713Y006440D01*
X010713Y006653D01*
X010753Y006693D01*
X010753Y006867D01*
X010630Y006990D01*
X010456Y006990D01*
X010333Y006867D01*
X010333Y006693D01*
X010373Y006653D01*
X010373Y006580D01*
X010023Y006230D01*
X009520Y006230D01*
X009480Y006270D01*
X009306Y006270D01*
X009266Y006230D01*
X008070Y006230D01*
X008030Y006270D01*
X007964Y006270D01*
X007813Y006420D01*
X007813Y008938D01*
X007850Y010270D01*
X007893Y010313D01*
X007893Y010487D01*
X007770Y010610D01*
X007596Y010610D01*
X007473Y010487D01*
X007473Y010313D01*
X007510Y010276D01*
X007475Y009012D01*
X007473Y009010D01*
X007473Y008942D01*
X005363Y008942D01*
X005363Y008884D02*
X007472Y008884D01*
X007471Y008874D02*
X007473Y008872D01*
X007473Y006280D01*
X007733Y006020D01*
X007733Y005973D01*
X007856Y005850D01*
X008030Y005850D01*
X008070Y005890D01*
X009266Y005890D01*
X009306Y005850D01*
X009480Y005850D01*
X009520Y005890D01*
X010164Y005890D01*
X010232Y005959D02*
X012353Y005959D01*
X012353Y006017D02*
X010291Y006017D01*
X010349Y006076D02*
X012353Y006076D01*
X012353Y006134D02*
X010408Y006134D01*
X010466Y006193D02*
X012353Y006193D01*
X012353Y006251D02*
X010525Y006251D01*
X010583Y006310D02*
X012353Y006310D01*
X012353Y006368D02*
X010642Y006368D01*
X010700Y006427D02*
X012353Y006427D01*
X012353Y006485D02*
X010713Y006485D01*
X010713Y006544D02*
X012353Y006544D01*
X012353Y006602D02*
X010713Y006602D01*
X010721Y006661D02*
X012353Y006661D01*
X012353Y006719D02*
X010753Y006719D01*
X010753Y006778D02*
X012353Y006778D01*
X012353Y006836D02*
X010753Y006836D01*
X010726Y006895D02*
X012353Y006895D01*
X012353Y006953D02*
X010667Y006953D01*
X010419Y006953D02*
X007813Y006953D01*
X007813Y006895D02*
X010361Y006895D01*
X010333Y006836D02*
X007813Y006836D01*
X007813Y006778D02*
X010333Y006778D01*
X010333Y006719D02*
X007813Y006719D01*
X007813Y006661D02*
X010366Y006661D01*
X010373Y006602D02*
X007813Y006602D01*
X007813Y006544D02*
X010336Y006544D01*
X010278Y006485D02*
X007813Y006485D01*
X007813Y006427D02*
X010219Y006427D01*
X010161Y006368D02*
X007866Y006368D01*
X007924Y006310D02*
X010102Y006310D01*
X010044Y006251D02*
X009499Y006251D01*
X009287Y006251D02*
X008049Y006251D01*
X007806Y005900D02*
X005363Y005900D01*
X005363Y005959D02*
X007748Y005959D01*
X007733Y006017D02*
X005363Y006017D01*
X005363Y006076D02*
X007677Y006076D01*
X007619Y006134D02*
X005363Y006134D01*
X005363Y006193D02*
X007560Y006193D01*
X007502Y006251D02*
X005363Y006251D01*
X005363Y006310D02*
X007473Y006310D01*
X007473Y006368D02*
X005363Y006368D01*
X005363Y006427D02*
X007473Y006427D01*
X007473Y006485D02*
X005363Y006485D01*
X005363Y006544D02*
X007473Y006544D01*
X007473Y006602D02*
X005363Y006602D01*
X005363Y006661D02*
X007473Y006661D01*
X007473Y006719D02*
X005363Y006719D01*
X005363Y006778D02*
X007473Y006778D01*
X007473Y006836D02*
X005363Y006836D01*
X005363Y006895D02*
X007473Y006895D01*
X007473Y006953D02*
X005363Y006953D01*
X005363Y007012D02*
X007473Y007012D01*
X007473Y007070D02*
X005363Y007070D01*
X005363Y007129D02*
X007473Y007129D01*
X007473Y007187D02*
X005363Y007187D01*
X005363Y007246D02*
X007473Y007246D01*
X007473Y007304D02*
X005363Y007304D01*
X005363Y007363D02*
X007473Y007363D01*
X007473Y007421D02*
X005363Y007421D01*
X005363Y007480D02*
X007473Y007480D01*
X007473Y007538D02*
X005363Y007538D01*
X005363Y007597D02*
X007473Y007597D01*
X007473Y007655D02*
X005363Y007655D01*
X005363Y007714D02*
X007473Y007714D01*
X007473Y007772D02*
X005363Y007772D01*
X005363Y007831D02*
X007473Y007831D01*
X007473Y007889D02*
X005363Y007889D01*
X005363Y007948D02*
X007473Y007948D01*
X007473Y008006D02*
X005363Y008006D01*
X005363Y008065D02*
X007473Y008065D01*
X007473Y008123D02*
X005363Y008123D01*
X005363Y008182D02*
X007473Y008182D01*
X007473Y008240D02*
X005363Y008240D01*
X005363Y008299D02*
X007473Y008299D01*
X007473Y008357D02*
X005363Y008357D01*
X005363Y008416D02*
X007473Y008416D01*
X007473Y008474D02*
X005363Y008474D01*
X005363Y008533D02*
X007473Y008533D01*
X007473Y008591D02*
X005363Y008591D01*
X005363Y008650D02*
X007473Y008650D01*
X007473Y008708D02*
X005363Y008708D01*
X005363Y008767D02*
X007473Y008767D01*
X007473Y008825D02*
X005363Y008825D01*
X005363Y009001D02*
X007473Y009001D01*
X007477Y009059D02*
X005363Y009059D01*
X005363Y009118D02*
X007478Y009118D01*
X007480Y009176D02*
X005363Y009176D01*
X005363Y009235D02*
X007481Y009235D01*
X007483Y009293D02*
X005363Y009293D01*
X005363Y009352D02*
X007485Y009352D01*
X007486Y009410D02*
X005363Y009410D01*
X005363Y009469D02*
X007488Y009469D01*
X007489Y009527D02*
X005363Y009527D01*
X005363Y009586D02*
X007491Y009586D01*
X007493Y009644D02*
X005363Y009644D01*
X005363Y009703D02*
X007494Y009703D01*
X007496Y009761D02*
X005363Y009761D01*
X005363Y009820D02*
X007497Y009820D01*
X007499Y009878D02*
X005363Y009878D01*
X005363Y009937D02*
X007501Y009937D01*
X007502Y009995D02*
X005363Y009995D01*
X005363Y010054D02*
X007504Y010054D01*
X007505Y010112D02*
X005363Y010112D01*
X005363Y010171D02*
X007507Y010171D01*
X007509Y010229D02*
X005363Y010229D01*
X005363Y010288D02*
X007499Y010288D01*
X007473Y010346D02*
X005363Y010346D01*
X005363Y010405D02*
X007473Y010405D01*
X007473Y010463D02*
X005363Y010463D01*
X005363Y010522D02*
X007508Y010522D01*
X007566Y010580D02*
X005363Y010580D01*
X005363Y010639D02*
X012353Y010639D01*
X012353Y010697D02*
X005363Y010697D01*
X005363Y010756D02*
X012353Y010756D01*
X012353Y010814D02*
X005363Y010814D01*
X005363Y010873D02*
X012353Y010873D01*
X012353Y010931D02*
X005363Y010931D01*
X005363Y010990D02*
X012353Y010990D01*
X012353Y011048D02*
X005363Y011048D01*
X005363Y011107D02*
X012353Y011107D01*
X012353Y011165D02*
X005363Y011165D01*
X005363Y011224D02*
X012353Y011224D01*
X012353Y011282D02*
X005363Y011282D01*
X005363Y011341D02*
X012353Y011341D01*
X012353Y011399D02*
X005363Y011399D01*
X005363Y011458D02*
X012353Y011458D01*
X012353Y011516D02*
X011163Y011516D01*
X011163Y011575D02*
X012353Y011575D01*
X012353Y011633D02*
X011163Y011633D01*
X011163Y011692D02*
X012353Y011692D01*
X012353Y011750D02*
X011163Y011750D01*
X011163Y011809D02*
X012353Y011809D01*
X012353Y011867D02*
X011163Y011867D01*
X011163Y011926D02*
X012353Y011926D01*
X012353Y011984D02*
X011163Y011984D01*
X011163Y012043D02*
X012353Y012043D01*
X012353Y012101D02*
X011163Y012101D01*
X010003Y012101D02*
X005363Y012101D01*
X005363Y012043D02*
X010003Y012043D01*
X010003Y011984D02*
X005363Y011984D01*
X005363Y011926D02*
X010003Y011926D01*
X010003Y011867D02*
X005363Y011867D01*
X005363Y011809D02*
X010003Y011809D01*
X010003Y011750D02*
X005363Y011750D01*
X005363Y011692D02*
X010003Y011692D01*
X010003Y011633D02*
X005363Y011633D01*
X005363Y011575D02*
X010003Y011575D01*
X010003Y011516D02*
X005363Y011516D01*
X007473Y008942D02*
X007471Y008874D01*
X007813Y008884D02*
X012353Y008884D01*
X012353Y008942D02*
X007813Y008942D01*
X007815Y009001D02*
X012353Y009001D01*
X012353Y009059D02*
X007817Y009059D01*
X007818Y009118D02*
X012353Y009118D01*
X012353Y009176D02*
X007820Y009176D01*
X007821Y009235D02*
X012353Y009235D01*
X012353Y009293D02*
X007823Y009293D01*
X007825Y009352D02*
X012353Y009352D01*
X012353Y009410D02*
X007826Y009410D01*
X007828Y009469D02*
X012353Y009469D01*
X012353Y009527D02*
X007829Y009527D01*
X007831Y009586D02*
X012353Y009586D01*
X012353Y009644D02*
X007833Y009644D01*
X007834Y009703D02*
X012353Y009703D01*
X012353Y009761D02*
X007836Y009761D01*
X007837Y009820D02*
X012353Y009820D01*
X012353Y009878D02*
X007839Y009878D01*
X007841Y009937D02*
X012353Y009937D01*
X012353Y009995D02*
X007842Y009995D01*
X007844Y010054D02*
X012353Y010054D01*
X012353Y010112D02*
X007845Y010112D01*
X007847Y010171D02*
X012353Y010171D01*
X012353Y010229D02*
X007849Y010229D01*
X007868Y010288D02*
X012353Y010288D01*
X012353Y010346D02*
X007893Y010346D01*
X007893Y010405D02*
X012353Y010405D01*
X012353Y010463D02*
X007893Y010463D01*
X007859Y010522D02*
X012353Y010522D01*
X012353Y010580D02*
X007800Y010580D01*
X007813Y008825D02*
X012353Y008825D01*
X012353Y008767D02*
X007813Y008767D01*
X007813Y008708D02*
X012353Y008708D01*
X012353Y008650D02*
X007813Y008650D01*
X007813Y008591D02*
X012353Y008591D01*
X012353Y008533D02*
X007813Y008533D01*
X007813Y008474D02*
X012353Y008474D01*
X012353Y008416D02*
X007813Y008416D01*
X007813Y008357D02*
X012353Y008357D01*
X012353Y008299D02*
X007813Y008299D01*
X007813Y008240D02*
X012353Y008240D01*
X012353Y008182D02*
X007813Y008182D01*
X007813Y008123D02*
X012353Y008123D01*
X012353Y008065D02*
X007813Y008065D01*
X007813Y008006D02*
X012353Y008006D01*
X012353Y007948D02*
X007813Y007948D01*
X007813Y007889D02*
X012353Y007889D01*
X012353Y007831D02*
X007813Y007831D01*
X007813Y007772D02*
X012353Y007772D01*
X012353Y007714D02*
X007813Y007714D01*
X007813Y007655D02*
X012353Y007655D01*
X012353Y007597D02*
X007813Y007597D01*
X007813Y007538D02*
X012353Y007538D01*
X012353Y007480D02*
X007813Y007480D01*
X007813Y007421D02*
X012353Y007421D01*
X012353Y007363D02*
X007813Y007363D01*
X007813Y007304D02*
X012353Y007304D01*
X012353Y007246D02*
X007813Y007246D01*
X007813Y007187D02*
X012353Y007187D01*
X012353Y007129D02*
X007813Y007129D01*
X007813Y007070D02*
X012353Y007070D01*
X012353Y007012D02*
X007813Y007012D01*
D11*
X008033Y007160D03*
X008033Y007500D03*
X008033Y007850D03*
X008033Y008190D03*
X008033Y008540D03*
X008373Y008540D03*
X008373Y008190D03*
X008373Y007850D03*
X008373Y007500D03*
X008373Y007160D03*
X008713Y007160D03*
X008713Y007500D03*
X009053Y007500D03*
X009053Y007160D03*
X009393Y007160D03*
X009393Y007500D03*
X009393Y007850D03*
X009393Y008190D03*
X009393Y008540D03*
X009053Y008540D03*
X008713Y008540D03*
X008713Y008190D03*
X008713Y007850D03*
X009053Y007850D03*
X009053Y008190D03*
X010543Y006780D03*
X010983Y006800D03*
X011033Y006200D03*
X010033Y005350D03*
X009403Y004750D03*
X009173Y004350D03*
X008603Y004750D03*
X007943Y006060D03*
X007293Y006510D03*
X007033Y006950D03*
X007143Y005970D03*
X007233Y004350D03*
X007033Y003350D03*
X007833Y003350D03*
X008033Y002350D03*
X007033Y002350D03*
X005833Y002350D03*
X005833Y003350D03*
X005833Y004310D03*
X005833Y005310D03*
X005833Y006310D03*
X005833Y007310D03*
X005833Y008310D03*
X005833Y009350D03*
X005833Y010350D03*
X005833Y010750D03*
X005833Y011350D03*
X006333Y011350D03*
X006833Y011350D03*
X007033Y010750D03*
X007333Y011350D03*
X007833Y011350D03*
X008033Y010750D03*
X007683Y010400D03*
X007003Y009950D03*
X007203Y009030D03*
X007033Y008550D03*
X008333Y011350D03*
X008833Y011350D03*
X009333Y011350D03*
X010833Y011350D03*
X011233Y011350D03*
X011683Y011350D03*
X012133Y011350D03*
X012233Y010750D03*
X012233Y010150D03*
X012233Y009350D03*
X012233Y008350D03*
X012233Y007350D03*
X012233Y006350D03*
X012233Y005350D03*
X012233Y004350D03*
X012233Y003350D03*
X012233Y002350D03*
X011033Y002360D03*
X011023Y003350D03*
X011033Y004350D03*
X010053Y002360D03*
X009173Y003350D03*
X009033Y002350D03*
X009393Y006060D03*
X011033Y008550D03*
D12*
X007503Y011850D03*
D13*
X007683Y010400D02*
X007643Y008940D01*
X007643Y006350D01*
X007933Y006060D01*
X007943Y006060D01*
X009393Y006060D01*
X010093Y006060D01*
X010543Y006510D01*
X010543Y006780D01*
M02*
