G75*
G70*
%OFA0B0*%
%FSLAX24Y24*%
%IPPOS*%
%LPD*%
%AMOC8*
5,1,8,0,0,1.08239X$1,22.5*
%
%ADD10C,0.0060*%
%ADD11C,0.0240*%
%ADD12C,0.0210*%
%ADD13C,0.0160*%
D10*
X000330Y000580D02*
X000330Y009630D01*
X004970Y009630D01*
X004970Y008988D01*
X004988Y008970D01*
X006112Y008970D01*
X006130Y008988D01*
X006130Y009630D01*
X007320Y009630D01*
X007320Y000580D01*
X000330Y000580D01*
X000330Y000592D02*
X007320Y000592D01*
X007320Y000651D02*
X000330Y000651D01*
X000330Y000709D02*
X007320Y000709D01*
X007320Y000768D02*
X000330Y000768D01*
X000330Y000826D02*
X007320Y000826D01*
X007320Y000885D02*
X000330Y000885D01*
X000330Y000943D02*
X007320Y000943D01*
X007320Y001002D02*
X000330Y001002D01*
X000330Y001060D02*
X007320Y001060D01*
X007320Y001119D02*
X000330Y001119D01*
X000330Y001177D02*
X007320Y001177D01*
X007320Y001236D02*
X000330Y001236D01*
X000330Y001294D02*
X007320Y001294D01*
X007320Y001353D02*
X000330Y001353D01*
X000330Y001411D02*
X007320Y001411D01*
X007320Y001470D02*
X000330Y001470D01*
X000330Y001528D02*
X007320Y001528D01*
X007320Y001587D02*
X000330Y001587D01*
X000330Y001645D02*
X007320Y001645D01*
X007320Y001704D02*
X000330Y001704D01*
X000330Y001762D02*
X007320Y001762D01*
X007320Y001821D02*
X000330Y001821D01*
X000330Y001879D02*
X007320Y001879D01*
X007320Y001938D02*
X000330Y001938D01*
X000330Y001996D02*
X007320Y001996D01*
X007320Y002055D02*
X000330Y002055D01*
X000330Y002113D02*
X007320Y002113D01*
X007320Y002172D02*
X000330Y002172D01*
X000330Y002230D02*
X007320Y002230D01*
X007320Y002289D02*
X000330Y002289D01*
X000330Y002347D02*
X007320Y002347D01*
X007320Y002406D02*
X000330Y002406D01*
X000330Y002464D02*
X007320Y002464D01*
X007320Y002523D02*
X000330Y002523D01*
X000330Y002581D02*
X007320Y002581D01*
X007320Y002640D02*
X000330Y002640D01*
X000330Y002698D02*
X007320Y002698D01*
X007320Y002757D02*
X000330Y002757D01*
X000330Y002815D02*
X007320Y002815D01*
X007320Y002874D02*
X000330Y002874D01*
X000330Y002932D02*
X007320Y002932D01*
X007320Y002991D02*
X000330Y002991D01*
X000330Y003049D02*
X007320Y003049D01*
X007320Y003108D02*
X000330Y003108D01*
X000330Y003166D02*
X007320Y003166D01*
X007320Y003225D02*
X000330Y003225D01*
X000330Y003283D02*
X007320Y003283D01*
X007320Y003342D02*
X000330Y003342D01*
X000330Y003400D02*
X002773Y003400D01*
X002823Y003350D02*
X002997Y003350D01*
X003037Y003390D01*
X004233Y003390D01*
X004273Y003350D01*
X004447Y003350D01*
X004487Y003390D01*
X005130Y003390D01*
X005230Y003490D01*
X005680Y003940D01*
X005680Y004153D01*
X005720Y004193D01*
X005720Y004367D01*
X005597Y004490D01*
X005423Y004490D01*
X005300Y004367D01*
X005300Y004193D01*
X005340Y004153D01*
X005340Y004080D01*
X004990Y003730D01*
X004487Y003730D01*
X004447Y003770D01*
X004273Y003770D01*
X004233Y003730D01*
X003037Y003730D01*
X002997Y003770D01*
X002930Y003770D01*
X002780Y003920D01*
X002780Y006438D01*
X002816Y007770D01*
X002860Y007813D01*
X002860Y007987D01*
X002737Y008110D01*
X002563Y008110D01*
X002440Y007987D01*
X002440Y007813D01*
X002477Y007776D01*
X002442Y006512D01*
X002440Y006510D01*
X002440Y006442D01*
X000330Y006442D01*
X000330Y006384D02*
X002438Y006384D01*
X002438Y006374D02*
X002440Y006372D01*
X002440Y003780D01*
X002700Y003520D01*
X002700Y003473D01*
X002823Y003350D01*
X002714Y003459D02*
X000330Y003459D01*
X000330Y003517D02*
X002700Y003517D01*
X002644Y003576D02*
X000330Y003576D01*
X000330Y003634D02*
X002586Y003634D01*
X002527Y003693D02*
X000330Y003693D01*
X000330Y003751D02*
X002469Y003751D01*
X002440Y003810D02*
X000330Y003810D01*
X000330Y003868D02*
X002440Y003868D01*
X002440Y003927D02*
X000330Y003927D01*
X000330Y003985D02*
X002440Y003985D01*
X002440Y004044D02*
X000330Y004044D01*
X000330Y004102D02*
X002440Y004102D01*
X002440Y004161D02*
X000330Y004161D01*
X000330Y004219D02*
X002440Y004219D01*
X002440Y004278D02*
X000330Y004278D01*
X000330Y004336D02*
X002440Y004336D01*
X002440Y004395D02*
X000330Y004395D01*
X000330Y004453D02*
X002440Y004453D01*
X002440Y004512D02*
X000330Y004512D01*
X000330Y004570D02*
X002440Y004570D01*
X002440Y004629D02*
X000330Y004629D01*
X000330Y004687D02*
X002440Y004687D01*
X002440Y004746D02*
X000330Y004746D01*
X000330Y004804D02*
X002440Y004804D01*
X002440Y004863D02*
X000330Y004863D01*
X000330Y004921D02*
X002440Y004921D01*
X002440Y004980D02*
X000330Y004980D01*
X000330Y005038D02*
X002440Y005038D01*
X002440Y005097D02*
X000330Y005097D01*
X000330Y005155D02*
X002440Y005155D01*
X002440Y005214D02*
X000330Y005214D01*
X000330Y005272D02*
X002440Y005272D01*
X002440Y005331D02*
X000330Y005331D01*
X000330Y005389D02*
X002440Y005389D01*
X002440Y005448D02*
X000330Y005448D01*
X000330Y005506D02*
X002440Y005506D01*
X002440Y005565D02*
X000330Y005565D01*
X000330Y005623D02*
X002440Y005623D01*
X002440Y005682D02*
X000330Y005682D01*
X000330Y005740D02*
X002440Y005740D01*
X002440Y005799D02*
X000330Y005799D01*
X000330Y005857D02*
X002440Y005857D01*
X002440Y005916D02*
X000330Y005916D01*
X000330Y005974D02*
X002440Y005974D01*
X002440Y006033D02*
X000330Y006033D01*
X000330Y006091D02*
X002440Y006091D01*
X002440Y006150D02*
X000330Y006150D01*
X000330Y006208D02*
X002440Y006208D01*
X002440Y006267D02*
X000330Y006267D01*
X000330Y006325D02*
X002440Y006325D01*
X002438Y006374D02*
X002440Y006442D01*
X002440Y006501D02*
X000330Y006501D01*
X000330Y006559D02*
X002443Y006559D01*
X002445Y006618D02*
X000330Y006618D01*
X000330Y006676D02*
X002446Y006676D01*
X002448Y006735D02*
X000330Y006735D01*
X000330Y006793D02*
X002450Y006793D01*
X002451Y006852D02*
X000330Y006852D01*
X000330Y006910D02*
X002453Y006910D01*
X002454Y006969D02*
X000330Y006969D01*
X000330Y007027D02*
X002456Y007027D01*
X002458Y007086D02*
X000330Y007086D01*
X000330Y007144D02*
X002459Y007144D01*
X002461Y007203D02*
X000330Y007203D01*
X000330Y007261D02*
X002462Y007261D01*
X002464Y007320D02*
X000330Y007320D01*
X000330Y007378D02*
X002466Y007378D01*
X002467Y007437D02*
X000330Y007437D01*
X000330Y007495D02*
X002469Y007495D01*
X002470Y007554D02*
X000330Y007554D01*
X000330Y007612D02*
X002472Y007612D01*
X002474Y007671D02*
X000330Y007671D01*
X000330Y007729D02*
X002475Y007729D01*
X002465Y007788D02*
X000330Y007788D01*
X000330Y007846D02*
X002440Y007846D01*
X002440Y007905D02*
X000330Y007905D01*
X000330Y007963D02*
X002440Y007963D01*
X002475Y008022D02*
X000330Y008022D01*
X000330Y008080D02*
X002533Y008080D01*
X002767Y008080D02*
X007320Y008080D01*
X007320Y008022D02*
X002825Y008022D01*
X002860Y007963D02*
X007320Y007963D01*
X007320Y007905D02*
X002860Y007905D01*
X002860Y007846D02*
X007320Y007846D01*
X007320Y007788D02*
X002835Y007788D01*
X002815Y007729D02*
X007320Y007729D01*
X007320Y007671D02*
X002814Y007671D01*
X002812Y007612D02*
X007320Y007612D01*
X007320Y007554D02*
X002811Y007554D01*
X002809Y007495D02*
X007320Y007495D01*
X007320Y007437D02*
X002807Y007437D01*
X002806Y007378D02*
X007320Y007378D01*
X007320Y007320D02*
X002804Y007320D01*
X002803Y007261D02*
X007320Y007261D01*
X007320Y007203D02*
X002801Y007203D01*
X002799Y007144D02*
X007320Y007144D01*
X007320Y007086D02*
X002798Y007086D01*
X002796Y007027D02*
X007320Y007027D01*
X007320Y006969D02*
X002795Y006969D01*
X002793Y006910D02*
X007320Y006910D01*
X007320Y006852D02*
X002791Y006852D01*
X002790Y006793D02*
X007320Y006793D01*
X007320Y006735D02*
X002788Y006735D01*
X002787Y006676D02*
X007320Y006676D01*
X007320Y006618D02*
X002785Y006618D01*
X002783Y006559D02*
X007320Y006559D01*
X007320Y006501D02*
X002782Y006501D01*
X002780Y006442D02*
X007320Y006442D01*
X007320Y006384D02*
X002780Y006384D01*
X002780Y006325D02*
X007320Y006325D01*
X007320Y006267D02*
X002780Y006267D01*
X002780Y006208D02*
X007320Y006208D01*
X007320Y006150D02*
X002780Y006150D01*
X002780Y006091D02*
X007320Y006091D01*
X007320Y006033D02*
X002780Y006033D01*
X002780Y005974D02*
X007320Y005974D01*
X007320Y005916D02*
X002780Y005916D01*
X002780Y005857D02*
X007320Y005857D01*
X007320Y005799D02*
X002780Y005799D01*
X002780Y005740D02*
X007320Y005740D01*
X007320Y005682D02*
X002780Y005682D01*
X002780Y005623D02*
X007320Y005623D01*
X007320Y005565D02*
X002780Y005565D01*
X002780Y005506D02*
X007320Y005506D01*
X007320Y005448D02*
X002780Y005448D01*
X002780Y005389D02*
X007320Y005389D01*
X007320Y005331D02*
X002780Y005331D01*
X002780Y005272D02*
X007320Y005272D01*
X007320Y005214D02*
X002780Y005214D01*
X002780Y005155D02*
X007320Y005155D01*
X007320Y005097D02*
X002780Y005097D01*
X002780Y005038D02*
X007320Y005038D01*
X007320Y004980D02*
X002780Y004980D01*
X002780Y004921D02*
X007320Y004921D01*
X007320Y004863D02*
X002780Y004863D01*
X002780Y004804D02*
X007320Y004804D01*
X007320Y004746D02*
X002780Y004746D01*
X002780Y004687D02*
X007320Y004687D01*
X007320Y004629D02*
X002780Y004629D01*
X002780Y004570D02*
X007320Y004570D01*
X007320Y004512D02*
X002780Y004512D01*
X002780Y004453D02*
X005386Y004453D01*
X005328Y004395D02*
X002780Y004395D01*
X002780Y004336D02*
X005300Y004336D01*
X005300Y004278D02*
X002780Y004278D01*
X002780Y004219D02*
X005300Y004219D01*
X005332Y004161D02*
X002780Y004161D01*
X002780Y004102D02*
X005340Y004102D01*
X005303Y004044D02*
X002780Y004044D01*
X002780Y003985D02*
X005245Y003985D01*
X005186Y003927D02*
X002780Y003927D01*
X002832Y003868D02*
X005128Y003868D01*
X005069Y003810D02*
X002891Y003810D01*
X003016Y003751D02*
X004254Y003751D01*
X004466Y003751D02*
X005011Y003751D01*
X005257Y003517D02*
X007320Y003517D01*
X007320Y003459D02*
X005199Y003459D01*
X005140Y003400D02*
X007320Y003400D01*
X007320Y003576D02*
X005316Y003576D01*
X005374Y003634D02*
X007320Y003634D01*
X007320Y003693D02*
X005433Y003693D01*
X005491Y003751D02*
X007320Y003751D01*
X007320Y003810D02*
X005550Y003810D01*
X005608Y003868D02*
X007320Y003868D01*
X007320Y003927D02*
X005667Y003927D01*
X005680Y003985D02*
X007320Y003985D01*
X007320Y004044D02*
X005680Y004044D01*
X005680Y004102D02*
X007320Y004102D01*
X007320Y004161D02*
X005688Y004161D01*
X005720Y004219D02*
X007320Y004219D01*
X007320Y004278D02*
X005720Y004278D01*
X005720Y004336D02*
X007320Y004336D01*
X007320Y004395D02*
X005692Y004395D01*
X005634Y004453D02*
X007320Y004453D01*
X007320Y008139D02*
X000330Y008139D01*
X000330Y008197D02*
X007320Y008197D01*
X007320Y008256D02*
X000330Y008256D01*
X000330Y008314D02*
X007320Y008314D01*
X007320Y008373D02*
X000330Y008373D01*
X000330Y008431D02*
X007320Y008431D01*
X007320Y008490D02*
X000330Y008490D01*
X000330Y008548D02*
X007320Y008548D01*
X007320Y008607D02*
X000330Y008607D01*
X000330Y008665D02*
X007320Y008665D01*
X007320Y008724D02*
X000330Y008724D01*
X000330Y008782D02*
X007320Y008782D01*
X007320Y008841D02*
X000330Y008841D01*
X000330Y008899D02*
X007320Y008899D01*
X007320Y008958D02*
X000330Y008958D01*
X000330Y009016D02*
X004970Y009016D01*
X004970Y009075D02*
X000330Y009075D01*
X000330Y009133D02*
X004970Y009133D01*
X004970Y009192D02*
X000330Y009192D01*
X000330Y009250D02*
X004970Y009250D01*
X004970Y009309D02*
X000330Y009309D01*
X000330Y009367D02*
X004970Y009367D01*
X004970Y009426D02*
X000330Y009426D01*
X000330Y009484D02*
X004970Y009484D01*
X004970Y009543D02*
X000330Y009543D01*
X000330Y009601D02*
X004970Y009601D01*
X006130Y009601D02*
X007320Y009601D01*
X007320Y009543D02*
X006130Y009543D01*
X006130Y009484D02*
X007320Y009484D01*
X007320Y009426D02*
X006130Y009426D01*
X006130Y009367D02*
X007320Y009367D01*
X007320Y009309D02*
X006130Y009309D01*
X006130Y009250D02*
X007320Y009250D01*
X007320Y009192D02*
X006130Y009192D01*
X006130Y009133D02*
X007320Y009133D01*
X007320Y009075D02*
X006130Y009075D01*
X006130Y009016D02*
X007320Y009016D01*
D11*
X007100Y008850D03*
X006650Y008850D03*
X006200Y008850D03*
X005800Y008850D03*
X007200Y008250D03*
X007200Y007650D03*
X007200Y006850D03*
X007200Y005850D03*
X007200Y004850D03*
X007200Y003850D03*
X007200Y002850D03*
X007200Y001850D03*
X007200Y000850D03*
X005990Y000850D03*
X006000Y001850D03*
X006000Y002850D03*
X006000Y003700D03*
X005950Y004300D03*
X005510Y004280D03*
X004360Y004660D03*
X004020Y004660D03*
X004020Y005000D03*
X004360Y005000D03*
X004360Y005350D03*
X004020Y005350D03*
X004020Y005690D03*
X004360Y005690D03*
X004360Y006040D03*
X004020Y006040D03*
X003680Y006040D03*
X003680Y005690D03*
X003680Y005350D03*
X003680Y005000D03*
X003680Y004660D03*
X003340Y004660D03*
X003340Y005000D03*
X003340Y005350D03*
X003340Y005690D03*
X003340Y006040D03*
X003000Y006040D03*
X003000Y005690D03*
X003000Y005350D03*
X003000Y005000D03*
X003000Y004660D03*
X002260Y004010D03*
X002000Y004450D03*
X002110Y003470D03*
X002910Y003560D03*
X003570Y002250D03*
X004140Y001850D03*
X004370Y002250D03*
X004900Y002850D03*
X004360Y003560D03*
X002300Y001930D03*
X002000Y000850D03*
X002800Y000850D03*
X004140Y000850D03*
X000800Y000850D03*
X000800Y001810D03*
X000800Y002810D03*
X000800Y003810D03*
X000800Y004810D03*
X000800Y005810D03*
X000800Y006770D03*
X000800Y007850D03*
X000800Y008250D03*
X000800Y008850D03*
X001300Y008850D03*
X001800Y008850D03*
X002300Y008850D03*
X002800Y008850D03*
X003300Y008850D03*
X003000Y008250D03*
X002650Y007900D03*
X002000Y008250D03*
X001970Y007450D03*
X002170Y006530D03*
X002000Y006050D03*
X003800Y008850D03*
X004300Y008850D03*
X006000Y006050D03*
D12*
X002470Y009350D03*
D13*
X002650Y007900D02*
X002610Y006440D01*
X002610Y003850D01*
X002900Y003560D01*
X002910Y003560D01*
X004360Y003560D01*
X005060Y003560D01*
X005510Y004010D01*
X005510Y004280D01*
M02*
