%
M48
M72
T01C0.0120
T02C0.0150
%
T01
X800Y850
X800Y1810
X800Y2810
X800Y3810
X800Y4810
X800Y5810
X800Y6770
X800Y7850
X800Y8250
X800Y8850
X1300Y8850
X1800Y8850
X2300Y8850
X2800Y8850
X3300Y8850
X3000Y8250
X2650Y7900
X2000Y8250
X1970Y7450
X2170Y6530
X2000Y6050
X3000Y6040
X3000Y5690
X3000Y5350
X3000Y5000
X3000Y4660
X3340Y4660
X3340Y5000
X3340Y5350
X3340Y5690
X3340Y6040
X3680Y6040
X3680Y5690
X3680Y5350
X3680Y5000
X3680Y4660
X4020Y4660
X4360Y4660
X4360Y5000
X4020Y5000
X4020Y5350
X4360Y5350
X4360Y5690
X4020Y5690
X4020Y6040
X4360Y6040
X5510Y4280
X5950Y4300
X6000Y3700
X6000Y2850
X6000Y1850
X5990Y850
X7200Y850
X7200Y1850
X7200Y2850
X7200Y3850
X7200Y4850
X7200Y5850
X7200Y6850
X7200Y7650
X7200Y8250
X7100Y8850
X6650Y8850
X6200Y8850
X5800Y8850
X4300Y8850
X3800Y8850
X6000Y6050
X4360Y3560
X4900Y2850
X4370Y2250
X4140Y1850
X3570Y2250
X2910Y3560
X2260Y4010
X2000Y4450
X2110Y3470
X2200Y1850
X2000Y850
X2800Y850
X4140Y850
T02
X2470Y9350
M30
