%
M48
M72
T01C0.0120
T02C0.0150
T03C0.0276
%
T01
X700Y790
X700Y1770
X700Y2750
X700Y3750
X700Y4750
X700Y5750
X700Y6770
X700Y7850
X700Y8400
X700Y8850
X1100Y8850
X1500Y8850
X1900Y8850
X1550Y8400
X2200Y8250
X2550Y7900
X2170Y7450
X2210Y6630
X2200Y6050
X3310Y5910
X3310Y5630
X3310Y5350
X3310Y5070
X3310Y4790
X3590Y4790
X3590Y5070
X3590Y5350
X3590Y5630
X3590Y5910
X3870Y5910
X3870Y5630
X3870Y5350
X3870Y5070
X3870Y4790
X4150Y4790
X4150Y5070
X4150Y5350
X4150Y5630
X4150Y5910
X4430Y5910
X4430Y5630
X4430Y5350
X4430Y5070
X4430Y4790
X4560Y3560
X5100Y2850
X4550Y2250
X4550Y1750
X3770Y2250
X2530Y1920
X2200Y850
X3000Y850
X4550Y850
X6190Y850
X6200Y1850
X6200Y2850
X6200Y3700
X6150Y4300
X5710Y4280
X6200Y6050
X7400Y5850
X7400Y4850
X7400Y3850
X7400Y2850
X7400Y1850
X7400Y850
X3110Y3560
X2310Y3470
X2200Y4050
X2200Y4450
X3200Y8250
X3100Y8850
X2700Y8850
X2300Y8850
X3500Y8850
X3900Y8850
X4300Y8850
X6000Y8850
X6400Y8850
X6800Y8850
X7200Y8850
X7400Y8250
X7400Y7650
X7400Y6850
T02
X2670Y9350
T03
X800Y7250
X800Y6250
X800Y5250
X800Y4250
X800Y3250
X800Y2250
X800Y1300
M30
