G75*
G70*
%OFA0B0*%
%FSLAX24Y24*%
%IPPOS*%
%LPD*%
%AMOC8*
5,1,8,0,0,1.08239X$1,22.5*
%
%ADD10R,0.7240X0.2920*%
%ADD11R,0.7240X0.3550*%
%ADD12C,0.0138*%
%ADD13C,0.0284*%
%ADD14R,0.0383X0.0331*%
%ADD15R,0.0331X0.0383*%
%ADD16R,0.0473X0.0434*%
%ADD17R,0.0316X0.0394*%
%ADD18R,0.0788X0.0473*%
%ADD19R,0.0434X0.0591*%
%ADD20C,0.0516*%
D10*
X004020Y011090D03*
D11*
X004020Y010775D03*
D12*
X003968Y006631D02*
X003968Y006391D01*
X004165Y006391D02*
X004165Y006631D01*
X004362Y006631D02*
X004362Y006391D01*
X004559Y006391D02*
X004559Y006631D01*
X004756Y006631D02*
X004756Y006391D01*
X004911Y006236D02*
X005151Y006236D01*
X005151Y006039D02*
X004911Y006039D01*
X004911Y005842D02*
X005151Y005842D01*
X005151Y005645D02*
X004911Y005645D01*
X004911Y005448D02*
X005151Y005448D01*
X005151Y005252D02*
X004911Y005252D01*
X004911Y005055D02*
X005151Y005055D01*
X005151Y004858D02*
X004911Y004858D01*
X004911Y004661D02*
X005151Y004661D01*
X005151Y004464D02*
X004911Y004464D01*
X004756Y004309D02*
X004756Y004069D01*
X004559Y004069D02*
X004559Y004309D01*
X004362Y004309D02*
X004362Y004069D01*
X004165Y004069D02*
X004165Y004309D01*
X003968Y004309D02*
X003968Y004069D01*
X003772Y004069D02*
X003772Y004309D01*
X003575Y004309D02*
X003575Y004069D01*
X003378Y004069D02*
X003378Y004309D01*
X003181Y004309D02*
X003181Y004069D01*
X002984Y004069D02*
X002984Y004309D01*
X002829Y004464D02*
X002589Y004464D01*
X002589Y004661D02*
X002829Y004661D01*
X002829Y004858D02*
X002589Y004858D01*
X002589Y005055D02*
X002829Y005055D01*
X002829Y005252D02*
X002589Y005252D01*
X002589Y005448D02*
X002829Y005448D01*
X002829Y005645D02*
X002589Y005645D01*
X002589Y005842D02*
X002829Y005842D01*
X002829Y006039D02*
X002589Y006039D01*
X002589Y006236D02*
X002829Y006236D01*
X002984Y006391D02*
X002984Y006631D01*
X003181Y006631D02*
X003181Y006391D01*
X003378Y006391D02*
X003378Y006631D01*
X003575Y006631D02*
X003575Y006391D01*
X003772Y006391D02*
X003772Y006631D01*
D13*
X003303Y005917D02*
X004437Y005917D01*
X004437Y004783D01*
X003303Y004783D01*
X003303Y005917D01*
X003303Y005066D02*
X004437Y005066D01*
X004437Y005349D02*
X003303Y005349D01*
X003303Y005632D02*
X004437Y005632D01*
X004437Y005915D02*
X003303Y005915D01*
D14*
X005530Y007474D03*
X005530Y007946D03*
X005770Y006386D03*
X005770Y005914D03*
X005770Y005196D03*
X005770Y004724D03*
X006240Y004724D03*
X006240Y005196D03*
X004560Y003166D03*
X004560Y002694D03*
X003770Y002694D03*
X003770Y003166D03*
D15*
X002836Y003100D03*
X002836Y002600D03*
X002364Y002600D03*
X002364Y003100D03*
X002564Y007450D03*
X003036Y007450D03*
X003864Y007450D03*
X004336Y007450D03*
X005034Y008620D03*
X005506Y008620D03*
D16*
X006095Y007460D03*
X006765Y007460D03*
D17*
X004856Y007960D03*
X004344Y007960D03*
D18*
X003822Y001753D03*
X003822Y000847D03*
X005278Y000847D03*
X005278Y001753D03*
D19*
X002934Y001570D03*
X002146Y001570D03*
D20*
X001276Y001300D02*
X000800Y001300D01*
X000800Y002250D02*
X001276Y002250D01*
X001276Y003250D02*
X000800Y003250D01*
X000800Y004250D02*
X001276Y004250D01*
X001276Y005250D02*
X000800Y005250D01*
X000800Y006250D02*
X001276Y006250D01*
X001276Y007250D02*
X000800Y007250D01*
M02*
