G75*
G70*
%OFA0B0*%
%FSLAX24Y24*%
%IPPOS*%
%LPD*%
%AMOC8*
5,1,8,0,0,1.08239X$1,22.5*
%
%ADD10R,0.1812X0.1812*%
%ADD11R,0.0375X0.0150*%
%ADD12R,0.0150X0.0375*%
%ADD13R,0.0394X0.0316*%
%ADD14R,0.0316X0.0394*%
%ADD15R,0.0473X0.0434*%
%ADD16R,0.0788X0.0473*%
%ADD17R,0.0355X0.0512*%
%ADD18R,0.1040X0.0540*%
D10*
X003670Y005350D03*
D11*
X002499Y005252D03*
X002499Y005055D03*
X002499Y004858D03*
X002499Y004661D03*
X002499Y004464D03*
X002499Y005448D03*
X002499Y005645D03*
X002499Y005842D03*
X002499Y006039D03*
X002499Y006236D03*
X004841Y006236D03*
X004841Y006039D03*
X004841Y005842D03*
X004841Y005645D03*
X004841Y005448D03*
X004841Y005252D03*
X004841Y005055D03*
X004841Y004858D03*
X004841Y004661D03*
X004841Y004464D03*
D12*
X004556Y004179D03*
X004359Y004179D03*
X004162Y004179D03*
X003965Y004179D03*
X003768Y004179D03*
X003572Y004179D03*
X003375Y004179D03*
X003178Y004179D03*
X002981Y004179D03*
X002784Y004179D03*
X002784Y006521D03*
X002981Y006521D03*
X003178Y006521D03*
X003375Y006521D03*
X003572Y006521D03*
X003768Y006521D03*
X003965Y006521D03*
X004162Y006521D03*
X004359Y006521D03*
X004556Y006521D03*
D13*
X005330Y007454D03*
X005330Y007966D03*
X005570Y006406D03*
X005570Y005894D03*
X005570Y005216D03*
X005570Y004704D03*
X006040Y004704D03*
X006040Y005216D03*
X004360Y003186D03*
X004360Y002674D03*
X003570Y002674D03*
X003570Y003186D03*
D14*
X002626Y003180D03*
X002626Y002590D03*
X002114Y002590D03*
X002114Y003180D03*
X002354Y007450D03*
X002866Y007450D03*
X003634Y007450D03*
X004146Y007450D03*
X004144Y007960D03*
X004656Y007960D03*
X004814Y008620D03*
X005326Y008620D03*
D15*
X005895Y007460D03*
X006565Y007460D03*
D16*
X004868Y001723D03*
X004868Y000817D03*
X003412Y000817D03*
X003412Y001723D03*
D17*
X002534Y001710D03*
X001826Y001710D03*
D18*
X000800Y001300D03*
X000800Y002250D03*
X000800Y003250D03*
X000800Y004250D03*
X000800Y005250D03*
X000800Y006250D03*
X000800Y007250D03*
M02*
