G75*
G70*
%OFA0B0*%
%FSLAX24Y24*%
%IPPOS*%
%LPD*%
%AMOC8*
5,1,8,0,0,1.08239X$1,22.5*
%
%ADD10C,0.0098*%
%ADD11C,0.0276*%
%ADD12R,0.0343X0.0291*%
%ADD13R,0.0291X0.0343*%
%ADD14R,0.0433X0.0394*%
%ADD15R,0.0276X0.0354*%
%ADD16R,0.0748X0.0433*%
%ADD17R,0.0394X0.0551*%
%ADD18C,0.0476*%
%ADD19C,0.0240*%
%ADD20C,0.0100*%
%ADD21C,0.0080*%
%ADD22C,0.0120*%
%ADD23C,0.0200*%
%ADD24C,0.0210*%
%ADD25C,0.0000*%
%ADD26C,0.0160*%
D10*
X002984Y004069D02*
X002984Y004309D01*
X003181Y004309D02*
X003181Y004069D01*
X003378Y004069D02*
X003378Y004309D01*
X003575Y004309D02*
X003575Y004069D01*
X003772Y004069D02*
X003772Y004309D01*
X003968Y004309D02*
X003968Y004069D01*
X004165Y004069D02*
X004165Y004309D01*
X004362Y004309D02*
X004362Y004069D01*
X004559Y004069D02*
X004559Y004309D01*
X004756Y004309D02*
X004756Y004069D01*
X004911Y004464D02*
X005151Y004464D01*
X005151Y004661D02*
X004911Y004661D01*
X004911Y004858D02*
X005151Y004858D01*
X005151Y005055D02*
X004911Y005055D01*
X004911Y005252D02*
X005151Y005252D01*
X005151Y005448D02*
X004911Y005448D01*
X004911Y005645D02*
X005151Y005645D01*
X005151Y005842D02*
X004911Y005842D01*
X004911Y006039D02*
X005151Y006039D01*
X005151Y006236D02*
X004911Y006236D01*
X004756Y006391D02*
X004756Y006631D01*
X004559Y006631D02*
X004559Y006391D01*
X004362Y006391D02*
X004362Y006631D01*
X004165Y006631D02*
X004165Y006391D01*
X003968Y006391D02*
X003968Y006631D01*
X003772Y006631D02*
X003772Y006391D01*
X003575Y006391D02*
X003575Y006631D01*
X003378Y006631D02*
X003378Y006391D01*
X003181Y006391D02*
X003181Y006631D01*
X002984Y006631D02*
X002984Y006391D01*
X002829Y006236D02*
X002589Y006236D01*
X002589Y006039D02*
X002829Y006039D01*
X002829Y005842D02*
X002589Y005842D01*
X002589Y005645D02*
X002829Y005645D01*
X002829Y005448D02*
X002589Y005448D01*
X002589Y005252D02*
X002829Y005252D01*
X002829Y005055D02*
X002589Y005055D01*
X002589Y004858D02*
X002829Y004858D01*
X002829Y004661D02*
X002589Y004661D01*
X002589Y004464D02*
X002829Y004464D01*
D11*
X003319Y005901D02*
X004421Y005901D01*
X004421Y004799D01*
X003319Y004799D01*
X003319Y005901D01*
X003319Y005074D02*
X004421Y005074D01*
X004421Y005349D02*
X003319Y005349D01*
X003319Y005624D02*
X004421Y005624D01*
X004421Y005899D02*
X003319Y005899D01*
D12*
X005530Y007474D03*
X005530Y007946D03*
X005770Y006386D03*
X005770Y005914D03*
X005770Y005196D03*
X005770Y004724D03*
X006240Y004724D03*
X006240Y005196D03*
X004560Y003166D03*
X004560Y002694D03*
X003770Y002694D03*
X003770Y003166D03*
D13*
X002836Y003100D03*
X002836Y002600D03*
X002364Y002600D03*
X002364Y003100D03*
X002564Y007450D03*
X003036Y007450D03*
X003864Y007450D03*
X004336Y007450D03*
X005034Y008620D03*
X005506Y008620D03*
D14*
X006095Y007460D03*
X006765Y007460D03*
D15*
X004856Y007960D03*
X004344Y007960D03*
D16*
X003822Y001753D03*
X003822Y000847D03*
X005278Y000847D03*
X005278Y001753D03*
D17*
X002934Y001570D03*
X002146Y001570D03*
D18*
X001276Y001300D02*
X000800Y001300D01*
X000800Y002250D02*
X001276Y002250D01*
X001276Y003250D02*
X000800Y003250D01*
X000800Y004250D02*
X001276Y004250D01*
X001276Y005250D02*
X000800Y005250D01*
X000800Y006250D02*
X001276Y006250D01*
X001276Y007250D02*
X000800Y007250D01*
D19*
X000700Y006770D03*
X000700Y005750D03*
X000700Y004750D03*
X000700Y003750D03*
X000700Y002750D03*
X000700Y001770D03*
X000700Y000790D03*
X002200Y000850D03*
X003000Y000850D03*
X002530Y001920D03*
X003770Y002250D03*
X004550Y002250D03*
X004550Y001750D03*
X004550Y000850D03*
X006190Y000850D03*
X006200Y001850D03*
X006200Y002850D03*
X006200Y003700D03*
X006150Y004300D03*
X005710Y004280D03*
X004560Y003560D03*
X005100Y002850D03*
X004430Y004790D03*
X004430Y005070D03*
X004430Y005350D03*
X004430Y005630D03*
X004430Y005910D03*
X004150Y005910D03*
X004150Y005630D03*
X004150Y005350D03*
X004150Y005070D03*
X004150Y004790D03*
X003870Y004790D03*
X003870Y005070D03*
X003870Y005350D03*
X003870Y005630D03*
X003870Y005910D03*
X003590Y005910D03*
X003590Y005630D03*
X003590Y005350D03*
X003590Y005070D03*
X003590Y004790D03*
X003310Y004790D03*
X003310Y005070D03*
X003310Y005350D03*
X003310Y005630D03*
X003310Y005910D03*
X002200Y006050D03*
X002210Y006630D03*
X002170Y007450D03*
X002550Y007900D03*
X002200Y008250D03*
X002300Y008850D03*
X002700Y008850D03*
X003100Y008850D03*
X003500Y008850D03*
X003900Y008850D03*
X004300Y008850D03*
X003200Y008250D03*
X001900Y008850D03*
X001500Y008850D03*
X001100Y008850D03*
X001550Y008400D03*
X000700Y008400D03*
X000700Y008850D03*
X000700Y007850D03*
X002200Y004450D03*
X002200Y004050D03*
X002310Y003470D03*
X003110Y003560D03*
X006200Y006050D03*
X007400Y005850D03*
X007400Y004850D03*
X007400Y003850D03*
X007400Y002850D03*
X007400Y001850D03*
X007400Y000850D03*
X007400Y006850D03*
X007400Y007650D03*
X007400Y008250D03*
X007200Y008850D03*
X006800Y008850D03*
X006400Y008850D03*
X006000Y008850D03*
D20*
X005770Y005914D02*
X005718Y005842D01*
X005702Y005842D02*
X005770Y005914D01*
X005876Y005894D01*
X005770Y005252D02*
X005770Y005196D01*
X005766Y004740D02*
X005710Y004740D01*
X005766Y004740D02*
X005770Y004724D01*
X006240Y005196D02*
X006444Y005256D01*
X005046Y005256D02*
X005031Y005252D01*
X005040Y005250D01*
X004560Y004661D02*
X004430Y004790D01*
X004510Y004720D02*
X004510Y005030D01*
X004510Y005040D02*
X004510Y005350D01*
X003870Y005350D01*
X003310Y005910D02*
X003181Y006040D01*
X004559Y004189D02*
X004560Y004179D01*
X003772Y003186D02*
X003770Y003166D01*
X003770Y002310D02*
X003770Y002250D01*
X004550Y002250D02*
X004560Y002250D01*
X001098Y005448D02*
X000800Y005250D01*
D21*
X000540Y001082D02*
X000540Y000590D01*
X003314Y000590D01*
X003308Y000612D01*
X003308Y000807D01*
X003782Y000807D01*
X003782Y000887D01*
X003782Y001204D01*
X003429Y001204D01*
X003394Y001194D01*
X003362Y001176D01*
X003336Y001150D01*
X003317Y001118D01*
X003308Y001082D01*
X003308Y000887D01*
X003782Y000887D01*
X003862Y000887D01*
X004336Y000887D01*
X004336Y001082D01*
X004326Y001118D01*
X004308Y001150D01*
X004282Y001176D01*
X004250Y001194D01*
X004214Y001204D01*
X003862Y001204D01*
X003862Y000887D01*
X003862Y000807D01*
X004336Y000807D01*
X004336Y000612D01*
X004330Y000590D01*
X004804Y000590D01*
X004804Y001105D01*
X004863Y001164D01*
X005694Y001164D01*
X005752Y001105D01*
X005752Y000590D01*
X007510Y000590D01*
X007510Y008950D01*
X005840Y008950D01*
X005840Y008410D01*
X007217Y008410D01*
X007240Y008387D01*
X007240Y007013D01*
X007217Y006990D01*
X007060Y006990D01*
X007060Y006892D01*
X006978Y006810D01*
X006838Y006670D01*
X005967Y006670D01*
X005995Y006662D01*
X006027Y006644D01*
X006053Y006618D01*
X006072Y006586D01*
X006081Y006550D01*
X006081Y006419D01*
X005803Y006419D01*
X005803Y006353D01*
X005803Y006159D01*
X005737Y006159D01*
X005737Y006353D01*
X005803Y006353D01*
X006081Y006353D01*
X006081Y006222D01*
X006072Y006187D01*
X006053Y006155D01*
X006027Y006129D01*
X006019Y006124D01*
X006041Y006101D01*
X006041Y005927D01*
X006298Y005670D01*
X006298Y005670D01*
X006380Y005588D01*
X006380Y005442D01*
X006453Y005442D01*
X006479Y005416D01*
X006510Y005416D01*
X006566Y005360D01*
X006571Y005358D01*
X006571Y005355D01*
X006790Y005136D01*
X006790Y004284D01*
X006696Y004190D01*
X006406Y003900D01*
X005864Y003900D01*
X005770Y003994D01*
X005704Y004060D01*
X005619Y004060D01*
X005490Y004189D01*
X005490Y004371D01*
X005570Y004451D01*
X005570Y004478D01*
X005557Y004478D01*
X005499Y004537D01*
X005499Y004613D01*
X005430Y004682D01*
X005394Y004718D01*
X005332Y004718D01*
X005341Y004686D01*
X005341Y004661D01*
X005110Y004661D01*
X005110Y004661D01*
X005341Y004661D01*
X005341Y004636D01*
X005328Y004588D01*
X005303Y004545D01*
X005292Y004534D01*
X005301Y004526D01*
X005301Y004402D01*
X005213Y004315D01*
X005181Y004315D01*
X005181Y004167D01*
X005578Y003770D01*
X005660Y003688D01*
X005660Y002069D01*
X005694Y002069D01*
X005752Y002011D01*
X005752Y001495D01*
X005694Y001436D01*
X004863Y001436D01*
X004804Y001495D01*
X004804Y002011D01*
X004863Y002069D01*
X005380Y002069D01*
X005380Y003572D01*
X004983Y003969D01*
X004905Y004047D01*
X004905Y004007D01*
X004896Y003997D01*
X004896Y003698D01*
X004780Y003582D01*
X004780Y003469D01*
X004723Y003412D01*
X004773Y003412D01*
X004831Y003353D01*
X004831Y002979D01*
X004809Y002956D01*
X004817Y002951D01*
X004843Y002925D01*
X004862Y002893D01*
X004871Y002858D01*
X004871Y002727D01*
X004593Y002727D01*
X004593Y002661D01*
X004871Y002661D01*
X004871Y002530D01*
X004862Y002494D01*
X004843Y002462D01*
X004817Y002436D01*
X004785Y002418D01*
X004750Y002408D01*
X004593Y002408D01*
X004593Y002661D01*
X004527Y002661D01*
X004249Y002661D01*
X004249Y002530D01*
X004258Y002494D01*
X004277Y002462D01*
X004303Y002436D01*
X004335Y002418D01*
X004370Y002408D01*
X004527Y002408D01*
X004527Y002661D01*
X004527Y002727D01*
X004249Y002727D01*
X004249Y002858D01*
X004258Y002893D01*
X004277Y002925D01*
X004303Y002951D01*
X004311Y002956D01*
X004289Y002979D01*
X004289Y003353D01*
X004347Y003412D01*
X004397Y003412D01*
X004340Y003469D01*
X004340Y003582D01*
X004222Y003700D01*
X004222Y003888D01*
X004190Y003879D01*
X004165Y003879D01*
X004165Y004110D01*
X004165Y004110D01*
X004165Y003879D01*
X004140Y003879D01*
X004092Y003892D01*
X004067Y003907D01*
X004041Y003892D01*
X003993Y003879D01*
X003968Y003879D01*
X003968Y004110D01*
X003968Y004110D01*
X003968Y003879D01*
X003944Y003879D01*
X003912Y003888D01*
X003912Y003412D01*
X003983Y003412D01*
X004041Y003353D01*
X004041Y002979D01*
X004019Y002956D01*
X004027Y002951D01*
X004053Y002925D01*
X004072Y002893D01*
X004081Y002858D01*
X004081Y002727D01*
X003803Y002727D01*
X003803Y002661D01*
X004081Y002661D01*
X004081Y002530D01*
X004072Y002494D01*
X004053Y002462D01*
X004027Y002436D01*
X003995Y002418D01*
X003960Y002408D01*
X003803Y002408D01*
X003803Y002661D01*
X003737Y002661D01*
X003459Y002661D01*
X003459Y002530D01*
X003468Y002494D01*
X003487Y002462D01*
X003513Y002436D01*
X003545Y002418D01*
X003580Y002408D01*
X003737Y002408D01*
X003737Y002661D01*
X003737Y002727D01*
X003459Y002727D01*
X003459Y002858D01*
X003468Y002893D01*
X003487Y002925D01*
X003513Y002951D01*
X003521Y002956D01*
X003499Y002979D01*
X003499Y003321D01*
X003420Y003242D01*
X003420Y002292D01*
X003338Y002210D01*
X003158Y002030D01*
X002342Y002030D01*
X002242Y002130D01*
X002160Y002212D01*
X002160Y002345D01*
X002118Y002387D01*
X002118Y002813D01*
X002127Y002822D01*
X002106Y002843D01*
X002088Y002875D01*
X002078Y002910D01*
X002078Y003067D01*
X002331Y003067D01*
X002331Y003133D01*
X002331Y003411D01*
X002200Y003411D01*
X002164Y003402D01*
X002132Y003383D01*
X002106Y003357D01*
X002088Y003325D01*
X002078Y003290D01*
X002078Y003133D01*
X002331Y003133D01*
X002397Y003133D01*
X002397Y003411D01*
X002528Y003411D01*
X002563Y003402D01*
X002595Y003383D01*
X002621Y003357D01*
X002626Y003349D01*
X002649Y003371D01*
X002695Y003371D01*
X002771Y003447D01*
X002799Y003447D01*
X002884Y003532D01*
X002845Y003570D01*
X002225Y003570D01*
X002006Y003351D01*
X002006Y001946D01*
X002639Y001946D01*
X002651Y001958D02*
X002625Y001932D01*
X002606Y001900D01*
X002597Y001864D01*
X002597Y001610D01*
X002894Y001610D01*
X002894Y001986D01*
X002718Y001986D01*
X002683Y001976D01*
X002651Y001958D01*
X002598Y001868D02*
X002443Y001868D01*
X002443Y001887D02*
X002385Y001946D01*
X002006Y001946D01*
X002006Y002025D02*
X003361Y002025D01*
X003348Y002011D02*
X003406Y002069D01*
X004237Y002069D01*
X004296Y002011D01*
X004296Y001495D01*
X004237Y001436D01*
X003406Y001436D01*
X003348Y001495D01*
X003348Y002011D01*
X003348Y001946D02*
X003228Y001946D01*
X003217Y001958D02*
X003185Y001976D01*
X003149Y001986D01*
X002974Y001986D01*
X002974Y001610D01*
X003271Y001610D01*
X003271Y001864D01*
X003261Y001900D01*
X003243Y001932D01*
X003217Y001958D01*
X003270Y001868D02*
X003348Y001868D01*
X003348Y001789D02*
X003271Y001789D01*
X003271Y001711D02*
X003348Y001711D01*
X003348Y001632D02*
X003271Y001632D01*
X003271Y001530D02*
X002974Y001530D01*
X002974Y001610D01*
X002894Y001610D01*
X002894Y001530D01*
X002974Y001530D01*
X002974Y001154D01*
X003149Y001154D01*
X003185Y001164D01*
X003217Y001182D01*
X003243Y001208D01*
X003261Y001240D01*
X003271Y001276D01*
X003271Y001530D01*
X003271Y001475D02*
X003367Y001475D01*
X003348Y001554D02*
X002974Y001554D01*
X002974Y001632D02*
X002894Y001632D01*
X002894Y001554D02*
X002443Y001554D01*
X002443Y001632D02*
X002597Y001632D01*
X002597Y001711D02*
X002443Y001711D01*
X002443Y001789D02*
X002597Y001789D01*
X002443Y001887D02*
X002443Y001253D01*
X002385Y001194D01*
X001908Y001194D01*
X001849Y001253D01*
X001849Y001479D01*
X001613Y001243D01*
X001613Y001233D01*
X001562Y001109D01*
X001467Y001014D01*
X001343Y000962D01*
X000733Y000962D01*
X000609Y001014D01*
X000540Y001082D01*
X000540Y001004D02*
X000632Y001004D01*
X000540Y000926D02*
X003308Y000926D01*
X003308Y001004D02*
X001444Y001004D01*
X001536Y001083D02*
X003308Y001083D01*
X003347Y001161D02*
X003174Y001161D01*
X003261Y001240D02*
X007510Y001240D01*
X007510Y001318D02*
X003271Y001318D01*
X003271Y001397D02*
X007510Y001397D01*
X007510Y001475D02*
X005733Y001475D01*
X005752Y001554D02*
X007510Y001554D01*
X007510Y001632D02*
X005752Y001632D01*
X005752Y001711D02*
X007510Y001711D01*
X007510Y001789D02*
X005752Y001789D01*
X005752Y001868D02*
X007510Y001868D01*
X007510Y001946D02*
X005752Y001946D01*
X005739Y002025D02*
X007510Y002025D01*
X007510Y002103D02*
X005660Y002103D01*
X005660Y002182D02*
X007510Y002182D01*
X007510Y002260D02*
X005660Y002260D01*
X005660Y002339D02*
X007510Y002339D01*
X007510Y002417D02*
X005660Y002417D01*
X005660Y002496D02*
X007510Y002496D01*
X007510Y002574D02*
X005660Y002574D01*
X005660Y002653D02*
X007510Y002653D01*
X007510Y002731D02*
X005660Y002731D01*
X005660Y002810D02*
X007510Y002810D01*
X007510Y002888D02*
X005660Y002888D01*
X005660Y002967D02*
X007510Y002967D01*
X007510Y003045D02*
X005660Y003045D01*
X005660Y003124D02*
X007510Y003124D01*
X007510Y003202D02*
X005660Y003202D01*
X005660Y003281D02*
X007510Y003281D01*
X007510Y003359D02*
X005660Y003359D01*
X005660Y003438D02*
X007510Y003438D01*
X007510Y003516D02*
X005660Y003516D01*
X005660Y003595D02*
X007510Y003595D01*
X007510Y003673D02*
X005660Y003673D01*
X005596Y003752D02*
X007510Y003752D01*
X007510Y003830D02*
X005518Y003830D01*
X005439Y003909D02*
X005855Y003909D01*
X005777Y003987D02*
X005361Y003987D01*
X005282Y004066D02*
X005613Y004066D01*
X005535Y004144D02*
X005204Y004144D01*
X005181Y004223D02*
X005490Y004223D01*
X005490Y004301D02*
X005181Y004301D01*
X005278Y004380D02*
X005498Y004380D01*
X005570Y004458D02*
X005301Y004458D01*
X005295Y004537D02*
X005499Y004537D01*
X005497Y004615D02*
X005335Y004615D01*
X005339Y004694D02*
X005418Y004694D01*
X005570Y004740D02*
X005452Y004858D01*
X005031Y004858D01*
X005031Y005050D02*
X004430Y005050D01*
X004430Y005070D01*
X004540Y005250D02*
X005040Y005250D01*
X005041Y005252D02*
X005031Y005252D01*
X005770Y005252D01*
X005737Y005243D02*
X005803Y005243D01*
X005803Y005229D02*
X005737Y005229D01*
X005737Y005163D01*
X005459Y005163D01*
X005459Y005032D01*
X005468Y004998D01*
X005332Y004998D01*
X005341Y005030D01*
X005341Y005055D01*
X005341Y005080D01*
X005328Y005128D01*
X005313Y005153D01*
X005328Y005179D01*
X005341Y005227D01*
X005341Y005252D01*
X005341Y005276D01*
X005328Y005325D01*
X005303Y005368D01*
X005293Y005377D01*
X005421Y005505D01*
X005584Y005668D01*
X005904Y005668D01*
X006100Y005472D01*
X006100Y005442D01*
X006039Y005442D01*
X006027Y005454D01*
X005995Y005472D01*
X005960Y005482D01*
X005803Y005482D01*
X005803Y005229D01*
X005737Y005229D02*
X005737Y005482D01*
X005580Y005482D01*
X005545Y005472D01*
X005513Y005454D01*
X005487Y005428D01*
X005468Y005396D01*
X005459Y005360D01*
X005459Y005229D01*
X005737Y005229D01*
X005737Y005165D02*
X005320Y005165D01*
X005341Y005243D02*
X005459Y005243D01*
X005459Y005322D02*
X005329Y005322D01*
X005341Y005252D02*
X005110Y005252D01*
X005110Y005252D01*
X005341Y005252D01*
X005339Y005086D02*
X005459Y005086D01*
X005465Y005008D02*
X005335Y005008D01*
X005341Y005055D02*
X005110Y005055D01*
X005341Y005055D01*
X005110Y005055D02*
X005110Y005055D01*
X005041Y005050D02*
X005041Y005252D01*
X005031Y005055D02*
X005031Y005050D01*
X005031Y004661D02*
X004560Y004661D01*
X004560Y004660D02*
X004430Y004790D01*
X004560Y004660D02*
X004560Y004179D01*
X004559Y004110D02*
X004559Y003879D01*
X004584Y003879D01*
X004616Y003888D01*
X004616Y003814D01*
X004582Y003780D01*
X004538Y003780D01*
X004502Y003816D01*
X004502Y003888D01*
X004534Y003879D01*
X004559Y003879D01*
X004559Y004110D01*
X004559Y004110D01*
X004559Y004066D02*
X004559Y004066D01*
X004559Y003987D02*
X004559Y003987D01*
X004559Y003909D02*
X004559Y003909D01*
X004502Y003830D02*
X004616Y003830D01*
X004756Y003756D02*
X004560Y003560D01*
X004362Y003758D01*
X004362Y004189D01*
X004165Y004189D02*
X004165Y004605D01*
X004150Y004790D01*
X004165Y004189D02*
X003968Y004189D01*
X003968Y004066D02*
X003968Y004066D01*
X003968Y003987D02*
X003968Y003987D01*
X003968Y003909D02*
X003968Y003909D01*
X003912Y003830D02*
X004222Y003830D01*
X004222Y003752D02*
X003912Y003752D01*
X003912Y003673D02*
X004249Y003673D01*
X004327Y003595D02*
X003912Y003595D01*
X003912Y003516D02*
X004340Y003516D01*
X004371Y003438D02*
X003912Y003438D01*
X004036Y003359D02*
X004294Y003359D01*
X004289Y003281D02*
X004041Y003281D01*
X004041Y003202D02*
X004289Y003202D01*
X004289Y003124D02*
X004041Y003124D01*
X004041Y003045D02*
X004289Y003045D01*
X004301Y002967D02*
X004029Y002967D01*
X004073Y002888D02*
X004257Y002888D01*
X004249Y002810D02*
X004081Y002810D01*
X004081Y002731D02*
X004249Y002731D01*
X004249Y002653D02*
X004081Y002653D01*
X004081Y002574D02*
X004249Y002574D01*
X004258Y002496D02*
X004072Y002496D01*
X003993Y002417D02*
X004337Y002417D01*
X004527Y002417D02*
X004593Y002417D01*
X004593Y002496D02*
X004527Y002496D01*
X004527Y002574D02*
X004593Y002574D01*
X004593Y002653D02*
X004527Y002653D01*
X004783Y002417D02*
X005380Y002417D01*
X005380Y002339D02*
X003420Y002339D01*
X003420Y002417D02*
X003547Y002417D01*
X003468Y002496D02*
X003420Y002496D01*
X003420Y002574D02*
X003459Y002574D01*
X003459Y002653D02*
X003420Y002653D01*
X003420Y002731D02*
X003459Y002731D01*
X003459Y002810D02*
X003420Y002810D01*
X003420Y002888D02*
X003467Y002888D01*
X003511Y002967D02*
X003420Y002967D01*
X003420Y003045D02*
X003499Y003045D01*
X003499Y003124D02*
X003420Y003124D01*
X003420Y003202D02*
X003499Y003202D01*
X003499Y003281D02*
X003459Y003281D01*
X003280Y003300D02*
X003575Y003595D01*
X003575Y004189D01*
X003378Y004189D02*
X003378Y003828D01*
X003110Y003560D01*
X002837Y003287D01*
X002761Y003438D02*
X002092Y003438D01*
X002108Y003359D02*
X002014Y003359D01*
X002006Y003281D02*
X002078Y003281D01*
X002078Y003202D02*
X002006Y003202D01*
X002006Y003124D02*
X002331Y003124D01*
X002331Y003202D02*
X002397Y003202D01*
X002397Y003281D02*
X002331Y003281D01*
X002331Y003359D02*
X002397Y003359D01*
X002171Y003516D02*
X002868Y003516D01*
X002637Y003359D02*
X002620Y003359D01*
X002855Y003930D02*
X002075Y003930D01*
X002040Y003895D01*
X002040Y004592D01*
X002166Y004718D01*
X002439Y004718D01*
X002439Y004599D01*
X002476Y004563D01*
X002439Y004526D01*
X002439Y004402D01*
X002527Y004315D01*
X002630Y004315D01*
X002630Y004133D01*
X002653Y004110D01*
X002795Y004110D01*
X002795Y004044D01*
X002808Y003995D01*
X002833Y003952D01*
X002855Y003930D01*
X002813Y003987D02*
X002040Y003987D01*
X002040Y003909D02*
X002054Y003909D01*
X002040Y004066D02*
X002795Y004066D01*
X002984Y004189D02*
X003181Y004189D01*
X003181Y004661D01*
X003310Y004790D01*
X003772Y004189D02*
X003772Y003186D01*
X003280Y003300D02*
X003280Y002350D01*
X003100Y002170D01*
X002400Y002170D01*
X002300Y002270D01*
X002300Y002637D01*
X002118Y002653D02*
X002006Y002653D01*
X002006Y002731D02*
X002118Y002731D01*
X002118Y002810D02*
X002006Y002810D01*
X002006Y002888D02*
X002084Y002888D01*
X002078Y002967D02*
X002006Y002967D01*
X002006Y003045D02*
X002078Y003045D01*
X002118Y002574D02*
X002006Y002574D01*
X002006Y002496D02*
X002118Y002496D01*
X002118Y002417D02*
X002006Y002417D01*
X002006Y002339D02*
X002160Y002339D01*
X002160Y002260D02*
X002006Y002260D01*
X002006Y002182D02*
X002190Y002182D01*
X002269Y002103D02*
X002006Y002103D01*
X001646Y002103D02*
X001580Y002103D01*
X001562Y002059D02*
X001613Y002183D01*
X001613Y002317D01*
X001562Y002441D01*
X001467Y002536D01*
X001429Y002552D01*
X001646Y002716D01*
X001646Y001785D01*
X001453Y001592D01*
X001343Y001638D01*
X000733Y001638D01*
X000609Y001586D01*
X000540Y001518D01*
X000540Y002032D01*
X000609Y001964D01*
X000733Y001912D01*
X001343Y001912D01*
X001467Y001964D01*
X001562Y002059D01*
X001528Y002025D02*
X001646Y002025D01*
X001646Y001946D02*
X001424Y001946D01*
X001646Y001868D02*
X000540Y001868D01*
X000540Y001946D02*
X000651Y001946D01*
X000548Y002025D02*
X000540Y002025D01*
X000540Y001789D02*
X001646Y001789D01*
X001572Y001711D02*
X000540Y001711D01*
X000540Y001632D02*
X000719Y001632D01*
X000576Y001554D02*
X000540Y001554D01*
X000540Y000847D02*
X003782Y000847D01*
X003782Y000926D02*
X003862Y000926D01*
X003862Y001004D02*
X003782Y001004D01*
X003782Y001083D02*
X003862Y001083D01*
X003862Y001161D02*
X003782Y001161D01*
X003862Y000847D02*
X004804Y000847D01*
X004804Y000769D02*
X004336Y000769D01*
X004336Y000690D02*
X004804Y000690D01*
X004804Y000612D02*
X004335Y000612D01*
X004336Y000926D02*
X004804Y000926D01*
X004804Y001004D02*
X004336Y001004D01*
X004336Y001083D02*
X004804Y001083D01*
X004860Y001161D02*
X004296Y001161D01*
X004276Y001475D02*
X004824Y001475D01*
X004804Y001554D02*
X004296Y001554D01*
X004296Y001632D02*
X004804Y001632D01*
X004804Y001711D02*
X004296Y001711D01*
X004296Y001789D02*
X004804Y001789D01*
X004804Y001868D02*
X004296Y001868D01*
X004296Y001946D02*
X004804Y001946D01*
X004818Y002025D02*
X004282Y002025D01*
X003803Y002417D02*
X003737Y002417D01*
X003737Y002496D02*
X003803Y002496D01*
X003803Y002574D02*
X003737Y002574D01*
X003737Y002653D02*
X003803Y002653D01*
X003388Y002260D02*
X005380Y002260D01*
X005380Y002182D02*
X003310Y002182D01*
X003231Y002103D02*
X005380Y002103D01*
X005520Y001994D02*
X005278Y001753D01*
X005520Y001994D02*
X005520Y003630D01*
X005041Y004109D01*
X005041Y004454D01*
X005031Y004464D01*
X004756Y004189D02*
X004756Y003756D01*
X004896Y003752D02*
X005200Y003752D01*
X005122Y003830D02*
X004896Y003830D01*
X004896Y003909D02*
X005043Y003909D01*
X004965Y003987D02*
X004896Y003987D01*
X004871Y003673D02*
X005279Y003673D01*
X005357Y003595D02*
X004793Y003595D01*
X004780Y003516D02*
X005380Y003516D01*
X005380Y003438D02*
X004749Y003438D01*
X004826Y003359D02*
X005380Y003359D01*
X005380Y003281D02*
X004831Y003281D01*
X004831Y003202D02*
X005380Y003202D01*
X005380Y003124D02*
X004831Y003124D01*
X004831Y003045D02*
X005380Y003045D01*
X005380Y002967D02*
X004819Y002967D01*
X004863Y002888D02*
X005380Y002888D01*
X005380Y002810D02*
X004871Y002810D01*
X004871Y002731D02*
X005380Y002731D01*
X005380Y002653D02*
X004871Y002653D01*
X004871Y002574D02*
X005380Y002574D01*
X005380Y002496D02*
X004862Y002496D01*
X005697Y001161D02*
X007510Y001161D01*
X007510Y001083D02*
X005752Y001083D01*
X005752Y001004D02*
X007510Y001004D01*
X007510Y000926D02*
X005752Y000926D01*
X005752Y000847D02*
X007510Y000847D01*
X007510Y000769D02*
X005752Y000769D01*
X005752Y000690D02*
X007510Y000690D01*
X007510Y000612D02*
X005752Y000612D01*
X003308Y000612D02*
X000540Y000612D01*
X000540Y000690D02*
X003308Y000690D01*
X003308Y000769D02*
X000540Y000769D01*
X001357Y001632D02*
X001493Y001632D01*
X001767Y001397D02*
X001849Y001397D01*
X001845Y001475D02*
X001849Y001475D01*
X001849Y001318D02*
X001688Y001318D01*
X001613Y001240D02*
X001863Y001240D01*
X001584Y001161D02*
X002694Y001161D01*
X002683Y001164D02*
X002718Y001154D01*
X002894Y001154D01*
X002894Y001530D01*
X002597Y001530D01*
X002597Y001276D01*
X002606Y001240D01*
X002625Y001208D01*
X002651Y001182D01*
X002683Y001164D01*
X002607Y001240D02*
X002430Y001240D01*
X002443Y001318D02*
X002597Y001318D01*
X002597Y001397D02*
X002443Y001397D01*
X002443Y001475D02*
X002597Y001475D01*
X002894Y001475D02*
X002974Y001475D01*
X002974Y001397D02*
X002894Y001397D01*
X002894Y001318D02*
X002974Y001318D01*
X002974Y001240D02*
X002894Y001240D01*
X002894Y001161D02*
X002974Y001161D01*
X002974Y001711D02*
X002894Y001711D01*
X002894Y001789D02*
X002974Y001789D01*
X002974Y001868D02*
X002894Y001868D01*
X002894Y001946D02*
X002974Y001946D01*
X001646Y002182D02*
X001613Y002182D01*
X001613Y002260D02*
X001646Y002260D01*
X001646Y002339D02*
X001605Y002339D01*
X001572Y002417D02*
X001646Y002417D01*
X001646Y002496D02*
X001508Y002496D01*
X001458Y002574D02*
X001646Y002574D01*
X001646Y002653D02*
X001562Y002653D01*
X001630Y002880D02*
X000800Y002250D01*
X000568Y002496D02*
X000540Y002496D01*
X000540Y002468D02*
X000540Y003032D01*
X000609Y002964D01*
X000733Y002912D01*
X001343Y002912D01*
X001467Y002964D01*
X001490Y002987D01*
X001490Y002949D01*
X001013Y002588D01*
X000733Y002588D01*
X000609Y002536D01*
X000540Y002468D01*
X000540Y002574D02*
X000700Y002574D01*
X000540Y002653D02*
X001099Y002653D01*
X001202Y002731D02*
X000540Y002731D01*
X000540Y002810D02*
X001306Y002810D01*
X001409Y002888D02*
X000540Y002888D01*
X000540Y002967D02*
X000606Y002967D01*
X000800Y003250D02*
X001700Y004000D01*
X001700Y004700D01*
X002055Y005055D01*
X002709Y005055D01*
X002709Y005252D02*
X001902Y005252D01*
X000800Y004250D01*
X000540Y004468D02*
X000540Y005032D01*
X000609Y004964D01*
X000733Y004912D01*
X001320Y004912D01*
X000963Y004588D01*
X000733Y004588D01*
X000609Y004536D01*
X000540Y004468D01*
X000540Y004537D02*
X000609Y004537D01*
X000540Y004615D02*
X000993Y004615D01*
X001080Y004694D02*
X000540Y004694D01*
X000540Y004772D02*
X001166Y004772D01*
X001252Y004851D02*
X000540Y004851D01*
X000540Y004929D02*
X000692Y004929D01*
X000565Y005008D02*
X000540Y005008D01*
X000540Y005468D02*
X000540Y006032D01*
X000609Y005964D01*
X000733Y005912D01*
X001343Y005912D01*
X001467Y005964D01*
X001503Y005999D01*
X001914Y005588D01*
X001163Y005588D01*
X001067Y005608D01*
X001037Y005588D01*
X000733Y005588D01*
X000609Y005536D01*
X000540Y005468D01*
X000540Y005479D02*
X000551Y005479D01*
X000540Y005557D02*
X000659Y005557D01*
X000540Y005636D02*
X001866Y005636D01*
X001788Y005714D02*
X000540Y005714D01*
X000540Y005793D02*
X001709Y005793D01*
X001631Y005871D02*
X000540Y005871D01*
X000540Y005950D02*
X000643Y005950D01*
X000544Y006028D02*
X000540Y006028D01*
X000800Y006250D02*
X001450Y006250D01*
X002055Y005645D01*
X002709Y005645D01*
X002709Y005448D02*
X001098Y005448D01*
X001433Y005950D02*
X001552Y005950D01*
X001713Y006185D02*
X002406Y006185D01*
X002412Y006163D02*
X002427Y006137D01*
X002412Y006112D01*
X002399Y006064D01*
X002399Y006039D01*
X002630Y006039D01*
X002630Y006039D01*
X002399Y006039D01*
X002399Y006014D01*
X002412Y005966D01*
X002427Y005941D01*
X002412Y005915D01*
X002399Y005867D01*
X002399Y005842D01*
X002399Y005817D01*
X002408Y005785D01*
X002113Y005785D01*
X001613Y006285D01*
X001613Y006317D01*
X001562Y006441D01*
X001467Y006536D01*
X001343Y006588D01*
X000733Y006588D01*
X000609Y006536D01*
X000540Y006468D01*
X000540Y006976D01*
X000559Y006957D01*
X000621Y006915D01*
X000690Y006887D01*
X000763Y006872D01*
X000771Y006872D01*
X000771Y007221D01*
X000829Y007221D01*
X000829Y007279D01*
X000771Y007279D01*
X000771Y007628D01*
X000763Y007628D01*
X000690Y007613D01*
X000621Y007585D01*
X000559Y007543D01*
X000540Y007524D01*
X000540Y008950D01*
X005160Y008950D01*
X005160Y008931D01*
X005067Y008931D01*
X005067Y008653D01*
X005001Y008653D01*
X005001Y008931D01*
X004870Y008931D01*
X004834Y008922D01*
X004802Y008903D01*
X004776Y008877D01*
X004758Y008845D01*
X004748Y008810D01*
X004748Y008653D01*
X005001Y008653D01*
X005001Y008587D01*
X004748Y008587D01*
X004748Y008430D01*
X004754Y008410D01*
X003913Y008410D01*
X003890Y008387D01*
X003890Y007483D01*
X003831Y007483D01*
X003831Y007761D01*
X003700Y007761D01*
X003664Y007752D01*
X003632Y007733D01*
X003606Y007707D01*
X003588Y007675D01*
X003578Y007640D01*
X003578Y007483D01*
X003831Y007483D01*
X003831Y007417D01*
X003890Y007417D01*
X003890Y007013D01*
X003913Y006990D01*
X004222Y006990D01*
X004222Y006812D01*
X004190Y006821D01*
X004165Y006821D01*
X004140Y006821D01*
X004092Y006808D01*
X004067Y006793D01*
X004041Y006808D01*
X003993Y006821D01*
X003968Y006821D01*
X003944Y006821D01*
X003905Y006810D01*
X003870Y006844D01*
X003830Y006884D01*
X003828Y006884D01*
X003282Y007408D01*
X003282Y007663D01*
X003223Y007721D01*
X003217Y007721D01*
X003217Y007768D01*
X003164Y007821D01*
X003111Y007873D01*
X002915Y008070D01*
X002691Y008070D01*
X002641Y008120D01*
X002459Y008120D01*
X002330Y007991D01*
X002330Y007809D01*
X002382Y007757D01*
X002364Y007752D01*
X002332Y007733D01*
X002306Y007707D01*
X002288Y007675D01*
X002278Y007640D01*
X002278Y007483D01*
X002531Y007483D01*
X002531Y007417D01*
X002597Y007417D01*
X002597Y007139D01*
X002728Y007139D01*
X002763Y007148D01*
X002795Y007167D01*
X002821Y007193D01*
X002826Y007201D01*
X002849Y007179D01*
X003117Y007179D01*
X003503Y006808D01*
X003502Y006808D01*
X003476Y006793D01*
X003451Y006808D01*
X003403Y006821D01*
X003378Y006821D01*
X003378Y006590D01*
X003378Y006590D01*
X003378Y006821D01*
X003353Y006821D01*
X003305Y006808D01*
X003279Y006793D01*
X003254Y006808D01*
X003206Y006821D01*
X003181Y006821D01*
X003156Y006821D01*
X003108Y006808D01*
X003083Y006793D01*
X003057Y006808D01*
X003009Y006821D01*
X002984Y006821D01*
X002959Y006821D01*
X002911Y006808D01*
X002868Y006783D01*
X002833Y006748D01*
X002808Y006705D01*
X002795Y006656D01*
X000540Y006656D01*
X000540Y006578D02*
X000708Y006578D01*
X000571Y006499D02*
X000540Y006499D01*
X000540Y006735D02*
X002825Y006735D01*
X002795Y006656D02*
X002795Y006590D01*
X002653Y006590D01*
X002630Y006567D01*
X002630Y006425D01*
X002564Y006425D01*
X002515Y006412D01*
X002472Y006387D01*
X002437Y006352D01*
X002412Y006309D01*
X002399Y006261D01*
X002399Y006236D01*
X002630Y006236D01*
X002630Y006236D01*
X002399Y006236D01*
X002399Y006211D01*
X002412Y006163D01*
X002411Y006107D02*
X001791Y006107D01*
X001870Y006028D02*
X002399Y006028D01*
X002422Y005950D02*
X001948Y005950D01*
X002027Y005871D02*
X002400Y005871D01*
X002399Y005842D02*
X002630Y005842D01*
X002399Y005842D01*
X002406Y005793D02*
X002105Y005793D01*
X002630Y005842D02*
X002630Y005842D01*
X002709Y005842D02*
X002709Y006030D01*
X002700Y006030D01*
X002699Y006040D02*
X003180Y006040D01*
X003180Y006510D01*
X003181Y006511D01*
X003181Y006590D02*
X003181Y006821D01*
X003181Y006590D01*
X003181Y006590D01*
X003181Y006656D02*
X003181Y006656D01*
X003181Y006735D02*
X003181Y006735D01*
X003181Y006813D02*
X003181Y006813D01*
X003127Y006813D02*
X003038Y006813D01*
X002984Y006813D02*
X002984Y006813D01*
X002984Y006821D02*
X002984Y006590D01*
X002984Y006821D01*
X002931Y006813D02*
X000540Y006813D01*
X000540Y006892D02*
X000678Y006892D01*
X000771Y006892D02*
X000829Y006892D01*
X000829Y006872D02*
X001313Y006872D01*
X001386Y006887D01*
X001455Y006915D01*
X001516Y006957D01*
X001569Y007009D01*
X001610Y007071D01*
X001639Y007140D01*
X001653Y007213D01*
X001653Y007221D01*
X000829Y007221D01*
X000829Y006872D01*
X000829Y006970D02*
X000771Y006970D01*
X000771Y007049D02*
X000829Y007049D01*
X000829Y007127D02*
X000771Y007127D01*
X000771Y007206D02*
X000829Y007206D01*
X000829Y007279D02*
X001653Y007279D01*
X001653Y007287D01*
X001639Y007360D01*
X001610Y007429D01*
X001569Y007491D01*
X001516Y007543D01*
X001455Y007585D01*
X001386Y007613D01*
X001313Y007628D01*
X000829Y007628D01*
X000829Y007279D01*
X000829Y007284D02*
X000771Y007284D01*
X000771Y007363D02*
X000829Y007363D01*
X000829Y007441D02*
X000771Y007441D01*
X000771Y007520D02*
X000829Y007520D01*
X000829Y007598D02*
X000771Y007598D01*
X000653Y007598D02*
X000540Y007598D01*
X000540Y007677D02*
X002288Y007677D01*
X002278Y007598D02*
X001423Y007598D01*
X001540Y007520D02*
X002278Y007520D01*
X002278Y007417D02*
X002278Y007260D01*
X002288Y007225D01*
X002306Y007193D01*
X002332Y007167D01*
X002364Y007148D01*
X002400Y007139D01*
X002531Y007139D01*
X002531Y007417D01*
X002278Y007417D01*
X002278Y007363D02*
X001638Y007363D01*
X001653Y007284D02*
X002278Y007284D01*
X002299Y007206D02*
X001652Y007206D01*
X001634Y007127D02*
X003171Y007127D01*
X003252Y007049D02*
X001595Y007049D01*
X001530Y006970D02*
X003334Y006970D01*
X003416Y006892D02*
X001397Y006892D01*
X001368Y006578D02*
X002641Y006578D01*
X002630Y006499D02*
X001504Y006499D01*
X001571Y006421D02*
X002547Y006421D01*
X002431Y006342D02*
X001603Y006342D01*
X001634Y006264D02*
X002400Y006264D01*
X002709Y006236D02*
X002709Y006039D01*
X002984Y006236D02*
X003180Y006040D01*
X003310Y005910D01*
X003378Y005950D01*
X003378Y006511D01*
X003378Y006656D02*
X003378Y006656D01*
X003378Y006735D02*
X003378Y006735D01*
X003378Y006813D02*
X003378Y006813D01*
X003431Y006813D02*
X003498Y006813D01*
X003324Y006813D02*
X003235Y006813D01*
X002984Y006735D02*
X002984Y006735D01*
X002984Y006656D02*
X002984Y006656D01*
X002984Y006590D02*
X002984Y006590D01*
X002984Y006511D02*
X002984Y006236D01*
X003575Y006511D02*
X003575Y005950D01*
X003590Y005910D01*
X003870Y005910D02*
X003968Y005950D01*
X003968Y006511D01*
X003968Y006590D02*
X003968Y006821D01*
X003968Y006590D01*
X003968Y006590D01*
X003968Y006656D02*
X003968Y006656D01*
X003968Y006735D02*
X003968Y006735D01*
X003968Y006813D02*
X003968Y006813D01*
X003915Y006813D02*
X003902Y006813D01*
X003820Y006892D02*
X004222Y006892D01*
X004165Y006885D02*
X003840Y007210D01*
X003840Y007444D01*
X003831Y007441D02*
X003282Y007441D01*
X003282Y007520D02*
X003578Y007520D01*
X003578Y007598D02*
X003282Y007598D01*
X003268Y007677D02*
X003588Y007677D01*
X003676Y007755D02*
X003217Y007755D01*
X003217Y007768D02*
X003217Y007768D01*
X003217Y007768D01*
X003151Y007834D02*
X003890Y007834D01*
X003890Y007912D02*
X003073Y007912D01*
X003111Y007873D02*
X003111Y007873D01*
X002994Y007991D02*
X003890Y007991D01*
X003890Y008069D02*
X002916Y008069D01*
X002408Y008069D02*
X000540Y008069D01*
X000540Y007991D02*
X002330Y007991D01*
X002330Y007912D02*
X000540Y007912D01*
X000540Y007834D02*
X002330Y007834D01*
X002376Y007755D02*
X000540Y007755D01*
X000540Y008148D02*
X003890Y008148D01*
X003890Y008226D02*
X000540Y008226D01*
X000540Y008305D02*
X003890Y008305D01*
X003890Y008383D02*
X000540Y008383D01*
X000540Y008462D02*
X004748Y008462D01*
X004748Y008540D02*
X000540Y008540D01*
X000540Y008619D02*
X005001Y008619D01*
X005001Y008697D02*
X005067Y008697D01*
X005067Y008776D02*
X005001Y008776D01*
X005001Y008854D02*
X005067Y008854D01*
X005160Y008933D02*
X000540Y008933D01*
X000540Y008854D02*
X004763Y008854D01*
X004748Y008776D02*
X000540Y008776D01*
X000540Y008697D02*
X004748Y008697D01*
X004362Y007960D02*
X004362Y006511D01*
X004165Y006511D02*
X004165Y006095D01*
X004150Y005910D01*
X004430Y005910D02*
X004559Y006041D01*
X004559Y006511D01*
X004559Y006590D02*
X004559Y006821D01*
X004534Y006821D01*
X004502Y006812D01*
X004502Y006990D01*
X004616Y006990D01*
X004616Y006812D01*
X004584Y006821D01*
X004559Y006821D01*
X004559Y006590D01*
X004559Y006590D01*
X004559Y006656D02*
X004559Y006656D01*
X004559Y006735D02*
X004559Y006735D01*
X004559Y006813D02*
X004559Y006813D01*
X004613Y006813D02*
X004616Y006813D01*
X004616Y006892D02*
X004502Y006892D01*
X004502Y006970D02*
X004616Y006970D01*
X004505Y006813D02*
X004502Y006813D01*
X004222Y006813D02*
X004219Y006813D01*
X004165Y006813D02*
X004165Y006813D01*
X004165Y006821D02*
X004165Y006590D01*
X004165Y006590D01*
X004165Y006821D01*
X004112Y006813D02*
X004022Y006813D01*
X004165Y006885D02*
X004165Y006511D01*
X004165Y006656D02*
X004165Y006656D01*
X004165Y006735D02*
X004165Y006735D01*
X004222Y006970D02*
X003739Y006970D01*
X003657Y007049D02*
X003890Y007049D01*
X003890Y007127D02*
X003575Y007127D01*
X003632Y007167D02*
X003664Y007148D01*
X003700Y007139D01*
X003831Y007139D01*
X003831Y007417D01*
X003578Y007417D01*
X003578Y007260D01*
X003588Y007225D01*
X003606Y007193D01*
X003632Y007167D01*
X003599Y007206D02*
X003493Y007206D01*
X003411Y007284D02*
X003578Y007284D01*
X003578Y007363D02*
X003330Y007363D01*
X003036Y007450D02*
X003772Y006744D01*
X003772Y006511D01*
X003831Y007206D02*
X003890Y007206D01*
X003890Y007284D02*
X003831Y007284D01*
X003831Y007363D02*
X003890Y007363D01*
X003890Y007520D02*
X003831Y007520D01*
X003831Y007598D02*
X003890Y007598D01*
X003890Y007677D02*
X003831Y007677D01*
X003831Y007755D02*
X003890Y007755D01*
X004756Y007900D02*
X004756Y007490D01*
X004772Y007473D01*
X005530Y007474D01*
X006089Y007454D01*
X005526Y007966D02*
X005526Y008601D01*
X005506Y008620D01*
X005840Y008619D02*
X007510Y008619D01*
X007510Y008697D02*
X005840Y008697D01*
X005840Y008776D02*
X007510Y008776D01*
X007510Y008854D02*
X005840Y008854D01*
X005840Y008933D02*
X007510Y008933D01*
X007510Y008540D02*
X005840Y008540D01*
X005840Y008462D02*
X007510Y008462D01*
X007510Y008383D02*
X007240Y008383D01*
X007240Y008305D02*
X007510Y008305D01*
X007510Y008226D02*
X007240Y008226D01*
X007240Y008148D02*
X007510Y008148D01*
X007510Y008069D02*
X007240Y008069D01*
X007240Y007991D02*
X007510Y007991D01*
X007510Y007912D02*
X007240Y007912D01*
X007240Y007834D02*
X007510Y007834D01*
X007510Y007755D02*
X007240Y007755D01*
X007240Y007677D02*
X007510Y007677D01*
X007510Y007598D02*
X007240Y007598D01*
X007240Y007520D02*
X007510Y007520D01*
X007510Y007441D02*
X007240Y007441D01*
X007240Y007363D02*
X007510Y007363D01*
X007510Y007284D02*
X007240Y007284D01*
X007240Y007206D02*
X007510Y007206D01*
X007510Y007127D02*
X007240Y007127D01*
X007240Y007049D02*
X007510Y007049D01*
X007510Y006970D02*
X007060Y006970D01*
X007060Y006892D02*
X007510Y006892D01*
X007510Y006813D02*
X006981Y006813D01*
X006903Y006735D02*
X007510Y006735D01*
X007510Y006656D02*
X006006Y006656D01*
X006074Y006578D02*
X007510Y006578D01*
X007510Y006499D02*
X006081Y006499D01*
X006081Y006421D02*
X007510Y006421D01*
X007510Y006342D02*
X006081Y006342D01*
X006081Y006264D02*
X007510Y006264D01*
X007510Y006185D02*
X006071Y006185D01*
X006036Y006107D02*
X007510Y006107D01*
X007510Y006028D02*
X006041Y006028D01*
X006041Y005950D02*
X007510Y005950D01*
X007510Y005871D02*
X006097Y005871D01*
X006175Y005793D02*
X007510Y005793D01*
X007510Y005714D02*
X006254Y005714D01*
X006332Y005636D02*
X007510Y005636D01*
X007510Y005557D02*
X006380Y005557D01*
X006380Y005479D02*
X007510Y005479D01*
X007510Y005400D02*
X006526Y005400D01*
X006605Y005322D02*
X007510Y005322D01*
X007510Y005243D02*
X006683Y005243D01*
X006762Y005165D02*
X007510Y005165D01*
X007510Y005086D02*
X006790Y005086D01*
X006790Y005008D02*
X007510Y005008D01*
X007510Y004929D02*
X006790Y004929D01*
X006790Y004851D02*
X007510Y004851D01*
X007510Y004772D02*
X006790Y004772D01*
X006790Y004694D02*
X007510Y004694D01*
X007510Y004615D02*
X006790Y004615D01*
X006790Y004537D02*
X007510Y004537D01*
X007510Y004458D02*
X006790Y004458D01*
X006790Y004380D02*
X007510Y004380D01*
X007510Y004301D02*
X006790Y004301D01*
X006729Y004223D02*
X007510Y004223D01*
X007510Y004144D02*
X006650Y004144D01*
X006572Y004066D02*
X007510Y004066D01*
X007510Y003987D02*
X006493Y003987D01*
X006415Y003909D02*
X007510Y003909D01*
X006470Y004416D02*
X006274Y004220D01*
X005996Y004220D01*
X005930Y004286D01*
X005930Y004371D01*
X005850Y004451D01*
X005850Y004478D01*
X005971Y004478D01*
X005983Y004466D01*
X006015Y004448D01*
X006050Y004438D01*
X006207Y004438D01*
X006207Y004691D01*
X006273Y004691D01*
X006273Y004438D01*
X006430Y004438D01*
X006465Y004448D01*
X006470Y004450D01*
X006470Y004416D01*
X006433Y004380D02*
X005922Y004380D01*
X005930Y004301D02*
X006355Y004301D01*
X006276Y004223D02*
X005994Y004223D01*
X005997Y004458D02*
X005850Y004458D01*
X005710Y004280D02*
X005710Y004740D01*
X005570Y004740D01*
X005737Y005322D02*
X005803Y005322D01*
X005803Y005400D02*
X005737Y005400D01*
X005737Y005479D02*
X005803Y005479D01*
X005972Y005479D02*
X006093Y005479D01*
X006015Y005557D02*
X005473Y005557D01*
X005551Y005636D02*
X005936Y005636D01*
X005876Y005894D02*
X006240Y005530D01*
X006240Y005196D01*
X006207Y004615D02*
X006273Y004615D01*
X006273Y004537D02*
X006207Y004537D01*
X006207Y004458D02*
X006273Y004458D01*
X005471Y005400D02*
X005316Y005400D01*
X005394Y005479D02*
X005568Y005479D01*
X005363Y005645D02*
X005560Y005842D01*
X005699Y005842D01*
X005770Y005914D01*
X005560Y005842D02*
X005031Y005842D01*
X005031Y006039D02*
X005309Y006039D01*
X005560Y006290D01*
X005459Y006264D02*
X005301Y006264D01*
X005301Y006298D02*
X005213Y006385D01*
X005193Y006385D01*
X005478Y006670D01*
X005573Y006670D01*
X005545Y006662D01*
X005513Y006644D01*
X005487Y006618D01*
X005468Y006586D01*
X005459Y006550D01*
X005459Y006419D01*
X005737Y006419D01*
X005737Y006353D01*
X005459Y006353D01*
X005459Y006222D01*
X005468Y006187D01*
X005487Y006155D01*
X005513Y006129D01*
X005521Y006124D01*
X005499Y006101D01*
X005499Y005982D01*
X005332Y005982D01*
X005341Y006014D01*
X005341Y006039D01*
X005341Y006064D01*
X005328Y006112D01*
X005303Y006155D01*
X005292Y006166D01*
X005301Y006174D01*
X005301Y006298D01*
X005256Y006342D02*
X005459Y006342D01*
X005459Y006421D02*
X005229Y006421D01*
X005307Y006499D02*
X005459Y006499D01*
X005466Y006578D02*
X005386Y006578D01*
X005464Y006656D02*
X005534Y006656D01*
X005420Y006810D02*
X006780Y006810D01*
X006920Y006950D01*
X006920Y007455D01*
X005803Y006342D02*
X005737Y006342D01*
X005737Y006264D02*
X005803Y006264D01*
X005803Y006185D02*
X005737Y006185D01*
X005504Y006107D02*
X005329Y006107D01*
X005341Y006039D02*
X005110Y006039D01*
X005110Y006039D01*
X005341Y006039D01*
X005341Y006028D02*
X005499Y006028D01*
X005469Y006185D02*
X005301Y006185D01*
X005041Y006246D02*
X005041Y006431D01*
X005420Y006810D01*
X005041Y006246D02*
X005031Y006236D01*
X005031Y006039D02*
X004561Y006039D01*
X004430Y005910D01*
X004756Y006511D02*
X004756Y007490D01*
X005031Y005645D02*
X005363Y005645D01*
X005166Y005448D01*
X005031Y005448D01*
X004165Y004066D02*
X004165Y004066D01*
X004165Y003987D02*
X004165Y003987D01*
X004165Y003909D02*
X004165Y003909D01*
X003238Y003888D02*
X003238Y003886D01*
X003138Y003786D01*
X003038Y003887D01*
X003057Y003892D01*
X003083Y003907D01*
X003108Y003892D01*
X003156Y003879D01*
X003181Y003879D01*
X003181Y004110D01*
X003181Y004110D01*
X003181Y003879D01*
X003206Y003879D01*
X003238Y003888D01*
X003181Y003909D02*
X003181Y003909D01*
X003181Y003987D02*
X003181Y003987D01*
X003181Y004066D02*
X003181Y004066D01*
X003182Y003830D02*
X003095Y003830D01*
X002630Y004144D02*
X002040Y004144D01*
X002040Y004223D02*
X002630Y004223D01*
X002630Y004301D02*
X002040Y004301D01*
X002040Y004380D02*
X002462Y004380D01*
X002439Y004458D02*
X002040Y004458D01*
X002040Y004537D02*
X002450Y004537D01*
X002439Y004615D02*
X002063Y004615D01*
X002142Y004694D02*
X002439Y004694D01*
X002709Y004858D02*
X002108Y004858D01*
X001900Y004650D01*
X001900Y003900D01*
X001630Y003630D01*
X001630Y002880D01*
X001490Y002967D02*
X001470Y002967D01*
X000987Y003588D02*
X000733Y003588D01*
X000609Y003536D01*
X000540Y003468D01*
X000540Y004032D01*
X000609Y003964D01*
X000733Y003912D01*
X001343Y003912D01*
X001409Y003940D01*
X000987Y003588D01*
X000995Y003595D02*
X000540Y003595D01*
X000540Y003673D02*
X001089Y003673D01*
X001183Y003752D02*
X000540Y003752D01*
X000540Y003830D02*
X001277Y003830D01*
X001372Y003909D02*
X000540Y003909D01*
X000540Y003987D02*
X000585Y003987D01*
X000588Y003516D02*
X000540Y003516D01*
X000540Y006970D02*
X000546Y006970D01*
X001602Y007441D02*
X002531Y007441D01*
X002531Y007363D02*
X002597Y007363D01*
X002597Y007284D02*
X002531Y007284D01*
X002531Y007206D02*
X002597Y007206D01*
D22*
X002405Y006530D02*
X002709Y006236D01*
X003840Y007444D02*
X003864Y007450D01*
X004336Y007450D02*
X004344Y007450D01*
X004344Y007960D01*
X004756Y007960D02*
X004756Y007900D01*
X004816Y007960D01*
X004856Y007960D01*
X005526Y007966D02*
X005530Y007946D01*
X005530Y007474D02*
X005530Y007460D01*
X006089Y007454D02*
X006095Y007460D01*
X006765Y007460D02*
X006920Y007455D01*
X005770Y006386D02*
X005766Y006290D01*
X005560Y006290D01*
X006444Y005256D02*
X006630Y005070D01*
X006630Y004350D01*
X006340Y004060D01*
X005930Y004060D01*
X005710Y004280D01*
X004560Y003560D02*
X004560Y003166D01*
X004560Y002694D02*
X004560Y002250D01*
X003770Y002310D02*
X003770Y002694D01*
X002836Y002600D02*
X002836Y003100D01*
X002837Y003287D01*
X002364Y003100D02*
X002304Y003190D01*
X002310Y003470D01*
X002300Y002637D02*
X002364Y002600D01*
X001416Y001300D02*
X000800Y001300D01*
D23*
X004344Y007960D02*
X004362Y007960D01*
X005500Y008800D02*
X005500Y009350D01*
X002670Y009350D01*
X002800Y010150D02*
X002800Y011650D01*
X001150Y011650D01*
X002800Y010150D02*
X003250Y010150D01*
X003250Y011650D01*
X003700Y011650D01*
X003700Y010150D01*
X004150Y010150D01*
X004150Y011650D01*
X004600Y011650D01*
X004600Y010150D01*
X005050Y010150D01*
X005050Y011650D01*
X005500Y011650D01*
X005500Y009350D01*
D24*
X002670Y009350D03*
D25*
X005500Y008800D02*
X005500Y008626D01*
X005506Y008620D01*
D26*
X003037Y007693D02*
X003036Y007450D01*
X003037Y007693D02*
X002840Y007890D01*
X002560Y007890D01*
X002550Y007900D01*
X002920Y003750D02*
X002150Y003750D01*
X001826Y003426D01*
X001826Y001710D01*
X002066Y001710D01*
X002146Y001570D01*
X001826Y001710D02*
X001416Y001300D01*
X003110Y003560D02*
X002920Y003750D01*
M02*
