%
M48
M72
T01C0.0120
T02C0.0150
%
T01
X2233Y3350
X2233Y4310
X2233Y5310
X2233Y6310
X2233Y7310
X2233Y8310
X2233Y9270
X2233Y10350
X2233Y10750
X2233Y11350
X2733Y11350
X3233Y11350
X3433Y10750
X3733Y11350
X4233Y11350
X4433Y10750
X4083Y10400
X3403Y9950
X3603Y9030
X3433Y8550
X4433Y8540
X4433Y8190
X4433Y7850
X4433Y7500
X4433Y7160
X4773Y7160
X4773Y7500
X4773Y7850
X4773Y8190
X4773Y8540
X5113Y8540
X5113Y8190
X5113Y7850
X5113Y7500
X5113Y7160
X5453Y7160
X5453Y7500
X5453Y7850
X5453Y8190
X5453Y8540
X5793Y8540
X5793Y8190
X5793Y7850
X5793Y7500
X5793Y7160
X5793Y6060
X6333Y5350
X5803Y4750
X5573Y4350
X5003Y4750
X4343Y6060
X3693Y6510
X3433Y6950
X3543Y5970
X3633Y4350
X3433Y3350
X4233Y3350
X5573Y3350
X7423Y3350
X7433Y4350
X7433Y5350
X7433Y6200
X7383Y6800
X6943Y6780
X7433Y8550
X8633Y8350
X8633Y7350
X8633Y6350
X8633Y5350
X8633Y4350
X8633Y3350
X8633Y9350
X8633Y10150
X8633Y10750
X8533Y11350
X8083Y11350
X7633Y11350
X7233Y11350
X5733Y11350
X5233Y11350
X4733Y11350
T02
X3903Y11850
M30
