G75*
G70*
%OFA0B0*%
%FSLAX24Y24*%
%IPPOS*%
%LPD*%
%AMOC8*
5,1,8,0,0,1.08239X$1,22.5*
%
%ADD10R,0.1812X0.1812*%
%ADD11R,0.0375X0.0150*%
%ADD12R,0.0150X0.0375*%
%ADD13R,0.0394X0.0316*%
%ADD14R,0.0316X0.0394*%
%ADD15R,0.0473X0.0434*%
%ADD16R,0.0788X0.0473*%
%ADD17R,0.0355X0.0512*%
%ADD18R,0.1040X0.0540*%
D10*
X005103Y007850D03*
D11*
X003932Y007752D03*
X003932Y007948D03*
X003932Y008145D03*
X003932Y008342D03*
X003932Y008539D03*
X003932Y008736D03*
X003932Y007555D03*
X003932Y007358D03*
X003932Y007161D03*
X003932Y006964D03*
X006275Y006964D03*
X006275Y007161D03*
X006275Y007358D03*
X006275Y007555D03*
X006275Y007752D03*
X006275Y007948D03*
X006275Y008145D03*
X006275Y008342D03*
X006275Y008539D03*
X006275Y008736D03*
D12*
X005989Y009021D03*
X005792Y009021D03*
X005595Y009021D03*
X005399Y009021D03*
X005202Y009021D03*
X005005Y009021D03*
X004808Y009021D03*
X004611Y009021D03*
X004414Y009021D03*
X004217Y009021D03*
X004217Y006679D03*
X004414Y006679D03*
X004611Y006679D03*
X004808Y006679D03*
X005005Y006679D03*
X005202Y006679D03*
X005399Y006679D03*
X005595Y006679D03*
X005792Y006679D03*
X005989Y006679D03*
D13*
X005793Y005686D03*
X005793Y005174D03*
X005003Y005174D03*
X005003Y005686D03*
X007003Y007204D03*
X007003Y007716D03*
X007473Y007716D03*
X007473Y007204D03*
X007003Y008394D03*
X007003Y008906D03*
X006763Y009954D03*
X006763Y010466D03*
D14*
X006759Y011120D03*
X006247Y011120D03*
X006089Y010460D03*
X005577Y010460D03*
X005579Y009950D03*
X005067Y009950D03*
X004299Y009950D03*
X003787Y009950D03*
X003547Y005680D03*
X003547Y005090D03*
X004059Y005090D03*
X004059Y005680D03*
D15*
X007329Y009960D03*
X007998Y009960D03*
D16*
X006302Y004223D03*
X006302Y003317D03*
X004845Y003317D03*
X004845Y004223D03*
D17*
X003968Y004210D03*
X003259Y004210D03*
D18*
X002233Y003800D03*
X002233Y004750D03*
X002233Y005750D03*
X002233Y006750D03*
X002233Y007750D03*
X002233Y008750D03*
X002233Y009750D03*
M02*
