G75*
G70*
%OFA0B0*%
%FSLAX25Y25*%
%IPPOS*%
%LPD*%
%AMOC8*
5,1,8,0,0,1.08239X$1,22.5*
%
%ADD45C,0.00100*%
D45*
X0028700Y0095000D02*
X0036700Y0103000D01*
X0036700Y0095000D02*
X0028700Y0103000D01*
X0028700Y0099000D02*
X0036700Y0099000D01*
X0028700Y0216000D02*
X0036700Y0224000D01*
X0036700Y0216000D02*
X0028700Y0224000D01*
X0028700Y0220000D02*
X0036700Y0220000D01*
X0028700Y0337000D02*
X0036700Y0345000D01*
X0036700Y0337000D02*
X0028700Y0345000D01*
X0028700Y0341000D02*
X0036700Y0341000D01*
X0101200Y0095000D02*
X0109200Y0103000D01*
X0109200Y0095000D02*
X0101200Y0103000D01*
X0101200Y0099000D02*
X0109200Y0099000D01*
X0101200Y0216000D02*
X0109200Y0224000D01*
X0109200Y0216000D02*
X0101200Y0224000D01*
X0101200Y0220000D02*
X0109200Y0220000D01*
X0101200Y0337000D02*
X0109200Y0345000D01*
X0109200Y0337000D02*
X0101200Y0345000D01*
X0101200Y0341000D02*
X0109200Y0341000D01*
X0173700Y0095000D02*
X0181700Y0103000D01*
X0181700Y0095000D02*
X0173700Y0103000D01*
X0173700Y0099000D02*
X0181700Y0099000D01*
X0173700Y0216000D02*
X0181700Y0224000D01*
X0181700Y0216000D02*
X0173700Y0224000D01*
X0173700Y0220000D02*
X0181700Y0220000D01*
X0173700Y0337000D02*
X0181700Y0345000D01*
X0181700Y0337000D02*
X0173700Y0345000D01*
X0173700Y0341000D02*
X0181700Y0341000D01*
X0246200Y0095000D02*
X0254200Y0103000D01*
X0254200Y0095000D02*
X0246200Y0103000D01*
X0246200Y0099000D02*
X0254200Y0099000D01*
X0246200Y0216000D02*
X0254200Y0224000D01*
X0254200Y0216000D02*
X0246200Y0224000D01*
X0246200Y0220000D02*
X0254200Y0220000D01*
X0246200Y0337000D02*
X0254200Y0345000D01*
X0254200Y0337000D02*
X0246200Y0345000D01*
X0246200Y0341000D02*
X0254200Y0341000D01*
X0318700Y0095000D02*
X0326700Y0103000D01*
X0326700Y0095000D02*
X0318700Y0103000D01*
X0318700Y0099000D02*
X0326700Y0099000D01*
X0318700Y0216000D02*
X0326700Y0224000D01*
X0326700Y0216000D02*
X0318700Y0224000D01*
X0318700Y0220000D02*
X0326700Y0220000D01*
X0318700Y0337000D02*
X0326700Y0345000D01*
X0326700Y0337000D02*
X0318700Y0345000D01*
X0318700Y0341000D02*
X0326700Y0341000D01*
X0016000Y0014000D02*
X0012000Y0014000D01*
X0016000Y0014000D02*
X0020000Y0018000D01*
X0020000Y0010000D01*
X0016000Y0014000D01*
X0016000Y0023600D02*
X0012000Y0023600D01*
X0016000Y0023600D02*
X0020000Y0027600D01*
X0020000Y0019600D01*
X0016000Y0023600D01*
X0016000Y0033600D02*
X0012000Y0033600D01*
X0016000Y0033600D02*
X0020000Y0037600D01*
X0020000Y0029600D01*
X0016000Y0033600D01*
X0016000Y0043600D02*
X0012000Y0043600D01*
X0016000Y0043600D02*
X0020000Y0047600D01*
X0020000Y0039600D01*
X0016000Y0043600D01*
X0016000Y0053600D02*
X0012000Y0053600D01*
X0016000Y0053600D02*
X0020000Y0057600D01*
X0020000Y0049600D01*
X0016000Y0053600D01*
X0016000Y0063600D02*
X0012000Y0063600D01*
X0016000Y0063600D02*
X0020000Y0067600D01*
X0020000Y0059600D01*
X0016000Y0063600D01*
X0016000Y0073200D02*
X0012000Y0073200D01*
X0016000Y0073200D02*
X0020000Y0077200D01*
X0020000Y0069200D01*
X0016000Y0073200D01*
X0016000Y0084000D02*
X0012000Y0084000D01*
X0016000Y0084000D02*
X0020000Y0088000D01*
X0020000Y0080000D01*
X0016000Y0084000D01*
X0016000Y0088000D02*
X0012000Y0088000D01*
X0016000Y0088000D02*
X0020000Y0092000D01*
X0020000Y0084000D01*
X0016000Y0088000D01*
X0016000Y0094000D02*
X0012000Y0094000D01*
X0016000Y0094000D02*
X0020000Y0098000D01*
X0020000Y0090000D01*
X0016000Y0094000D01*
X0021000Y0094000D02*
X0017000Y0094000D01*
X0021000Y0094000D02*
X0025000Y0098000D01*
X0025000Y0090000D01*
X0021000Y0094000D01*
X0026000Y0094000D02*
X0022000Y0094000D01*
X0026000Y0094000D02*
X0030000Y0098000D01*
X0030000Y0090000D01*
X0026000Y0094000D01*
X0031000Y0094000D02*
X0027000Y0094000D01*
X0031000Y0094000D02*
X0035000Y0098000D01*
X0035000Y0090000D01*
X0031000Y0094000D01*
X0036000Y0094000D02*
X0032000Y0094000D01*
X0036000Y0094000D02*
X0040000Y0098000D01*
X0040000Y0090000D01*
X0036000Y0094000D01*
X0041000Y0094000D02*
X0037000Y0094000D01*
X0041000Y0094000D02*
X0045000Y0098000D01*
X0045000Y0090000D01*
X0041000Y0094000D01*
X0038000Y0088000D02*
X0034000Y0088000D01*
X0038000Y0088000D02*
X0042000Y0092000D01*
X0042000Y0084000D01*
X0038000Y0088000D01*
X0034500Y0084500D02*
X0030500Y0084500D01*
X0034500Y0084500D02*
X0038500Y0088500D01*
X0038500Y0080500D01*
X0034500Y0084500D01*
X0028000Y0088000D02*
X0024000Y0088000D01*
X0028000Y0088000D02*
X0032000Y0092000D01*
X0032000Y0084000D01*
X0028000Y0088000D01*
X0027700Y0080000D02*
X0023700Y0080000D01*
X0027700Y0080000D02*
X0031700Y0084000D01*
X0031700Y0076000D01*
X0027700Y0080000D01*
X0029700Y0070800D02*
X0025700Y0070800D01*
X0029700Y0070800D02*
X0033700Y0074800D01*
X0033700Y0066800D01*
X0029700Y0070800D01*
X0028000Y0066000D02*
X0024000Y0066000D01*
X0028000Y0066000D02*
X0032000Y0070000D01*
X0032000Y0062000D01*
X0028000Y0066000D01*
X0038000Y0065900D02*
X0034000Y0065900D01*
X0038000Y0065900D02*
X0042000Y0069900D01*
X0042000Y0061900D01*
X0038000Y0065900D01*
X0038000Y0062400D02*
X0034000Y0062400D01*
X0038000Y0062400D02*
X0042000Y0066400D01*
X0042000Y0058400D01*
X0038000Y0062400D01*
X0038000Y0059000D02*
X0034000Y0059000D01*
X0038000Y0059000D02*
X0042000Y0063000D01*
X0042000Y0055000D01*
X0038000Y0059000D01*
X0038000Y0055500D02*
X0034000Y0055500D01*
X0038000Y0055500D02*
X0042000Y0059500D01*
X0042000Y0051500D01*
X0038000Y0055500D01*
X0038000Y0052100D02*
X0034000Y0052100D01*
X0038000Y0052100D02*
X0042000Y0056100D01*
X0042000Y0048100D01*
X0038000Y0052100D01*
X0041400Y0052100D02*
X0037400Y0052100D01*
X0041400Y0052100D02*
X0045400Y0056100D01*
X0045400Y0048100D01*
X0041400Y0052100D01*
X0041400Y0055500D02*
X0037400Y0055500D01*
X0041400Y0055500D02*
X0045400Y0059500D01*
X0045400Y0051500D01*
X0041400Y0055500D01*
X0041400Y0059000D02*
X0037400Y0059000D01*
X0041400Y0059000D02*
X0045400Y0063000D01*
X0045400Y0055000D01*
X0041400Y0059000D01*
X0041400Y0062400D02*
X0037400Y0062400D01*
X0041400Y0062400D02*
X0045400Y0066400D01*
X0045400Y0058400D01*
X0041400Y0062400D01*
X0041400Y0065900D02*
X0037400Y0065900D01*
X0041400Y0065900D02*
X0045400Y0069900D01*
X0045400Y0061900D01*
X0041400Y0065900D01*
X0044800Y0065900D02*
X0040800Y0065900D01*
X0044800Y0065900D02*
X0048800Y0069900D01*
X0048800Y0061900D01*
X0044800Y0065900D01*
X0044800Y0062400D02*
X0040800Y0062400D01*
X0044800Y0062400D02*
X0048800Y0066400D01*
X0048800Y0058400D01*
X0044800Y0062400D01*
X0044800Y0059000D02*
X0040800Y0059000D01*
X0044800Y0059000D02*
X0048800Y0063000D01*
X0048800Y0055000D01*
X0044800Y0059000D01*
X0044800Y0055500D02*
X0040800Y0055500D01*
X0044800Y0055500D02*
X0048800Y0059500D01*
X0048800Y0051500D01*
X0044800Y0055500D01*
X0044800Y0052100D02*
X0040800Y0052100D01*
X0044800Y0052100D02*
X0048800Y0056100D01*
X0048800Y0048100D01*
X0044800Y0052100D01*
X0048200Y0052100D02*
X0044200Y0052100D01*
X0048200Y0052100D02*
X0052200Y0056100D01*
X0052200Y0048100D01*
X0048200Y0052100D01*
X0051600Y0052100D02*
X0047600Y0052100D01*
X0051600Y0052100D02*
X0055600Y0056100D01*
X0055600Y0048100D01*
X0051600Y0052100D01*
X0051600Y0055500D02*
X0047600Y0055500D01*
X0051600Y0055500D02*
X0055600Y0059500D01*
X0055600Y0051500D01*
X0051600Y0055500D01*
X0048200Y0055500D02*
X0044200Y0055500D01*
X0048200Y0055500D02*
X0052200Y0059500D01*
X0052200Y0051500D01*
X0048200Y0055500D01*
X0048200Y0059000D02*
X0044200Y0059000D01*
X0048200Y0059000D02*
X0052200Y0063000D01*
X0052200Y0055000D01*
X0048200Y0059000D01*
X0051600Y0059000D02*
X0047600Y0059000D01*
X0051600Y0059000D02*
X0055600Y0063000D01*
X0055600Y0055000D01*
X0051600Y0059000D01*
X0051600Y0062400D02*
X0047600Y0062400D01*
X0051600Y0062400D02*
X0055600Y0066400D01*
X0055600Y0058400D01*
X0051600Y0062400D01*
X0048200Y0062400D02*
X0044200Y0062400D01*
X0048200Y0062400D02*
X0052200Y0066400D01*
X0052200Y0058400D01*
X0048200Y0062400D01*
X0048200Y0065900D02*
X0044200Y0065900D01*
X0048200Y0065900D02*
X0052200Y0069900D01*
X0052200Y0061900D01*
X0048200Y0065900D01*
X0051600Y0065900D02*
X0047600Y0065900D01*
X0051600Y0065900D02*
X0055600Y0069900D01*
X0055600Y0061900D01*
X0051600Y0065900D01*
X0063100Y0048300D02*
X0059100Y0048300D01*
X0063100Y0048300D02*
X0067100Y0052300D01*
X0067100Y0044300D01*
X0063100Y0048300D01*
X0067500Y0048500D02*
X0063500Y0048500D01*
X0067500Y0048500D02*
X0071500Y0052500D01*
X0071500Y0044500D01*
X0067500Y0048500D01*
X0068000Y0042500D02*
X0064000Y0042500D01*
X0068000Y0042500D02*
X0072000Y0046500D01*
X0072000Y0038500D01*
X0068000Y0042500D01*
X0068000Y0034000D02*
X0064000Y0034000D01*
X0068000Y0034000D02*
X0072000Y0038000D01*
X0072000Y0030000D01*
X0068000Y0034000D01*
X0068000Y0024000D02*
X0064000Y0024000D01*
X0068000Y0024000D02*
X0072000Y0028000D01*
X0072000Y0020000D01*
X0068000Y0024000D01*
X0067900Y0014000D02*
X0063900Y0014000D01*
X0067900Y0014000D02*
X0071900Y0018000D01*
X0071900Y0010000D01*
X0067900Y0014000D01*
X0080000Y0014000D02*
X0076000Y0014000D01*
X0080000Y0014000D02*
X0084000Y0018000D01*
X0084000Y0010000D01*
X0080000Y0014000D01*
X0080000Y0024000D02*
X0076000Y0024000D01*
X0080000Y0024000D02*
X0084000Y0028000D01*
X0084000Y0020000D01*
X0080000Y0024000D01*
X0080000Y0034000D02*
X0076000Y0034000D01*
X0080000Y0034000D02*
X0084000Y0038000D01*
X0084000Y0030000D01*
X0080000Y0034000D01*
X0080000Y0044000D02*
X0076000Y0044000D01*
X0080000Y0044000D02*
X0084000Y0048000D01*
X0084000Y0040000D01*
X0080000Y0044000D01*
X0080000Y0054000D02*
X0076000Y0054000D01*
X0080000Y0054000D02*
X0084000Y0058000D01*
X0084000Y0050000D01*
X0080000Y0054000D01*
X0080000Y0064000D02*
X0076000Y0064000D01*
X0080000Y0064000D02*
X0084000Y0068000D01*
X0084000Y0060000D01*
X0080000Y0064000D01*
X0080000Y0074000D02*
X0076000Y0074000D01*
X0080000Y0074000D02*
X0084000Y0078000D01*
X0084000Y0070000D01*
X0080000Y0074000D01*
X0080000Y0082000D02*
X0076000Y0082000D01*
X0080000Y0082000D02*
X0084000Y0086000D01*
X0084000Y0078000D01*
X0080000Y0082000D01*
X0080000Y0088000D02*
X0076000Y0088000D01*
X0080000Y0088000D02*
X0084000Y0092000D01*
X0084000Y0084000D01*
X0080000Y0088000D01*
X0079000Y0094000D02*
X0075000Y0094000D01*
X0079000Y0094000D02*
X0083000Y0098000D01*
X0083000Y0090000D01*
X0079000Y0094000D01*
X0074500Y0094000D02*
X0070500Y0094000D01*
X0074500Y0094000D02*
X0078500Y0098000D01*
X0078500Y0090000D01*
X0074500Y0094000D01*
X0070000Y0094000D02*
X0066000Y0094000D01*
X0070000Y0094000D02*
X0074000Y0098000D01*
X0074000Y0090000D01*
X0070000Y0094000D01*
X0066000Y0094000D02*
X0062000Y0094000D01*
X0066000Y0094000D02*
X0070000Y0098000D01*
X0070000Y0090000D01*
X0066000Y0094000D01*
X0051000Y0094000D02*
X0047000Y0094000D01*
X0051000Y0094000D02*
X0055000Y0098000D01*
X0055000Y0090000D01*
X0051000Y0094000D01*
X0046000Y0094000D02*
X0042000Y0094000D01*
X0046000Y0094000D02*
X0050000Y0098000D01*
X0050000Y0090000D01*
X0046000Y0094000D01*
X0068000Y0066000D02*
X0064000Y0066000D01*
X0068000Y0066000D02*
X0072000Y0070000D01*
X0072000Y0062000D01*
X0068000Y0066000D01*
X0051600Y0041100D02*
X0047600Y0041100D01*
X0051600Y0041100D02*
X0055600Y0045100D01*
X0055600Y0037100D01*
X0051600Y0041100D01*
X0057000Y0034000D02*
X0053000Y0034000D01*
X0057000Y0034000D02*
X0061000Y0038000D01*
X0061000Y0030000D01*
X0057000Y0034000D01*
X0051700Y0028000D02*
X0047700Y0028000D01*
X0051700Y0028000D02*
X0055700Y0032000D01*
X0055700Y0024000D01*
X0051700Y0028000D01*
X0049400Y0024000D02*
X0045400Y0024000D01*
X0049400Y0024000D02*
X0053400Y0028000D01*
X0053400Y0020000D01*
X0049400Y0024000D01*
X0043700Y0028000D02*
X0039700Y0028000D01*
X0043700Y0028000D02*
X0047700Y0032000D01*
X0047700Y0024000D01*
X0043700Y0028000D01*
X0037100Y0041100D02*
X0033100Y0041100D01*
X0037100Y0041100D02*
X0041100Y0045100D01*
X0041100Y0037100D01*
X0037100Y0041100D01*
X0030600Y0045600D02*
X0026600Y0045600D01*
X0030600Y0045600D02*
X0034600Y0049600D01*
X0034600Y0041600D01*
X0030600Y0045600D01*
X0028000Y0050000D02*
X0024000Y0050000D01*
X0028000Y0050000D02*
X0032000Y0054000D01*
X0032000Y0046000D01*
X0028000Y0050000D01*
X0029100Y0040200D02*
X0025100Y0040200D01*
X0029100Y0040200D02*
X0033100Y0044200D01*
X0033100Y0036200D01*
X0029100Y0040200D01*
X0031000Y0024800D02*
X0027000Y0024800D01*
X0031000Y0024800D02*
X0035000Y0028800D01*
X0035000Y0020800D01*
X0031000Y0024800D01*
X0028000Y0014000D02*
X0024000Y0014000D01*
X0028000Y0014000D02*
X0032000Y0018000D01*
X0032000Y0010000D01*
X0028000Y0014000D01*
X0036000Y0014000D02*
X0032000Y0014000D01*
X0036000Y0014000D02*
X0040000Y0018000D01*
X0040000Y0010000D01*
X0036000Y0014000D01*
X0049400Y0014000D02*
X0045400Y0014000D01*
X0049400Y0014000D02*
X0053400Y0018000D01*
X0053400Y0010000D01*
X0049400Y0014000D01*
X0016000Y0135000D02*
X0012000Y0135000D01*
X0016000Y0135000D02*
X0020000Y0139000D01*
X0020000Y0131000D01*
X0016000Y0135000D01*
X0016000Y0144600D02*
X0012000Y0144600D01*
X0016000Y0144600D02*
X0020000Y0148600D01*
X0020000Y0140600D01*
X0016000Y0144600D01*
X0016000Y0154600D02*
X0012000Y0154600D01*
X0016000Y0154600D02*
X0020000Y0158600D01*
X0020000Y0150600D01*
X0016000Y0154600D01*
X0016000Y0164600D02*
X0012000Y0164600D01*
X0016000Y0164600D02*
X0020000Y0168600D01*
X0020000Y0160600D01*
X0016000Y0164600D01*
X0016000Y0174600D02*
X0012000Y0174600D01*
X0016000Y0174600D02*
X0020000Y0178600D01*
X0020000Y0170600D01*
X0016000Y0174600D01*
X0016000Y0184600D02*
X0012000Y0184600D01*
X0016000Y0184600D02*
X0020000Y0188600D01*
X0020000Y0180600D01*
X0016000Y0184600D01*
X0016000Y0194200D02*
X0012000Y0194200D01*
X0016000Y0194200D02*
X0020000Y0198200D01*
X0020000Y0190200D01*
X0016000Y0194200D01*
X0016000Y0205000D02*
X0012000Y0205000D01*
X0016000Y0205000D02*
X0020000Y0209000D01*
X0020000Y0201000D01*
X0016000Y0205000D01*
X0016000Y0209000D02*
X0012000Y0209000D01*
X0016000Y0209000D02*
X0020000Y0213000D01*
X0020000Y0205000D01*
X0016000Y0209000D01*
X0016000Y0215000D02*
X0012000Y0215000D01*
X0016000Y0215000D02*
X0020000Y0219000D01*
X0020000Y0211000D01*
X0016000Y0215000D01*
X0021000Y0215000D02*
X0017000Y0215000D01*
X0021000Y0215000D02*
X0025000Y0219000D01*
X0025000Y0211000D01*
X0021000Y0215000D01*
X0026000Y0215000D02*
X0022000Y0215000D01*
X0026000Y0215000D02*
X0030000Y0219000D01*
X0030000Y0211000D01*
X0026000Y0215000D01*
X0031000Y0215000D02*
X0027000Y0215000D01*
X0031000Y0215000D02*
X0035000Y0219000D01*
X0035000Y0211000D01*
X0031000Y0215000D01*
X0036000Y0215000D02*
X0032000Y0215000D01*
X0036000Y0215000D02*
X0040000Y0219000D01*
X0040000Y0211000D01*
X0036000Y0215000D01*
X0041000Y0215000D02*
X0037000Y0215000D01*
X0041000Y0215000D02*
X0045000Y0219000D01*
X0045000Y0211000D01*
X0041000Y0215000D01*
X0038000Y0209000D02*
X0034000Y0209000D01*
X0038000Y0209000D02*
X0042000Y0213000D01*
X0042000Y0205000D01*
X0038000Y0209000D01*
X0034500Y0205500D02*
X0030500Y0205500D01*
X0034500Y0205500D02*
X0038500Y0209500D01*
X0038500Y0201500D01*
X0034500Y0205500D01*
X0028000Y0209000D02*
X0024000Y0209000D01*
X0028000Y0209000D02*
X0032000Y0213000D01*
X0032000Y0205000D01*
X0028000Y0209000D01*
X0027700Y0201000D02*
X0023700Y0201000D01*
X0027700Y0201000D02*
X0031700Y0205000D01*
X0031700Y0197000D01*
X0027700Y0201000D01*
X0029700Y0191800D02*
X0025700Y0191800D01*
X0029700Y0191800D02*
X0033700Y0195800D01*
X0033700Y0187800D01*
X0029700Y0191800D01*
X0028000Y0187000D02*
X0024000Y0187000D01*
X0028000Y0187000D02*
X0032000Y0191000D01*
X0032000Y0183000D01*
X0028000Y0187000D01*
X0038000Y0186900D02*
X0034000Y0186900D01*
X0038000Y0186900D02*
X0042000Y0190900D01*
X0042000Y0182900D01*
X0038000Y0186900D01*
X0038000Y0183400D02*
X0034000Y0183400D01*
X0038000Y0183400D02*
X0042000Y0187400D01*
X0042000Y0179400D01*
X0038000Y0183400D01*
X0038000Y0180000D02*
X0034000Y0180000D01*
X0038000Y0180000D02*
X0042000Y0184000D01*
X0042000Y0176000D01*
X0038000Y0180000D01*
X0038000Y0176500D02*
X0034000Y0176500D01*
X0038000Y0176500D02*
X0042000Y0180500D01*
X0042000Y0172500D01*
X0038000Y0176500D01*
X0038000Y0173100D02*
X0034000Y0173100D01*
X0038000Y0173100D02*
X0042000Y0177100D01*
X0042000Y0169100D01*
X0038000Y0173100D01*
X0041400Y0173100D02*
X0037400Y0173100D01*
X0041400Y0173100D02*
X0045400Y0177100D01*
X0045400Y0169100D01*
X0041400Y0173100D01*
X0041400Y0176500D02*
X0037400Y0176500D01*
X0041400Y0176500D02*
X0045400Y0180500D01*
X0045400Y0172500D01*
X0041400Y0176500D01*
X0041400Y0180000D02*
X0037400Y0180000D01*
X0041400Y0180000D02*
X0045400Y0184000D01*
X0045400Y0176000D01*
X0041400Y0180000D01*
X0041400Y0183400D02*
X0037400Y0183400D01*
X0041400Y0183400D02*
X0045400Y0187400D01*
X0045400Y0179400D01*
X0041400Y0183400D01*
X0041400Y0186900D02*
X0037400Y0186900D01*
X0041400Y0186900D02*
X0045400Y0190900D01*
X0045400Y0182900D01*
X0041400Y0186900D01*
X0044800Y0186900D02*
X0040800Y0186900D01*
X0044800Y0186900D02*
X0048800Y0190900D01*
X0048800Y0182900D01*
X0044800Y0186900D01*
X0044800Y0183400D02*
X0040800Y0183400D01*
X0044800Y0183400D02*
X0048800Y0187400D01*
X0048800Y0179400D01*
X0044800Y0183400D01*
X0044800Y0180000D02*
X0040800Y0180000D01*
X0044800Y0180000D02*
X0048800Y0184000D01*
X0048800Y0176000D01*
X0044800Y0180000D01*
X0044800Y0176500D02*
X0040800Y0176500D01*
X0044800Y0176500D02*
X0048800Y0180500D01*
X0048800Y0172500D01*
X0044800Y0176500D01*
X0044800Y0173100D02*
X0040800Y0173100D01*
X0044800Y0173100D02*
X0048800Y0177100D01*
X0048800Y0169100D01*
X0044800Y0173100D01*
X0048200Y0173100D02*
X0044200Y0173100D01*
X0048200Y0173100D02*
X0052200Y0177100D01*
X0052200Y0169100D01*
X0048200Y0173100D01*
X0051600Y0173100D02*
X0047600Y0173100D01*
X0051600Y0173100D02*
X0055600Y0177100D01*
X0055600Y0169100D01*
X0051600Y0173100D01*
X0051600Y0176500D02*
X0047600Y0176500D01*
X0051600Y0176500D02*
X0055600Y0180500D01*
X0055600Y0172500D01*
X0051600Y0176500D01*
X0048200Y0176500D02*
X0044200Y0176500D01*
X0048200Y0176500D02*
X0052200Y0180500D01*
X0052200Y0172500D01*
X0048200Y0176500D01*
X0048200Y0180000D02*
X0044200Y0180000D01*
X0048200Y0180000D02*
X0052200Y0184000D01*
X0052200Y0176000D01*
X0048200Y0180000D01*
X0051600Y0180000D02*
X0047600Y0180000D01*
X0051600Y0180000D02*
X0055600Y0184000D01*
X0055600Y0176000D01*
X0051600Y0180000D01*
X0051600Y0183400D02*
X0047600Y0183400D01*
X0051600Y0183400D02*
X0055600Y0187400D01*
X0055600Y0179400D01*
X0051600Y0183400D01*
X0048200Y0183400D02*
X0044200Y0183400D01*
X0048200Y0183400D02*
X0052200Y0187400D01*
X0052200Y0179400D01*
X0048200Y0183400D01*
X0048200Y0186900D02*
X0044200Y0186900D01*
X0048200Y0186900D02*
X0052200Y0190900D01*
X0052200Y0182900D01*
X0048200Y0186900D01*
X0051600Y0186900D02*
X0047600Y0186900D01*
X0051600Y0186900D02*
X0055600Y0190900D01*
X0055600Y0182900D01*
X0051600Y0186900D01*
X0063100Y0169300D02*
X0059100Y0169300D01*
X0063100Y0169300D02*
X0067100Y0173300D01*
X0067100Y0165300D01*
X0063100Y0169300D01*
X0067500Y0169500D02*
X0063500Y0169500D01*
X0067500Y0169500D02*
X0071500Y0173500D01*
X0071500Y0165500D01*
X0067500Y0169500D01*
X0068000Y0163500D02*
X0064000Y0163500D01*
X0068000Y0163500D02*
X0072000Y0167500D01*
X0072000Y0159500D01*
X0068000Y0163500D01*
X0068000Y0155000D02*
X0064000Y0155000D01*
X0068000Y0155000D02*
X0072000Y0159000D01*
X0072000Y0151000D01*
X0068000Y0155000D01*
X0068000Y0145000D02*
X0064000Y0145000D01*
X0068000Y0145000D02*
X0072000Y0149000D01*
X0072000Y0141000D01*
X0068000Y0145000D01*
X0067900Y0135000D02*
X0063900Y0135000D01*
X0067900Y0135000D02*
X0071900Y0139000D01*
X0071900Y0131000D01*
X0067900Y0135000D01*
X0080000Y0135000D02*
X0076000Y0135000D01*
X0080000Y0135000D02*
X0084000Y0139000D01*
X0084000Y0131000D01*
X0080000Y0135000D01*
X0080000Y0145000D02*
X0076000Y0145000D01*
X0080000Y0145000D02*
X0084000Y0149000D01*
X0084000Y0141000D01*
X0080000Y0145000D01*
X0080000Y0155000D02*
X0076000Y0155000D01*
X0080000Y0155000D02*
X0084000Y0159000D01*
X0084000Y0151000D01*
X0080000Y0155000D01*
X0080000Y0165000D02*
X0076000Y0165000D01*
X0080000Y0165000D02*
X0084000Y0169000D01*
X0084000Y0161000D01*
X0080000Y0165000D01*
X0080000Y0175000D02*
X0076000Y0175000D01*
X0080000Y0175000D02*
X0084000Y0179000D01*
X0084000Y0171000D01*
X0080000Y0175000D01*
X0080000Y0185000D02*
X0076000Y0185000D01*
X0080000Y0185000D02*
X0084000Y0189000D01*
X0084000Y0181000D01*
X0080000Y0185000D01*
X0080000Y0195000D02*
X0076000Y0195000D01*
X0080000Y0195000D02*
X0084000Y0199000D01*
X0084000Y0191000D01*
X0080000Y0195000D01*
X0080000Y0203000D02*
X0076000Y0203000D01*
X0080000Y0203000D02*
X0084000Y0207000D01*
X0084000Y0199000D01*
X0080000Y0203000D01*
X0080000Y0209000D02*
X0076000Y0209000D01*
X0080000Y0209000D02*
X0084000Y0213000D01*
X0084000Y0205000D01*
X0080000Y0209000D01*
X0079000Y0215000D02*
X0075000Y0215000D01*
X0079000Y0215000D02*
X0083000Y0219000D01*
X0083000Y0211000D01*
X0079000Y0215000D01*
X0074500Y0215000D02*
X0070500Y0215000D01*
X0074500Y0215000D02*
X0078500Y0219000D01*
X0078500Y0211000D01*
X0074500Y0215000D01*
X0070000Y0215000D02*
X0066000Y0215000D01*
X0070000Y0215000D02*
X0074000Y0219000D01*
X0074000Y0211000D01*
X0070000Y0215000D01*
X0066000Y0215000D02*
X0062000Y0215000D01*
X0066000Y0215000D02*
X0070000Y0219000D01*
X0070000Y0211000D01*
X0066000Y0215000D01*
X0051000Y0215000D02*
X0047000Y0215000D01*
X0051000Y0215000D02*
X0055000Y0219000D01*
X0055000Y0211000D01*
X0051000Y0215000D01*
X0046000Y0215000D02*
X0042000Y0215000D01*
X0046000Y0215000D02*
X0050000Y0219000D01*
X0050000Y0211000D01*
X0046000Y0215000D01*
X0068000Y0187000D02*
X0064000Y0187000D01*
X0068000Y0187000D02*
X0072000Y0191000D01*
X0072000Y0183000D01*
X0068000Y0187000D01*
X0051600Y0162100D02*
X0047600Y0162100D01*
X0051600Y0162100D02*
X0055600Y0166100D01*
X0055600Y0158100D01*
X0051600Y0162100D01*
X0057000Y0155000D02*
X0053000Y0155000D01*
X0057000Y0155000D02*
X0061000Y0159000D01*
X0061000Y0151000D01*
X0057000Y0155000D01*
X0051700Y0149000D02*
X0047700Y0149000D01*
X0051700Y0149000D02*
X0055700Y0153000D01*
X0055700Y0145000D01*
X0051700Y0149000D01*
X0049400Y0145000D02*
X0045400Y0145000D01*
X0049400Y0145000D02*
X0053400Y0149000D01*
X0053400Y0141000D01*
X0049400Y0145000D01*
X0043700Y0149000D02*
X0039700Y0149000D01*
X0043700Y0149000D02*
X0047700Y0153000D01*
X0047700Y0145000D01*
X0043700Y0149000D01*
X0037100Y0162100D02*
X0033100Y0162100D01*
X0037100Y0162100D02*
X0041100Y0166100D01*
X0041100Y0158100D01*
X0037100Y0162100D01*
X0030600Y0166600D02*
X0026600Y0166600D01*
X0030600Y0166600D02*
X0034600Y0170600D01*
X0034600Y0162600D01*
X0030600Y0166600D01*
X0028000Y0171000D02*
X0024000Y0171000D01*
X0028000Y0171000D02*
X0032000Y0175000D01*
X0032000Y0167000D01*
X0028000Y0171000D01*
X0029100Y0161200D02*
X0025100Y0161200D01*
X0029100Y0161200D02*
X0033100Y0165200D01*
X0033100Y0157200D01*
X0029100Y0161200D01*
X0031000Y0145800D02*
X0027000Y0145800D01*
X0031000Y0145800D02*
X0035000Y0149800D01*
X0035000Y0141800D01*
X0031000Y0145800D01*
X0028000Y0135000D02*
X0024000Y0135000D01*
X0028000Y0135000D02*
X0032000Y0139000D01*
X0032000Y0131000D01*
X0028000Y0135000D01*
X0036000Y0135000D02*
X0032000Y0135000D01*
X0036000Y0135000D02*
X0040000Y0139000D01*
X0040000Y0131000D01*
X0036000Y0135000D01*
X0049400Y0135000D02*
X0045400Y0135000D01*
X0049400Y0135000D02*
X0053400Y0139000D01*
X0053400Y0131000D01*
X0049400Y0135000D01*
X0016000Y0256000D02*
X0012000Y0256000D01*
X0016000Y0256000D02*
X0020000Y0260000D01*
X0020000Y0252000D01*
X0016000Y0256000D01*
X0016000Y0265600D02*
X0012000Y0265600D01*
X0016000Y0265600D02*
X0020000Y0269600D01*
X0020000Y0261600D01*
X0016000Y0265600D01*
X0016000Y0275600D02*
X0012000Y0275600D01*
X0016000Y0275600D02*
X0020000Y0279600D01*
X0020000Y0271600D01*
X0016000Y0275600D01*
X0016000Y0285600D02*
X0012000Y0285600D01*
X0016000Y0285600D02*
X0020000Y0289600D01*
X0020000Y0281600D01*
X0016000Y0285600D01*
X0016000Y0295600D02*
X0012000Y0295600D01*
X0016000Y0295600D02*
X0020000Y0299600D01*
X0020000Y0291600D01*
X0016000Y0295600D01*
X0016000Y0305600D02*
X0012000Y0305600D01*
X0016000Y0305600D02*
X0020000Y0309600D01*
X0020000Y0301600D01*
X0016000Y0305600D01*
X0016000Y0315200D02*
X0012000Y0315200D01*
X0016000Y0315200D02*
X0020000Y0319200D01*
X0020000Y0311200D01*
X0016000Y0315200D01*
X0016000Y0326000D02*
X0012000Y0326000D01*
X0016000Y0326000D02*
X0020000Y0330000D01*
X0020000Y0322000D01*
X0016000Y0326000D01*
X0016000Y0330000D02*
X0012000Y0330000D01*
X0016000Y0330000D02*
X0020000Y0334000D01*
X0020000Y0326000D01*
X0016000Y0330000D01*
X0016000Y0336000D02*
X0012000Y0336000D01*
X0016000Y0336000D02*
X0020000Y0340000D01*
X0020000Y0332000D01*
X0016000Y0336000D01*
X0021000Y0336000D02*
X0017000Y0336000D01*
X0021000Y0336000D02*
X0025000Y0340000D01*
X0025000Y0332000D01*
X0021000Y0336000D01*
X0026000Y0336000D02*
X0022000Y0336000D01*
X0026000Y0336000D02*
X0030000Y0340000D01*
X0030000Y0332000D01*
X0026000Y0336000D01*
X0031000Y0336000D02*
X0027000Y0336000D01*
X0031000Y0336000D02*
X0035000Y0340000D01*
X0035000Y0332000D01*
X0031000Y0336000D01*
X0036000Y0336000D02*
X0032000Y0336000D01*
X0036000Y0336000D02*
X0040000Y0340000D01*
X0040000Y0332000D01*
X0036000Y0336000D01*
X0041000Y0336000D02*
X0037000Y0336000D01*
X0041000Y0336000D02*
X0045000Y0340000D01*
X0045000Y0332000D01*
X0041000Y0336000D01*
X0038000Y0330000D02*
X0034000Y0330000D01*
X0038000Y0330000D02*
X0042000Y0334000D01*
X0042000Y0326000D01*
X0038000Y0330000D01*
X0034500Y0326500D02*
X0030500Y0326500D01*
X0034500Y0326500D02*
X0038500Y0330500D01*
X0038500Y0322500D01*
X0034500Y0326500D01*
X0028000Y0330000D02*
X0024000Y0330000D01*
X0028000Y0330000D02*
X0032000Y0334000D01*
X0032000Y0326000D01*
X0028000Y0330000D01*
X0027700Y0322000D02*
X0023700Y0322000D01*
X0027700Y0322000D02*
X0031700Y0326000D01*
X0031700Y0318000D01*
X0027700Y0322000D01*
X0029700Y0312800D02*
X0025700Y0312800D01*
X0029700Y0312800D02*
X0033700Y0316800D01*
X0033700Y0308800D01*
X0029700Y0312800D01*
X0028000Y0308000D02*
X0024000Y0308000D01*
X0028000Y0308000D02*
X0032000Y0312000D01*
X0032000Y0304000D01*
X0028000Y0308000D01*
X0038000Y0307900D02*
X0034000Y0307900D01*
X0038000Y0307900D02*
X0042000Y0311900D01*
X0042000Y0303900D01*
X0038000Y0307900D01*
X0038000Y0304400D02*
X0034000Y0304400D01*
X0038000Y0304400D02*
X0042000Y0308400D01*
X0042000Y0300400D01*
X0038000Y0304400D01*
X0038000Y0301000D02*
X0034000Y0301000D01*
X0038000Y0301000D02*
X0042000Y0305000D01*
X0042000Y0297000D01*
X0038000Y0301000D01*
X0038000Y0297500D02*
X0034000Y0297500D01*
X0038000Y0297500D02*
X0042000Y0301500D01*
X0042000Y0293500D01*
X0038000Y0297500D01*
X0038000Y0294100D02*
X0034000Y0294100D01*
X0038000Y0294100D02*
X0042000Y0298100D01*
X0042000Y0290100D01*
X0038000Y0294100D01*
X0041400Y0294100D02*
X0037400Y0294100D01*
X0041400Y0294100D02*
X0045400Y0298100D01*
X0045400Y0290100D01*
X0041400Y0294100D01*
X0041400Y0297500D02*
X0037400Y0297500D01*
X0041400Y0297500D02*
X0045400Y0301500D01*
X0045400Y0293500D01*
X0041400Y0297500D01*
X0041400Y0301000D02*
X0037400Y0301000D01*
X0041400Y0301000D02*
X0045400Y0305000D01*
X0045400Y0297000D01*
X0041400Y0301000D01*
X0041400Y0304400D02*
X0037400Y0304400D01*
X0041400Y0304400D02*
X0045400Y0308400D01*
X0045400Y0300400D01*
X0041400Y0304400D01*
X0041400Y0307900D02*
X0037400Y0307900D01*
X0041400Y0307900D02*
X0045400Y0311900D01*
X0045400Y0303900D01*
X0041400Y0307900D01*
X0044800Y0307900D02*
X0040800Y0307900D01*
X0044800Y0307900D02*
X0048800Y0311900D01*
X0048800Y0303900D01*
X0044800Y0307900D01*
X0044800Y0304400D02*
X0040800Y0304400D01*
X0044800Y0304400D02*
X0048800Y0308400D01*
X0048800Y0300400D01*
X0044800Y0304400D01*
X0044800Y0301000D02*
X0040800Y0301000D01*
X0044800Y0301000D02*
X0048800Y0305000D01*
X0048800Y0297000D01*
X0044800Y0301000D01*
X0044800Y0297500D02*
X0040800Y0297500D01*
X0044800Y0297500D02*
X0048800Y0301500D01*
X0048800Y0293500D01*
X0044800Y0297500D01*
X0044800Y0294100D02*
X0040800Y0294100D01*
X0044800Y0294100D02*
X0048800Y0298100D01*
X0048800Y0290100D01*
X0044800Y0294100D01*
X0048200Y0294100D02*
X0044200Y0294100D01*
X0048200Y0294100D02*
X0052200Y0298100D01*
X0052200Y0290100D01*
X0048200Y0294100D01*
X0051600Y0294100D02*
X0047600Y0294100D01*
X0051600Y0294100D02*
X0055600Y0298100D01*
X0055600Y0290100D01*
X0051600Y0294100D01*
X0051600Y0297500D02*
X0047600Y0297500D01*
X0051600Y0297500D02*
X0055600Y0301500D01*
X0055600Y0293500D01*
X0051600Y0297500D01*
X0048200Y0297500D02*
X0044200Y0297500D01*
X0048200Y0297500D02*
X0052200Y0301500D01*
X0052200Y0293500D01*
X0048200Y0297500D01*
X0048200Y0301000D02*
X0044200Y0301000D01*
X0048200Y0301000D02*
X0052200Y0305000D01*
X0052200Y0297000D01*
X0048200Y0301000D01*
X0051600Y0301000D02*
X0047600Y0301000D01*
X0051600Y0301000D02*
X0055600Y0305000D01*
X0055600Y0297000D01*
X0051600Y0301000D01*
X0051600Y0304400D02*
X0047600Y0304400D01*
X0051600Y0304400D02*
X0055600Y0308400D01*
X0055600Y0300400D01*
X0051600Y0304400D01*
X0048200Y0304400D02*
X0044200Y0304400D01*
X0048200Y0304400D02*
X0052200Y0308400D01*
X0052200Y0300400D01*
X0048200Y0304400D01*
X0048200Y0307900D02*
X0044200Y0307900D01*
X0048200Y0307900D02*
X0052200Y0311900D01*
X0052200Y0303900D01*
X0048200Y0307900D01*
X0051600Y0307900D02*
X0047600Y0307900D01*
X0051600Y0307900D02*
X0055600Y0311900D01*
X0055600Y0303900D01*
X0051600Y0307900D01*
X0063100Y0290300D02*
X0059100Y0290300D01*
X0063100Y0290300D02*
X0067100Y0294300D01*
X0067100Y0286300D01*
X0063100Y0290300D01*
X0067500Y0290500D02*
X0063500Y0290500D01*
X0067500Y0290500D02*
X0071500Y0294500D01*
X0071500Y0286500D01*
X0067500Y0290500D01*
X0068000Y0284500D02*
X0064000Y0284500D01*
X0068000Y0284500D02*
X0072000Y0288500D01*
X0072000Y0280500D01*
X0068000Y0284500D01*
X0068000Y0276000D02*
X0064000Y0276000D01*
X0068000Y0276000D02*
X0072000Y0280000D01*
X0072000Y0272000D01*
X0068000Y0276000D01*
X0068000Y0266000D02*
X0064000Y0266000D01*
X0068000Y0266000D02*
X0072000Y0270000D01*
X0072000Y0262000D01*
X0068000Y0266000D01*
X0067900Y0256000D02*
X0063900Y0256000D01*
X0067900Y0256000D02*
X0071900Y0260000D01*
X0071900Y0252000D01*
X0067900Y0256000D01*
X0080000Y0256000D02*
X0076000Y0256000D01*
X0080000Y0256000D02*
X0084000Y0260000D01*
X0084000Y0252000D01*
X0080000Y0256000D01*
X0080000Y0266000D02*
X0076000Y0266000D01*
X0080000Y0266000D02*
X0084000Y0270000D01*
X0084000Y0262000D01*
X0080000Y0266000D01*
X0080000Y0276000D02*
X0076000Y0276000D01*
X0080000Y0276000D02*
X0084000Y0280000D01*
X0084000Y0272000D01*
X0080000Y0276000D01*
X0080000Y0286000D02*
X0076000Y0286000D01*
X0080000Y0286000D02*
X0084000Y0290000D01*
X0084000Y0282000D01*
X0080000Y0286000D01*
X0080000Y0296000D02*
X0076000Y0296000D01*
X0080000Y0296000D02*
X0084000Y0300000D01*
X0084000Y0292000D01*
X0080000Y0296000D01*
X0080000Y0306000D02*
X0076000Y0306000D01*
X0080000Y0306000D02*
X0084000Y0310000D01*
X0084000Y0302000D01*
X0080000Y0306000D01*
X0080000Y0316000D02*
X0076000Y0316000D01*
X0080000Y0316000D02*
X0084000Y0320000D01*
X0084000Y0312000D01*
X0080000Y0316000D01*
X0080000Y0324000D02*
X0076000Y0324000D01*
X0080000Y0324000D02*
X0084000Y0328000D01*
X0084000Y0320000D01*
X0080000Y0324000D01*
X0080000Y0330000D02*
X0076000Y0330000D01*
X0080000Y0330000D02*
X0084000Y0334000D01*
X0084000Y0326000D01*
X0080000Y0330000D01*
X0079000Y0336000D02*
X0075000Y0336000D01*
X0079000Y0336000D02*
X0083000Y0340000D01*
X0083000Y0332000D01*
X0079000Y0336000D01*
X0074500Y0336000D02*
X0070500Y0336000D01*
X0074500Y0336000D02*
X0078500Y0340000D01*
X0078500Y0332000D01*
X0074500Y0336000D01*
X0070000Y0336000D02*
X0066000Y0336000D01*
X0070000Y0336000D02*
X0074000Y0340000D01*
X0074000Y0332000D01*
X0070000Y0336000D01*
X0066000Y0336000D02*
X0062000Y0336000D01*
X0066000Y0336000D02*
X0070000Y0340000D01*
X0070000Y0332000D01*
X0066000Y0336000D01*
X0051000Y0336000D02*
X0047000Y0336000D01*
X0051000Y0336000D02*
X0055000Y0340000D01*
X0055000Y0332000D01*
X0051000Y0336000D01*
X0046000Y0336000D02*
X0042000Y0336000D01*
X0046000Y0336000D02*
X0050000Y0340000D01*
X0050000Y0332000D01*
X0046000Y0336000D01*
X0068000Y0308000D02*
X0064000Y0308000D01*
X0068000Y0308000D02*
X0072000Y0312000D01*
X0072000Y0304000D01*
X0068000Y0308000D01*
X0051600Y0283100D02*
X0047600Y0283100D01*
X0051600Y0283100D02*
X0055600Y0287100D01*
X0055600Y0279100D01*
X0051600Y0283100D01*
X0057000Y0276000D02*
X0053000Y0276000D01*
X0057000Y0276000D02*
X0061000Y0280000D01*
X0061000Y0272000D01*
X0057000Y0276000D01*
X0051700Y0270000D02*
X0047700Y0270000D01*
X0051700Y0270000D02*
X0055700Y0274000D01*
X0055700Y0266000D01*
X0051700Y0270000D01*
X0049400Y0266000D02*
X0045400Y0266000D01*
X0049400Y0266000D02*
X0053400Y0270000D01*
X0053400Y0262000D01*
X0049400Y0266000D01*
X0043700Y0270000D02*
X0039700Y0270000D01*
X0043700Y0270000D02*
X0047700Y0274000D01*
X0047700Y0266000D01*
X0043700Y0270000D01*
X0037100Y0283100D02*
X0033100Y0283100D01*
X0037100Y0283100D02*
X0041100Y0287100D01*
X0041100Y0279100D01*
X0037100Y0283100D01*
X0030600Y0287600D02*
X0026600Y0287600D01*
X0030600Y0287600D02*
X0034600Y0291600D01*
X0034600Y0283600D01*
X0030600Y0287600D01*
X0028000Y0292000D02*
X0024000Y0292000D01*
X0028000Y0292000D02*
X0032000Y0296000D01*
X0032000Y0288000D01*
X0028000Y0292000D01*
X0029100Y0282200D02*
X0025100Y0282200D01*
X0029100Y0282200D02*
X0033100Y0286200D01*
X0033100Y0278200D01*
X0029100Y0282200D01*
X0031000Y0266800D02*
X0027000Y0266800D01*
X0031000Y0266800D02*
X0035000Y0270800D01*
X0035000Y0262800D01*
X0031000Y0266800D01*
X0028000Y0256000D02*
X0024000Y0256000D01*
X0028000Y0256000D02*
X0032000Y0260000D01*
X0032000Y0252000D01*
X0028000Y0256000D01*
X0036000Y0256000D02*
X0032000Y0256000D01*
X0036000Y0256000D02*
X0040000Y0260000D01*
X0040000Y0252000D01*
X0036000Y0256000D01*
X0049400Y0256000D02*
X0045400Y0256000D01*
X0049400Y0256000D02*
X0053400Y0260000D01*
X0053400Y0252000D01*
X0049400Y0256000D01*
X0088500Y0014000D02*
X0084500Y0014000D01*
X0088500Y0014000D02*
X0092500Y0018000D01*
X0092500Y0010000D01*
X0088500Y0014000D01*
X0088500Y0023600D02*
X0084500Y0023600D01*
X0088500Y0023600D02*
X0092500Y0027600D01*
X0092500Y0019600D01*
X0088500Y0023600D01*
X0088500Y0033600D02*
X0084500Y0033600D01*
X0088500Y0033600D02*
X0092500Y0037600D01*
X0092500Y0029600D01*
X0088500Y0033600D01*
X0088500Y0043600D02*
X0084500Y0043600D01*
X0088500Y0043600D02*
X0092500Y0047600D01*
X0092500Y0039600D01*
X0088500Y0043600D01*
X0088500Y0053600D02*
X0084500Y0053600D01*
X0088500Y0053600D02*
X0092500Y0057600D01*
X0092500Y0049600D01*
X0088500Y0053600D01*
X0088500Y0063600D02*
X0084500Y0063600D01*
X0088500Y0063600D02*
X0092500Y0067600D01*
X0092500Y0059600D01*
X0088500Y0063600D01*
X0088500Y0073200D02*
X0084500Y0073200D01*
X0088500Y0073200D02*
X0092500Y0077200D01*
X0092500Y0069200D01*
X0088500Y0073200D01*
X0088500Y0084000D02*
X0084500Y0084000D01*
X0088500Y0084000D02*
X0092500Y0088000D01*
X0092500Y0080000D01*
X0088500Y0084000D01*
X0088500Y0088000D02*
X0084500Y0088000D01*
X0088500Y0088000D02*
X0092500Y0092000D01*
X0092500Y0084000D01*
X0088500Y0088000D01*
X0088500Y0094000D02*
X0084500Y0094000D01*
X0088500Y0094000D02*
X0092500Y0098000D01*
X0092500Y0090000D01*
X0088500Y0094000D01*
X0093500Y0094000D02*
X0089500Y0094000D01*
X0093500Y0094000D02*
X0097500Y0098000D01*
X0097500Y0090000D01*
X0093500Y0094000D01*
X0098500Y0094000D02*
X0094500Y0094000D01*
X0098500Y0094000D02*
X0102500Y0098000D01*
X0102500Y0090000D01*
X0098500Y0094000D01*
X0103500Y0094000D02*
X0099500Y0094000D01*
X0103500Y0094000D02*
X0107500Y0098000D01*
X0107500Y0090000D01*
X0103500Y0094000D01*
X0108500Y0094000D02*
X0104500Y0094000D01*
X0108500Y0094000D02*
X0112500Y0098000D01*
X0112500Y0090000D01*
X0108500Y0094000D01*
X0113500Y0094000D02*
X0109500Y0094000D01*
X0113500Y0094000D02*
X0117500Y0098000D01*
X0117500Y0090000D01*
X0113500Y0094000D01*
X0110500Y0088000D02*
X0106500Y0088000D01*
X0110500Y0088000D02*
X0114500Y0092000D01*
X0114500Y0084000D01*
X0110500Y0088000D01*
X0107000Y0084500D02*
X0103000Y0084500D01*
X0107000Y0084500D02*
X0111000Y0088500D01*
X0111000Y0080500D01*
X0107000Y0084500D01*
X0100500Y0088000D02*
X0096500Y0088000D01*
X0100500Y0088000D02*
X0104500Y0092000D01*
X0104500Y0084000D01*
X0100500Y0088000D01*
X0100200Y0080000D02*
X0096200Y0080000D01*
X0100200Y0080000D02*
X0104200Y0084000D01*
X0104200Y0076000D01*
X0100200Y0080000D01*
X0102200Y0070800D02*
X0098200Y0070800D01*
X0102200Y0070800D02*
X0106200Y0074800D01*
X0106200Y0066800D01*
X0102200Y0070800D01*
X0100500Y0066000D02*
X0096500Y0066000D01*
X0100500Y0066000D02*
X0104500Y0070000D01*
X0104500Y0062000D01*
X0100500Y0066000D01*
X0110500Y0065900D02*
X0106500Y0065900D01*
X0110500Y0065900D02*
X0114500Y0069900D01*
X0114500Y0061900D01*
X0110500Y0065900D01*
X0110500Y0062400D02*
X0106500Y0062400D01*
X0110500Y0062400D02*
X0114500Y0066400D01*
X0114500Y0058400D01*
X0110500Y0062400D01*
X0110500Y0059000D02*
X0106500Y0059000D01*
X0110500Y0059000D02*
X0114500Y0063000D01*
X0114500Y0055000D01*
X0110500Y0059000D01*
X0110500Y0055500D02*
X0106500Y0055500D01*
X0110500Y0055500D02*
X0114500Y0059500D01*
X0114500Y0051500D01*
X0110500Y0055500D01*
X0110500Y0052100D02*
X0106500Y0052100D01*
X0110500Y0052100D02*
X0114500Y0056100D01*
X0114500Y0048100D01*
X0110500Y0052100D01*
X0113900Y0052100D02*
X0109900Y0052100D01*
X0113900Y0052100D02*
X0117900Y0056100D01*
X0117900Y0048100D01*
X0113900Y0052100D01*
X0113900Y0055500D02*
X0109900Y0055500D01*
X0113900Y0055500D02*
X0117900Y0059500D01*
X0117900Y0051500D01*
X0113900Y0055500D01*
X0113900Y0059000D02*
X0109900Y0059000D01*
X0113900Y0059000D02*
X0117900Y0063000D01*
X0117900Y0055000D01*
X0113900Y0059000D01*
X0113900Y0062400D02*
X0109900Y0062400D01*
X0113900Y0062400D02*
X0117900Y0066400D01*
X0117900Y0058400D01*
X0113900Y0062400D01*
X0113900Y0065900D02*
X0109900Y0065900D01*
X0113900Y0065900D02*
X0117900Y0069900D01*
X0117900Y0061900D01*
X0113900Y0065900D01*
X0117300Y0065900D02*
X0113300Y0065900D01*
X0117300Y0065900D02*
X0121300Y0069900D01*
X0121300Y0061900D01*
X0117300Y0065900D01*
X0117300Y0062400D02*
X0113300Y0062400D01*
X0117300Y0062400D02*
X0121300Y0066400D01*
X0121300Y0058400D01*
X0117300Y0062400D01*
X0117300Y0059000D02*
X0113300Y0059000D01*
X0117300Y0059000D02*
X0121300Y0063000D01*
X0121300Y0055000D01*
X0117300Y0059000D01*
X0117300Y0055500D02*
X0113300Y0055500D01*
X0117300Y0055500D02*
X0121300Y0059500D01*
X0121300Y0051500D01*
X0117300Y0055500D01*
X0117300Y0052100D02*
X0113300Y0052100D01*
X0117300Y0052100D02*
X0121300Y0056100D01*
X0121300Y0048100D01*
X0117300Y0052100D01*
X0120700Y0052100D02*
X0116700Y0052100D01*
X0120700Y0052100D02*
X0124700Y0056100D01*
X0124700Y0048100D01*
X0120700Y0052100D01*
X0124100Y0052100D02*
X0120100Y0052100D01*
X0124100Y0052100D02*
X0128100Y0056100D01*
X0128100Y0048100D01*
X0124100Y0052100D01*
X0124100Y0055500D02*
X0120100Y0055500D01*
X0124100Y0055500D02*
X0128100Y0059500D01*
X0128100Y0051500D01*
X0124100Y0055500D01*
X0120700Y0055500D02*
X0116700Y0055500D01*
X0120700Y0055500D02*
X0124700Y0059500D01*
X0124700Y0051500D01*
X0120700Y0055500D01*
X0120700Y0059000D02*
X0116700Y0059000D01*
X0120700Y0059000D02*
X0124700Y0063000D01*
X0124700Y0055000D01*
X0120700Y0059000D01*
X0124100Y0059000D02*
X0120100Y0059000D01*
X0124100Y0059000D02*
X0128100Y0063000D01*
X0128100Y0055000D01*
X0124100Y0059000D01*
X0124100Y0062400D02*
X0120100Y0062400D01*
X0124100Y0062400D02*
X0128100Y0066400D01*
X0128100Y0058400D01*
X0124100Y0062400D01*
X0120700Y0062400D02*
X0116700Y0062400D01*
X0120700Y0062400D02*
X0124700Y0066400D01*
X0124700Y0058400D01*
X0120700Y0062400D01*
X0120700Y0065900D02*
X0116700Y0065900D01*
X0120700Y0065900D02*
X0124700Y0069900D01*
X0124700Y0061900D01*
X0120700Y0065900D01*
X0124100Y0065900D02*
X0120100Y0065900D01*
X0124100Y0065900D02*
X0128100Y0069900D01*
X0128100Y0061900D01*
X0124100Y0065900D01*
X0135600Y0048300D02*
X0131600Y0048300D01*
X0135600Y0048300D02*
X0139600Y0052300D01*
X0139600Y0044300D01*
X0135600Y0048300D01*
X0140000Y0048500D02*
X0136000Y0048500D01*
X0140000Y0048500D02*
X0144000Y0052500D01*
X0144000Y0044500D01*
X0140000Y0048500D01*
X0140500Y0042500D02*
X0136500Y0042500D01*
X0140500Y0042500D02*
X0144500Y0046500D01*
X0144500Y0038500D01*
X0140500Y0042500D01*
X0140500Y0034000D02*
X0136500Y0034000D01*
X0140500Y0034000D02*
X0144500Y0038000D01*
X0144500Y0030000D01*
X0140500Y0034000D01*
X0140500Y0024000D02*
X0136500Y0024000D01*
X0140500Y0024000D02*
X0144500Y0028000D01*
X0144500Y0020000D01*
X0140500Y0024000D01*
X0140400Y0014000D02*
X0136400Y0014000D01*
X0140400Y0014000D02*
X0144400Y0018000D01*
X0144400Y0010000D01*
X0140400Y0014000D01*
X0152500Y0014000D02*
X0148500Y0014000D01*
X0152500Y0014000D02*
X0156500Y0018000D01*
X0156500Y0010000D01*
X0152500Y0014000D01*
X0152500Y0024000D02*
X0148500Y0024000D01*
X0152500Y0024000D02*
X0156500Y0028000D01*
X0156500Y0020000D01*
X0152500Y0024000D01*
X0152500Y0034000D02*
X0148500Y0034000D01*
X0152500Y0034000D02*
X0156500Y0038000D01*
X0156500Y0030000D01*
X0152500Y0034000D01*
X0152500Y0044000D02*
X0148500Y0044000D01*
X0152500Y0044000D02*
X0156500Y0048000D01*
X0156500Y0040000D01*
X0152500Y0044000D01*
X0152500Y0054000D02*
X0148500Y0054000D01*
X0152500Y0054000D02*
X0156500Y0058000D01*
X0156500Y0050000D01*
X0152500Y0054000D01*
X0152500Y0064000D02*
X0148500Y0064000D01*
X0152500Y0064000D02*
X0156500Y0068000D01*
X0156500Y0060000D01*
X0152500Y0064000D01*
X0152500Y0074000D02*
X0148500Y0074000D01*
X0152500Y0074000D02*
X0156500Y0078000D01*
X0156500Y0070000D01*
X0152500Y0074000D01*
X0152500Y0082000D02*
X0148500Y0082000D01*
X0152500Y0082000D02*
X0156500Y0086000D01*
X0156500Y0078000D01*
X0152500Y0082000D01*
X0152500Y0088000D02*
X0148500Y0088000D01*
X0152500Y0088000D02*
X0156500Y0092000D01*
X0156500Y0084000D01*
X0152500Y0088000D01*
X0151500Y0094000D02*
X0147500Y0094000D01*
X0151500Y0094000D02*
X0155500Y0098000D01*
X0155500Y0090000D01*
X0151500Y0094000D01*
X0147000Y0094000D02*
X0143000Y0094000D01*
X0147000Y0094000D02*
X0151000Y0098000D01*
X0151000Y0090000D01*
X0147000Y0094000D01*
X0142500Y0094000D02*
X0138500Y0094000D01*
X0142500Y0094000D02*
X0146500Y0098000D01*
X0146500Y0090000D01*
X0142500Y0094000D01*
X0138500Y0094000D02*
X0134500Y0094000D01*
X0138500Y0094000D02*
X0142500Y0098000D01*
X0142500Y0090000D01*
X0138500Y0094000D01*
X0123500Y0094000D02*
X0119500Y0094000D01*
X0123500Y0094000D02*
X0127500Y0098000D01*
X0127500Y0090000D01*
X0123500Y0094000D01*
X0118500Y0094000D02*
X0114500Y0094000D01*
X0118500Y0094000D02*
X0122500Y0098000D01*
X0122500Y0090000D01*
X0118500Y0094000D01*
X0140500Y0066000D02*
X0136500Y0066000D01*
X0140500Y0066000D02*
X0144500Y0070000D01*
X0144500Y0062000D01*
X0140500Y0066000D01*
X0124100Y0041100D02*
X0120100Y0041100D01*
X0124100Y0041100D02*
X0128100Y0045100D01*
X0128100Y0037100D01*
X0124100Y0041100D01*
X0129500Y0034000D02*
X0125500Y0034000D01*
X0129500Y0034000D02*
X0133500Y0038000D01*
X0133500Y0030000D01*
X0129500Y0034000D01*
X0124200Y0028000D02*
X0120200Y0028000D01*
X0124200Y0028000D02*
X0128200Y0032000D01*
X0128200Y0024000D01*
X0124200Y0028000D01*
X0121900Y0024000D02*
X0117900Y0024000D01*
X0121900Y0024000D02*
X0125900Y0028000D01*
X0125900Y0020000D01*
X0121900Y0024000D01*
X0116200Y0028000D02*
X0112200Y0028000D01*
X0116200Y0028000D02*
X0120200Y0032000D01*
X0120200Y0024000D01*
X0116200Y0028000D01*
X0109600Y0041100D02*
X0105600Y0041100D01*
X0109600Y0041100D02*
X0113600Y0045100D01*
X0113600Y0037100D01*
X0109600Y0041100D01*
X0103100Y0045600D02*
X0099100Y0045600D01*
X0103100Y0045600D02*
X0107100Y0049600D01*
X0107100Y0041600D01*
X0103100Y0045600D01*
X0100500Y0050000D02*
X0096500Y0050000D01*
X0100500Y0050000D02*
X0104500Y0054000D01*
X0104500Y0046000D01*
X0100500Y0050000D01*
X0101600Y0040200D02*
X0097600Y0040200D01*
X0101600Y0040200D02*
X0105600Y0044200D01*
X0105600Y0036200D01*
X0101600Y0040200D01*
X0103500Y0024800D02*
X0099500Y0024800D01*
X0103500Y0024800D02*
X0107500Y0028800D01*
X0107500Y0020800D01*
X0103500Y0024800D01*
X0100500Y0014000D02*
X0096500Y0014000D01*
X0100500Y0014000D02*
X0104500Y0018000D01*
X0104500Y0010000D01*
X0100500Y0014000D01*
X0108500Y0014000D02*
X0104500Y0014000D01*
X0108500Y0014000D02*
X0112500Y0018000D01*
X0112500Y0010000D01*
X0108500Y0014000D01*
X0121900Y0014000D02*
X0117900Y0014000D01*
X0121900Y0014000D02*
X0125900Y0018000D01*
X0125900Y0010000D01*
X0121900Y0014000D01*
X0088500Y0135000D02*
X0084500Y0135000D01*
X0088500Y0135000D02*
X0092500Y0139000D01*
X0092500Y0131000D01*
X0088500Y0135000D01*
X0088500Y0144600D02*
X0084500Y0144600D01*
X0088500Y0144600D02*
X0092500Y0148600D01*
X0092500Y0140600D01*
X0088500Y0144600D01*
X0088500Y0154600D02*
X0084500Y0154600D01*
X0088500Y0154600D02*
X0092500Y0158600D01*
X0092500Y0150600D01*
X0088500Y0154600D01*
X0088500Y0164600D02*
X0084500Y0164600D01*
X0088500Y0164600D02*
X0092500Y0168600D01*
X0092500Y0160600D01*
X0088500Y0164600D01*
X0088500Y0174600D02*
X0084500Y0174600D01*
X0088500Y0174600D02*
X0092500Y0178600D01*
X0092500Y0170600D01*
X0088500Y0174600D01*
X0088500Y0184600D02*
X0084500Y0184600D01*
X0088500Y0184600D02*
X0092500Y0188600D01*
X0092500Y0180600D01*
X0088500Y0184600D01*
X0088500Y0194200D02*
X0084500Y0194200D01*
X0088500Y0194200D02*
X0092500Y0198200D01*
X0092500Y0190200D01*
X0088500Y0194200D01*
X0088500Y0205000D02*
X0084500Y0205000D01*
X0088500Y0205000D02*
X0092500Y0209000D01*
X0092500Y0201000D01*
X0088500Y0205000D01*
X0088500Y0209000D02*
X0084500Y0209000D01*
X0088500Y0209000D02*
X0092500Y0213000D01*
X0092500Y0205000D01*
X0088500Y0209000D01*
X0088500Y0215000D02*
X0084500Y0215000D01*
X0088500Y0215000D02*
X0092500Y0219000D01*
X0092500Y0211000D01*
X0088500Y0215000D01*
X0093500Y0215000D02*
X0089500Y0215000D01*
X0093500Y0215000D02*
X0097500Y0219000D01*
X0097500Y0211000D01*
X0093500Y0215000D01*
X0098500Y0215000D02*
X0094500Y0215000D01*
X0098500Y0215000D02*
X0102500Y0219000D01*
X0102500Y0211000D01*
X0098500Y0215000D01*
X0103500Y0215000D02*
X0099500Y0215000D01*
X0103500Y0215000D02*
X0107500Y0219000D01*
X0107500Y0211000D01*
X0103500Y0215000D01*
X0108500Y0215000D02*
X0104500Y0215000D01*
X0108500Y0215000D02*
X0112500Y0219000D01*
X0112500Y0211000D01*
X0108500Y0215000D01*
X0113500Y0215000D02*
X0109500Y0215000D01*
X0113500Y0215000D02*
X0117500Y0219000D01*
X0117500Y0211000D01*
X0113500Y0215000D01*
X0110500Y0209000D02*
X0106500Y0209000D01*
X0110500Y0209000D02*
X0114500Y0213000D01*
X0114500Y0205000D01*
X0110500Y0209000D01*
X0107000Y0205500D02*
X0103000Y0205500D01*
X0107000Y0205500D02*
X0111000Y0209500D01*
X0111000Y0201500D01*
X0107000Y0205500D01*
X0100500Y0209000D02*
X0096500Y0209000D01*
X0100500Y0209000D02*
X0104500Y0213000D01*
X0104500Y0205000D01*
X0100500Y0209000D01*
X0100200Y0201000D02*
X0096200Y0201000D01*
X0100200Y0201000D02*
X0104200Y0205000D01*
X0104200Y0197000D01*
X0100200Y0201000D01*
X0102200Y0191800D02*
X0098200Y0191800D01*
X0102200Y0191800D02*
X0106200Y0195800D01*
X0106200Y0187800D01*
X0102200Y0191800D01*
X0100500Y0187000D02*
X0096500Y0187000D01*
X0100500Y0187000D02*
X0104500Y0191000D01*
X0104500Y0183000D01*
X0100500Y0187000D01*
X0110500Y0186900D02*
X0106500Y0186900D01*
X0110500Y0186900D02*
X0114500Y0190900D01*
X0114500Y0182900D01*
X0110500Y0186900D01*
X0110500Y0183400D02*
X0106500Y0183400D01*
X0110500Y0183400D02*
X0114500Y0187400D01*
X0114500Y0179400D01*
X0110500Y0183400D01*
X0110500Y0180000D02*
X0106500Y0180000D01*
X0110500Y0180000D02*
X0114500Y0184000D01*
X0114500Y0176000D01*
X0110500Y0180000D01*
X0110500Y0176500D02*
X0106500Y0176500D01*
X0110500Y0176500D02*
X0114500Y0180500D01*
X0114500Y0172500D01*
X0110500Y0176500D01*
X0110500Y0173100D02*
X0106500Y0173100D01*
X0110500Y0173100D02*
X0114500Y0177100D01*
X0114500Y0169100D01*
X0110500Y0173100D01*
X0113900Y0173100D02*
X0109900Y0173100D01*
X0113900Y0173100D02*
X0117900Y0177100D01*
X0117900Y0169100D01*
X0113900Y0173100D01*
X0113900Y0176500D02*
X0109900Y0176500D01*
X0113900Y0176500D02*
X0117900Y0180500D01*
X0117900Y0172500D01*
X0113900Y0176500D01*
X0113900Y0180000D02*
X0109900Y0180000D01*
X0113900Y0180000D02*
X0117900Y0184000D01*
X0117900Y0176000D01*
X0113900Y0180000D01*
X0113900Y0183400D02*
X0109900Y0183400D01*
X0113900Y0183400D02*
X0117900Y0187400D01*
X0117900Y0179400D01*
X0113900Y0183400D01*
X0113900Y0186900D02*
X0109900Y0186900D01*
X0113900Y0186900D02*
X0117900Y0190900D01*
X0117900Y0182900D01*
X0113900Y0186900D01*
X0117300Y0186900D02*
X0113300Y0186900D01*
X0117300Y0186900D02*
X0121300Y0190900D01*
X0121300Y0182900D01*
X0117300Y0186900D01*
X0117300Y0183400D02*
X0113300Y0183400D01*
X0117300Y0183400D02*
X0121300Y0187400D01*
X0121300Y0179400D01*
X0117300Y0183400D01*
X0117300Y0180000D02*
X0113300Y0180000D01*
X0117300Y0180000D02*
X0121300Y0184000D01*
X0121300Y0176000D01*
X0117300Y0180000D01*
X0117300Y0176500D02*
X0113300Y0176500D01*
X0117300Y0176500D02*
X0121300Y0180500D01*
X0121300Y0172500D01*
X0117300Y0176500D01*
X0117300Y0173100D02*
X0113300Y0173100D01*
X0117300Y0173100D02*
X0121300Y0177100D01*
X0121300Y0169100D01*
X0117300Y0173100D01*
X0120700Y0173100D02*
X0116700Y0173100D01*
X0120700Y0173100D02*
X0124700Y0177100D01*
X0124700Y0169100D01*
X0120700Y0173100D01*
X0124100Y0173100D02*
X0120100Y0173100D01*
X0124100Y0173100D02*
X0128100Y0177100D01*
X0128100Y0169100D01*
X0124100Y0173100D01*
X0124100Y0176500D02*
X0120100Y0176500D01*
X0124100Y0176500D02*
X0128100Y0180500D01*
X0128100Y0172500D01*
X0124100Y0176500D01*
X0120700Y0176500D02*
X0116700Y0176500D01*
X0120700Y0176500D02*
X0124700Y0180500D01*
X0124700Y0172500D01*
X0120700Y0176500D01*
X0120700Y0180000D02*
X0116700Y0180000D01*
X0120700Y0180000D02*
X0124700Y0184000D01*
X0124700Y0176000D01*
X0120700Y0180000D01*
X0124100Y0180000D02*
X0120100Y0180000D01*
X0124100Y0180000D02*
X0128100Y0184000D01*
X0128100Y0176000D01*
X0124100Y0180000D01*
X0124100Y0183400D02*
X0120100Y0183400D01*
X0124100Y0183400D02*
X0128100Y0187400D01*
X0128100Y0179400D01*
X0124100Y0183400D01*
X0120700Y0183400D02*
X0116700Y0183400D01*
X0120700Y0183400D02*
X0124700Y0187400D01*
X0124700Y0179400D01*
X0120700Y0183400D01*
X0120700Y0186900D02*
X0116700Y0186900D01*
X0120700Y0186900D02*
X0124700Y0190900D01*
X0124700Y0182900D01*
X0120700Y0186900D01*
X0124100Y0186900D02*
X0120100Y0186900D01*
X0124100Y0186900D02*
X0128100Y0190900D01*
X0128100Y0182900D01*
X0124100Y0186900D01*
X0135600Y0169300D02*
X0131600Y0169300D01*
X0135600Y0169300D02*
X0139600Y0173300D01*
X0139600Y0165300D01*
X0135600Y0169300D01*
X0140000Y0169500D02*
X0136000Y0169500D01*
X0140000Y0169500D02*
X0144000Y0173500D01*
X0144000Y0165500D01*
X0140000Y0169500D01*
X0140500Y0163500D02*
X0136500Y0163500D01*
X0140500Y0163500D02*
X0144500Y0167500D01*
X0144500Y0159500D01*
X0140500Y0163500D01*
X0140500Y0155000D02*
X0136500Y0155000D01*
X0140500Y0155000D02*
X0144500Y0159000D01*
X0144500Y0151000D01*
X0140500Y0155000D01*
X0140500Y0145000D02*
X0136500Y0145000D01*
X0140500Y0145000D02*
X0144500Y0149000D01*
X0144500Y0141000D01*
X0140500Y0145000D01*
X0140400Y0135000D02*
X0136400Y0135000D01*
X0140400Y0135000D02*
X0144400Y0139000D01*
X0144400Y0131000D01*
X0140400Y0135000D01*
X0152500Y0135000D02*
X0148500Y0135000D01*
X0152500Y0135000D02*
X0156500Y0139000D01*
X0156500Y0131000D01*
X0152500Y0135000D01*
X0152500Y0145000D02*
X0148500Y0145000D01*
X0152500Y0145000D02*
X0156500Y0149000D01*
X0156500Y0141000D01*
X0152500Y0145000D01*
X0152500Y0155000D02*
X0148500Y0155000D01*
X0152500Y0155000D02*
X0156500Y0159000D01*
X0156500Y0151000D01*
X0152500Y0155000D01*
X0152500Y0165000D02*
X0148500Y0165000D01*
X0152500Y0165000D02*
X0156500Y0169000D01*
X0156500Y0161000D01*
X0152500Y0165000D01*
X0152500Y0175000D02*
X0148500Y0175000D01*
X0152500Y0175000D02*
X0156500Y0179000D01*
X0156500Y0171000D01*
X0152500Y0175000D01*
X0152500Y0185000D02*
X0148500Y0185000D01*
X0152500Y0185000D02*
X0156500Y0189000D01*
X0156500Y0181000D01*
X0152500Y0185000D01*
X0152500Y0195000D02*
X0148500Y0195000D01*
X0152500Y0195000D02*
X0156500Y0199000D01*
X0156500Y0191000D01*
X0152500Y0195000D01*
X0152500Y0203000D02*
X0148500Y0203000D01*
X0152500Y0203000D02*
X0156500Y0207000D01*
X0156500Y0199000D01*
X0152500Y0203000D01*
X0152500Y0209000D02*
X0148500Y0209000D01*
X0152500Y0209000D02*
X0156500Y0213000D01*
X0156500Y0205000D01*
X0152500Y0209000D01*
X0151500Y0215000D02*
X0147500Y0215000D01*
X0151500Y0215000D02*
X0155500Y0219000D01*
X0155500Y0211000D01*
X0151500Y0215000D01*
X0147000Y0215000D02*
X0143000Y0215000D01*
X0147000Y0215000D02*
X0151000Y0219000D01*
X0151000Y0211000D01*
X0147000Y0215000D01*
X0142500Y0215000D02*
X0138500Y0215000D01*
X0142500Y0215000D02*
X0146500Y0219000D01*
X0146500Y0211000D01*
X0142500Y0215000D01*
X0138500Y0215000D02*
X0134500Y0215000D01*
X0138500Y0215000D02*
X0142500Y0219000D01*
X0142500Y0211000D01*
X0138500Y0215000D01*
X0123500Y0215000D02*
X0119500Y0215000D01*
X0123500Y0215000D02*
X0127500Y0219000D01*
X0127500Y0211000D01*
X0123500Y0215000D01*
X0118500Y0215000D02*
X0114500Y0215000D01*
X0118500Y0215000D02*
X0122500Y0219000D01*
X0122500Y0211000D01*
X0118500Y0215000D01*
X0140500Y0187000D02*
X0136500Y0187000D01*
X0140500Y0187000D02*
X0144500Y0191000D01*
X0144500Y0183000D01*
X0140500Y0187000D01*
X0124100Y0162100D02*
X0120100Y0162100D01*
X0124100Y0162100D02*
X0128100Y0166100D01*
X0128100Y0158100D01*
X0124100Y0162100D01*
X0129500Y0155000D02*
X0125500Y0155000D01*
X0129500Y0155000D02*
X0133500Y0159000D01*
X0133500Y0151000D01*
X0129500Y0155000D01*
X0124200Y0149000D02*
X0120200Y0149000D01*
X0124200Y0149000D02*
X0128200Y0153000D01*
X0128200Y0145000D01*
X0124200Y0149000D01*
X0121900Y0145000D02*
X0117900Y0145000D01*
X0121900Y0145000D02*
X0125900Y0149000D01*
X0125900Y0141000D01*
X0121900Y0145000D01*
X0116200Y0149000D02*
X0112200Y0149000D01*
X0116200Y0149000D02*
X0120200Y0153000D01*
X0120200Y0145000D01*
X0116200Y0149000D01*
X0109600Y0162100D02*
X0105600Y0162100D01*
X0109600Y0162100D02*
X0113600Y0166100D01*
X0113600Y0158100D01*
X0109600Y0162100D01*
X0103100Y0166600D02*
X0099100Y0166600D01*
X0103100Y0166600D02*
X0107100Y0170600D01*
X0107100Y0162600D01*
X0103100Y0166600D01*
X0100500Y0171000D02*
X0096500Y0171000D01*
X0100500Y0171000D02*
X0104500Y0175000D01*
X0104500Y0167000D01*
X0100500Y0171000D01*
X0101600Y0161200D02*
X0097600Y0161200D01*
X0101600Y0161200D02*
X0105600Y0165200D01*
X0105600Y0157200D01*
X0101600Y0161200D01*
X0103500Y0145800D02*
X0099500Y0145800D01*
X0103500Y0145800D02*
X0107500Y0149800D01*
X0107500Y0141800D01*
X0103500Y0145800D01*
X0100500Y0135000D02*
X0096500Y0135000D01*
X0100500Y0135000D02*
X0104500Y0139000D01*
X0104500Y0131000D01*
X0100500Y0135000D01*
X0108500Y0135000D02*
X0104500Y0135000D01*
X0108500Y0135000D02*
X0112500Y0139000D01*
X0112500Y0131000D01*
X0108500Y0135000D01*
X0121900Y0135000D02*
X0117900Y0135000D01*
X0121900Y0135000D02*
X0125900Y0139000D01*
X0125900Y0131000D01*
X0121900Y0135000D01*
X0088500Y0256000D02*
X0084500Y0256000D01*
X0088500Y0256000D02*
X0092500Y0260000D01*
X0092500Y0252000D01*
X0088500Y0256000D01*
X0088500Y0265600D02*
X0084500Y0265600D01*
X0088500Y0265600D02*
X0092500Y0269600D01*
X0092500Y0261600D01*
X0088500Y0265600D01*
X0088500Y0275600D02*
X0084500Y0275600D01*
X0088500Y0275600D02*
X0092500Y0279600D01*
X0092500Y0271600D01*
X0088500Y0275600D01*
X0088500Y0285600D02*
X0084500Y0285600D01*
X0088500Y0285600D02*
X0092500Y0289600D01*
X0092500Y0281600D01*
X0088500Y0285600D01*
X0088500Y0295600D02*
X0084500Y0295600D01*
X0088500Y0295600D02*
X0092500Y0299600D01*
X0092500Y0291600D01*
X0088500Y0295600D01*
X0088500Y0305600D02*
X0084500Y0305600D01*
X0088500Y0305600D02*
X0092500Y0309600D01*
X0092500Y0301600D01*
X0088500Y0305600D01*
X0088500Y0315200D02*
X0084500Y0315200D01*
X0088500Y0315200D02*
X0092500Y0319200D01*
X0092500Y0311200D01*
X0088500Y0315200D01*
X0088500Y0326000D02*
X0084500Y0326000D01*
X0088500Y0326000D02*
X0092500Y0330000D01*
X0092500Y0322000D01*
X0088500Y0326000D01*
X0088500Y0330000D02*
X0084500Y0330000D01*
X0088500Y0330000D02*
X0092500Y0334000D01*
X0092500Y0326000D01*
X0088500Y0330000D01*
X0088500Y0336000D02*
X0084500Y0336000D01*
X0088500Y0336000D02*
X0092500Y0340000D01*
X0092500Y0332000D01*
X0088500Y0336000D01*
X0093500Y0336000D02*
X0089500Y0336000D01*
X0093500Y0336000D02*
X0097500Y0340000D01*
X0097500Y0332000D01*
X0093500Y0336000D01*
X0098500Y0336000D02*
X0094500Y0336000D01*
X0098500Y0336000D02*
X0102500Y0340000D01*
X0102500Y0332000D01*
X0098500Y0336000D01*
X0103500Y0336000D02*
X0099500Y0336000D01*
X0103500Y0336000D02*
X0107500Y0340000D01*
X0107500Y0332000D01*
X0103500Y0336000D01*
X0108500Y0336000D02*
X0104500Y0336000D01*
X0108500Y0336000D02*
X0112500Y0340000D01*
X0112500Y0332000D01*
X0108500Y0336000D01*
X0113500Y0336000D02*
X0109500Y0336000D01*
X0113500Y0336000D02*
X0117500Y0340000D01*
X0117500Y0332000D01*
X0113500Y0336000D01*
X0110500Y0330000D02*
X0106500Y0330000D01*
X0110500Y0330000D02*
X0114500Y0334000D01*
X0114500Y0326000D01*
X0110500Y0330000D01*
X0107000Y0326500D02*
X0103000Y0326500D01*
X0107000Y0326500D02*
X0111000Y0330500D01*
X0111000Y0322500D01*
X0107000Y0326500D01*
X0100500Y0330000D02*
X0096500Y0330000D01*
X0100500Y0330000D02*
X0104500Y0334000D01*
X0104500Y0326000D01*
X0100500Y0330000D01*
X0100200Y0322000D02*
X0096200Y0322000D01*
X0100200Y0322000D02*
X0104200Y0326000D01*
X0104200Y0318000D01*
X0100200Y0322000D01*
X0102200Y0312800D02*
X0098200Y0312800D01*
X0102200Y0312800D02*
X0106200Y0316800D01*
X0106200Y0308800D01*
X0102200Y0312800D01*
X0100500Y0308000D02*
X0096500Y0308000D01*
X0100500Y0308000D02*
X0104500Y0312000D01*
X0104500Y0304000D01*
X0100500Y0308000D01*
X0110500Y0307900D02*
X0106500Y0307900D01*
X0110500Y0307900D02*
X0114500Y0311900D01*
X0114500Y0303900D01*
X0110500Y0307900D01*
X0110500Y0304400D02*
X0106500Y0304400D01*
X0110500Y0304400D02*
X0114500Y0308400D01*
X0114500Y0300400D01*
X0110500Y0304400D01*
X0110500Y0301000D02*
X0106500Y0301000D01*
X0110500Y0301000D02*
X0114500Y0305000D01*
X0114500Y0297000D01*
X0110500Y0301000D01*
X0110500Y0297500D02*
X0106500Y0297500D01*
X0110500Y0297500D02*
X0114500Y0301500D01*
X0114500Y0293500D01*
X0110500Y0297500D01*
X0110500Y0294100D02*
X0106500Y0294100D01*
X0110500Y0294100D02*
X0114500Y0298100D01*
X0114500Y0290100D01*
X0110500Y0294100D01*
X0113900Y0294100D02*
X0109900Y0294100D01*
X0113900Y0294100D02*
X0117900Y0298100D01*
X0117900Y0290100D01*
X0113900Y0294100D01*
X0113900Y0297500D02*
X0109900Y0297500D01*
X0113900Y0297500D02*
X0117900Y0301500D01*
X0117900Y0293500D01*
X0113900Y0297500D01*
X0113900Y0301000D02*
X0109900Y0301000D01*
X0113900Y0301000D02*
X0117900Y0305000D01*
X0117900Y0297000D01*
X0113900Y0301000D01*
X0113900Y0304400D02*
X0109900Y0304400D01*
X0113900Y0304400D02*
X0117900Y0308400D01*
X0117900Y0300400D01*
X0113900Y0304400D01*
X0113900Y0307900D02*
X0109900Y0307900D01*
X0113900Y0307900D02*
X0117900Y0311900D01*
X0117900Y0303900D01*
X0113900Y0307900D01*
X0117300Y0307900D02*
X0113300Y0307900D01*
X0117300Y0307900D02*
X0121300Y0311900D01*
X0121300Y0303900D01*
X0117300Y0307900D01*
X0117300Y0304400D02*
X0113300Y0304400D01*
X0117300Y0304400D02*
X0121300Y0308400D01*
X0121300Y0300400D01*
X0117300Y0304400D01*
X0117300Y0301000D02*
X0113300Y0301000D01*
X0117300Y0301000D02*
X0121300Y0305000D01*
X0121300Y0297000D01*
X0117300Y0301000D01*
X0117300Y0297500D02*
X0113300Y0297500D01*
X0117300Y0297500D02*
X0121300Y0301500D01*
X0121300Y0293500D01*
X0117300Y0297500D01*
X0117300Y0294100D02*
X0113300Y0294100D01*
X0117300Y0294100D02*
X0121300Y0298100D01*
X0121300Y0290100D01*
X0117300Y0294100D01*
X0120700Y0294100D02*
X0116700Y0294100D01*
X0120700Y0294100D02*
X0124700Y0298100D01*
X0124700Y0290100D01*
X0120700Y0294100D01*
X0124100Y0294100D02*
X0120100Y0294100D01*
X0124100Y0294100D02*
X0128100Y0298100D01*
X0128100Y0290100D01*
X0124100Y0294100D01*
X0124100Y0297500D02*
X0120100Y0297500D01*
X0124100Y0297500D02*
X0128100Y0301500D01*
X0128100Y0293500D01*
X0124100Y0297500D01*
X0120700Y0297500D02*
X0116700Y0297500D01*
X0120700Y0297500D02*
X0124700Y0301500D01*
X0124700Y0293500D01*
X0120700Y0297500D01*
X0120700Y0301000D02*
X0116700Y0301000D01*
X0120700Y0301000D02*
X0124700Y0305000D01*
X0124700Y0297000D01*
X0120700Y0301000D01*
X0124100Y0301000D02*
X0120100Y0301000D01*
X0124100Y0301000D02*
X0128100Y0305000D01*
X0128100Y0297000D01*
X0124100Y0301000D01*
X0124100Y0304400D02*
X0120100Y0304400D01*
X0124100Y0304400D02*
X0128100Y0308400D01*
X0128100Y0300400D01*
X0124100Y0304400D01*
X0120700Y0304400D02*
X0116700Y0304400D01*
X0120700Y0304400D02*
X0124700Y0308400D01*
X0124700Y0300400D01*
X0120700Y0304400D01*
X0120700Y0307900D02*
X0116700Y0307900D01*
X0120700Y0307900D02*
X0124700Y0311900D01*
X0124700Y0303900D01*
X0120700Y0307900D01*
X0124100Y0307900D02*
X0120100Y0307900D01*
X0124100Y0307900D02*
X0128100Y0311900D01*
X0128100Y0303900D01*
X0124100Y0307900D01*
X0135600Y0290300D02*
X0131600Y0290300D01*
X0135600Y0290300D02*
X0139600Y0294300D01*
X0139600Y0286300D01*
X0135600Y0290300D01*
X0140000Y0290500D02*
X0136000Y0290500D01*
X0140000Y0290500D02*
X0144000Y0294500D01*
X0144000Y0286500D01*
X0140000Y0290500D01*
X0140500Y0284500D02*
X0136500Y0284500D01*
X0140500Y0284500D02*
X0144500Y0288500D01*
X0144500Y0280500D01*
X0140500Y0284500D01*
X0140500Y0276000D02*
X0136500Y0276000D01*
X0140500Y0276000D02*
X0144500Y0280000D01*
X0144500Y0272000D01*
X0140500Y0276000D01*
X0140500Y0266000D02*
X0136500Y0266000D01*
X0140500Y0266000D02*
X0144500Y0270000D01*
X0144500Y0262000D01*
X0140500Y0266000D01*
X0140400Y0256000D02*
X0136400Y0256000D01*
X0140400Y0256000D02*
X0144400Y0260000D01*
X0144400Y0252000D01*
X0140400Y0256000D01*
X0152500Y0256000D02*
X0148500Y0256000D01*
X0152500Y0256000D02*
X0156500Y0260000D01*
X0156500Y0252000D01*
X0152500Y0256000D01*
X0152500Y0266000D02*
X0148500Y0266000D01*
X0152500Y0266000D02*
X0156500Y0270000D01*
X0156500Y0262000D01*
X0152500Y0266000D01*
X0152500Y0276000D02*
X0148500Y0276000D01*
X0152500Y0276000D02*
X0156500Y0280000D01*
X0156500Y0272000D01*
X0152500Y0276000D01*
X0152500Y0286000D02*
X0148500Y0286000D01*
X0152500Y0286000D02*
X0156500Y0290000D01*
X0156500Y0282000D01*
X0152500Y0286000D01*
X0152500Y0296000D02*
X0148500Y0296000D01*
X0152500Y0296000D02*
X0156500Y0300000D01*
X0156500Y0292000D01*
X0152500Y0296000D01*
X0152500Y0306000D02*
X0148500Y0306000D01*
X0152500Y0306000D02*
X0156500Y0310000D01*
X0156500Y0302000D01*
X0152500Y0306000D01*
X0152500Y0316000D02*
X0148500Y0316000D01*
X0152500Y0316000D02*
X0156500Y0320000D01*
X0156500Y0312000D01*
X0152500Y0316000D01*
X0152500Y0324000D02*
X0148500Y0324000D01*
X0152500Y0324000D02*
X0156500Y0328000D01*
X0156500Y0320000D01*
X0152500Y0324000D01*
X0152500Y0330000D02*
X0148500Y0330000D01*
X0152500Y0330000D02*
X0156500Y0334000D01*
X0156500Y0326000D01*
X0152500Y0330000D01*
X0151500Y0336000D02*
X0147500Y0336000D01*
X0151500Y0336000D02*
X0155500Y0340000D01*
X0155500Y0332000D01*
X0151500Y0336000D01*
X0147000Y0336000D02*
X0143000Y0336000D01*
X0147000Y0336000D02*
X0151000Y0340000D01*
X0151000Y0332000D01*
X0147000Y0336000D01*
X0142500Y0336000D02*
X0138500Y0336000D01*
X0142500Y0336000D02*
X0146500Y0340000D01*
X0146500Y0332000D01*
X0142500Y0336000D01*
X0138500Y0336000D02*
X0134500Y0336000D01*
X0138500Y0336000D02*
X0142500Y0340000D01*
X0142500Y0332000D01*
X0138500Y0336000D01*
X0123500Y0336000D02*
X0119500Y0336000D01*
X0123500Y0336000D02*
X0127500Y0340000D01*
X0127500Y0332000D01*
X0123500Y0336000D01*
X0118500Y0336000D02*
X0114500Y0336000D01*
X0118500Y0336000D02*
X0122500Y0340000D01*
X0122500Y0332000D01*
X0118500Y0336000D01*
X0140500Y0308000D02*
X0136500Y0308000D01*
X0140500Y0308000D02*
X0144500Y0312000D01*
X0144500Y0304000D01*
X0140500Y0308000D01*
X0124100Y0283100D02*
X0120100Y0283100D01*
X0124100Y0283100D02*
X0128100Y0287100D01*
X0128100Y0279100D01*
X0124100Y0283100D01*
X0129500Y0276000D02*
X0125500Y0276000D01*
X0129500Y0276000D02*
X0133500Y0280000D01*
X0133500Y0272000D01*
X0129500Y0276000D01*
X0124200Y0270000D02*
X0120200Y0270000D01*
X0124200Y0270000D02*
X0128200Y0274000D01*
X0128200Y0266000D01*
X0124200Y0270000D01*
X0121900Y0266000D02*
X0117900Y0266000D01*
X0121900Y0266000D02*
X0125900Y0270000D01*
X0125900Y0262000D01*
X0121900Y0266000D01*
X0116200Y0270000D02*
X0112200Y0270000D01*
X0116200Y0270000D02*
X0120200Y0274000D01*
X0120200Y0266000D01*
X0116200Y0270000D01*
X0109600Y0283100D02*
X0105600Y0283100D01*
X0109600Y0283100D02*
X0113600Y0287100D01*
X0113600Y0279100D01*
X0109600Y0283100D01*
X0103100Y0287600D02*
X0099100Y0287600D01*
X0103100Y0287600D02*
X0107100Y0291600D01*
X0107100Y0283600D01*
X0103100Y0287600D01*
X0100500Y0292000D02*
X0096500Y0292000D01*
X0100500Y0292000D02*
X0104500Y0296000D01*
X0104500Y0288000D01*
X0100500Y0292000D01*
X0101600Y0282200D02*
X0097600Y0282200D01*
X0101600Y0282200D02*
X0105600Y0286200D01*
X0105600Y0278200D01*
X0101600Y0282200D01*
X0103500Y0266800D02*
X0099500Y0266800D01*
X0103500Y0266800D02*
X0107500Y0270800D01*
X0107500Y0262800D01*
X0103500Y0266800D01*
X0100500Y0256000D02*
X0096500Y0256000D01*
X0100500Y0256000D02*
X0104500Y0260000D01*
X0104500Y0252000D01*
X0100500Y0256000D01*
X0108500Y0256000D02*
X0104500Y0256000D01*
X0108500Y0256000D02*
X0112500Y0260000D01*
X0112500Y0252000D01*
X0108500Y0256000D01*
X0121900Y0256000D02*
X0117900Y0256000D01*
X0121900Y0256000D02*
X0125900Y0260000D01*
X0125900Y0252000D01*
X0121900Y0256000D01*
X0161000Y0014000D02*
X0157000Y0014000D01*
X0161000Y0014000D02*
X0165000Y0018000D01*
X0165000Y0010000D01*
X0161000Y0014000D01*
X0161000Y0023600D02*
X0157000Y0023600D01*
X0161000Y0023600D02*
X0165000Y0027600D01*
X0165000Y0019600D01*
X0161000Y0023600D01*
X0161000Y0033600D02*
X0157000Y0033600D01*
X0161000Y0033600D02*
X0165000Y0037600D01*
X0165000Y0029600D01*
X0161000Y0033600D01*
X0161000Y0043600D02*
X0157000Y0043600D01*
X0161000Y0043600D02*
X0165000Y0047600D01*
X0165000Y0039600D01*
X0161000Y0043600D01*
X0161000Y0053600D02*
X0157000Y0053600D01*
X0161000Y0053600D02*
X0165000Y0057600D01*
X0165000Y0049600D01*
X0161000Y0053600D01*
X0161000Y0063600D02*
X0157000Y0063600D01*
X0161000Y0063600D02*
X0165000Y0067600D01*
X0165000Y0059600D01*
X0161000Y0063600D01*
X0161000Y0073200D02*
X0157000Y0073200D01*
X0161000Y0073200D02*
X0165000Y0077200D01*
X0165000Y0069200D01*
X0161000Y0073200D01*
X0161000Y0084000D02*
X0157000Y0084000D01*
X0161000Y0084000D02*
X0165000Y0088000D01*
X0165000Y0080000D01*
X0161000Y0084000D01*
X0161000Y0088000D02*
X0157000Y0088000D01*
X0161000Y0088000D02*
X0165000Y0092000D01*
X0165000Y0084000D01*
X0161000Y0088000D01*
X0161000Y0094000D02*
X0157000Y0094000D01*
X0161000Y0094000D02*
X0165000Y0098000D01*
X0165000Y0090000D01*
X0161000Y0094000D01*
X0166000Y0094000D02*
X0162000Y0094000D01*
X0166000Y0094000D02*
X0170000Y0098000D01*
X0170000Y0090000D01*
X0166000Y0094000D01*
X0171000Y0094000D02*
X0167000Y0094000D01*
X0171000Y0094000D02*
X0175000Y0098000D01*
X0175000Y0090000D01*
X0171000Y0094000D01*
X0176000Y0094000D02*
X0172000Y0094000D01*
X0176000Y0094000D02*
X0180000Y0098000D01*
X0180000Y0090000D01*
X0176000Y0094000D01*
X0181000Y0094000D02*
X0177000Y0094000D01*
X0181000Y0094000D02*
X0185000Y0098000D01*
X0185000Y0090000D01*
X0181000Y0094000D01*
X0186000Y0094000D02*
X0182000Y0094000D01*
X0186000Y0094000D02*
X0190000Y0098000D01*
X0190000Y0090000D01*
X0186000Y0094000D01*
X0183000Y0088000D02*
X0179000Y0088000D01*
X0183000Y0088000D02*
X0187000Y0092000D01*
X0187000Y0084000D01*
X0183000Y0088000D01*
X0179500Y0084500D02*
X0175500Y0084500D01*
X0179500Y0084500D02*
X0183500Y0088500D01*
X0183500Y0080500D01*
X0179500Y0084500D01*
X0173000Y0088000D02*
X0169000Y0088000D01*
X0173000Y0088000D02*
X0177000Y0092000D01*
X0177000Y0084000D01*
X0173000Y0088000D01*
X0172700Y0080000D02*
X0168700Y0080000D01*
X0172700Y0080000D02*
X0176700Y0084000D01*
X0176700Y0076000D01*
X0172700Y0080000D01*
X0174700Y0070800D02*
X0170700Y0070800D01*
X0174700Y0070800D02*
X0178700Y0074800D01*
X0178700Y0066800D01*
X0174700Y0070800D01*
X0173000Y0066000D02*
X0169000Y0066000D01*
X0173000Y0066000D02*
X0177000Y0070000D01*
X0177000Y0062000D01*
X0173000Y0066000D01*
X0183000Y0065900D02*
X0179000Y0065900D01*
X0183000Y0065900D02*
X0187000Y0069900D01*
X0187000Y0061900D01*
X0183000Y0065900D01*
X0183000Y0062400D02*
X0179000Y0062400D01*
X0183000Y0062400D02*
X0187000Y0066400D01*
X0187000Y0058400D01*
X0183000Y0062400D01*
X0183000Y0059000D02*
X0179000Y0059000D01*
X0183000Y0059000D02*
X0187000Y0063000D01*
X0187000Y0055000D01*
X0183000Y0059000D01*
X0183000Y0055500D02*
X0179000Y0055500D01*
X0183000Y0055500D02*
X0187000Y0059500D01*
X0187000Y0051500D01*
X0183000Y0055500D01*
X0183000Y0052100D02*
X0179000Y0052100D01*
X0183000Y0052100D02*
X0187000Y0056100D01*
X0187000Y0048100D01*
X0183000Y0052100D01*
X0186400Y0052100D02*
X0182400Y0052100D01*
X0186400Y0052100D02*
X0190400Y0056100D01*
X0190400Y0048100D01*
X0186400Y0052100D01*
X0186400Y0055500D02*
X0182400Y0055500D01*
X0186400Y0055500D02*
X0190400Y0059500D01*
X0190400Y0051500D01*
X0186400Y0055500D01*
X0186400Y0059000D02*
X0182400Y0059000D01*
X0186400Y0059000D02*
X0190400Y0063000D01*
X0190400Y0055000D01*
X0186400Y0059000D01*
X0186400Y0062400D02*
X0182400Y0062400D01*
X0186400Y0062400D02*
X0190400Y0066400D01*
X0190400Y0058400D01*
X0186400Y0062400D01*
X0186400Y0065900D02*
X0182400Y0065900D01*
X0186400Y0065900D02*
X0190400Y0069900D01*
X0190400Y0061900D01*
X0186400Y0065900D01*
X0189800Y0065900D02*
X0185800Y0065900D01*
X0189800Y0065900D02*
X0193800Y0069900D01*
X0193800Y0061900D01*
X0189800Y0065900D01*
X0189800Y0062400D02*
X0185800Y0062400D01*
X0189800Y0062400D02*
X0193800Y0066400D01*
X0193800Y0058400D01*
X0189800Y0062400D01*
X0189800Y0059000D02*
X0185800Y0059000D01*
X0189800Y0059000D02*
X0193800Y0063000D01*
X0193800Y0055000D01*
X0189800Y0059000D01*
X0189800Y0055500D02*
X0185800Y0055500D01*
X0189800Y0055500D02*
X0193800Y0059500D01*
X0193800Y0051500D01*
X0189800Y0055500D01*
X0189800Y0052100D02*
X0185800Y0052100D01*
X0189800Y0052100D02*
X0193800Y0056100D01*
X0193800Y0048100D01*
X0189800Y0052100D01*
X0193200Y0052100D02*
X0189200Y0052100D01*
X0193200Y0052100D02*
X0197200Y0056100D01*
X0197200Y0048100D01*
X0193200Y0052100D01*
X0196600Y0052100D02*
X0192600Y0052100D01*
X0196600Y0052100D02*
X0200600Y0056100D01*
X0200600Y0048100D01*
X0196600Y0052100D01*
X0196600Y0055500D02*
X0192600Y0055500D01*
X0196600Y0055500D02*
X0200600Y0059500D01*
X0200600Y0051500D01*
X0196600Y0055500D01*
X0193200Y0055500D02*
X0189200Y0055500D01*
X0193200Y0055500D02*
X0197200Y0059500D01*
X0197200Y0051500D01*
X0193200Y0055500D01*
X0193200Y0059000D02*
X0189200Y0059000D01*
X0193200Y0059000D02*
X0197200Y0063000D01*
X0197200Y0055000D01*
X0193200Y0059000D01*
X0196600Y0059000D02*
X0192600Y0059000D01*
X0196600Y0059000D02*
X0200600Y0063000D01*
X0200600Y0055000D01*
X0196600Y0059000D01*
X0196600Y0062400D02*
X0192600Y0062400D01*
X0196600Y0062400D02*
X0200600Y0066400D01*
X0200600Y0058400D01*
X0196600Y0062400D01*
X0193200Y0062400D02*
X0189200Y0062400D01*
X0193200Y0062400D02*
X0197200Y0066400D01*
X0197200Y0058400D01*
X0193200Y0062400D01*
X0193200Y0065900D02*
X0189200Y0065900D01*
X0193200Y0065900D02*
X0197200Y0069900D01*
X0197200Y0061900D01*
X0193200Y0065900D01*
X0196600Y0065900D02*
X0192600Y0065900D01*
X0196600Y0065900D02*
X0200600Y0069900D01*
X0200600Y0061900D01*
X0196600Y0065900D01*
X0208100Y0048300D02*
X0204100Y0048300D01*
X0208100Y0048300D02*
X0212100Y0052300D01*
X0212100Y0044300D01*
X0208100Y0048300D01*
X0212500Y0048500D02*
X0208500Y0048500D01*
X0212500Y0048500D02*
X0216500Y0052500D01*
X0216500Y0044500D01*
X0212500Y0048500D01*
X0213000Y0042500D02*
X0209000Y0042500D01*
X0213000Y0042500D02*
X0217000Y0046500D01*
X0217000Y0038500D01*
X0213000Y0042500D01*
X0213000Y0034000D02*
X0209000Y0034000D01*
X0213000Y0034000D02*
X0217000Y0038000D01*
X0217000Y0030000D01*
X0213000Y0034000D01*
X0213000Y0024000D02*
X0209000Y0024000D01*
X0213000Y0024000D02*
X0217000Y0028000D01*
X0217000Y0020000D01*
X0213000Y0024000D01*
X0212900Y0014000D02*
X0208900Y0014000D01*
X0212900Y0014000D02*
X0216900Y0018000D01*
X0216900Y0010000D01*
X0212900Y0014000D01*
X0225000Y0014000D02*
X0221000Y0014000D01*
X0225000Y0014000D02*
X0229000Y0018000D01*
X0229000Y0010000D01*
X0225000Y0014000D01*
X0225000Y0024000D02*
X0221000Y0024000D01*
X0225000Y0024000D02*
X0229000Y0028000D01*
X0229000Y0020000D01*
X0225000Y0024000D01*
X0225000Y0034000D02*
X0221000Y0034000D01*
X0225000Y0034000D02*
X0229000Y0038000D01*
X0229000Y0030000D01*
X0225000Y0034000D01*
X0225000Y0044000D02*
X0221000Y0044000D01*
X0225000Y0044000D02*
X0229000Y0048000D01*
X0229000Y0040000D01*
X0225000Y0044000D01*
X0225000Y0054000D02*
X0221000Y0054000D01*
X0225000Y0054000D02*
X0229000Y0058000D01*
X0229000Y0050000D01*
X0225000Y0054000D01*
X0225000Y0064000D02*
X0221000Y0064000D01*
X0225000Y0064000D02*
X0229000Y0068000D01*
X0229000Y0060000D01*
X0225000Y0064000D01*
X0225000Y0074000D02*
X0221000Y0074000D01*
X0225000Y0074000D02*
X0229000Y0078000D01*
X0229000Y0070000D01*
X0225000Y0074000D01*
X0225000Y0082000D02*
X0221000Y0082000D01*
X0225000Y0082000D02*
X0229000Y0086000D01*
X0229000Y0078000D01*
X0225000Y0082000D01*
X0225000Y0088000D02*
X0221000Y0088000D01*
X0225000Y0088000D02*
X0229000Y0092000D01*
X0229000Y0084000D01*
X0225000Y0088000D01*
X0224000Y0094000D02*
X0220000Y0094000D01*
X0224000Y0094000D02*
X0228000Y0098000D01*
X0228000Y0090000D01*
X0224000Y0094000D01*
X0219500Y0094000D02*
X0215500Y0094000D01*
X0219500Y0094000D02*
X0223500Y0098000D01*
X0223500Y0090000D01*
X0219500Y0094000D01*
X0215000Y0094000D02*
X0211000Y0094000D01*
X0215000Y0094000D02*
X0219000Y0098000D01*
X0219000Y0090000D01*
X0215000Y0094000D01*
X0211000Y0094000D02*
X0207000Y0094000D01*
X0211000Y0094000D02*
X0215000Y0098000D01*
X0215000Y0090000D01*
X0211000Y0094000D01*
X0196000Y0094000D02*
X0192000Y0094000D01*
X0196000Y0094000D02*
X0200000Y0098000D01*
X0200000Y0090000D01*
X0196000Y0094000D01*
X0191000Y0094000D02*
X0187000Y0094000D01*
X0191000Y0094000D02*
X0195000Y0098000D01*
X0195000Y0090000D01*
X0191000Y0094000D01*
X0213000Y0066000D02*
X0209000Y0066000D01*
X0213000Y0066000D02*
X0217000Y0070000D01*
X0217000Y0062000D01*
X0213000Y0066000D01*
X0196600Y0041100D02*
X0192600Y0041100D01*
X0196600Y0041100D02*
X0200600Y0045100D01*
X0200600Y0037100D01*
X0196600Y0041100D01*
X0202000Y0034000D02*
X0198000Y0034000D01*
X0202000Y0034000D02*
X0206000Y0038000D01*
X0206000Y0030000D01*
X0202000Y0034000D01*
X0196700Y0028000D02*
X0192700Y0028000D01*
X0196700Y0028000D02*
X0200700Y0032000D01*
X0200700Y0024000D01*
X0196700Y0028000D01*
X0194400Y0024000D02*
X0190400Y0024000D01*
X0194400Y0024000D02*
X0198400Y0028000D01*
X0198400Y0020000D01*
X0194400Y0024000D01*
X0188700Y0028000D02*
X0184700Y0028000D01*
X0188700Y0028000D02*
X0192700Y0032000D01*
X0192700Y0024000D01*
X0188700Y0028000D01*
X0182100Y0041100D02*
X0178100Y0041100D01*
X0182100Y0041100D02*
X0186100Y0045100D01*
X0186100Y0037100D01*
X0182100Y0041100D01*
X0175600Y0045600D02*
X0171600Y0045600D01*
X0175600Y0045600D02*
X0179600Y0049600D01*
X0179600Y0041600D01*
X0175600Y0045600D01*
X0173000Y0050000D02*
X0169000Y0050000D01*
X0173000Y0050000D02*
X0177000Y0054000D01*
X0177000Y0046000D01*
X0173000Y0050000D01*
X0174100Y0040200D02*
X0170100Y0040200D01*
X0174100Y0040200D02*
X0178100Y0044200D01*
X0178100Y0036200D01*
X0174100Y0040200D01*
X0176000Y0024800D02*
X0172000Y0024800D01*
X0176000Y0024800D02*
X0180000Y0028800D01*
X0180000Y0020800D01*
X0176000Y0024800D01*
X0173000Y0014000D02*
X0169000Y0014000D01*
X0173000Y0014000D02*
X0177000Y0018000D01*
X0177000Y0010000D01*
X0173000Y0014000D01*
X0181000Y0014000D02*
X0177000Y0014000D01*
X0181000Y0014000D02*
X0185000Y0018000D01*
X0185000Y0010000D01*
X0181000Y0014000D01*
X0194400Y0014000D02*
X0190400Y0014000D01*
X0194400Y0014000D02*
X0198400Y0018000D01*
X0198400Y0010000D01*
X0194400Y0014000D01*
X0161000Y0135000D02*
X0157000Y0135000D01*
X0161000Y0135000D02*
X0165000Y0139000D01*
X0165000Y0131000D01*
X0161000Y0135000D01*
X0161000Y0144600D02*
X0157000Y0144600D01*
X0161000Y0144600D02*
X0165000Y0148600D01*
X0165000Y0140600D01*
X0161000Y0144600D01*
X0161000Y0154600D02*
X0157000Y0154600D01*
X0161000Y0154600D02*
X0165000Y0158600D01*
X0165000Y0150600D01*
X0161000Y0154600D01*
X0161000Y0164600D02*
X0157000Y0164600D01*
X0161000Y0164600D02*
X0165000Y0168600D01*
X0165000Y0160600D01*
X0161000Y0164600D01*
X0161000Y0174600D02*
X0157000Y0174600D01*
X0161000Y0174600D02*
X0165000Y0178600D01*
X0165000Y0170600D01*
X0161000Y0174600D01*
X0161000Y0184600D02*
X0157000Y0184600D01*
X0161000Y0184600D02*
X0165000Y0188600D01*
X0165000Y0180600D01*
X0161000Y0184600D01*
X0161000Y0194200D02*
X0157000Y0194200D01*
X0161000Y0194200D02*
X0165000Y0198200D01*
X0165000Y0190200D01*
X0161000Y0194200D01*
X0161000Y0205000D02*
X0157000Y0205000D01*
X0161000Y0205000D02*
X0165000Y0209000D01*
X0165000Y0201000D01*
X0161000Y0205000D01*
X0161000Y0209000D02*
X0157000Y0209000D01*
X0161000Y0209000D02*
X0165000Y0213000D01*
X0165000Y0205000D01*
X0161000Y0209000D01*
X0161000Y0215000D02*
X0157000Y0215000D01*
X0161000Y0215000D02*
X0165000Y0219000D01*
X0165000Y0211000D01*
X0161000Y0215000D01*
X0166000Y0215000D02*
X0162000Y0215000D01*
X0166000Y0215000D02*
X0170000Y0219000D01*
X0170000Y0211000D01*
X0166000Y0215000D01*
X0171000Y0215000D02*
X0167000Y0215000D01*
X0171000Y0215000D02*
X0175000Y0219000D01*
X0175000Y0211000D01*
X0171000Y0215000D01*
X0176000Y0215000D02*
X0172000Y0215000D01*
X0176000Y0215000D02*
X0180000Y0219000D01*
X0180000Y0211000D01*
X0176000Y0215000D01*
X0181000Y0215000D02*
X0177000Y0215000D01*
X0181000Y0215000D02*
X0185000Y0219000D01*
X0185000Y0211000D01*
X0181000Y0215000D01*
X0186000Y0215000D02*
X0182000Y0215000D01*
X0186000Y0215000D02*
X0190000Y0219000D01*
X0190000Y0211000D01*
X0186000Y0215000D01*
X0183000Y0209000D02*
X0179000Y0209000D01*
X0183000Y0209000D02*
X0187000Y0213000D01*
X0187000Y0205000D01*
X0183000Y0209000D01*
X0179500Y0205500D02*
X0175500Y0205500D01*
X0179500Y0205500D02*
X0183500Y0209500D01*
X0183500Y0201500D01*
X0179500Y0205500D01*
X0173000Y0209000D02*
X0169000Y0209000D01*
X0173000Y0209000D02*
X0177000Y0213000D01*
X0177000Y0205000D01*
X0173000Y0209000D01*
X0172700Y0201000D02*
X0168700Y0201000D01*
X0172700Y0201000D02*
X0176700Y0205000D01*
X0176700Y0197000D01*
X0172700Y0201000D01*
X0174700Y0191800D02*
X0170700Y0191800D01*
X0174700Y0191800D02*
X0178700Y0195800D01*
X0178700Y0187800D01*
X0174700Y0191800D01*
X0173000Y0187000D02*
X0169000Y0187000D01*
X0173000Y0187000D02*
X0177000Y0191000D01*
X0177000Y0183000D01*
X0173000Y0187000D01*
X0183000Y0186900D02*
X0179000Y0186900D01*
X0183000Y0186900D02*
X0187000Y0190900D01*
X0187000Y0182900D01*
X0183000Y0186900D01*
X0183000Y0183400D02*
X0179000Y0183400D01*
X0183000Y0183400D02*
X0187000Y0187400D01*
X0187000Y0179400D01*
X0183000Y0183400D01*
X0183000Y0180000D02*
X0179000Y0180000D01*
X0183000Y0180000D02*
X0187000Y0184000D01*
X0187000Y0176000D01*
X0183000Y0180000D01*
X0183000Y0176500D02*
X0179000Y0176500D01*
X0183000Y0176500D02*
X0187000Y0180500D01*
X0187000Y0172500D01*
X0183000Y0176500D01*
X0183000Y0173100D02*
X0179000Y0173100D01*
X0183000Y0173100D02*
X0187000Y0177100D01*
X0187000Y0169100D01*
X0183000Y0173100D01*
X0186400Y0173100D02*
X0182400Y0173100D01*
X0186400Y0173100D02*
X0190400Y0177100D01*
X0190400Y0169100D01*
X0186400Y0173100D01*
X0186400Y0176500D02*
X0182400Y0176500D01*
X0186400Y0176500D02*
X0190400Y0180500D01*
X0190400Y0172500D01*
X0186400Y0176500D01*
X0186400Y0180000D02*
X0182400Y0180000D01*
X0186400Y0180000D02*
X0190400Y0184000D01*
X0190400Y0176000D01*
X0186400Y0180000D01*
X0186400Y0183400D02*
X0182400Y0183400D01*
X0186400Y0183400D02*
X0190400Y0187400D01*
X0190400Y0179400D01*
X0186400Y0183400D01*
X0186400Y0186900D02*
X0182400Y0186900D01*
X0186400Y0186900D02*
X0190400Y0190900D01*
X0190400Y0182900D01*
X0186400Y0186900D01*
X0189800Y0186900D02*
X0185800Y0186900D01*
X0189800Y0186900D02*
X0193800Y0190900D01*
X0193800Y0182900D01*
X0189800Y0186900D01*
X0189800Y0183400D02*
X0185800Y0183400D01*
X0189800Y0183400D02*
X0193800Y0187400D01*
X0193800Y0179400D01*
X0189800Y0183400D01*
X0189800Y0180000D02*
X0185800Y0180000D01*
X0189800Y0180000D02*
X0193800Y0184000D01*
X0193800Y0176000D01*
X0189800Y0180000D01*
X0189800Y0176500D02*
X0185800Y0176500D01*
X0189800Y0176500D02*
X0193800Y0180500D01*
X0193800Y0172500D01*
X0189800Y0176500D01*
X0189800Y0173100D02*
X0185800Y0173100D01*
X0189800Y0173100D02*
X0193800Y0177100D01*
X0193800Y0169100D01*
X0189800Y0173100D01*
X0193200Y0173100D02*
X0189200Y0173100D01*
X0193200Y0173100D02*
X0197200Y0177100D01*
X0197200Y0169100D01*
X0193200Y0173100D01*
X0196600Y0173100D02*
X0192600Y0173100D01*
X0196600Y0173100D02*
X0200600Y0177100D01*
X0200600Y0169100D01*
X0196600Y0173100D01*
X0196600Y0176500D02*
X0192600Y0176500D01*
X0196600Y0176500D02*
X0200600Y0180500D01*
X0200600Y0172500D01*
X0196600Y0176500D01*
X0193200Y0176500D02*
X0189200Y0176500D01*
X0193200Y0176500D02*
X0197200Y0180500D01*
X0197200Y0172500D01*
X0193200Y0176500D01*
X0193200Y0180000D02*
X0189200Y0180000D01*
X0193200Y0180000D02*
X0197200Y0184000D01*
X0197200Y0176000D01*
X0193200Y0180000D01*
X0196600Y0180000D02*
X0192600Y0180000D01*
X0196600Y0180000D02*
X0200600Y0184000D01*
X0200600Y0176000D01*
X0196600Y0180000D01*
X0196600Y0183400D02*
X0192600Y0183400D01*
X0196600Y0183400D02*
X0200600Y0187400D01*
X0200600Y0179400D01*
X0196600Y0183400D01*
X0193200Y0183400D02*
X0189200Y0183400D01*
X0193200Y0183400D02*
X0197200Y0187400D01*
X0197200Y0179400D01*
X0193200Y0183400D01*
X0193200Y0186900D02*
X0189200Y0186900D01*
X0193200Y0186900D02*
X0197200Y0190900D01*
X0197200Y0182900D01*
X0193200Y0186900D01*
X0196600Y0186900D02*
X0192600Y0186900D01*
X0196600Y0186900D02*
X0200600Y0190900D01*
X0200600Y0182900D01*
X0196600Y0186900D01*
X0208100Y0169300D02*
X0204100Y0169300D01*
X0208100Y0169300D02*
X0212100Y0173300D01*
X0212100Y0165300D01*
X0208100Y0169300D01*
X0212500Y0169500D02*
X0208500Y0169500D01*
X0212500Y0169500D02*
X0216500Y0173500D01*
X0216500Y0165500D01*
X0212500Y0169500D01*
X0213000Y0163500D02*
X0209000Y0163500D01*
X0213000Y0163500D02*
X0217000Y0167500D01*
X0217000Y0159500D01*
X0213000Y0163500D01*
X0213000Y0155000D02*
X0209000Y0155000D01*
X0213000Y0155000D02*
X0217000Y0159000D01*
X0217000Y0151000D01*
X0213000Y0155000D01*
X0213000Y0145000D02*
X0209000Y0145000D01*
X0213000Y0145000D02*
X0217000Y0149000D01*
X0217000Y0141000D01*
X0213000Y0145000D01*
X0212900Y0135000D02*
X0208900Y0135000D01*
X0212900Y0135000D02*
X0216900Y0139000D01*
X0216900Y0131000D01*
X0212900Y0135000D01*
X0225000Y0135000D02*
X0221000Y0135000D01*
X0225000Y0135000D02*
X0229000Y0139000D01*
X0229000Y0131000D01*
X0225000Y0135000D01*
X0225000Y0145000D02*
X0221000Y0145000D01*
X0225000Y0145000D02*
X0229000Y0149000D01*
X0229000Y0141000D01*
X0225000Y0145000D01*
X0225000Y0155000D02*
X0221000Y0155000D01*
X0225000Y0155000D02*
X0229000Y0159000D01*
X0229000Y0151000D01*
X0225000Y0155000D01*
X0225000Y0165000D02*
X0221000Y0165000D01*
X0225000Y0165000D02*
X0229000Y0169000D01*
X0229000Y0161000D01*
X0225000Y0165000D01*
X0225000Y0175000D02*
X0221000Y0175000D01*
X0225000Y0175000D02*
X0229000Y0179000D01*
X0229000Y0171000D01*
X0225000Y0175000D01*
X0225000Y0185000D02*
X0221000Y0185000D01*
X0225000Y0185000D02*
X0229000Y0189000D01*
X0229000Y0181000D01*
X0225000Y0185000D01*
X0225000Y0195000D02*
X0221000Y0195000D01*
X0225000Y0195000D02*
X0229000Y0199000D01*
X0229000Y0191000D01*
X0225000Y0195000D01*
X0225000Y0203000D02*
X0221000Y0203000D01*
X0225000Y0203000D02*
X0229000Y0207000D01*
X0229000Y0199000D01*
X0225000Y0203000D01*
X0225000Y0209000D02*
X0221000Y0209000D01*
X0225000Y0209000D02*
X0229000Y0213000D01*
X0229000Y0205000D01*
X0225000Y0209000D01*
X0224000Y0215000D02*
X0220000Y0215000D01*
X0224000Y0215000D02*
X0228000Y0219000D01*
X0228000Y0211000D01*
X0224000Y0215000D01*
X0219500Y0215000D02*
X0215500Y0215000D01*
X0219500Y0215000D02*
X0223500Y0219000D01*
X0223500Y0211000D01*
X0219500Y0215000D01*
X0215000Y0215000D02*
X0211000Y0215000D01*
X0215000Y0215000D02*
X0219000Y0219000D01*
X0219000Y0211000D01*
X0215000Y0215000D01*
X0211000Y0215000D02*
X0207000Y0215000D01*
X0211000Y0215000D02*
X0215000Y0219000D01*
X0215000Y0211000D01*
X0211000Y0215000D01*
X0196000Y0215000D02*
X0192000Y0215000D01*
X0196000Y0215000D02*
X0200000Y0219000D01*
X0200000Y0211000D01*
X0196000Y0215000D01*
X0191000Y0215000D02*
X0187000Y0215000D01*
X0191000Y0215000D02*
X0195000Y0219000D01*
X0195000Y0211000D01*
X0191000Y0215000D01*
X0213000Y0187000D02*
X0209000Y0187000D01*
X0213000Y0187000D02*
X0217000Y0191000D01*
X0217000Y0183000D01*
X0213000Y0187000D01*
X0196600Y0162100D02*
X0192600Y0162100D01*
X0196600Y0162100D02*
X0200600Y0166100D01*
X0200600Y0158100D01*
X0196600Y0162100D01*
X0202000Y0155000D02*
X0198000Y0155000D01*
X0202000Y0155000D02*
X0206000Y0159000D01*
X0206000Y0151000D01*
X0202000Y0155000D01*
X0196700Y0149000D02*
X0192700Y0149000D01*
X0196700Y0149000D02*
X0200700Y0153000D01*
X0200700Y0145000D01*
X0196700Y0149000D01*
X0194400Y0145000D02*
X0190400Y0145000D01*
X0194400Y0145000D02*
X0198400Y0149000D01*
X0198400Y0141000D01*
X0194400Y0145000D01*
X0188700Y0149000D02*
X0184700Y0149000D01*
X0188700Y0149000D02*
X0192700Y0153000D01*
X0192700Y0145000D01*
X0188700Y0149000D01*
X0182100Y0162100D02*
X0178100Y0162100D01*
X0182100Y0162100D02*
X0186100Y0166100D01*
X0186100Y0158100D01*
X0182100Y0162100D01*
X0175600Y0166600D02*
X0171600Y0166600D01*
X0175600Y0166600D02*
X0179600Y0170600D01*
X0179600Y0162600D01*
X0175600Y0166600D01*
X0173000Y0171000D02*
X0169000Y0171000D01*
X0173000Y0171000D02*
X0177000Y0175000D01*
X0177000Y0167000D01*
X0173000Y0171000D01*
X0174100Y0161200D02*
X0170100Y0161200D01*
X0174100Y0161200D02*
X0178100Y0165200D01*
X0178100Y0157200D01*
X0174100Y0161200D01*
X0176000Y0145800D02*
X0172000Y0145800D01*
X0176000Y0145800D02*
X0180000Y0149800D01*
X0180000Y0141800D01*
X0176000Y0145800D01*
X0173000Y0135000D02*
X0169000Y0135000D01*
X0173000Y0135000D02*
X0177000Y0139000D01*
X0177000Y0131000D01*
X0173000Y0135000D01*
X0181000Y0135000D02*
X0177000Y0135000D01*
X0181000Y0135000D02*
X0185000Y0139000D01*
X0185000Y0131000D01*
X0181000Y0135000D01*
X0194400Y0135000D02*
X0190400Y0135000D01*
X0194400Y0135000D02*
X0198400Y0139000D01*
X0198400Y0131000D01*
X0194400Y0135000D01*
X0161000Y0256000D02*
X0157000Y0256000D01*
X0161000Y0256000D02*
X0165000Y0260000D01*
X0165000Y0252000D01*
X0161000Y0256000D01*
X0161000Y0265600D02*
X0157000Y0265600D01*
X0161000Y0265600D02*
X0165000Y0269600D01*
X0165000Y0261600D01*
X0161000Y0265600D01*
X0161000Y0275600D02*
X0157000Y0275600D01*
X0161000Y0275600D02*
X0165000Y0279600D01*
X0165000Y0271600D01*
X0161000Y0275600D01*
X0161000Y0285600D02*
X0157000Y0285600D01*
X0161000Y0285600D02*
X0165000Y0289600D01*
X0165000Y0281600D01*
X0161000Y0285600D01*
X0161000Y0295600D02*
X0157000Y0295600D01*
X0161000Y0295600D02*
X0165000Y0299600D01*
X0165000Y0291600D01*
X0161000Y0295600D01*
X0161000Y0305600D02*
X0157000Y0305600D01*
X0161000Y0305600D02*
X0165000Y0309600D01*
X0165000Y0301600D01*
X0161000Y0305600D01*
X0161000Y0315200D02*
X0157000Y0315200D01*
X0161000Y0315200D02*
X0165000Y0319200D01*
X0165000Y0311200D01*
X0161000Y0315200D01*
X0161000Y0326000D02*
X0157000Y0326000D01*
X0161000Y0326000D02*
X0165000Y0330000D01*
X0165000Y0322000D01*
X0161000Y0326000D01*
X0161000Y0330000D02*
X0157000Y0330000D01*
X0161000Y0330000D02*
X0165000Y0334000D01*
X0165000Y0326000D01*
X0161000Y0330000D01*
X0161000Y0336000D02*
X0157000Y0336000D01*
X0161000Y0336000D02*
X0165000Y0340000D01*
X0165000Y0332000D01*
X0161000Y0336000D01*
X0166000Y0336000D02*
X0162000Y0336000D01*
X0166000Y0336000D02*
X0170000Y0340000D01*
X0170000Y0332000D01*
X0166000Y0336000D01*
X0171000Y0336000D02*
X0167000Y0336000D01*
X0171000Y0336000D02*
X0175000Y0340000D01*
X0175000Y0332000D01*
X0171000Y0336000D01*
X0176000Y0336000D02*
X0172000Y0336000D01*
X0176000Y0336000D02*
X0180000Y0340000D01*
X0180000Y0332000D01*
X0176000Y0336000D01*
X0181000Y0336000D02*
X0177000Y0336000D01*
X0181000Y0336000D02*
X0185000Y0340000D01*
X0185000Y0332000D01*
X0181000Y0336000D01*
X0186000Y0336000D02*
X0182000Y0336000D01*
X0186000Y0336000D02*
X0190000Y0340000D01*
X0190000Y0332000D01*
X0186000Y0336000D01*
X0183000Y0330000D02*
X0179000Y0330000D01*
X0183000Y0330000D02*
X0187000Y0334000D01*
X0187000Y0326000D01*
X0183000Y0330000D01*
X0179500Y0326500D02*
X0175500Y0326500D01*
X0179500Y0326500D02*
X0183500Y0330500D01*
X0183500Y0322500D01*
X0179500Y0326500D01*
X0173000Y0330000D02*
X0169000Y0330000D01*
X0173000Y0330000D02*
X0177000Y0334000D01*
X0177000Y0326000D01*
X0173000Y0330000D01*
X0172700Y0322000D02*
X0168700Y0322000D01*
X0172700Y0322000D02*
X0176700Y0326000D01*
X0176700Y0318000D01*
X0172700Y0322000D01*
X0174700Y0312800D02*
X0170700Y0312800D01*
X0174700Y0312800D02*
X0178700Y0316800D01*
X0178700Y0308800D01*
X0174700Y0312800D01*
X0173000Y0308000D02*
X0169000Y0308000D01*
X0173000Y0308000D02*
X0177000Y0312000D01*
X0177000Y0304000D01*
X0173000Y0308000D01*
X0183000Y0307900D02*
X0179000Y0307900D01*
X0183000Y0307900D02*
X0187000Y0311900D01*
X0187000Y0303900D01*
X0183000Y0307900D01*
X0183000Y0304400D02*
X0179000Y0304400D01*
X0183000Y0304400D02*
X0187000Y0308400D01*
X0187000Y0300400D01*
X0183000Y0304400D01*
X0183000Y0301000D02*
X0179000Y0301000D01*
X0183000Y0301000D02*
X0187000Y0305000D01*
X0187000Y0297000D01*
X0183000Y0301000D01*
X0183000Y0297500D02*
X0179000Y0297500D01*
X0183000Y0297500D02*
X0187000Y0301500D01*
X0187000Y0293500D01*
X0183000Y0297500D01*
X0183000Y0294100D02*
X0179000Y0294100D01*
X0183000Y0294100D02*
X0187000Y0298100D01*
X0187000Y0290100D01*
X0183000Y0294100D01*
X0186400Y0294100D02*
X0182400Y0294100D01*
X0186400Y0294100D02*
X0190400Y0298100D01*
X0190400Y0290100D01*
X0186400Y0294100D01*
X0186400Y0297500D02*
X0182400Y0297500D01*
X0186400Y0297500D02*
X0190400Y0301500D01*
X0190400Y0293500D01*
X0186400Y0297500D01*
X0186400Y0301000D02*
X0182400Y0301000D01*
X0186400Y0301000D02*
X0190400Y0305000D01*
X0190400Y0297000D01*
X0186400Y0301000D01*
X0186400Y0304400D02*
X0182400Y0304400D01*
X0186400Y0304400D02*
X0190400Y0308400D01*
X0190400Y0300400D01*
X0186400Y0304400D01*
X0186400Y0307900D02*
X0182400Y0307900D01*
X0186400Y0307900D02*
X0190400Y0311900D01*
X0190400Y0303900D01*
X0186400Y0307900D01*
X0189800Y0307900D02*
X0185800Y0307900D01*
X0189800Y0307900D02*
X0193800Y0311900D01*
X0193800Y0303900D01*
X0189800Y0307900D01*
X0189800Y0304400D02*
X0185800Y0304400D01*
X0189800Y0304400D02*
X0193800Y0308400D01*
X0193800Y0300400D01*
X0189800Y0304400D01*
X0189800Y0301000D02*
X0185800Y0301000D01*
X0189800Y0301000D02*
X0193800Y0305000D01*
X0193800Y0297000D01*
X0189800Y0301000D01*
X0189800Y0297500D02*
X0185800Y0297500D01*
X0189800Y0297500D02*
X0193800Y0301500D01*
X0193800Y0293500D01*
X0189800Y0297500D01*
X0189800Y0294100D02*
X0185800Y0294100D01*
X0189800Y0294100D02*
X0193800Y0298100D01*
X0193800Y0290100D01*
X0189800Y0294100D01*
X0193200Y0294100D02*
X0189200Y0294100D01*
X0193200Y0294100D02*
X0197200Y0298100D01*
X0197200Y0290100D01*
X0193200Y0294100D01*
X0196600Y0294100D02*
X0192600Y0294100D01*
X0196600Y0294100D02*
X0200600Y0298100D01*
X0200600Y0290100D01*
X0196600Y0294100D01*
X0196600Y0297500D02*
X0192600Y0297500D01*
X0196600Y0297500D02*
X0200600Y0301500D01*
X0200600Y0293500D01*
X0196600Y0297500D01*
X0193200Y0297500D02*
X0189200Y0297500D01*
X0193200Y0297500D02*
X0197200Y0301500D01*
X0197200Y0293500D01*
X0193200Y0297500D01*
X0193200Y0301000D02*
X0189200Y0301000D01*
X0193200Y0301000D02*
X0197200Y0305000D01*
X0197200Y0297000D01*
X0193200Y0301000D01*
X0196600Y0301000D02*
X0192600Y0301000D01*
X0196600Y0301000D02*
X0200600Y0305000D01*
X0200600Y0297000D01*
X0196600Y0301000D01*
X0196600Y0304400D02*
X0192600Y0304400D01*
X0196600Y0304400D02*
X0200600Y0308400D01*
X0200600Y0300400D01*
X0196600Y0304400D01*
X0193200Y0304400D02*
X0189200Y0304400D01*
X0193200Y0304400D02*
X0197200Y0308400D01*
X0197200Y0300400D01*
X0193200Y0304400D01*
X0193200Y0307900D02*
X0189200Y0307900D01*
X0193200Y0307900D02*
X0197200Y0311900D01*
X0197200Y0303900D01*
X0193200Y0307900D01*
X0196600Y0307900D02*
X0192600Y0307900D01*
X0196600Y0307900D02*
X0200600Y0311900D01*
X0200600Y0303900D01*
X0196600Y0307900D01*
X0208100Y0290300D02*
X0204100Y0290300D01*
X0208100Y0290300D02*
X0212100Y0294300D01*
X0212100Y0286300D01*
X0208100Y0290300D01*
X0212500Y0290500D02*
X0208500Y0290500D01*
X0212500Y0290500D02*
X0216500Y0294500D01*
X0216500Y0286500D01*
X0212500Y0290500D01*
X0213000Y0284500D02*
X0209000Y0284500D01*
X0213000Y0284500D02*
X0217000Y0288500D01*
X0217000Y0280500D01*
X0213000Y0284500D01*
X0213000Y0276000D02*
X0209000Y0276000D01*
X0213000Y0276000D02*
X0217000Y0280000D01*
X0217000Y0272000D01*
X0213000Y0276000D01*
X0213000Y0266000D02*
X0209000Y0266000D01*
X0213000Y0266000D02*
X0217000Y0270000D01*
X0217000Y0262000D01*
X0213000Y0266000D01*
X0212900Y0256000D02*
X0208900Y0256000D01*
X0212900Y0256000D02*
X0216900Y0260000D01*
X0216900Y0252000D01*
X0212900Y0256000D01*
X0225000Y0256000D02*
X0221000Y0256000D01*
X0225000Y0256000D02*
X0229000Y0260000D01*
X0229000Y0252000D01*
X0225000Y0256000D01*
X0225000Y0266000D02*
X0221000Y0266000D01*
X0225000Y0266000D02*
X0229000Y0270000D01*
X0229000Y0262000D01*
X0225000Y0266000D01*
X0225000Y0276000D02*
X0221000Y0276000D01*
X0225000Y0276000D02*
X0229000Y0280000D01*
X0229000Y0272000D01*
X0225000Y0276000D01*
X0225000Y0286000D02*
X0221000Y0286000D01*
X0225000Y0286000D02*
X0229000Y0290000D01*
X0229000Y0282000D01*
X0225000Y0286000D01*
X0225000Y0296000D02*
X0221000Y0296000D01*
X0225000Y0296000D02*
X0229000Y0300000D01*
X0229000Y0292000D01*
X0225000Y0296000D01*
X0225000Y0306000D02*
X0221000Y0306000D01*
X0225000Y0306000D02*
X0229000Y0310000D01*
X0229000Y0302000D01*
X0225000Y0306000D01*
X0225000Y0316000D02*
X0221000Y0316000D01*
X0225000Y0316000D02*
X0229000Y0320000D01*
X0229000Y0312000D01*
X0225000Y0316000D01*
X0225000Y0324000D02*
X0221000Y0324000D01*
X0225000Y0324000D02*
X0229000Y0328000D01*
X0229000Y0320000D01*
X0225000Y0324000D01*
X0225000Y0330000D02*
X0221000Y0330000D01*
X0225000Y0330000D02*
X0229000Y0334000D01*
X0229000Y0326000D01*
X0225000Y0330000D01*
X0224000Y0336000D02*
X0220000Y0336000D01*
X0224000Y0336000D02*
X0228000Y0340000D01*
X0228000Y0332000D01*
X0224000Y0336000D01*
X0219500Y0336000D02*
X0215500Y0336000D01*
X0219500Y0336000D02*
X0223500Y0340000D01*
X0223500Y0332000D01*
X0219500Y0336000D01*
X0215000Y0336000D02*
X0211000Y0336000D01*
X0215000Y0336000D02*
X0219000Y0340000D01*
X0219000Y0332000D01*
X0215000Y0336000D01*
X0211000Y0336000D02*
X0207000Y0336000D01*
X0211000Y0336000D02*
X0215000Y0340000D01*
X0215000Y0332000D01*
X0211000Y0336000D01*
X0196000Y0336000D02*
X0192000Y0336000D01*
X0196000Y0336000D02*
X0200000Y0340000D01*
X0200000Y0332000D01*
X0196000Y0336000D01*
X0191000Y0336000D02*
X0187000Y0336000D01*
X0191000Y0336000D02*
X0195000Y0340000D01*
X0195000Y0332000D01*
X0191000Y0336000D01*
X0213000Y0308000D02*
X0209000Y0308000D01*
X0213000Y0308000D02*
X0217000Y0312000D01*
X0217000Y0304000D01*
X0213000Y0308000D01*
X0196600Y0283100D02*
X0192600Y0283100D01*
X0196600Y0283100D02*
X0200600Y0287100D01*
X0200600Y0279100D01*
X0196600Y0283100D01*
X0202000Y0276000D02*
X0198000Y0276000D01*
X0202000Y0276000D02*
X0206000Y0280000D01*
X0206000Y0272000D01*
X0202000Y0276000D01*
X0196700Y0270000D02*
X0192700Y0270000D01*
X0196700Y0270000D02*
X0200700Y0274000D01*
X0200700Y0266000D01*
X0196700Y0270000D01*
X0194400Y0266000D02*
X0190400Y0266000D01*
X0194400Y0266000D02*
X0198400Y0270000D01*
X0198400Y0262000D01*
X0194400Y0266000D01*
X0188700Y0270000D02*
X0184700Y0270000D01*
X0188700Y0270000D02*
X0192700Y0274000D01*
X0192700Y0266000D01*
X0188700Y0270000D01*
X0182100Y0283100D02*
X0178100Y0283100D01*
X0182100Y0283100D02*
X0186100Y0287100D01*
X0186100Y0279100D01*
X0182100Y0283100D01*
X0175600Y0287600D02*
X0171600Y0287600D01*
X0175600Y0287600D02*
X0179600Y0291600D01*
X0179600Y0283600D01*
X0175600Y0287600D01*
X0173000Y0292000D02*
X0169000Y0292000D01*
X0173000Y0292000D02*
X0177000Y0296000D01*
X0177000Y0288000D01*
X0173000Y0292000D01*
X0174100Y0282200D02*
X0170100Y0282200D01*
X0174100Y0282200D02*
X0178100Y0286200D01*
X0178100Y0278200D01*
X0174100Y0282200D01*
X0176000Y0266800D02*
X0172000Y0266800D01*
X0176000Y0266800D02*
X0180000Y0270800D01*
X0180000Y0262800D01*
X0176000Y0266800D01*
X0173000Y0256000D02*
X0169000Y0256000D01*
X0173000Y0256000D02*
X0177000Y0260000D01*
X0177000Y0252000D01*
X0173000Y0256000D01*
X0181000Y0256000D02*
X0177000Y0256000D01*
X0181000Y0256000D02*
X0185000Y0260000D01*
X0185000Y0252000D01*
X0181000Y0256000D01*
X0194400Y0256000D02*
X0190400Y0256000D01*
X0194400Y0256000D02*
X0198400Y0260000D01*
X0198400Y0252000D01*
X0194400Y0256000D01*
X0233500Y0014000D02*
X0229500Y0014000D01*
X0233500Y0014000D02*
X0237500Y0018000D01*
X0237500Y0010000D01*
X0233500Y0014000D01*
X0233500Y0023600D02*
X0229500Y0023600D01*
X0233500Y0023600D02*
X0237500Y0027600D01*
X0237500Y0019600D01*
X0233500Y0023600D01*
X0233500Y0033600D02*
X0229500Y0033600D01*
X0233500Y0033600D02*
X0237500Y0037600D01*
X0237500Y0029600D01*
X0233500Y0033600D01*
X0233500Y0043600D02*
X0229500Y0043600D01*
X0233500Y0043600D02*
X0237500Y0047600D01*
X0237500Y0039600D01*
X0233500Y0043600D01*
X0233500Y0053600D02*
X0229500Y0053600D01*
X0233500Y0053600D02*
X0237500Y0057600D01*
X0237500Y0049600D01*
X0233500Y0053600D01*
X0233500Y0063600D02*
X0229500Y0063600D01*
X0233500Y0063600D02*
X0237500Y0067600D01*
X0237500Y0059600D01*
X0233500Y0063600D01*
X0233500Y0073200D02*
X0229500Y0073200D01*
X0233500Y0073200D02*
X0237500Y0077200D01*
X0237500Y0069200D01*
X0233500Y0073200D01*
X0233500Y0084000D02*
X0229500Y0084000D01*
X0233500Y0084000D02*
X0237500Y0088000D01*
X0237500Y0080000D01*
X0233500Y0084000D01*
X0233500Y0088000D02*
X0229500Y0088000D01*
X0233500Y0088000D02*
X0237500Y0092000D01*
X0237500Y0084000D01*
X0233500Y0088000D01*
X0233500Y0094000D02*
X0229500Y0094000D01*
X0233500Y0094000D02*
X0237500Y0098000D01*
X0237500Y0090000D01*
X0233500Y0094000D01*
X0238500Y0094000D02*
X0234500Y0094000D01*
X0238500Y0094000D02*
X0242500Y0098000D01*
X0242500Y0090000D01*
X0238500Y0094000D01*
X0243500Y0094000D02*
X0239500Y0094000D01*
X0243500Y0094000D02*
X0247500Y0098000D01*
X0247500Y0090000D01*
X0243500Y0094000D01*
X0248500Y0094000D02*
X0244500Y0094000D01*
X0248500Y0094000D02*
X0252500Y0098000D01*
X0252500Y0090000D01*
X0248500Y0094000D01*
X0253500Y0094000D02*
X0249500Y0094000D01*
X0253500Y0094000D02*
X0257500Y0098000D01*
X0257500Y0090000D01*
X0253500Y0094000D01*
X0258500Y0094000D02*
X0254500Y0094000D01*
X0258500Y0094000D02*
X0262500Y0098000D01*
X0262500Y0090000D01*
X0258500Y0094000D01*
X0255500Y0088000D02*
X0251500Y0088000D01*
X0255500Y0088000D02*
X0259500Y0092000D01*
X0259500Y0084000D01*
X0255500Y0088000D01*
X0252000Y0084500D02*
X0248000Y0084500D01*
X0252000Y0084500D02*
X0256000Y0088500D01*
X0256000Y0080500D01*
X0252000Y0084500D01*
X0245500Y0088000D02*
X0241500Y0088000D01*
X0245500Y0088000D02*
X0249500Y0092000D01*
X0249500Y0084000D01*
X0245500Y0088000D01*
X0245200Y0080000D02*
X0241200Y0080000D01*
X0245200Y0080000D02*
X0249200Y0084000D01*
X0249200Y0076000D01*
X0245200Y0080000D01*
X0247200Y0070800D02*
X0243200Y0070800D01*
X0247200Y0070800D02*
X0251200Y0074800D01*
X0251200Y0066800D01*
X0247200Y0070800D01*
X0245500Y0066000D02*
X0241500Y0066000D01*
X0245500Y0066000D02*
X0249500Y0070000D01*
X0249500Y0062000D01*
X0245500Y0066000D01*
X0255500Y0065900D02*
X0251500Y0065900D01*
X0255500Y0065900D02*
X0259500Y0069900D01*
X0259500Y0061900D01*
X0255500Y0065900D01*
X0255500Y0062400D02*
X0251500Y0062400D01*
X0255500Y0062400D02*
X0259500Y0066400D01*
X0259500Y0058400D01*
X0255500Y0062400D01*
X0255500Y0059000D02*
X0251500Y0059000D01*
X0255500Y0059000D02*
X0259500Y0063000D01*
X0259500Y0055000D01*
X0255500Y0059000D01*
X0255500Y0055500D02*
X0251500Y0055500D01*
X0255500Y0055500D02*
X0259500Y0059500D01*
X0259500Y0051500D01*
X0255500Y0055500D01*
X0255500Y0052100D02*
X0251500Y0052100D01*
X0255500Y0052100D02*
X0259500Y0056100D01*
X0259500Y0048100D01*
X0255500Y0052100D01*
X0258900Y0052100D02*
X0254900Y0052100D01*
X0258900Y0052100D02*
X0262900Y0056100D01*
X0262900Y0048100D01*
X0258900Y0052100D01*
X0258900Y0055500D02*
X0254900Y0055500D01*
X0258900Y0055500D02*
X0262900Y0059500D01*
X0262900Y0051500D01*
X0258900Y0055500D01*
X0258900Y0059000D02*
X0254900Y0059000D01*
X0258900Y0059000D02*
X0262900Y0063000D01*
X0262900Y0055000D01*
X0258900Y0059000D01*
X0258900Y0062400D02*
X0254900Y0062400D01*
X0258900Y0062400D02*
X0262900Y0066400D01*
X0262900Y0058400D01*
X0258900Y0062400D01*
X0258900Y0065900D02*
X0254900Y0065900D01*
X0258900Y0065900D02*
X0262900Y0069900D01*
X0262900Y0061900D01*
X0258900Y0065900D01*
X0262300Y0065900D02*
X0258300Y0065900D01*
X0262300Y0065900D02*
X0266300Y0069900D01*
X0266300Y0061900D01*
X0262300Y0065900D01*
X0262300Y0062400D02*
X0258300Y0062400D01*
X0262300Y0062400D02*
X0266300Y0066400D01*
X0266300Y0058400D01*
X0262300Y0062400D01*
X0262300Y0059000D02*
X0258300Y0059000D01*
X0262300Y0059000D02*
X0266300Y0063000D01*
X0266300Y0055000D01*
X0262300Y0059000D01*
X0262300Y0055500D02*
X0258300Y0055500D01*
X0262300Y0055500D02*
X0266300Y0059500D01*
X0266300Y0051500D01*
X0262300Y0055500D01*
X0262300Y0052100D02*
X0258300Y0052100D01*
X0262300Y0052100D02*
X0266300Y0056100D01*
X0266300Y0048100D01*
X0262300Y0052100D01*
X0265700Y0052100D02*
X0261700Y0052100D01*
X0265700Y0052100D02*
X0269700Y0056100D01*
X0269700Y0048100D01*
X0265700Y0052100D01*
X0269100Y0052100D02*
X0265100Y0052100D01*
X0269100Y0052100D02*
X0273100Y0056100D01*
X0273100Y0048100D01*
X0269100Y0052100D01*
X0269100Y0055500D02*
X0265100Y0055500D01*
X0269100Y0055500D02*
X0273100Y0059500D01*
X0273100Y0051500D01*
X0269100Y0055500D01*
X0265700Y0055500D02*
X0261700Y0055500D01*
X0265700Y0055500D02*
X0269700Y0059500D01*
X0269700Y0051500D01*
X0265700Y0055500D01*
X0265700Y0059000D02*
X0261700Y0059000D01*
X0265700Y0059000D02*
X0269700Y0063000D01*
X0269700Y0055000D01*
X0265700Y0059000D01*
X0269100Y0059000D02*
X0265100Y0059000D01*
X0269100Y0059000D02*
X0273100Y0063000D01*
X0273100Y0055000D01*
X0269100Y0059000D01*
X0269100Y0062400D02*
X0265100Y0062400D01*
X0269100Y0062400D02*
X0273100Y0066400D01*
X0273100Y0058400D01*
X0269100Y0062400D01*
X0265700Y0062400D02*
X0261700Y0062400D01*
X0265700Y0062400D02*
X0269700Y0066400D01*
X0269700Y0058400D01*
X0265700Y0062400D01*
X0265700Y0065900D02*
X0261700Y0065900D01*
X0265700Y0065900D02*
X0269700Y0069900D01*
X0269700Y0061900D01*
X0265700Y0065900D01*
X0269100Y0065900D02*
X0265100Y0065900D01*
X0269100Y0065900D02*
X0273100Y0069900D01*
X0273100Y0061900D01*
X0269100Y0065900D01*
X0280600Y0048300D02*
X0276600Y0048300D01*
X0280600Y0048300D02*
X0284600Y0052300D01*
X0284600Y0044300D01*
X0280600Y0048300D01*
X0285000Y0048500D02*
X0281000Y0048500D01*
X0285000Y0048500D02*
X0289000Y0052500D01*
X0289000Y0044500D01*
X0285000Y0048500D01*
X0285500Y0042500D02*
X0281500Y0042500D01*
X0285500Y0042500D02*
X0289500Y0046500D01*
X0289500Y0038500D01*
X0285500Y0042500D01*
X0285500Y0034000D02*
X0281500Y0034000D01*
X0285500Y0034000D02*
X0289500Y0038000D01*
X0289500Y0030000D01*
X0285500Y0034000D01*
X0285500Y0024000D02*
X0281500Y0024000D01*
X0285500Y0024000D02*
X0289500Y0028000D01*
X0289500Y0020000D01*
X0285500Y0024000D01*
X0285400Y0014000D02*
X0281400Y0014000D01*
X0285400Y0014000D02*
X0289400Y0018000D01*
X0289400Y0010000D01*
X0285400Y0014000D01*
X0297500Y0014000D02*
X0293500Y0014000D01*
X0297500Y0014000D02*
X0301500Y0018000D01*
X0301500Y0010000D01*
X0297500Y0014000D01*
X0297500Y0024000D02*
X0293500Y0024000D01*
X0297500Y0024000D02*
X0301500Y0028000D01*
X0301500Y0020000D01*
X0297500Y0024000D01*
X0297500Y0034000D02*
X0293500Y0034000D01*
X0297500Y0034000D02*
X0301500Y0038000D01*
X0301500Y0030000D01*
X0297500Y0034000D01*
X0297500Y0044000D02*
X0293500Y0044000D01*
X0297500Y0044000D02*
X0301500Y0048000D01*
X0301500Y0040000D01*
X0297500Y0044000D01*
X0297500Y0054000D02*
X0293500Y0054000D01*
X0297500Y0054000D02*
X0301500Y0058000D01*
X0301500Y0050000D01*
X0297500Y0054000D01*
X0297500Y0064000D02*
X0293500Y0064000D01*
X0297500Y0064000D02*
X0301500Y0068000D01*
X0301500Y0060000D01*
X0297500Y0064000D01*
X0297500Y0074000D02*
X0293500Y0074000D01*
X0297500Y0074000D02*
X0301500Y0078000D01*
X0301500Y0070000D01*
X0297500Y0074000D01*
X0297500Y0082000D02*
X0293500Y0082000D01*
X0297500Y0082000D02*
X0301500Y0086000D01*
X0301500Y0078000D01*
X0297500Y0082000D01*
X0297500Y0088000D02*
X0293500Y0088000D01*
X0297500Y0088000D02*
X0301500Y0092000D01*
X0301500Y0084000D01*
X0297500Y0088000D01*
X0296500Y0094000D02*
X0292500Y0094000D01*
X0296500Y0094000D02*
X0300500Y0098000D01*
X0300500Y0090000D01*
X0296500Y0094000D01*
X0292000Y0094000D02*
X0288000Y0094000D01*
X0292000Y0094000D02*
X0296000Y0098000D01*
X0296000Y0090000D01*
X0292000Y0094000D01*
X0287500Y0094000D02*
X0283500Y0094000D01*
X0287500Y0094000D02*
X0291500Y0098000D01*
X0291500Y0090000D01*
X0287500Y0094000D01*
X0283500Y0094000D02*
X0279500Y0094000D01*
X0283500Y0094000D02*
X0287500Y0098000D01*
X0287500Y0090000D01*
X0283500Y0094000D01*
X0268500Y0094000D02*
X0264500Y0094000D01*
X0268500Y0094000D02*
X0272500Y0098000D01*
X0272500Y0090000D01*
X0268500Y0094000D01*
X0263500Y0094000D02*
X0259500Y0094000D01*
X0263500Y0094000D02*
X0267500Y0098000D01*
X0267500Y0090000D01*
X0263500Y0094000D01*
X0285500Y0066000D02*
X0281500Y0066000D01*
X0285500Y0066000D02*
X0289500Y0070000D01*
X0289500Y0062000D01*
X0285500Y0066000D01*
X0269100Y0041100D02*
X0265100Y0041100D01*
X0269100Y0041100D02*
X0273100Y0045100D01*
X0273100Y0037100D01*
X0269100Y0041100D01*
X0274500Y0034000D02*
X0270500Y0034000D01*
X0274500Y0034000D02*
X0278500Y0038000D01*
X0278500Y0030000D01*
X0274500Y0034000D01*
X0269200Y0028000D02*
X0265200Y0028000D01*
X0269200Y0028000D02*
X0273200Y0032000D01*
X0273200Y0024000D01*
X0269200Y0028000D01*
X0266900Y0024000D02*
X0262900Y0024000D01*
X0266900Y0024000D02*
X0270900Y0028000D01*
X0270900Y0020000D01*
X0266900Y0024000D01*
X0261200Y0028000D02*
X0257200Y0028000D01*
X0261200Y0028000D02*
X0265200Y0032000D01*
X0265200Y0024000D01*
X0261200Y0028000D01*
X0254600Y0041100D02*
X0250600Y0041100D01*
X0254600Y0041100D02*
X0258600Y0045100D01*
X0258600Y0037100D01*
X0254600Y0041100D01*
X0248100Y0045600D02*
X0244100Y0045600D01*
X0248100Y0045600D02*
X0252100Y0049600D01*
X0252100Y0041600D01*
X0248100Y0045600D01*
X0245500Y0050000D02*
X0241500Y0050000D01*
X0245500Y0050000D02*
X0249500Y0054000D01*
X0249500Y0046000D01*
X0245500Y0050000D01*
X0246600Y0040200D02*
X0242600Y0040200D01*
X0246600Y0040200D02*
X0250600Y0044200D01*
X0250600Y0036200D01*
X0246600Y0040200D01*
X0248500Y0024800D02*
X0244500Y0024800D01*
X0248500Y0024800D02*
X0252500Y0028800D01*
X0252500Y0020800D01*
X0248500Y0024800D01*
X0245500Y0014000D02*
X0241500Y0014000D01*
X0245500Y0014000D02*
X0249500Y0018000D01*
X0249500Y0010000D01*
X0245500Y0014000D01*
X0253500Y0014000D02*
X0249500Y0014000D01*
X0253500Y0014000D02*
X0257500Y0018000D01*
X0257500Y0010000D01*
X0253500Y0014000D01*
X0266900Y0014000D02*
X0262900Y0014000D01*
X0266900Y0014000D02*
X0270900Y0018000D01*
X0270900Y0010000D01*
X0266900Y0014000D01*
X0233500Y0135000D02*
X0229500Y0135000D01*
X0233500Y0135000D02*
X0237500Y0139000D01*
X0237500Y0131000D01*
X0233500Y0135000D01*
X0233500Y0144600D02*
X0229500Y0144600D01*
X0233500Y0144600D02*
X0237500Y0148600D01*
X0237500Y0140600D01*
X0233500Y0144600D01*
X0233500Y0154600D02*
X0229500Y0154600D01*
X0233500Y0154600D02*
X0237500Y0158600D01*
X0237500Y0150600D01*
X0233500Y0154600D01*
X0233500Y0164600D02*
X0229500Y0164600D01*
X0233500Y0164600D02*
X0237500Y0168600D01*
X0237500Y0160600D01*
X0233500Y0164600D01*
X0233500Y0174600D02*
X0229500Y0174600D01*
X0233500Y0174600D02*
X0237500Y0178600D01*
X0237500Y0170600D01*
X0233500Y0174600D01*
X0233500Y0184600D02*
X0229500Y0184600D01*
X0233500Y0184600D02*
X0237500Y0188600D01*
X0237500Y0180600D01*
X0233500Y0184600D01*
X0233500Y0194200D02*
X0229500Y0194200D01*
X0233500Y0194200D02*
X0237500Y0198200D01*
X0237500Y0190200D01*
X0233500Y0194200D01*
X0233500Y0205000D02*
X0229500Y0205000D01*
X0233500Y0205000D02*
X0237500Y0209000D01*
X0237500Y0201000D01*
X0233500Y0205000D01*
X0233500Y0209000D02*
X0229500Y0209000D01*
X0233500Y0209000D02*
X0237500Y0213000D01*
X0237500Y0205000D01*
X0233500Y0209000D01*
X0233500Y0215000D02*
X0229500Y0215000D01*
X0233500Y0215000D02*
X0237500Y0219000D01*
X0237500Y0211000D01*
X0233500Y0215000D01*
X0238500Y0215000D02*
X0234500Y0215000D01*
X0238500Y0215000D02*
X0242500Y0219000D01*
X0242500Y0211000D01*
X0238500Y0215000D01*
X0243500Y0215000D02*
X0239500Y0215000D01*
X0243500Y0215000D02*
X0247500Y0219000D01*
X0247500Y0211000D01*
X0243500Y0215000D01*
X0248500Y0215000D02*
X0244500Y0215000D01*
X0248500Y0215000D02*
X0252500Y0219000D01*
X0252500Y0211000D01*
X0248500Y0215000D01*
X0253500Y0215000D02*
X0249500Y0215000D01*
X0253500Y0215000D02*
X0257500Y0219000D01*
X0257500Y0211000D01*
X0253500Y0215000D01*
X0258500Y0215000D02*
X0254500Y0215000D01*
X0258500Y0215000D02*
X0262500Y0219000D01*
X0262500Y0211000D01*
X0258500Y0215000D01*
X0255500Y0209000D02*
X0251500Y0209000D01*
X0255500Y0209000D02*
X0259500Y0213000D01*
X0259500Y0205000D01*
X0255500Y0209000D01*
X0252000Y0205500D02*
X0248000Y0205500D01*
X0252000Y0205500D02*
X0256000Y0209500D01*
X0256000Y0201500D01*
X0252000Y0205500D01*
X0245500Y0209000D02*
X0241500Y0209000D01*
X0245500Y0209000D02*
X0249500Y0213000D01*
X0249500Y0205000D01*
X0245500Y0209000D01*
X0245200Y0201000D02*
X0241200Y0201000D01*
X0245200Y0201000D02*
X0249200Y0205000D01*
X0249200Y0197000D01*
X0245200Y0201000D01*
X0247200Y0191800D02*
X0243200Y0191800D01*
X0247200Y0191800D02*
X0251200Y0195800D01*
X0251200Y0187800D01*
X0247200Y0191800D01*
X0245500Y0187000D02*
X0241500Y0187000D01*
X0245500Y0187000D02*
X0249500Y0191000D01*
X0249500Y0183000D01*
X0245500Y0187000D01*
X0255500Y0186900D02*
X0251500Y0186900D01*
X0255500Y0186900D02*
X0259500Y0190900D01*
X0259500Y0182900D01*
X0255500Y0186900D01*
X0255500Y0183400D02*
X0251500Y0183400D01*
X0255500Y0183400D02*
X0259500Y0187400D01*
X0259500Y0179400D01*
X0255500Y0183400D01*
X0255500Y0180000D02*
X0251500Y0180000D01*
X0255500Y0180000D02*
X0259500Y0184000D01*
X0259500Y0176000D01*
X0255500Y0180000D01*
X0255500Y0176500D02*
X0251500Y0176500D01*
X0255500Y0176500D02*
X0259500Y0180500D01*
X0259500Y0172500D01*
X0255500Y0176500D01*
X0255500Y0173100D02*
X0251500Y0173100D01*
X0255500Y0173100D02*
X0259500Y0177100D01*
X0259500Y0169100D01*
X0255500Y0173100D01*
X0258900Y0173100D02*
X0254900Y0173100D01*
X0258900Y0173100D02*
X0262900Y0177100D01*
X0262900Y0169100D01*
X0258900Y0173100D01*
X0258900Y0176500D02*
X0254900Y0176500D01*
X0258900Y0176500D02*
X0262900Y0180500D01*
X0262900Y0172500D01*
X0258900Y0176500D01*
X0258900Y0180000D02*
X0254900Y0180000D01*
X0258900Y0180000D02*
X0262900Y0184000D01*
X0262900Y0176000D01*
X0258900Y0180000D01*
X0258900Y0183400D02*
X0254900Y0183400D01*
X0258900Y0183400D02*
X0262900Y0187400D01*
X0262900Y0179400D01*
X0258900Y0183400D01*
X0258900Y0186900D02*
X0254900Y0186900D01*
X0258900Y0186900D02*
X0262900Y0190900D01*
X0262900Y0182900D01*
X0258900Y0186900D01*
X0262300Y0186900D02*
X0258300Y0186900D01*
X0262300Y0186900D02*
X0266300Y0190900D01*
X0266300Y0182900D01*
X0262300Y0186900D01*
X0262300Y0183400D02*
X0258300Y0183400D01*
X0262300Y0183400D02*
X0266300Y0187400D01*
X0266300Y0179400D01*
X0262300Y0183400D01*
X0262300Y0180000D02*
X0258300Y0180000D01*
X0262300Y0180000D02*
X0266300Y0184000D01*
X0266300Y0176000D01*
X0262300Y0180000D01*
X0262300Y0176500D02*
X0258300Y0176500D01*
X0262300Y0176500D02*
X0266300Y0180500D01*
X0266300Y0172500D01*
X0262300Y0176500D01*
X0262300Y0173100D02*
X0258300Y0173100D01*
X0262300Y0173100D02*
X0266300Y0177100D01*
X0266300Y0169100D01*
X0262300Y0173100D01*
X0265700Y0173100D02*
X0261700Y0173100D01*
X0265700Y0173100D02*
X0269700Y0177100D01*
X0269700Y0169100D01*
X0265700Y0173100D01*
X0269100Y0173100D02*
X0265100Y0173100D01*
X0269100Y0173100D02*
X0273100Y0177100D01*
X0273100Y0169100D01*
X0269100Y0173100D01*
X0269100Y0176500D02*
X0265100Y0176500D01*
X0269100Y0176500D02*
X0273100Y0180500D01*
X0273100Y0172500D01*
X0269100Y0176500D01*
X0265700Y0176500D02*
X0261700Y0176500D01*
X0265700Y0176500D02*
X0269700Y0180500D01*
X0269700Y0172500D01*
X0265700Y0176500D01*
X0265700Y0180000D02*
X0261700Y0180000D01*
X0265700Y0180000D02*
X0269700Y0184000D01*
X0269700Y0176000D01*
X0265700Y0180000D01*
X0269100Y0180000D02*
X0265100Y0180000D01*
X0269100Y0180000D02*
X0273100Y0184000D01*
X0273100Y0176000D01*
X0269100Y0180000D01*
X0269100Y0183400D02*
X0265100Y0183400D01*
X0269100Y0183400D02*
X0273100Y0187400D01*
X0273100Y0179400D01*
X0269100Y0183400D01*
X0265700Y0183400D02*
X0261700Y0183400D01*
X0265700Y0183400D02*
X0269700Y0187400D01*
X0269700Y0179400D01*
X0265700Y0183400D01*
X0265700Y0186900D02*
X0261700Y0186900D01*
X0265700Y0186900D02*
X0269700Y0190900D01*
X0269700Y0182900D01*
X0265700Y0186900D01*
X0269100Y0186900D02*
X0265100Y0186900D01*
X0269100Y0186900D02*
X0273100Y0190900D01*
X0273100Y0182900D01*
X0269100Y0186900D01*
X0280600Y0169300D02*
X0276600Y0169300D01*
X0280600Y0169300D02*
X0284600Y0173300D01*
X0284600Y0165300D01*
X0280600Y0169300D01*
X0285000Y0169500D02*
X0281000Y0169500D01*
X0285000Y0169500D02*
X0289000Y0173500D01*
X0289000Y0165500D01*
X0285000Y0169500D01*
X0285500Y0163500D02*
X0281500Y0163500D01*
X0285500Y0163500D02*
X0289500Y0167500D01*
X0289500Y0159500D01*
X0285500Y0163500D01*
X0285500Y0155000D02*
X0281500Y0155000D01*
X0285500Y0155000D02*
X0289500Y0159000D01*
X0289500Y0151000D01*
X0285500Y0155000D01*
X0285500Y0145000D02*
X0281500Y0145000D01*
X0285500Y0145000D02*
X0289500Y0149000D01*
X0289500Y0141000D01*
X0285500Y0145000D01*
X0285400Y0135000D02*
X0281400Y0135000D01*
X0285400Y0135000D02*
X0289400Y0139000D01*
X0289400Y0131000D01*
X0285400Y0135000D01*
X0297500Y0135000D02*
X0293500Y0135000D01*
X0297500Y0135000D02*
X0301500Y0139000D01*
X0301500Y0131000D01*
X0297500Y0135000D01*
X0297500Y0145000D02*
X0293500Y0145000D01*
X0297500Y0145000D02*
X0301500Y0149000D01*
X0301500Y0141000D01*
X0297500Y0145000D01*
X0297500Y0155000D02*
X0293500Y0155000D01*
X0297500Y0155000D02*
X0301500Y0159000D01*
X0301500Y0151000D01*
X0297500Y0155000D01*
X0297500Y0165000D02*
X0293500Y0165000D01*
X0297500Y0165000D02*
X0301500Y0169000D01*
X0301500Y0161000D01*
X0297500Y0165000D01*
X0297500Y0175000D02*
X0293500Y0175000D01*
X0297500Y0175000D02*
X0301500Y0179000D01*
X0301500Y0171000D01*
X0297500Y0175000D01*
X0297500Y0185000D02*
X0293500Y0185000D01*
X0297500Y0185000D02*
X0301500Y0189000D01*
X0301500Y0181000D01*
X0297500Y0185000D01*
X0297500Y0195000D02*
X0293500Y0195000D01*
X0297500Y0195000D02*
X0301500Y0199000D01*
X0301500Y0191000D01*
X0297500Y0195000D01*
X0297500Y0203000D02*
X0293500Y0203000D01*
X0297500Y0203000D02*
X0301500Y0207000D01*
X0301500Y0199000D01*
X0297500Y0203000D01*
X0297500Y0209000D02*
X0293500Y0209000D01*
X0297500Y0209000D02*
X0301500Y0213000D01*
X0301500Y0205000D01*
X0297500Y0209000D01*
X0296500Y0215000D02*
X0292500Y0215000D01*
X0296500Y0215000D02*
X0300500Y0219000D01*
X0300500Y0211000D01*
X0296500Y0215000D01*
X0292000Y0215000D02*
X0288000Y0215000D01*
X0292000Y0215000D02*
X0296000Y0219000D01*
X0296000Y0211000D01*
X0292000Y0215000D01*
X0287500Y0215000D02*
X0283500Y0215000D01*
X0287500Y0215000D02*
X0291500Y0219000D01*
X0291500Y0211000D01*
X0287500Y0215000D01*
X0283500Y0215000D02*
X0279500Y0215000D01*
X0283500Y0215000D02*
X0287500Y0219000D01*
X0287500Y0211000D01*
X0283500Y0215000D01*
X0268500Y0215000D02*
X0264500Y0215000D01*
X0268500Y0215000D02*
X0272500Y0219000D01*
X0272500Y0211000D01*
X0268500Y0215000D01*
X0263500Y0215000D02*
X0259500Y0215000D01*
X0263500Y0215000D02*
X0267500Y0219000D01*
X0267500Y0211000D01*
X0263500Y0215000D01*
X0285500Y0187000D02*
X0281500Y0187000D01*
X0285500Y0187000D02*
X0289500Y0191000D01*
X0289500Y0183000D01*
X0285500Y0187000D01*
X0269100Y0162100D02*
X0265100Y0162100D01*
X0269100Y0162100D02*
X0273100Y0166100D01*
X0273100Y0158100D01*
X0269100Y0162100D01*
X0274500Y0155000D02*
X0270500Y0155000D01*
X0274500Y0155000D02*
X0278500Y0159000D01*
X0278500Y0151000D01*
X0274500Y0155000D01*
X0269200Y0149000D02*
X0265200Y0149000D01*
X0269200Y0149000D02*
X0273200Y0153000D01*
X0273200Y0145000D01*
X0269200Y0149000D01*
X0266900Y0145000D02*
X0262900Y0145000D01*
X0266900Y0145000D02*
X0270900Y0149000D01*
X0270900Y0141000D01*
X0266900Y0145000D01*
X0261200Y0149000D02*
X0257200Y0149000D01*
X0261200Y0149000D02*
X0265200Y0153000D01*
X0265200Y0145000D01*
X0261200Y0149000D01*
X0254600Y0162100D02*
X0250600Y0162100D01*
X0254600Y0162100D02*
X0258600Y0166100D01*
X0258600Y0158100D01*
X0254600Y0162100D01*
X0248100Y0166600D02*
X0244100Y0166600D01*
X0248100Y0166600D02*
X0252100Y0170600D01*
X0252100Y0162600D01*
X0248100Y0166600D01*
X0245500Y0171000D02*
X0241500Y0171000D01*
X0245500Y0171000D02*
X0249500Y0175000D01*
X0249500Y0167000D01*
X0245500Y0171000D01*
X0246600Y0161200D02*
X0242600Y0161200D01*
X0246600Y0161200D02*
X0250600Y0165200D01*
X0250600Y0157200D01*
X0246600Y0161200D01*
X0248500Y0145800D02*
X0244500Y0145800D01*
X0248500Y0145800D02*
X0252500Y0149800D01*
X0252500Y0141800D01*
X0248500Y0145800D01*
X0245500Y0135000D02*
X0241500Y0135000D01*
X0245500Y0135000D02*
X0249500Y0139000D01*
X0249500Y0131000D01*
X0245500Y0135000D01*
X0253500Y0135000D02*
X0249500Y0135000D01*
X0253500Y0135000D02*
X0257500Y0139000D01*
X0257500Y0131000D01*
X0253500Y0135000D01*
X0266900Y0135000D02*
X0262900Y0135000D01*
X0266900Y0135000D02*
X0270900Y0139000D01*
X0270900Y0131000D01*
X0266900Y0135000D01*
X0233500Y0256000D02*
X0229500Y0256000D01*
X0233500Y0256000D02*
X0237500Y0260000D01*
X0237500Y0252000D01*
X0233500Y0256000D01*
X0233500Y0265600D02*
X0229500Y0265600D01*
X0233500Y0265600D02*
X0237500Y0269600D01*
X0237500Y0261600D01*
X0233500Y0265600D01*
X0233500Y0275600D02*
X0229500Y0275600D01*
X0233500Y0275600D02*
X0237500Y0279600D01*
X0237500Y0271600D01*
X0233500Y0275600D01*
X0233500Y0285600D02*
X0229500Y0285600D01*
X0233500Y0285600D02*
X0237500Y0289600D01*
X0237500Y0281600D01*
X0233500Y0285600D01*
X0233500Y0295600D02*
X0229500Y0295600D01*
X0233500Y0295600D02*
X0237500Y0299600D01*
X0237500Y0291600D01*
X0233500Y0295600D01*
X0233500Y0305600D02*
X0229500Y0305600D01*
X0233500Y0305600D02*
X0237500Y0309600D01*
X0237500Y0301600D01*
X0233500Y0305600D01*
X0233500Y0315200D02*
X0229500Y0315200D01*
X0233500Y0315200D02*
X0237500Y0319200D01*
X0237500Y0311200D01*
X0233500Y0315200D01*
X0233500Y0326000D02*
X0229500Y0326000D01*
X0233500Y0326000D02*
X0237500Y0330000D01*
X0237500Y0322000D01*
X0233500Y0326000D01*
X0233500Y0330000D02*
X0229500Y0330000D01*
X0233500Y0330000D02*
X0237500Y0334000D01*
X0237500Y0326000D01*
X0233500Y0330000D01*
X0233500Y0336000D02*
X0229500Y0336000D01*
X0233500Y0336000D02*
X0237500Y0340000D01*
X0237500Y0332000D01*
X0233500Y0336000D01*
X0238500Y0336000D02*
X0234500Y0336000D01*
X0238500Y0336000D02*
X0242500Y0340000D01*
X0242500Y0332000D01*
X0238500Y0336000D01*
X0243500Y0336000D02*
X0239500Y0336000D01*
X0243500Y0336000D02*
X0247500Y0340000D01*
X0247500Y0332000D01*
X0243500Y0336000D01*
X0248500Y0336000D02*
X0244500Y0336000D01*
X0248500Y0336000D02*
X0252500Y0340000D01*
X0252500Y0332000D01*
X0248500Y0336000D01*
X0253500Y0336000D02*
X0249500Y0336000D01*
X0253500Y0336000D02*
X0257500Y0340000D01*
X0257500Y0332000D01*
X0253500Y0336000D01*
X0258500Y0336000D02*
X0254500Y0336000D01*
X0258500Y0336000D02*
X0262500Y0340000D01*
X0262500Y0332000D01*
X0258500Y0336000D01*
X0255500Y0330000D02*
X0251500Y0330000D01*
X0255500Y0330000D02*
X0259500Y0334000D01*
X0259500Y0326000D01*
X0255500Y0330000D01*
X0252000Y0326500D02*
X0248000Y0326500D01*
X0252000Y0326500D02*
X0256000Y0330500D01*
X0256000Y0322500D01*
X0252000Y0326500D01*
X0245500Y0330000D02*
X0241500Y0330000D01*
X0245500Y0330000D02*
X0249500Y0334000D01*
X0249500Y0326000D01*
X0245500Y0330000D01*
X0245200Y0322000D02*
X0241200Y0322000D01*
X0245200Y0322000D02*
X0249200Y0326000D01*
X0249200Y0318000D01*
X0245200Y0322000D01*
X0247200Y0312800D02*
X0243200Y0312800D01*
X0247200Y0312800D02*
X0251200Y0316800D01*
X0251200Y0308800D01*
X0247200Y0312800D01*
X0245500Y0308000D02*
X0241500Y0308000D01*
X0245500Y0308000D02*
X0249500Y0312000D01*
X0249500Y0304000D01*
X0245500Y0308000D01*
X0255500Y0307900D02*
X0251500Y0307900D01*
X0255500Y0307900D02*
X0259500Y0311900D01*
X0259500Y0303900D01*
X0255500Y0307900D01*
X0255500Y0304400D02*
X0251500Y0304400D01*
X0255500Y0304400D02*
X0259500Y0308400D01*
X0259500Y0300400D01*
X0255500Y0304400D01*
X0255500Y0301000D02*
X0251500Y0301000D01*
X0255500Y0301000D02*
X0259500Y0305000D01*
X0259500Y0297000D01*
X0255500Y0301000D01*
X0255500Y0297500D02*
X0251500Y0297500D01*
X0255500Y0297500D02*
X0259500Y0301500D01*
X0259500Y0293500D01*
X0255500Y0297500D01*
X0255500Y0294100D02*
X0251500Y0294100D01*
X0255500Y0294100D02*
X0259500Y0298100D01*
X0259500Y0290100D01*
X0255500Y0294100D01*
X0258900Y0294100D02*
X0254900Y0294100D01*
X0258900Y0294100D02*
X0262900Y0298100D01*
X0262900Y0290100D01*
X0258900Y0294100D01*
X0258900Y0297500D02*
X0254900Y0297500D01*
X0258900Y0297500D02*
X0262900Y0301500D01*
X0262900Y0293500D01*
X0258900Y0297500D01*
X0258900Y0301000D02*
X0254900Y0301000D01*
X0258900Y0301000D02*
X0262900Y0305000D01*
X0262900Y0297000D01*
X0258900Y0301000D01*
X0258900Y0304400D02*
X0254900Y0304400D01*
X0258900Y0304400D02*
X0262900Y0308400D01*
X0262900Y0300400D01*
X0258900Y0304400D01*
X0258900Y0307900D02*
X0254900Y0307900D01*
X0258900Y0307900D02*
X0262900Y0311900D01*
X0262900Y0303900D01*
X0258900Y0307900D01*
X0262300Y0307900D02*
X0258300Y0307900D01*
X0262300Y0307900D02*
X0266300Y0311900D01*
X0266300Y0303900D01*
X0262300Y0307900D01*
X0262300Y0304400D02*
X0258300Y0304400D01*
X0262300Y0304400D02*
X0266300Y0308400D01*
X0266300Y0300400D01*
X0262300Y0304400D01*
X0262300Y0301000D02*
X0258300Y0301000D01*
X0262300Y0301000D02*
X0266300Y0305000D01*
X0266300Y0297000D01*
X0262300Y0301000D01*
X0262300Y0297500D02*
X0258300Y0297500D01*
X0262300Y0297500D02*
X0266300Y0301500D01*
X0266300Y0293500D01*
X0262300Y0297500D01*
X0262300Y0294100D02*
X0258300Y0294100D01*
X0262300Y0294100D02*
X0266300Y0298100D01*
X0266300Y0290100D01*
X0262300Y0294100D01*
X0265700Y0294100D02*
X0261700Y0294100D01*
X0265700Y0294100D02*
X0269700Y0298100D01*
X0269700Y0290100D01*
X0265700Y0294100D01*
X0269100Y0294100D02*
X0265100Y0294100D01*
X0269100Y0294100D02*
X0273100Y0298100D01*
X0273100Y0290100D01*
X0269100Y0294100D01*
X0269100Y0297500D02*
X0265100Y0297500D01*
X0269100Y0297500D02*
X0273100Y0301500D01*
X0273100Y0293500D01*
X0269100Y0297500D01*
X0265700Y0297500D02*
X0261700Y0297500D01*
X0265700Y0297500D02*
X0269700Y0301500D01*
X0269700Y0293500D01*
X0265700Y0297500D01*
X0265700Y0301000D02*
X0261700Y0301000D01*
X0265700Y0301000D02*
X0269700Y0305000D01*
X0269700Y0297000D01*
X0265700Y0301000D01*
X0269100Y0301000D02*
X0265100Y0301000D01*
X0269100Y0301000D02*
X0273100Y0305000D01*
X0273100Y0297000D01*
X0269100Y0301000D01*
X0269100Y0304400D02*
X0265100Y0304400D01*
X0269100Y0304400D02*
X0273100Y0308400D01*
X0273100Y0300400D01*
X0269100Y0304400D01*
X0265700Y0304400D02*
X0261700Y0304400D01*
X0265700Y0304400D02*
X0269700Y0308400D01*
X0269700Y0300400D01*
X0265700Y0304400D01*
X0265700Y0307900D02*
X0261700Y0307900D01*
X0265700Y0307900D02*
X0269700Y0311900D01*
X0269700Y0303900D01*
X0265700Y0307900D01*
X0269100Y0307900D02*
X0265100Y0307900D01*
X0269100Y0307900D02*
X0273100Y0311900D01*
X0273100Y0303900D01*
X0269100Y0307900D01*
X0280600Y0290300D02*
X0276600Y0290300D01*
X0280600Y0290300D02*
X0284600Y0294300D01*
X0284600Y0286300D01*
X0280600Y0290300D01*
X0285000Y0290500D02*
X0281000Y0290500D01*
X0285000Y0290500D02*
X0289000Y0294500D01*
X0289000Y0286500D01*
X0285000Y0290500D01*
X0285500Y0284500D02*
X0281500Y0284500D01*
X0285500Y0284500D02*
X0289500Y0288500D01*
X0289500Y0280500D01*
X0285500Y0284500D01*
X0285500Y0276000D02*
X0281500Y0276000D01*
X0285500Y0276000D02*
X0289500Y0280000D01*
X0289500Y0272000D01*
X0285500Y0276000D01*
X0285500Y0266000D02*
X0281500Y0266000D01*
X0285500Y0266000D02*
X0289500Y0270000D01*
X0289500Y0262000D01*
X0285500Y0266000D01*
X0285400Y0256000D02*
X0281400Y0256000D01*
X0285400Y0256000D02*
X0289400Y0260000D01*
X0289400Y0252000D01*
X0285400Y0256000D01*
X0297500Y0256000D02*
X0293500Y0256000D01*
X0297500Y0256000D02*
X0301500Y0260000D01*
X0301500Y0252000D01*
X0297500Y0256000D01*
X0297500Y0266000D02*
X0293500Y0266000D01*
X0297500Y0266000D02*
X0301500Y0270000D01*
X0301500Y0262000D01*
X0297500Y0266000D01*
X0297500Y0276000D02*
X0293500Y0276000D01*
X0297500Y0276000D02*
X0301500Y0280000D01*
X0301500Y0272000D01*
X0297500Y0276000D01*
X0297500Y0286000D02*
X0293500Y0286000D01*
X0297500Y0286000D02*
X0301500Y0290000D01*
X0301500Y0282000D01*
X0297500Y0286000D01*
X0297500Y0296000D02*
X0293500Y0296000D01*
X0297500Y0296000D02*
X0301500Y0300000D01*
X0301500Y0292000D01*
X0297500Y0296000D01*
X0297500Y0306000D02*
X0293500Y0306000D01*
X0297500Y0306000D02*
X0301500Y0310000D01*
X0301500Y0302000D01*
X0297500Y0306000D01*
X0297500Y0316000D02*
X0293500Y0316000D01*
X0297500Y0316000D02*
X0301500Y0320000D01*
X0301500Y0312000D01*
X0297500Y0316000D01*
X0297500Y0324000D02*
X0293500Y0324000D01*
X0297500Y0324000D02*
X0301500Y0328000D01*
X0301500Y0320000D01*
X0297500Y0324000D01*
X0297500Y0330000D02*
X0293500Y0330000D01*
X0297500Y0330000D02*
X0301500Y0334000D01*
X0301500Y0326000D01*
X0297500Y0330000D01*
X0296500Y0336000D02*
X0292500Y0336000D01*
X0296500Y0336000D02*
X0300500Y0340000D01*
X0300500Y0332000D01*
X0296500Y0336000D01*
X0292000Y0336000D02*
X0288000Y0336000D01*
X0292000Y0336000D02*
X0296000Y0340000D01*
X0296000Y0332000D01*
X0292000Y0336000D01*
X0287500Y0336000D02*
X0283500Y0336000D01*
X0287500Y0336000D02*
X0291500Y0340000D01*
X0291500Y0332000D01*
X0287500Y0336000D01*
X0283500Y0336000D02*
X0279500Y0336000D01*
X0283500Y0336000D02*
X0287500Y0340000D01*
X0287500Y0332000D01*
X0283500Y0336000D01*
X0268500Y0336000D02*
X0264500Y0336000D01*
X0268500Y0336000D02*
X0272500Y0340000D01*
X0272500Y0332000D01*
X0268500Y0336000D01*
X0263500Y0336000D02*
X0259500Y0336000D01*
X0263500Y0336000D02*
X0267500Y0340000D01*
X0267500Y0332000D01*
X0263500Y0336000D01*
X0285500Y0308000D02*
X0281500Y0308000D01*
X0285500Y0308000D02*
X0289500Y0312000D01*
X0289500Y0304000D01*
X0285500Y0308000D01*
X0269100Y0283100D02*
X0265100Y0283100D01*
X0269100Y0283100D02*
X0273100Y0287100D01*
X0273100Y0279100D01*
X0269100Y0283100D01*
X0274500Y0276000D02*
X0270500Y0276000D01*
X0274500Y0276000D02*
X0278500Y0280000D01*
X0278500Y0272000D01*
X0274500Y0276000D01*
X0269200Y0270000D02*
X0265200Y0270000D01*
X0269200Y0270000D02*
X0273200Y0274000D01*
X0273200Y0266000D01*
X0269200Y0270000D01*
X0266900Y0266000D02*
X0262900Y0266000D01*
X0266900Y0266000D02*
X0270900Y0270000D01*
X0270900Y0262000D01*
X0266900Y0266000D01*
X0261200Y0270000D02*
X0257200Y0270000D01*
X0261200Y0270000D02*
X0265200Y0274000D01*
X0265200Y0266000D01*
X0261200Y0270000D01*
X0254600Y0283100D02*
X0250600Y0283100D01*
X0254600Y0283100D02*
X0258600Y0287100D01*
X0258600Y0279100D01*
X0254600Y0283100D01*
X0248100Y0287600D02*
X0244100Y0287600D01*
X0248100Y0287600D02*
X0252100Y0291600D01*
X0252100Y0283600D01*
X0248100Y0287600D01*
X0245500Y0292000D02*
X0241500Y0292000D01*
X0245500Y0292000D02*
X0249500Y0296000D01*
X0249500Y0288000D01*
X0245500Y0292000D01*
X0246600Y0282200D02*
X0242600Y0282200D01*
X0246600Y0282200D02*
X0250600Y0286200D01*
X0250600Y0278200D01*
X0246600Y0282200D01*
X0248500Y0266800D02*
X0244500Y0266800D01*
X0248500Y0266800D02*
X0252500Y0270800D01*
X0252500Y0262800D01*
X0248500Y0266800D01*
X0245500Y0256000D02*
X0241500Y0256000D01*
X0245500Y0256000D02*
X0249500Y0260000D01*
X0249500Y0252000D01*
X0245500Y0256000D01*
X0253500Y0256000D02*
X0249500Y0256000D01*
X0253500Y0256000D02*
X0257500Y0260000D01*
X0257500Y0252000D01*
X0253500Y0256000D01*
X0266900Y0256000D02*
X0262900Y0256000D01*
X0266900Y0256000D02*
X0270900Y0260000D01*
X0270900Y0252000D01*
X0266900Y0256000D01*
X0306000Y0014000D02*
X0302000Y0014000D01*
X0306000Y0014000D02*
X0310000Y0018000D01*
X0310000Y0010000D01*
X0306000Y0014000D01*
X0306000Y0023600D02*
X0302000Y0023600D01*
X0306000Y0023600D02*
X0310000Y0027600D01*
X0310000Y0019600D01*
X0306000Y0023600D01*
X0306000Y0033600D02*
X0302000Y0033600D01*
X0306000Y0033600D02*
X0310000Y0037600D01*
X0310000Y0029600D01*
X0306000Y0033600D01*
X0306000Y0043600D02*
X0302000Y0043600D01*
X0306000Y0043600D02*
X0310000Y0047600D01*
X0310000Y0039600D01*
X0306000Y0043600D01*
X0306000Y0053600D02*
X0302000Y0053600D01*
X0306000Y0053600D02*
X0310000Y0057600D01*
X0310000Y0049600D01*
X0306000Y0053600D01*
X0306000Y0063600D02*
X0302000Y0063600D01*
X0306000Y0063600D02*
X0310000Y0067600D01*
X0310000Y0059600D01*
X0306000Y0063600D01*
X0306000Y0073200D02*
X0302000Y0073200D01*
X0306000Y0073200D02*
X0310000Y0077200D01*
X0310000Y0069200D01*
X0306000Y0073200D01*
X0306000Y0084000D02*
X0302000Y0084000D01*
X0306000Y0084000D02*
X0310000Y0088000D01*
X0310000Y0080000D01*
X0306000Y0084000D01*
X0306000Y0088000D02*
X0302000Y0088000D01*
X0306000Y0088000D02*
X0310000Y0092000D01*
X0310000Y0084000D01*
X0306000Y0088000D01*
X0306000Y0094000D02*
X0302000Y0094000D01*
X0306000Y0094000D02*
X0310000Y0098000D01*
X0310000Y0090000D01*
X0306000Y0094000D01*
X0311000Y0094000D02*
X0307000Y0094000D01*
X0311000Y0094000D02*
X0315000Y0098000D01*
X0315000Y0090000D01*
X0311000Y0094000D01*
X0316000Y0094000D02*
X0312000Y0094000D01*
X0316000Y0094000D02*
X0320000Y0098000D01*
X0320000Y0090000D01*
X0316000Y0094000D01*
X0321000Y0094000D02*
X0317000Y0094000D01*
X0321000Y0094000D02*
X0325000Y0098000D01*
X0325000Y0090000D01*
X0321000Y0094000D01*
X0326000Y0094000D02*
X0322000Y0094000D01*
X0326000Y0094000D02*
X0330000Y0098000D01*
X0330000Y0090000D01*
X0326000Y0094000D01*
X0331000Y0094000D02*
X0327000Y0094000D01*
X0331000Y0094000D02*
X0335000Y0098000D01*
X0335000Y0090000D01*
X0331000Y0094000D01*
X0328000Y0088000D02*
X0324000Y0088000D01*
X0328000Y0088000D02*
X0332000Y0092000D01*
X0332000Y0084000D01*
X0328000Y0088000D01*
X0324500Y0084500D02*
X0320500Y0084500D01*
X0324500Y0084500D02*
X0328500Y0088500D01*
X0328500Y0080500D01*
X0324500Y0084500D01*
X0318000Y0088000D02*
X0314000Y0088000D01*
X0318000Y0088000D02*
X0322000Y0092000D01*
X0322000Y0084000D01*
X0318000Y0088000D01*
X0317700Y0080000D02*
X0313700Y0080000D01*
X0317700Y0080000D02*
X0321700Y0084000D01*
X0321700Y0076000D01*
X0317700Y0080000D01*
X0319700Y0070800D02*
X0315700Y0070800D01*
X0319700Y0070800D02*
X0323700Y0074800D01*
X0323700Y0066800D01*
X0319700Y0070800D01*
X0318000Y0066000D02*
X0314000Y0066000D01*
X0318000Y0066000D02*
X0322000Y0070000D01*
X0322000Y0062000D01*
X0318000Y0066000D01*
X0328000Y0065900D02*
X0324000Y0065900D01*
X0328000Y0065900D02*
X0332000Y0069900D01*
X0332000Y0061900D01*
X0328000Y0065900D01*
X0328000Y0062400D02*
X0324000Y0062400D01*
X0328000Y0062400D02*
X0332000Y0066400D01*
X0332000Y0058400D01*
X0328000Y0062400D01*
X0328000Y0059000D02*
X0324000Y0059000D01*
X0328000Y0059000D02*
X0332000Y0063000D01*
X0332000Y0055000D01*
X0328000Y0059000D01*
X0328000Y0055500D02*
X0324000Y0055500D01*
X0328000Y0055500D02*
X0332000Y0059500D01*
X0332000Y0051500D01*
X0328000Y0055500D01*
X0328000Y0052100D02*
X0324000Y0052100D01*
X0328000Y0052100D02*
X0332000Y0056100D01*
X0332000Y0048100D01*
X0328000Y0052100D01*
X0331400Y0052100D02*
X0327400Y0052100D01*
X0331400Y0052100D02*
X0335400Y0056100D01*
X0335400Y0048100D01*
X0331400Y0052100D01*
X0331400Y0055500D02*
X0327400Y0055500D01*
X0331400Y0055500D02*
X0335400Y0059500D01*
X0335400Y0051500D01*
X0331400Y0055500D01*
X0331400Y0059000D02*
X0327400Y0059000D01*
X0331400Y0059000D02*
X0335400Y0063000D01*
X0335400Y0055000D01*
X0331400Y0059000D01*
X0331400Y0062400D02*
X0327400Y0062400D01*
X0331400Y0062400D02*
X0335400Y0066400D01*
X0335400Y0058400D01*
X0331400Y0062400D01*
X0331400Y0065900D02*
X0327400Y0065900D01*
X0331400Y0065900D02*
X0335400Y0069900D01*
X0335400Y0061900D01*
X0331400Y0065900D01*
X0334800Y0065900D02*
X0330800Y0065900D01*
X0334800Y0065900D02*
X0338800Y0069900D01*
X0338800Y0061900D01*
X0334800Y0065900D01*
X0334800Y0062400D02*
X0330800Y0062400D01*
X0334800Y0062400D02*
X0338800Y0066400D01*
X0338800Y0058400D01*
X0334800Y0062400D01*
X0334800Y0059000D02*
X0330800Y0059000D01*
X0334800Y0059000D02*
X0338800Y0063000D01*
X0338800Y0055000D01*
X0334800Y0059000D01*
X0334800Y0055500D02*
X0330800Y0055500D01*
X0334800Y0055500D02*
X0338800Y0059500D01*
X0338800Y0051500D01*
X0334800Y0055500D01*
X0334800Y0052100D02*
X0330800Y0052100D01*
X0334800Y0052100D02*
X0338800Y0056100D01*
X0338800Y0048100D01*
X0334800Y0052100D01*
X0338200Y0052100D02*
X0334200Y0052100D01*
X0338200Y0052100D02*
X0342200Y0056100D01*
X0342200Y0048100D01*
X0338200Y0052100D01*
X0341600Y0052100D02*
X0337600Y0052100D01*
X0341600Y0052100D02*
X0345600Y0056100D01*
X0345600Y0048100D01*
X0341600Y0052100D01*
X0341600Y0055500D02*
X0337600Y0055500D01*
X0341600Y0055500D02*
X0345600Y0059500D01*
X0345600Y0051500D01*
X0341600Y0055500D01*
X0338200Y0055500D02*
X0334200Y0055500D01*
X0338200Y0055500D02*
X0342200Y0059500D01*
X0342200Y0051500D01*
X0338200Y0055500D01*
X0338200Y0059000D02*
X0334200Y0059000D01*
X0338200Y0059000D02*
X0342200Y0063000D01*
X0342200Y0055000D01*
X0338200Y0059000D01*
X0341600Y0059000D02*
X0337600Y0059000D01*
X0341600Y0059000D02*
X0345600Y0063000D01*
X0345600Y0055000D01*
X0341600Y0059000D01*
X0341600Y0062400D02*
X0337600Y0062400D01*
X0341600Y0062400D02*
X0345600Y0066400D01*
X0345600Y0058400D01*
X0341600Y0062400D01*
X0338200Y0062400D02*
X0334200Y0062400D01*
X0338200Y0062400D02*
X0342200Y0066400D01*
X0342200Y0058400D01*
X0338200Y0062400D01*
X0338200Y0065900D02*
X0334200Y0065900D01*
X0338200Y0065900D02*
X0342200Y0069900D01*
X0342200Y0061900D01*
X0338200Y0065900D01*
X0341600Y0065900D02*
X0337600Y0065900D01*
X0341600Y0065900D02*
X0345600Y0069900D01*
X0345600Y0061900D01*
X0341600Y0065900D01*
X0353100Y0048300D02*
X0349100Y0048300D01*
X0353100Y0048300D02*
X0357100Y0052300D01*
X0357100Y0044300D01*
X0353100Y0048300D01*
X0357500Y0048500D02*
X0353500Y0048500D01*
X0357500Y0048500D02*
X0361500Y0052500D01*
X0361500Y0044500D01*
X0357500Y0048500D01*
X0358000Y0042500D02*
X0354000Y0042500D01*
X0358000Y0042500D02*
X0362000Y0046500D01*
X0362000Y0038500D01*
X0358000Y0042500D01*
X0358000Y0034000D02*
X0354000Y0034000D01*
X0358000Y0034000D02*
X0362000Y0038000D01*
X0362000Y0030000D01*
X0358000Y0034000D01*
X0358000Y0024000D02*
X0354000Y0024000D01*
X0358000Y0024000D02*
X0362000Y0028000D01*
X0362000Y0020000D01*
X0358000Y0024000D01*
X0357900Y0014000D02*
X0353900Y0014000D01*
X0357900Y0014000D02*
X0361900Y0018000D01*
X0361900Y0010000D01*
X0357900Y0014000D01*
X0370000Y0014000D02*
X0366000Y0014000D01*
X0370000Y0014000D02*
X0374000Y0018000D01*
X0374000Y0010000D01*
X0370000Y0014000D01*
X0370000Y0024000D02*
X0366000Y0024000D01*
X0370000Y0024000D02*
X0374000Y0028000D01*
X0374000Y0020000D01*
X0370000Y0024000D01*
X0370000Y0034000D02*
X0366000Y0034000D01*
X0370000Y0034000D02*
X0374000Y0038000D01*
X0374000Y0030000D01*
X0370000Y0034000D01*
X0370000Y0044000D02*
X0366000Y0044000D01*
X0370000Y0044000D02*
X0374000Y0048000D01*
X0374000Y0040000D01*
X0370000Y0044000D01*
X0370000Y0054000D02*
X0366000Y0054000D01*
X0370000Y0054000D02*
X0374000Y0058000D01*
X0374000Y0050000D01*
X0370000Y0054000D01*
X0370000Y0064000D02*
X0366000Y0064000D01*
X0370000Y0064000D02*
X0374000Y0068000D01*
X0374000Y0060000D01*
X0370000Y0064000D01*
X0370000Y0074000D02*
X0366000Y0074000D01*
X0370000Y0074000D02*
X0374000Y0078000D01*
X0374000Y0070000D01*
X0370000Y0074000D01*
X0370000Y0082000D02*
X0366000Y0082000D01*
X0370000Y0082000D02*
X0374000Y0086000D01*
X0374000Y0078000D01*
X0370000Y0082000D01*
X0370000Y0088000D02*
X0366000Y0088000D01*
X0370000Y0088000D02*
X0374000Y0092000D01*
X0374000Y0084000D01*
X0370000Y0088000D01*
X0369000Y0094000D02*
X0365000Y0094000D01*
X0369000Y0094000D02*
X0373000Y0098000D01*
X0373000Y0090000D01*
X0369000Y0094000D01*
X0364500Y0094000D02*
X0360500Y0094000D01*
X0364500Y0094000D02*
X0368500Y0098000D01*
X0368500Y0090000D01*
X0364500Y0094000D01*
X0360000Y0094000D02*
X0356000Y0094000D01*
X0360000Y0094000D02*
X0364000Y0098000D01*
X0364000Y0090000D01*
X0360000Y0094000D01*
X0356000Y0094000D02*
X0352000Y0094000D01*
X0356000Y0094000D02*
X0360000Y0098000D01*
X0360000Y0090000D01*
X0356000Y0094000D01*
X0341000Y0094000D02*
X0337000Y0094000D01*
X0341000Y0094000D02*
X0345000Y0098000D01*
X0345000Y0090000D01*
X0341000Y0094000D01*
X0336000Y0094000D02*
X0332000Y0094000D01*
X0336000Y0094000D02*
X0340000Y0098000D01*
X0340000Y0090000D01*
X0336000Y0094000D01*
X0358000Y0066000D02*
X0354000Y0066000D01*
X0358000Y0066000D02*
X0362000Y0070000D01*
X0362000Y0062000D01*
X0358000Y0066000D01*
X0341600Y0041100D02*
X0337600Y0041100D01*
X0341600Y0041100D02*
X0345600Y0045100D01*
X0345600Y0037100D01*
X0341600Y0041100D01*
X0347000Y0034000D02*
X0343000Y0034000D01*
X0347000Y0034000D02*
X0351000Y0038000D01*
X0351000Y0030000D01*
X0347000Y0034000D01*
X0341700Y0028000D02*
X0337700Y0028000D01*
X0341700Y0028000D02*
X0345700Y0032000D01*
X0345700Y0024000D01*
X0341700Y0028000D01*
X0339400Y0024000D02*
X0335400Y0024000D01*
X0339400Y0024000D02*
X0343400Y0028000D01*
X0343400Y0020000D01*
X0339400Y0024000D01*
X0333700Y0028000D02*
X0329700Y0028000D01*
X0333700Y0028000D02*
X0337700Y0032000D01*
X0337700Y0024000D01*
X0333700Y0028000D01*
X0327100Y0041100D02*
X0323100Y0041100D01*
X0327100Y0041100D02*
X0331100Y0045100D01*
X0331100Y0037100D01*
X0327100Y0041100D01*
X0320600Y0045600D02*
X0316600Y0045600D01*
X0320600Y0045600D02*
X0324600Y0049600D01*
X0324600Y0041600D01*
X0320600Y0045600D01*
X0318000Y0050000D02*
X0314000Y0050000D01*
X0318000Y0050000D02*
X0322000Y0054000D01*
X0322000Y0046000D01*
X0318000Y0050000D01*
X0319100Y0040200D02*
X0315100Y0040200D01*
X0319100Y0040200D02*
X0323100Y0044200D01*
X0323100Y0036200D01*
X0319100Y0040200D01*
X0321000Y0024800D02*
X0317000Y0024800D01*
X0321000Y0024800D02*
X0325000Y0028800D01*
X0325000Y0020800D01*
X0321000Y0024800D01*
X0318000Y0014000D02*
X0314000Y0014000D01*
X0318000Y0014000D02*
X0322000Y0018000D01*
X0322000Y0010000D01*
X0318000Y0014000D01*
X0326000Y0014000D02*
X0322000Y0014000D01*
X0326000Y0014000D02*
X0330000Y0018000D01*
X0330000Y0010000D01*
X0326000Y0014000D01*
X0339400Y0014000D02*
X0335400Y0014000D01*
X0339400Y0014000D02*
X0343400Y0018000D01*
X0343400Y0010000D01*
X0339400Y0014000D01*
X0306000Y0135000D02*
X0302000Y0135000D01*
X0306000Y0135000D02*
X0310000Y0139000D01*
X0310000Y0131000D01*
X0306000Y0135000D01*
X0306000Y0144600D02*
X0302000Y0144600D01*
X0306000Y0144600D02*
X0310000Y0148600D01*
X0310000Y0140600D01*
X0306000Y0144600D01*
X0306000Y0154600D02*
X0302000Y0154600D01*
X0306000Y0154600D02*
X0310000Y0158600D01*
X0310000Y0150600D01*
X0306000Y0154600D01*
X0306000Y0164600D02*
X0302000Y0164600D01*
X0306000Y0164600D02*
X0310000Y0168600D01*
X0310000Y0160600D01*
X0306000Y0164600D01*
X0306000Y0174600D02*
X0302000Y0174600D01*
X0306000Y0174600D02*
X0310000Y0178600D01*
X0310000Y0170600D01*
X0306000Y0174600D01*
X0306000Y0184600D02*
X0302000Y0184600D01*
X0306000Y0184600D02*
X0310000Y0188600D01*
X0310000Y0180600D01*
X0306000Y0184600D01*
X0306000Y0194200D02*
X0302000Y0194200D01*
X0306000Y0194200D02*
X0310000Y0198200D01*
X0310000Y0190200D01*
X0306000Y0194200D01*
X0306000Y0205000D02*
X0302000Y0205000D01*
X0306000Y0205000D02*
X0310000Y0209000D01*
X0310000Y0201000D01*
X0306000Y0205000D01*
X0306000Y0209000D02*
X0302000Y0209000D01*
X0306000Y0209000D02*
X0310000Y0213000D01*
X0310000Y0205000D01*
X0306000Y0209000D01*
X0306000Y0215000D02*
X0302000Y0215000D01*
X0306000Y0215000D02*
X0310000Y0219000D01*
X0310000Y0211000D01*
X0306000Y0215000D01*
X0311000Y0215000D02*
X0307000Y0215000D01*
X0311000Y0215000D02*
X0315000Y0219000D01*
X0315000Y0211000D01*
X0311000Y0215000D01*
X0316000Y0215000D02*
X0312000Y0215000D01*
X0316000Y0215000D02*
X0320000Y0219000D01*
X0320000Y0211000D01*
X0316000Y0215000D01*
X0321000Y0215000D02*
X0317000Y0215000D01*
X0321000Y0215000D02*
X0325000Y0219000D01*
X0325000Y0211000D01*
X0321000Y0215000D01*
X0326000Y0215000D02*
X0322000Y0215000D01*
X0326000Y0215000D02*
X0330000Y0219000D01*
X0330000Y0211000D01*
X0326000Y0215000D01*
X0331000Y0215000D02*
X0327000Y0215000D01*
X0331000Y0215000D02*
X0335000Y0219000D01*
X0335000Y0211000D01*
X0331000Y0215000D01*
X0328000Y0209000D02*
X0324000Y0209000D01*
X0328000Y0209000D02*
X0332000Y0213000D01*
X0332000Y0205000D01*
X0328000Y0209000D01*
X0324500Y0205500D02*
X0320500Y0205500D01*
X0324500Y0205500D02*
X0328500Y0209500D01*
X0328500Y0201500D01*
X0324500Y0205500D01*
X0318000Y0209000D02*
X0314000Y0209000D01*
X0318000Y0209000D02*
X0322000Y0213000D01*
X0322000Y0205000D01*
X0318000Y0209000D01*
X0317700Y0201000D02*
X0313700Y0201000D01*
X0317700Y0201000D02*
X0321700Y0205000D01*
X0321700Y0197000D01*
X0317700Y0201000D01*
X0319700Y0191800D02*
X0315700Y0191800D01*
X0319700Y0191800D02*
X0323700Y0195800D01*
X0323700Y0187800D01*
X0319700Y0191800D01*
X0318000Y0187000D02*
X0314000Y0187000D01*
X0318000Y0187000D02*
X0322000Y0191000D01*
X0322000Y0183000D01*
X0318000Y0187000D01*
X0328000Y0186900D02*
X0324000Y0186900D01*
X0328000Y0186900D02*
X0332000Y0190900D01*
X0332000Y0182900D01*
X0328000Y0186900D01*
X0328000Y0183400D02*
X0324000Y0183400D01*
X0328000Y0183400D02*
X0332000Y0187400D01*
X0332000Y0179400D01*
X0328000Y0183400D01*
X0328000Y0180000D02*
X0324000Y0180000D01*
X0328000Y0180000D02*
X0332000Y0184000D01*
X0332000Y0176000D01*
X0328000Y0180000D01*
X0328000Y0176500D02*
X0324000Y0176500D01*
X0328000Y0176500D02*
X0332000Y0180500D01*
X0332000Y0172500D01*
X0328000Y0176500D01*
X0328000Y0173100D02*
X0324000Y0173100D01*
X0328000Y0173100D02*
X0332000Y0177100D01*
X0332000Y0169100D01*
X0328000Y0173100D01*
X0331400Y0173100D02*
X0327400Y0173100D01*
X0331400Y0173100D02*
X0335400Y0177100D01*
X0335400Y0169100D01*
X0331400Y0173100D01*
X0331400Y0176500D02*
X0327400Y0176500D01*
X0331400Y0176500D02*
X0335400Y0180500D01*
X0335400Y0172500D01*
X0331400Y0176500D01*
X0331400Y0180000D02*
X0327400Y0180000D01*
X0331400Y0180000D02*
X0335400Y0184000D01*
X0335400Y0176000D01*
X0331400Y0180000D01*
X0331400Y0183400D02*
X0327400Y0183400D01*
X0331400Y0183400D02*
X0335400Y0187400D01*
X0335400Y0179400D01*
X0331400Y0183400D01*
X0331400Y0186900D02*
X0327400Y0186900D01*
X0331400Y0186900D02*
X0335400Y0190900D01*
X0335400Y0182900D01*
X0331400Y0186900D01*
X0334800Y0186900D02*
X0330800Y0186900D01*
X0334800Y0186900D02*
X0338800Y0190900D01*
X0338800Y0182900D01*
X0334800Y0186900D01*
X0334800Y0183400D02*
X0330800Y0183400D01*
X0334800Y0183400D02*
X0338800Y0187400D01*
X0338800Y0179400D01*
X0334800Y0183400D01*
X0334800Y0180000D02*
X0330800Y0180000D01*
X0334800Y0180000D02*
X0338800Y0184000D01*
X0338800Y0176000D01*
X0334800Y0180000D01*
X0334800Y0176500D02*
X0330800Y0176500D01*
X0334800Y0176500D02*
X0338800Y0180500D01*
X0338800Y0172500D01*
X0334800Y0176500D01*
X0334800Y0173100D02*
X0330800Y0173100D01*
X0334800Y0173100D02*
X0338800Y0177100D01*
X0338800Y0169100D01*
X0334800Y0173100D01*
X0338200Y0173100D02*
X0334200Y0173100D01*
X0338200Y0173100D02*
X0342200Y0177100D01*
X0342200Y0169100D01*
X0338200Y0173100D01*
X0341600Y0173100D02*
X0337600Y0173100D01*
X0341600Y0173100D02*
X0345600Y0177100D01*
X0345600Y0169100D01*
X0341600Y0173100D01*
X0341600Y0176500D02*
X0337600Y0176500D01*
X0341600Y0176500D02*
X0345600Y0180500D01*
X0345600Y0172500D01*
X0341600Y0176500D01*
X0338200Y0176500D02*
X0334200Y0176500D01*
X0338200Y0176500D02*
X0342200Y0180500D01*
X0342200Y0172500D01*
X0338200Y0176500D01*
X0338200Y0180000D02*
X0334200Y0180000D01*
X0338200Y0180000D02*
X0342200Y0184000D01*
X0342200Y0176000D01*
X0338200Y0180000D01*
X0341600Y0180000D02*
X0337600Y0180000D01*
X0341600Y0180000D02*
X0345600Y0184000D01*
X0345600Y0176000D01*
X0341600Y0180000D01*
X0341600Y0183400D02*
X0337600Y0183400D01*
X0341600Y0183400D02*
X0345600Y0187400D01*
X0345600Y0179400D01*
X0341600Y0183400D01*
X0338200Y0183400D02*
X0334200Y0183400D01*
X0338200Y0183400D02*
X0342200Y0187400D01*
X0342200Y0179400D01*
X0338200Y0183400D01*
X0338200Y0186900D02*
X0334200Y0186900D01*
X0338200Y0186900D02*
X0342200Y0190900D01*
X0342200Y0182900D01*
X0338200Y0186900D01*
X0341600Y0186900D02*
X0337600Y0186900D01*
X0341600Y0186900D02*
X0345600Y0190900D01*
X0345600Y0182900D01*
X0341600Y0186900D01*
X0353100Y0169300D02*
X0349100Y0169300D01*
X0353100Y0169300D02*
X0357100Y0173300D01*
X0357100Y0165300D01*
X0353100Y0169300D01*
X0357500Y0169500D02*
X0353500Y0169500D01*
X0357500Y0169500D02*
X0361500Y0173500D01*
X0361500Y0165500D01*
X0357500Y0169500D01*
X0358000Y0163500D02*
X0354000Y0163500D01*
X0358000Y0163500D02*
X0362000Y0167500D01*
X0362000Y0159500D01*
X0358000Y0163500D01*
X0358000Y0155000D02*
X0354000Y0155000D01*
X0358000Y0155000D02*
X0362000Y0159000D01*
X0362000Y0151000D01*
X0358000Y0155000D01*
X0358000Y0145000D02*
X0354000Y0145000D01*
X0358000Y0145000D02*
X0362000Y0149000D01*
X0362000Y0141000D01*
X0358000Y0145000D01*
X0357900Y0135000D02*
X0353900Y0135000D01*
X0357900Y0135000D02*
X0361900Y0139000D01*
X0361900Y0131000D01*
X0357900Y0135000D01*
X0370000Y0135000D02*
X0366000Y0135000D01*
X0370000Y0135000D02*
X0374000Y0139000D01*
X0374000Y0131000D01*
X0370000Y0135000D01*
X0370000Y0145000D02*
X0366000Y0145000D01*
X0370000Y0145000D02*
X0374000Y0149000D01*
X0374000Y0141000D01*
X0370000Y0145000D01*
X0370000Y0155000D02*
X0366000Y0155000D01*
X0370000Y0155000D02*
X0374000Y0159000D01*
X0374000Y0151000D01*
X0370000Y0155000D01*
X0370000Y0165000D02*
X0366000Y0165000D01*
X0370000Y0165000D02*
X0374000Y0169000D01*
X0374000Y0161000D01*
X0370000Y0165000D01*
X0370000Y0175000D02*
X0366000Y0175000D01*
X0370000Y0175000D02*
X0374000Y0179000D01*
X0374000Y0171000D01*
X0370000Y0175000D01*
X0370000Y0185000D02*
X0366000Y0185000D01*
X0370000Y0185000D02*
X0374000Y0189000D01*
X0374000Y0181000D01*
X0370000Y0185000D01*
X0370000Y0195000D02*
X0366000Y0195000D01*
X0370000Y0195000D02*
X0374000Y0199000D01*
X0374000Y0191000D01*
X0370000Y0195000D01*
X0370000Y0203000D02*
X0366000Y0203000D01*
X0370000Y0203000D02*
X0374000Y0207000D01*
X0374000Y0199000D01*
X0370000Y0203000D01*
X0370000Y0209000D02*
X0366000Y0209000D01*
X0370000Y0209000D02*
X0374000Y0213000D01*
X0374000Y0205000D01*
X0370000Y0209000D01*
X0369000Y0215000D02*
X0365000Y0215000D01*
X0369000Y0215000D02*
X0373000Y0219000D01*
X0373000Y0211000D01*
X0369000Y0215000D01*
X0364500Y0215000D02*
X0360500Y0215000D01*
X0364500Y0215000D02*
X0368500Y0219000D01*
X0368500Y0211000D01*
X0364500Y0215000D01*
X0360000Y0215000D02*
X0356000Y0215000D01*
X0360000Y0215000D02*
X0364000Y0219000D01*
X0364000Y0211000D01*
X0360000Y0215000D01*
X0356000Y0215000D02*
X0352000Y0215000D01*
X0356000Y0215000D02*
X0360000Y0219000D01*
X0360000Y0211000D01*
X0356000Y0215000D01*
X0341000Y0215000D02*
X0337000Y0215000D01*
X0341000Y0215000D02*
X0345000Y0219000D01*
X0345000Y0211000D01*
X0341000Y0215000D01*
X0336000Y0215000D02*
X0332000Y0215000D01*
X0336000Y0215000D02*
X0340000Y0219000D01*
X0340000Y0211000D01*
X0336000Y0215000D01*
X0358000Y0187000D02*
X0354000Y0187000D01*
X0358000Y0187000D02*
X0362000Y0191000D01*
X0362000Y0183000D01*
X0358000Y0187000D01*
X0341600Y0162100D02*
X0337600Y0162100D01*
X0341600Y0162100D02*
X0345600Y0166100D01*
X0345600Y0158100D01*
X0341600Y0162100D01*
X0347000Y0155000D02*
X0343000Y0155000D01*
X0347000Y0155000D02*
X0351000Y0159000D01*
X0351000Y0151000D01*
X0347000Y0155000D01*
X0341700Y0149000D02*
X0337700Y0149000D01*
X0341700Y0149000D02*
X0345700Y0153000D01*
X0345700Y0145000D01*
X0341700Y0149000D01*
X0339400Y0145000D02*
X0335400Y0145000D01*
X0339400Y0145000D02*
X0343400Y0149000D01*
X0343400Y0141000D01*
X0339400Y0145000D01*
X0333700Y0149000D02*
X0329700Y0149000D01*
X0333700Y0149000D02*
X0337700Y0153000D01*
X0337700Y0145000D01*
X0333700Y0149000D01*
X0327100Y0162100D02*
X0323100Y0162100D01*
X0327100Y0162100D02*
X0331100Y0166100D01*
X0331100Y0158100D01*
X0327100Y0162100D01*
X0320600Y0166600D02*
X0316600Y0166600D01*
X0320600Y0166600D02*
X0324600Y0170600D01*
X0324600Y0162600D01*
X0320600Y0166600D01*
X0318000Y0171000D02*
X0314000Y0171000D01*
X0318000Y0171000D02*
X0322000Y0175000D01*
X0322000Y0167000D01*
X0318000Y0171000D01*
X0319100Y0161200D02*
X0315100Y0161200D01*
X0319100Y0161200D02*
X0323100Y0165200D01*
X0323100Y0157200D01*
X0319100Y0161200D01*
X0321000Y0145800D02*
X0317000Y0145800D01*
X0321000Y0145800D02*
X0325000Y0149800D01*
X0325000Y0141800D01*
X0321000Y0145800D01*
X0318000Y0135000D02*
X0314000Y0135000D01*
X0318000Y0135000D02*
X0322000Y0139000D01*
X0322000Y0131000D01*
X0318000Y0135000D01*
X0326000Y0135000D02*
X0322000Y0135000D01*
X0326000Y0135000D02*
X0330000Y0139000D01*
X0330000Y0131000D01*
X0326000Y0135000D01*
X0339400Y0135000D02*
X0335400Y0135000D01*
X0339400Y0135000D02*
X0343400Y0139000D01*
X0343400Y0131000D01*
X0339400Y0135000D01*
X0306000Y0256000D02*
X0302000Y0256000D01*
X0306000Y0256000D02*
X0310000Y0260000D01*
X0310000Y0252000D01*
X0306000Y0256000D01*
X0306000Y0265600D02*
X0302000Y0265600D01*
X0306000Y0265600D02*
X0310000Y0269600D01*
X0310000Y0261600D01*
X0306000Y0265600D01*
X0306000Y0275600D02*
X0302000Y0275600D01*
X0306000Y0275600D02*
X0310000Y0279600D01*
X0310000Y0271600D01*
X0306000Y0275600D01*
X0306000Y0285600D02*
X0302000Y0285600D01*
X0306000Y0285600D02*
X0310000Y0289600D01*
X0310000Y0281600D01*
X0306000Y0285600D01*
X0306000Y0295600D02*
X0302000Y0295600D01*
X0306000Y0295600D02*
X0310000Y0299600D01*
X0310000Y0291600D01*
X0306000Y0295600D01*
X0306000Y0305600D02*
X0302000Y0305600D01*
X0306000Y0305600D02*
X0310000Y0309600D01*
X0310000Y0301600D01*
X0306000Y0305600D01*
X0306000Y0315200D02*
X0302000Y0315200D01*
X0306000Y0315200D02*
X0310000Y0319200D01*
X0310000Y0311200D01*
X0306000Y0315200D01*
X0306000Y0326000D02*
X0302000Y0326000D01*
X0306000Y0326000D02*
X0310000Y0330000D01*
X0310000Y0322000D01*
X0306000Y0326000D01*
X0306000Y0330000D02*
X0302000Y0330000D01*
X0306000Y0330000D02*
X0310000Y0334000D01*
X0310000Y0326000D01*
X0306000Y0330000D01*
X0306000Y0336000D02*
X0302000Y0336000D01*
X0306000Y0336000D02*
X0310000Y0340000D01*
X0310000Y0332000D01*
X0306000Y0336000D01*
X0311000Y0336000D02*
X0307000Y0336000D01*
X0311000Y0336000D02*
X0315000Y0340000D01*
X0315000Y0332000D01*
X0311000Y0336000D01*
X0316000Y0336000D02*
X0312000Y0336000D01*
X0316000Y0336000D02*
X0320000Y0340000D01*
X0320000Y0332000D01*
X0316000Y0336000D01*
X0321000Y0336000D02*
X0317000Y0336000D01*
X0321000Y0336000D02*
X0325000Y0340000D01*
X0325000Y0332000D01*
X0321000Y0336000D01*
X0326000Y0336000D02*
X0322000Y0336000D01*
X0326000Y0336000D02*
X0330000Y0340000D01*
X0330000Y0332000D01*
X0326000Y0336000D01*
X0331000Y0336000D02*
X0327000Y0336000D01*
X0331000Y0336000D02*
X0335000Y0340000D01*
X0335000Y0332000D01*
X0331000Y0336000D01*
X0328000Y0330000D02*
X0324000Y0330000D01*
X0328000Y0330000D02*
X0332000Y0334000D01*
X0332000Y0326000D01*
X0328000Y0330000D01*
X0324500Y0326500D02*
X0320500Y0326500D01*
X0324500Y0326500D02*
X0328500Y0330500D01*
X0328500Y0322500D01*
X0324500Y0326500D01*
X0318000Y0330000D02*
X0314000Y0330000D01*
X0318000Y0330000D02*
X0322000Y0334000D01*
X0322000Y0326000D01*
X0318000Y0330000D01*
X0317700Y0322000D02*
X0313700Y0322000D01*
X0317700Y0322000D02*
X0321700Y0326000D01*
X0321700Y0318000D01*
X0317700Y0322000D01*
X0319700Y0312800D02*
X0315700Y0312800D01*
X0319700Y0312800D02*
X0323700Y0316800D01*
X0323700Y0308800D01*
X0319700Y0312800D01*
X0318000Y0308000D02*
X0314000Y0308000D01*
X0318000Y0308000D02*
X0322000Y0312000D01*
X0322000Y0304000D01*
X0318000Y0308000D01*
X0328000Y0307900D02*
X0324000Y0307900D01*
X0328000Y0307900D02*
X0332000Y0311900D01*
X0332000Y0303900D01*
X0328000Y0307900D01*
X0328000Y0304400D02*
X0324000Y0304400D01*
X0328000Y0304400D02*
X0332000Y0308400D01*
X0332000Y0300400D01*
X0328000Y0304400D01*
X0328000Y0301000D02*
X0324000Y0301000D01*
X0328000Y0301000D02*
X0332000Y0305000D01*
X0332000Y0297000D01*
X0328000Y0301000D01*
X0328000Y0297500D02*
X0324000Y0297500D01*
X0328000Y0297500D02*
X0332000Y0301500D01*
X0332000Y0293500D01*
X0328000Y0297500D01*
X0328000Y0294100D02*
X0324000Y0294100D01*
X0328000Y0294100D02*
X0332000Y0298100D01*
X0332000Y0290100D01*
X0328000Y0294100D01*
X0331400Y0294100D02*
X0327400Y0294100D01*
X0331400Y0294100D02*
X0335400Y0298100D01*
X0335400Y0290100D01*
X0331400Y0294100D01*
X0331400Y0297500D02*
X0327400Y0297500D01*
X0331400Y0297500D02*
X0335400Y0301500D01*
X0335400Y0293500D01*
X0331400Y0297500D01*
X0331400Y0301000D02*
X0327400Y0301000D01*
X0331400Y0301000D02*
X0335400Y0305000D01*
X0335400Y0297000D01*
X0331400Y0301000D01*
X0331400Y0304400D02*
X0327400Y0304400D01*
X0331400Y0304400D02*
X0335400Y0308400D01*
X0335400Y0300400D01*
X0331400Y0304400D01*
X0331400Y0307900D02*
X0327400Y0307900D01*
X0331400Y0307900D02*
X0335400Y0311900D01*
X0335400Y0303900D01*
X0331400Y0307900D01*
X0334800Y0307900D02*
X0330800Y0307900D01*
X0334800Y0307900D02*
X0338800Y0311900D01*
X0338800Y0303900D01*
X0334800Y0307900D01*
X0334800Y0304400D02*
X0330800Y0304400D01*
X0334800Y0304400D02*
X0338800Y0308400D01*
X0338800Y0300400D01*
X0334800Y0304400D01*
X0334800Y0301000D02*
X0330800Y0301000D01*
X0334800Y0301000D02*
X0338800Y0305000D01*
X0338800Y0297000D01*
X0334800Y0301000D01*
X0334800Y0297500D02*
X0330800Y0297500D01*
X0334800Y0297500D02*
X0338800Y0301500D01*
X0338800Y0293500D01*
X0334800Y0297500D01*
X0334800Y0294100D02*
X0330800Y0294100D01*
X0334800Y0294100D02*
X0338800Y0298100D01*
X0338800Y0290100D01*
X0334800Y0294100D01*
X0338200Y0294100D02*
X0334200Y0294100D01*
X0338200Y0294100D02*
X0342200Y0298100D01*
X0342200Y0290100D01*
X0338200Y0294100D01*
X0341600Y0294100D02*
X0337600Y0294100D01*
X0341600Y0294100D02*
X0345600Y0298100D01*
X0345600Y0290100D01*
X0341600Y0294100D01*
X0341600Y0297500D02*
X0337600Y0297500D01*
X0341600Y0297500D02*
X0345600Y0301500D01*
X0345600Y0293500D01*
X0341600Y0297500D01*
X0338200Y0297500D02*
X0334200Y0297500D01*
X0338200Y0297500D02*
X0342200Y0301500D01*
X0342200Y0293500D01*
X0338200Y0297500D01*
X0338200Y0301000D02*
X0334200Y0301000D01*
X0338200Y0301000D02*
X0342200Y0305000D01*
X0342200Y0297000D01*
X0338200Y0301000D01*
X0341600Y0301000D02*
X0337600Y0301000D01*
X0341600Y0301000D02*
X0345600Y0305000D01*
X0345600Y0297000D01*
X0341600Y0301000D01*
X0341600Y0304400D02*
X0337600Y0304400D01*
X0341600Y0304400D02*
X0345600Y0308400D01*
X0345600Y0300400D01*
X0341600Y0304400D01*
X0338200Y0304400D02*
X0334200Y0304400D01*
X0338200Y0304400D02*
X0342200Y0308400D01*
X0342200Y0300400D01*
X0338200Y0304400D01*
X0338200Y0307900D02*
X0334200Y0307900D01*
X0338200Y0307900D02*
X0342200Y0311900D01*
X0342200Y0303900D01*
X0338200Y0307900D01*
X0341600Y0307900D02*
X0337600Y0307900D01*
X0341600Y0307900D02*
X0345600Y0311900D01*
X0345600Y0303900D01*
X0341600Y0307900D01*
X0353100Y0290300D02*
X0349100Y0290300D01*
X0353100Y0290300D02*
X0357100Y0294300D01*
X0357100Y0286300D01*
X0353100Y0290300D01*
X0357500Y0290500D02*
X0353500Y0290500D01*
X0357500Y0290500D02*
X0361500Y0294500D01*
X0361500Y0286500D01*
X0357500Y0290500D01*
X0358000Y0284500D02*
X0354000Y0284500D01*
X0358000Y0284500D02*
X0362000Y0288500D01*
X0362000Y0280500D01*
X0358000Y0284500D01*
X0358000Y0276000D02*
X0354000Y0276000D01*
X0358000Y0276000D02*
X0362000Y0280000D01*
X0362000Y0272000D01*
X0358000Y0276000D01*
X0358000Y0266000D02*
X0354000Y0266000D01*
X0358000Y0266000D02*
X0362000Y0270000D01*
X0362000Y0262000D01*
X0358000Y0266000D01*
X0357900Y0256000D02*
X0353900Y0256000D01*
X0357900Y0256000D02*
X0361900Y0260000D01*
X0361900Y0252000D01*
X0357900Y0256000D01*
X0370000Y0256000D02*
X0366000Y0256000D01*
X0370000Y0256000D02*
X0374000Y0260000D01*
X0374000Y0252000D01*
X0370000Y0256000D01*
X0370000Y0266000D02*
X0366000Y0266000D01*
X0370000Y0266000D02*
X0374000Y0270000D01*
X0374000Y0262000D01*
X0370000Y0266000D01*
X0370000Y0276000D02*
X0366000Y0276000D01*
X0370000Y0276000D02*
X0374000Y0280000D01*
X0374000Y0272000D01*
X0370000Y0276000D01*
X0370000Y0286000D02*
X0366000Y0286000D01*
X0370000Y0286000D02*
X0374000Y0290000D01*
X0374000Y0282000D01*
X0370000Y0286000D01*
X0370000Y0296000D02*
X0366000Y0296000D01*
X0370000Y0296000D02*
X0374000Y0300000D01*
X0374000Y0292000D01*
X0370000Y0296000D01*
X0370000Y0306000D02*
X0366000Y0306000D01*
X0370000Y0306000D02*
X0374000Y0310000D01*
X0374000Y0302000D01*
X0370000Y0306000D01*
X0370000Y0316000D02*
X0366000Y0316000D01*
X0370000Y0316000D02*
X0374000Y0320000D01*
X0374000Y0312000D01*
X0370000Y0316000D01*
X0370000Y0324000D02*
X0366000Y0324000D01*
X0370000Y0324000D02*
X0374000Y0328000D01*
X0374000Y0320000D01*
X0370000Y0324000D01*
X0370000Y0330000D02*
X0366000Y0330000D01*
X0370000Y0330000D02*
X0374000Y0334000D01*
X0374000Y0326000D01*
X0370000Y0330000D01*
X0369000Y0336000D02*
X0365000Y0336000D01*
X0369000Y0336000D02*
X0373000Y0340000D01*
X0373000Y0332000D01*
X0369000Y0336000D01*
X0364500Y0336000D02*
X0360500Y0336000D01*
X0364500Y0336000D02*
X0368500Y0340000D01*
X0368500Y0332000D01*
X0364500Y0336000D01*
X0360000Y0336000D02*
X0356000Y0336000D01*
X0360000Y0336000D02*
X0364000Y0340000D01*
X0364000Y0332000D01*
X0360000Y0336000D01*
X0356000Y0336000D02*
X0352000Y0336000D01*
X0356000Y0336000D02*
X0360000Y0340000D01*
X0360000Y0332000D01*
X0356000Y0336000D01*
X0341000Y0336000D02*
X0337000Y0336000D01*
X0341000Y0336000D02*
X0345000Y0340000D01*
X0345000Y0332000D01*
X0341000Y0336000D01*
X0336000Y0336000D02*
X0332000Y0336000D01*
X0336000Y0336000D02*
X0340000Y0340000D01*
X0340000Y0332000D01*
X0336000Y0336000D01*
X0358000Y0308000D02*
X0354000Y0308000D01*
X0358000Y0308000D02*
X0362000Y0312000D01*
X0362000Y0304000D01*
X0358000Y0308000D01*
X0341600Y0283100D02*
X0337600Y0283100D01*
X0341600Y0283100D02*
X0345600Y0287100D01*
X0345600Y0279100D01*
X0341600Y0283100D01*
X0347000Y0276000D02*
X0343000Y0276000D01*
X0347000Y0276000D02*
X0351000Y0280000D01*
X0351000Y0272000D01*
X0347000Y0276000D01*
X0341700Y0270000D02*
X0337700Y0270000D01*
X0341700Y0270000D02*
X0345700Y0274000D01*
X0345700Y0266000D01*
X0341700Y0270000D01*
X0339400Y0266000D02*
X0335400Y0266000D01*
X0339400Y0266000D02*
X0343400Y0270000D01*
X0343400Y0262000D01*
X0339400Y0266000D01*
X0333700Y0270000D02*
X0329700Y0270000D01*
X0333700Y0270000D02*
X0337700Y0274000D01*
X0337700Y0266000D01*
X0333700Y0270000D01*
X0327100Y0283100D02*
X0323100Y0283100D01*
X0327100Y0283100D02*
X0331100Y0287100D01*
X0331100Y0279100D01*
X0327100Y0283100D01*
X0320600Y0287600D02*
X0316600Y0287600D01*
X0320600Y0287600D02*
X0324600Y0291600D01*
X0324600Y0283600D01*
X0320600Y0287600D01*
X0318000Y0292000D02*
X0314000Y0292000D01*
X0318000Y0292000D02*
X0322000Y0296000D01*
X0322000Y0288000D01*
X0318000Y0292000D01*
X0319100Y0282200D02*
X0315100Y0282200D01*
X0319100Y0282200D02*
X0323100Y0286200D01*
X0323100Y0278200D01*
X0319100Y0282200D01*
X0321000Y0266800D02*
X0317000Y0266800D01*
X0321000Y0266800D02*
X0325000Y0270800D01*
X0325000Y0262800D01*
X0321000Y0266800D01*
X0318000Y0256000D02*
X0314000Y0256000D01*
X0318000Y0256000D02*
X0322000Y0260000D01*
X0322000Y0252000D01*
X0318000Y0256000D01*
X0326000Y0256000D02*
X0322000Y0256000D01*
X0326000Y0256000D02*
X0330000Y0260000D01*
X0330000Y0252000D01*
X0326000Y0256000D01*
X0339400Y0256000D02*
X0335400Y0256000D01*
X0339400Y0256000D02*
X0343400Y0260000D01*
X0343400Y0252000D01*
X0339400Y0256000D01*
X0010000Y0010000D02*
X0372500Y0010000D01*
X0372500Y0373000D01*
X0010000Y0373000D01*
X0010000Y0010000D01*
X0418500Y0009500D02*
X0426500Y0017500D01*
X0426500Y0009500D02*
X0418500Y0017500D01*
X0418500Y0013500D02*
X0426500Y0013500D01*
X0434000Y0010000D02*
X0433000Y0011000D01*
X0437000Y0015000D01*
X0437000Y0011000D01*
X0436000Y0010000D01*
X0434000Y0010000D01*
X0433000Y0011000D02*
X0433000Y0015000D01*
X0434000Y0016000D01*
X0436000Y0016000D01*
X0437000Y0015000D01*
X0440500Y0011000D02*
X0441500Y0011000D01*
X0441500Y0010000D01*
X0440500Y0010000D01*
X0440500Y0011000D01*
X0446000Y0010000D02*
X0445000Y0011000D01*
X0449000Y0015000D01*
X0449000Y0011000D01*
X0448000Y0010000D01*
X0446000Y0010000D01*
X0445000Y0011000D02*
X0445000Y0015000D01*
X0446000Y0016000D01*
X0448000Y0016000D01*
X0449000Y0015000D01*
X0452000Y0015000D02*
X0453000Y0016000D01*
X0453000Y0010000D01*
X0452000Y0010000D02*
X0454000Y0010000D01*
X0457000Y0013000D02*
X0459000Y0014000D01*
X0460000Y0014000D01*
X0461000Y0013000D01*
X0461000Y0011000D01*
X0460000Y0010000D01*
X0458000Y0010000D01*
X0457000Y0011000D01*
X0457000Y0013000D02*
X0457000Y0016000D01*
X0461000Y0016000D01*
X0466500Y0015000D02*
X0465500Y0014000D01*
X0466500Y0015000D02*
X0466500Y0017000D01*
X0464500Y0017000D02*
X0464500Y0015000D01*
X0463500Y0014000D01*
X0422500Y0024000D02*
X0418500Y0024000D01*
X0422500Y0024000D02*
X0426500Y0028000D01*
X0426500Y0020000D01*
X0422500Y0024000D01*
X0434000Y0020500D02*
X0433000Y0021500D01*
X0437000Y0025500D01*
X0437000Y0021500D01*
X0436000Y0020500D01*
X0434000Y0020500D01*
X0433000Y0021500D02*
X0433000Y0025500D01*
X0434000Y0026500D01*
X0436000Y0026500D01*
X0437000Y0025500D01*
X0440500Y0021500D02*
X0441500Y0021500D01*
X0441500Y0020500D01*
X0440500Y0020500D01*
X0440500Y0021500D01*
X0446000Y0020500D02*
X0445000Y0021500D01*
X0449000Y0025500D01*
X0449000Y0021500D01*
X0448000Y0020500D01*
X0446000Y0020500D01*
X0445000Y0021500D02*
X0445000Y0025500D01*
X0446000Y0026500D01*
X0448000Y0026500D01*
X0449000Y0025500D01*
X0452000Y0025500D02*
X0453000Y0026500D01*
X0453000Y0020500D01*
X0452000Y0020500D02*
X0454000Y0020500D01*
X0457000Y0020500D02*
X0461000Y0024500D01*
X0461000Y0025500D01*
X0460000Y0026500D01*
X0458000Y0026500D01*
X0457000Y0025500D01*
X0457000Y0020500D02*
X0461000Y0020500D01*
X0466500Y0025500D02*
X0465500Y0024500D01*
X0466500Y0025500D02*
X0466500Y0027500D01*
X0464500Y0027500D02*
X0464500Y0025500D01*
X0463500Y0024500D01*
X0010000Y0385500D02*
X0010000Y0400500D01*
X0017500Y0396750D02*
X0010000Y0393000D01*
X0017500Y0389250D01*
X0010000Y0393000D02*
X0022500Y0393000D01*
X0372500Y0400500D02*
X0372500Y0385500D01*
X0365000Y0389250D02*
X0372500Y0393000D01*
X0365000Y0396750D01*
X0372500Y0393000D02*
X0360000Y0393000D01*
X0385000Y0373000D02*
X0400000Y0373000D01*
X0396250Y0365500D02*
X0392500Y0373000D01*
X0388750Y0365500D01*
X0392500Y0373000D02*
X0392500Y0360500D01*
X0400000Y0010000D02*
X0385000Y0010000D01*
X0388750Y0017500D02*
X0392500Y0010000D01*
X0396250Y0017500D01*
X0392500Y0010000D02*
X0392500Y0022500D01*
X0184250Y0390500D02*
X0185250Y0389500D01*
X0187250Y0389500D01*
X0188250Y0390500D01*
X0188250Y0391500D01*
X0187250Y0392500D01*
X0186250Y0392500D01*
X0187250Y0392500D02*
X0188250Y0393500D01*
X0188250Y0394500D01*
X0187250Y0395500D01*
X0185250Y0395500D01*
X0184250Y0394500D01*
X0191750Y0390500D02*
X0192750Y0390500D01*
X0192750Y0389500D01*
X0191750Y0389500D01*
X0191750Y0390500D01*
X0196250Y0392500D02*
X0196250Y0390500D01*
X0197250Y0389500D01*
X0199250Y0389500D01*
X0200250Y0390500D01*
X0200250Y0391500D01*
X0199250Y0392500D01*
X0196250Y0392500D01*
X0198250Y0394500D01*
X0200250Y0395500D01*
X0202250Y0389500D02*
X0206250Y0393500D01*
X0206250Y0394500D01*
X0205250Y0395500D01*
X0203250Y0395500D01*
X0202250Y0394500D01*
X0202250Y0389500D02*
X0206250Y0389500D01*
X0208250Y0392500D02*
X0210250Y0393500D01*
X0211250Y0393500D01*
X0212250Y0392500D01*
X0212250Y0390500D01*
X0211250Y0389500D01*
X0209250Y0389500D01*
X0208250Y0390500D01*
X0208250Y0392500D02*
X0208250Y0395500D01*
X0212250Y0395500D01*
X0217750Y0394500D02*
X0216750Y0393500D01*
X0217750Y0394500D02*
X0217750Y0396500D01*
X0215750Y0396500D02*
X0215750Y0394500D01*
X0214750Y0393500D01*
X0010000Y0393000D02*
X0173750Y0393000D01*
X0228750Y0393000D02*
X0372500Y0393000D01*
X0390000Y0218500D02*
X0389000Y0217500D01*
X0389000Y0215500D01*
X0390000Y0214500D01*
X0391000Y0214500D01*
X0392000Y0215500D01*
X0392000Y0216500D01*
X0392000Y0215500D02*
X0393000Y0214500D01*
X0394000Y0214500D01*
X0395000Y0215500D01*
X0395000Y0217500D01*
X0394000Y0218500D01*
X0390000Y0211000D02*
X0390000Y0210000D01*
X0389000Y0210000D01*
X0389000Y0211000D01*
X0390000Y0211000D01*
X0392000Y0206500D02*
X0390000Y0206500D01*
X0389000Y0205500D01*
X0389000Y0203500D01*
X0390000Y0202500D01*
X0391000Y0202500D01*
X0392000Y0203500D01*
X0392000Y0206500D01*
X0394000Y0204500D01*
X0395000Y0202500D01*
X0390000Y0200500D02*
X0389000Y0199500D01*
X0389000Y0197500D01*
X0390000Y0196500D01*
X0391000Y0196500D01*
X0392000Y0197500D01*
X0392000Y0198500D01*
X0392000Y0197500D02*
X0393000Y0196500D01*
X0394000Y0196500D01*
X0395000Y0197500D01*
X0395000Y0199500D01*
X0394000Y0200500D01*
X0389000Y0193500D02*
X0390000Y0194500D01*
X0394000Y0190500D01*
X0390000Y0190500D01*
X0389000Y0191500D01*
X0389000Y0193500D01*
X0390000Y0194500D02*
X0394000Y0194500D01*
X0395000Y0193500D01*
X0395000Y0191500D01*
X0394000Y0190500D01*
X0394000Y0185000D02*
X0393000Y0186000D01*
X0394000Y0185000D02*
X0396000Y0185000D01*
X0396000Y0187000D02*
X0394000Y0187000D01*
X0393000Y0188000D01*
X0392500Y0373000D02*
X0392500Y0229000D01*
X0392500Y0174000D02*
X0392500Y0010000D01*
X0492000Y0023500D02*
X0488000Y0023500D01*
X0488000Y0025500D02*
X0492000Y0021500D01*
X0490000Y0021500D02*
X0490000Y0025500D01*
X0492000Y0025500D02*
X0488000Y0021500D01*
X0504000Y0026500D02*
X0504000Y0021500D01*
X0503000Y0020500D01*
X0501000Y0020500D01*
X0500000Y0021500D01*
X0500000Y0026500D01*
X0510000Y0024500D02*
X0507000Y0024500D01*
X0506000Y0023500D01*
X0507000Y0022500D01*
X0509000Y0022500D01*
X0510000Y0021500D01*
X0509000Y0020500D01*
X0506000Y0020500D01*
X0516000Y0023500D02*
X0516000Y0022500D01*
X0512000Y0022500D01*
X0512000Y0023500D02*
X0513000Y0024500D01*
X0515000Y0024500D01*
X0516000Y0023500D01*
X0515000Y0020500D02*
X0513000Y0020500D01*
X0512000Y0021500D01*
X0512000Y0023500D01*
X0524000Y0018500D02*
X0524000Y0024500D01*
X0527000Y0024500D01*
X0528000Y0023500D01*
X0528000Y0021500D01*
X0527000Y0020500D01*
X0524000Y0020500D01*
X0530000Y0023500D02*
X0534000Y0023500D01*
X0540000Y0024500D02*
X0537000Y0024500D01*
X0536000Y0023500D01*
X0536000Y0021500D01*
X0537000Y0020500D01*
X0540000Y0020500D01*
X0542000Y0024500D02*
X0542000Y0021500D01*
X0543000Y0020500D01*
X0546000Y0020500D01*
X0546000Y0019500D02*
X0545000Y0018500D01*
X0544000Y0018500D01*
X0546000Y0019500D02*
X0546000Y0024500D01*
X0551500Y0024500D02*
X0550500Y0024500D01*
X0548500Y0022500D01*
X0548500Y0020500D02*
X0548500Y0024500D01*
X0557000Y0023500D02*
X0555000Y0023500D01*
X0556000Y0025500D02*
X0556000Y0020500D01*
X0556000Y0025500D02*
X0557000Y0026500D01*
X0560000Y0023500D02*
X0560000Y0021500D01*
X0561000Y0020500D01*
X0563000Y0020500D01*
X0564000Y0021500D01*
X0564000Y0022500D01*
X0563000Y0023500D01*
X0560000Y0023500D01*
X0562000Y0025500D01*
X0564000Y0026500D01*
X0566000Y0024500D02*
X0567000Y0023500D01*
X0570000Y0023500D01*
X0570000Y0021500D02*
X0570000Y0025500D01*
X0569000Y0026500D01*
X0567000Y0026500D01*
X0566000Y0025500D01*
X0566000Y0024500D01*
X0566000Y0021500D02*
X0567000Y0020500D01*
X0569000Y0020500D01*
X0570000Y0021500D01*
X0572000Y0021500D02*
X0573000Y0020500D01*
X0575000Y0020500D01*
X0576000Y0021500D01*
X0576000Y0022500D01*
X0575000Y0023500D01*
X0574000Y0023500D01*
X0575000Y0023500D02*
X0576000Y0024500D01*
X0576000Y0025500D01*
X0575000Y0026500D01*
X0573000Y0026500D01*
X0572000Y0025500D01*
X0578000Y0023500D02*
X0578000Y0021500D01*
X0579000Y0020500D01*
X0581000Y0020500D01*
X0582000Y0021500D01*
X0582000Y0022500D01*
X0581000Y0023500D01*
X0578000Y0023500D01*
X0580000Y0025500D01*
X0582000Y0026500D01*
X0584000Y0023500D02*
X0588000Y0023500D01*
X0594000Y0021500D02*
X0594000Y0023500D01*
X0593000Y0024500D01*
X0590000Y0024500D01*
X0590000Y0026500D02*
X0590000Y0020500D01*
X0593000Y0020500D01*
X0594000Y0021500D01*
X0600000Y0021500D02*
X0600000Y0023500D01*
X0599000Y0024500D01*
X0597000Y0024500D01*
X0596000Y0023500D01*
X0596000Y0021500D01*
X0597000Y0020500D01*
X0599000Y0020500D01*
X0600000Y0021500D01*
X0606000Y0021500D02*
X0606000Y0023500D01*
X0605000Y0024500D01*
X0602000Y0024500D01*
X0602000Y0026500D02*
X0602000Y0020500D01*
X0605000Y0020500D01*
X0606000Y0021500D01*
X0609500Y0021500D02*
X0610500Y0021500D01*
X0610500Y0020500D01*
X0609500Y0020500D01*
X0609500Y0021500D01*
X0618000Y0021500D02*
X0618000Y0023500D01*
X0617000Y0024500D01*
X0614000Y0024500D01*
X0614000Y0026500D02*
X0614000Y0020500D01*
X0617000Y0020500D01*
X0618000Y0021500D01*
X0624000Y0021500D02*
X0624000Y0023500D01*
X0623000Y0024500D01*
X0621000Y0024500D01*
X0620000Y0023500D01*
X0620000Y0021500D01*
X0621000Y0020500D01*
X0623000Y0020500D01*
X0624000Y0021500D01*
X0630000Y0022500D02*
X0627000Y0022500D01*
X0626000Y0021500D01*
X0627000Y0020500D01*
X0630000Y0020500D01*
X0630000Y0023500D01*
X0629000Y0024500D01*
X0627000Y0024500D01*
X0635500Y0024500D02*
X0634500Y0024500D01*
X0632500Y0022500D01*
X0632500Y0020500D02*
X0632500Y0024500D01*
X0642000Y0024500D02*
X0639000Y0024500D01*
X0638000Y0023500D01*
X0638000Y0021500D01*
X0639000Y0020500D01*
X0642000Y0020500D01*
X0642000Y0026500D01*
X0648000Y0019500D02*
X0644000Y0019500D01*
X0654000Y0021500D02*
X0654000Y0023500D01*
X0653000Y0024500D01*
X0651000Y0024500D01*
X0650000Y0023500D01*
X0650000Y0021500D01*
X0651000Y0020500D01*
X0653000Y0020500D01*
X0654000Y0021500D01*
X0657000Y0020500D02*
X0660000Y0020500D01*
X0660000Y0024500D01*
X0656000Y0024500D02*
X0656000Y0021500D01*
X0657000Y0020500D01*
X0664000Y0025500D02*
X0664000Y0021500D01*
X0665000Y0020500D01*
X0665000Y0024500D02*
X0663000Y0024500D01*
X0671000Y0020500D02*
X0669000Y0020500D01*
X0670000Y0020500D02*
X0670000Y0026500D01*
X0669000Y0026500D01*
X0677000Y0020500D02*
X0675000Y0020500D01*
X0676000Y0020500D02*
X0676000Y0024500D01*
X0675000Y0024500D01*
X0676000Y0026500D02*
X0676000Y0027500D01*
X0684000Y0020500D02*
X0684000Y0023500D01*
X0683000Y0024500D01*
X0680000Y0024500D01*
X0680000Y0020500D01*
X0690000Y0023500D02*
X0690000Y0022500D01*
X0686000Y0022500D01*
X0686000Y0023500D02*
X0687000Y0024500D01*
X0689000Y0024500D01*
X0690000Y0023500D01*
X0689000Y0020500D02*
X0687000Y0020500D01*
X0686000Y0021500D01*
X0686000Y0023500D01*
X0693500Y0021500D02*
X0694500Y0021500D01*
X0694500Y0020500D01*
X0693500Y0020500D01*
X0693500Y0021500D01*
X0702000Y0021500D02*
X0702000Y0023500D01*
X0701000Y0024500D01*
X0699000Y0024500D01*
X0698000Y0023500D01*
X0698000Y0021500D01*
X0699000Y0020500D01*
X0701000Y0020500D01*
X0702000Y0021500D01*
X0707000Y0020500D02*
X0705000Y0020500D01*
X0706000Y0020500D02*
X0706000Y0026500D01*
X0705000Y0026500D01*
X0714000Y0020500D02*
X0714000Y0023500D01*
X0713000Y0024500D01*
X0710000Y0024500D01*
X0710000Y0020500D01*
X0726000Y0022500D02*
X0723000Y0022500D01*
X0722000Y0021500D01*
X0723000Y0020500D01*
X0726000Y0020500D01*
X0726000Y0023500D01*
X0725000Y0024500D01*
X0723000Y0024500D01*
X0732000Y0024500D02*
X0729000Y0024500D01*
X0728000Y0023500D01*
X0729000Y0022500D01*
X0731000Y0022500D01*
X0732000Y0021500D01*
X0731000Y0020500D01*
X0728000Y0020500D01*
X0744000Y0021500D02*
X0744000Y0023500D01*
X0743000Y0024500D01*
X0740000Y0024500D01*
X0740000Y0026500D02*
X0740000Y0020500D01*
X0743000Y0020500D01*
X0744000Y0021500D01*
X0750000Y0021500D02*
X0750000Y0023500D01*
X0749000Y0024500D01*
X0747000Y0024500D01*
X0746000Y0023500D01*
X0746000Y0021500D01*
X0747000Y0020500D01*
X0749000Y0020500D01*
X0750000Y0021500D01*
X0756000Y0022500D02*
X0753000Y0022500D01*
X0752000Y0021500D01*
X0753000Y0020500D01*
X0756000Y0020500D01*
X0756000Y0023500D01*
X0755000Y0024500D01*
X0753000Y0024500D01*
X0761500Y0024500D02*
X0760500Y0024500D01*
X0758500Y0022500D01*
X0758500Y0020500D02*
X0758500Y0024500D01*
X0768000Y0024500D02*
X0765000Y0024500D01*
X0764000Y0023500D01*
X0764000Y0021500D01*
X0765000Y0020500D01*
X0768000Y0020500D01*
X0768000Y0026500D01*
X0780000Y0021500D02*
X0780000Y0023500D01*
X0779000Y0024500D01*
X0777000Y0024500D01*
X0776000Y0023500D01*
X0776000Y0021500D01*
X0777000Y0020500D01*
X0779000Y0020500D01*
X0780000Y0021500D01*
X0783000Y0020500D02*
X0786000Y0020500D01*
X0786000Y0024500D01*
X0782000Y0024500D02*
X0782000Y0021500D01*
X0783000Y0020500D01*
X0790000Y0025500D02*
X0790000Y0021500D01*
X0791000Y0020500D01*
X0791000Y0024500D02*
X0789000Y0024500D01*
X0797000Y0020500D02*
X0795000Y0020500D01*
X0796000Y0020500D02*
X0796000Y0026500D01*
X0795000Y0026500D01*
X0803000Y0020500D02*
X0801000Y0020500D01*
X0802000Y0020500D02*
X0802000Y0024500D01*
X0801000Y0024500D01*
X0802000Y0026500D02*
X0802000Y0027500D01*
X0810000Y0020500D02*
X0810000Y0023500D01*
X0809000Y0024500D01*
X0806000Y0024500D01*
X0806000Y0020500D01*
X0816000Y0023500D02*
X0816000Y0022500D01*
X0812000Y0022500D01*
X0812000Y0023500D02*
X0813000Y0024500D01*
X0815000Y0024500D01*
X0816000Y0023500D01*
X0815000Y0020500D02*
X0813000Y0020500D01*
X0812000Y0021500D01*
X0812000Y0023500D01*
X0819500Y0021500D02*
X0820500Y0021500D01*
X0820500Y0020500D01*
X0819500Y0020500D01*
X0819500Y0021500D01*
X0492000Y0034000D02*
X0488000Y0034000D01*
X0488000Y0036000D02*
X0492000Y0032000D01*
X0490000Y0032000D02*
X0490000Y0036000D01*
X0492000Y0036000D02*
X0488000Y0032000D01*
X0500000Y0034000D02*
X0503000Y0034000D01*
X0504000Y0033000D01*
X0504000Y0032000D01*
X0503000Y0031000D01*
X0500000Y0031000D01*
X0500000Y0037000D01*
X0503000Y0037000D01*
X0504000Y0036000D01*
X0504000Y0035000D01*
X0503000Y0034000D01*
X0510000Y0032000D02*
X0510000Y0034000D01*
X0509000Y0035000D01*
X0507000Y0035000D01*
X0506000Y0034000D01*
X0506000Y0032000D01*
X0507000Y0031000D01*
X0509000Y0031000D01*
X0510000Y0032000D01*
X0516000Y0033000D02*
X0513000Y0033000D01*
X0512000Y0032000D01*
X0513000Y0031000D01*
X0516000Y0031000D01*
X0516000Y0034000D01*
X0515000Y0035000D01*
X0513000Y0035000D01*
X0521500Y0035000D02*
X0520500Y0035000D01*
X0518500Y0033000D01*
X0518500Y0031000D02*
X0518500Y0035000D01*
X0528000Y0035000D02*
X0525000Y0035000D01*
X0524000Y0034000D01*
X0524000Y0032000D01*
X0525000Y0031000D01*
X0528000Y0031000D01*
X0528000Y0037000D01*
X0538000Y0036000D02*
X0538000Y0032000D01*
X0539000Y0031000D01*
X0539000Y0035000D02*
X0537000Y0035000D01*
X0546000Y0034000D02*
X0546000Y0031000D01*
X0546000Y0034000D02*
X0545000Y0035000D01*
X0543000Y0035000D01*
X0542000Y0034000D01*
X0542000Y0037000D02*
X0542000Y0031000D01*
X0551000Y0031000D02*
X0549000Y0031000D01*
X0550000Y0031000D02*
X0550000Y0035000D01*
X0549000Y0035000D01*
X0550000Y0037000D02*
X0550000Y0038000D01*
X0558000Y0035000D02*
X0555000Y0035000D01*
X0554000Y0034000D01*
X0554000Y0032000D01*
X0555000Y0031000D01*
X0558000Y0031000D01*
X0563500Y0035000D02*
X0560500Y0033000D01*
X0563500Y0031000D01*
X0560500Y0031000D02*
X0560500Y0037000D01*
X0570000Y0031000D02*
X0570000Y0034000D01*
X0569000Y0035000D01*
X0566000Y0035000D01*
X0566000Y0031000D01*
X0576000Y0034000D02*
X0576000Y0033000D01*
X0572000Y0033000D01*
X0572000Y0034000D02*
X0573000Y0035000D01*
X0575000Y0035000D01*
X0576000Y0034000D01*
X0575000Y0031000D02*
X0573000Y0031000D01*
X0572000Y0032000D01*
X0572000Y0034000D01*
X0582000Y0035000D02*
X0579000Y0035000D01*
X0578000Y0034000D01*
X0579000Y0033000D01*
X0581000Y0033000D01*
X0582000Y0032000D01*
X0581000Y0031000D01*
X0578000Y0031000D01*
X0588000Y0035000D02*
X0585000Y0035000D01*
X0584000Y0034000D01*
X0585000Y0033000D01*
X0587000Y0033000D01*
X0588000Y0032000D01*
X0587000Y0031000D01*
X0584000Y0031000D01*
X0597500Y0032000D02*
X0598500Y0032000D01*
X0598500Y0031000D01*
X0597500Y0031000D01*
X0597500Y0032000D01*
X0602000Y0032000D02*
X0602000Y0033000D01*
X0603000Y0034000D01*
X0605000Y0034000D01*
X0606000Y0033000D01*
X0606000Y0032000D01*
X0605000Y0031000D01*
X0603000Y0031000D01*
X0602000Y0032000D01*
X0603000Y0034000D02*
X0602000Y0035000D01*
X0602000Y0036000D01*
X0603000Y0037000D01*
X0605000Y0037000D01*
X0606000Y0036000D01*
X0606000Y0035000D01*
X0605000Y0034000D01*
X0612000Y0031000D02*
X0612000Y0034000D01*
X0611000Y0035000D01*
X0610000Y0034000D01*
X0610000Y0031000D01*
X0610000Y0034000D02*
X0609000Y0035000D01*
X0608000Y0035000D01*
X0608000Y0031000D01*
X0618000Y0031000D02*
X0618000Y0034000D01*
X0617000Y0035000D01*
X0616000Y0034000D01*
X0616000Y0031000D01*
X0616000Y0034000D02*
X0615000Y0035000D01*
X0614000Y0035000D01*
X0614000Y0031000D01*
X0492000Y0044500D02*
X0488000Y0044500D01*
X0488000Y0046500D02*
X0492000Y0042500D01*
X0490000Y0042500D02*
X0490000Y0046500D01*
X0492000Y0046500D02*
X0488000Y0042500D01*
X0500000Y0047500D02*
X0500000Y0041500D01*
X0503000Y0041500D01*
X0504000Y0042500D01*
X0504000Y0046500D01*
X0503000Y0047500D01*
X0500000Y0047500D01*
X0509500Y0045500D02*
X0508500Y0045500D01*
X0506500Y0043500D01*
X0506500Y0041500D02*
X0506500Y0045500D01*
X0515000Y0041500D02*
X0513000Y0041500D01*
X0514000Y0041500D02*
X0514000Y0045500D01*
X0513000Y0045500D01*
X0514000Y0047500D02*
X0514000Y0048500D01*
X0521000Y0041500D02*
X0519000Y0041500D01*
X0520000Y0041500D02*
X0520000Y0047500D01*
X0519000Y0047500D01*
X0527000Y0041500D02*
X0525000Y0041500D01*
X0526000Y0041500D02*
X0526000Y0047500D01*
X0525000Y0047500D01*
X0534000Y0045500D02*
X0531000Y0045500D01*
X0530000Y0044500D01*
X0531000Y0043500D01*
X0533000Y0043500D01*
X0534000Y0042500D01*
X0533000Y0041500D01*
X0530000Y0041500D01*
X0546000Y0045500D02*
X0543000Y0045500D01*
X0542000Y0044500D01*
X0543000Y0043500D01*
X0545000Y0043500D01*
X0546000Y0042500D01*
X0545000Y0041500D01*
X0542000Y0041500D01*
X0552000Y0044500D02*
X0552000Y0041500D01*
X0552000Y0044500D02*
X0551000Y0045500D01*
X0549000Y0045500D01*
X0548000Y0044500D01*
X0548000Y0047500D02*
X0548000Y0041500D01*
X0558000Y0042500D02*
X0558000Y0044500D01*
X0557000Y0045500D01*
X0555000Y0045500D01*
X0554000Y0044500D01*
X0554000Y0042500D01*
X0555000Y0041500D01*
X0557000Y0041500D01*
X0558000Y0042500D01*
X0560000Y0045500D02*
X0560000Y0042500D01*
X0561000Y0041500D01*
X0562000Y0042500D01*
X0563000Y0041500D01*
X0564000Y0042500D01*
X0564000Y0045500D01*
X0570000Y0041500D02*
X0570000Y0044500D01*
X0569000Y0045500D01*
X0566000Y0045500D01*
X0566000Y0041500D01*
X0582000Y0043500D02*
X0579000Y0043500D01*
X0578000Y0042500D01*
X0579000Y0041500D01*
X0582000Y0041500D01*
X0582000Y0044500D01*
X0581000Y0045500D01*
X0579000Y0045500D01*
X0588000Y0045500D02*
X0585000Y0045500D01*
X0584000Y0044500D01*
X0585000Y0043500D01*
X0587000Y0043500D01*
X0588000Y0042500D01*
X0587000Y0041500D01*
X0584000Y0041500D01*
X0599000Y0044500D02*
X0597000Y0044500D01*
X0598000Y0046500D02*
X0598000Y0041500D01*
X0598000Y0046500D02*
X0599000Y0047500D01*
X0605000Y0041500D02*
X0603000Y0041500D01*
X0604000Y0041500D02*
X0604000Y0045500D01*
X0603000Y0045500D01*
X0604000Y0047500D02*
X0604000Y0048500D01*
X0612000Y0041500D02*
X0612000Y0044500D01*
X0611000Y0045500D01*
X0608000Y0045500D01*
X0608000Y0041500D01*
X0617000Y0041500D02*
X0615000Y0041500D01*
X0616000Y0041500D02*
X0616000Y0045500D01*
X0615000Y0045500D01*
X0616000Y0047500D02*
X0616000Y0048500D01*
X0624000Y0045500D02*
X0621000Y0045500D01*
X0620000Y0044500D01*
X0621000Y0043500D01*
X0623000Y0043500D01*
X0624000Y0042500D01*
X0623000Y0041500D01*
X0620000Y0041500D01*
X0630000Y0044500D02*
X0630000Y0041500D01*
X0630000Y0044500D02*
X0629000Y0045500D01*
X0627000Y0045500D01*
X0626000Y0044500D01*
X0626000Y0047500D02*
X0626000Y0041500D01*
X0636000Y0044500D02*
X0636000Y0043500D01*
X0632000Y0043500D01*
X0632000Y0044500D02*
X0633000Y0045500D01*
X0635000Y0045500D01*
X0636000Y0044500D01*
X0635000Y0041500D02*
X0633000Y0041500D01*
X0632000Y0042500D01*
X0632000Y0044500D01*
X0642000Y0045500D02*
X0639000Y0045500D01*
X0638000Y0044500D01*
X0638000Y0042500D01*
X0639000Y0041500D01*
X0642000Y0041500D01*
X0642000Y0047500D01*
X0654000Y0045500D02*
X0651000Y0045500D01*
X0650000Y0044500D01*
X0651000Y0043500D01*
X0653000Y0043500D01*
X0654000Y0042500D01*
X0653000Y0041500D01*
X0650000Y0041500D01*
X0659000Y0041500D02*
X0657000Y0041500D01*
X0658000Y0041500D02*
X0658000Y0045500D01*
X0657000Y0045500D01*
X0658000Y0047500D02*
X0658000Y0048500D01*
X0662000Y0045500D02*
X0666000Y0045500D01*
X0662000Y0041500D01*
X0666000Y0041500D01*
X0672000Y0044500D02*
X0672000Y0043500D01*
X0668000Y0043500D01*
X0668000Y0044500D02*
X0669000Y0045500D01*
X0671000Y0045500D01*
X0672000Y0044500D01*
X0671000Y0041500D02*
X0669000Y0041500D01*
X0668000Y0042500D01*
X0668000Y0044500D01*
X0678000Y0045500D02*
X0675000Y0045500D01*
X0674000Y0044500D01*
X0675000Y0043500D01*
X0677000Y0043500D01*
X0678000Y0042500D01*
X0677000Y0041500D01*
X0674000Y0041500D01*
X0492000Y0055000D02*
X0488000Y0055000D01*
X0488000Y0057000D02*
X0492000Y0053000D01*
X0490000Y0053000D02*
X0490000Y0057000D01*
X0492000Y0057000D02*
X0488000Y0053000D01*
X0500000Y0052000D02*
X0500000Y0056000D01*
X0502000Y0058000D01*
X0504000Y0056000D01*
X0504000Y0052000D01*
X0504000Y0055000D02*
X0500000Y0055000D01*
X0509000Y0052000D02*
X0507000Y0052000D01*
X0508000Y0052000D02*
X0508000Y0058000D01*
X0507000Y0058000D01*
X0515000Y0052000D02*
X0513000Y0052000D01*
X0514000Y0052000D02*
X0514000Y0058000D01*
X0513000Y0058000D01*
X0528000Y0055000D02*
X0528000Y0052000D01*
X0528000Y0055000D02*
X0527000Y0056000D01*
X0525000Y0056000D01*
X0524000Y0055000D01*
X0524000Y0058000D02*
X0524000Y0052000D01*
X0534000Y0053000D02*
X0534000Y0055000D01*
X0533000Y0056000D01*
X0531000Y0056000D01*
X0530000Y0055000D01*
X0530000Y0053000D01*
X0531000Y0052000D01*
X0533000Y0052000D01*
X0534000Y0053000D01*
X0539000Y0052000D02*
X0537000Y0052000D01*
X0538000Y0052000D02*
X0538000Y0058000D01*
X0537000Y0058000D01*
X0546000Y0055000D02*
X0546000Y0054000D01*
X0542000Y0054000D01*
X0542000Y0055000D02*
X0543000Y0056000D01*
X0545000Y0056000D01*
X0546000Y0055000D01*
X0545000Y0052000D02*
X0543000Y0052000D01*
X0542000Y0053000D01*
X0542000Y0055000D01*
X0552000Y0056000D02*
X0549000Y0056000D01*
X0548000Y0055000D01*
X0549000Y0054000D01*
X0551000Y0054000D01*
X0552000Y0053000D01*
X0551000Y0052000D01*
X0548000Y0052000D01*
X0560000Y0050000D02*
X0560000Y0056000D01*
X0563000Y0056000D01*
X0564000Y0055000D01*
X0564000Y0053000D01*
X0563000Y0052000D01*
X0560000Y0052000D01*
X0569000Y0052000D02*
X0567000Y0052000D01*
X0568000Y0052000D02*
X0568000Y0058000D01*
X0567000Y0058000D01*
X0576000Y0054000D02*
X0573000Y0054000D01*
X0572000Y0053000D01*
X0573000Y0052000D01*
X0576000Y0052000D01*
X0576000Y0055000D01*
X0575000Y0056000D01*
X0573000Y0056000D01*
X0580000Y0057000D02*
X0580000Y0053000D01*
X0581000Y0052000D01*
X0581000Y0056000D02*
X0579000Y0056000D01*
X0588000Y0055000D02*
X0588000Y0054000D01*
X0584000Y0054000D01*
X0584000Y0055000D02*
X0585000Y0056000D01*
X0587000Y0056000D01*
X0588000Y0055000D01*
X0587000Y0052000D02*
X0585000Y0052000D01*
X0584000Y0053000D01*
X0584000Y0055000D01*
X0594000Y0056000D02*
X0591000Y0056000D01*
X0590000Y0055000D01*
X0590000Y0053000D01*
X0591000Y0052000D01*
X0594000Y0052000D01*
X0594000Y0058000D01*
X0604000Y0057000D02*
X0604000Y0053000D01*
X0605000Y0052000D01*
X0605000Y0056000D02*
X0603000Y0056000D01*
X0612000Y0055000D02*
X0612000Y0052000D01*
X0612000Y0055000D02*
X0611000Y0056000D01*
X0609000Y0056000D01*
X0608000Y0055000D01*
X0608000Y0058000D02*
X0608000Y0052000D01*
X0617500Y0056000D02*
X0616500Y0056000D01*
X0614500Y0054000D01*
X0614500Y0052000D02*
X0614500Y0056000D01*
X0624000Y0053000D02*
X0624000Y0055000D01*
X0623000Y0056000D01*
X0621000Y0056000D01*
X0620000Y0055000D01*
X0620000Y0053000D01*
X0621000Y0052000D01*
X0623000Y0052000D01*
X0624000Y0053000D01*
X0627000Y0052000D02*
X0630000Y0052000D01*
X0630000Y0056000D01*
X0626000Y0056000D02*
X0626000Y0053000D01*
X0627000Y0052000D01*
X0636000Y0052000D02*
X0633000Y0052000D01*
X0632000Y0053000D01*
X0632000Y0055000D01*
X0633000Y0056000D01*
X0636000Y0056000D01*
X0636000Y0051000D01*
X0635000Y0050000D01*
X0634000Y0050000D01*
X0642000Y0055000D02*
X0642000Y0052000D01*
X0642000Y0055000D02*
X0641000Y0056000D01*
X0639000Y0056000D01*
X0638000Y0055000D01*
X0638000Y0058000D02*
X0638000Y0052000D01*
X0492000Y0065500D02*
X0488000Y0065500D01*
X0488000Y0067500D02*
X0492000Y0063500D01*
X0490000Y0063500D02*
X0490000Y0067500D01*
X0492000Y0067500D02*
X0488000Y0063500D01*
X0500000Y0062500D02*
X0500000Y0066500D01*
X0502000Y0068500D01*
X0504000Y0066500D01*
X0504000Y0062500D01*
X0504000Y0065500D02*
X0500000Y0065500D01*
X0509000Y0062500D02*
X0507000Y0062500D01*
X0508000Y0062500D02*
X0508000Y0068500D01*
X0507000Y0068500D01*
X0515000Y0062500D02*
X0513000Y0062500D01*
X0514000Y0062500D02*
X0514000Y0068500D01*
X0513000Y0068500D01*
X0527000Y0062500D02*
X0525000Y0062500D01*
X0526000Y0062500D02*
X0526000Y0068500D01*
X0525000Y0068500D01*
X0534000Y0064500D02*
X0531000Y0064500D01*
X0530000Y0063500D01*
X0531000Y0062500D01*
X0534000Y0062500D01*
X0534000Y0065500D01*
X0533000Y0066500D01*
X0531000Y0066500D01*
X0536000Y0066500D02*
X0536000Y0063500D01*
X0537000Y0062500D01*
X0540000Y0062500D01*
X0540000Y0061500D02*
X0539000Y0060500D01*
X0538000Y0060500D01*
X0540000Y0061500D02*
X0540000Y0066500D01*
X0546000Y0065500D02*
X0546000Y0064500D01*
X0542000Y0064500D01*
X0542000Y0065500D02*
X0543000Y0066500D01*
X0545000Y0066500D01*
X0546000Y0065500D01*
X0545000Y0062500D02*
X0543000Y0062500D01*
X0542000Y0063500D01*
X0542000Y0065500D01*
X0551500Y0066500D02*
X0550500Y0066500D01*
X0548500Y0064500D01*
X0548500Y0062500D02*
X0548500Y0066500D01*
X0558000Y0066500D02*
X0555000Y0066500D01*
X0554000Y0065500D01*
X0555000Y0064500D01*
X0557000Y0064500D01*
X0558000Y0063500D01*
X0557000Y0062500D01*
X0554000Y0062500D01*
X0567500Y0063500D02*
X0568500Y0063500D01*
X0568500Y0062500D01*
X0567500Y0062500D01*
X0567500Y0063500D01*
X0572000Y0065500D02*
X0574000Y0066500D01*
X0575000Y0066500D01*
X0576000Y0065500D01*
X0576000Y0063500D01*
X0575000Y0062500D01*
X0573000Y0062500D01*
X0572000Y0063500D01*
X0572000Y0065500D02*
X0572000Y0068500D01*
X0576000Y0068500D01*
X0588000Y0063500D02*
X0588000Y0065500D01*
X0587000Y0066500D01*
X0585000Y0066500D01*
X0584000Y0065500D01*
X0584000Y0063500D01*
X0585000Y0062500D01*
X0587000Y0062500D01*
X0588000Y0063500D01*
X0590000Y0066500D02*
X0594000Y0066500D01*
X0590000Y0062500D01*
X0594000Y0062500D01*
X0597500Y0063500D02*
X0598500Y0063500D01*
X0598500Y0062500D01*
X0597500Y0062500D01*
X0597500Y0063500D01*
X0612000Y0066500D02*
X0609000Y0066500D01*
X0608000Y0065500D01*
X0608000Y0063500D01*
X0609000Y0062500D01*
X0612000Y0062500D01*
X0618000Y0063500D02*
X0618000Y0065500D01*
X0617000Y0066500D01*
X0615000Y0066500D01*
X0614000Y0065500D01*
X0614000Y0063500D01*
X0615000Y0062500D01*
X0617000Y0062500D01*
X0618000Y0063500D01*
X0620000Y0060500D02*
X0620000Y0066500D01*
X0623000Y0066500D01*
X0624000Y0065500D01*
X0624000Y0063500D01*
X0623000Y0062500D01*
X0620000Y0062500D01*
X0626000Y0060500D02*
X0626000Y0066500D01*
X0629000Y0066500D01*
X0630000Y0065500D01*
X0630000Y0063500D01*
X0629000Y0062500D01*
X0626000Y0062500D01*
X0636000Y0065500D02*
X0636000Y0064500D01*
X0632000Y0064500D01*
X0632000Y0065500D02*
X0633000Y0066500D01*
X0635000Y0066500D01*
X0636000Y0065500D01*
X0635000Y0062500D02*
X0633000Y0062500D01*
X0632000Y0063500D01*
X0632000Y0065500D01*
X0641500Y0066500D02*
X0640500Y0066500D01*
X0638500Y0064500D01*
X0638500Y0062500D02*
X0638500Y0066500D01*
X0492000Y0076000D02*
X0488000Y0076000D01*
X0488000Y0078000D02*
X0492000Y0074000D01*
X0490000Y0074000D02*
X0490000Y0078000D01*
X0492000Y0078000D02*
X0488000Y0074000D01*
X0500000Y0076000D02*
X0502000Y0076000D01*
X0500000Y0079000D02*
X0504000Y0079000D01*
X0500000Y0079000D02*
X0500000Y0073000D01*
X0510000Y0076000D02*
X0509000Y0075000D01*
X0506000Y0075000D01*
X0506000Y0073000D02*
X0506000Y0079000D01*
X0509000Y0079000D01*
X0510000Y0078000D01*
X0510000Y0076000D01*
X0508000Y0075000D02*
X0510000Y0073000D01*
X0512000Y0076000D02*
X0516000Y0076000D01*
X0515000Y0073000D02*
X0515000Y0079000D01*
X0512000Y0076000D01*
X0524000Y0073000D02*
X0524000Y0079000D01*
X0526000Y0077000D01*
X0528000Y0079000D01*
X0528000Y0073000D01*
X0534000Y0075000D02*
X0531000Y0075000D01*
X0530000Y0074000D01*
X0531000Y0073000D01*
X0534000Y0073000D01*
X0534000Y0076000D01*
X0533000Y0077000D01*
X0531000Y0077000D01*
X0538000Y0078000D02*
X0538000Y0074000D01*
X0539000Y0073000D01*
X0539000Y0077000D02*
X0537000Y0077000D01*
X0546000Y0076000D02*
X0546000Y0075000D01*
X0542000Y0075000D01*
X0542000Y0076000D02*
X0543000Y0077000D01*
X0545000Y0077000D01*
X0546000Y0076000D01*
X0545000Y0073000D02*
X0543000Y0073000D01*
X0542000Y0074000D01*
X0542000Y0076000D01*
X0551500Y0077000D02*
X0550500Y0077000D01*
X0548500Y0075000D01*
X0548500Y0073000D02*
X0548500Y0077000D01*
X0557000Y0073000D02*
X0555000Y0073000D01*
X0556000Y0073000D02*
X0556000Y0077000D01*
X0555000Y0077000D01*
X0556000Y0079000D02*
X0556000Y0080000D01*
X0564000Y0075000D02*
X0561000Y0075000D01*
X0560000Y0074000D01*
X0561000Y0073000D01*
X0564000Y0073000D01*
X0564000Y0076000D01*
X0563000Y0077000D01*
X0561000Y0077000D01*
X0569000Y0073000D02*
X0567000Y0073000D01*
X0568000Y0073000D02*
X0568000Y0079000D01*
X0567000Y0079000D01*
M02*
