G75*
G70*
%OFA0B0*%
%FSLAX25Y25*%
%IPPOS*%
%LPD*%
%AMOC8*
5,1,8,0,0,1.08239X$1,22.5*
%
%ADD14R,0.02760X0.03540*%
%ADD19R,0.02910X0.03660*%
%ADD21R,0.10000X0.05000*%
%ADD25R,0.04330X0.03940*%
%ADD26R,0.03350X0.01100*%
%ADD36R,0.17720X0.17720*%
%ADD39R,0.01100X0.03350*%
%ADD41R,0.07480X0.04330*%
%ADD42R,0.03660X0.02910*%
%ADD45R,0.03940X0.05510*%
X0010000Y0010000D02*
G75*
%LPD*%
D36*
X0044700Y0059000D03*
D26*
X0032990Y0058020D03*
X0032990Y0056050D03*
X0032990Y0054080D03*
X0032990Y0052110D03*
X0032990Y0050140D03*
X0032990Y0059980D03*
X0032990Y0061950D03*
X0032990Y0063920D03*
X0032990Y0065890D03*
X0032990Y0067860D03*
X0056410Y0067860D03*
X0056410Y0065890D03*
X0056410Y0063920D03*
X0056410Y0061950D03*
X0056410Y0059980D03*
X0056410Y0058020D03*
X0056410Y0056050D03*
X0056410Y0054080D03*
X0056410Y0052110D03*
X0056410Y0050140D03*
D39*
X0053560Y0047290D03*
X0051590Y0047290D03*
X0049620Y0047290D03*
X0047650Y0047290D03*
X0045680Y0047290D03*
X0043720Y0047290D03*
X0041750Y0047290D03*
X0039780Y0047290D03*
X0037810Y0047290D03*
X0035840Y0047290D03*
X0035840Y0070710D03*
X0037810Y0070710D03*
X0039780Y0070710D03*
X0041750Y0070710D03*
X0043720Y0070710D03*
X0045680Y0070710D03*
X0047650Y0070710D03*
X0049620Y0070710D03*
X0051590Y0070710D03*
X0053560Y0070710D03*
D42*
X0061300Y0080230D03*
X0061300Y0084970D03*
X0063700Y0069370D03*
X0063700Y0064630D03*
X0063700Y0057470D03*
X0063700Y0052730D03*
X0068400Y0052730D03*
X0068400Y0057470D03*
X0051600Y0037170D03*
X0051600Y0032430D03*
X0043700Y0032430D03*
X0043700Y0037170D03*
D19*
X0034370Y0036500D03*
X0034370Y0031500D03*
X0029630Y0031500D03*
X0029630Y0036500D03*
X0031630Y0080000D03*
X0036370Y0080000D03*
X0044630Y0080000D03*
X0049370Y0080000D03*
X0056330Y0091700D03*
X0061070Y0091700D03*
D25*
X0066950Y0080100D03*
X0073650Y0080100D03*
D14*
X0054560Y0085100D03*
X0049440Y0085100D03*
D41*
X0044220Y0023030D03*
X0044220Y0013970D03*
X0058780Y0013970D03*
X0058780Y0023030D03*
D45*
X0035340Y0021400D03*
X0027460Y0021400D03*
D21*
X0016000Y0018500D03*
X0016000Y0028000D03*
X0016000Y0038000D03*
X0016000Y0048000D03*
X0016000Y0058000D03*
X0016000Y0068000D03*
X0016000Y0078000D03*
X0082600Y0010000D02*
G75*
%LPD*%
D36*
X0117300Y0059000D03*
D26*
X0105590Y0058020D03*
X0105590Y0056050D03*
X0105590Y0054080D03*
X0105590Y0052110D03*
X0105590Y0050140D03*
X0105590Y0059980D03*
X0105590Y0061950D03*
X0105590Y0063920D03*
X0105590Y0065890D03*
X0105590Y0067860D03*
X0129010Y0067860D03*
X0129010Y0065890D03*
X0129010Y0063920D03*
X0129010Y0061950D03*
X0129010Y0059980D03*
X0129010Y0058020D03*
X0129010Y0056050D03*
X0129010Y0054080D03*
X0129010Y0052110D03*
X0129010Y0050140D03*
D39*
X0126160Y0047290D03*
X0124190Y0047290D03*
X0122220Y0047290D03*
X0120250Y0047290D03*
X0118280Y0047290D03*
X0116320Y0047290D03*
X0114350Y0047290D03*
X0112380Y0047290D03*
X0110410Y0047290D03*
X0108440Y0047290D03*
X0108440Y0070710D03*
X0110410Y0070710D03*
X0112380Y0070710D03*
X0114350Y0070710D03*
X0116320Y0070710D03*
X0118280Y0070710D03*
X0120250Y0070710D03*
X0122220Y0070710D03*
X0124190Y0070710D03*
X0126160Y0070710D03*
D42*
X0133900Y0080230D03*
X0133900Y0084970D03*
X0136300Y0069370D03*
X0136300Y0064630D03*
X0136300Y0057470D03*
X0136300Y0052730D03*
X0141000Y0052730D03*
X0141000Y0057470D03*
X0124200Y0037170D03*
X0124200Y0032430D03*
X0116300Y0032430D03*
X0116300Y0037170D03*
D19*
X0106970Y0036500D03*
X0106970Y0031500D03*
X0102230Y0031500D03*
X0102230Y0036500D03*
X0104230Y0080000D03*
X0108970Y0080000D03*
X0117230Y0080000D03*
X0121970Y0080000D03*
X0128930Y0091700D03*
X0133670Y0091700D03*
D25*
X0139550Y0080100D03*
X0146250Y0080100D03*
D14*
X0127160Y0085100D03*
X0122040Y0085100D03*
D41*
X0116820Y0023030D03*
X0116820Y0013970D03*
X0131380Y0013970D03*
X0131380Y0023030D03*
D45*
X0107940Y0021400D03*
X0100060Y0021400D03*
D21*
X0088600Y0018500D03*
X0088600Y0028000D03*
X0088600Y0038000D03*
X0088600Y0048000D03*
X0088600Y0058000D03*
X0088600Y0068000D03*
X0088600Y0078000D03*
X0155200Y0010000D02*
G75*
%LPD*%
D36*
X0189900Y0059000D03*
D26*
X0178190Y0058020D03*
X0178190Y0056050D03*
X0178190Y0054080D03*
X0178190Y0052110D03*
X0178190Y0050140D03*
X0178190Y0059980D03*
X0178190Y0061950D03*
X0178190Y0063920D03*
X0178190Y0065890D03*
X0178190Y0067860D03*
X0201610Y0067860D03*
X0201610Y0065890D03*
X0201610Y0063920D03*
X0201610Y0061950D03*
X0201610Y0059980D03*
X0201610Y0058020D03*
X0201610Y0056050D03*
X0201610Y0054080D03*
X0201610Y0052110D03*
X0201610Y0050140D03*
D39*
X0198760Y0047290D03*
X0196790Y0047290D03*
X0194820Y0047290D03*
X0192850Y0047290D03*
X0190880Y0047290D03*
X0188920Y0047290D03*
X0186950Y0047290D03*
X0184980Y0047290D03*
X0183010Y0047290D03*
X0181040Y0047290D03*
X0181040Y0070710D03*
X0183010Y0070710D03*
X0184980Y0070710D03*
X0186950Y0070710D03*
X0188920Y0070710D03*
X0190880Y0070710D03*
X0192850Y0070710D03*
X0194820Y0070710D03*
X0196790Y0070710D03*
X0198760Y0070710D03*
D42*
X0206500Y0080230D03*
X0206500Y0084970D03*
X0208900Y0069370D03*
X0208900Y0064630D03*
X0208900Y0057470D03*
X0208900Y0052730D03*
X0213600Y0052730D03*
X0213600Y0057470D03*
X0196800Y0037170D03*
X0196800Y0032430D03*
X0188900Y0032430D03*
X0188900Y0037170D03*
D19*
X0179570Y0036500D03*
X0179570Y0031500D03*
X0174830Y0031500D03*
X0174830Y0036500D03*
X0176830Y0080000D03*
X0181570Y0080000D03*
X0189830Y0080000D03*
X0194570Y0080000D03*
X0201530Y0091700D03*
X0206270Y0091700D03*
D25*
X0212150Y0080100D03*
X0218850Y0080100D03*
D14*
X0199760Y0085100D03*
X0194640Y0085100D03*
D41*
X0189420Y0023030D03*
X0189420Y0013970D03*
X0203980Y0013970D03*
X0203980Y0023030D03*
D45*
X0180540Y0021400D03*
X0172660Y0021400D03*
D21*
X0161200Y0018500D03*
X0161200Y0028000D03*
X0161200Y0038000D03*
X0161200Y0048000D03*
X0161200Y0058000D03*
X0161200Y0068000D03*
X0161200Y0078000D03*
X0227800Y0010000D02*
G75*
%LPD*%
D36*
X0262500Y0059000D03*
D26*
X0250790Y0058020D03*
X0250790Y0056050D03*
X0250790Y0054080D03*
X0250790Y0052110D03*
X0250790Y0050140D03*
X0250790Y0059980D03*
X0250790Y0061950D03*
X0250790Y0063920D03*
X0250790Y0065890D03*
X0250790Y0067860D03*
X0274210Y0067860D03*
X0274210Y0065890D03*
X0274210Y0063920D03*
X0274210Y0061950D03*
X0274210Y0059980D03*
X0274210Y0058020D03*
X0274210Y0056050D03*
X0274210Y0054080D03*
X0274210Y0052110D03*
X0274210Y0050140D03*
D39*
X0271360Y0047290D03*
X0269390Y0047290D03*
X0267420Y0047290D03*
X0265450Y0047290D03*
X0263480Y0047290D03*
X0261520Y0047290D03*
X0259550Y0047290D03*
X0257580Y0047290D03*
X0255610Y0047290D03*
X0253640Y0047290D03*
X0253640Y0070710D03*
X0255610Y0070710D03*
X0257580Y0070710D03*
X0259550Y0070710D03*
X0261520Y0070710D03*
X0263480Y0070710D03*
X0265450Y0070710D03*
X0267420Y0070710D03*
X0269390Y0070710D03*
X0271360Y0070710D03*
D42*
X0279100Y0080230D03*
X0279100Y0084970D03*
X0281500Y0069370D03*
X0281500Y0064630D03*
X0281500Y0057470D03*
X0281500Y0052730D03*
X0286200Y0052730D03*
X0286200Y0057470D03*
X0269400Y0037170D03*
X0269400Y0032430D03*
X0261500Y0032430D03*
X0261500Y0037170D03*
D19*
X0252170Y0036500D03*
X0252170Y0031500D03*
X0247430Y0031500D03*
X0247430Y0036500D03*
X0249430Y0080000D03*
X0254170Y0080000D03*
X0262430Y0080000D03*
X0267170Y0080000D03*
X0274130Y0091700D03*
X0278870Y0091700D03*
D25*
X0284750Y0080100D03*
X0291450Y0080100D03*
D14*
X0272360Y0085100D03*
X0267240Y0085100D03*
D41*
X0262020Y0023030D03*
X0262020Y0013970D03*
X0276580Y0013970D03*
X0276580Y0023030D03*
D45*
X0253140Y0021400D03*
X0245260Y0021400D03*
D21*
X0233800Y0018500D03*
X0233800Y0028000D03*
X0233800Y0038000D03*
X0233800Y0048000D03*
X0233800Y0058000D03*
X0233800Y0068000D03*
X0233800Y0078000D03*
X0300400Y0010000D02*
G75*
%LPD*%
D36*
X0335100Y0059000D03*
D26*
X0323390Y0058020D03*
X0323390Y0056050D03*
X0323390Y0054080D03*
X0323390Y0052110D03*
X0323390Y0050140D03*
X0323390Y0059980D03*
X0323390Y0061950D03*
X0323390Y0063920D03*
X0323390Y0065890D03*
X0323390Y0067860D03*
X0346810Y0067860D03*
X0346810Y0065890D03*
X0346810Y0063920D03*
X0346810Y0061950D03*
X0346810Y0059980D03*
X0346810Y0058020D03*
X0346810Y0056050D03*
X0346810Y0054080D03*
X0346810Y0052110D03*
X0346810Y0050140D03*
D39*
X0343960Y0047290D03*
X0341990Y0047290D03*
X0340020Y0047290D03*
X0338050Y0047290D03*
X0336080Y0047290D03*
X0334120Y0047290D03*
X0332150Y0047290D03*
X0330180Y0047290D03*
X0328210Y0047290D03*
X0326240Y0047290D03*
X0326240Y0070710D03*
X0328210Y0070710D03*
X0330180Y0070710D03*
X0332150Y0070710D03*
X0334120Y0070710D03*
X0336080Y0070710D03*
X0338050Y0070710D03*
X0340020Y0070710D03*
X0341990Y0070710D03*
X0343960Y0070710D03*
D42*
X0351700Y0080230D03*
X0351700Y0084970D03*
X0354100Y0069370D03*
X0354100Y0064630D03*
X0354100Y0057470D03*
X0354100Y0052730D03*
X0358800Y0052730D03*
X0358800Y0057470D03*
X0342000Y0037170D03*
X0342000Y0032430D03*
X0334100Y0032430D03*
X0334100Y0037170D03*
D19*
X0324770Y0036500D03*
X0324770Y0031500D03*
X0320030Y0031500D03*
X0320030Y0036500D03*
X0322030Y0080000D03*
X0326770Y0080000D03*
X0335030Y0080000D03*
X0339770Y0080000D03*
X0346730Y0091700D03*
X0351470Y0091700D03*
D25*
X0357350Y0080100D03*
X0364050Y0080100D03*
D14*
X0344960Y0085100D03*
X0339840Y0085100D03*
D41*
X0334620Y0023030D03*
X0334620Y0013970D03*
X0349180Y0013970D03*
X0349180Y0023030D03*
D45*
X0325740Y0021400D03*
X0317860Y0021400D03*
D21*
X0306400Y0018500D03*
X0306400Y0028000D03*
X0306400Y0038000D03*
X0306400Y0048000D03*
X0306400Y0058000D03*
X0306400Y0068000D03*
X0306400Y0078000D03*
M02*
