G75*
G70*
%OFA0B0*%
%FSLAX25Y25*%
%IPPOS*%
%LPD*%
%AMOC8*
5,1,8,0,0,1.08239X$1,22.5*
%
%ADD46C,0.00100*%
D46*
X0028700Y0095000D02*
X0036700Y0103000D01*
X0036700Y0095000D02*
X0028700Y0103000D01*
X0028700Y0099000D02*
X0036700Y0099000D01*
X0101300Y0095000D02*
X0109300Y0103000D01*
X0109300Y0095000D02*
X0101300Y0103000D01*
X0101300Y0099000D02*
X0109300Y0099000D01*
X0173900Y0095000D02*
X0181900Y0103000D01*
X0181900Y0095000D02*
X0173900Y0103000D01*
X0173900Y0099000D02*
X0181900Y0099000D01*
X0246500Y0095000D02*
X0254500Y0103000D01*
X0254500Y0095000D02*
X0246500Y0103000D01*
X0246500Y0099000D02*
X0254500Y0099000D01*
X0319100Y0095000D02*
X0327100Y0103000D01*
X0327100Y0095000D02*
X0319100Y0103000D01*
X0319100Y0099000D02*
X0327100Y0099000D01*
X0013000Y0014000D02*
X0009000Y0014000D01*
X0013000Y0014000D02*
X0017000Y0018000D01*
X0017000Y0010000D01*
X0013000Y0014000D01*
X0013000Y0023600D02*
X0009000Y0023600D01*
X0013000Y0023600D02*
X0017000Y0027600D01*
X0017000Y0019600D01*
X0013000Y0023600D01*
X0013000Y0033600D02*
X0009000Y0033600D01*
X0013000Y0033600D02*
X0017000Y0037600D01*
X0017000Y0029600D01*
X0013000Y0033600D01*
X0013000Y0043600D02*
X0009000Y0043600D01*
X0013000Y0043600D02*
X0017000Y0047600D01*
X0017000Y0039600D01*
X0013000Y0043600D01*
X0013000Y0053600D02*
X0009000Y0053600D01*
X0013000Y0053600D02*
X0017000Y0057600D01*
X0017000Y0049600D01*
X0013000Y0053600D01*
X0013000Y0063600D02*
X0009000Y0063600D01*
X0013000Y0063600D02*
X0017000Y0067600D01*
X0017000Y0059600D01*
X0013000Y0063600D01*
X0013000Y0073200D02*
X0009000Y0073200D01*
X0013000Y0073200D02*
X0017000Y0077200D01*
X0017000Y0069200D01*
X0013000Y0073200D01*
X0013000Y0084000D02*
X0009000Y0084000D01*
X0013000Y0084000D02*
X0017000Y0088000D01*
X0017000Y0080000D01*
X0013000Y0084000D01*
X0013000Y0089500D02*
X0009000Y0089500D01*
X0013000Y0089500D02*
X0017000Y0093500D01*
X0017000Y0085500D01*
X0013000Y0089500D01*
X0013000Y0094000D02*
X0009000Y0094000D01*
X0013000Y0094000D02*
X0017000Y0098000D01*
X0017000Y0090000D01*
X0013000Y0094000D01*
X0017500Y0094000D02*
X0013500Y0094000D01*
X0017500Y0094000D02*
X0021500Y0098000D01*
X0021500Y0090000D01*
X0017500Y0094000D01*
X0021500Y0094000D02*
X0017500Y0094000D01*
X0021500Y0094000D02*
X0025500Y0098000D01*
X0025500Y0090000D01*
X0021500Y0094000D01*
X0021500Y0089500D02*
X0017500Y0089500D01*
X0021500Y0089500D02*
X0025500Y0093500D01*
X0025500Y0085500D01*
X0021500Y0089500D01*
X0026000Y0094000D02*
X0022000Y0094000D01*
X0026000Y0094000D02*
X0030000Y0098000D01*
X0030000Y0090000D01*
X0026000Y0094000D01*
X0031000Y0094000D02*
X0027000Y0094000D01*
X0031000Y0094000D02*
X0035000Y0098000D01*
X0035000Y0090000D01*
X0031000Y0094000D01*
X0036000Y0094000D02*
X0032000Y0094000D01*
X0036000Y0094000D02*
X0040000Y0098000D01*
X0040000Y0090000D01*
X0036000Y0094000D01*
X0038000Y0088000D02*
X0034000Y0088000D01*
X0038000Y0088000D02*
X0042000Y0092000D01*
X0042000Y0084000D01*
X0038000Y0088000D01*
X0041000Y0094000D02*
X0037000Y0094000D01*
X0041000Y0094000D02*
X0045000Y0098000D01*
X0045000Y0090000D01*
X0041000Y0094000D01*
X0046000Y0094000D02*
X0042000Y0094000D01*
X0046000Y0094000D02*
X0050000Y0098000D01*
X0050000Y0090000D01*
X0046000Y0094000D01*
X0051000Y0094000D02*
X0047000Y0094000D01*
X0051000Y0094000D02*
X0055000Y0098000D01*
X0055000Y0090000D01*
X0051000Y0094000D01*
X0066000Y0094000D02*
X0062000Y0094000D01*
X0066000Y0094000D02*
X0070000Y0098000D01*
X0070000Y0090000D01*
X0066000Y0094000D01*
X0070000Y0094000D02*
X0066000Y0094000D01*
X0070000Y0094000D02*
X0074000Y0098000D01*
X0074000Y0090000D01*
X0070000Y0094000D01*
X0074500Y0094000D02*
X0070500Y0094000D01*
X0074500Y0094000D02*
X0078500Y0098000D01*
X0078500Y0090000D01*
X0074500Y0094000D01*
X0079000Y0094000D02*
X0075000Y0094000D01*
X0079000Y0094000D02*
X0083000Y0098000D01*
X0083000Y0090000D01*
X0079000Y0094000D01*
X0080000Y0088000D02*
X0076000Y0088000D01*
X0080000Y0088000D02*
X0084000Y0092000D01*
X0084000Y0084000D01*
X0080000Y0088000D01*
X0080000Y0082000D02*
X0076000Y0082000D01*
X0080000Y0082000D02*
X0084000Y0086000D01*
X0084000Y0078000D01*
X0080000Y0082000D01*
X0080000Y0074000D02*
X0076000Y0074000D01*
X0080000Y0074000D02*
X0084000Y0078000D01*
X0084000Y0070000D01*
X0080000Y0074000D01*
X0080000Y0064000D02*
X0076000Y0064000D01*
X0080000Y0064000D02*
X0084000Y0068000D01*
X0084000Y0060000D01*
X0080000Y0064000D01*
X0080000Y0054000D02*
X0076000Y0054000D01*
X0080000Y0054000D02*
X0084000Y0058000D01*
X0084000Y0050000D01*
X0080000Y0054000D01*
X0080000Y0044000D02*
X0076000Y0044000D01*
X0080000Y0044000D02*
X0084000Y0048000D01*
X0084000Y0040000D01*
X0080000Y0044000D01*
X0080000Y0034000D02*
X0076000Y0034000D01*
X0080000Y0034000D02*
X0084000Y0038000D01*
X0084000Y0030000D01*
X0080000Y0034000D01*
X0080000Y0024000D02*
X0076000Y0024000D01*
X0080000Y0024000D02*
X0084000Y0028000D01*
X0084000Y0020000D01*
X0080000Y0024000D01*
X0080000Y0014000D02*
X0076000Y0014000D01*
X0080000Y0014000D02*
X0084000Y0018000D01*
X0084000Y0010000D01*
X0080000Y0014000D01*
X0067900Y0014000D02*
X0063900Y0014000D01*
X0067900Y0014000D02*
X0071900Y0018000D01*
X0071900Y0010000D01*
X0067900Y0014000D01*
X0068000Y0024000D02*
X0064000Y0024000D01*
X0068000Y0024000D02*
X0072000Y0028000D01*
X0072000Y0020000D01*
X0068000Y0024000D01*
X0068000Y0034000D02*
X0064000Y0034000D01*
X0068000Y0034000D02*
X0072000Y0038000D01*
X0072000Y0030000D01*
X0068000Y0034000D01*
X0068000Y0042500D02*
X0064000Y0042500D01*
X0068000Y0042500D02*
X0072000Y0046500D01*
X0072000Y0038500D01*
X0068000Y0042500D01*
X0067500Y0048500D02*
X0063500Y0048500D01*
X0067500Y0048500D02*
X0071500Y0052500D01*
X0071500Y0044500D01*
X0067500Y0048500D01*
X0063100Y0048300D02*
X0059100Y0048300D01*
X0063100Y0048300D02*
X0067100Y0052300D01*
X0067100Y0044300D01*
X0063100Y0048300D01*
X0051600Y0052100D02*
X0047600Y0052100D01*
X0051600Y0052100D02*
X0055600Y0056100D01*
X0055600Y0048100D01*
X0051600Y0052100D01*
X0048200Y0052100D02*
X0044200Y0052100D01*
X0048200Y0052100D02*
X0052200Y0056100D01*
X0052200Y0048100D01*
X0048200Y0052100D01*
X0048200Y0055500D02*
X0044200Y0055500D01*
X0048200Y0055500D02*
X0052200Y0059500D01*
X0052200Y0051500D01*
X0048200Y0055500D01*
X0051600Y0055500D02*
X0047600Y0055500D01*
X0051600Y0055500D02*
X0055600Y0059500D01*
X0055600Y0051500D01*
X0051600Y0055500D01*
X0051600Y0059000D02*
X0047600Y0059000D01*
X0051600Y0059000D02*
X0055600Y0063000D01*
X0055600Y0055000D01*
X0051600Y0059000D01*
X0048200Y0059000D02*
X0044200Y0059000D01*
X0048200Y0059000D02*
X0052200Y0063000D01*
X0052200Y0055000D01*
X0048200Y0059000D01*
X0048200Y0062400D02*
X0044200Y0062400D01*
X0048200Y0062400D02*
X0052200Y0066400D01*
X0052200Y0058400D01*
X0048200Y0062400D01*
X0051600Y0062400D02*
X0047600Y0062400D01*
X0051600Y0062400D02*
X0055600Y0066400D01*
X0055600Y0058400D01*
X0051600Y0062400D01*
X0051600Y0065900D02*
X0047600Y0065900D01*
X0051600Y0065900D02*
X0055600Y0069900D01*
X0055600Y0061900D01*
X0051600Y0065900D01*
X0048200Y0065900D02*
X0044200Y0065900D01*
X0048200Y0065900D02*
X0052200Y0069900D01*
X0052200Y0061900D01*
X0048200Y0065900D01*
X0044800Y0065900D02*
X0040800Y0065900D01*
X0044800Y0065900D02*
X0048800Y0069900D01*
X0048800Y0061900D01*
X0044800Y0065900D01*
X0044800Y0062400D02*
X0040800Y0062400D01*
X0044800Y0062400D02*
X0048800Y0066400D01*
X0048800Y0058400D01*
X0044800Y0062400D01*
X0044800Y0059000D02*
X0040800Y0059000D01*
X0044800Y0059000D02*
X0048800Y0063000D01*
X0048800Y0055000D01*
X0044800Y0059000D01*
X0044800Y0055500D02*
X0040800Y0055500D01*
X0044800Y0055500D02*
X0048800Y0059500D01*
X0048800Y0051500D01*
X0044800Y0055500D01*
X0044800Y0052100D02*
X0040800Y0052100D01*
X0044800Y0052100D02*
X0048800Y0056100D01*
X0048800Y0048100D01*
X0044800Y0052100D01*
X0041400Y0052100D02*
X0037400Y0052100D01*
X0041400Y0052100D02*
X0045400Y0056100D01*
X0045400Y0048100D01*
X0041400Y0052100D01*
X0041400Y0055500D02*
X0037400Y0055500D01*
X0041400Y0055500D02*
X0045400Y0059500D01*
X0045400Y0051500D01*
X0041400Y0055500D01*
X0041400Y0059000D02*
X0037400Y0059000D01*
X0041400Y0059000D02*
X0045400Y0063000D01*
X0045400Y0055000D01*
X0041400Y0059000D01*
X0041400Y0062400D02*
X0037400Y0062400D01*
X0041400Y0062400D02*
X0045400Y0066400D01*
X0045400Y0058400D01*
X0041400Y0062400D01*
X0041400Y0065900D02*
X0037400Y0065900D01*
X0041400Y0065900D02*
X0045400Y0069900D01*
X0045400Y0061900D01*
X0041400Y0065900D01*
X0038000Y0065900D02*
X0034000Y0065900D01*
X0038000Y0065900D02*
X0042000Y0069900D01*
X0042000Y0061900D01*
X0038000Y0065900D01*
X0038000Y0062400D02*
X0034000Y0062400D01*
X0038000Y0062400D02*
X0042000Y0066400D01*
X0042000Y0058400D01*
X0038000Y0062400D01*
X0038000Y0059000D02*
X0034000Y0059000D01*
X0038000Y0059000D02*
X0042000Y0063000D01*
X0042000Y0055000D01*
X0038000Y0059000D01*
X0038000Y0055500D02*
X0034000Y0055500D01*
X0038000Y0055500D02*
X0042000Y0059500D01*
X0042000Y0051500D01*
X0038000Y0055500D01*
X0038000Y0052100D02*
X0034000Y0052100D01*
X0038000Y0052100D02*
X0042000Y0056100D01*
X0042000Y0048100D01*
X0038000Y0052100D01*
X0030600Y0045600D02*
X0026600Y0045600D01*
X0030600Y0045600D02*
X0034600Y0049600D01*
X0034600Y0041600D01*
X0030600Y0045600D01*
X0028000Y0050000D02*
X0024000Y0050000D01*
X0028000Y0050000D02*
X0032000Y0054000D01*
X0032000Y0046000D01*
X0028000Y0050000D01*
X0029100Y0040200D02*
X0025100Y0040200D01*
X0029100Y0040200D02*
X0033100Y0044200D01*
X0033100Y0036200D01*
X0029100Y0040200D01*
X0037100Y0041100D02*
X0033100Y0041100D01*
X0037100Y0041100D02*
X0041100Y0045100D01*
X0041100Y0037100D01*
X0037100Y0041100D01*
X0043700Y0028000D02*
X0039700Y0028000D01*
X0043700Y0028000D02*
X0047700Y0032000D01*
X0047700Y0024000D01*
X0043700Y0028000D01*
X0051500Y0028000D02*
X0047500Y0028000D01*
X0051500Y0028000D02*
X0055500Y0032000D01*
X0055500Y0024000D01*
X0051500Y0028000D01*
X0051500Y0023000D02*
X0047500Y0023000D01*
X0051500Y0023000D02*
X0055500Y0027000D01*
X0055500Y0019000D01*
X0051500Y0023000D01*
X0051500Y0014000D02*
X0047500Y0014000D01*
X0051500Y0014000D02*
X0055500Y0018000D01*
X0055500Y0010000D01*
X0051500Y0014000D01*
X0036000Y0014000D02*
X0032000Y0014000D01*
X0036000Y0014000D02*
X0040000Y0018000D01*
X0040000Y0010000D01*
X0036000Y0014000D01*
X0028000Y0014000D02*
X0024000Y0014000D01*
X0028000Y0014000D02*
X0032000Y0018000D01*
X0032000Y0010000D01*
X0028000Y0014000D01*
X0031000Y0024800D02*
X0027000Y0024800D01*
X0031000Y0024800D02*
X0035000Y0028800D01*
X0035000Y0020800D01*
X0031000Y0024800D01*
X0051600Y0041100D02*
X0047600Y0041100D01*
X0051600Y0041100D02*
X0055600Y0045100D01*
X0055600Y0037100D01*
X0051600Y0041100D01*
X0057000Y0034000D02*
X0053000Y0034000D01*
X0057000Y0034000D02*
X0061000Y0038000D01*
X0061000Y0030000D01*
X0057000Y0034000D01*
X0068000Y0066000D02*
X0064000Y0066000D01*
X0068000Y0066000D02*
X0072000Y0070000D01*
X0072000Y0062000D01*
X0068000Y0066000D01*
X0031500Y0084500D02*
X0027500Y0084500D01*
X0031500Y0084500D02*
X0035500Y0088500D01*
X0035500Y0080500D01*
X0031500Y0084500D01*
X0028000Y0088000D02*
X0024000Y0088000D01*
X0028000Y0088000D02*
X0032000Y0092000D01*
X0032000Y0084000D01*
X0028000Y0088000D01*
X0027700Y0080000D02*
X0023700Y0080000D01*
X0027700Y0080000D02*
X0031700Y0084000D01*
X0031700Y0076000D01*
X0027700Y0080000D01*
X0029700Y0070800D02*
X0025700Y0070800D01*
X0029700Y0070800D02*
X0033700Y0074800D01*
X0033700Y0066800D01*
X0029700Y0070800D01*
X0028000Y0066000D02*
X0024000Y0066000D01*
X0028000Y0066000D02*
X0032000Y0070000D01*
X0032000Y0062000D01*
X0028000Y0066000D01*
X0085600Y0014000D02*
X0081600Y0014000D01*
X0085600Y0014000D02*
X0089600Y0018000D01*
X0089600Y0010000D01*
X0085600Y0014000D01*
X0085600Y0023600D02*
X0081600Y0023600D01*
X0085600Y0023600D02*
X0089600Y0027600D01*
X0089600Y0019600D01*
X0085600Y0023600D01*
X0085600Y0033600D02*
X0081600Y0033600D01*
X0085600Y0033600D02*
X0089600Y0037600D01*
X0089600Y0029600D01*
X0085600Y0033600D01*
X0085600Y0043600D02*
X0081600Y0043600D01*
X0085600Y0043600D02*
X0089600Y0047600D01*
X0089600Y0039600D01*
X0085600Y0043600D01*
X0085600Y0053600D02*
X0081600Y0053600D01*
X0085600Y0053600D02*
X0089600Y0057600D01*
X0089600Y0049600D01*
X0085600Y0053600D01*
X0085600Y0063600D02*
X0081600Y0063600D01*
X0085600Y0063600D02*
X0089600Y0067600D01*
X0089600Y0059600D01*
X0085600Y0063600D01*
X0085600Y0073200D02*
X0081600Y0073200D01*
X0085600Y0073200D02*
X0089600Y0077200D01*
X0089600Y0069200D01*
X0085600Y0073200D01*
X0085600Y0084000D02*
X0081600Y0084000D01*
X0085600Y0084000D02*
X0089600Y0088000D01*
X0089600Y0080000D01*
X0085600Y0084000D01*
X0085600Y0089500D02*
X0081600Y0089500D01*
X0085600Y0089500D02*
X0089600Y0093500D01*
X0089600Y0085500D01*
X0085600Y0089500D01*
X0085600Y0094000D02*
X0081600Y0094000D01*
X0085600Y0094000D02*
X0089600Y0098000D01*
X0089600Y0090000D01*
X0085600Y0094000D01*
X0090100Y0094000D02*
X0086100Y0094000D01*
X0090100Y0094000D02*
X0094100Y0098000D01*
X0094100Y0090000D01*
X0090100Y0094000D01*
X0094100Y0094000D02*
X0090100Y0094000D01*
X0094100Y0094000D02*
X0098100Y0098000D01*
X0098100Y0090000D01*
X0094100Y0094000D01*
X0094100Y0089500D02*
X0090100Y0089500D01*
X0094100Y0089500D02*
X0098100Y0093500D01*
X0098100Y0085500D01*
X0094100Y0089500D01*
X0098600Y0094000D02*
X0094600Y0094000D01*
X0098600Y0094000D02*
X0102600Y0098000D01*
X0102600Y0090000D01*
X0098600Y0094000D01*
X0103600Y0094000D02*
X0099600Y0094000D01*
X0103600Y0094000D02*
X0107600Y0098000D01*
X0107600Y0090000D01*
X0103600Y0094000D01*
X0108600Y0094000D02*
X0104600Y0094000D01*
X0108600Y0094000D02*
X0112600Y0098000D01*
X0112600Y0090000D01*
X0108600Y0094000D01*
X0110600Y0088000D02*
X0106600Y0088000D01*
X0110600Y0088000D02*
X0114600Y0092000D01*
X0114600Y0084000D01*
X0110600Y0088000D01*
X0113600Y0094000D02*
X0109600Y0094000D01*
X0113600Y0094000D02*
X0117600Y0098000D01*
X0117600Y0090000D01*
X0113600Y0094000D01*
X0118600Y0094000D02*
X0114600Y0094000D01*
X0118600Y0094000D02*
X0122600Y0098000D01*
X0122600Y0090000D01*
X0118600Y0094000D01*
X0123600Y0094000D02*
X0119600Y0094000D01*
X0123600Y0094000D02*
X0127600Y0098000D01*
X0127600Y0090000D01*
X0123600Y0094000D01*
X0138600Y0094000D02*
X0134600Y0094000D01*
X0138600Y0094000D02*
X0142600Y0098000D01*
X0142600Y0090000D01*
X0138600Y0094000D01*
X0142600Y0094000D02*
X0138600Y0094000D01*
X0142600Y0094000D02*
X0146600Y0098000D01*
X0146600Y0090000D01*
X0142600Y0094000D01*
X0147100Y0094000D02*
X0143100Y0094000D01*
X0147100Y0094000D02*
X0151100Y0098000D01*
X0151100Y0090000D01*
X0147100Y0094000D01*
X0151600Y0094000D02*
X0147600Y0094000D01*
X0151600Y0094000D02*
X0155600Y0098000D01*
X0155600Y0090000D01*
X0151600Y0094000D01*
X0152600Y0088000D02*
X0148600Y0088000D01*
X0152600Y0088000D02*
X0156600Y0092000D01*
X0156600Y0084000D01*
X0152600Y0088000D01*
X0152600Y0082000D02*
X0148600Y0082000D01*
X0152600Y0082000D02*
X0156600Y0086000D01*
X0156600Y0078000D01*
X0152600Y0082000D01*
X0152600Y0074000D02*
X0148600Y0074000D01*
X0152600Y0074000D02*
X0156600Y0078000D01*
X0156600Y0070000D01*
X0152600Y0074000D01*
X0152600Y0064000D02*
X0148600Y0064000D01*
X0152600Y0064000D02*
X0156600Y0068000D01*
X0156600Y0060000D01*
X0152600Y0064000D01*
X0152600Y0054000D02*
X0148600Y0054000D01*
X0152600Y0054000D02*
X0156600Y0058000D01*
X0156600Y0050000D01*
X0152600Y0054000D01*
X0152600Y0044000D02*
X0148600Y0044000D01*
X0152600Y0044000D02*
X0156600Y0048000D01*
X0156600Y0040000D01*
X0152600Y0044000D01*
X0152600Y0034000D02*
X0148600Y0034000D01*
X0152600Y0034000D02*
X0156600Y0038000D01*
X0156600Y0030000D01*
X0152600Y0034000D01*
X0152600Y0024000D02*
X0148600Y0024000D01*
X0152600Y0024000D02*
X0156600Y0028000D01*
X0156600Y0020000D01*
X0152600Y0024000D01*
X0152600Y0014000D02*
X0148600Y0014000D01*
X0152600Y0014000D02*
X0156600Y0018000D01*
X0156600Y0010000D01*
X0152600Y0014000D01*
X0140500Y0014000D02*
X0136500Y0014000D01*
X0140500Y0014000D02*
X0144500Y0018000D01*
X0144500Y0010000D01*
X0140500Y0014000D01*
X0140600Y0024000D02*
X0136600Y0024000D01*
X0140600Y0024000D02*
X0144600Y0028000D01*
X0144600Y0020000D01*
X0140600Y0024000D01*
X0140600Y0034000D02*
X0136600Y0034000D01*
X0140600Y0034000D02*
X0144600Y0038000D01*
X0144600Y0030000D01*
X0140600Y0034000D01*
X0140600Y0042500D02*
X0136600Y0042500D01*
X0140600Y0042500D02*
X0144600Y0046500D01*
X0144600Y0038500D01*
X0140600Y0042500D01*
X0140100Y0048500D02*
X0136100Y0048500D01*
X0140100Y0048500D02*
X0144100Y0052500D01*
X0144100Y0044500D01*
X0140100Y0048500D01*
X0135700Y0048300D02*
X0131700Y0048300D01*
X0135700Y0048300D02*
X0139700Y0052300D01*
X0139700Y0044300D01*
X0135700Y0048300D01*
X0124200Y0052100D02*
X0120200Y0052100D01*
X0124200Y0052100D02*
X0128200Y0056100D01*
X0128200Y0048100D01*
X0124200Y0052100D01*
X0120800Y0052100D02*
X0116800Y0052100D01*
X0120800Y0052100D02*
X0124800Y0056100D01*
X0124800Y0048100D01*
X0120800Y0052100D01*
X0120800Y0055500D02*
X0116800Y0055500D01*
X0120800Y0055500D02*
X0124800Y0059500D01*
X0124800Y0051500D01*
X0120800Y0055500D01*
X0124200Y0055500D02*
X0120200Y0055500D01*
X0124200Y0055500D02*
X0128200Y0059500D01*
X0128200Y0051500D01*
X0124200Y0055500D01*
X0124200Y0059000D02*
X0120200Y0059000D01*
X0124200Y0059000D02*
X0128200Y0063000D01*
X0128200Y0055000D01*
X0124200Y0059000D01*
X0120800Y0059000D02*
X0116800Y0059000D01*
X0120800Y0059000D02*
X0124800Y0063000D01*
X0124800Y0055000D01*
X0120800Y0059000D01*
X0120800Y0062400D02*
X0116800Y0062400D01*
X0120800Y0062400D02*
X0124800Y0066400D01*
X0124800Y0058400D01*
X0120800Y0062400D01*
X0124200Y0062400D02*
X0120200Y0062400D01*
X0124200Y0062400D02*
X0128200Y0066400D01*
X0128200Y0058400D01*
X0124200Y0062400D01*
X0124200Y0065900D02*
X0120200Y0065900D01*
X0124200Y0065900D02*
X0128200Y0069900D01*
X0128200Y0061900D01*
X0124200Y0065900D01*
X0120800Y0065900D02*
X0116800Y0065900D01*
X0120800Y0065900D02*
X0124800Y0069900D01*
X0124800Y0061900D01*
X0120800Y0065900D01*
X0117400Y0065900D02*
X0113400Y0065900D01*
X0117400Y0065900D02*
X0121400Y0069900D01*
X0121400Y0061900D01*
X0117400Y0065900D01*
X0117400Y0062400D02*
X0113400Y0062400D01*
X0117400Y0062400D02*
X0121400Y0066400D01*
X0121400Y0058400D01*
X0117400Y0062400D01*
X0117400Y0059000D02*
X0113400Y0059000D01*
X0117400Y0059000D02*
X0121400Y0063000D01*
X0121400Y0055000D01*
X0117400Y0059000D01*
X0117400Y0055500D02*
X0113400Y0055500D01*
X0117400Y0055500D02*
X0121400Y0059500D01*
X0121400Y0051500D01*
X0117400Y0055500D01*
X0117400Y0052100D02*
X0113400Y0052100D01*
X0117400Y0052100D02*
X0121400Y0056100D01*
X0121400Y0048100D01*
X0117400Y0052100D01*
X0114000Y0052100D02*
X0110000Y0052100D01*
X0114000Y0052100D02*
X0118000Y0056100D01*
X0118000Y0048100D01*
X0114000Y0052100D01*
X0114000Y0055500D02*
X0110000Y0055500D01*
X0114000Y0055500D02*
X0118000Y0059500D01*
X0118000Y0051500D01*
X0114000Y0055500D01*
X0114000Y0059000D02*
X0110000Y0059000D01*
X0114000Y0059000D02*
X0118000Y0063000D01*
X0118000Y0055000D01*
X0114000Y0059000D01*
X0114000Y0062400D02*
X0110000Y0062400D01*
X0114000Y0062400D02*
X0118000Y0066400D01*
X0118000Y0058400D01*
X0114000Y0062400D01*
X0114000Y0065900D02*
X0110000Y0065900D01*
X0114000Y0065900D02*
X0118000Y0069900D01*
X0118000Y0061900D01*
X0114000Y0065900D01*
X0110600Y0065900D02*
X0106600Y0065900D01*
X0110600Y0065900D02*
X0114600Y0069900D01*
X0114600Y0061900D01*
X0110600Y0065900D01*
X0110600Y0062400D02*
X0106600Y0062400D01*
X0110600Y0062400D02*
X0114600Y0066400D01*
X0114600Y0058400D01*
X0110600Y0062400D01*
X0110600Y0059000D02*
X0106600Y0059000D01*
X0110600Y0059000D02*
X0114600Y0063000D01*
X0114600Y0055000D01*
X0110600Y0059000D01*
X0110600Y0055500D02*
X0106600Y0055500D01*
X0110600Y0055500D02*
X0114600Y0059500D01*
X0114600Y0051500D01*
X0110600Y0055500D01*
X0110600Y0052100D02*
X0106600Y0052100D01*
X0110600Y0052100D02*
X0114600Y0056100D01*
X0114600Y0048100D01*
X0110600Y0052100D01*
X0103200Y0045600D02*
X0099200Y0045600D01*
X0103200Y0045600D02*
X0107200Y0049600D01*
X0107200Y0041600D01*
X0103200Y0045600D01*
X0100600Y0050000D02*
X0096600Y0050000D01*
X0100600Y0050000D02*
X0104600Y0054000D01*
X0104600Y0046000D01*
X0100600Y0050000D01*
X0101700Y0040200D02*
X0097700Y0040200D01*
X0101700Y0040200D02*
X0105700Y0044200D01*
X0105700Y0036200D01*
X0101700Y0040200D01*
X0109700Y0041100D02*
X0105700Y0041100D01*
X0109700Y0041100D02*
X0113700Y0045100D01*
X0113700Y0037100D01*
X0109700Y0041100D01*
X0116300Y0028000D02*
X0112300Y0028000D01*
X0116300Y0028000D02*
X0120300Y0032000D01*
X0120300Y0024000D01*
X0116300Y0028000D01*
X0124100Y0028000D02*
X0120100Y0028000D01*
X0124100Y0028000D02*
X0128100Y0032000D01*
X0128100Y0024000D01*
X0124100Y0028000D01*
X0124100Y0023000D02*
X0120100Y0023000D01*
X0124100Y0023000D02*
X0128100Y0027000D01*
X0128100Y0019000D01*
X0124100Y0023000D01*
X0124100Y0014000D02*
X0120100Y0014000D01*
X0124100Y0014000D02*
X0128100Y0018000D01*
X0128100Y0010000D01*
X0124100Y0014000D01*
X0108600Y0014000D02*
X0104600Y0014000D01*
X0108600Y0014000D02*
X0112600Y0018000D01*
X0112600Y0010000D01*
X0108600Y0014000D01*
X0100600Y0014000D02*
X0096600Y0014000D01*
X0100600Y0014000D02*
X0104600Y0018000D01*
X0104600Y0010000D01*
X0100600Y0014000D01*
X0103600Y0024800D02*
X0099600Y0024800D01*
X0103600Y0024800D02*
X0107600Y0028800D01*
X0107600Y0020800D01*
X0103600Y0024800D01*
X0124200Y0041100D02*
X0120200Y0041100D01*
X0124200Y0041100D02*
X0128200Y0045100D01*
X0128200Y0037100D01*
X0124200Y0041100D01*
X0129600Y0034000D02*
X0125600Y0034000D01*
X0129600Y0034000D02*
X0133600Y0038000D01*
X0133600Y0030000D01*
X0129600Y0034000D01*
X0140600Y0066000D02*
X0136600Y0066000D01*
X0140600Y0066000D02*
X0144600Y0070000D01*
X0144600Y0062000D01*
X0140600Y0066000D01*
X0104100Y0084500D02*
X0100100Y0084500D01*
X0104100Y0084500D02*
X0108100Y0088500D01*
X0108100Y0080500D01*
X0104100Y0084500D01*
X0100600Y0088000D02*
X0096600Y0088000D01*
X0100600Y0088000D02*
X0104600Y0092000D01*
X0104600Y0084000D01*
X0100600Y0088000D01*
X0100300Y0080000D02*
X0096300Y0080000D01*
X0100300Y0080000D02*
X0104300Y0084000D01*
X0104300Y0076000D01*
X0100300Y0080000D01*
X0102300Y0070800D02*
X0098300Y0070800D01*
X0102300Y0070800D02*
X0106300Y0074800D01*
X0106300Y0066800D01*
X0102300Y0070800D01*
X0100600Y0066000D02*
X0096600Y0066000D01*
X0100600Y0066000D02*
X0104600Y0070000D01*
X0104600Y0062000D01*
X0100600Y0066000D01*
X0158200Y0014000D02*
X0154200Y0014000D01*
X0158200Y0014000D02*
X0162200Y0018000D01*
X0162200Y0010000D01*
X0158200Y0014000D01*
X0158200Y0023600D02*
X0154200Y0023600D01*
X0158200Y0023600D02*
X0162200Y0027600D01*
X0162200Y0019600D01*
X0158200Y0023600D01*
X0158200Y0033600D02*
X0154200Y0033600D01*
X0158200Y0033600D02*
X0162200Y0037600D01*
X0162200Y0029600D01*
X0158200Y0033600D01*
X0158200Y0043600D02*
X0154200Y0043600D01*
X0158200Y0043600D02*
X0162200Y0047600D01*
X0162200Y0039600D01*
X0158200Y0043600D01*
X0158200Y0053600D02*
X0154200Y0053600D01*
X0158200Y0053600D02*
X0162200Y0057600D01*
X0162200Y0049600D01*
X0158200Y0053600D01*
X0158200Y0063600D02*
X0154200Y0063600D01*
X0158200Y0063600D02*
X0162200Y0067600D01*
X0162200Y0059600D01*
X0158200Y0063600D01*
X0158200Y0073200D02*
X0154200Y0073200D01*
X0158200Y0073200D02*
X0162200Y0077200D01*
X0162200Y0069200D01*
X0158200Y0073200D01*
X0158200Y0084000D02*
X0154200Y0084000D01*
X0158200Y0084000D02*
X0162200Y0088000D01*
X0162200Y0080000D01*
X0158200Y0084000D01*
X0158200Y0089500D02*
X0154200Y0089500D01*
X0158200Y0089500D02*
X0162200Y0093500D01*
X0162200Y0085500D01*
X0158200Y0089500D01*
X0158200Y0094000D02*
X0154200Y0094000D01*
X0158200Y0094000D02*
X0162200Y0098000D01*
X0162200Y0090000D01*
X0158200Y0094000D01*
X0162700Y0094000D02*
X0158700Y0094000D01*
X0162700Y0094000D02*
X0166700Y0098000D01*
X0166700Y0090000D01*
X0162700Y0094000D01*
X0166700Y0094000D02*
X0162700Y0094000D01*
X0166700Y0094000D02*
X0170700Y0098000D01*
X0170700Y0090000D01*
X0166700Y0094000D01*
X0166700Y0089500D02*
X0162700Y0089500D01*
X0166700Y0089500D02*
X0170700Y0093500D01*
X0170700Y0085500D01*
X0166700Y0089500D01*
X0171200Y0094000D02*
X0167200Y0094000D01*
X0171200Y0094000D02*
X0175200Y0098000D01*
X0175200Y0090000D01*
X0171200Y0094000D01*
X0176200Y0094000D02*
X0172200Y0094000D01*
X0176200Y0094000D02*
X0180200Y0098000D01*
X0180200Y0090000D01*
X0176200Y0094000D01*
X0181200Y0094000D02*
X0177200Y0094000D01*
X0181200Y0094000D02*
X0185200Y0098000D01*
X0185200Y0090000D01*
X0181200Y0094000D01*
X0183200Y0088000D02*
X0179200Y0088000D01*
X0183200Y0088000D02*
X0187200Y0092000D01*
X0187200Y0084000D01*
X0183200Y0088000D01*
X0186200Y0094000D02*
X0182200Y0094000D01*
X0186200Y0094000D02*
X0190200Y0098000D01*
X0190200Y0090000D01*
X0186200Y0094000D01*
X0191200Y0094000D02*
X0187200Y0094000D01*
X0191200Y0094000D02*
X0195200Y0098000D01*
X0195200Y0090000D01*
X0191200Y0094000D01*
X0196200Y0094000D02*
X0192200Y0094000D01*
X0196200Y0094000D02*
X0200200Y0098000D01*
X0200200Y0090000D01*
X0196200Y0094000D01*
X0211200Y0094000D02*
X0207200Y0094000D01*
X0211200Y0094000D02*
X0215200Y0098000D01*
X0215200Y0090000D01*
X0211200Y0094000D01*
X0215200Y0094000D02*
X0211200Y0094000D01*
X0215200Y0094000D02*
X0219200Y0098000D01*
X0219200Y0090000D01*
X0215200Y0094000D01*
X0219700Y0094000D02*
X0215700Y0094000D01*
X0219700Y0094000D02*
X0223700Y0098000D01*
X0223700Y0090000D01*
X0219700Y0094000D01*
X0224200Y0094000D02*
X0220200Y0094000D01*
X0224200Y0094000D02*
X0228200Y0098000D01*
X0228200Y0090000D01*
X0224200Y0094000D01*
X0225200Y0088000D02*
X0221200Y0088000D01*
X0225200Y0088000D02*
X0229200Y0092000D01*
X0229200Y0084000D01*
X0225200Y0088000D01*
X0225200Y0082000D02*
X0221200Y0082000D01*
X0225200Y0082000D02*
X0229200Y0086000D01*
X0229200Y0078000D01*
X0225200Y0082000D01*
X0225200Y0074000D02*
X0221200Y0074000D01*
X0225200Y0074000D02*
X0229200Y0078000D01*
X0229200Y0070000D01*
X0225200Y0074000D01*
X0225200Y0064000D02*
X0221200Y0064000D01*
X0225200Y0064000D02*
X0229200Y0068000D01*
X0229200Y0060000D01*
X0225200Y0064000D01*
X0225200Y0054000D02*
X0221200Y0054000D01*
X0225200Y0054000D02*
X0229200Y0058000D01*
X0229200Y0050000D01*
X0225200Y0054000D01*
X0225200Y0044000D02*
X0221200Y0044000D01*
X0225200Y0044000D02*
X0229200Y0048000D01*
X0229200Y0040000D01*
X0225200Y0044000D01*
X0225200Y0034000D02*
X0221200Y0034000D01*
X0225200Y0034000D02*
X0229200Y0038000D01*
X0229200Y0030000D01*
X0225200Y0034000D01*
X0225200Y0024000D02*
X0221200Y0024000D01*
X0225200Y0024000D02*
X0229200Y0028000D01*
X0229200Y0020000D01*
X0225200Y0024000D01*
X0225200Y0014000D02*
X0221200Y0014000D01*
X0225200Y0014000D02*
X0229200Y0018000D01*
X0229200Y0010000D01*
X0225200Y0014000D01*
X0213100Y0014000D02*
X0209100Y0014000D01*
X0213100Y0014000D02*
X0217100Y0018000D01*
X0217100Y0010000D01*
X0213100Y0014000D01*
X0213200Y0024000D02*
X0209200Y0024000D01*
X0213200Y0024000D02*
X0217200Y0028000D01*
X0217200Y0020000D01*
X0213200Y0024000D01*
X0213200Y0034000D02*
X0209200Y0034000D01*
X0213200Y0034000D02*
X0217200Y0038000D01*
X0217200Y0030000D01*
X0213200Y0034000D01*
X0213200Y0042500D02*
X0209200Y0042500D01*
X0213200Y0042500D02*
X0217200Y0046500D01*
X0217200Y0038500D01*
X0213200Y0042500D01*
X0212700Y0048500D02*
X0208700Y0048500D01*
X0212700Y0048500D02*
X0216700Y0052500D01*
X0216700Y0044500D01*
X0212700Y0048500D01*
X0208300Y0048300D02*
X0204300Y0048300D01*
X0208300Y0048300D02*
X0212300Y0052300D01*
X0212300Y0044300D01*
X0208300Y0048300D01*
X0196800Y0052100D02*
X0192800Y0052100D01*
X0196800Y0052100D02*
X0200800Y0056100D01*
X0200800Y0048100D01*
X0196800Y0052100D01*
X0193400Y0052100D02*
X0189400Y0052100D01*
X0193400Y0052100D02*
X0197400Y0056100D01*
X0197400Y0048100D01*
X0193400Y0052100D01*
X0193400Y0055500D02*
X0189400Y0055500D01*
X0193400Y0055500D02*
X0197400Y0059500D01*
X0197400Y0051500D01*
X0193400Y0055500D01*
X0196800Y0055500D02*
X0192800Y0055500D01*
X0196800Y0055500D02*
X0200800Y0059500D01*
X0200800Y0051500D01*
X0196800Y0055500D01*
X0196800Y0059000D02*
X0192800Y0059000D01*
X0196800Y0059000D02*
X0200800Y0063000D01*
X0200800Y0055000D01*
X0196800Y0059000D01*
X0193400Y0059000D02*
X0189400Y0059000D01*
X0193400Y0059000D02*
X0197400Y0063000D01*
X0197400Y0055000D01*
X0193400Y0059000D01*
X0193400Y0062400D02*
X0189400Y0062400D01*
X0193400Y0062400D02*
X0197400Y0066400D01*
X0197400Y0058400D01*
X0193400Y0062400D01*
X0196800Y0062400D02*
X0192800Y0062400D01*
X0196800Y0062400D02*
X0200800Y0066400D01*
X0200800Y0058400D01*
X0196800Y0062400D01*
X0196800Y0065900D02*
X0192800Y0065900D01*
X0196800Y0065900D02*
X0200800Y0069900D01*
X0200800Y0061900D01*
X0196800Y0065900D01*
X0193400Y0065900D02*
X0189400Y0065900D01*
X0193400Y0065900D02*
X0197400Y0069900D01*
X0197400Y0061900D01*
X0193400Y0065900D01*
X0190000Y0065900D02*
X0186000Y0065900D01*
X0190000Y0065900D02*
X0194000Y0069900D01*
X0194000Y0061900D01*
X0190000Y0065900D01*
X0190000Y0062400D02*
X0186000Y0062400D01*
X0190000Y0062400D02*
X0194000Y0066400D01*
X0194000Y0058400D01*
X0190000Y0062400D01*
X0190000Y0059000D02*
X0186000Y0059000D01*
X0190000Y0059000D02*
X0194000Y0063000D01*
X0194000Y0055000D01*
X0190000Y0059000D01*
X0190000Y0055500D02*
X0186000Y0055500D01*
X0190000Y0055500D02*
X0194000Y0059500D01*
X0194000Y0051500D01*
X0190000Y0055500D01*
X0190000Y0052100D02*
X0186000Y0052100D01*
X0190000Y0052100D02*
X0194000Y0056100D01*
X0194000Y0048100D01*
X0190000Y0052100D01*
X0186600Y0052100D02*
X0182600Y0052100D01*
X0186600Y0052100D02*
X0190600Y0056100D01*
X0190600Y0048100D01*
X0186600Y0052100D01*
X0186600Y0055500D02*
X0182600Y0055500D01*
X0186600Y0055500D02*
X0190600Y0059500D01*
X0190600Y0051500D01*
X0186600Y0055500D01*
X0186600Y0059000D02*
X0182600Y0059000D01*
X0186600Y0059000D02*
X0190600Y0063000D01*
X0190600Y0055000D01*
X0186600Y0059000D01*
X0186600Y0062400D02*
X0182600Y0062400D01*
X0186600Y0062400D02*
X0190600Y0066400D01*
X0190600Y0058400D01*
X0186600Y0062400D01*
X0186600Y0065900D02*
X0182600Y0065900D01*
X0186600Y0065900D02*
X0190600Y0069900D01*
X0190600Y0061900D01*
X0186600Y0065900D01*
X0183200Y0065900D02*
X0179200Y0065900D01*
X0183200Y0065900D02*
X0187200Y0069900D01*
X0187200Y0061900D01*
X0183200Y0065900D01*
X0183200Y0062400D02*
X0179200Y0062400D01*
X0183200Y0062400D02*
X0187200Y0066400D01*
X0187200Y0058400D01*
X0183200Y0062400D01*
X0183200Y0059000D02*
X0179200Y0059000D01*
X0183200Y0059000D02*
X0187200Y0063000D01*
X0187200Y0055000D01*
X0183200Y0059000D01*
X0183200Y0055500D02*
X0179200Y0055500D01*
X0183200Y0055500D02*
X0187200Y0059500D01*
X0187200Y0051500D01*
X0183200Y0055500D01*
X0183200Y0052100D02*
X0179200Y0052100D01*
X0183200Y0052100D02*
X0187200Y0056100D01*
X0187200Y0048100D01*
X0183200Y0052100D01*
X0175800Y0045600D02*
X0171800Y0045600D01*
X0175800Y0045600D02*
X0179800Y0049600D01*
X0179800Y0041600D01*
X0175800Y0045600D01*
X0173200Y0050000D02*
X0169200Y0050000D01*
X0173200Y0050000D02*
X0177200Y0054000D01*
X0177200Y0046000D01*
X0173200Y0050000D01*
X0174300Y0040200D02*
X0170300Y0040200D01*
X0174300Y0040200D02*
X0178300Y0044200D01*
X0178300Y0036200D01*
X0174300Y0040200D01*
X0182300Y0041100D02*
X0178300Y0041100D01*
X0182300Y0041100D02*
X0186300Y0045100D01*
X0186300Y0037100D01*
X0182300Y0041100D01*
X0188900Y0028000D02*
X0184900Y0028000D01*
X0188900Y0028000D02*
X0192900Y0032000D01*
X0192900Y0024000D01*
X0188900Y0028000D01*
X0196700Y0028000D02*
X0192700Y0028000D01*
X0196700Y0028000D02*
X0200700Y0032000D01*
X0200700Y0024000D01*
X0196700Y0028000D01*
X0196700Y0023000D02*
X0192700Y0023000D01*
X0196700Y0023000D02*
X0200700Y0027000D01*
X0200700Y0019000D01*
X0196700Y0023000D01*
X0196700Y0014000D02*
X0192700Y0014000D01*
X0196700Y0014000D02*
X0200700Y0018000D01*
X0200700Y0010000D01*
X0196700Y0014000D01*
X0181200Y0014000D02*
X0177200Y0014000D01*
X0181200Y0014000D02*
X0185200Y0018000D01*
X0185200Y0010000D01*
X0181200Y0014000D01*
X0173200Y0014000D02*
X0169200Y0014000D01*
X0173200Y0014000D02*
X0177200Y0018000D01*
X0177200Y0010000D01*
X0173200Y0014000D01*
X0176200Y0024800D02*
X0172200Y0024800D01*
X0176200Y0024800D02*
X0180200Y0028800D01*
X0180200Y0020800D01*
X0176200Y0024800D01*
X0196800Y0041100D02*
X0192800Y0041100D01*
X0196800Y0041100D02*
X0200800Y0045100D01*
X0200800Y0037100D01*
X0196800Y0041100D01*
X0202200Y0034000D02*
X0198200Y0034000D01*
X0202200Y0034000D02*
X0206200Y0038000D01*
X0206200Y0030000D01*
X0202200Y0034000D01*
X0213200Y0066000D02*
X0209200Y0066000D01*
X0213200Y0066000D02*
X0217200Y0070000D01*
X0217200Y0062000D01*
X0213200Y0066000D01*
X0176700Y0084500D02*
X0172700Y0084500D01*
X0176700Y0084500D02*
X0180700Y0088500D01*
X0180700Y0080500D01*
X0176700Y0084500D01*
X0173200Y0088000D02*
X0169200Y0088000D01*
X0173200Y0088000D02*
X0177200Y0092000D01*
X0177200Y0084000D01*
X0173200Y0088000D01*
X0172900Y0080000D02*
X0168900Y0080000D01*
X0172900Y0080000D02*
X0176900Y0084000D01*
X0176900Y0076000D01*
X0172900Y0080000D01*
X0174900Y0070800D02*
X0170900Y0070800D01*
X0174900Y0070800D02*
X0178900Y0074800D01*
X0178900Y0066800D01*
X0174900Y0070800D01*
X0173200Y0066000D02*
X0169200Y0066000D01*
X0173200Y0066000D02*
X0177200Y0070000D01*
X0177200Y0062000D01*
X0173200Y0066000D01*
X0230800Y0014000D02*
X0226800Y0014000D01*
X0230800Y0014000D02*
X0234800Y0018000D01*
X0234800Y0010000D01*
X0230800Y0014000D01*
X0230800Y0023600D02*
X0226800Y0023600D01*
X0230800Y0023600D02*
X0234800Y0027600D01*
X0234800Y0019600D01*
X0230800Y0023600D01*
X0230800Y0033600D02*
X0226800Y0033600D01*
X0230800Y0033600D02*
X0234800Y0037600D01*
X0234800Y0029600D01*
X0230800Y0033600D01*
X0230800Y0043600D02*
X0226800Y0043600D01*
X0230800Y0043600D02*
X0234800Y0047600D01*
X0234800Y0039600D01*
X0230800Y0043600D01*
X0230800Y0053600D02*
X0226800Y0053600D01*
X0230800Y0053600D02*
X0234800Y0057600D01*
X0234800Y0049600D01*
X0230800Y0053600D01*
X0230800Y0063600D02*
X0226800Y0063600D01*
X0230800Y0063600D02*
X0234800Y0067600D01*
X0234800Y0059600D01*
X0230800Y0063600D01*
X0230800Y0073200D02*
X0226800Y0073200D01*
X0230800Y0073200D02*
X0234800Y0077200D01*
X0234800Y0069200D01*
X0230800Y0073200D01*
X0230800Y0084000D02*
X0226800Y0084000D01*
X0230800Y0084000D02*
X0234800Y0088000D01*
X0234800Y0080000D01*
X0230800Y0084000D01*
X0230800Y0089500D02*
X0226800Y0089500D01*
X0230800Y0089500D02*
X0234800Y0093500D01*
X0234800Y0085500D01*
X0230800Y0089500D01*
X0230800Y0094000D02*
X0226800Y0094000D01*
X0230800Y0094000D02*
X0234800Y0098000D01*
X0234800Y0090000D01*
X0230800Y0094000D01*
X0235300Y0094000D02*
X0231300Y0094000D01*
X0235300Y0094000D02*
X0239300Y0098000D01*
X0239300Y0090000D01*
X0235300Y0094000D01*
X0239300Y0094000D02*
X0235300Y0094000D01*
X0239300Y0094000D02*
X0243300Y0098000D01*
X0243300Y0090000D01*
X0239300Y0094000D01*
X0239300Y0089500D02*
X0235300Y0089500D01*
X0239300Y0089500D02*
X0243300Y0093500D01*
X0243300Y0085500D01*
X0239300Y0089500D01*
X0243800Y0094000D02*
X0239800Y0094000D01*
X0243800Y0094000D02*
X0247800Y0098000D01*
X0247800Y0090000D01*
X0243800Y0094000D01*
X0248800Y0094000D02*
X0244800Y0094000D01*
X0248800Y0094000D02*
X0252800Y0098000D01*
X0252800Y0090000D01*
X0248800Y0094000D01*
X0253800Y0094000D02*
X0249800Y0094000D01*
X0253800Y0094000D02*
X0257800Y0098000D01*
X0257800Y0090000D01*
X0253800Y0094000D01*
X0255800Y0088000D02*
X0251800Y0088000D01*
X0255800Y0088000D02*
X0259800Y0092000D01*
X0259800Y0084000D01*
X0255800Y0088000D01*
X0258800Y0094000D02*
X0254800Y0094000D01*
X0258800Y0094000D02*
X0262800Y0098000D01*
X0262800Y0090000D01*
X0258800Y0094000D01*
X0263800Y0094000D02*
X0259800Y0094000D01*
X0263800Y0094000D02*
X0267800Y0098000D01*
X0267800Y0090000D01*
X0263800Y0094000D01*
X0268800Y0094000D02*
X0264800Y0094000D01*
X0268800Y0094000D02*
X0272800Y0098000D01*
X0272800Y0090000D01*
X0268800Y0094000D01*
X0283800Y0094000D02*
X0279800Y0094000D01*
X0283800Y0094000D02*
X0287800Y0098000D01*
X0287800Y0090000D01*
X0283800Y0094000D01*
X0287800Y0094000D02*
X0283800Y0094000D01*
X0287800Y0094000D02*
X0291800Y0098000D01*
X0291800Y0090000D01*
X0287800Y0094000D01*
X0292300Y0094000D02*
X0288300Y0094000D01*
X0292300Y0094000D02*
X0296300Y0098000D01*
X0296300Y0090000D01*
X0292300Y0094000D01*
X0296800Y0094000D02*
X0292800Y0094000D01*
X0296800Y0094000D02*
X0300800Y0098000D01*
X0300800Y0090000D01*
X0296800Y0094000D01*
X0297800Y0088000D02*
X0293800Y0088000D01*
X0297800Y0088000D02*
X0301800Y0092000D01*
X0301800Y0084000D01*
X0297800Y0088000D01*
X0297800Y0082000D02*
X0293800Y0082000D01*
X0297800Y0082000D02*
X0301800Y0086000D01*
X0301800Y0078000D01*
X0297800Y0082000D01*
X0297800Y0074000D02*
X0293800Y0074000D01*
X0297800Y0074000D02*
X0301800Y0078000D01*
X0301800Y0070000D01*
X0297800Y0074000D01*
X0297800Y0064000D02*
X0293800Y0064000D01*
X0297800Y0064000D02*
X0301800Y0068000D01*
X0301800Y0060000D01*
X0297800Y0064000D01*
X0297800Y0054000D02*
X0293800Y0054000D01*
X0297800Y0054000D02*
X0301800Y0058000D01*
X0301800Y0050000D01*
X0297800Y0054000D01*
X0297800Y0044000D02*
X0293800Y0044000D01*
X0297800Y0044000D02*
X0301800Y0048000D01*
X0301800Y0040000D01*
X0297800Y0044000D01*
X0297800Y0034000D02*
X0293800Y0034000D01*
X0297800Y0034000D02*
X0301800Y0038000D01*
X0301800Y0030000D01*
X0297800Y0034000D01*
X0297800Y0024000D02*
X0293800Y0024000D01*
X0297800Y0024000D02*
X0301800Y0028000D01*
X0301800Y0020000D01*
X0297800Y0024000D01*
X0297800Y0014000D02*
X0293800Y0014000D01*
X0297800Y0014000D02*
X0301800Y0018000D01*
X0301800Y0010000D01*
X0297800Y0014000D01*
X0285700Y0014000D02*
X0281700Y0014000D01*
X0285700Y0014000D02*
X0289700Y0018000D01*
X0289700Y0010000D01*
X0285700Y0014000D01*
X0285800Y0024000D02*
X0281800Y0024000D01*
X0285800Y0024000D02*
X0289800Y0028000D01*
X0289800Y0020000D01*
X0285800Y0024000D01*
X0285800Y0034000D02*
X0281800Y0034000D01*
X0285800Y0034000D02*
X0289800Y0038000D01*
X0289800Y0030000D01*
X0285800Y0034000D01*
X0285800Y0042500D02*
X0281800Y0042500D01*
X0285800Y0042500D02*
X0289800Y0046500D01*
X0289800Y0038500D01*
X0285800Y0042500D01*
X0285300Y0048500D02*
X0281300Y0048500D01*
X0285300Y0048500D02*
X0289300Y0052500D01*
X0289300Y0044500D01*
X0285300Y0048500D01*
X0280900Y0048300D02*
X0276900Y0048300D01*
X0280900Y0048300D02*
X0284900Y0052300D01*
X0284900Y0044300D01*
X0280900Y0048300D01*
X0269400Y0052100D02*
X0265400Y0052100D01*
X0269400Y0052100D02*
X0273400Y0056100D01*
X0273400Y0048100D01*
X0269400Y0052100D01*
X0266000Y0052100D02*
X0262000Y0052100D01*
X0266000Y0052100D02*
X0270000Y0056100D01*
X0270000Y0048100D01*
X0266000Y0052100D01*
X0266000Y0055500D02*
X0262000Y0055500D01*
X0266000Y0055500D02*
X0270000Y0059500D01*
X0270000Y0051500D01*
X0266000Y0055500D01*
X0269400Y0055500D02*
X0265400Y0055500D01*
X0269400Y0055500D02*
X0273400Y0059500D01*
X0273400Y0051500D01*
X0269400Y0055500D01*
X0269400Y0059000D02*
X0265400Y0059000D01*
X0269400Y0059000D02*
X0273400Y0063000D01*
X0273400Y0055000D01*
X0269400Y0059000D01*
X0266000Y0059000D02*
X0262000Y0059000D01*
X0266000Y0059000D02*
X0270000Y0063000D01*
X0270000Y0055000D01*
X0266000Y0059000D01*
X0266000Y0062400D02*
X0262000Y0062400D01*
X0266000Y0062400D02*
X0270000Y0066400D01*
X0270000Y0058400D01*
X0266000Y0062400D01*
X0269400Y0062400D02*
X0265400Y0062400D01*
X0269400Y0062400D02*
X0273400Y0066400D01*
X0273400Y0058400D01*
X0269400Y0062400D01*
X0269400Y0065900D02*
X0265400Y0065900D01*
X0269400Y0065900D02*
X0273400Y0069900D01*
X0273400Y0061900D01*
X0269400Y0065900D01*
X0266000Y0065900D02*
X0262000Y0065900D01*
X0266000Y0065900D02*
X0270000Y0069900D01*
X0270000Y0061900D01*
X0266000Y0065900D01*
X0262600Y0065900D02*
X0258600Y0065900D01*
X0262600Y0065900D02*
X0266600Y0069900D01*
X0266600Y0061900D01*
X0262600Y0065900D01*
X0262600Y0062400D02*
X0258600Y0062400D01*
X0262600Y0062400D02*
X0266600Y0066400D01*
X0266600Y0058400D01*
X0262600Y0062400D01*
X0262600Y0059000D02*
X0258600Y0059000D01*
X0262600Y0059000D02*
X0266600Y0063000D01*
X0266600Y0055000D01*
X0262600Y0059000D01*
X0262600Y0055500D02*
X0258600Y0055500D01*
X0262600Y0055500D02*
X0266600Y0059500D01*
X0266600Y0051500D01*
X0262600Y0055500D01*
X0262600Y0052100D02*
X0258600Y0052100D01*
X0262600Y0052100D02*
X0266600Y0056100D01*
X0266600Y0048100D01*
X0262600Y0052100D01*
X0259200Y0052100D02*
X0255200Y0052100D01*
X0259200Y0052100D02*
X0263200Y0056100D01*
X0263200Y0048100D01*
X0259200Y0052100D01*
X0259200Y0055500D02*
X0255200Y0055500D01*
X0259200Y0055500D02*
X0263200Y0059500D01*
X0263200Y0051500D01*
X0259200Y0055500D01*
X0259200Y0059000D02*
X0255200Y0059000D01*
X0259200Y0059000D02*
X0263200Y0063000D01*
X0263200Y0055000D01*
X0259200Y0059000D01*
X0259200Y0062400D02*
X0255200Y0062400D01*
X0259200Y0062400D02*
X0263200Y0066400D01*
X0263200Y0058400D01*
X0259200Y0062400D01*
X0259200Y0065900D02*
X0255200Y0065900D01*
X0259200Y0065900D02*
X0263200Y0069900D01*
X0263200Y0061900D01*
X0259200Y0065900D01*
X0255800Y0065900D02*
X0251800Y0065900D01*
X0255800Y0065900D02*
X0259800Y0069900D01*
X0259800Y0061900D01*
X0255800Y0065900D01*
X0255800Y0062400D02*
X0251800Y0062400D01*
X0255800Y0062400D02*
X0259800Y0066400D01*
X0259800Y0058400D01*
X0255800Y0062400D01*
X0255800Y0059000D02*
X0251800Y0059000D01*
X0255800Y0059000D02*
X0259800Y0063000D01*
X0259800Y0055000D01*
X0255800Y0059000D01*
X0255800Y0055500D02*
X0251800Y0055500D01*
X0255800Y0055500D02*
X0259800Y0059500D01*
X0259800Y0051500D01*
X0255800Y0055500D01*
X0255800Y0052100D02*
X0251800Y0052100D01*
X0255800Y0052100D02*
X0259800Y0056100D01*
X0259800Y0048100D01*
X0255800Y0052100D01*
X0248400Y0045600D02*
X0244400Y0045600D01*
X0248400Y0045600D02*
X0252400Y0049600D01*
X0252400Y0041600D01*
X0248400Y0045600D01*
X0245800Y0050000D02*
X0241800Y0050000D01*
X0245800Y0050000D02*
X0249800Y0054000D01*
X0249800Y0046000D01*
X0245800Y0050000D01*
X0246900Y0040200D02*
X0242900Y0040200D01*
X0246900Y0040200D02*
X0250900Y0044200D01*
X0250900Y0036200D01*
X0246900Y0040200D01*
X0254900Y0041100D02*
X0250900Y0041100D01*
X0254900Y0041100D02*
X0258900Y0045100D01*
X0258900Y0037100D01*
X0254900Y0041100D01*
X0261500Y0028000D02*
X0257500Y0028000D01*
X0261500Y0028000D02*
X0265500Y0032000D01*
X0265500Y0024000D01*
X0261500Y0028000D01*
X0269300Y0028000D02*
X0265300Y0028000D01*
X0269300Y0028000D02*
X0273300Y0032000D01*
X0273300Y0024000D01*
X0269300Y0028000D01*
X0269300Y0023000D02*
X0265300Y0023000D01*
X0269300Y0023000D02*
X0273300Y0027000D01*
X0273300Y0019000D01*
X0269300Y0023000D01*
X0269300Y0014000D02*
X0265300Y0014000D01*
X0269300Y0014000D02*
X0273300Y0018000D01*
X0273300Y0010000D01*
X0269300Y0014000D01*
X0253800Y0014000D02*
X0249800Y0014000D01*
X0253800Y0014000D02*
X0257800Y0018000D01*
X0257800Y0010000D01*
X0253800Y0014000D01*
X0245800Y0014000D02*
X0241800Y0014000D01*
X0245800Y0014000D02*
X0249800Y0018000D01*
X0249800Y0010000D01*
X0245800Y0014000D01*
X0248800Y0024800D02*
X0244800Y0024800D01*
X0248800Y0024800D02*
X0252800Y0028800D01*
X0252800Y0020800D01*
X0248800Y0024800D01*
X0269400Y0041100D02*
X0265400Y0041100D01*
X0269400Y0041100D02*
X0273400Y0045100D01*
X0273400Y0037100D01*
X0269400Y0041100D01*
X0274800Y0034000D02*
X0270800Y0034000D01*
X0274800Y0034000D02*
X0278800Y0038000D01*
X0278800Y0030000D01*
X0274800Y0034000D01*
X0285800Y0066000D02*
X0281800Y0066000D01*
X0285800Y0066000D02*
X0289800Y0070000D01*
X0289800Y0062000D01*
X0285800Y0066000D01*
X0249300Y0084500D02*
X0245300Y0084500D01*
X0249300Y0084500D02*
X0253300Y0088500D01*
X0253300Y0080500D01*
X0249300Y0084500D01*
X0245800Y0088000D02*
X0241800Y0088000D01*
X0245800Y0088000D02*
X0249800Y0092000D01*
X0249800Y0084000D01*
X0245800Y0088000D01*
X0245500Y0080000D02*
X0241500Y0080000D01*
X0245500Y0080000D02*
X0249500Y0084000D01*
X0249500Y0076000D01*
X0245500Y0080000D01*
X0247500Y0070800D02*
X0243500Y0070800D01*
X0247500Y0070800D02*
X0251500Y0074800D01*
X0251500Y0066800D01*
X0247500Y0070800D01*
X0245800Y0066000D02*
X0241800Y0066000D01*
X0245800Y0066000D02*
X0249800Y0070000D01*
X0249800Y0062000D01*
X0245800Y0066000D01*
X0303400Y0014000D02*
X0299400Y0014000D01*
X0303400Y0014000D02*
X0307400Y0018000D01*
X0307400Y0010000D01*
X0303400Y0014000D01*
X0303400Y0023600D02*
X0299400Y0023600D01*
X0303400Y0023600D02*
X0307400Y0027600D01*
X0307400Y0019600D01*
X0303400Y0023600D01*
X0303400Y0033600D02*
X0299400Y0033600D01*
X0303400Y0033600D02*
X0307400Y0037600D01*
X0307400Y0029600D01*
X0303400Y0033600D01*
X0303400Y0043600D02*
X0299400Y0043600D01*
X0303400Y0043600D02*
X0307400Y0047600D01*
X0307400Y0039600D01*
X0303400Y0043600D01*
X0303400Y0053600D02*
X0299400Y0053600D01*
X0303400Y0053600D02*
X0307400Y0057600D01*
X0307400Y0049600D01*
X0303400Y0053600D01*
X0303400Y0063600D02*
X0299400Y0063600D01*
X0303400Y0063600D02*
X0307400Y0067600D01*
X0307400Y0059600D01*
X0303400Y0063600D01*
X0303400Y0073200D02*
X0299400Y0073200D01*
X0303400Y0073200D02*
X0307400Y0077200D01*
X0307400Y0069200D01*
X0303400Y0073200D01*
X0303400Y0084000D02*
X0299400Y0084000D01*
X0303400Y0084000D02*
X0307400Y0088000D01*
X0307400Y0080000D01*
X0303400Y0084000D01*
X0303400Y0089500D02*
X0299400Y0089500D01*
X0303400Y0089500D02*
X0307400Y0093500D01*
X0307400Y0085500D01*
X0303400Y0089500D01*
X0303400Y0094000D02*
X0299400Y0094000D01*
X0303400Y0094000D02*
X0307400Y0098000D01*
X0307400Y0090000D01*
X0303400Y0094000D01*
X0307900Y0094000D02*
X0303900Y0094000D01*
X0307900Y0094000D02*
X0311900Y0098000D01*
X0311900Y0090000D01*
X0307900Y0094000D01*
X0311900Y0094000D02*
X0307900Y0094000D01*
X0311900Y0094000D02*
X0315900Y0098000D01*
X0315900Y0090000D01*
X0311900Y0094000D01*
X0311900Y0089500D02*
X0307900Y0089500D01*
X0311900Y0089500D02*
X0315900Y0093500D01*
X0315900Y0085500D01*
X0311900Y0089500D01*
X0316400Y0094000D02*
X0312400Y0094000D01*
X0316400Y0094000D02*
X0320400Y0098000D01*
X0320400Y0090000D01*
X0316400Y0094000D01*
X0321400Y0094000D02*
X0317400Y0094000D01*
X0321400Y0094000D02*
X0325400Y0098000D01*
X0325400Y0090000D01*
X0321400Y0094000D01*
X0326400Y0094000D02*
X0322400Y0094000D01*
X0326400Y0094000D02*
X0330400Y0098000D01*
X0330400Y0090000D01*
X0326400Y0094000D01*
X0328400Y0088000D02*
X0324400Y0088000D01*
X0328400Y0088000D02*
X0332400Y0092000D01*
X0332400Y0084000D01*
X0328400Y0088000D01*
X0331400Y0094000D02*
X0327400Y0094000D01*
X0331400Y0094000D02*
X0335400Y0098000D01*
X0335400Y0090000D01*
X0331400Y0094000D01*
X0336400Y0094000D02*
X0332400Y0094000D01*
X0336400Y0094000D02*
X0340400Y0098000D01*
X0340400Y0090000D01*
X0336400Y0094000D01*
X0341400Y0094000D02*
X0337400Y0094000D01*
X0341400Y0094000D02*
X0345400Y0098000D01*
X0345400Y0090000D01*
X0341400Y0094000D01*
X0356400Y0094000D02*
X0352400Y0094000D01*
X0356400Y0094000D02*
X0360400Y0098000D01*
X0360400Y0090000D01*
X0356400Y0094000D01*
X0360400Y0094000D02*
X0356400Y0094000D01*
X0360400Y0094000D02*
X0364400Y0098000D01*
X0364400Y0090000D01*
X0360400Y0094000D01*
X0364900Y0094000D02*
X0360900Y0094000D01*
X0364900Y0094000D02*
X0368900Y0098000D01*
X0368900Y0090000D01*
X0364900Y0094000D01*
X0369400Y0094000D02*
X0365400Y0094000D01*
X0369400Y0094000D02*
X0373400Y0098000D01*
X0373400Y0090000D01*
X0369400Y0094000D01*
X0370400Y0088000D02*
X0366400Y0088000D01*
X0370400Y0088000D02*
X0374400Y0092000D01*
X0374400Y0084000D01*
X0370400Y0088000D01*
X0370400Y0082000D02*
X0366400Y0082000D01*
X0370400Y0082000D02*
X0374400Y0086000D01*
X0374400Y0078000D01*
X0370400Y0082000D01*
X0370400Y0074000D02*
X0366400Y0074000D01*
X0370400Y0074000D02*
X0374400Y0078000D01*
X0374400Y0070000D01*
X0370400Y0074000D01*
X0370400Y0064000D02*
X0366400Y0064000D01*
X0370400Y0064000D02*
X0374400Y0068000D01*
X0374400Y0060000D01*
X0370400Y0064000D01*
X0370400Y0054000D02*
X0366400Y0054000D01*
X0370400Y0054000D02*
X0374400Y0058000D01*
X0374400Y0050000D01*
X0370400Y0054000D01*
X0370400Y0044000D02*
X0366400Y0044000D01*
X0370400Y0044000D02*
X0374400Y0048000D01*
X0374400Y0040000D01*
X0370400Y0044000D01*
X0370400Y0034000D02*
X0366400Y0034000D01*
X0370400Y0034000D02*
X0374400Y0038000D01*
X0374400Y0030000D01*
X0370400Y0034000D01*
X0370400Y0024000D02*
X0366400Y0024000D01*
X0370400Y0024000D02*
X0374400Y0028000D01*
X0374400Y0020000D01*
X0370400Y0024000D01*
X0370400Y0014000D02*
X0366400Y0014000D01*
X0370400Y0014000D02*
X0374400Y0018000D01*
X0374400Y0010000D01*
X0370400Y0014000D01*
X0358300Y0014000D02*
X0354300Y0014000D01*
X0358300Y0014000D02*
X0362300Y0018000D01*
X0362300Y0010000D01*
X0358300Y0014000D01*
X0358400Y0024000D02*
X0354400Y0024000D01*
X0358400Y0024000D02*
X0362400Y0028000D01*
X0362400Y0020000D01*
X0358400Y0024000D01*
X0358400Y0034000D02*
X0354400Y0034000D01*
X0358400Y0034000D02*
X0362400Y0038000D01*
X0362400Y0030000D01*
X0358400Y0034000D01*
X0358400Y0042500D02*
X0354400Y0042500D01*
X0358400Y0042500D02*
X0362400Y0046500D01*
X0362400Y0038500D01*
X0358400Y0042500D01*
X0357900Y0048500D02*
X0353900Y0048500D01*
X0357900Y0048500D02*
X0361900Y0052500D01*
X0361900Y0044500D01*
X0357900Y0048500D01*
X0353500Y0048300D02*
X0349500Y0048300D01*
X0353500Y0048300D02*
X0357500Y0052300D01*
X0357500Y0044300D01*
X0353500Y0048300D01*
X0342000Y0052100D02*
X0338000Y0052100D01*
X0342000Y0052100D02*
X0346000Y0056100D01*
X0346000Y0048100D01*
X0342000Y0052100D01*
X0338600Y0052100D02*
X0334600Y0052100D01*
X0338600Y0052100D02*
X0342600Y0056100D01*
X0342600Y0048100D01*
X0338600Y0052100D01*
X0338600Y0055500D02*
X0334600Y0055500D01*
X0338600Y0055500D02*
X0342600Y0059500D01*
X0342600Y0051500D01*
X0338600Y0055500D01*
X0342000Y0055500D02*
X0338000Y0055500D01*
X0342000Y0055500D02*
X0346000Y0059500D01*
X0346000Y0051500D01*
X0342000Y0055500D01*
X0342000Y0059000D02*
X0338000Y0059000D01*
X0342000Y0059000D02*
X0346000Y0063000D01*
X0346000Y0055000D01*
X0342000Y0059000D01*
X0338600Y0059000D02*
X0334600Y0059000D01*
X0338600Y0059000D02*
X0342600Y0063000D01*
X0342600Y0055000D01*
X0338600Y0059000D01*
X0338600Y0062400D02*
X0334600Y0062400D01*
X0338600Y0062400D02*
X0342600Y0066400D01*
X0342600Y0058400D01*
X0338600Y0062400D01*
X0342000Y0062400D02*
X0338000Y0062400D01*
X0342000Y0062400D02*
X0346000Y0066400D01*
X0346000Y0058400D01*
X0342000Y0062400D01*
X0342000Y0065900D02*
X0338000Y0065900D01*
X0342000Y0065900D02*
X0346000Y0069900D01*
X0346000Y0061900D01*
X0342000Y0065900D01*
X0338600Y0065900D02*
X0334600Y0065900D01*
X0338600Y0065900D02*
X0342600Y0069900D01*
X0342600Y0061900D01*
X0338600Y0065900D01*
X0335200Y0065900D02*
X0331200Y0065900D01*
X0335200Y0065900D02*
X0339200Y0069900D01*
X0339200Y0061900D01*
X0335200Y0065900D01*
X0335200Y0062400D02*
X0331200Y0062400D01*
X0335200Y0062400D02*
X0339200Y0066400D01*
X0339200Y0058400D01*
X0335200Y0062400D01*
X0335200Y0059000D02*
X0331200Y0059000D01*
X0335200Y0059000D02*
X0339200Y0063000D01*
X0339200Y0055000D01*
X0335200Y0059000D01*
X0335200Y0055500D02*
X0331200Y0055500D01*
X0335200Y0055500D02*
X0339200Y0059500D01*
X0339200Y0051500D01*
X0335200Y0055500D01*
X0335200Y0052100D02*
X0331200Y0052100D01*
X0335200Y0052100D02*
X0339200Y0056100D01*
X0339200Y0048100D01*
X0335200Y0052100D01*
X0331800Y0052100D02*
X0327800Y0052100D01*
X0331800Y0052100D02*
X0335800Y0056100D01*
X0335800Y0048100D01*
X0331800Y0052100D01*
X0331800Y0055500D02*
X0327800Y0055500D01*
X0331800Y0055500D02*
X0335800Y0059500D01*
X0335800Y0051500D01*
X0331800Y0055500D01*
X0331800Y0059000D02*
X0327800Y0059000D01*
X0331800Y0059000D02*
X0335800Y0063000D01*
X0335800Y0055000D01*
X0331800Y0059000D01*
X0331800Y0062400D02*
X0327800Y0062400D01*
X0331800Y0062400D02*
X0335800Y0066400D01*
X0335800Y0058400D01*
X0331800Y0062400D01*
X0331800Y0065900D02*
X0327800Y0065900D01*
X0331800Y0065900D02*
X0335800Y0069900D01*
X0335800Y0061900D01*
X0331800Y0065900D01*
X0328400Y0065900D02*
X0324400Y0065900D01*
X0328400Y0065900D02*
X0332400Y0069900D01*
X0332400Y0061900D01*
X0328400Y0065900D01*
X0328400Y0062400D02*
X0324400Y0062400D01*
X0328400Y0062400D02*
X0332400Y0066400D01*
X0332400Y0058400D01*
X0328400Y0062400D01*
X0328400Y0059000D02*
X0324400Y0059000D01*
X0328400Y0059000D02*
X0332400Y0063000D01*
X0332400Y0055000D01*
X0328400Y0059000D01*
X0328400Y0055500D02*
X0324400Y0055500D01*
X0328400Y0055500D02*
X0332400Y0059500D01*
X0332400Y0051500D01*
X0328400Y0055500D01*
X0328400Y0052100D02*
X0324400Y0052100D01*
X0328400Y0052100D02*
X0332400Y0056100D01*
X0332400Y0048100D01*
X0328400Y0052100D01*
X0321000Y0045600D02*
X0317000Y0045600D01*
X0321000Y0045600D02*
X0325000Y0049600D01*
X0325000Y0041600D01*
X0321000Y0045600D01*
X0318400Y0050000D02*
X0314400Y0050000D01*
X0318400Y0050000D02*
X0322400Y0054000D01*
X0322400Y0046000D01*
X0318400Y0050000D01*
X0319500Y0040200D02*
X0315500Y0040200D01*
X0319500Y0040200D02*
X0323500Y0044200D01*
X0323500Y0036200D01*
X0319500Y0040200D01*
X0327500Y0041100D02*
X0323500Y0041100D01*
X0327500Y0041100D02*
X0331500Y0045100D01*
X0331500Y0037100D01*
X0327500Y0041100D01*
X0334100Y0028000D02*
X0330100Y0028000D01*
X0334100Y0028000D02*
X0338100Y0032000D01*
X0338100Y0024000D01*
X0334100Y0028000D01*
X0341900Y0028000D02*
X0337900Y0028000D01*
X0341900Y0028000D02*
X0345900Y0032000D01*
X0345900Y0024000D01*
X0341900Y0028000D01*
X0341900Y0023000D02*
X0337900Y0023000D01*
X0341900Y0023000D02*
X0345900Y0027000D01*
X0345900Y0019000D01*
X0341900Y0023000D01*
X0341900Y0014000D02*
X0337900Y0014000D01*
X0341900Y0014000D02*
X0345900Y0018000D01*
X0345900Y0010000D01*
X0341900Y0014000D01*
X0326400Y0014000D02*
X0322400Y0014000D01*
X0326400Y0014000D02*
X0330400Y0018000D01*
X0330400Y0010000D01*
X0326400Y0014000D01*
X0318400Y0014000D02*
X0314400Y0014000D01*
X0318400Y0014000D02*
X0322400Y0018000D01*
X0322400Y0010000D01*
X0318400Y0014000D01*
X0321400Y0024800D02*
X0317400Y0024800D01*
X0321400Y0024800D02*
X0325400Y0028800D01*
X0325400Y0020800D01*
X0321400Y0024800D01*
X0342000Y0041100D02*
X0338000Y0041100D01*
X0342000Y0041100D02*
X0346000Y0045100D01*
X0346000Y0037100D01*
X0342000Y0041100D01*
X0347400Y0034000D02*
X0343400Y0034000D01*
X0347400Y0034000D02*
X0351400Y0038000D01*
X0351400Y0030000D01*
X0347400Y0034000D01*
X0358400Y0066000D02*
X0354400Y0066000D01*
X0358400Y0066000D02*
X0362400Y0070000D01*
X0362400Y0062000D01*
X0358400Y0066000D01*
X0321900Y0084500D02*
X0317900Y0084500D01*
X0321900Y0084500D02*
X0325900Y0088500D01*
X0325900Y0080500D01*
X0321900Y0084500D01*
X0318400Y0088000D02*
X0314400Y0088000D01*
X0318400Y0088000D02*
X0322400Y0092000D01*
X0322400Y0084000D01*
X0318400Y0088000D01*
X0318100Y0080000D02*
X0314100Y0080000D01*
X0318100Y0080000D02*
X0322100Y0084000D01*
X0322100Y0076000D01*
X0318100Y0080000D01*
X0320100Y0070800D02*
X0316100Y0070800D01*
X0320100Y0070800D02*
X0324100Y0074800D01*
X0324100Y0066800D01*
X0320100Y0070800D01*
X0318400Y0066000D02*
X0314400Y0066000D01*
X0318400Y0066000D02*
X0322400Y0070000D01*
X0322400Y0062000D01*
X0318400Y0066000D01*
X0010000Y0010000D02*
X0372900Y0010000D01*
X0372900Y0131000D01*
X0010000Y0131000D01*
X0010000Y0010000D01*
X0418900Y0009500D02*
X0426900Y0017500D01*
X0426900Y0009500D02*
X0418900Y0017500D01*
X0418900Y0013500D02*
X0426900Y0013500D01*
X0434400Y0010000D02*
X0433400Y0011000D01*
X0437400Y0015000D01*
X0437400Y0011000D01*
X0436400Y0010000D01*
X0434400Y0010000D01*
X0433400Y0011000D02*
X0433400Y0015000D01*
X0434400Y0016000D01*
X0436400Y0016000D01*
X0437400Y0015000D01*
X0440900Y0011000D02*
X0441900Y0011000D01*
X0441900Y0010000D01*
X0440900Y0010000D01*
X0440900Y0011000D01*
X0446400Y0010000D02*
X0445400Y0011000D01*
X0449400Y0015000D01*
X0449400Y0011000D01*
X0448400Y0010000D01*
X0446400Y0010000D01*
X0445400Y0011000D02*
X0445400Y0015000D01*
X0446400Y0016000D01*
X0448400Y0016000D01*
X0449400Y0015000D01*
X0452400Y0015000D02*
X0453400Y0016000D01*
X0453400Y0010000D01*
X0452400Y0010000D02*
X0454400Y0010000D01*
X0457400Y0013000D02*
X0459400Y0014000D01*
X0460400Y0014000D01*
X0461400Y0013000D01*
X0461400Y0011000D01*
X0460400Y0010000D01*
X0458400Y0010000D01*
X0457400Y0011000D01*
X0457400Y0013000D02*
X0457400Y0016000D01*
X0461400Y0016000D01*
X0466900Y0015000D02*
X0465900Y0014000D01*
X0466900Y0015000D02*
X0466900Y0017000D01*
X0464900Y0017000D02*
X0464900Y0015000D01*
X0463900Y0014000D01*
X0422900Y0024000D02*
X0418900Y0024000D01*
X0422900Y0024000D02*
X0426900Y0028000D01*
X0426900Y0020000D01*
X0422900Y0024000D01*
X0434400Y0020500D02*
X0433400Y0021500D01*
X0437400Y0025500D01*
X0437400Y0021500D01*
X0436400Y0020500D01*
X0434400Y0020500D01*
X0433400Y0021500D02*
X0433400Y0025500D01*
X0434400Y0026500D01*
X0436400Y0026500D01*
X0437400Y0025500D01*
X0440900Y0021500D02*
X0441900Y0021500D01*
X0441900Y0020500D01*
X0440900Y0020500D01*
X0440900Y0021500D01*
X0446400Y0020500D02*
X0445400Y0021500D01*
X0449400Y0025500D01*
X0449400Y0021500D01*
X0448400Y0020500D01*
X0446400Y0020500D01*
X0445400Y0021500D02*
X0445400Y0025500D01*
X0446400Y0026500D01*
X0448400Y0026500D01*
X0449400Y0025500D01*
X0452400Y0025500D02*
X0453400Y0026500D01*
X0453400Y0020500D01*
X0452400Y0020500D02*
X0454400Y0020500D01*
X0457400Y0020500D02*
X0461400Y0024500D01*
X0461400Y0025500D01*
X0460400Y0026500D01*
X0458400Y0026500D01*
X0457400Y0025500D01*
X0457400Y0020500D02*
X0461400Y0020500D01*
X0466900Y0025500D02*
X0465900Y0024500D01*
X0466900Y0025500D02*
X0466900Y0027500D01*
X0464900Y0027500D02*
X0464900Y0025500D01*
X0463900Y0024500D01*
X0010000Y0143500D02*
X0010000Y0158500D01*
X0017500Y0154750D02*
X0010000Y0151000D01*
X0017500Y0147250D01*
X0010000Y0151000D02*
X0022500Y0151000D01*
X0372900Y0158500D02*
X0372900Y0143500D01*
X0365400Y0147250D02*
X0372900Y0151000D01*
X0365400Y0154750D01*
X0372900Y0151000D02*
X0360400Y0151000D01*
X0385400Y0131000D02*
X0400400Y0131000D01*
X0396650Y0123500D02*
X0392900Y0131000D01*
X0389150Y0123500D01*
X0392900Y0131000D02*
X0392900Y0118500D01*
X0400400Y0010000D02*
X0385400Y0010000D01*
X0389150Y0017500D02*
X0392900Y0010000D01*
X0396650Y0017500D01*
X0392900Y0010000D02*
X0392900Y0022500D01*
X0184450Y0148500D02*
X0185450Y0147500D01*
X0187450Y0147500D01*
X0188450Y0148500D01*
X0188450Y0149500D01*
X0187450Y0150500D01*
X0186450Y0150500D01*
X0187450Y0150500D02*
X0188450Y0151500D01*
X0188450Y0152500D01*
X0187450Y0153500D01*
X0185450Y0153500D01*
X0184450Y0152500D01*
X0191950Y0148500D02*
X0192950Y0148500D01*
X0192950Y0147500D01*
X0191950Y0147500D01*
X0191950Y0148500D01*
X0196450Y0150500D02*
X0196450Y0148500D01*
X0197450Y0147500D01*
X0199450Y0147500D01*
X0200450Y0148500D01*
X0200450Y0149500D01*
X0199450Y0150500D01*
X0196450Y0150500D01*
X0198450Y0152500D01*
X0200450Y0153500D01*
X0202450Y0147500D02*
X0206450Y0151500D01*
X0206450Y0152500D01*
X0205450Y0153500D01*
X0203450Y0153500D01*
X0202450Y0152500D01*
X0202450Y0147500D02*
X0206450Y0147500D01*
X0208450Y0151500D02*
X0209450Y0150500D01*
X0212450Y0150500D01*
X0212450Y0148500D02*
X0212450Y0152500D01*
X0211450Y0153500D01*
X0209450Y0153500D01*
X0208450Y0152500D01*
X0208450Y0151500D01*
X0208450Y0148500D02*
X0209450Y0147500D01*
X0211450Y0147500D01*
X0212450Y0148500D01*
X0217950Y0152500D02*
X0216950Y0151500D01*
X0217950Y0152500D02*
X0217950Y0154500D01*
X0215950Y0154500D02*
X0215950Y0152500D01*
X0214950Y0151500D01*
X0010000Y0151000D02*
X0173950Y0151000D01*
X0228950Y0151000D02*
X0372900Y0151000D01*
X0394400Y0096500D02*
X0395400Y0095500D01*
X0389400Y0095500D01*
X0389400Y0096500D02*
X0389400Y0094500D01*
X0390400Y0090000D02*
X0390400Y0089000D01*
X0389400Y0089000D01*
X0389400Y0090000D01*
X0390400Y0090000D01*
X0389400Y0085500D02*
X0393400Y0081500D01*
X0394400Y0081500D01*
X0395400Y0082500D01*
X0395400Y0084500D01*
X0394400Y0085500D01*
X0389400Y0085500D02*
X0389400Y0081500D01*
X0394400Y0078500D02*
X0395400Y0077500D01*
X0389400Y0077500D01*
X0389400Y0078500D02*
X0389400Y0076500D01*
X0389400Y0072500D02*
X0390400Y0073500D01*
X0394400Y0069500D01*
X0390400Y0069500D01*
X0389400Y0070500D01*
X0389400Y0072500D01*
X0390400Y0073500D02*
X0394400Y0073500D01*
X0395400Y0072500D01*
X0395400Y0070500D01*
X0394400Y0069500D01*
X0394400Y0064000D02*
X0393400Y0065000D01*
X0394400Y0064000D02*
X0396400Y0064000D01*
X0396400Y0066000D02*
X0394400Y0066000D01*
X0393400Y0067000D01*
X0392900Y0131000D02*
X0392900Y0108000D01*
X0392900Y0053000D02*
X0392900Y0010000D01*
X0492400Y0023500D02*
X0488400Y0023500D01*
X0488400Y0025500D02*
X0492400Y0021500D01*
X0490400Y0021500D02*
X0490400Y0025500D01*
X0492400Y0025500D02*
X0488400Y0021500D01*
X0504400Y0026500D02*
X0504400Y0021500D01*
X0503400Y0020500D01*
X0501400Y0020500D01*
X0500400Y0021500D01*
X0500400Y0026500D01*
X0510400Y0024500D02*
X0507400Y0024500D01*
X0506400Y0023500D01*
X0507400Y0022500D01*
X0509400Y0022500D01*
X0510400Y0021500D01*
X0509400Y0020500D01*
X0506400Y0020500D01*
X0516400Y0023500D02*
X0516400Y0022500D01*
X0512400Y0022500D01*
X0512400Y0023500D02*
X0513400Y0024500D01*
X0515400Y0024500D01*
X0516400Y0023500D01*
X0515400Y0020500D02*
X0513400Y0020500D01*
X0512400Y0021500D01*
X0512400Y0023500D01*
X0524400Y0018500D02*
X0524400Y0024500D01*
X0527400Y0024500D01*
X0528400Y0023500D01*
X0528400Y0021500D01*
X0527400Y0020500D01*
X0524400Y0020500D01*
X0530400Y0023500D02*
X0534400Y0023500D01*
X0540400Y0024500D02*
X0537400Y0024500D01*
X0536400Y0023500D01*
X0536400Y0021500D01*
X0537400Y0020500D01*
X0540400Y0020500D01*
X0542400Y0024500D02*
X0542400Y0021500D01*
X0543400Y0020500D01*
X0546400Y0020500D01*
X0546400Y0019500D02*
X0545400Y0018500D01*
X0544400Y0018500D01*
X0546400Y0019500D02*
X0546400Y0024500D01*
X0551900Y0024500D02*
X0550900Y0024500D01*
X0548900Y0022500D01*
X0548900Y0020500D02*
X0548900Y0024500D01*
X0557400Y0023500D02*
X0555400Y0023500D01*
X0556400Y0025500D02*
X0556400Y0020500D01*
X0556400Y0025500D02*
X0557400Y0026500D01*
X0560400Y0023500D02*
X0560400Y0021500D01*
X0561400Y0020500D01*
X0563400Y0020500D01*
X0564400Y0021500D01*
X0564400Y0022500D01*
X0563400Y0023500D01*
X0560400Y0023500D01*
X0562400Y0025500D01*
X0564400Y0026500D01*
X0566400Y0024500D02*
X0567400Y0023500D01*
X0570400Y0023500D01*
X0570400Y0021500D02*
X0570400Y0025500D01*
X0569400Y0026500D01*
X0567400Y0026500D01*
X0566400Y0025500D01*
X0566400Y0024500D01*
X0566400Y0021500D02*
X0567400Y0020500D01*
X0569400Y0020500D01*
X0570400Y0021500D01*
X0572400Y0021500D02*
X0573400Y0020500D01*
X0575400Y0020500D01*
X0576400Y0021500D01*
X0576400Y0022500D01*
X0575400Y0023500D01*
X0574400Y0023500D01*
X0575400Y0023500D02*
X0576400Y0024500D01*
X0576400Y0025500D01*
X0575400Y0026500D01*
X0573400Y0026500D01*
X0572400Y0025500D01*
X0578400Y0023500D02*
X0578400Y0021500D01*
X0579400Y0020500D01*
X0581400Y0020500D01*
X0582400Y0021500D01*
X0582400Y0022500D01*
X0581400Y0023500D01*
X0578400Y0023500D01*
X0580400Y0025500D01*
X0582400Y0026500D01*
X0584400Y0023500D02*
X0588400Y0023500D01*
X0594400Y0021500D02*
X0594400Y0023500D01*
X0593400Y0024500D01*
X0590400Y0024500D01*
X0590400Y0026500D02*
X0590400Y0020500D01*
X0593400Y0020500D01*
X0594400Y0021500D01*
X0600400Y0021500D02*
X0600400Y0023500D01*
X0599400Y0024500D01*
X0597400Y0024500D01*
X0596400Y0023500D01*
X0596400Y0021500D01*
X0597400Y0020500D01*
X0599400Y0020500D01*
X0600400Y0021500D01*
X0606400Y0021500D02*
X0606400Y0023500D01*
X0605400Y0024500D01*
X0602400Y0024500D01*
X0602400Y0026500D02*
X0602400Y0020500D01*
X0605400Y0020500D01*
X0606400Y0021500D01*
X0609900Y0021500D02*
X0610900Y0021500D01*
X0610900Y0020500D01*
X0609900Y0020500D01*
X0609900Y0021500D01*
X0614400Y0018500D02*
X0614400Y0024500D01*
X0617400Y0024500D01*
X0618400Y0023500D01*
X0618400Y0021500D01*
X0617400Y0020500D01*
X0614400Y0020500D01*
X0624400Y0022500D02*
X0621400Y0022500D01*
X0620400Y0021500D01*
X0621400Y0020500D01*
X0624400Y0020500D01*
X0624400Y0023500D01*
X0623400Y0024500D01*
X0621400Y0024500D01*
X0630400Y0020500D02*
X0630400Y0023500D01*
X0629400Y0024500D01*
X0626400Y0024500D01*
X0626400Y0020500D01*
X0636400Y0023500D02*
X0636400Y0022500D01*
X0632400Y0022500D01*
X0632400Y0023500D02*
X0633400Y0024500D01*
X0635400Y0024500D01*
X0636400Y0023500D01*
X0635400Y0020500D02*
X0633400Y0020500D01*
X0632400Y0021500D01*
X0632400Y0023500D01*
X0641400Y0020500D02*
X0639400Y0020500D01*
X0640400Y0020500D02*
X0640400Y0026500D01*
X0639400Y0026500D01*
X0648400Y0019500D02*
X0644400Y0019500D01*
X0654400Y0021500D02*
X0654400Y0023500D01*
X0653400Y0024500D01*
X0651400Y0024500D01*
X0650400Y0023500D01*
X0650400Y0021500D01*
X0651400Y0020500D01*
X0653400Y0020500D01*
X0654400Y0021500D01*
X0657400Y0020500D02*
X0660400Y0020500D01*
X0660400Y0024500D01*
X0656400Y0024500D02*
X0656400Y0021500D01*
X0657400Y0020500D01*
X0664400Y0025500D02*
X0664400Y0021500D01*
X0665400Y0020500D01*
X0665400Y0024500D02*
X0663400Y0024500D01*
X0671400Y0020500D02*
X0669400Y0020500D01*
X0670400Y0020500D02*
X0670400Y0026500D01*
X0669400Y0026500D01*
X0677400Y0020500D02*
X0675400Y0020500D01*
X0676400Y0020500D02*
X0676400Y0024500D01*
X0675400Y0024500D01*
X0676400Y0026500D02*
X0676400Y0027500D01*
X0684400Y0020500D02*
X0684400Y0023500D01*
X0683400Y0024500D01*
X0680400Y0024500D01*
X0680400Y0020500D01*
X0690400Y0023500D02*
X0690400Y0022500D01*
X0686400Y0022500D01*
X0686400Y0023500D02*
X0687400Y0024500D01*
X0689400Y0024500D01*
X0690400Y0023500D01*
X0689400Y0020500D02*
X0687400Y0020500D01*
X0686400Y0021500D01*
X0686400Y0023500D01*
X0693900Y0021500D02*
X0694900Y0021500D01*
X0694900Y0020500D01*
X0693900Y0020500D01*
X0693900Y0021500D01*
X0702400Y0021500D02*
X0702400Y0023500D01*
X0701400Y0024500D01*
X0699400Y0024500D01*
X0698400Y0023500D01*
X0698400Y0021500D01*
X0699400Y0020500D01*
X0701400Y0020500D01*
X0702400Y0021500D01*
X0707400Y0020500D02*
X0705400Y0020500D01*
X0706400Y0020500D02*
X0706400Y0026500D01*
X0705400Y0026500D01*
X0714400Y0020500D02*
X0714400Y0023500D01*
X0713400Y0024500D01*
X0710400Y0024500D01*
X0710400Y0020500D01*
X0726400Y0023500D02*
X0725400Y0022500D01*
X0722400Y0022500D01*
X0722400Y0020500D02*
X0722400Y0026500D01*
X0725400Y0026500D01*
X0726400Y0025500D01*
X0726400Y0023500D01*
X0728400Y0020500D02*
X0728400Y0024500D01*
X0730400Y0026500D01*
X0732400Y0024500D01*
X0732400Y0020500D01*
X0732400Y0023500D02*
X0728400Y0023500D01*
X0734400Y0020500D02*
X0734400Y0026500D01*
X0738400Y0020500D01*
X0738400Y0026500D01*
X0744400Y0026500D02*
X0740400Y0026500D01*
X0740400Y0020500D01*
X0744400Y0020500D01*
X0742400Y0023500D02*
X0740400Y0023500D01*
X0746400Y0020500D02*
X0750400Y0020500D01*
X0746400Y0020500D02*
X0746400Y0026500D01*
X0762400Y0021500D02*
X0762400Y0025500D01*
X0761400Y0026500D01*
X0759400Y0026500D01*
X0758400Y0025500D01*
X0758400Y0021500D01*
X0759400Y0020500D01*
X0761400Y0020500D01*
X0762400Y0021500D01*
X0768400Y0026500D02*
X0768400Y0021500D01*
X0767400Y0020500D01*
X0765400Y0020500D01*
X0764400Y0021500D01*
X0764400Y0026500D01*
X0774400Y0026500D02*
X0770400Y0026500D01*
X0772400Y0026500D02*
X0772400Y0020500D01*
X0776400Y0020500D02*
X0780400Y0020500D01*
X0776400Y0020500D02*
X0776400Y0026500D01*
X0783400Y0020500D02*
X0785400Y0020500D01*
X0784400Y0020500D02*
X0784400Y0026500D01*
X0783400Y0026500D02*
X0785400Y0026500D01*
X0788400Y0020500D02*
X0788400Y0026500D01*
X0792400Y0020500D01*
X0792400Y0026500D01*
X0798400Y0026500D02*
X0794400Y0026500D01*
X0794400Y0020500D01*
X0798400Y0020500D01*
X0796400Y0023500D02*
X0794400Y0023500D01*
X0810400Y0021500D02*
X0810400Y0023500D01*
X0809400Y0024500D01*
X0807400Y0024500D01*
X0806400Y0023500D01*
X0806400Y0021500D01*
X0807400Y0020500D01*
X0809400Y0020500D01*
X0810400Y0021500D01*
X0813400Y0020500D02*
X0816400Y0020500D01*
X0816400Y0024500D01*
X0812400Y0024500D02*
X0812400Y0021500D01*
X0813400Y0020500D01*
X0820400Y0025500D02*
X0820400Y0021500D01*
X0821400Y0020500D01*
X0821400Y0024500D02*
X0819400Y0024500D01*
X0827400Y0020500D02*
X0825400Y0020500D01*
X0826400Y0020500D02*
X0826400Y0026500D01*
X0825400Y0026500D01*
X0833400Y0020500D02*
X0831400Y0020500D01*
X0832400Y0020500D02*
X0832400Y0024500D01*
X0831400Y0024500D01*
X0832400Y0026500D02*
X0832400Y0027500D01*
X0840400Y0020500D02*
X0840400Y0023500D01*
X0839400Y0024500D01*
X0836400Y0024500D01*
X0836400Y0020500D01*
X0846400Y0023500D02*
X0846400Y0022500D01*
X0842400Y0022500D01*
X0842400Y0023500D02*
X0843400Y0024500D01*
X0845400Y0024500D01*
X0846400Y0023500D01*
X0845400Y0020500D02*
X0843400Y0020500D01*
X0842400Y0021500D01*
X0842400Y0023500D01*
X0849900Y0021500D02*
X0850900Y0021500D01*
X0850900Y0020500D01*
X0849900Y0020500D01*
X0849900Y0021500D01*
X0492400Y0034000D02*
X0488400Y0034000D01*
X0488400Y0036000D02*
X0492400Y0032000D01*
X0490400Y0032000D02*
X0490400Y0036000D01*
X0492400Y0036000D02*
X0488400Y0032000D01*
X0504400Y0037000D02*
X0504400Y0032000D01*
X0503400Y0031000D01*
X0501400Y0031000D01*
X0500400Y0032000D01*
X0500400Y0037000D01*
X0510400Y0035000D02*
X0507400Y0035000D01*
X0506400Y0034000D01*
X0507400Y0033000D01*
X0509400Y0033000D01*
X0510400Y0032000D01*
X0509400Y0031000D01*
X0506400Y0031000D01*
X0516400Y0034000D02*
X0516400Y0033000D01*
X0512400Y0033000D01*
X0512400Y0034000D02*
X0513400Y0035000D01*
X0515400Y0035000D01*
X0516400Y0034000D01*
X0515400Y0031000D02*
X0513400Y0031000D01*
X0512400Y0032000D01*
X0512400Y0034000D01*
X0524400Y0029000D02*
X0524400Y0035000D01*
X0527400Y0035000D01*
X0528400Y0034000D01*
X0528400Y0032000D01*
X0527400Y0031000D01*
X0524400Y0031000D01*
X0530400Y0034000D02*
X0534400Y0034000D01*
X0540400Y0035000D02*
X0537400Y0035000D01*
X0536400Y0034000D01*
X0536400Y0032000D01*
X0537400Y0031000D01*
X0540400Y0031000D01*
X0542400Y0035000D02*
X0542400Y0032000D01*
X0543400Y0031000D01*
X0546400Y0031000D01*
X0546400Y0030000D02*
X0545400Y0029000D01*
X0544400Y0029000D01*
X0546400Y0030000D02*
X0546400Y0035000D01*
X0551900Y0035000D02*
X0550900Y0035000D01*
X0548900Y0033000D01*
X0548900Y0031000D02*
X0548900Y0035000D01*
X0557400Y0034000D02*
X0555400Y0034000D01*
X0556400Y0036000D02*
X0556400Y0031000D01*
X0556400Y0036000D02*
X0557400Y0037000D01*
X0560400Y0034000D02*
X0560400Y0032000D01*
X0561400Y0031000D01*
X0563400Y0031000D01*
X0564400Y0032000D01*
X0564400Y0033000D01*
X0563400Y0034000D01*
X0560400Y0034000D01*
X0562400Y0036000D01*
X0564400Y0037000D01*
X0566400Y0035000D02*
X0567400Y0034000D01*
X0570400Y0034000D01*
X0570400Y0032000D02*
X0570400Y0036000D01*
X0569400Y0037000D01*
X0567400Y0037000D01*
X0566400Y0036000D01*
X0566400Y0035000D01*
X0566400Y0032000D02*
X0567400Y0031000D01*
X0569400Y0031000D01*
X0570400Y0032000D01*
X0572400Y0032000D02*
X0573400Y0031000D01*
X0575400Y0031000D01*
X0576400Y0032000D01*
X0576400Y0033000D01*
X0575400Y0034000D01*
X0574400Y0034000D01*
X0575400Y0034000D02*
X0576400Y0035000D01*
X0576400Y0036000D01*
X0575400Y0037000D01*
X0573400Y0037000D01*
X0572400Y0036000D01*
X0578400Y0034000D02*
X0578400Y0032000D01*
X0579400Y0031000D01*
X0581400Y0031000D01*
X0582400Y0032000D01*
X0582400Y0033000D01*
X0581400Y0034000D01*
X0578400Y0034000D01*
X0580400Y0036000D01*
X0582400Y0037000D01*
X0584400Y0034000D02*
X0588400Y0034000D01*
X0594400Y0032000D02*
X0594400Y0034000D01*
X0593400Y0035000D01*
X0590400Y0035000D01*
X0590400Y0037000D02*
X0590400Y0031000D01*
X0593400Y0031000D01*
X0594400Y0032000D01*
X0600400Y0032000D02*
X0600400Y0034000D01*
X0599400Y0035000D01*
X0597400Y0035000D01*
X0596400Y0034000D01*
X0596400Y0032000D01*
X0597400Y0031000D01*
X0599400Y0031000D01*
X0600400Y0032000D01*
X0606400Y0032000D02*
X0606400Y0034000D01*
X0605400Y0035000D01*
X0602400Y0035000D01*
X0602400Y0037000D02*
X0602400Y0031000D01*
X0605400Y0031000D01*
X0606400Y0032000D01*
X0609900Y0032000D02*
X0610900Y0032000D01*
X0610900Y0031000D01*
X0609900Y0031000D01*
X0609900Y0032000D01*
X0614400Y0029000D02*
X0614400Y0035000D01*
X0617400Y0035000D01*
X0618400Y0034000D01*
X0618400Y0032000D01*
X0617400Y0031000D01*
X0614400Y0031000D01*
X0624400Y0033000D02*
X0621400Y0033000D01*
X0620400Y0032000D01*
X0621400Y0031000D01*
X0624400Y0031000D01*
X0624400Y0034000D01*
X0623400Y0035000D01*
X0621400Y0035000D01*
X0630400Y0031000D02*
X0630400Y0034000D01*
X0629400Y0035000D01*
X0626400Y0035000D01*
X0626400Y0031000D01*
X0636400Y0034000D02*
X0636400Y0033000D01*
X0632400Y0033000D01*
X0632400Y0034000D02*
X0633400Y0035000D01*
X0635400Y0035000D01*
X0636400Y0034000D01*
X0635400Y0031000D02*
X0633400Y0031000D01*
X0632400Y0032000D01*
X0632400Y0034000D01*
X0641400Y0031000D02*
X0639400Y0031000D01*
X0640400Y0031000D02*
X0640400Y0037000D01*
X0639400Y0037000D01*
X0648400Y0030000D02*
X0644400Y0030000D01*
X0654400Y0035000D02*
X0651400Y0035000D01*
X0650400Y0034000D01*
X0651400Y0033000D01*
X0653400Y0033000D01*
X0654400Y0032000D01*
X0653400Y0031000D01*
X0650400Y0031000D01*
X0660400Y0035000D02*
X0657400Y0035000D01*
X0656400Y0034000D01*
X0656400Y0032000D01*
X0657400Y0031000D01*
X0660400Y0031000D01*
X0666400Y0032000D02*
X0666400Y0034000D01*
X0665400Y0035000D01*
X0663400Y0035000D01*
X0662400Y0034000D01*
X0662400Y0032000D01*
X0663400Y0031000D01*
X0665400Y0031000D01*
X0666400Y0032000D01*
X0671900Y0035000D02*
X0670900Y0035000D01*
X0668900Y0033000D01*
X0668900Y0031000D02*
X0668900Y0035000D01*
X0677400Y0031000D02*
X0675400Y0031000D01*
X0676400Y0031000D02*
X0676400Y0035000D01*
X0675400Y0035000D01*
X0676400Y0037000D02*
X0676400Y0038000D01*
X0684400Y0031000D02*
X0684400Y0034000D01*
X0683400Y0035000D01*
X0680400Y0035000D01*
X0680400Y0031000D01*
X0690400Y0031000D02*
X0687400Y0031000D01*
X0686400Y0032000D01*
X0686400Y0034000D01*
X0687400Y0035000D01*
X0690400Y0035000D01*
X0690400Y0030000D01*
X0689400Y0029000D01*
X0688400Y0029000D01*
X0693900Y0032000D02*
X0694900Y0032000D01*
X0694900Y0031000D01*
X0693900Y0031000D01*
X0693900Y0032000D01*
X0702400Y0031000D02*
X0699400Y0031000D01*
X0698400Y0032000D01*
X0698400Y0034000D01*
X0699400Y0035000D01*
X0702400Y0035000D01*
X0702400Y0030000D01*
X0701400Y0029000D01*
X0700400Y0029000D01*
X0708400Y0034000D02*
X0708400Y0033000D01*
X0704400Y0033000D01*
X0704400Y0034000D02*
X0705400Y0035000D01*
X0707400Y0035000D01*
X0708400Y0034000D01*
X0707400Y0031000D02*
X0705400Y0031000D01*
X0704400Y0032000D01*
X0704400Y0034000D01*
X0713900Y0035000D02*
X0712900Y0035000D01*
X0710900Y0033000D01*
X0710900Y0031000D02*
X0710900Y0035000D01*
X0725400Y0034000D02*
X0723400Y0034000D01*
X0724400Y0036000D02*
X0724400Y0031000D01*
X0724400Y0036000D02*
X0725400Y0037000D01*
X0732400Y0032000D02*
X0732400Y0034000D01*
X0731400Y0035000D01*
X0729400Y0035000D01*
X0728400Y0034000D01*
X0728400Y0032000D01*
X0729400Y0031000D01*
X0731400Y0031000D01*
X0732400Y0032000D01*
X0737900Y0035000D02*
X0736900Y0035000D01*
X0734900Y0033000D01*
X0734900Y0031000D02*
X0734900Y0035000D01*
X0750400Y0037000D02*
X0750400Y0033000D01*
X0748400Y0031000D01*
X0746400Y0033000D01*
X0746400Y0037000D01*
X0752400Y0034000D02*
X0756400Y0034000D01*
X0762400Y0032000D02*
X0761400Y0031000D01*
X0759400Y0031000D01*
X0758400Y0032000D01*
X0759400Y0034000D02*
X0758400Y0035000D01*
X0758400Y0036000D01*
X0759400Y0037000D01*
X0761400Y0037000D01*
X0762400Y0036000D01*
X0761400Y0034000D02*
X0762400Y0033000D01*
X0762400Y0032000D01*
X0761400Y0034000D02*
X0759400Y0034000D01*
X0764400Y0036000D02*
X0764400Y0032000D01*
X0765400Y0031000D01*
X0767400Y0031000D01*
X0768400Y0032000D01*
X0768400Y0036000D02*
X0767400Y0037000D01*
X0765400Y0037000D01*
X0764400Y0036000D01*
X0774400Y0032000D02*
X0774400Y0036000D01*
X0773400Y0037000D01*
X0771400Y0037000D01*
X0770400Y0036000D01*
X0770400Y0032000D01*
X0771400Y0031000D01*
X0773400Y0031000D01*
X0774400Y0032000D01*
X0780400Y0034000D02*
X0779400Y0033000D01*
X0776400Y0033000D01*
X0776400Y0031000D02*
X0776400Y0037000D01*
X0779400Y0037000D01*
X0780400Y0036000D01*
X0780400Y0034000D01*
X0778400Y0033000D02*
X0780400Y0031000D01*
X0783400Y0031000D02*
X0785400Y0031000D01*
X0784400Y0031000D02*
X0784400Y0037000D01*
X0783400Y0037000D02*
X0785400Y0037000D01*
X0788400Y0031000D02*
X0788400Y0037000D01*
X0792400Y0031000D01*
X0792400Y0037000D01*
X0794400Y0032000D02*
X0795400Y0031000D01*
X0797400Y0031000D01*
X0798400Y0032000D01*
X0798400Y0034000D01*
X0796400Y0034000D01*
X0798400Y0036000D02*
X0797400Y0037000D01*
X0795400Y0037000D01*
X0794400Y0036000D01*
X0794400Y0032000D01*
X0492400Y0044500D02*
X0488400Y0044500D01*
X0488400Y0046500D02*
X0492400Y0042500D01*
X0490400Y0042500D02*
X0490400Y0046500D01*
X0492400Y0046500D02*
X0488400Y0042500D01*
X0500400Y0044500D02*
X0503400Y0044500D01*
X0504400Y0043500D01*
X0504400Y0042500D01*
X0503400Y0041500D01*
X0500400Y0041500D01*
X0500400Y0047500D01*
X0503400Y0047500D01*
X0504400Y0046500D01*
X0504400Y0045500D01*
X0503400Y0044500D01*
X0510400Y0042500D02*
X0510400Y0044500D01*
X0509400Y0045500D01*
X0507400Y0045500D01*
X0506400Y0044500D01*
X0506400Y0042500D01*
X0507400Y0041500D01*
X0509400Y0041500D01*
X0510400Y0042500D01*
X0516400Y0043500D02*
X0513400Y0043500D01*
X0512400Y0042500D01*
X0513400Y0041500D01*
X0516400Y0041500D01*
X0516400Y0044500D01*
X0515400Y0045500D01*
X0513400Y0045500D01*
X0521900Y0045500D02*
X0520900Y0045500D01*
X0518900Y0043500D01*
X0518900Y0041500D02*
X0518900Y0045500D01*
X0528400Y0045500D02*
X0525400Y0045500D01*
X0524400Y0044500D01*
X0524400Y0042500D01*
X0525400Y0041500D01*
X0528400Y0041500D01*
X0528400Y0047500D01*
X0538400Y0046500D02*
X0538400Y0042500D01*
X0539400Y0041500D01*
X0539400Y0045500D02*
X0537400Y0045500D01*
X0546400Y0044500D02*
X0546400Y0041500D01*
X0546400Y0044500D02*
X0545400Y0045500D01*
X0543400Y0045500D01*
X0542400Y0044500D01*
X0542400Y0047500D02*
X0542400Y0041500D01*
X0551400Y0041500D02*
X0549400Y0041500D01*
X0550400Y0041500D02*
X0550400Y0045500D01*
X0549400Y0045500D01*
X0550400Y0047500D02*
X0550400Y0048500D01*
X0558400Y0045500D02*
X0555400Y0045500D01*
X0554400Y0044500D01*
X0554400Y0042500D01*
X0555400Y0041500D01*
X0558400Y0041500D01*
X0563900Y0045500D02*
X0560900Y0043500D01*
X0563900Y0041500D01*
X0560900Y0041500D02*
X0560900Y0047500D01*
X0570400Y0041500D02*
X0570400Y0044500D01*
X0569400Y0045500D01*
X0566400Y0045500D01*
X0566400Y0041500D01*
X0576400Y0044500D02*
X0576400Y0043500D01*
X0572400Y0043500D01*
X0572400Y0044500D02*
X0573400Y0045500D01*
X0575400Y0045500D01*
X0576400Y0044500D01*
X0575400Y0041500D02*
X0573400Y0041500D01*
X0572400Y0042500D01*
X0572400Y0044500D01*
X0582400Y0045500D02*
X0579400Y0045500D01*
X0578400Y0044500D01*
X0579400Y0043500D01*
X0581400Y0043500D01*
X0582400Y0042500D01*
X0581400Y0041500D01*
X0578400Y0041500D01*
X0588400Y0045500D02*
X0585400Y0045500D01*
X0584400Y0044500D01*
X0585400Y0043500D01*
X0587400Y0043500D01*
X0588400Y0042500D01*
X0587400Y0041500D01*
X0584400Y0041500D01*
X0597900Y0042500D02*
X0598900Y0042500D01*
X0598900Y0041500D01*
X0597900Y0041500D01*
X0597900Y0042500D01*
X0602400Y0042500D02*
X0602400Y0043500D01*
X0603400Y0044500D01*
X0605400Y0044500D01*
X0606400Y0043500D01*
X0606400Y0042500D01*
X0605400Y0041500D01*
X0603400Y0041500D01*
X0602400Y0042500D01*
X0603400Y0044500D02*
X0602400Y0045500D01*
X0602400Y0046500D01*
X0603400Y0047500D01*
X0605400Y0047500D01*
X0606400Y0046500D01*
X0606400Y0045500D01*
X0605400Y0044500D01*
X0612400Y0041500D02*
X0612400Y0044500D01*
X0611400Y0045500D01*
X0610400Y0044500D01*
X0610400Y0041500D01*
X0610400Y0044500D02*
X0609400Y0045500D01*
X0608400Y0045500D01*
X0608400Y0041500D01*
X0618400Y0041500D02*
X0618400Y0044500D01*
X0617400Y0045500D01*
X0616400Y0044500D01*
X0616400Y0041500D01*
X0616400Y0044500D02*
X0615400Y0045500D01*
X0614400Y0045500D01*
X0614400Y0041500D01*
X0492400Y0055000D02*
X0488400Y0055000D01*
X0488400Y0057000D02*
X0492400Y0053000D01*
X0490400Y0053000D02*
X0490400Y0057000D01*
X0492400Y0057000D02*
X0488400Y0053000D01*
X0500400Y0058000D02*
X0500400Y0052000D01*
X0503400Y0052000D01*
X0504400Y0053000D01*
X0504400Y0057000D01*
X0503400Y0058000D01*
X0500400Y0058000D01*
X0509900Y0056000D02*
X0508900Y0056000D01*
X0506900Y0054000D01*
X0506900Y0052000D02*
X0506900Y0056000D01*
X0515400Y0052000D02*
X0513400Y0052000D01*
X0514400Y0052000D02*
X0514400Y0056000D01*
X0513400Y0056000D01*
X0514400Y0058000D02*
X0514400Y0059000D01*
X0521400Y0052000D02*
X0519400Y0052000D01*
X0520400Y0052000D02*
X0520400Y0058000D01*
X0519400Y0058000D01*
X0527400Y0052000D02*
X0525400Y0052000D01*
X0526400Y0052000D02*
X0526400Y0058000D01*
X0525400Y0058000D01*
X0534400Y0056000D02*
X0531400Y0056000D01*
X0530400Y0055000D01*
X0531400Y0054000D01*
X0533400Y0054000D01*
X0534400Y0053000D01*
X0533400Y0052000D01*
X0530400Y0052000D01*
X0546400Y0056000D02*
X0543400Y0056000D01*
X0542400Y0055000D01*
X0543400Y0054000D01*
X0545400Y0054000D01*
X0546400Y0053000D01*
X0545400Y0052000D01*
X0542400Y0052000D01*
X0552400Y0055000D02*
X0552400Y0052000D01*
X0552400Y0055000D02*
X0551400Y0056000D01*
X0549400Y0056000D01*
X0548400Y0055000D01*
X0548400Y0058000D02*
X0548400Y0052000D01*
X0558400Y0053000D02*
X0558400Y0055000D01*
X0557400Y0056000D01*
X0555400Y0056000D01*
X0554400Y0055000D01*
X0554400Y0053000D01*
X0555400Y0052000D01*
X0557400Y0052000D01*
X0558400Y0053000D01*
X0560400Y0056000D02*
X0560400Y0053000D01*
X0561400Y0052000D01*
X0562400Y0053000D01*
X0563400Y0052000D01*
X0564400Y0053000D01*
X0564400Y0056000D01*
X0570400Y0052000D02*
X0570400Y0055000D01*
X0569400Y0056000D01*
X0566400Y0056000D01*
X0566400Y0052000D01*
X0582400Y0054000D02*
X0579400Y0054000D01*
X0578400Y0053000D01*
X0579400Y0052000D01*
X0582400Y0052000D01*
X0582400Y0055000D01*
X0581400Y0056000D01*
X0579400Y0056000D01*
X0588400Y0056000D02*
X0585400Y0056000D01*
X0584400Y0055000D01*
X0585400Y0054000D01*
X0587400Y0054000D01*
X0588400Y0053000D01*
X0587400Y0052000D01*
X0584400Y0052000D01*
X0599400Y0055000D02*
X0597400Y0055000D01*
X0598400Y0057000D02*
X0598400Y0052000D01*
X0598400Y0057000D02*
X0599400Y0058000D01*
X0605400Y0052000D02*
X0603400Y0052000D01*
X0604400Y0052000D02*
X0604400Y0056000D01*
X0603400Y0056000D01*
X0604400Y0058000D02*
X0604400Y0059000D01*
X0612400Y0052000D02*
X0612400Y0055000D01*
X0611400Y0056000D01*
X0608400Y0056000D01*
X0608400Y0052000D01*
X0617400Y0052000D02*
X0615400Y0052000D01*
X0616400Y0052000D02*
X0616400Y0056000D01*
X0615400Y0056000D01*
X0616400Y0058000D02*
X0616400Y0059000D01*
X0624400Y0056000D02*
X0621400Y0056000D01*
X0620400Y0055000D01*
X0621400Y0054000D01*
X0623400Y0054000D01*
X0624400Y0053000D01*
X0623400Y0052000D01*
X0620400Y0052000D01*
X0630400Y0055000D02*
X0630400Y0052000D01*
X0630400Y0055000D02*
X0629400Y0056000D01*
X0627400Y0056000D01*
X0626400Y0055000D01*
X0626400Y0058000D02*
X0626400Y0052000D01*
X0636400Y0055000D02*
X0636400Y0054000D01*
X0632400Y0054000D01*
X0632400Y0055000D02*
X0633400Y0056000D01*
X0635400Y0056000D01*
X0636400Y0055000D01*
X0635400Y0052000D02*
X0633400Y0052000D01*
X0632400Y0053000D01*
X0632400Y0055000D01*
X0642400Y0056000D02*
X0639400Y0056000D01*
X0638400Y0055000D01*
X0638400Y0053000D01*
X0639400Y0052000D01*
X0642400Y0052000D01*
X0642400Y0058000D01*
X0654400Y0056000D02*
X0651400Y0056000D01*
X0650400Y0055000D01*
X0651400Y0054000D01*
X0653400Y0054000D01*
X0654400Y0053000D01*
X0653400Y0052000D01*
X0650400Y0052000D01*
X0659400Y0052000D02*
X0657400Y0052000D01*
X0658400Y0052000D02*
X0658400Y0056000D01*
X0657400Y0056000D01*
X0658400Y0058000D02*
X0658400Y0059000D01*
X0662400Y0056000D02*
X0666400Y0056000D01*
X0662400Y0052000D01*
X0666400Y0052000D01*
X0672400Y0055000D02*
X0672400Y0054000D01*
X0668400Y0054000D01*
X0668400Y0055000D02*
X0669400Y0056000D01*
X0671400Y0056000D01*
X0672400Y0055000D01*
X0671400Y0052000D02*
X0669400Y0052000D01*
X0668400Y0053000D01*
X0668400Y0055000D01*
X0678400Y0056000D02*
X0675400Y0056000D01*
X0674400Y0055000D01*
X0675400Y0054000D01*
X0677400Y0054000D01*
X0678400Y0053000D01*
X0677400Y0052000D01*
X0674400Y0052000D01*
X0492400Y0065500D02*
X0488400Y0065500D01*
X0488400Y0067500D02*
X0492400Y0063500D01*
X0490400Y0063500D02*
X0490400Y0067500D01*
X0492400Y0067500D02*
X0488400Y0063500D01*
X0500400Y0062500D02*
X0500400Y0066500D01*
X0502400Y0068500D01*
X0504400Y0066500D01*
X0504400Y0062500D01*
X0504400Y0065500D02*
X0500400Y0065500D01*
X0509400Y0062500D02*
X0507400Y0062500D01*
X0508400Y0062500D02*
X0508400Y0068500D01*
X0507400Y0068500D01*
X0515400Y0062500D02*
X0513400Y0062500D01*
X0514400Y0062500D02*
X0514400Y0068500D01*
X0513400Y0068500D01*
X0528400Y0065500D02*
X0528400Y0062500D01*
X0528400Y0065500D02*
X0527400Y0066500D01*
X0525400Y0066500D01*
X0524400Y0065500D01*
X0524400Y0068500D02*
X0524400Y0062500D01*
X0534400Y0063500D02*
X0534400Y0065500D01*
X0533400Y0066500D01*
X0531400Y0066500D01*
X0530400Y0065500D01*
X0530400Y0063500D01*
X0531400Y0062500D01*
X0533400Y0062500D01*
X0534400Y0063500D01*
X0539400Y0062500D02*
X0537400Y0062500D01*
X0538400Y0062500D02*
X0538400Y0068500D01*
X0537400Y0068500D01*
X0546400Y0065500D02*
X0546400Y0064500D01*
X0542400Y0064500D01*
X0542400Y0065500D02*
X0543400Y0066500D01*
X0545400Y0066500D01*
X0546400Y0065500D01*
X0545400Y0062500D02*
X0543400Y0062500D01*
X0542400Y0063500D01*
X0542400Y0065500D01*
X0552400Y0066500D02*
X0549400Y0066500D01*
X0548400Y0065500D01*
X0549400Y0064500D01*
X0551400Y0064500D01*
X0552400Y0063500D01*
X0551400Y0062500D01*
X0548400Y0062500D01*
X0560400Y0060500D02*
X0560400Y0066500D01*
X0563400Y0066500D01*
X0564400Y0065500D01*
X0564400Y0063500D01*
X0563400Y0062500D01*
X0560400Y0062500D01*
X0569400Y0062500D02*
X0567400Y0062500D01*
X0568400Y0062500D02*
X0568400Y0068500D01*
X0567400Y0068500D01*
X0576400Y0064500D02*
X0573400Y0064500D01*
X0572400Y0063500D01*
X0573400Y0062500D01*
X0576400Y0062500D01*
X0576400Y0065500D01*
X0575400Y0066500D01*
X0573400Y0066500D01*
X0580400Y0067500D02*
X0580400Y0063500D01*
X0581400Y0062500D01*
X0581400Y0066500D02*
X0579400Y0066500D01*
X0588400Y0065500D02*
X0588400Y0064500D01*
X0584400Y0064500D01*
X0584400Y0065500D02*
X0585400Y0066500D01*
X0587400Y0066500D01*
X0588400Y0065500D01*
X0587400Y0062500D02*
X0585400Y0062500D01*
X0584400Y0063500D01*
X0584400Y0065500D01*
X0594400Y0066500D02*
X0591400Y0066500D01*
X0590400Y0065500D01*
X0590400Y0063500D01*
X0591400Y0062500D01*
X0594400Y0062500D01*
X0594400Y0068500D01*
X0604400Y0067500D02*
X0604400Y0063500D01*
X0605400Y0062500D01*
X0605400Y0066500D02*
X0603400Y0066500D01*
X0612400Y0065500D02*
X0612400Y0062500D01*
X0612400Y0065500D02*
X0611400Y0066500D01*
X0609400Y0066500D01*
X0608400Y0065500D01*
X0608400Y0068500D02*
X0608400Y0062500D01*
X0617900Y0066500D02*
X0616900Y0066500D01*
X0614900Y0064500D01*
X0614900Y0062500D02*
X0614900Y0066500D01*
X0624400Y0063500D02*
X0624400Y0065500D01*
X0623400Y0066500D01*
X0621400Y0066500D01*
X0620400Y0065500D01*
X0620400Y0063500D01*
X0621400Y0062500D01*
X0623400Y0062500D01*
X0624400Y0063500D01*
X0627400Y0062500D02*
X0630400Y0062500D01*
X0630400Y0066500D01*
X0626400Y0066500D02*
X0626400Y0063500D01*
X0627400Y0062500D01*
X0636400Y0062500D02*
X0633400Y0062500D01*
X0632400Y0063500D01*
X0632400Y0065500D01*
X0633400Y0066500D01*
X0636400Y0066500D01*
X0636400Y0061500D01*
X0635400Y0060500D01*
X0634400Y0060500D01*
X0642400Y0065500D02*
X0642400Y0062500D01*
X0642400Y0065500D02*
X0641400Y0066500D01*
X0639400Y0066500D01*
X0638400Y0065500D01*
X0638400Y0068500D02*
X0638400Y0062500D01*
X0492400Y0076000D02*
X0488400Y0076000D01*
X0488400Y0078000D02*
X0492400Y0074000D01*
X0490400Y0074000D02*
X0490400Y0078000D01*
X0492400Y0078000D02*
X0488400Y0074000D01*
X0500400Y0073000D02*
X0500400Y0077000D01*
X0502400Y0079000D01*
X0504400Y0077000D01*
X0504400Y0073000D01*
X0504400Y0076000D02*
X0500400Y0076000D01*
X0509400Y0073000D02*
X0507400Y0073000D01*
X0508400Y0073000D02*
X0508400Y0079000D01*
X0507400Y0079000D01*
X0515400Y0073000D02*
X0513400Y0073000D01*
X0514400Y0073000D02*
X0514400Y0079000D01*
X0513400Y0079000D01*
X0527400Y0073000D02*
X0525400Y0073000D01*
X0526400Y0073000D02*
X0526400Y0079000D01*
X0525400Y0079000D01*
X0534400Y0075000D02*
X0531400Y0075000D01*
X0530400Y0074000D01*
X0531400Y0073000D01*
X0534400Y0073000D01*
X0534400Y0076000D01*
X0533400Y0077000D01*
X0531400Y0077000D01*
X0536400Y0077000D02*
X0536400Y0074000D01*
X0537400Y0073000D01*
X0540400Y0073000D01*
X0540400Y0072000D02*
X0539400Y0071000D01*
X0538400Y0071000D01*
X0540400Y0072000D02*
X0540400Y0077000D01*
X0546400Y0076000D02*
X0546400Y0075000D01*
X0542400Y0075000D01*
X0542400Y0076000D02*
X0543400Y0077000D01*
X0545400Y0077000D01*
X0546400Y0076000D01*
X0545400Y0073000D02*
X0543400Y0073000D01*
X0542400Y0074000D01*
X0542400Y0076000D01*
X0551900Y0077000D02*
X0550900Y0077000D01*
X0548900Y0075000D01*
X0548900Y0073000D02*
X0548900Y0077000D01*
X0558400Y0077000D02*
X0555400Y0077000D01*
X0554400Y0076000D01*
X0555400Y0075000D01*
X0557400Y0075000D01*
X0558400Y0074000D01*
X0557400Y0073000D01*
X0554400Y0073000D01*
X0567900Y0074000D02*
X0568900Y0074000D01*
X0568900Y0073000D01*
X0567900Y0073000D01*
X0567900Y0074000D01*
X0572400Y0076000D02*
X0574400Y0077000D01*
X0575400Y0077000D01*
X0576400Y0076000D01*
X0576400Y0074000D01*
X0575400Y0073000D01*
X0573400Y0073000D01*
X0572400Y0074000D01*
X0572400Y0076000D02*
X0572400Y0079000D01*
X0576400Y0079000D01*
X0588400Y0074000D02*
X0588400Y0076000D01*
X0587400Y0077000D01*
X0585400Y0077000D01*
X0584400Y0076000D01*
X0584400Y0074000D01*
X0585400Y0073000D01*
X0587400Y0073000D01*
X0588400Y0074000D01*
X0590400Y0077000D02*
X0594400Y0077000D01*
X0590400Y0073000D01*
X0594400Y0073000D01*
X0597900Y0074000D02*
X0598900Y0074000D01*
X0598900Y0073000D01*
X0597900Y0073000D01*
X0597900Y0074000D01*
X0612400Y0077000D02*
X0609400Y0077000D01*
X0608400Y0076000D01*
X0608400Y0074000D01*
X0609400Y0073000D01*
X0612400Y0073000D01*
X0618400Y0074000D02*
X0618400Y0076000D01*
X0617400Y0077000D01*
X0615400Y0077000D01*
X0614400Y0076000D01*
X0614400Y0074000D01*
X0615400Y0073000D01*
X0617400Y0073000D01*
X0618400Y0074000D01*
X0620400Y0071000D02*
X0620400Y0077000D01*
X0623400Y0077000D01*
X0624400Y0076000D01*
X0624400Y0074000D01*
X0623400Y0073000D01*
X0620400Y0073000D01*
X0626400Y0071000D02*
X0626400Y0077000D01*
X0629400Y0077000D01*
X0630400Y0076000D01*
X0630400Y0074000D01*
X0629400Y0073000D01*
X0626400Y0073000D01*
X0636400Y0076000D02*
X0636400Y0075000D01*
X0632400Y0075000D01*
X0632400Y0076000D02*
X0633400Y0077000D01*
X0635400Y0077000D01*
X0636400Y0076000D01*
X0635400Y0073000D02*
X0633400Y0073000D01*
X0632400Y0074000D01*
X0632400Y0076000D01*
X0641900Y0077000D02*
X0640900Y0077000D01*
X0638900Y0075000D01*
X0638900Y0073000D02*
X0638900Y0077000D01*
X0492400Y0086500D02*
X0488400Y0086500D01*
X0488400Y0088500D02*
X0492400Y0084500D01*
X0490400Y0084500D02*
X0490400Y0088500D01*
X0492400Y0088500D02*
X0488400Y0084500D01*
X0500400Y0086500D02*
X0502400Y0086500D01*
X0500400Y0089500D02*
X0504400Y0089500D01*
X0500400Y0089500D02*
X0500400Y0083500D01*
X0510400Y0086500D02*
X0509400Y0085500D01*
X0506400Y0085500D01*
X0506400Y0083500D02*
X0506400Y0089500D01*
X0509400Y0089500D01*
X0510400Y0088500D01*
X0510400Y0086500D01*
X0508400Y0085500D02*
X0510400Y0083500D01*
X0512400Y0086500D02*
X0516400Y0086500D01*
X0515400Y0083500D02*
X0515400Y0089500D01*
X0512400Y0086500D01*
X0524400Y0083500D02*
X0524400Y0089500D01*
X0526400Y0087500D01*
X0528400Y0089500D01*
X0528400Y0083500D01*
X0534400Y0085500D02*
X0531400Y0085500D01*
X0530400Y0084500D01*
X0531400Y0083500D01*
X0534400Y0083500D01*
X0534400Y0086500D01*
X0533400Y0087500D01*
X0531400Y0087500D01*
X0538400Y0088500D02*
X0538400Y0084500D01*
X0539400Y0083500D01*
X0539400Y0087500D02*
X0537400Y0087500D01*
X0546400Y0086500D02*
X0546400Y0085500D01*
X0542400Y0085500D01*
X0542400Y0086500D02*
X0543400Y0087500D01*
X0545400Y0087500D01*
X0546400Y0086500D01*
X0545400Y0083500D02*
X0543400Y0083500D01*
X0542400Y0084500D01*
X0542400Y0086500D01*
X0551900Y0087500D02*
X0550900Y0087500D01*
X0548900Y0085500D01*
X0548900Y0083500D02*
X0548900Y0087500D01*
X0557400Y0083500D02*
X0555400Y0083500D01*
X0556400Y0083500D02*
X0556400Y0087500D01*
X0555400Y0087500D01*
X0556400Y0089500D02*
X0556400Y0090500D01*
X0564400Y0085500D02*
X0561400Y0085500D01*
X0560400Y0084500D01*
X0561400Y0083500D01*
X0564400Y0083500D01*
X0564400Y0086500D01*
X0563400Y0087500D01*
X0561400Y0087500D01*
X0569400Y0083500D02*
X0567400Y0083500D01*
X0568400Y0083500D02*
X0568400Y0089500D01*
X0567400Y0089500D01*
M02*
