G75*
G70*
%OFA0B0*%
%FSLAX25Y25*%
%IPPOS*%
%LPD*%
%AMOC8*
5,1,8,0,0,1.08239X$1,22.5*
%
%ADD11C,0.01600*%
%ADD13C,0.00600*%
%ADD16C,0.02100*%
%ADD33C,0.02400*%
X0010000Y0010000D02*
G75*
%LPD*%
D13*
X0011300Y0011300D02*
X0011300Y0101800D01*
X0057700Y0101800D01*
X0057700Y0095380D01*
X0057880Y0095200D01*
X0069120Y0095200D01*
X0069300Y0095380D01*
X0069300Y0101800D01*
X0081200Y0101800D01*
X0081200Y0011300D01*
X0011300Y0011300D01*
X0011300Y0011420D02*
X0081200Y0011420D01*
X0081200Y0012010D02*
X0011300Y0012010D01*
X0011300Y0012590D02*
X0081200Y0012590D01*
X0081200Y0013180D02*
X0011300Y0013180D01*
X0011300Y0013760D02*
X0081200Y0013760D01*
X0081200Y0014350D02*
X0011300Y0014350D01*
X0011300Y0014930D02*
X0081200Y0014930D01*
X0081200Y0015520D02*
X0011300Y0015520D01*
X0011300Y0016100D02*
X0081200Y0016100D01*
X0081200Y0016690D02*
X0011300Y0016690D01*
X0011300Y0017270D02*
X0081200Y0017270D01*
X0081200Y0017860D02*
X0011300Y0017860D01*
X0011300Y0018440D02*
X0081200Y0018440D01*
X0081200Y0019030D02*
X0011300Y0019030D01*
X0011300Y0019610D02*
X0081200Y0019610D01*
X0081200Y0020200D02*
X0011300Y0020200D01*
X0011300Y0020780D02*
X0081200Y0020780D01*
X0081200Y0021370D02*
X0011300Y0021370D01*
X0011300Y0021950D02*
X0081200Y0021950D01*
X0081200Y0022540D02*
X0011300Y0022540D01*
X0011300Y0023120D02*
X0081200Y0023120D01*
X0081200Y0023710D02*
X0011300Y0023710D01*
X0011300Y0024290D02*
X0081200Y0024290D01*
X0081200Y0024880D02*
X0011300Y0024880D01*
X0011300Y0025460D02*
X0081200Y0025460D01*
X0081200Y0026050D02*
X0011300Y0026050D01*
X0011300Y0026630D02*
X0081200Y0026630D01*
X0081200Y0027220D02*
X0011300Y0027220D01*
X0011300Y0027800D02*
X0081200Y0027800D01*
X0081200Y0028390D02*
X0011300Y0028390D01*
X0011300Y0028970D02*
X0081200Y0028970D01*
X0081200Y0029560D02*
X0011300Y0029560D01*
X0011300Y0030140D02*
X0081200Y0030140D01*
X0081200Y0030730D02*
X0011300Y0030730D01*
X0011300Y0031310D02*
X0081200Y0031310D01*
X0081200Y0031900D02*
X0011300Y0031900D01*
X0011300Y0032480D02*
X0081200Y0032480D01*
X0081200Y0033070D02*
X0011300Y0033070D01*
X0011300Y0033650D02*
X0081200Y0033650D01*
X0081200Y0034240D02*
X0011300Y0034240D01*
X0011300Y0034820D02*
X0081200Y0034820D01*
X0081200Y0035410D02*
X0011300Y0035410D01*
X0011300Y0035990D02*
X0081200Y0035990D01*
X0081200Y0036580D02*
X0011300Y0036580D01*
X0011300Y0037160D02*
X0081200Y0037160D01*
X0081200Y0037750D02*
X0011300Y0037750D01*
X0011300Y0038330D02*
X0036210Y0038330D01*
X0036520Y0038200D02*
X0035460Y0038640D01*
X0034640Y0039460D01*
X0034310Y0040250D01*
X0030190Y0044380D01*
X0029480Y0045090D01*
X0029100Y0046000D01*
X0029100Y0082800D01*
X0029040Y0082860D01*
X0028600Y0083920D01*
X0028600Y0085080D01*
X0029040Y0086140D01*
X0029860Y0086960D01*
X0030920Y0087400D01*
X0032080Y0087400D01*
X0033140Y0086960D01*
X0033960Y0086140D01*
X0034400Y0085080D01*
X0034400Y0083920D01*
X0034100Y0083200D01*
X0034100Y0047530D01*
X0037630Y0044000D01*
X0037680Y0044000D01*
X0038640Y0043600D01*
X0050060Y0043600D01*
X0051020Y0044000D01*
X0052180Y0044000D01*
X0053140Y0043600D01*
X0057570Y0043600D01*
X0060600Y0046630D01*
X0060600Y0046760D01*
X0060200Y0047720D01*
X0060200Y0048880D01*
X0060640Y0049940D01*
X0061460Y0050760D01*
X0062520Y0051200D01*
X0063680Y0051200D01*
X0064740Y0050760D01*
X0065560Y0049940D01*
X0066000Y0048880D01*
X0066000Y0047720D01*
X0065600Y0046760D01*
X0065600Y0045100D01*
X0065220Y0044190D01*
X0060720Y0039690D01*
X0060010Y0038980D01*
X0059100Y0038600D01*
X0053140Y0038600D01*
X0052180Y0038200D01*
X0051020Y0038200D01*
X0050060Y0038600D01*
X0038640Y0038600D01*
X0037680Y0038200D01*
X0036520Y0038200D01*
X0037990Y0038330D02*
X0050710Y0038330D01*
X0052490Y0038330D02*
X0081200Y0038330D01*
X0081200Y0038920D02*
X0059850Y0038920D01*
X0060530Y0039500D02*
X0081200Y0039500D01*
X0081200Y0040090D02*
X0061120Y0040090D01*
X0061700Y0040670D02*
X0081200Y0040670D01*
X0081200Y0041260D02*
X0062290Y0041260D01*
X0062870Y0041840D02*
X0081200Y0041840D01*
X0081200Y0042430D02*
X0063460Y0042430D01*
X0064040Y0043010D02*
X0081200Y0043010D01*
X0081200Y0043600D02*
X0064630Y0043600D01*
X0065210Y0044180D02*
X0081200Y0044180D01*
X0081200Y0044770D02*
X0065460Y0044770D01*
X0065600Y0045350D02*
X0081200Y0045350D01*
X0081200Y0045940D02*
X0065600Y0045940D01*
X0065600Y0046520D02*
X0081200Y0046520D01*
X0081200Y0047110D02*
X0065740Y0047110D01*
X0065980Y0047690D02*
X0081200Y0047690D01*
X0081200Y0048280D02*
X0066000Y0048280D01*
X0066000Y0048860D02*
X0081200Y0048860D01*
X0081200Y0049450D02*
X0065760Y0049450D01*
X0065470Y0050030D02*
X0081200Y0050030D01*
X0081200Y0050620D02*
X0064880Y0050620D01*
X0061320Y0050620D02*
X0034100Y0050620D01*
X0034100Y0051200D02*
X0081200Y0051200D01*
X0081200Y0051790D02*
X0034100Y0051790D01*
X0034100Y0052370D02*
X0081200Y0052370D01*
X0081200Y0052960D02*
X0034100Y0052960D01*
X0034100Y0053540D02*
X0081200Y0053540D01*
X0081200Y0054130D02*
X0034100Y0054130D01*
X0034100Y0054710D02*
X0081200Y0054710D01*
X0081200Y0055300D02*
X0034100Y0055300D01*
X0034100Y0055880D02*
X0081200Y0055880D01*
X0081200Y0056470D02*
X0034100Y0056470D01*
X0034100Y0057050D02*
X0081200Y0057050D01*
X0081200Y0057640D02*
X0034100Y0057640D01*
X0034100Y0058220D02*
X0081200Y0058220D01*
X0081200Y0058810D02*
X0034100Y0058810D01*
X0034100Y0059390D02*
X0081200Y0059390D01*
X0081200Y0059980D02*
X0034100Y0059980D01*
X0034100Y0060560D02*
X0081200Y0060560D01*
X0081200Y0061150D02*
X0034100Y0061150D01*
X0034100Y0061730D02*
X0081200Y0061730D01*
X0081200Y0062320D02*
X0034100Y0062320D01*
X0034100Y0062900D02*
X0081200Y0062900D01*
X0081200Y0063490D02*
X0034100Y0063490D01*
X0034100Y0064070D02*
X0081200Y0064070D01*
X0081200Y0064660D02*
X0034100Y0064660D01*
X0034100Y0065240D02*
X0081200Y0065240D01*
X0081200Y0065830D02*
X0034100Y0065830D01*
X0034100Y0066410D02*
X0081200Y0066410D01*
X0081200Y0067000D02*
X0034100Y0067000D01*
X0034100Y0067580D02*
X0081200Y0067580D01*
X0081200Y0068170D02*
X0034100Y0068170D01*
X0034100Y0068750D02*
X0081200Y0068750D01*
X0081200Y0069340D02*
X0034100Y0069340D01*
X0034100Y0069920D02*
X0081200Y0069920D01*
X0081200Y0070510D02*
X0034100Y0070510D01*
X0034100Y0071090D02*
X0081200Y0071090D01*
X0081200Y0071680D02*
X0034100Y0071680D01*
X0034100Y0072260D02*
X0081200Y0072260D01*
X0081200Y0072850D02*
X0034100Y0072850D01*
X0034100Y0073430D02*
X0081200Y0073430D01*
X0081200Y0074020D02*
X0034100Y0074020D01*
X0034100Y0074600D02*
X0081200Y0074600D01*
X0081200Y0075190D02*
X0034100Y0075190D01*
X0034100Y0075770D02*
X0081200Y0075770D01*
X0081200Y0076360D02*
X0034100Y0076360D01*
X0034100Y0076940D02*
X0081200Y0076940D01*
X0081200Y0077530D02*
X0034100Y0077530D01*
X0034100Y0078110D02*
X0081200Y0078110D01*
X0081200Y0078700D02*
X0034100Y0078700D01*
X0034100Y0079280D02*
X0081200Y0079280D01*
X0081200Y0079870D02*
X0034100Y0079870D01*
X0034100Y0080450D02*
X0081200Y0080450D01*
X0081200Y0081040D02*
X0034100Y0081040D01*
X0034100Y0081620D02*
X0081200Y0081620D01*
X0081200Y0082210D02*
X0034100Y0082210D01*
X0034100Y0082790D02*
X0081200Y0082790D01*
X0081200Y0083380D02*
X0034170Y0083380D01*
X0034400Y0083960D02*
X0081200Y0083960D01*
X0081200Y0084550D02*
X0034400Y0084550D01*
X0034380Y0085130D02*
X0081200Y0085130D01*
X0081200Y0085720D02*
X0034130Y0085720D01*
X0033800Y0086300D02*
X0081200Y0086300D01*
X0081200Y0086890D02*
X0033210Y0086890D01*
X0029790Y0086890D02*
X0011300Y0086890D01*
X0011300Y0087470D02*
X0081200Y0087470D01*
X0081200Y0088060D02*
X0011300Y0088060D01*
X0011300Y0088640D02*
X0081200Y0088640D01*
X0081200Y0089230D02*
X0011300Y0089230D01*
X0011300Y0089810D02*
X0081200Y0089810D01*
X0081200Y0090400D02*
X0011300Y0090400D01*
X0011300Y0090980D02*
X0081200Y0090980D01*
X0081200Y0091570D02*
X0011300Y0091570D01*
X0011300Y0092150D02*
X0081200Y0092150D01*
X0081200Y0092740D02*
X0011300Y0092740D01*
X0011300Y0093320D02*
X0081200Y0093320D01*
X0081200Y0093910D02*
X0011300Y0093910D01*
X0011300Y0094490D02*
X0081200Y0094490D01*
X0081200Y0095080D02*
X0011300Y0095080D01*
X0011300Y0095660D02*
X0057700Y0095660D01*
X0057700Y0096250D02*
X0011300Y0096250D01*
X0011300Y0096830D02*
X0057700Y0096830D01*
X0057700Y0097420D02*
X0011300Y0097420D01*
X0011300Y0098000D02*
X0057700Y0098000D01*
X0057700Y0098590D02*
X0011300Y0098590D01*
X0011300Y0099170D02*
X0057700Y0099170D01*
X0057700Y0099760D02*
X0011300Y0099760D01*
X0011300Y0100340D02*
X0057700Y0100340D01*
X0057700Y0100930D02*
X0011300Y0100930D01*
X0011300Y0101510D02*
X0057700Y0101510D01*
X0069300Y0101510D02*
X0081200Y0101510D01*
X0081200Y0100930D02*
X0069300Y0100930D01*
X0069300Y0100340D02*
X0081200Y0100340D01*
X0081200Y0099760D02*
X0069300Y0099760D01*
X0069300Y0099170D02*
X0081200Y0099170D01*
X0081200Y0098590D02*
X0069300Y0098590D01*
X0069300Y0098000D02*
X0081200Y0098000D01*
X0081200Y0097420D02*
X0069300Y0097420D01*
X0069300Y0096830D02*
X0081200Y0096830D01*
X0081200Y0096250D02*
X0069300Y0096250D01*
X0069300Y0095660D02*
X0081200Y0095660D01*
X0060730Y0050030D02*
X0034100Y0050030D01*
X0034100Y0049450D02*
X0060440Y0049450D01*
X0060200Y0048860D02*
X0034100Y0048860D01*
X0034100Y0048280D02*
X0060200Y0048280D01*
X0060220Y0047690D02*
X0034100Y0047690D01*
X0034530Y0047110D02*
X0060460Y0047110D01*
X0060490Y0046520D02*
X0035110Y0046520D01*
X0035700Y0045940D02*
X0059900Y0045940D01*
X0059320Y0045350D02*
X0036280Y0045350D01*
X0036870Y0044770D02*
X0058730Y0044770D01*
X0058150Y0044180D02*
X0037450Y0044180D01*
X0034380Y0040090D02*
X0011300Y0040090D01*
X0011300Y0040670D02*
X0033900Y0040670D01*
X0033310Y0041260D02*
X0011300Y0041260D01*
X0011300Y0041840D02*
X0032730Y0041840D01*
X0032140Y0042430D02*
X0011300Y0042430D01*
X0011300Y0043010D02*
X0031560Y0043010D01*
X0030970Y0043600D02*
X0011300Y0043600D01*
X0011300Y0044180D02*
X0030390Y0044180D01*
X0029800Y0044770D02*
X0011300Y0044770D01*
X0011300Y0045350D02*
X0029370Y0045350D01*
X0029130Y0045940D02*
X0011300Y0045940D01*
X0011300Y0046520D02*
X0029100Y0046520D01*
X0029100Y0047110D02*
X0011300Y0047110D01*
X0011300Y0047690D02*
X0029100Y0047690D01*
X0029100Y0048280D02*
X0011300Y0048280D01*
X0011300Y0048860D02*
X0029100Y0048860D01*
X0029100Y0049450D02*
X0011300Y0049450D01*
X0011300Y0050030D02*
X0029100Y0050030D01*
X0029100Y0050620D02*
X0011300Y0050620D01*
X0011300Y0051200D02*
X0029100Y0051200D01*
X0029100Y0051790D02*
X0011300Y0051790D01*
X0011300Y0052370D02*
X0029100Y0052370D01*
X0029100Y0052960D02*
X0011300Y0052960D01*
X0011300Y0053540D02*
X0029100Y0053540D01*
X0029100Y0054130D02*
X0011300Y0054130D01*
X0011300Y0054710D02*
X0029100Y0054710D01*
X0029100Y0055300D02*
X0011300Y0055300D01*
X0011300Y0055880D02*
X0029100Y0055880D01*
X0029100Y0056470D02*
X0011300Y0056470D01*
X0011300Y0057050D02*
X0029100Y0057050D01*
X0029100Y0057640D02*
X0011300Y0057640D01*
X0011300Y0058220D02*
X0029100Y0058220D01*
X0029100Y0058810D02*
X0011300Y0058810D01*
X0011300Y0059390D02*
X0029100Y0059390D01*
X0029100Y0059980D02*
X0011300Y0059980D01*
X0011300Y0060560D02*
X0029100Y0060560D01*
X0029100Y0061150D02*
X0011300Y0061150D01*
X0011300Y0061730D02*
X0029100Y0061730D01*
X0029100Y0062320D02*
X0011300Y0062320D01*
X0011300Y0062900D02*
X0029100Y0062900D01*
X0029100Y0063490D02*
X0011300Y0063490D01*
X0011300Y0064070D02*
X0029100Y0064070D01*
X0029100Y0064660D02*
X0011300Y0064660D01*
X0011300Y0065240D02*
X0029100Y0065240D01*
X0029100Y0065830D02*
X0011300Y0065830D01*
X0011300Y0066410D02*
X0029100Y0066410D01*
X0029100Y0067000D02*
X0011300Y0067000D01*
X0011300Y0067580D02*
X0029100Y0067580D01*
X0029100Y0068170D02*
X0011300Y0068170D01*
X0011300Y0068750D02*
X0029100Y0068750D01*
X0029100Y0069340D02*
X0011300Y0069340D01*
X0011300Y0069920D02*
X0029100Y0069920D01*
X0029100Y0070510D02*
X0011300Y0070510D01*
X0011300Y0071090D02*
X0029100Y0071090D01*
X0029100Y0071680D02*
X0011300Y0071680D01*
X0011300Y0072260D02*
X0029100Y0072260D01*
X0029100Y0072850D02*
X0011300Y0072850D01*
X0011300Y0073430D02*
X0029100Y0073430D01*
X0029100Y0074020D02*
X0011300Y0074020D01*
X0011300Y0074600D02*
X0029100Y0074600D01*
X0029100Y0075190D02*
X0011300Y0075190D01*
X0011300Y0075770D02*
X0029100Y0075770D01*
X0029100Y0076360D02*
X0011300Y0076360D01*
X0011300Y0076940D02*
X0029100Y0076940D01*
X0029100Y0077530D02*
X0011300Y0077530D01*
X0011300Y0078110D02*
X0029100Y0078110D01*
X0029100Y0078700D02*
X0011300Y0078700D01*
X0011300Y0079280D02*
X0029100Y0079280D01*
X0029100Y0079870D02*
X0011300Y0079870D01*
X0011300Y0080450D02*
X0029100Y0080450D01*
X0029100Y0081040D02*
X0011300Y0081040D01*
X0011300Y0081620D02*
X0029100Y0081620D01*
X0029100Y0082210D02*
X0011300Y0082210D01*
X0011300Y0082790D02*
X0029100Y0082790D01*
X0028830Y0083380D02*
X0011300Y0083380D01*
X0011300Y0083960D02*
X0028600Y0083960D01*
X0028600Y0084550D02*
X0011300Y0084550D01*
X0011300Y0085130D02*
X0028620Y0085130D01*
X0028870Y0085720D02*
X0011300Y0085720D01*
X0011300Y0086300D02*
X0029200Y0086300D01*
X0034630Y0039500D02*
X0011300Y0039500D01*
X0011300Y0038920D02*
X0035190Y0038920D01*
D33*
X0037100Y0041100D03*
X0030600Y0045600D03*
X0028000Y0050000D03*
X0029100Y0040200D03*
X0038000Y0052100D03*
X0038000Y0055500D03*
X0038000Y0059000D03*
X0038000Y0062400D03*
X0038000Y0065900D03*
X0041400Y0065900D03*
X0041400Y0062400D03*
X0041400Y0059000D03*
X0041400Y0055500D03*
X0041400Y0052100D03*
X0044800Y0052100D03*
X0044800Y0055500D03*
X0044800Y0059000D03*
X0044800Y0062400D03*
X0044800Y0065900D03*
X0048200Y0065900D03*
X0051600Y0065900D03*
X0051600Y0062400D03*
X0048200Y0062400D03*
X0048200Y0059000D03*
X0051600Y0059000D03*
X0051600Y0055500D03*
X0048200Y0055500D03*
X0048200Y0052100D03*
X0051600Y0052100D03*
X0051600Y0041100D03*
X0057000Y0034000D03*
X0051500Y0028000D03*
X0051500Y0023000D03*
X0043700Y0028000D03*
X0036000Y0014000D03*
X0028000Y0014000D03*
X0031000Y0024800D03*
X0013000Y0023600D03*
X0013000Y0014000D03*
X0013000Y0033600D03*
X0013000Y0043600D03*
X0013000Y0053600D03*
X0013000Y0063600D03*
X0013000Y0073200D03*
X0013000Y0084000D03*
X0013000Y0089500D03*
X0013000Y0094000D03*
X0017500Y0094000D03*
X0021500Y0094000D03*
X0021500Y0089500D03*
X0026000Y0094000D03*
X0031000Y0094000D03*
X0036000Y0094000D03*
X0038000Y0088000D03*
X0041000Y0094000D03*
X0046000Y0094000D03*
X0051000Y0094000D03*
X0066000Y0094000D03*
X0070000Y0094000D03*
X0074500Y0094000D03*
X0079000Y0094000D03*
X0080000Y0088000D03*
X0080000Y0082000D03*
X0080000Y0074000D03*
X0080000Y0064000D03*
X0080000Y0054000D03*
X0080000Y0044000D03*
X0080000Y0034000D03*
X0080000Y0024000D03*
X0080000Y0014000D03*
X0067900Y0014000D03*
X0068000Y0024000D03*
X0068000Y0034000D03*
X0068000Y0042500D03*
X0067500Y0048500D03*
X0063100Y0048300D03*
X0068000Y0066000D03*
X0031500Y0084500D03*
X0028000Y0088000D03*
X0027700Y0080000D03*
X0029700Y0070800D03*
X0028000Y0066000D03*
X0051500Y0014000D03*
D16*
X0032700Y0099000D03*
D11*
X0031500Y0084500D02*
X0031600Y0084400D01*
X0031600Y0046500D01*
X0037000Y0041100D01*
X0037100Y0041100D01*
X0051600Y0041100D01*
X0058600Y0041100D01*
X0063100Y0045600D01*
X0063100Y0048300D01*
X0082600Y0010000D02*
G75*
%LPD*%
D13*
X0083900Y0011300D02*
X0083900Y0101800D01*
X0130300Y0101800D01*
X0130300Y0095380D01*
X0130480Y0095200D01*
X0141720Y0095200D01*
X0141900Y0095380D01*
X0141900Y0101800D01*
X0153800Y0101800D01*
X0153800Y0011300D01*
X0083900Y0011300D01*
X0083900Y0011420D02*
X0153800Y0011420D01*
X0153800Y0012010D02*
X0083900Y0012010D01*
X0083900Y0012590D02*
X0153800Y0012590D01*
X0153800Y0013180D02*
X0083900Y0013180D01*
X0083900Y0013760D02*
X0153800Y0013760D01*
X0153800Y0014350D02*
X0083900Y0014350D01*
X0083900Y0014930D02*
X0153800Y0014930D01*
X0153800Y0015520D02*
X0083900Y0015520D01*
X0083900Y0016100D02*
X0153800Y0016100D01*
X0153800Y0016690D02*
X0083900Y0016690D01*
X0083900Y0017270D02*
X0153800Y0017270D01*
X0153800Y0017860D02*
X0083900Y0017860D01*
X0083900Y0018440D02*
X0153800Y0018440D01*
X0153800Y0019030D02*
X0083900Y0019030D01*
X0083900Y0019610D02*
X0153800Y0019610D01*
X0153800Y0020200D02*
X0083900Y0020200D01*
X0083900Y0020780D02*
X0153800Y0020780D01*
X0153800Y0021370D02*
X0083900Y0021370D01*
X0083900Y0021950D02*
X0153800Y0021950D01*
X0153800Y0022540D02*
X0083900Y0022540D01*
X0083900Y0023120D02*
X0153800Y0023120D01*
X0153800Y0023710D02*
X0083900Y0023710D01*
X0083900Y0024290D02*
X0153800Y0024290D01*
X0153800Y0024880D02*
X0083900Y0024880D01*
X0083900Y0025460D02*
X0153800Y0025460D01*
X0153800Y0026050D02*
X0083900Y0026050D01*
X0083900Y0026630D02*
X0153800Y0026630D01*
X0153800Y0027220D02*
X0083900Y0027220D01*
X0083900Y0027800D02*
X0153800Y0027800D01*
X0153800Y0028390D02*
X0083900Y0028390D01*
X0083900Y0028970D02*
X0153800Y0028970D01*
X0153800Y0029560D02*
X0083900Y0029560D01*
X0083900Y0030140D02*
X0153800Y0030140D01*
X0153800Y0030730D02*
X0083900Y0030730D01*
X0083900Y0031310D02*
X0153800Y0031310D01*
X0153800Y0031900D02*
X0083900Y0031900D01*
X0083900Y0032480D02*
X0153800Y0032480D01*
X0153800Y0033070D02*
X0083900Y0033070D01*
X0083900Y0033650D02*
X0153800Y0033650D01*
X0153800Y0034240D02*
X0083900Y0034240D01*
X0083900Y0034820D02*
X0153800Y0034820D01*
X0153800Y0035410D02*
X0083900Y0035410D01*
X0083900Y0035990D02*
X0153800Y0035990D01*
X0153800Y0036580D02*
X0083900Y0036580D01*
X0083900Y0037160D02*
X0153800Y0037160D01*
X0153800Y0037750D02*
X0083900Y0037750D01*
X0083900Y0038330D02*
X0108810Y0038330D01*
X0109120Y0038200D02*
X0108060Y0038640D01*
X0107240Y0039460D01*
X0106910Y0040250D01*
X0102790Y0044380D01*
X0102080Y0045090D01*
X0101700Y0046000D01*
X0101700Y0082800D01*
X0101640Y0082860D01*
X0101200Y0083920D01*
X0101200Y0085080D01*
X0101640Y0086140D01*
X0102460Y0086960D01*
X0103520Y0087400D01*
X0104680Y0087400D01*
X0105740Y0086960D01*
X0106560Y0086140D01*
X0107000Y0085080D01*
X0107000Y0083920D01*
X0106700Y0083200D01*
X0106700Y0047530D01*
X0110230Y0044000D01*
X0110280Y0044000D01*
X0111240Y0043600D01*
X0122660Y0043600D01*
X0123620Y0044000D01*
X0124780Y0044000D01*
X0125740Y0043600D01*
X0130170Y0043600D01*
X0133200Y0046630D01*
X0133200Y0046760D01*
X0132800Y0047720D01*
X0132800Y0048880D01*
X0133240Y0049940D01*
X0134060Y0050760D01*
X0135120Y0051200D01*
X0136280Y0051200D01*
X0137340Y0050760D01*
X0138160Y0049940D01*
X0138600Y0048880D01*
X0138600Y0047720D01*
X0138200Y0046760D01*
X0138200Y0045100D01*
X0137820Y0044190D01*
X0133320Y0039690D01*
X0132610Y0038980D01*
X0131700Y0038600D01*
X0125740Y0038600D01*
X0124780Y0038200D01*
X0123620Y0038200D01*
X0122660Y0038600D01*
X0111240Y0038600D01*
X0110280Y0038200D01*
X0109120Y0038200D01*
X0110590Y0038330D02*
X0123310Y0038330D01*
X0125090Y0038330D02*
X0153800Y0038330D01*
X0153800Y0038920D02*
X0132450Y0038920D01*
X0133130Y0039500D02*
X0153800Y0039500D01*
X0153800Y0040090D02*
X0133720Y0040090D01*
X0134300Y0040670D02*
X0153800Y0040670D01*
X0153800Y0041260D02*
X0134890Y0041260D01*
X0135470Y0041840D02*
X0153800Y0041840D01*
X0153800Y0042430D02*
X0136060Y0042430D01*
X0136640Y0043010D02*
X0153800Y0043010D01*
X0153800Y0043600D02*
X0137230Y0043600D01*
X0137810Y0044180D02*
X0153800Y0044180D01*
X0153800Y0044770D02*
X0138060Y0044770D01*
X0138200Y0045350D02*
X0153800Y0045350D01*
X0153800Y0045940D02*
X0138200Y0045940D01*
X0138200Y0046520D02*
X0153800Y0046520D01*
X0153800Y0047110D02*
X0138340Y0047110D01*
X0138580Y0047690D02*
X0153800Y0047690D01*
X0153800Y0048280D02*
X0138600Y0048280D01*
X0138600Y0048860D02*
X0153800Y0048860D01*
X0153800Y0049450D02*
X0138360Y0049450D01*
X0138070Y0050030D02*
X0153800Y0050030D01*
X0153800Y0050620D02*
X0137480Y0050620D01*
X0133920Y0050620D02*
X0106700Y0050620D01*
X0106700Y0051200D02*
X0153800Y0051200D01*
X0153800Y0051790D02*
X0106700Y0051790D01*
X0106700Y0052370D02*
X0153800Y0052370D01*
X0153800Y0052960D02*
X0106700Y0052960D01*
X0106700Y0053540D02*
X0153800Y0053540D01*
X0153800Y0054130D02*
X0106700Y0054130D01*
X0106700Y0054710D02*
X0153800Y0054710D01*
X0153800Y0055300D02*
X0106700Y0055300D01*
X0106700Y0055880D02*
X0153800Y0055880D01*
X0153800Y0056470D02*
X0106700Y0056470D01*
X0106700Y0057050D02*
X0153800Y0057050D01*
X0153800Y0057640D02*
X0106700Y0057640D01*
X0106700Y0058220D02*
X0153800Y0058220D01*
X0153800Y0058810D02*
X0106700Y0058810D01*
X0106700Y0059390D02*
X0153800Y0059390D01*
X0153800Y0059980D02*
X0106700Y0059980D01*
X0106700Y0060560D02*
X0153800Y0060560D01*
X0153800Y0061150D02*
X0106700Y0061150D01*
X0106700Y0061730D02*
X0153800Y0061730D01*
X0153800Y0062320D02*
X0106700Y0062320D01*
X0106700Y0062900D02*
X0153800Y0062900D01*
X0153800Y0063490D02*
X0106700Y0063490D01*
X0106700Y0064070D02*
X0153800Y0064070D01*
X0153800Y0064660D02*
X0106700Y0064660D01*
X0106700Y0065240D02*
X0153800Y0065240D01*
X0153800Y0065830D02*
X0106700Y0065830D01*
X0106700Y0066410D02*
X0153800Y0066410D01*
X0153800Y0067000D02*
X0106700Y0067000D01*
X0106700Y0067580D02*
X0153800Y0067580D01*
X0153800Y0068170D02*
X0106700Y0068170D01*
X0106700Y0068750D02*
X0153800Y0068750D01*
X0153800Y0069340D02*
X0106700Y0069340D01*
X0106700Y0069920D02*
X0153800Y0069920D01*
X0153800Y0070510D02*
X0106700Y0070510D01*
X0106700Y0071090D02*
X0153800Y0071090D01*
X0153800Y0071680D02*
X0106700Y0071680D01*
X0106700Y0072260D02*
X0153800Y0072260D01*
X0153800Y0072850D02*
X0106700Y0072850D01*
X0106700Y0073430D02*
X0153800Y0073430D01*
X0153800Y0074020D02*
X0106700Y0074020D01*
X0106700Y0074600D02*
X0153800Y0074600D01*
X0153800Y0075190D02*
X0106700Y0075190D01*
X0106700Y0075770D02*
X0153800Y0075770D01*
X0153800Y0076360D02*
X0106700Y0076360D01*
X0106700Y0076940D02*
X0153800Y0076940D01*
X0153800Y0077530D02*
X0106700Y0077530D01*
X0106700Y0078110D02*
X0153800Y0078110D01*
X0153800Y0078700D02*
X0106700Y0078700D01*
X0106700Y0079280D02*
X0153800Y0079280D01*
X0153800Y0079870D02*
X0106700Y0079870D01*
X0106700Y0080450D02*
X0153800Y0080450D01*
X0153800Y0081040D02*
X0106700Y0081040D01*
X0106700Y0081620D02*
X0153800Y0081620D01*
X0153800Y0082210D02*
X0106700Y0082210D01*
X0106700Y0082790D02*
X0153800Y0082790D01*
X0153800Y0083380D02*
X0106770Y0083380D01*
X0107000Y0083960D02*
X0153800Y0083960D01*
X0153800Y0084550D02*
X0107000Y0084550D01*
X0106980Y0085130D02*
X0153800Y0085130D01*
X0153800Y0085720D02*
X0106730Y0085720D01*
X0106400Y0086300D02*
X0153800Y0086300D01*
X0153800Y0086890D02*
X0105810Y0086890D01*
X0102390Y0086890D02*
X0083900Y0086890D01*
X0083900Y0087470D02*
X0153800Y0087470D01*
X0153800Y0088060D02*
X0083900Y0088060D01*
X0083900Y0088640D02*
X0153800Y0088640D01*
X0153800Y0089230D02*
X0083900Y0089230D01*
X0083900Y0089810D02*
X0153800Y0089810D01*
X0153800Y0090400D02*
X0083900Y0090400D01*
X0083900Y0090980D02*
X0153800Y0090980D01*
X0153800Y0091570D02*
X0083900Y0091570D01*
X0083900Y0092150D02*
X0153800Y0092150D01*
X0153800Y0092740D02*
X0083900Y0092740D01*
X0083900Y0093320D02*
X0153800Y0093320D01*
X0153800Y0093910D02*
X0083900Y0093910D01*
X0083900Y0094490D02*
X0153800Y0094490D01*
X0153800Y0095080D02*
X0083900Y0095080D01*
X0083900Y0095660D02*
X0130300Y0095660D01*
X0130300Y0096250D02*
X0083900Y0096250D01*
X0083900Y0096830D02*
X0130300Y0096830D01*
X0130300Y0097420D02*
X0083900Y0097420D01*
X0083900Y0098000D02*
X0130300Y0098000D01*
X0130300Y0098590D02*
X0083900Y0098590D01*
X0083900Y0099170D02*
X0130300Y0099170D01*
X0130300Y0099760D02*
X0083900Y0099760D01*
X0083900Y0100340D02*
X0130300Y0100340D01*
X0130300Y0100930D02*
X0083900Y0100930D01*
X0083900Y0101510D02*
X0130300Y0101510D01*
X0141900Y0101510D02*
X0153800Y0101510D01*
X0153800Y0100930D02*
X0141900Y0100930D01*
X0141900Y0100340D02*
X0153800Y0100340D01*
X0153800Y0099760D02*
X0141900Y0099760D01*
X0141900Y0099170D02*
X0153800Y0099170D01*
X0153800Y0098590D02*
X0141900Y0098590D01*
X0141900Y0098000D02*
X0153800Y0098000D01*
X0153800Y0097420D02*
X0141900Y0097420D01*
X0141900Y0096830D02*
X0153800Y0096830D01*
X0153800Y0096250D02*
X0141900Y0096250D01*
X0141900Y0095660D02*
X0153800Y0095660D01*
X0133330Y0050030D02*
X0106700Y0050030D01*
X0106700Y0049450D02*
X0133040Y0049450D01*
X0132800Y0048860D02*
X0106700Y0048860D01*
X0106700Y0048280D02*
X0132800Y0048280D01*
X0132820Y0047690D02*
X0106700Y0047690D01*
X0107130Y0047110D02*
X0133060Y0047110D01*
X0133090Y0046520D02*
X0107710Y0046520D01*
X0108300Y0045940D02*
X0132500Y0045940D01*
X0131920Y0045350D02*
X0108880Y0045350D01*
X0109470Y0044770D02*
X0131330Y0044770D01*
X0130750Y0044180D02*
X0110050Y0044180D01*
X0106980Y0040090D02*
X0083900Y0040090D01*
X0083900Y0040670D02*
X0106500Y0040670D01*
X0105910Y0041260D02*
X0083900Y0041260D01*
X0083900Y0041840D02*
X0105330Y0041840D01*
X0104740Y0042430D02*
X0083900Y0042430D01*
X0083900Y0043010D02*
X0104160Y0043010D01*
X0103570Y0043600D02*
X0083900Y0043600D01*
X0083900Y0044180D02*
X0102990Y0044180D01*
X0102400Y0044770D02*
X0083900Y0044770D01*
X0083900Y0045350D02*
X0101970Y0045350D01*
X0101730Y0045940D02*
X0083900Y0045940D01*
X0083900Y0046520D02*
X0101700Y0046520D01*
X0101700Y0047110D02*
X0083900Y0047110D01*
X0083900Y0047690D02*
X0101700Y0047690D01*
X0101700Y0048280D02*
X0083900Y0048280D01*
X0083900Y0048860D02*
X0101700Y0048860D01*
X0101700Y0049450D02*
X0083900Y0049450D01*
X0083900Y0050030D02*
X0101700Y0050030D01*
X0101700Y0050620D02*
X0083900Y0050620D01*
X0083900Y0051200D02*
X0101700Y0051200D01*
X0101700Y0051790D02*
X0083900Y0051790D01*
X0083900Y0052370D02*
X0101700Y0052370D01*
X0101700Y0052960D02*
X0083900Y0052960D01*
X0083900Y0053540D02*
X0101700Y0053540D01*
X0101700Y0054130D02*
X0083900Y0054130D01*
X0083900Y0054710D02*
X0101700Y0054710D01*
X0101700Y0055300D02*
X0083900Y0055300D01*
X0083900Y0055880D02*
X0101700Y0055880D01*
X0101700Y0056470D02*
X0083900Y0056470D01*
X0083900Y0057050D02*
X0101700Y0057050D01*
X0101700Y0057640D02*
X0083900Y0057640D01*
X0083900Y0058220D02*
X0101700Y0058220D01*
X0101700Y0058810D02*
X0083900Y0058810D01*
X0083900Y0059390D02*
X0101700Y0059390D01*
X0101700Y0059980D02*
X0083900Y0059980D01*
X0083900Y0060560D02*
X0101700Y0060560D01*
X0101700Y0061150D02*
X0083900Y0061150D01*
X0083900Y0061730D02*
X0101700Y0061730D01*
X0101700Y0062320D02*
X0083900Y0062320D01*
X0083900Y0062900D02*
X0101700Y0062900D01*
X0101700Y0063490D02*
X0083900Y0063490D01*
X0083900Y0064070D02*
X0101700Y0064070D01*
X0101700Y0064660D02*
X0083900Y0064660D01*
X0083900Y0065240D02*
X0101700Y0065240D01*
X0101700Y0065830D02*
X0083900Y0065830D01*
X0083900Y0066410D02*
X0101700Y0066410D01*
X0101700Y0067000D02*
X0083900Y0067000D01*
X0083900Y0067580D02*
X0101700Y0067580D01*
X0101700Y0068170D02*
X0083900Y0068170D01*
X0083900Y0068750D02*
X0101700Y0068750D01*
X0101700Y0069340D02*
X0083900Y0069340D01*
X0083900Y0069920D02*
X0101700Y0069920D01*
X0101700Y0070510D02*
X0083900Y0070510D01*
X0083900Y0071090D02*
X0101700Y0071090D01*
X0101700Y0071680D02*
X0083900Y0071680D01*
X0083900Y0072260D02*
X0101700Y0072260D01*
X0101700Y0072850D02*
X0083900Y0072850D01*
X0083900Y0073430D02*
X0101700Y0073430D01*
X0101700Y0074020D02*
X0083900Y0074020D01*
X0083900Y0074600D02*
X0101700Y0074600D01*
X0101700Y0075190D02*
X0083900Y0075190D01*
X0083900Y0075770D02*
X0101700Y0075770D01*
X0101700Y0076360D02*
X0083900Y0076360D01*
X0083900Y0076940D02*
X0101700Y0076940D01*
X0101700Y0077530D02*
X0083900Y0077530D01*
X0083900Y0078110D02*
X0101700Y0078110D01*
X0101700Y0078700D02*
X0083900Y0078700D01*
X0083900Y0079280D02*
X0101700Y0079280D01*
X0101700Y0079870D02*
X0083900Y0079870D01*
X0083900Y0080450D02*
X0101700Y0080450D01*
X0101700Y0081040D02*
X0083900Y0081040D01*
X0083900Y0081620D02*
X0101700Y0081620D01*
X0101700Y0082210D02*
X0083900Y0082210D01*
X0083900Y0082790D02*
X0101700Y0082790D01*
X0101430Y0083380D02*
X0083900Y0083380D01*
X0083900Y0083960D02*
X0101200Y0083960D01*
X0101200Y0084550D02*
X0083900Y0084550D01*
X0083900Y0085130D02*
X0101220Y0085130D01*
X0101470Y0085720D02*
X0083900Y0085720D01*
X0083900Y0086300D02*
X0101800Y0086300D01*
X0107230Y0039500D02*
X0083900Y0039500D01*
X0083900Y0038920D02*
X0107790Y0038920D01*
D33*
X0109700Y0041100D03*
X0103200Y0045600D03*
X0100600Y0050000D03*
X0101700Y0040200D03*
X0110600Y0052100D03*
X0110600Y0055500D03*
X0110600Y0059000D03*
X0110600Y0062400D03*
X0110600Y0065900D03*
X0114000Y0065900D03*
X0114000Y0062400D03*
X0114000Y0059000D03*
X0114000Y0055500D03*
X0114000Y0052100D03*
X0117400Y0052100D03*
X0117400Y0055500D03*
X0117400Y0059000D03*
X0117400Y0062400D03*
X0117400Y0065900D03*
X0120800Y0065900D03*
X0124200Y0065900D03*
X0124200Y0062400D03*
X0120800Y0062400D03*
X0120800Y0059000D03*
X0124200Y0059000D03*
X0124200Y0055500D03*
X0120800Y0055500D03*
X0120800Y0052100D03*
X0124200Y0052100D03*
X0124200Y0041100D03*
X0129600Y0034000D03*
X0124100Y0028000D03*
X0124100Y0023000D03*
X0116300Y0028000D03*
X0108600Y0014000D03*
X0100600Y0014000D03*
X0103600Y0024800D03*
X0085600Y0023600D03*
X0085600Y0014000D03*
X0085600Y0033600D03*
X0085600Y0043600D03*
X0085600Y0053600D03*
X0085600Y0063600D03*
X0085600Y0073200D03*
X0085600Y0084000D03*
X0085600Y0089500D03*
X0085600Y0094000D03*
X0090100Y0094000D03*
X0094100Y0094000D03*
X0094100Y0089500D03*
X0098600Y0094000D03*
X0103600Y0094000D03*
X0108600Y0094000D03*
X0110600Y0088000D03*
X0113600Y0094000D03*
X0118600Y0094000D03*
X0123600Y0094000D03*
X0138600Y0094000D03*
X0142600Y0094000D03*
X0147100Y0094000D03*
X0151600Y0094000D03*
X0152600Y0088000D03*
X0152600Y0082000D03*
X0152600Y0074000D03*
X0152600Y0064000D03*
X0152600Y0054000D03*
X0152600Y0044000D03*
X0152600Y0034000D03*
X0152600Y0024000D03*
X0152600Y0014000D03*
X0140500Y0014000D03*
X0140600Y0024000D03*
X0140600Y0034000D03*
X0140600Y0042500D03*
X0140100Y0048500D03*
X0135700Y0048300D03*
X0140600Y0066000D03*
X0104100Y0084500D03*
X0100600Y0088000D03*
X0100300Y0080000D03*
X0102300Y0070800D03*
X0100600Y0066000D03*
X0124100Y0014000D03*
D16*
X0105300Y0099000D03*
D11*
X0104100Y0084500D02*
X0104200Y0084400D01*
X0104200Y0046500D01*
X0109600Y0041100D01*
X0109700Y0041100D01*
X0124200Y0041100D01*
X0131200Y0041100D01*
X0135700Y0045600D01*
X0135700Y0048300D01*
X0155200Y0010000D02*
G75*
%LPD*%
D13*
X0156500Y0011300D02*
X0156500Y0101800D01*
X0202900Y0101800D01*
X0202900Y0095380D01*
X0203080Y0095200D01*
X0214320Y0095200D01*
X0214500Y0095380D01*
X0214500Y0101800D01*
X0226400Y0101800D01*
X0226400Y0011300D01*
X0156500Y0011300D01*
X0156500Y0011420D02*
X0226400Y0011420D01*
X0226400Y0012010D02*
X0156500Y0012010D01*
X0156500Y0012590D02*
X0226400Y0012590D01*
X0226400Y0013180D02*
X0156500Y0013180D01*
X0156500Y0013760D02*
X0226400Y0013760D01*
X0226400Y0014350D02*
X0156500Y0014350D01*
X0156500Y0014930D02*
X0226400Y0014930D01*
X0226400Y0015520D02*
X0156500Y0015520D01*
X0156500Y0016100D02*
X0226400Y0016100D01*
X0226400Y0016690D02*
X0156500Y0016690D01*
X0156500Y0017270D02*
X0226400Y0017270D01*
X0226400Y0017860D02*
X0156500Y0017860D01*
X0156500Y0018440D02*
X0226400Y0018440D01*
X0226400Y0019030D02*
X0156500Y0019030D01*
X0156500Y0019610D02*
X0226400Y0019610D01*
X0226400Y0020200D02*
X0156500Y0020200D01*
X0156500Y0020780D02*
X0226400Y0020780D01*
X0226400Y0021370D02*
X0156500Y0021370D01*
X0156500Y0021950D02*
X0226400Y0021950D01*
X0226400Y0022540D02*
X0156500Y0022540D01*
X0156500Y0023120D02*
X0226400Y0023120D01*
X0226400Y0023710D02*
X0156500Y0023710D01*
X0156500Y0024290D02*
X0226400Y0024290D01*
X0226400Y0024880D02*
X0156500Y0024880D01*
X0156500Y0025460D02*
X0226400Y0025460D01*
X0226400Y0026050D02*
X0156500Y0026050D01*
X0156500Y0026630D02*
X0226400Y0026630D01*
X0226400Y0027220D02*
X0156500Y0027220D01*
X0156500Y0027800D02*
X0226400Y0027800D01*
X0226400Y0028390D02*
X0156500Y0028390D01*
X0156500Y0028970D02*
X0226400Y0028970D01*
X0226400Y0029560D02*
X0156500Y0029560D01*
X0156500Y0030140D02*
X0226400Y0030140D01*
X0226400Y0030730D02*
X0156500Y0030730D01*
X0156500Y0031310D02*
X0226400Y0031310D01*
X0226400Y0031900D02*
X0156500Y0031900D01*
X0156500Y0032480D02*
X0226400Y0032480D01*
X0226400Y0033070D02*
X0156500Y0033070D01*
X0156500Y0033650D02*
X0226400Y0033650D01*
X0226400Y0034240D02*
X0156500Y0034240D01*
X0156500Y0034820D02*
X0226400Y0034820D01*
X0226400Y0035410D02*
X0156500Y0035410D01*
X0156500Y0035990D02*
X0226400Y0035990D01*
X0226400Y0036580D02*
X0156500Y0036580D01*
X0156500Y0037160D02*
X0226400Y0037160D01*
X0226400Y0037750D02*
X0156500Y0037750D01*
X0156500Y0038330D02*
X0181410Y0038330D01*
X0181720Y0038200D02*
X0180660Y0038640D01*
X0179840Y0039460D01*
X0179510Y0040250D01*
X0175390Y0044380D01*
X0174680Y0045090D01*
X0174300Y0046000D01*
X0174300Y0082800D01*
X0174240Y0082860D01*
X0173800Y0083920D01*
X0173800Y0085080D01*
X0174240Y0086140D01*
X0175060Y0086960D01*
X0176120Y0087400D01*
X0177280Y0087400D01*
X0178340Y0086960D01*
X0179160Y0086140D01*
X0179600Y0085080D01*
X0179600Y0083920D01*
X0179300Y0083200D01*
X0179300Y0047530D01*
X0182830Y0044000D01*
X0182880Y0044000D01*
X0183840Y0043600D01*
X0195260Y0043600D01*
X0196220Y0044000D01*
X0197380Y0044000D01*
X0198340Y0043600D01*
X0202770Y0043600D01*
X0205800Y0046630D01*
X0205800Y0046760D01*
X0205400Y0047720D01*
X0205400Y0048880D01*
X0205840Y0049940D01*
X0206660Y0050760D01*
X0207720Y0051200D01*
X0208880Y0051200D01*
X0209940Y0050760D01*
X0210760Y0049940D01*
X0211200Y0048880D01*
X0211200Y0047720D01*
X0210800Y0046760D01*
X0210800Y0045100D01*
X0210420Y0044190D01*
X0205920Y0039690D01*
X0205210Y0038980D01*
X0204300Y0038600D01*
X0198340Y0038600D01*
X0197380Y0038200D01*
X0196220Y0038200D01*
X0195260Y0038600D01*
X0183840Y0038600D01*
X0182880Y0038200D01*
X0181720Y0038200D01*
X0183190Y0038330D02*
X0195910Y0038330D01*
X0197690Y0038330D02*
X0226400Y0038330D01*
X0226400Y0038920D02*
X0205050Y0038920D01*
X0205730Y0039500D02*
X0226400Y0039500D01*
X0226400Y0040090D02*
X0206320Y0040090D01*
X0206900Y0040670D02*
X0226400Y0040670D01*
X0226400Y0041260D02*
X0207490Y0041260D01*
X0208070Y0041840D02*
X0226400Y0041840D01*
X0226400Y0042430D02*
X0208660Y0042430D01*
X0209240Y0043010D02*
X0226400Y0043010D01*
X0226400Y0043600D02*
X0209830Y0043600D01*
X0210410Y0044180D02*
X0226400Y0044180D01*
X0226400Y0044770D02*
X0210660Y0044770D01*
X0210800Y0045350D02*
X0226400Y0045350D01*
X0226400Y0045940D02*
X0210800Y0045940D01*
X0210800Y0046520D02*
X0226400Y0046520D01*
X0226400Y0047110D02*
X0210940Y0047110D01*
X0211180Y0047690D02*
X0226400Y0047690D01*
X0226400Y0048280D02*
X0211200Y0048280D01*
X0211200Y0048860D02*
X0226400Y0048860D01*
X0226400Y0049450D02*
X0210960Y0049450D01*
X0210670Y0050030D02*
X0226400Y0050030D01*
X0226400Y0050620D02*
X0210080Y0050620D01*
X0206520Y0050620D02*
X0179300Y0050620D01*
X0179300Y0051200D02*
X0226400Y0051200D01*
X0226400Y0051790D02*
X0179300Y0051790D01*
X0179300Y0052370D02*
X0226400Y0052370D01*
X0226400Y0052960D02*
X0179300Y0052960D01*
X0179300Y0053540D02*
X0226400Y0053540D01*
X0226400Y0054130D02*
X0179300Y0054130D01*
X0179300Y0054710D02*
X0226400Y0054710D01*
X0226400Y0055300D02*
X0179300Y0055300D01*
X0179300Y0055880D02*
X0226400Y0055880D01*
X0226400Y0056470D02*
X0179300Y0056470D01*
X0179300Y0057050D02*
X0226400Y0057050D01*
X0226400Y0057640D02*
X0179300Y0057640D01*
X0179300Y0058220D02*
X0226400Y0058220D01*
X0226400Y0058810D02*
X0179300Y0058810D01*
X0179300Y0059390D02*
X0226400Y0059390D01*
X0226400Y0059980D02*
X0179300Y0059980D01*
X0179300Y0060560D02*
X0226400Y0060560D01*
X0226400Y0061150D02*
X0179300Y0061150D01*
X0179300Y0061730D02*
X0226400Y0061730D01*
X0226400Y0062320D02*
X0179300Y0062320D01*
X0179300Y0062900D02*
X0226400Y0062900D01*
X0226400Y0063490D02*
X0179300Y0063490D01*
X0179300Y0064070D02*
X0226400Y0064070D01*
X0226400Y0064660D02*
X0179300Y0064660D01*
X0179300Y0065240D02*
X0226400Y0065240D01*
X0226400Y0065830D02*
X0179300Y0065830D01*
X0179300Y0066410D02*
X0226400Y0066410D01*
X0226400Y0067000D02*
X0179300Y0067000D01*
X0179300Y0067580D02*
X0226400Y0067580D01*
X0226400Y0068170D02*
X0179300Y0068170D01*
X0179300Y0068750D02*
X0226400Y0068750D01*
X0226400Y0069340D02*
X0179300Y0069340D01*
X0179300Y0069920D02*
X0226400Y0069920D01*
X0226400Y0070510D02*
X0179300Y0070510D01*
X0179300Y0071090D02*
X0226400Y0071090D01*
X0226400Y0071680D02*
X0179300Y0071680D01*
X0179300Y0072260D02*
X0226400Y0072260D01*
X0226400Y0072850D02*
X0179300Y0072850D01*
X0179300Y0073430D02*
X0226400Y0073430D01*
X0226400Y0074020D02*
X0179300Y0074020D01*
X0179300Y0074600D02*
X0226400Y0074600D01*
X0226400Y0075190D02*
X0179300Y0075190D01*
X0179300Y0075770D02*
X0226400Y0075770D01*
X0226400Y0076360D02*
X0179300Y0076360D01*
X0179300Y0076940D02*
X0226400Y0076940D01*
X0226400Y0077530D02*
X0179300Y0077530D01*
X0179300Y0078110D02*
X0226400Y0078110D01*
X0226400Y0078700D02*
X0179300Y0078700D01*
X0179300Y0079280D02*
X0226400Y0079280D01*
X0226400Y0079870D02*
X0179300Y0079870D01*
X0179300Y0080450D02*
X0226400Y0080450D01*
X0226400Y0081040D02*
X0179300Y0081040D01*
X0179300Y0081620D02*
X0226400Y0081620D01*
X0226400Y0082210D02*
X0179300Y0082210D01*
X0179300Y0082790D02*
X0226400Y0082790D01*
X0226400Y0083380D02*
X0179370Y0083380D01*
X0179600Y0083960D02*
X0226400Y0083960D01*
X0226400Y0084550D02*
X0179600Y0084550D01*
X0179580Y0085130D02*
X0226400Y0085130D01*
X0226400Y0085720D02*
X0179330Y0085720D01*
X0179000Y0086300D02*
X0226400Y0086300D01*
X0226400Y0086890D02*
X0178410Y0086890D01*
X0174990Y0086890D02*
X0156500Y0086890D01*
X0156500Y0087470D02*
X0226400Y0087470D01*
X0226400Y0088060D02*
X0156500Y0088060D01*
X0156500Y0088640D02*
X0226400Y0088640D01*
X0226400Y0089230D02*
X0156500Y0089230D01*
X0156500Y0089810D02*
X0226400Y0089810D01*
X0226400Y0090400D02*
X0156500Y0090400D01*
X0156500Y0090980D02*
X0226400Y0090980D01*
X0226400Y0091570D02*
X0156500Y0091570D01*
X0156500Y0092150D02*
X0226400Y0092150D01*
X0226400Y0092740D02*
X0156500Y0092740D01*
X0156500Y0093320D02*
X0226400Y0093320D01*
X0226400Y0093910D02*
X0156500Y0093910D01*
X0156500Y0094490D02*
X0226400Y0094490D01*
X0226400Y0095080D02*
X0156500Y0095080D01*
X0156500Y0095660D02*
X0202900Y0095660D01*
X0202900Y0096250D02*
X0156500Y0096250D01*
X0156500Y0096830D02*
X0202900Y0096830D01*
X0202900Y0097420D02*
X0156500Y0097420D01*
X0156500Y0098000D02*
X0202900Y0098000D01*
X0202900Y0098590D02*
X0156500Y0098590D01*
X0156500Y0099170D02*
X0202900Y0099170D01*
X0202900Y0099760D02*
X0156500Y0099760D01*
X0156500Y0100340D02*
X0202900Y0100340D01*
X0202900Y0100930D02*
X0156500Y0100930D01*
X0156500Y0101510D02*
X0202900Y0101510D01*
X0214500Y0101510D02*
X0226400Y0101510D01*
X0226400Y0100930D02*
X0214500Y0100930D01*
X0214500Y0100340D02*
X0226400Y0100340D01*
X0226400Y0099760D02*
X0214500Y0099760D01*
X0214500Y0099170D02*
X0226400Y0099170D01*
X0226400Y0098590D02*
X0214500Y0098590D01*
X0214500Y0098000D02*
X0226400Y0098000D01*
X0226400Y0097420D02*
X0214500Y0097420D01*
X0214500Y0096830D02*
X0226400Y0096830D01*
X0226400Y0096250D02*
X0214500Y0096250D01*
X0214500Y0095660D02*
X0226400Y0095660D01*
X0205930Y0050030D02*
X0179300Y0050030D01*
X0179300Y0049450D02*
X0205640Y0049450D01*
X0205400Y0048860D02*
X0179300Y0048860D01*
X0179300Y0048280D02*
X0205400Y0048280D01*
X0205420Y0047690D02*
X0179300Y0047690D01*
X0179730Y0047110D02*
X0205660Y0047110D01*
X0205690Y0046520D02*
X0180310Y0046520D01*
X0180900Y0045940D02*
X0205100Y0045940D01*
X0204520Y0045350D02*
X0181480Y0045350D01*
X0182070Y0044770D02*
X0203930Y0044770D01*
X0203350Y0044180D02*
X0182650Y0044180D01*
X0179580Y0040090D02*
X0156500Y0040090D01*
X0156500Y0040670D02*
X0179100Y0040670D01*
X0178510Y0041260D02*
X0156500Y0041260D01*
X0156500Y0041840D02*
X0177930Y0041840D01*
X0177340Y0042430D02*
X0156500Y0042430D01*
X0156500Y0043010D02*
X0176760Y0043010D01*
X0176170Y0043600D02*
X0156500Y0043600D01*
X0156500Y0044180D02*
X0175590Y0044180D01*
X0175000Y0044770D02*
X0156500Y0044770D01*
X0156500Y0045350D02*
X0174570Y0045350D01*
X0174330Y0045940D02*
X0156500Y0045940D01*
X0156500Y0046520D02*
X0174300Y0046520D01*
X0174300Y0047110D02*
X0156500Y0047110D01*
X0156500Y0047690D02*
X0174300Y0047690D01*
X0174300Y0048280D02*
X0156500Y0048280D01*
X0156500Y0048860D02*
X0174300Y0048860D01*
X0174300Y0049450D02*
X0156500Y0049450D01*
X0156500Y0050030D02*
X0174300Y0050030D01*
X0174300Y0050620D02*
X0156500Y0050620D01*
X0156500Y0051200D02*
X0174300Y0051200D01*
X0174300Y0051790D02*
X0156500Y0051790D01*
X0156500Y0052370D02*
X0174300Y0052370D01*
X0174300Y0052960D02*
X0156500Y0052960D01*
X0156500Y0053540D02*
X0174300Y0053540D01*
X0174300Y0054130D02*
X0156500Y0054130D01*
X0156500Y0054710D02*
X0174300Y0054710D01*
X0174300Y0055300D02*
X0156500Y0055300D01*
X0156500Y0055880D02*
X0174300Y0055880D01*
X0174300Y0056470D02*
X0156500Y0056470D01*
X0156500Y0057050D02*
X0174300Y0057050D01*
X0174300Y0057640D02*
X0156500Y0057640D01*
X0156500Y0058220D02*
X0174300Y0058220D01*
X0174300Y0058810D02*
X0156500Y0058810D01*
X0156500Y0059390D02*
X0174300Y0059390D01*
X0174300Y0059980D02*
X0156500Y0059980D01*
X0156500Y0060560D02*
X0174300Y0060560D01*
X0174300Y0061150D02*
X0156500Y0061150D01*
X0156500Y0061730D02*
X0174300Y0061730D01*
X0174300Y0062320D02*
X0156500Y0062320D01*
X0156500Y0062900D02*
X0174300Y0062900D01*
X0174300Y0063490D02*
X0156500Y0063490D01*
X0156500Y0064070D02*
X0174300Y0064070D01*
X0174300Y0064660D02*
X0156500Y0064660D01*
X0156500Y0065240D02*
X0174300Y0065240D01*
X0174300Y0065830D02*
X0156500Y0065830D01*
X0156500Y0066410D02*
X0174300Y0066410D01*
X0174300Y0067000D02*
X0156500Y0067000D01*
X0156500Y0067580D02*
X0174300Y0067580D01*
X0174300Y0068170D02*
X0156500Y0068170D01*
X0156500Y0068750D02*
X0174300Y0068750D01*
X0174300Y0069340D02*
X0156500Y0069340D01*
X0156500Y0069920D02*
X0174300Y0069920D01*
X0174300Y0070510D02*
X0156500Y0070510D01*
X0156500Y0071090D02*
X0174300Y0071090D01*
X0174300Y0071680D02*
X0156500Y0071680D01*
X0156500Y0072260D02*
X0174300Y0072260D01*
X0174300Y0072850D02*
X0156500Y0072850D01*
X0156500Y0073430D02*
X0174300Y0073430D01*
X0174300Y0074020D02*
X0156500Y0074020D01*
X0156500Y0074600D02*
X0174300Y0074600D01*
X0174300Y0075190D02*
X0156500Y0075190D01*
X0156500Y0075770D02*
X0174300Y0075770D01*
X0174300Y0076360D02*
X0156500Y0076360D01*
X0156500Y0076940D02*
X0174300Y0076940D01*
X0174300Y0077530D02*
X0156500Y0077530D01*
X0156500Y0078110D02*
X0174300Y0078110D01*
X0174300Y0078700D02*
X0156500Y0078700D01*
X0156500Y0079280D02*
X0174300Y0079280D01*
X0174300Y0079870D02*
X0156500Y0079870D01*
X0156500Y0080450D02*
X0174300Y0080450D01*
X0174300Y0081040D02*
X0156500Y0081040D01*
X0156500Y0081620D02*
X0174300Y0081620D01*
X0174300Y0082210D02*
X0156500Y0082210D01*
X0156500Y0082790D02*
X0174300Y0082790D01*
X0174030Y0083380D02*
X0156500Y0083380D01*
X0156500Y0083960D02*
X0173800Y0083960D01*
X0173800Y0084550D02*
X0156500Y0084550D01*
X0156500Y0085130D02*
X0173820Y0085130D01*
X0174070Y0085720D02*
X0156500Y0085720D01*
X0156500Y0086300D02*
X0174400Y0086300D01*
X0179830Y0039500D02*
X0156500Y0039500D01*
X0156500Y0038920D02*
X0180390Y0038920D01*
D33*
X0182300Y0041100D03*
X0175800Y0045600D03*
X0173200Y0050000D03*
X0174300Y0040200D03*
X0183200Y0052100D03*
X0183200Y0055500D03*
X0183200Y0059000D03*
X0183200Y0062400D03*
X0183200Y0065900D03*
X0186600Y0065900D03*
X0186600Y0062400D03*
X0186600Y0059000D03*
X0186600Y0055500D03*
X0186600Y0052100D03*
X0190000Y0052100D03*
X0190000Y0055500D03*
X0190000Y0059000D03*
X0190000Y0062400D03*
X0190000Y0065900D03*
X0193400Y0065900D03*
X0196800Y0065900D03*
X0196800Y0062400D03*
X0193400Y0062400D03*
X0193400Y0059000D03*
X0196800Y0059000D03*
X0196800Y0055500D03*
X0193400Y0055500D03*
X0193400Y0052100D03*
X0196800Y0052100D03*
X0196800Y0041100D03*
X0202200Y0034000D03*
X0196700Y0028000D03*
X0196700Y0023000D03*
X0188900Y0028000D03*
X0181200Y0014000D03*
X0173200Y0014000D03*
X0176200Y0024800D03*
X0158200Y0023600D03*
X0158200Y0014000D03*
X0158200Y0033600D03*
X0158200Y0043600D03*
X0158200Y0053600D03*
X0158200Y0063600D03*
X0158200Y0073200D03*
X0158200Y0084000D03*
X0158200Y0089500D03*
X0158200Y0094000D03*
X0162700Y0094000D03*
X0166700Y0094000D03*
X0166700Y0089500D03*
X0171200Y0094000D03*
X0176200Y0094000D03*
X0181200Y0094000D03*
X0183200Y0088000D03*
X0186200Y0094000D03*
X0191200Y0094000D03*
X0196200Y0094000D03*
X0211200Y0094000D03*
X0215200Y0094000D03*
X0219700Y0094000D03*
X0224200Y0094000D03*
X0225200Y0088000D03*
X0225200Y0082000D03*
X0225200Y0074000D03*
X0225200Y0064000D03*
X0225200Y0054000D03*
X0225200Y0044000D03*
X0225200Y0034000D03*
X0225200Y0024000D03*
X0225200Y0014000D03*
X0213100Y0014000D03*
X0213200Y0024000D03*
X0213200Y0034000D03*
X0213200Y0042500D03*
X0212700Y0048500D03*
X0208300Y0048300D03*
X0213200Y0066000D03*
X0176700Y0084500D03*
X0173200Y0088000D03*
X0172900Y0080000D03*
X0174900Y0070800D03*
X0173200Y0066000D03*
X0196700Y0014000D03*
D16*
X0177900Y0099000D03*
D11*
X0176700Y0084500D02*
X0176800Y0084400D01*
X0176800Y0046500D01*
X0182200Y0041100D01*
X0182300Y0041100D01*
X0196800Y0041100D01*
X0203800Y0041100D01*
X0208300Y0045600D01*
X0208300Y0048300D01*
X0227800Y0010000D02*
G75*
%LPD*%
D13*
X0229100Y0011300D02*
X0229100Y0101800D01*
X0275500Y0101800D01*
X0275500Y0095380D01*
X0275680Y0095200D01*
X0286920Y0095200D01*
X0287100Y0095380D01*
X0287100Y0101800D01*
X0299000Y0101800D01*
X0299000Y0011300D01*
X0229100Y0011300D01*
X0229100Y0011420D02*
X0299000Y0011420D01*
X0299000Y0012010D02*
X0229100Y0012010D01*
X0229100Y0012590D02*
X0299000Y0012590D01*
X0299000Y0013180D02*
X0229100Y0013180D01*
X0229100Y0013760D02*
X0299000Y0013760D01*
X0299000Y0014350D02*
X0229100Y0014350D01*
X0229100Y0014930D02*
X0299000Y0014930D01*
X0299000Y0015520D02*
X0229100Y0015520D01*
X0229100Y0016100D02*
X0299000Y0016100D01*
X0299000Y0016690D02*
X0229100Y0016690D01*
X0229100Y0017270D02*
X0299000Y0017270D01*
X0299000Y0017860D02*
X0229100Y0017860D01*
X0229100Y0018440D02*
X0299000Y0018440D01*
X0299000Y0019030D02*
X0229100Y0019030D01*
X0229100Y0019610D02*
X0299000Y0019610D01*
X0299000Y0020200D02*
X0229100Y0020200D01*
X0229100Y0020780D02*
X0299000Y0020780D01*
X0299000Y0021370D02*
X0229100Y0021370D01*
X0229100Y0021950D02*
X0299000Y0021950D01*
X0299000Y0022540D02*
X0229100Y0022540D01*
X0229100Y0023120D02*
X0299000Y0023120D01*
X0299000Y0023710D02*
X0229100Y0023710D01*
X0229100Y0024290D02*
X0299000Y0024290D01*
X0299000Y0024880D02*
X0229100Y0024880D01*
X0229100Y0025460D02*
X0299000Y0025460D01*
X0299000Y0026050D02*
X0229100Y0026050D01*
X0229100Y0026630D02*
X0299000Y0026630D01*
X0299000Y0027220D02*
X0229100Y0027220D01*
X0229100Y0027800D02*
X0299000Y0027800D01*
X0299000Y0028390D02*
X0229100Y0028390D01*
X0229100Y0028970D02*
X0299000Y0028970D01*
X0299000Y0029560D02*
X0229100Y0029560D01*
X0229100Y0030140D02*
X0299000Y0030140D01*
X0299000Y0030730D02*
X0229100Y0030730D01*
X0229100Y0031310D02*
X0299000Y0031310D01*
X0299000Y0031900D02*
X0229100Y0031900D01*
X0229100Y0032480D02*
X0299000Y0032480D01*
X0299000Y0033070D02*
X0229100Y0033070D01*
X0229100Y0033650D02*
X0299000Y0033650D01*
X0299000Y0034240D02*
X0229100Y0034240D01*
X0229100Y0034820D02*
X0299000Y0034820D01*
X0299000Y0035410D02*
X0229100Y0035410D01*
X0229100Y0035990D02*
X0299000Y0035990D01*
X0299000Y0036580D02*
X0229100Y0036580D01*
X0229100Y0037160D02*
X0299000Y0037160D01*
X0299000Y0037750D02*
X0229100Y0037750D01*
X0229100Y0038330D02*
X0254010Y0038330D01*
X0254320Y0038200D02*
X0253260Y0038640D01*
X0252440Y0039460D01*
X0252110Y0040250D01*
X0247990Y0044380D01*
X0247280Y0045090D01*
X0246900Y0046000D01*
X0246900Y0082800D01*
X0246840Y0082860D01*
X0246400Y0083920D01*
X0246400Y0085080D01*
X0246840Y0086140D01*
X0247660Y0086960D01*
X0248720Y0087400D01*
X0249880Y0087400D01*
X0250940Y0086960D01*
X0251760Y0086140D01*
X0252200Y0085080D01*
X0252200Y0083920D01*
X0251900Y0083200D01*
X0251900Y0047530D01*
X0255430Y0044000D01*
X0255480Y0044000D01*
X0256440Y0043600D01*
X0267860Y0043600D01*
X0268820Y0044000D01*
X0269980Y0044000D01*
X0270940Y0043600D01*
X0275370Y0043600D01*
X0278400Y0046630D01*
X0278400Y0046760D01*
X0278000Y0047720D01*
X0278000Y0048880D01*
X0278440Y0049940D01*
X0279260Y0050760D01*
X0280320Y0051200D01*
X0281480Y0051200D01*
X0282540Y0050760D01*
X0283360Y0049940D01*
X0283800Y0048880D01*
X0283800Y0047720D01*
X0283400Y0046760D01*
X0283400Y0045100D01*
X0283020Y0044190D01*
X0278520Y0039690D01*
X0277810Y0038980D01*
X0276900Y0038600D01*
X0270940Y0038600D01*
X0269980Y0038200D01*
X0268820Y0038200D01*
X0267860Y0038600D01*
X0256440Y0038600D01*
X0255480Y0038200D01*
X0254320Y0038200D01*
X0255790Y0038330D02*
X0268510Y0038330D01*
X0270290Y0038330D02*
X0299000Y0038330D01*
X0299000Y0038920D02*
X0277650Y0038920D01*
X0278330Y0039500D02*
X0299000Y0039500D01*
X0299000Y0040090D02*
X0278920Y0040090D01*
X0279500Y0040670D02*
X0299000Y0040670D01*
X0299000Y0041260D02*
X0280090Y0041260D01*
X0280670Y0041840D02*
X0299000Y0041840D01*
X0299000Y0042430D02*
X0281260Y0042430D01*
X0281840Y0043010D02*
X0299000Y0043010D01*
X0299000Y0043600D02*
X0282430Y0043600D01*
X0283010Y0044180D02*
X0299000Y0044180D01*
X0299000Y0044770D02*
X0283260Y0044770D01*
X0283400Y0045350D02*
X0299000Y0045350D01*
X0299000Y0045940D02*
X0283400Y0045940D01*
X0283400Y0046520D02*
X0299000Y0046520D01*
X0299000Y0047110D02*
X0283540Y0047110D01*
X0283780Y0047690D02*
X0299000Y0047690D01*
X0299000Y0048280D02*
X0283800Y0048280D01*
X0283800Y0048860D02*
X0299000Y0048860D01*
X0299000Y0049450D02*
X0283560Y0049450D01*
X0283270Y0050030D02*
X0299000Y0050030D01*
X0299000Y0050620D02*
X0282680Y0050620D01*
X0279120Y0050620D02*
X0251900Y0050620D01*
X0251900Y0051200D02*
X0299000Y0051200D01*
X0299000Y0051790D02*
X0251900Y0051790D01*
X0251900Y0052370D02*
X0299000Y0052370D01*
X0299000Y0052960D02*
X0251900Y0052960D01*
X0251900Y0053540D02*
X0299000Y0053540D01*
X0299000Y0054130D02*
X0251900Y0054130D01*
X0251900Y0054710D02*
X0299000Y0054710D01*
X0299000Y0055300D02*
X0251900Y0055300D01*
X0251900Y0055880D02*
X0299000Y0055880D01*
X0299000Y0056470D02*
X0251900Y0056470D01*
X0251900Y0057050D02*
X0299000Y0057050D01*
X0299000Y0057640D02*
X0251900Y0057640D01*
X0251900Y0058220D02*
X0299000Y0058220D01*
X0299000Y0058810D02*
X0251900Y0058810D01*
X0251900Y0059390D02*
X0299000Y0059390D01*
X0299000Y0059980D02*
X0251900Y0059980D01*
X0251900Y0060560D02*
X0299000Y0060560D01*
X0299000Y0061150D02*
X0251900Y0061150D01*
X0251900Y0061730D02*
X0299000Y0061730D01*
X0299000Y0062320D02*
X0251900Y0062320D01*
X0251900Y0062900D02*
X0299000Y0062900D01*
X0299000Y0063490D02*
X0251900Y0063490D01*
X0251900Y0064070D02*
X0299000Y0064070D01*
X0299000Y0064660D02*
X0251900Y0064660D01*
X0251900Y0065240D02*
X0299000Y0065240D01*
X0299000Y0065830D02*
X0251900Y0065830D01*
X0251900Y0066410D02*
X0299000Y0066410D01*
X0299000Y0067000D02*
X0251900Y0067000D01*
X0251900Y0067580D02*
X0299000Y0067580D01*
X0299000Y0068170D02*
X0251900Y0068170D01*
X0251900Y0068750D02*
X0299000Y0068750D01*
X0299000Y0069340D02*
X0251900Y0069340D01*
X0251900Y0069920D02*
X0299000Y0069920D01*
X0299000Y0070510D02*
X0251900Y0070510D01*
X0251900Y0071090D02*
X0299000Y0071090D01*
X0299000Y0071680D02*
X0251900Y0071680D01*
X0251900Y0072260D02*
X0299000Y0072260D01*
X0299000Y0072850D02*
X0251900Y0072850D01*
X0251900Y0073430D02*
X0299000Y0073430D01*
X0299000Y0074020D02*
X0251900Y0074020D01*
X0251900Y0074600D02*
X0299000Y0074600D01*
X0299000Y0075190D02*
X0251900Y0075190D01*
X0251900Y0075770D02*
X0299000Y0075770D01*
X0299000Y0076360D02*
X0251900Y0076360D01*
X0251900Y0076940D02*
X0299000Y0076940D01*
X0299000Y0077530D02*
X0251900Y0077530D01*
X0251900Y0078110D02*
X0299000Y0078110D01*
X0299000Y0078700D02*
X0251900Y0078700D01*
X0251900Y0079280D02*
X0299000Y0079280D01*
X0299000Y0079870D02*
X0251900Y0079870D01*
X0251900Y0080450D02*
X0299000Y0080450D01*
X0299000Y0081040D02*
X0251900Y0081040D01*
X0251900Y0081620D02*
X0299000Y0081620D01*
X0299000Y0082210D02*
X0251900Y0082210D01*
X0251900Y0082790D02*
X0299000Y0082790D01*
X0299000Y0083380D02*
X0251970Y0083380D01*
X0252200Y0083960D02*
X0299000Y0083960D01*
X0299000Y0084550D02*
X0252200Y0084550D01*
X0252180Y0085130D02*
X0299000Y0085130D01*
X0299000Y0085720D02*
X0251930Y0085720D01*
X0251600Y0086300D02*
X0299000Y0086300D01*
X0299000Y0086890D02*
X0251010Y0086890D01*
X0247590Y0086890D02*
X0229100Y0086890D01*
X0229100Y0087470D02*
X0299000Y0087470D01*
X0299000Y0088060D02*
X0229100Y0088060D01*
X0229100Y0088640D02*
X0299000Y0088640D01*
X0299000Y0089230D02*
X0229100Y0089230D01*
X0229100Y0089810D02*
X0299000Y0089810D01*
X0299000Y0090400D02*
X0229100Y0090400D01*
X0229100Y0090980D02*
X0299000Y0090980D01*
X0299000Y0091570D02*
X0229100Y0091570D01*
X0229100Y0092150D02*
X0299000Y0092150D01*
X0299000Y0092740D02*
X0229100Y0092740D01*
X0229100Y0093320D02*
X0299000Y0093320D01*
X0299000Y0093910D02*
X0229100Y0093910D01*
X0229100Y0094490D02*
X0299000Y0094490D01*
X0299000Y0095080D02*
X0229100Y0095080D01*
X0229100Y0095660D02*
X0275500Y0095660D01*
X0275500Y0096250D02*
X0229100Y0096250D01*
X0229100Y0096830D02*
X0275500Y0096830D01*
X0275500Y0097420D02*
X0229100Y0097420D01*
X0229100Y0098000D02*
X0275500Y0098000D01*
X0275500Y0098590D02*
X0229100Y0098590D01*
X0229100Y0099170D02*
X0275500Y0099170D01*
X0275500Y0099760D02*
X0229100Y0099760D01*
X0229100Y0100340D02*
X0275500Y0100340D01*
X0275500Y0100930D02*
X0229100Y0100930D01*
X0229100Y0101510D02*
X0275500Y0101510D01*
X0287100Y0101510D02*
X0299000Y0101510D01*
X0299000Y0100930D02*
X0287100Y0100930D01*
X0287100Y0100340D02*
X0299000Y0100340D01*
X0299000Y0099760D02*
X0287100Y0099760D01*
X0287100Y0099170D02*
X0299000Y0099170D01*
X0299000Y0098590D02*
X0287100Y0098590D01*
X0287100Y0098000D02*
X0299000Y0098000D01*
X0299000Y0097420D02*
X0287100Y0097420D01*
X0287100Y0096830D02*
X0299000Y0096830D01*
X0299000Y0096250D02*
X0287100Y0096250D01*
X0287100Y0095660D02*
X0299000Y0095660D01*
X0278530Y0050030D02*
X0251900Y0050030D01*
X0251900Y0049450D02*
X0278240Y0049450D01*
X0278000Y0048860D02*
X0251900Y0048860D01*
X0251900Y0048280D02*
X0278000Y0048280D01*
X0278020Y0047690D02*
X0251900Y0047690D01*
X0252330Y0047110D02*
X0278260Y0047110D01*
X0278290Y0046520D02*
X0252910Y0046520D01*
X0253500Y0045940D02*
X0277700Y0045940D01*
X0277120Y0045350D02*
X0254080Y0045350D01*
X0254670Y0044770D02*
X0276530Y0044770D01*
X0275950Y0044180D02*
X0255250Y0044180D01*
X0252180Y0040090D02*
X0229100Y0040090D01*
X0229100Y0040670D02*
X0251700Y0040670D01*
X0251110Y0041260D02*
X0229100Y0041260D01*
X0229100Y0041840D02*
X0250530Y0041840D01*
X0249940Y0042430D02*
X0229100Y0042430D01*
X0229100Y0043010D02*
X0249360Y0043010D01*
X0248770Y0043600D02*
X0229100Y0043600D01*
X0229100Y0044180D02*
X0248190Y0044180D01*
X0247600Y0044770D02*
X0229100Y0044770D01*
X0229100Y0045350D02*
X0247170Y0045350D01*
X0246930Y0045940D02*
X0229100Y0045940D01*
X0229100Y0046520D02*
X0246900Y0046520D01*
X0246900Y0047110D02*
X0229100Y0047110D01*
X0229100Y0047690D02*
X0246900Y0047690D01*
X0246900Y0048280D02*
X0229100Y0048280D01*
X0229100Y0048860D02*
X0246900Y0048860D01*
X0246900Y0049450D02*
X0229100Y0049450D01*
X0229100Y0050030D02*
X0246900Y0050030D01*
X0246900Y0050620D02*
X0229100Y0050620D01*
X0229100Y0051200D02*
X0246900Y0051200D01*
X0246900Y0051790D02*
X0229100Y0051790D01*
X0229100Y0052370D02*
X0246900Y0052370D01*
X0246900Y0052960D02*
X0229100Y0052960D01*
X0229100Y0053540D02*
X0246900Y0053540D01*
X0246900Y0054130D02*
X0229100Y0054130D01*
X0229100Y0054710D02*
X0246900Y0054710D01*
X0246900Y0055300D02*
X0229100Y0055300D01*
X0229100Y0055880D02*
X0246900Y0055880D01*
X0246900Y0056470D02*
X0229100Y0056470D01*
X0229100Y0057050D02*
X0246900Y0057050D01*
X0246900Y0057640D02*
X0229100Y0057640D01*
X0229100Y0058220D02*
X0246900Y0058220D01*
X0246900Y0058810D02*
X0229100Y0058810D01*
X0229100Y0059390D02*
X0246900Y0059390D01*
X0246900Y0059980D02*
X0229100Y0059980D01*
X0229100Y0060560D02*
X0246900Y0060560D01*
X0246900Y0061150D02*
X0229100Y0061150D01*
X0229100Y0061730D02*
X0246900Y0061730D01*
X0246900Y0062320D02*
X0229100Y0062320D01*
X0229100Y0062900D02*
X0246900Y0062900D01*
X0246900Y0063490D02*
X0229100Y0063490D01*
X0229100Y0064070D02*
X0246900Y0064070D01*
X0246900Y0064660D02*
X0229100Y0064660D01*
X0229100Y0065240D02*
X0246900Y0065240D01*
X0246900Y0065830D02*
X0229100Y0065830D01*
X0229100Y0066410D02*
X0246900Y0066410D01*
X0246900Y0067000D02*
X0229100Y0067000D01*
X0229100Y0067580D02*
X0246900Y0067580D01*
X0246900Y0068170D02*
X0229100Y0068170D01*
X0229100Y0068750D02*
X0246900Y0068750D01*
X0246900Y0069340D02*
X0229100Y0069340D01*
X0229100Y0069920D02*
X0246900Y0069920D01*
X0246900Y0070510D02*
X0229100Y0070510D01*
X0229100Y0071090D02*
X0246900Y0071090D01*
X0246900Y0071680D02*
X0229100Y0071680D01*
X0229100Y0072260D02*
X0246900Y0072260D01*
X0246900Y0072850D02*
X0229100Y0072850D01*
X0229100Y0073430D02*
X0246900Y0073430D01*
X0246900Y0074020D02*
X0229100Y0074020D01*
X0229100Y0074600D02*
X0246900Y0074600D01*
X0246900Y0075190D02*
X0229100Y0075190D01*
X0229100Y0075770D02*
X0246900Y0075770D01*
X0246900Y0076360D02*
X0229100Y0076360D01*
X0229100Y0076940D02*
X0246900Y0076940D01*
X0246900Y0077530D02*
X0229100Y0077530D01*
X0229100Y0078110D02*
X0246900Y0078110D01*
X0246900Y0078700D02*
X0229100Y0078700D01*
X0229100Y0079280D02*
X0246900Y0079280D01*
X0246900Y0079870D02*
X0229100Y0079870D01*
X0229100Y0080450D02*
X0246900Y0080450D01*
X0246900Y0081040D02*
X0229100Y0081040D01*
X0229100Y0081620D02*
X0246900Y0081620D01*
X0246900Y0082210D02*
X0229100Y0082210D01*
X0229100Y0082790D02*
X0246900Y0082790D01*
X0246630Y0083380D02*
X0229100Y0083380D01*
X0229100Y0083960D02*
X0246400Y0083960D01*
X0246400Y0084550D02*
X0229100Y0084550D01*
X0229100Y0085130D02*
X0246420Y0085130D01*
X0246670Y0085720D02*
X0229100Y0085720D01*
X0229100Y0086300D02*
X0247000Y0086300D01*
X0252430Y0039500D02*
X0229100Y0039500D01*
X0229100Y0038920D02*
X0252990Y0038920D01*
D33*
X0254900Y0041100D03*
X0248400Y0045600D03*
X0245800Y0050000D03*
X0246900Y0040200D03*
X0255800Y0052100D03*
X0255800Y0055500D03*
X0255800Y0059000D03*
X0255800Y0062400D03*
X0255800Y0065900D03*
X0259200Y0065900D03*
X0259200Y0062400D03*
X0259200Y0059000D03*
X0259200Y0055500D03*
X0259200Y0052100D03*
X0262600Y0052100D03*
X0262600Y0055500D03*
X0262600Y0059000D03*
X0262600Y0062400D03*
X0262600Y0065900D03*
X0266000Y0065900D03*
X0269400Y0065900D03*
X0269400Y0062400D03*
X0266000Y0062400D03*
X0266000Y0059000D03*
X0269400Y0059000D03*
X0269400Y0055500D03*
X0266000Y0055500D03*
X0266000Y0052100D03*
X0269400Y0052100D03*
X0269400Y0041100D03*
X0274800Y0034000D03*
X0269300Y0028000D03*
X0269300Y0023000D03*
X0261500Y0028000D03*
X0253800Y0014000D03*
X0245800Y0014000D03*
X0248800Y0024800D03*
X0230800Y0023600D03*
X0230800Y0014000D03*
X0230800Y0033600D03*
X0230800Y0043600D03*
X0230800Y0053600D03*
X0230800Y0063600D03*
X0230800Y0073200D03*
X0230800Y0084000D03*
X0230800Y0089500D03*
X0230800Y0094000D03*
X0235300Y0094000D03*
X0239300Y0094000D03*
X0239300Y0089500D03*
X0243800Y0094000D03*
X0248800Y0094000D03*
X0253800Y0094000D03*
X0255800Y0088000D03*
X0258800Y0094000D03*
X0263800Y0094000D03*
X0268800Y0094000D03*
X0283800Y0094000D03*
X0287800Y0094000D03*
X0292300Y0094000D03*
X0296800Y0094000D03*
X0297800Y0088000D03*
X0297800Y0082000D03*
X0297800Y0074000D03*
X0297800Y0064000D03*
X0297800Y0054000D03*
X0297800Y0044000D03*
X0297800Y0034000D03*
X0297800Y0024000D03*
X0297800Y0014000D03*
X0285700Y0014000D03*
X0285800Y0024000D03*
X0285800Y0034000D03*
X0285800Y0042500D03*
X0285300Y0048500D03*
X0280900Y0048300D03*
X0285800Y0066000D03*
X0249300Y0084500D03*
X0245800Y0088000D03*
X0245500Y0080000D03*
X0247500Y0070800D03*
X0245800Y0066000D03*
X0269300Y0014000D03*
D16*
X0250500Y0099000D03*
D11*
X0249300Y0084500D02*
X0249400Y0084400D01*
X0249400Y0046500D01*
X0254800Y0041100D01*
X0254900Y0041100D01*
X0269400Y0041100D01*
X0276400Y0041100D01*
X0280900Y0045600D01*
X0280900Y0048300D01*
X0300400Y0010000D02*
G75*
%LPD*%
D13*
X0301700Y0011300D02*
X0301700Y0101800D01*
X0348100Y0101800D01*
X0348100Y0095380D01*
X0348280Y0095200D01*
X0359520Y0095200D01*
X0359700Y0095380D01*
X0359700Y0101800D01*
X0371600Y0101800D01*
X0371600Y0011300D01*
X0301700Y0011300D01*
X0301700Y0011420D02*
X0371600Y0011420D01*
X0371600Y0012010D02*
X0301700Y0012010D01*
X0301700Y0012590D02*
X0371600Y0012590D01*
X0371600Y0013180D02*
X0301700Y0013180D01*
X0301700Y0013760D02*
X0371600Y0013760D01*
X0371600Y0014350D02*
X0301700Y0014350D01*
X0301700Y0014930D02*
X0371600Y0014930D01*
X0371600Y0015520D02*
X0301700Y0015520D01*
X0301700Y0016100D02*
X0371600Y0016100D01*
X0371600Y0016690D02*
X0301700Y0016690D01*
X0301700Y0017270D02*
X0371600Y0017270D01*
X0371600Y0017860D02*
X0301700Y0017860D01*
X0301700Y0018440D02*
X0371600Y0018440D01*
X0371600Y0019030D02*
X0301700Y0019030D01*
X0301700Y0019610D02*
X0371600Y0019610D01*
X0371600Y0020200D02*
X0301700Y0020200D01*
X0301700Y0020780D02*
X0371600Y0020780D01*
X0371600Y0021370D02*
X0301700Y0021370D01*
X0301700Y0021950D02*
X0371600Y0021950D01*
X0371600Y0022540D02*
X0301700Y0022540D01*
X0301700Y0023120D02*
X0371600Y0023120D01*
X0371600Y0023710D02*
X0301700Y0023710D01*
X0301700Y0024290D02*
X0371600Y0024290D01*
X0371600Y0024880D02*
X0301700Y0024880D01*
X0301700Y0025460D02*
X0371600Y0025460D01*
X0371600Y0026050D02*
X0301700Y0026050D01*
X0301700Y0026630D02*
X0371600Y0026630D01*
X0371600Y0027220D02*
X0301700Y0027220D01*
X0301700Y0027800D02*
X0371600Y0027800D01*
X0371600Y0028390D02*
X0301700Y0028390D01*
X0301700Y0028970D02*
X0371600Y0028970D01*
X0371600Y0029560D02*
X0301700Y0029560D01*
X0301700Y0030140D02*
X0371600Y0030140D01*
X0371600Y0030730D02*
X0301700Y0030730D01*
X0301700Y0031310D02*
X0371600Y0031310D01*
X0371600Y0031900D02*
X0301700Y0031900D01*
X0301700Y0032480D02*
X0371600Y0032480D01*
X0371600Y0033070D02*
X0301700Y0033070D01*
X0301700Y0033650D02*
X0371600Y0033650D01*
X0371600Y0034240D02*
X0301700Y0034240D01*
X0301700Y0034820D02*
X0371600Y0034820D01*
X0371600Y0035410D02*
X0301700Y0035410D01*
X0301700Y0035990D02*
X0371600Y0035990D01*
X0371600Y0036580D02*
X0301700Y0036580D01*
X0301700Y0037160D02*
X0371600Y0037160D01*
X0371600Y0037750D02*
X0301700Y0037750D01*
X0301700Y0038330D02*
X0326610Y0038330D01*
X0326920Y0038200D02*
X0325860Y0038640D01*
X0325040Y0039460D01*
X0324710Y0040250D01*
X0320590Y0044380D01*
X0319880Y0045090D01*
X0319500Y0046000D01*
X0319500Y0082800D01*
X0319440Y0082860D01*
X0319000Y0083920D01*
X0319000Y0085080D01*
X0319440Y0086140D01*
X0320260Y0086960D01*
X0321320Y0087400D01*
X0322480Y0087400D01*
X0323540Y0086960D01*
X0324360Y0086140D01*
X0324800Y0085080D01*
X0324800Y0083920D01*
X0324500Y0083200D01*
X0324500Y0047530D01*
X0328030Y0044000D01*
X0328080Y0044000D01*
X0329040Y0043600D01*
X0340460Y0043600D01*
X0341420Y0044000D01*
X0342580Y0044000D01*
X0343540Y0043600D01*
X0347970Y0043600D01*
X0351000Y0046630D01*
X0351000Y0046760D01*
X0350600Y0047720D01*
X0350600Y0048880D01*
X0351040Y0049940D01*
X0351860Y0050760D01*
X0352920Y0051200D01*
X0354080Y0051200D01*
X0355140Y0050760D01*
X0355960Y0049940D01*
X0356400Y0048880D01*
X0356400Y0047720D01*
X0356000Y0046760D01*
X0356000Y0045100D01*
X0355620Y0044190D01*
X0351120Y0039690D01*
X0350410Y0038980D01*
X0349500Y0038600D01*
X0343540Y0038600D01*
X0342580Y0038200D01*
X0341420Y0038200D01*
X0340460Y0038600D01*
X0329040Y0038600D01*
X0328080Y0038200D01*
X0326920Y0038200D01*
X0328390Y0038330D02*
X0341110Y0038330D01*
X0342890Y0038330D02*
X0371600Y0038330D01*
X0371600Y0038920D02*
X0350250Y0038920D01*
X0350930Y0039500D02*
X0371600Y0039500D01*
X0371600Y0040090D02*
X0351520Y0040090D01*
X0352100Y0040670D02*
X0371600Y0040670D01*
X0371600Y0041260D02*
X0352690Y0041260D01*
X0353270Y0041840D02*
X0371600Y0041840D01*
X0371600Y0042430D02*
X0353860Y0042430D01*
X0354440Y0043010D02*
X0371600Y0043010D01*
X0371600Y0043600D02*
X0355030Y0043600D01*
X0355610Y0044180D02*
X0371600Y0044180D01*
X0371600Y0044770D02*
X0355860Y0044770D01*
X0356000Y0045350D02*
X0371600Y0045350D01*
X0371600Y0045940D02*
X0356000Y0045940D01*
X0356000Y0046520D02*
X0371600Y0046520D01*
X0371600Y0047110D02*
X0356140Y0047110D01*
X0356380Y0047690D02*
X0371600Y0047690D01*
X0371600Y0048280D02*
X0356400Y0048280D01*
X0356400Y0048860D02*
X0371600Y0048860D01*
X0371600Y0049450D02*
X0356160Y0049450D01*
X0355870Y0050030D02*
X0371600Y0050030D01*
X0371600Y0050620D02*
X0355280Y0050620D01*
X0351720Y0050620D02*
X0324500Y0050620D01*
X0324500Y0051200D02*
X0371600Y0051200D01*
X0371600Y0051790D02*
X0324500Y0051790D01*
X0324500Y0052370D02*
X0371600Y0052370D01*
X0371600Y0052960D02*
X0324500Y0052960D01*
X0324500Y0053540D02*
X0371600Y0053540D01*
X0371600Y0054130D02*
X0324500Y0054130D01*
X0324500Y0054710D02*
X0371600Y0054710D01*
X0371600Y0055300D02*
X0324500Y0055300D01*
X0324500Y0055880D02*
X0371600Y0055880D01*
X0371600Y0056470D02*
X0324500Y0056470D01*
X0324500Y0057050D02*
X0371600Y0057050D01*
X0371600Y0057640D02*
X0324500Y0057640D01*
X0324500Y0058220D02*
X0371600Y0058220D01*
X0371600Y0058810D02*
X0324500Y0058810D01*
X0324500Y0059390D02*
X0371600Y0059390D01*
X0371600Y0059980D02*
X0324500Y0059980D01*
X0324500Y0060560D02*
X0371600Y0060560D01*
X0371600Y0061150D02*
X0324500Y0061150D01*
X0324500Y0061730D02*
X0371600Y0061730D01*
X0371600Y0062320D02*
X0324500Y0062320D01*
X0324500Y0062900D02*
X0371600Y0062900D01*
X0371600Y0063490D02*
X0324500Y0063490D01*
X0324500Y0064070D02*
X0371600Y0064070D01*
X0371600Y0064660D02*
X0324500Y0064660D01*
X0324500Y0065240D02*
X0371600Y0065240D01*
X0371600Y0065830D02*
X0324500Y0065830D01*
X0324500Y0066410D02*
X0371600Y0066410D01*
X0371600Y0067000D02*
X0324500Y0067000D01*
X0324500Y0067580D02*
X0371600Y0067580D01*
X0371600Y0068170D02*
X0324500Y0068170D01*
X0324500Y0068750D02*
X0371600Y0068750D01*
X0371600Y0069340D02*
X0324500Y0069340D01*
X0324500Y0069920D02*
X0371600Y0069920D01*
X0371600Y0070510D02*
X0324500Y0070510D01*
X0324500Y0071090D02*
X0371600Y0071090D01*
X0371600Y0071680D02*
X0324500Y0071680D01*
X0324500Y0072260D02*
X0371600Y0072260D01*
X0371600Y0072850D02*
X0324500Y0072850D01*
X0324500Y0073430D02*
X0371600Y0073430D01*
X0371600Y0074020D02*
X0324500Y0074020D01*
X0324500Y0074600D02*
X0371600Y0074600D01*
X0371600Y0075190D02*
X0324500Y0075190D01*
X0324500Y0075770D02*
X0371600Y0075770D01*
X0371600Y0076360D02*
X0324500Y0076360D01*
X0324500Y0076940D02*
X0371600Y0076940D01*
X0371600Y0077530D02*
X0324500Y0077530D01*
X0324500Y0078110D02*
X0371600Y0078110D01*
X0371600Y0078700D02*
X0324500Y0078700D01*
X0324500Y0079280D02*
X0371600Y0079280D01*
X0371600Y0079870D02*
X0324500Y0079870D01*
X0324500Y0080450D02*
X0371600Y0080450D01*
X0371600Y0081040D02*
X0324500Y0081040D01*
X0324500Y0081620D02*
X0371600Y0081620D01*
X0371600Y0082210D02*
X0324500Y0082210D01*
X0324500Y0082790D02*
X0371600Y0082790D01*
X0371600Y0083380D02*
X0324570Y0083380D01*
X0324800Y0083960D02*
X0371600Y0083960D01*
X0371600Y0084550D02*
X0324800Y0084550D01*
X0324780Y0085130D02*
X0371600Y0085130D01*
X0371600Y0085720D02*
X0324530Y0085720D01*
X0324200Y0086300D02*
X0371600Y0086300D01*
X0371600Y0086890D02*
X0323610Y0086890D01*
X0320190Y0086890D02*
X0301700Y0086890D01*
X0301700Y0087470D02*
X0371600Y0087470D01*
X0371600Y0088060D02*
X0301700Y0088060D01*
X0301700Y0088640D02*
X0371600Y0088640D01*
X0371600Y0089230D02*
X0301700Y0089230D01*
X0301700Y0089810D02*
X0371600Y0089810D01*
X0371600Y0090400D02*
X0301700Y0090400D01*
X0301700Y0090980D02*
X0371600Y0090980D01*
X0371600Y0091570D02*
X0301700Y0091570D01*
X0301700Y0092150D02*
X0371600Y0092150D01*
X0371600Y0092740D02*
X0301700Y0092740D01*
X0301700Y0093320D02*
X0371600Y0093320D01*
X0371600Y0093910D02*
X0301700Y0093910D01*
X0301700Y0094490D02*
X0371600Y0094490D01*
X0371600Y0095080D02*
X0301700Y0095080D01*
X0301700Y0095660D02*
X0348100Y0095660D01*
X0348100Y0096250D02*
X0301700Y0096250D01*
X0301700Y0096830D02*
X0348100Y0096830D01*
X0348100Y0097420D02*
X0301700Y0097420D01*
X0301700Y0098000D02*
X0348100Y0098000D01*
X0348100Y0098590D02*
X0301700Y0098590D01*
X0301700Y0099170D02*
X0348100Y0099170D01*
X0348100Y0099760D02*
X0301700Y0099760D01*
X0301700Y0100340D02*
X0348100Y0100340D01*
X0348100Y0100930D02*
X0301700Y0100930D01*
X0301700Y0101510D02*
X0348100Y0101510D01*
X0359700Y0101510D02*
X0371600Y0101510D01*
X0371600Y0100930D02*
X0359700Y0100930D01*
X0359700Y0100340D02*
X0371600Y0100340D01*
X0371600Y0099760D02*
X0359700Y0099760D01*
X0359700Y0099170D02*
X0371600Y0099170D01*
X0371600Y0098590D02*
X0359700Y0098590D01*
X0359700Y0098000D02*
X0371600Y0098000D01*
X0371600Y0097420D02*
X0359700Y0097420D01*
X0359700Y0096830D02*
X0371600Y0096830D01*
X0371600Y0096250D02*
X0359700Y0096250D01*
X0359700Y0095660D02*
X0371600Y0095660D01*
X0351130Y0050030D02*
X0324500Y0050030D01*
X0324500Y0049450D02*
X0350840Y0049450D01*
X0350600Y0048860D02*
X0324500Y0048860D01*
X0324500Y0048280D02*
X0350600Y0048280D01*
X0350620Y0047690D02*
X0324500Y0047690D01*
X0324930Y0047110D02*
X0350860Y0047110D01*
X0350890Y0046520D02*
X0325510Y0046520D01*
X0326100Y0045940D02*
X0350300Y0045940D01*
X0349720Y0045350D02*
X0326680Y0045350D01*
X0327270Y0044770D02*
X0349130Y0044770D01*
X0348550Y0044180D02*
X0327850Y0044180D01*
X0324780Y0040090D02*
X0301700Y0040090D01*
X0301700Y0040670D02*
X0324300Y0040670D01*
X0323710Y0041260D02*
X0301700Y0041260D01*
X0301700Y0041840D02*
X0323130Y0041840D01*
X0322540Y0042430D02*
X0301700Y0042430D01*
X0301700Y0043010D02*
X0321960Y0043010D01*
X0321370Y0043600D02*
X0301700Y0043600D01*
X0301700Y0044180D02*
X0320790Y0044180D01*
X0320200Y0044770D02*
X0301700Y0044770D01*
X0301700Y0045350D02*
X0319770Y0045350D01*
X0319530Y0045940D02*
X0301700Y0045940D01*
X0301700Y0046520D02*
X0319500Y0046520D01*
X0319500Y0047110D02*
X0301700Y0047110D01*
X0301700Y0047690D02*
X0319500Y0047690D01*
X0319500Y0048280D02*
X0301700Y0048280D01*
X0301700Y0048860D02*
X0319500Y0048860D01*
X0319500Y0049450D02*
X0301700Y0049450D01*
X0301700Y0050030D02*
X0319500Y0050030D01*
X0319500Y0050620D02*
X0301700Y0050620D01*
X0301700Y0051200D02*
X0319500Y0051200D01*
X0319500Y0051790D02*
X0301700Y0051790D01*
X0301700Y0052370D02*
X0319500Y0052370D01*
X0319500Y0052960D02*
X0301700Y0052960D01*
X0301700Y0053540D02*
X0319500Y0053540D01*
X0319500Y0054130D02*
X0301700Y0054130D01*
X0301700Y0054710D02*
X0319500Y0054710D01*
X0319500Y0055300D02*
X0301700Y0055300D01*
X0301700Y0055880D02*
X0319500Y0055880D01*
X0319500Y0056470D02*
X0301700Y0056470D01*
X0301700Y0057050D02*
X0319500Y0057050D01*
X0319500Y0057640D02*
X0301700Y0057640D01*
X0301700Y0058220D02*
X0319500Y0058220D01*
X0319500Y0058810D02*
X0301700Y0058810D01*
X0301700Y0059390D02*
X0319500Y0059390D01*
X0319500Y0059980D02*
X0301700Y0059980D01*
X0301700Y0060560D02*
X0319500Y0060560D01*
X0319500Y0061150D02*
X0301700Y0061150D01*
X0301700Y0061730D02*
X0319500Y0061730D01*
X0319500Y0062320D02*
X0301700Y0062320D01*
X0301700Y0062900D02*
X0319500Y0062900D01*
X0319500Y0063490D02*
X0301700Y0063490D01*
X0301700Y0064070D02*
X0319500Y0064070D01*
X0319500Y0064660D02*
X0301700Y0064660D01*
X0301700Y0065240D02*
X0319500Y0065240D01*
X0319500Y0065830D02*
X0301700Y0065830D01*
X0301700Y0066410D02*
X0319500Y0066410D01*
X0319500Y0067000D02*
X0301700Y0067000D01*
X0301700Y0067580D02*
X0319500Y0067580D01*
X0319500Y0068170D02*
X0301700Y0068170D01*
X0301700Y0068750D02*
X0319500Y0068750D01*
X0319500Y0069340D02*
X0301700Y0069340D01*
X0301700Y0069920D02*
X0319500Y0069920D01*
X0319500Y0070510D02*
X0301700Y0070510D01*
X0301700Y0071090D02*
X0319500Y0071090D01*
X0319500Y0071680D02*
X0301700Y0071680D01*
X0301700Y0072260D02*
X0319500Y0072260D01*
X0319500Y0072850D02*
X0301700Y0072850D01*
X0301700Y0073430D02*
X0319500Y0073430D01*
X0319500Y0074020D02*
X0301700Y0074020D01*
X0301700Y0074600D02*
X0319500Y0074600D01*
X0319500Y0075190D02*
X0301700Y0075190D01*
X0301700Y0075770D02*
X0319500Y0075770D01*
X0319500Y0076360D02*
X0301700Y0076360D01*
X0301700Y0076940D02*
X0319500Y0076940D01*
X0319500Y0077530D02*
X0301700Y0077530D01*
X0301700Y0078110D02*
X0319500Y0078110D01*
X0319500Y0078700D02*
X0301700Y0078700D01*
X0301700Y0079280D02*
X0319500Y0079280D01*
X0319500Y0079870D02*
X0301700Y0079870D01*
X0301700Y0080450D02*
X0319500Y0080450D01*
X0319500Y0081040D02*
X0301700Y0081040D01*
X0301700Y0081620D02*
X0319500Y0081620D01*
X0319500Y0082210D02*
X0301700Y0082210D01*
X0301700Y0082790D02*
X0319500Y0082790D01*
X0319230Y0083380D02*
X0301700Y0083380D01*
X0301700Y0083960D02*
X0319000Y0083960D01*
X0319000Y0084550D02*
X0301700Y0084550D01*
X0301700Y0085130D02*
X0319020Y0085130D01*
X0319270Y0085720D02*
X0301700Y0085720D01*
X0301700Y0086300D02*
X0319600Y0086300D01*
X0325030Y0039500D02*
X0301700Y0039500D01*
X0301700Y0038920D02*
X0325590Y0038920D01*
D33*
X0327500Y0041100D03*
X0321000Y0045600D03*
X0318400Y0050000D03*
X0319500Y0040200D03*
X0328400Y0052100D03*
X0328400Y0055500D03*
X0328400Y0059000D03*
X0328400Y0062400D03*
X0328400Y0065900D03*
X0331800Y0065900D03*
X0331800Y0062400D03*
X0331800Y0059000D03*
X0331800Y0055500D03*
X0331800Y0052100D03*
X0335200Y0052100D03*
X0335200Y0055500D03*
X0335200Y0059000D03*
X0335200Y0062400D03*
X0335200Y0065900D03*
X0338600Y0065900D03*
X0342000Y0065900D03*
X0342000Y0062400D03*
X0338600Y0062400D03*
X0338600Y0059000D03*
X0342000Y0059000D03*
X0342000Y0055500D03*
X0338600Y0055500D03*
X0338600Y0052100D03*
X0342000Y0052100D03*
X0342000Y0041100D03*
X0347400Y0034000D03*
X0341900Y0028000D03*
X0341900Y0023000D03*
X0334100Y0028000D03*
X0326400Y0014000D03*
X0318400Y0014000D03*
X0321400Y0024800D03*
X0303400Y0023600D03*
X0303400Y0014000D03*
X0303400Y0033600D03*
X0303400Y0043600D03*
X0303400Y0053600D03*
X0303400Y0063600D03*
X0303400Y0073200D03*
X0303400Y0084000D03*
X0303400Y0089500D03*
X0303400Y0094000D03*
X0307900Y0094000D03*
X0311900Y0094000D03*
X0311900Y0089500D03*
X0316400Y0094000D03*
X0321400Y0094000D03*
X0326400Y0094000D03*
X0328400Y0088000D03*
X0331400Y0094000D03*
X0336400Y0094000D03*
X0341400Y0094000D03*
X0356400Y0094000D03*
X0360400Y0094000D03*
X0364900Y0094000D03*
X0369400Y0094000D03*
X0370400Y0088000D03*
X0370400Y0082000D03*
X0370400Y0074000D03*
X0370400Y0064000D03*
X0370400Y0054000D03*
X0370400Y0044000D03*
X0370400Y0034000D03*
X0370400Y0024000D03*
X0370400Y0014000D03*
X0358300Y0014000D03*
X0358400Y0024000D03*
X0358400Y0034000D03*
X0358400Y0042500D03*
X0357900Y0048500D03*
X0353500Y0048300D03*
X0358400Y0066000D03*
X0321900Y0084500D03*
X0318400Y0088000D03*
X0318100Y0080000D03*
X0320100Y0070800D03*
X0318400Y0066000D03*
X0341900Y0014000D03*
D16*
X0323100Y0099000D03*
D11*
X0321900Y0084500D02*
X0322000Y0084400D01*
X0322000Y0046500D01*
X0327400Y0041100D01*
X0327500Y0041100D01*
X0342000Y0041100D01*
X0349000Y0041100D01*
X0353500Y0045600D01*
X0353500Y0048300D01*
M02*
