%
T01C0.015000
X3270Y9900
X10530Y9900
X17790Y9900
X25050Y9900
X32310Y9900
T02C0.012000
X1300Y1400
X1300Y2360
X1300Y3360
X1300Y4360
X1300Y5360
X1300Y6360
X1300Y7320
X1300Y8400
X1300Y8950
X1300Y9400
X1750Y9400
X2150Y9400
X2150Y8950
X2600Y9400
X3100Y9400
X3600Y9400
X3800Y8800
X4100Y9400
X4600Y9400
X5100Y9400
X6600Y9400
X7000Y9400
X7450Y9400
X7900Y9400
X8000Y8800
X8000Y8200
X8000Y7400
X8000Y6400
X8000Y5400
X8000Y4400
X8000Y3400
X8000Y2400
X8000Y1400
X6790Y1400
X6800Y2400
X6800Y3400
X6800Y4250
X6750Y4850
X6310Y4830
X5160Y5210
X4820Y5210
X4820Y5550
X5160Y5550
X5160Y5900
X4820Y5900
X4820Y6240
X5160Y6240
X5160Y6590
X4820Y6590
X4480Y6590
X4480Y6240
X4480Y5900
X4480Y5550
X4480Y5210
X4140Y5210
X4140Y5550
X4140Y5900
X4140Y6240
X4140Y6590
X3800Y6590
X3800Y6240
X3800Y5900
X3800Y5550
X3800Y5210
X3060Y4560
X2800Y5000
X2910Y4020
X3710Y4110
X4370Y2800
X5150Y2800
X5150Y2300
X5150Y1400
X3600Y1400
X2800Y1400
X3100Y2480
X5160Y4110
X5700Y3400
X6800Y6600
X3150Y8450
X2800Y8800
X2770Y8000
X2970Y7080
X2800Y6600
X8560Y1400
X8560Y2360
X8560Y3360
X8560Y4360
X8560Y5360
X8560Y6360
X8560Y7320
X8560Y8400
X8560Y8950
X8560Y9400
X9010Y9400
X9410Y9400
X9410Y8950
X9860Y9400
X10360Y9400
X10860Y9400
X11060Y8800
X11360Y9400
X11860Y9400
X12360Y9400
X13860Y9400
X14260Y9400
X14710Y9400
X15160Y9400
X15260Y8800
X15260Y8200
X15260Y7400
X15260Y6400
X15260Y5400
X15260Y4400
X15260Y3400
X15260Y2400
X15260Y1400
X14050Y1400
X14060Y2400
X14060Y3400
X14060Y4250
X14010Y4850
X13570Y4830
X12420Y5210
X12080Y5210
X12080Y5550
X12420Y5550
X12420Y5900
X12080Y5900
X12080Y6240
X12420Y6240
X12420Y6590
X12080Y6590
X11740Y6590
X11740Y6240
X11740Y5900
X11740Y5550
X11740Y5210
X11400Y5210
X11400Y5550
X11400Y5900
X11400Y6240
X11400Y6590
X11060Y6590
X11060Y6240
X11060Y5900
X11060Y5550
X11060Y5210
X10320Y4560
X10060Y5000
X10170Y4020
X10970Y4110
X11630Y2800
X12410Y2800
X12410Y2300
X12410Y1400
X10860Y1400
X10060Y1400
X10360Y2480
X12420Y4110
X12960Y3400
X14060Y6600
X10410Y8450
X10060Y8800
X10030Y8000
X10230Y7080
X10060Y6600
X15820Y1400
X15820Y2360
X15820Y3360
X15820Y4360
X15820Y5360
X15820Y6360
X15820Y7320
X15820Y8400
X15820Y8950
X15820Y9400
X16270Y9400
X16670Y9400
X16670Y8950
X17120Y9400
X17620Y9400
X18120Y9400
X18320Y8800
X18620Y9400
X19120Y9400
X19620Y9400
X21120Y9400
X21520Y9400
X21970Y9400
X22420Y9400
X22520Y8800
X22520Y8200
X22520Y7400
X22520Y6400
X22520Y5400
X22520Y4400
X22520Y3400
X22520Y2400
X22520Y1400
X21310Y1400
X21320Y2400
X21320Y3400
X21320Y4250
X21270Y4850
X20830Y4830
X19680Y5210
X19340Y5210
X19340Y5550
X19680Y5550
X19680Y5900
X19340Y5900
X19340Y6240
X19680Y6240
X19680Y6590
X19340Y6590
X19000Y6590
X19000Y6240
X19000Y5900
X19000Y5550
X19000Y5210
X18660Y5210
X18660Y5550
X18660Y5900
X18660Y6240
X18660Y6590
X18320Y6590
X18320Y6240
X18320Y5900
X18320Y5550
X18320Y5210
X17580Y4560
X17320Y5000
X17430Y4020
X18230Y4110
X18890Y2800
X19670Y2800
X19670Y2300
X19670Y1400
X18120Y1400
X17320Y1400
X17620Y2480
X19680Y4110
X20220Y3400
X21320Y6600
X17670Y8450
X17320Y8800
X17290Y8000
X17490Y7080
X17320Y6600
X23080Y1400
X23080Y2360
X23080Y3360
X23080Y4360
X23080Y5360
X23080Y6360
X23080Y7320
X23080Y8400
X23080Y8950
X23080Y9400
X23530Y9400
X23930Y9400
X23930Y8950
X24380Y9400
X24880Y9400
X25380Y9400
X25580Y8800
X25880Y9400
X26380Y9400
X26880Y9400
X28380Y9400
X28780Y9400
X29230Y9400
X29680Y9400
X29780Y8800
X29780Y8200
X29780Y7400
X29780Y6400
X29780Y5400
X29780Y4400
X29780Y3400
X29780Y2400
X29780Y1400
X28570Y1400
X28580Y2400
X28580Y3400
X28580Y4250
X28530Y4850
X28090Y4830
X26940Y5210
X26600Y5210
X26600Y5550
X26940Y5550
X26940Y5900
X26600Y5900
X26600Y6240
X26940Y6240
X26940Y6590
X26600Y6590
X26260Y6590
X26260Y6240
X26260Y5900
X26260Y5550
X26260Y5210
X25920Y5210
X25920Y5550
X25920Y5900
X25920Y6240
X25920Y6590
X25580Y6590
X25580Y6240
X25580Y5900
X25580Y5550
X25580Y5210
X24840Y4560
X24580Y5000
X24690Y4020
X25490Y4110
X26150Y2800
X26930Y2800
X26930Y2300
X26930Y1400
X25380Y1400
X24580Y1400
X24880Y2480
X26940Y4110
X27480Y3400
X28580Y6600
X24930Y8450
X24580Y8800
X24550Y8000
X24750Y7080
X24580Y6600
X30340Y1400
X30340Y2360
X30340Y3360
X30340Y4360
X30340Y5360
X30340Y6360
X30340Y7320
X30340Y8400
X30340Y8950
X30340Y9400
X30790Y9400
X31190Y9400
X31190Y8950
X31640Y9400
X32140Y9400
X32640Y9400
X32840Y8800
X33140Y9400
X33640Y9400
X34140Y9400
X35640Y9400
X36040Y9400
X36490Y9400
X36940Y9400
X37040Y8800
X37040Y8200
X37040Y7400
X37040Y6400
X37040Y5400
X37040Y4400
X37040Y3400
X37040Y2400
X37040Y1400
X35830Y1400
X35840Y2400
X35840Y3400
X35840Y4250
X35790Y4850
X35350Y4830
X34200Y5210
X33860Y5210
X33860Y5550
X34200Y5550
X34200Y5900
X33860Y5900
X33860Y6240
X34200Y6240
X34200Y6590
X33860Y6590
X33520Y6590
X33520Y6240
X33520Y5900
X33520Y5550
X33520Y5210
X33180Y5210
X33180Y5550
X33180Y5900
X33180Y6240
X33180Y6590
X32840Y6590
X32840Y6240
X32840Y5900
X32840Y5550
X32840Y5210
X32100Y4560
X31840Y5000
X31950Y4020
X32750Y4110
X33410Y2800
X34190Y2800
X34190Y2300
X34190Y1400
X32640Y1400
X31840Y1400
X32140Y2480
X34200Y4110
X34740Y3400
X35840Y6600
X32190Y8450
X31840Y8800
X31810Y8000
X32010Y7080
X31840Y6600
M30
