G75*
G70*
%OFA0B0*%
%FSLAX25Y25*%
%IPPOS*%
%LPD*%
%AMOC8*
5,1,8,0,0,1.08239X$1,22.5*
%
%ADD12C,0.01600*%
%ADD15C,0.00600*%
%ADD18C,0.02100*%
%ADD32C,0.02400*%
X0010000Y0010000D02*
G75*
%LPD*%
D15*
X0011300Y0011300D02*
X0011300Y0101800D01*
X0057700Y0101800D01*
X0057700Y0095380D01*
X0057880Y0095200D01*
X0069120Y0095200D01*
X0069300Y0095380D01*
X0069300Y0101800D01*
X0081200Y0101800D01*
X0081200Y0011300D01*
X0011300Y0011300D01*
X0011300Y0011420D02*
X0081200Y0011420D01*
X0081200Y0012010D02*
X0011300Y0012010D01*
X0011300Y0012590D02*
X0081200Y0012590D01*
X0081200Y0013180D02*
X0011300Y0013180D01*
X0011300Y0013760D02*
X0081200Y0013760D01*
X0081200Y0014350D02*
X0011300Y0014350D01*
X0011300Y0014930D02*
X0081200Y0014930D01*
X0081200Y0015520D02*
X0011300Y0015520D01*
X0011300Y0016100D02*
X0081200Y0016100D01*
X0081200Y0016690D02*
X0011300Y0016690D01*
X0011300Y0017270D02*
X0081200Y0017270D01*
X0081200Y0017860D02*
X0011300Y0017860D01*
X0011300Y0018440D02*
X0081200Y0018440D01*
X0081200Y0019030D02*
X0011300Y0019030D01*
X0011300Y0019610D02*
X0081200Y0019610D01*
X0081200Y0020200D02*
X0011300Y0020200D01*
X0011300Y0020780D02*
X0081200Y0020780D01*
X0081200Y0021370D02*
X0011300Y0021370D01*
X0011300Y0021950D02*
X0081200Y0021950D01*
X0081200Y0022540D02*
X0011300Y0022540D01*
X0011300Y0023120D02*
X0081200Y0023120D01*
X0081200Y0023710D02*
X0011300Y0023710D01*
X0011300Y0024290D02*
X0081200Y0024290D01*
X0081200Y0024880D02*
X0011300Y0024880D01*
X0011300Y0025460D02*
X0081200Y0025460D01*
X0081200Y0026050D02*
X0011300Y0026050D01*
X0011300Y0026630D02*
X0081200Y0026630D01*
X0081200Y0027220D02*
X0011300Y0027220D01*
X0011300Y0027800D02*
X0081200Y0027800D01*
X0081200Y0028390D02*
X0011300Y0028390D01*
X0011300Y0028970D02*
X0081200Y0028970D01*
X0081200Y0029560D02*
X0011300Y0029560D01*
X0011300Y0030140D02*
X0081200Y0030140D01*
X0081200Y0030730D02*
X0011300Y0030730D01*
X0011300Y0031310D02*
X0081200Y0031310D01*
X0081200Y0031900D02*
X0011300Y0031900D01*
X0011300Y0032480D02*
X0081200Y0032480D01*
X0081200Y0033070D02*
X0011300Y0033070D01*
X0011300Y0033650D02*
X0081200Y0033650D01*
X0081200Y0034240D02*
X0011300Y0034240D01*
X0011300Y0034820D02*
X0081200Y0034820D01*
X0081200Y0035410D02*
X0011300Y0035410D01*
X0011300Y0035990D02*
X0081200Y0035990D01*
X0081200Y0036580D02*
X0011300Y0036580D01*
X0011300Y0037160D02*
X0081200Y0037160D01*
X0081200Y0037750D02*
X0011300Y0037750D01*
X0011300Y0038330D02*
X0081200Y0038330D01*
X0081200Y0038920D02*
X0011300Y0038920D01*
X0011300Y0039500D02*
X0035730Y0039500D01*
X0036230Y0039000D02*
X0037970Y0039000D01*
X0038370Y0039400D01*
X0050330Y0039400D01*
X0050730Y0039000D01*
X0052470Y0039000D01*
X0052870Y0039400D01*
X0059300Y0039400D01*
X0060300Y0040400D01*
X0064800Y0044900D01*
X0064800Y0047030D01*
X0065200Y0047430D01*
X0065200Y0049170D01*
X0063970Y0050400D01*
X0062230Y0050400D01*
X0061000Y0049170D01*
X0061000Y0047430D01*
X0061400Y0047030D01*
X0061400Y0046300D01*
X0057900Y0042800D01*
X0052870Y0042800D01*
X0052470Y0043200D01*
X0050730Y0043200D01*
X0050330Y0042800D01*
X0038370Y0042800D01*
X0037970Y0043200D01*
X0037300Y0043200D01*
X0035800Y0044700D01*
X0035800Y0069880D01*
X0036160Y0083200D01*
X0036600Y0083630D01*
X0036600Y0085370D01*
X0035370Y0086600D01*
X0033630Y0086600D01*
X0032400Y0085370D01*
X0032400Y0083630D01*
X0032770Y0083260D01*
X0032420Y0070620D01*
X0032400Y0070600D01*
X0032400Y0069920D01*
X0011300Y0069920D01*
X0011300Y0069340D02*
X0032380Y0069340D01*
X0032380Y0069240D02*
X0032400Y0069220D01*
X0032400Y0043300D01*
X0035000Y0040700D01*
X0035000Y0040230D01*
X0036230Y0039000D01*
X0035140Y0040090D02*
X0011300Y0040090D01*
X0011300Y0040670D02*
X0035000Y0040670D01*
X0034440Y0041260D02*
X0011300Y0041260D01*
X0011300Y0041840D02*
X0033860Y0041840D01*
X0033270Y0042430D02*
X0011300Y0042430D01*
X0011300Y0043010D02*
X0032690Y0043010D01*
X0032400Y0043600D02*
X0011300Y0043600D01*
X0011300Y0044180D02*
X0032400Y0044180D01*
X0032400Y0044770D02*
X0011300Y0044770D01*
X0011300Y0045350D02*
X0032400Y0045350D01*
X0032400Y0045940D02*
X0011300Y0045940D01*
X0011300Y0046520D02*
X0032400Y0046520D01*
X0032400Y0047110D02*
X0011300Y0047110D01*
X0011300Y0047690D02*
X0032400Y0047690D01*
X0032400Y0048280D02*
X0011300Y0048280D01*
X0011300Y0048860D02*
X0032400Y0048860D01*
X0032400Y0049450D02*
X0011300Y0049450D01*
X0011300Y0050030D02*
X0032400Y0050030D01*
X0032400Y0050620D02*
X0011300Y0050620D01*
X0011300Y0051200D02*
X0032400Y0051200D01*
X0032400Y0051790D02*
X0011300Y0051790D01*
X0011300Y0052370D02*
X0032400Y0052370D01*
X0032400Y0052960D02*
X0011300Y0052960D01*
X0011300Y0053540D02*
X0032400Y0053540D01*
X0032400Y0054130D02*
X0011300Y0054130D01*
X0011300Y0054710D02*
X0032400Y0054710D01*
X0032400Y0055300D02*
X0011300Y0055300D01*
X0011300Y0055880D02*
X0032400Y0055880D01*
X0032400Y0056470D02*
X0011300Y0056470D01*
X0011300Y0057050D02*
X0032400Y0057050D01*
X0032400Y0057640D02*
X0011300Y0057640D01*
X0011300Y0058220D02*
X0032400Y0058220D01*
X0032400Y0058810D02*
X0011300Y0058810D01*
X0011300Y0059390D02*
X0032400Y0059390D01*
X0032400Y0059980D02*
X0011300Y0059980D01*
X0011300Y0060560D02*
X0032400Y0060560D01*
X0032400Y0061150D02*
X0011300Y0061150D01*
X0011300Y0061730D02*
X0032400Y0061730D01*
X0032400Y0062320D02*
X0011300Y0062320D01*
X0011300Y0062900D02*
X0032400Y0062900D01*
X0032400Y0063490D02*
X0011300Y0063490D01*
X0011300Y0064070D02*
X0032400Y0064070D01*
X0032400Y0064660D02*
X0011300Y0064660D01*
X0011300Y0065240D02*
X0032400Y0065240D01*
X0032400Y0065830D02*
X0011300Y0065830D01*
X0011300Y0066410D02*
X0032400Y0066410D01*
X0032400Y0067000D02*
X0011300Y0067000D01*
X0011300Y0067580D02*
X0032400Y0067580D01*
X0032400Y0068170D02*
X0011300Y0068170D01*
X0011300Y0068750D02*
X0032400Y0068750D01*
X0032380Y0069240D02*
X0032400Y0069920D01*
X0032400Y0070510D02*
X0011300Y0070510D01*
X0011300Y0071090D02*
X0032430Y0071090D01*
X0032450Y0071680D02*
X0011300Y0071680D01*
X0011300Y0072260D02*
X0032460Y0072260D01*
X0032480Y0072850D02*
X0011300Y0072850D01*
X0011300Y0073430D02*
X0032500Y0073430D01*
X0032510Y0074020D02*
X0011300Y0074020D01*
X0011300Y0074600D02*
X0032530Y0074600D01*
X0032540Y0075190D02*
X0011300Y0075190D01*
X0011300Y0075770D02*
X0032560Y0075770D01*
X0032580Y0076360D02*
X0011300Y0076360D01*
X0011300Y0076940D02*
X0032590Y0076940D01*
X0032610Y0077530D02*
X0011300Y0077530D01*
X0011300Y0078110D02*
X0032620Y0078110D01*
X0032640Y0078700D02*
X0011300Y0078700D01*
X0011300Y0079280D02*
X0032660Y0079280D01*
X0032670Y0079870D02*
X0011300Y0079870D01*
X0011300Y0080450D02*
X0032690Y0080450D01*
X0032700Y0081040D02*
X0011300Y0081040D01*
X0011300Y0081620D02*
X0032720Y0081620D01*
X0032740Y0082210D02*
X0011300Y0082210D01*
X0011300Y0082790D02*
X0032750Y0082790D01*
X0032650Y0083380D02*
X0011300Y0083380D01*
X0011300Y0083960D02*
X0032400Y0083960D01*
X0032400Y0084550D02*
X0011300Y0084550D01*
X0011300Y0085130D02*
X0032400Y0085130D01*
X0032750Y0085720D02*
X0011300Y0085720D01*
X0011300Y0086300D02*
X0033330Y0086300D01*
X0035670Y0086300D02*
X0081200Y0086300D01*
X0081200Y0085720D02*
X0036250Y0085720D01*
X0036600Y0085130D02*
X0081200Y0085130D01*
X0081200Y0084550D02*
X0036600Y0084550D01*
X0036600Y0083960D02*
X0081200Y0083960D01*
X0081200Y0083380D02*
X0036350Y0083380D01*
X0036150Y0082790D02*
X0081200Y0082790D01*
X0081200Y0082210D02*
X0036140Y0082210D01*
X0036120Y0081620D02*
X0081200Y0081620D01*
X0081200Y0081040D02*
X0036110Y0081040D01*
X0036090Y0080450D02*
X0081200Y0080450D01*
X0081200Y0079870D02*
X0036070Y0079870D01*
X0036060Y0079280D02*
X0081200Y0079280D01*
X0081200Y0078700D02*
X0036040Y0078700D01*
X0036030Y0078110D02*
X0081200Y0078110D01*
X0081200Y0077530D02*
X0036010Y0077530D01*
X0035990Y0076940D02*
X0081200Y0076940D01*
X0081200Y0076360D02*
X0035980Y0076360D01*
X0035960Y0075770D02*
X0081200Y0075770D01*
X0081200Y0075190D02*
X0035950Y0075190D01*
X0035930Y0074600D02*
X0081200Y0074600D01*
X0081200Y0074020D02*
X0035910Y0074020D01*
X0035900Y0073430D02*
X0081200Y0073430D01*
X0081200Y0072850D02*
X0035880Y0072850D01*
X0035870Y0072260D02*
X0081200Y0072260D01*
X0081200Y0071680D02*
X0035850Y0071680D01*
X0035830Y0071090D02*
X0081200Y0071090D01*
X0081200Y0070510D02*
X0035820Y0070510D01*
X0035800Y0069920D02*
X0081200Y0069920D01*
X0081200Y0069340D02*
X0035800Y0069340D01*
X0035800Y0068750D02*
X0081200Y0068750D01*
X0081200Y0068170D02*
X0035800Y0068170D01*
X0035800Y0067580D02*
X0081200Y0067580D01*
X0081200Y0067000D02*
X0035800Y0067000D01*
X0035800Y0066410D02*
X0081200Y0066410D01*
X0081200Y0065830D02*
X0035800Y0065830D01*
X0035800Y0065240D02*
X0081200Y0065240D01*
X0081200Y0064660D02*
X0035800Y0064660D01*
X0035800Y0064070D02*
X0081200Y0064070D01*
X0081200Y0063490D02*
X0035800Y0063490D01*
X0035800Y0062900D02*
X0081200Y0062900D01*
X0081200Y0062320D02*
X0035800Y0062320D01*
X0035800Y0061730D02*
X0081200Y0061730D01*
X0081200Y0061150D02*
X0035800Y0061150D01*
X0035800Y0060560D02*
X0081200Y0060560D01*
X0081200Y0059980D02*
X0035800Y0059980D01*
X0035800Y0059390D02*
X0081200Y0059390D01*
X0081200Y0058810D02*
X0035800Y0058810D01*
X0035800Y0058220D02*
X0081200Y0058220D01*
X0081200Y0057640D02*
X0035800Y0057640D01*
X0035800Y0057050D02*
X0081200Y0057050D01*
X0081200Y0056470D02*
X0035800Y0056470D01*
X0035800Y0055880D02*
X0081200Y0055880D01*
X0081200Y0055300D02*
X0035800Y0055300D01*
X0035800Y0054710D02*
X0081200Y0054710D01*
X0081200Y0054130D02*
X0035800Y0054130D01*
X0035800Y0053540D02*
X0081200Y0053540D01*
X0081200Y0052960D02*
X0035800Y0052960D01*
X0035800Y0052370D02*
X0081200Y0052370D01*
X0081200Y0051790D02*
X0035800Y0051790D01*
X0035800Y0051200D02*
X0081200Y0051200D01*
X0081200Y0050620D02*
X0035800Y0050620D01*
X0035800Y0050030D02*
X0061860Y0050030D01*
X0061280Y0049450D02*
X0035800Y0049450D01*
X0035800Y0048860D02*
X0061000Y0048860D01*
X0061000Y0048280D02*
X0035800Y0048280D01*
X0035800Y0047690D02*
X0061000Y0047690D01*
X0061320Y0047110D02*
X0035800Y0047110D01*
X0035800Y0046520D02*
X0061400Y0046520D01*
X0061030Y0045940D02*
X0035800Y0045940D01*
X0035800Y0045350D02*
X0060450Y0045350D01*
X0059860Y0044770D02*
X0035800Y0044770D01*
X0036320Y0044180D02*
X0059280Y0044180D01*
X0058690Y0043600D02*
X0036910Y0043600D01*
X0038160Y0043010D02*
X0050540Y0043010D01*
X0052660Y0043010D02*
X0058110Y0043010D01*
X0060570Y0040670D02*
X0081200Y0040670D01*
X0081200Y0040090D02*
X0059990Y0040090D01*
X0059400Y0039500D02*
X0081200Y0039500D01*
X0081200Y0041260D02*
X0061160Y0041260D01*
X0061740Y0041840D02*
X0081200Y0041840D01*
X0081200Y0042430D02*
X0062330Y0042430D01*
X0062910Y0043010D02*
X0081200Y0043010D01*
X0081200Y0043600D02*
X0063500Y0043600D01*
X0064080Y0044180D02*
X0081200Y0044180D01*
X0081200Y0044770D02*
X0064670Y0044770D01*
X0064800Y0045350D02*
X0081200Y0045350D01*
X0081200Y0045940D02*
X0064800Y0045940D01*
X0064800Y0046520D02*
X0081200Y0046520D01*
X0081200Y0047110D02*
X0064880Y0047110D01*
X0065200Y0047690D02*
X0081200Y0047690D01*
X0081200Y0048280D02*
X0065200Y0048280D01*
X0065200Y0048860D02*
X0081200Y0048860D01*
X0081200Y0049450D02*
X0064920Y0049450D01*
X0064340Y0050030D02*
X0081200Y0050030D01*
X0081200Y0086890D02*
X0011300Y0086890D01*
X0011300Y0087470D02*
X0081200Y0087470D01*
X0081200Y0088060D02*
X0011300Y0088060D01*
X0011300Y0088640D02*
X0081200Y0088640D01*
X0081200Y0089230D02*
X0011300Y0089230D01*
X0011300Y0089810D02*
X0081200Y0089810D01*
X0081200Y0090400D02*
X0011300Y0090400D01*
X0011300Y0090980D02*
X0081200Y0090980D01*
X0081200Y0091570D02*
X0011300Y0091570D01*
X0011300Y0092150D02*
X0081200Y0092150D01*
X0081200Y0092740D02*
X0011300Y0092740D01*
X0011300Y0093320D02*
X0081200Y0093320D01*
X0081200Y0093910D02*
X0011300Y0093910D01*
X0011300Y0094490D02*
X0081200Y0094490D01*
X0081200Y0095080D02*
X0011300Y0095080D01*
X0011300Y0095660D02*
X0057700Y0095660D01*
X0057700Y0096250D02*
X0011300Y0096250D01*
X0011300Y0096830D02*
X0057700Y0096830D01*
X0057700Y0097420D02*
X0011300Y0097420D01*
X0011300Y0098000D02*
X0057700Y0098000D01*
X0057700Y0098590D02*
X0011300Y0098590D01*
X0011300Y0099170D02*
X0057700Y0099170D01*
X0057700Y0099760D02*
X0011300Y0099760D01*
X0011300Y0100340D02*
X0057700Y0100340D01*
X0057700Y0100930D02*
X0011300Y0100930D01*
X0011300Y0101510D02*
X0057700Y0101510D01*
X0069300Y0101510D02*
X0081200Y0101510D01*
X0081200Y0100930D02*
X0069300Y0100930D01*
X0069300Y0100340D02*
X0081200Y0100340D01*
X0081200Y0099760D02*
X0069300Y0099760D01*
X0069300Y0099170D02*
X0081200Y0099170D01*
X0081200Y0098590D02*
X0069300Y0098590D01*
X0069300Y0098000D02*
X0081200Y0098000D01*
X0081200Y0097420D02*
X0069300Y0097420D01*
X0069300Y0096830D02*
X0081200Y0096830D01*
X0081200Y0096250D02*
X0069300Y0096250D01*
X0069300Y0095660D02*
X0081200Y0095660D01*
D32*
X0079000Y0094000D03*
X0074500Y0094000D03*
X0070000Y0094000D03*
X0066000Y0094000D03*
X0080000Y0088000D03*
X0080000Y0082000D03*
X0080000Y0074000D03*
X0080000Y0064000D03*
X0080000Y0054000D03*
X0080000Y0044000D03*
X0080000Y0034000D03*
X0080000Y0024000D03*
X0080000Y0014000D03*
X0067900Y0014000D03*
X0068000Y0024000D03*
X0068000Y0034000D03*
X0068000Y0042500D03*
X0067500Y0048500D03*
X0063100Y0048300D03*
X0051600Y0052100D03*
X0048200Y0052100D03*
X0048200Y0055500D03*
X0051600Y0055500D03*
X0051600Y0059000D03*
X0048200Y0059000D03*
X0048200Y0062400D03*
X0051600Y0062400D03*
X0051600Y0065900D03*
X0048200Y0065900D03*
X0044800Y0065900D03*
X0044800Y0062400D03*
X0044800Y0059000D03*
X0044800Y0055500D03*
X0044800Y0052100D03*
X0041400Y0052100D03*
X0041400Y0055500D03*
X0041400Y0059000D03*
X0041400Y0062400D03*
X0041400Y0065900D03*
X0038000Y0065900D03*
X0038000Y0062400D03*
X0038000Y0059000D03*
X0038000Y0055500D03*
X0038000Y0052100D03*
X0030600Y0045600D03*
X0028000Y0050000D03*
X0029100Y0040200D03*
X0037100Y0041100D03*
X0043700Y0028000D03*
X0049400Y0024000D03*
X0051700Y0028000D03*
X0057000Y0034000D03*
X0051600Y0041100D03*
X0031000Y0024800D03*
X0028000Y0014000D03*
X0036000Y0014000D03*
X0049400Y0014000D03*
X0016000Y0014000D03*
X0016000Y0023600D03*
X0016000Y0033600D03*
X0016000Y0043600D03*
X0016000Y0053600D03*
X0016000Y0063600D03*
X0016000Y0073200D03*
X0016000Y0084000D03*
X0016000Y0088000D03*
X0016000Y0094000D03*
X0021000Y0094000D03*
X0026000Y0094000D03*
X0031000Y0094000D03*
X0036000Y0094000D03*
X0041000Y0094000D03*
X0038000Y0088000D03*
X0034500Y0084500D03*
X0028000Y0088000D03*
X0027700Y0080000D03*
X0029700Y0070800D03*
X0028000Y0066000D03*
X0046000Y0094000D03*
X0051000Y0094000D03*
X0068000Y0066000D03*
D18*
X0032700Y0099000D03*
D12*
X0034500Y0084500D02*
X0034100Y0069900D01*
X0034100Y0044000D01*
X0037000Y0041100D01*
X0037100Y0041100D01*
X0051600Y0041100D01*
X0058600Y0041100D01*
X0063100Y0045600D01*
X0063100Y0048300D01*
X0010000Y0131000D02*
G75*
%LPD*%
D15*
X0011300Y0132300D02*
X0011300Y0222800D01*
X0057700Y0222800D01*
X0057700Y0216380D01*
X0057880Y0216200D01*
X0069120Y0216200D01*
X0069300Y0216380D01*
X0069300Y0222800D01*
X0081200Y0222800D01*
X0081200Y0132300D01*
X0011300Y0132300D01*
X0011300Y0132420D02*
X0081200Y0132420D01*
X0081200Y0133010D02*
X0011300Y0133010D01*
X0011300Y0133590D02*
X0081200Y0133590D01*
X0081200Y0134180D02*
X0011300Y0134180D01*
X0011300Y0134760D02*
X0081200Y0134760D01*
X0081200Y0135350D02*
X0011300Y0135350D01*
X0011300Y0135930D02*
X0081200Y0135930D01*
X0081200Y0136520D02*
X0011300Y0136520D01*
X0011300Y0137100D02*
X0081200Y0137100D01*
X0081200Y0137690D02*
X0011300Y0137690D01*
X0011300Y0138270D02*
X0081200Y0138270D01*
X0081200Y0138860D02*
X0011300Y0138860D01*
X0011300Y0139440D02*
X0081200Y0139440D01*
X0081200Y0140030D02*
X0011300Y0140030D01*
X0011300Y0140610D02*
X0081200Y0140610D01*
X0081200Y0141200D02*
X0011300Y0141200D01*
X0011300Y0141780D02*
X0081200Y0141780D01*
X0081200Y0142370D02*
X0011300Y0142370D01*
X0011300Y0142950D02*
X0081200Y0142950D01*
X0081200Y0143540D02*
X0011300Y0143540D01*
X0011300Y0144120D02*
X0081200Y0144120D01*
X0081200Y0144710D02*
X0011300Y0144710D01*
X0011300Y0145290D02*
X0081200Y0145290D01*
X0081200Y0145880D02*
X0011300Y0145880D01*
X0011300Y0146460D02*
X0081200Y0146460D01*
X0081200Y0147050D02*
X0011300Y0147050D01*
X0011300Y0147630D02*
X0081200Y0147630D01*
X0081200Y0148220D02*
X0011300Y0148220D01*
X0011300Y0148800D02*
X0081200Y0148800D01*
X0081200Y0149390D02*
X0011300Y0149390D01*
X0011300Y0149970D02*
X0081200Y0149970D01*
X0081200Y0150560D02*
X0011300Y0150560D01*
X0011300Y0151140D02*
X0081200Y0151140D01*
X0081200Y0151730D02*
X0011300Y0151730D01*
X0011300Y0152310D02*
X0081200Y0152310D01*
X0081200Y0152900D02*
X0011300Y0152900D01*
X0011300Y0153480D02*
X0081200Y0153480D01*
X0081200Y0154070D02*
X0011300Y0154070D01*
X0011300Y0154650D02*
X0081200Y0154650D01*
X0081200Y0155240D02*
X0011300Y0155240D01*
X0011300Y0155820D02*
X0081200Y0155820D01*
X0081200Y0156410D02*
X0011300Y0156410D01*
X0011300Y0156990D02*
X0081200Y0156990D01*
X0081200Y0157580D02*
X0011300Y0157580D01*
X0011300Y0158160D02*
X0081200Y0158160D01*
X0081200Y0158750D02*
X0011300Y0158750D01*
X0011300Y0159330D02*
X0081200Y0159330D01*
X0081200Y0159920D02*
X0011300Y0159920D01*
X0011300Y0160500D02*
X0035730Y0160500D01*
X0036230Y0160000D02*
X0037970Y0160000D01*
X0038370Y0160400D01*
X0050330Y0160400D01*
X0050730Y0160000D01*
X0052470Y0160000D01*
X0052870Y0160400D01*
X0059300Y0160400D01*
X0060300Y0161400D01*
X0064800Y0165900D01*
X0064800Y0168030D01*
X0065200Y0168430D01*
X0065200Y0170170D01*
X0063970Y0171400D01*
X0062230Y0171400D01*
X0061000Y0170170D01*
X0061000Y0168430D01*
X0061400Y0168030D01*
X0061400Y0167300D01*
X0057900Y0163800D01*
X0052870Y0163800D01*
X0052470Y0164200D01*
X0050730Y0164200D01*
X0050330Y0163800D01*
X0038370Y0163800D01*
X0037970Y0164200D01*
X0037300Y0164200D01*
X0035800Y0165700D01*
X0035800Y0190880D01*
X0036160Y0204200D01*
X0036600Y0204630D01*
X0036600Y0206370D01*
X0035370Y0207600D01*
X0033630Y0207600D01*
X0032400Y0206370D01*
X0032400Y0204630D01*
X0032770Y0204260D01*
X0032420Y0191620D01*
X0032400Y0191600D01*
X0032400Y0190920D01*
X0011300Y0190920D01*
X0011300Y0190340D02*
X0032380Y0190340D01*
X0032380Y0190240D02*
X0032400Y0190220D01*
X0032400Y0164300D01*
X0035000Y0161700D01*
X0035000Y0161230D01*
X0036230Y0160000D01*
X0035140Y0161090D02*
X0011300Y0161090D01*
X0011300Y0161670D02*
X0035000Y0161670D01*
X0034440Y0162260D02*
X0011300Y0162260D01*
X0011300Y0162840D02*
X0033860Y0162840D01*
X0033270Y0163430D02*
X0011300Y0163430D01*
X0011300Y0164010D02*
X0032690Y0164010D01*
X0032400Y0164600D02*
X0011300Y0164600D01*
X0011300Y0165180D02*
X0032400Y0165180D01*
X0032400Y0165770D02*
X0011300Y0165770D01*
X0011300Y0166350D02*
X0032400Y0166350D01*
X0032400Y0166940D02*
X0011300Y0166940D01*
X0011300Y0167520D02*
X0032400Y0167520D01*
X0032400Y0168110D02*
X0011300Y0168110D01*
X0011300Y0168690D02*
X0032400Y0168690D01*
X0032400Y0169280D02*
X0011300Y0169280D01*
X0011300Y0169860D02*
X0032400Y0169860D01*
X0032400Y0170450D02*
X0011300Y0170450D01*
X0011300Y0171030D02*
X0032400Y0171030D01*
X0032400Y0171620D02*
X0011300Y0171620D01*
X0011300Y0172200D02*
X0032400Y0172200D01*
X0032400Y0172790D02*
X0011300Y0172790D01*
X0011300Y0173370D02*
X0032400Y0173370D01*
X0032400Y0173960D02*
X0011300Y0173960D01*
X0011300Y0174540D02*
X0032400Y0174540D01*
X0032400Y0175130D02*
X0011300Y0175130D01*
X0011300Y0175710D02*
X0032400Y0175710D01*
X0032400Y0176300D02*
X0011300Y0176300D01*
X0011300Y0176880D02*
X0032400Y0176880D01*
X0032400Y0177470D02*
X0011300Y0177470D01*
X0011300Y0178050D02*
X0032400Y0178050D01*
X0032400Y0178640D02*
X0011300Y0178640D01*
X0011300Y0179220D02*
X0032400Y0179220D01*
X0032400Y0179810D02*
X0011300Y0179810D01*
X0011300Y0180390D02*
X0032400Y0180390D01*
X0032400Y0180980D02*
X0011300Y0180980D01*
X0011300Y0181560D02*
X0032400Y0181560D01*
X0032400Y0182150D02*
X0011300Y0182150D01*
X0011300Y0182730D02*
X0032400Y0182730D01*
X0032400Y0183320D02*
X0011300Y0183320D01*
X0011300Y0183900D02*
X0032400Y0183900D01*
X0032400Y0184490D02*
X0011300Y0184490D01*
X0011300Y0185070D02*
X0032400Y0185070D01*
X0032400Y0185660D02*
X0011300Y0185660D01*
X0011300Y0186240D02*
X0032400Y0186240D01*
X0032400Y0186830D02*
X0011300Y0186830D01*
X0011300Y0187410D02*
X0032400Y0187410D01*
X0032400Y0188000D02*
X0011300Y0188000D01*
X0011300Y0188580D02*
X0032400Y0188580D01*
X0032400Y0189170D02*
X0011300Y0189170D01*
X0011300Y0189750D02*
X0032400Y0189750D01*
X0032380Y0190240D02*
X0032400Y0190920D01*
X0032400Y0191510D02*
X0011300Y0191510D01*
X0011300Y0192090D02*
X0032430Y0192090D01*
X0032450Y0192680D02*
X0011300Y0192680D01*
X0011300Y0193260D02*
X0032460Y0193260D01*
X0032480Y0193850D02*
X0011300Y0193850D01*
X0011300Y0194430D02*
X0032500Y0194430D01*
X0032510Y0195020D02*
X0011300Y0195020D01*
X0011300Y0195600D02*
X0032530Y0195600D01*
X0032540Y0196190D02*
X0011300Y0196190D01*
X0011300Y0196770D02*
X0032560Y0196770D01*
X0032580Y0197360D02*
X0011300Y0197360D01*
X0011300Y0197940D02*
X0032590Y0197940D01*
X0032610Y0198530D02*
X0011300Y0198530D01*
X0011300Y0199110D02*
X0032620Y0199110D01*
X0032640Y0199700D02*
X0011300Y0199700D01*
X0011300Y0200280D02*
X0032660Y0200280D01*
X0032670Y0200870D02*
X0011300Y0200870D01*
X0011300Y0201450D02*
X0032690Y0201450D01*
X0032700Y0202040D02*
X0011300Y0202040D01*
X0011300Y0202620D02*
X0032720Y0202620D01*
X0032740Y0203210D02*
X0011300Y0203210D01*
X0011300Y0203790D02*
X0032750Y0203790D01*
X0032650Y0204380D02*
X0011300Y0204380D01*
X0011300Y0204960D02*
X0032400Y0204960D01*
X0032400Y0205550D02*
X0011300Y0205550D01*
X0011300Y0206130D02*
X0032400Y0206130D01*
X0032750Y0206720D02*
X0011300Y0206720D01*
X0011300Y0207300D02*
X0033330Y0207300D01*
X0035670Y0207300D02*
X0081200Y0207300D01*
X0081200Y0206720D02*
X0036250Y0206720D01*
X0036600Y0206130D02*
X0081200Y0206130D01*
X0081200Y0205550D02*
X0036600Y0205550D01*
X0036600Y0204960D02*
X0081200Y0204960D01*
X0081200Y0204380D02*
X0036350Y0204380D01*
X0036150Y0203790D02*
X0081200Y0203790D01*
X0081200Y0203210D02*
X0036140Y0203210D01*
X0036120Y0202620D02*
X0081200Y0202620D01*
X0081200Y0202040D02*
X0036110Y0202040D01*
X0036090Y0201450D02*
X0081200Y0201450D01*
X0081200Y0200870D02*
X0036070Y0200870D01*
X0036060Y0200280D02*
X0081200Y0200280D01*
X0081200Y0199700D02*
X0036040Y0199700D01*
X0036030Y0199110D02*
X0081200Y0199110D01*
X0081200Y0198530D02*
X0036010Y0198530D01*
X0035990Y0197940D02*
X0081200Y0197940D01*
X0081200Y0197360D02*
X0035980Y0197360D01*
X0035960Y0196770D02*
X0081200Y0196770D01*
X0081200Y0196190D02*
X0035950Y0196190D01*
X0035930Y0195600D02*
X0081200Y0195600D01*
X0081200Y0195020D02*
X0035910Y0195020D01*
X0035900Y0194430D02*
X0081200Y0194430D01*
X0081200Y0193850D02*
X0035880Y0193850D01*
X0035870Y0193260D02*
X0081200Y0193260D01*
X0081200Y0192680D02*
X0035850Y0192680D01*
X0035830Y0192090D02*
X0081200Y0192090D01*
X0081200Y0191510D02*
X0035820Y0191510D01*
X0035800Y0190920D02*
X0081200Y0190920D01*
X0081200Y0190340D02*
X0035800Y0190340D01*
X0035800Y0189750D02*
X0081200Y0189750D01*
X0081200Y0189170D02*
X0035800Y0189170D01*
X0035800Y0188580D02*
X0081200Y0188580D01*
X0081200Y0188000D02*
X0035800Y0188000D01*
X0035800Y0187410D02*
X0081200Y0187410D01*
X0081200Y0186830D02*
X0035800Y0186830D01*
X0035800Y0186240D02*
X0081200Y0186240D01*
X0081200Y0185660D02*
X0035800Y0185660D01*
X0035800Y0185070D02*
X0081200Y0185070D01*
X0081200Y0184490D02*
X0035800Y0184490D01*
X0035800Y0183900D02*
X0081200Y0183900D01*
X0081200Y0183320D02*
X0035800Y0183320D01*
X0035800Y0182730D02*
X0081200Y0182730D01*
X0081200Y0182150D02*
X0035800Y0182150D01*
X0035800Y0181560D02*
X0081200Y0181560D01*
X0081200Y0180980D02*
X0035800Y0180980D01*
X0035800Y0180390D02*
X0081200Y0180390D01*
X0081200Y0179810D02*
X0035800Y0179810D01*
X0035800Y0179220D02*
X0081200Y0179220D01*
X0081200Y0178640D02*
X0035800Y0178640D01*
X0035800Y0178050D02*
X0081200Y0178050D01*
X0081200Y0177470D02*
X0035800Y0177470D01*
X0035800Y0176880D02*
X0081200Y0176880D01*
X0081200Y0176300D02*
X0035800Y0176300D01*
X0035800Y0175710D02*
X0081200Y0175710D01*
X0081200Y0175130D02*
X0035800Y0175130D01*
X0035800Y0174540D02*
X0081200Y0174540D01*
X0081200Y0173960D02*
X0035800Y0173960D01*
X0035800Y0173370D02*
X0081200Y0173370D01*
X0081200Y0172790D02*
X0035800Y0172790D01*
X0035800Y0172200D02*
X0081200Y0172200D01*
X0081200Y0171620D02*
X0035800Y0171620D01*
X0035800Y0171030D02*
X0061860Y0171030D01*
X0061280Y0170450D02*
X0035800Y0170450D01*
X0035800Y0169860D02*
X0061000Y0169860D01*
X0061000Y0169280D02*
X0035800Y0169280D01*
X0035800Y0168690D02*
X0061000Y0168690D01*
X0061320Y0168110D02*
X0035800Y0168110D01*
X0035800Y0167520D02*
X0061400Y0167520D01*
X0061030Y0166940D02*
X0035800Y0166940D01*
X0035800Y0166350D02*
X0060450Y0166350D01*
X0059860Y0165770D02*
X0035800Y0165770D01*
X0036320Y0165180D02*
X0059280Y0165180D01*
X0058690Y0164600D02*
X0036910Y0164600D01*
X0038160Y0164010D02*
X0050540Y0164010D01*
X0052660Y0164010D02*
X0058110Y0164010D01*
X0060570Y0161670D02*
X0081200Y0161670D01*
X0081200Y0161090D02*
X0059990Y0161090D01*
X0059400Y0160500D02*
X0081200Y0160500D01*
X0081200Y0162260D02*
X0061160Y0162260D01*
X0061740Y0162840D02*
X0081200Y0162840D01*
X0081200Y0163430D02*
X0062330Y0163430D01*
X0062910Y0164010D02*
X0081200Y0164010D01*
X0081200Y0164600D02*
X0063500Y0164600D01*
X0064080Y0165180D02*
X0081200Y0165180D01*
X0081200Y0165770D02*
X0064670Y0165770D01*
X0064800Y0166350D02*
X0081200Y0166350D01*
X0081200Y0166940D02*
X0064800Y0166940D01*
X0064800Y0167520D02*
X0081200Y0167520D01*
X0081200Y0168110D02*
X0064880Y0168110D01*
X0065200Y0168690D02*
X0081200Y0168690D01*
X0081200Y0169280D02*
X0065200Y0169280D01*
X0065200Y0169860D02*
X0081200Y0169860D01*
X0081200Y0170450D02*
X0064920Y0170450D01*
X0064340Y0171030D02*
X0081200Y0171030D01*
X0081200Y0207890D02*
X0011300Y0207890D01*
X0011300Y0208470D02*
X0081200Y0208470D01*
X0081200Y0209060D02*
X0011300Y0209060D01*
X0011300Y0209640D02*
X0081200Y0209640D01*
X0081200Y0210230D02*
X0011300Y0210230D01*
X0011300Y0210810D02*
X0081200Y0210810D01*
X0081200Y0211400D02*
X0011300Y0211400D01*
X0011300Y0211980D02*
X0081200Y0211980D01*
X0081200Y0212570D02*
X0011300Y0212570D01*
X0011300Y0213150D02*
X0081200Y0213150D01*
X0081200Y0213740D02*
X0011300Y0213740D01*
X0011300Y0214320D02*
X0081200Y0214320D01*
X0081200Y0214910D02*
X0011300Y0214910D01*
X0011300Y0215490D02*
X0081200Y0215490D01*
X0081200Y0216080D02*
X0011300Y0216080D01*
X0011300Y0216660D02*
X0057700Y0216660D01*
X0057700Y0217250D02*
X0011300Y0217250D01*
X0011300Y0217830D02*
X0057700Y0217830D01*
X0057700Y0218420D02*
X0011300Y0218420D01*
X0011300Y0219000D02*
X0057700Y0219000D01*
X0057700Y0219590D02*
X0011300Y0219590D01*
X0011300Y0220170D02*
X0057700Y0220170D01*
X0057700Y0220760D02*
X0011300Y0220760D01*
X0011300Y0221340D02*
X0057700Y0221340D01*
X0057700Y0221930D02*
X0011300Y0221930D01*
X0011300Y0222510D02*
X0057700Y0222510D01*
X0069300Y0222510D02*
X0081200Y0222510D01*
X0081200Y0221930D02*
X0069300Y0221930D01*
X0069300Y0221340D02*
X0081200Y0221340D01*
X0081200Y0220760D02*
X0069300Y0220760D01*
X0069300Y0220170D02*
X0081200Y0220170D01*
X0081200Y0219590D02*
X0069300Y0219590D01*
X0069300Y0219000D02*
X0081200Y0219000D01*
X0081200Y0218420D02*
X0069300Y0218420D01*
X0069300Y0217830D02*
X0081200Y0217830D01*
X0081200Y0217250D02*
X0069300Y0217250D01*
X0069300Y0216660D02*
X0081200Y0216660D01*
D32*
X0079000Y0215000D03*
X0074500Y0215000D03*
X0070000Y0215000D03*
X0066000Y0215000D03*
X0080000Y0209000D03*
X0080000Y0203000D03*
X0080000Y0195000D03*
X0080000Y0185000D03*
X0080000Y0175000D03*
X0080000Y0165000D03*
X0080000Y0155000D03*
X0080000Y0145000D03*
X0080000Y0135000D03*
X0067900Y0135000D03*
X0068000Y0145000D03*
X0068000Y0155000D03*
X0068000Y0163500D03*
X0067500Y0169500D03*
X0063100Y0169300D03*
X0051600Y0173100D03*
X0048200Y0173100D03*
X0048200Y0176500D03*
X0051600Y0176500D03*
X0051600Y0180000D03*
X0048200Y0180000D03*
X0048200Y0183400D03*
X0051600Y0183400D03*
X0051600Y0186900D03*
X0048200Y0186900D03*
X0044800Y0186900D03*
X0044800Y0183400D03*
X0044800Y0180000D03*
X0044800Y0176500D03*
X0044800Y0173100D03*
X0041400Y0173100D03*
X0041400Y0176500D03*
X0041400Y0180000D03*
X0041400Y0183400D03*
X0041400Y0186900D03*
X0038000Y0186900D03*
X0038000Y0183400D03*
X0038000Y0180000D03*
X0038000Y0176500D03*
X0038000Y0173100D03*
X0030600Y0166600D03*
X0028000Y0171000D03*
X0029100Y0161200D03*
X0037100Y0162100D03*
X0043700Y0149000D03*
X0049400Y0145000D03*
X0051700Y0149000D03*
X0057000Y0155000D03*
X0051600Y0162100D03*
X0031000Y0145800D03*
X0028000Y0135000D03*
X0036000Y0135000D03*
X0049400Y0135000D03*
X0016000Y0135000D03*
X0016000Y0144600D03*
X0016000Y0154600D03*
X0016000Y0164600D03*
X0016000Y0174600D03*
X0016000Y0184600D03*
X0016000Y0194200D03*
X0016000Y0205000D03*
X0016000Y0209000D03*
X0016000Y0215000D03*
X0021000Y0215000D03*
X0026000Y0215000D03*
X0031000Y0215000D03*
X0036000Y0215000D03*
X0041000Y0215000D03*
X0038000Y0209000D03*
X0034500Y0205500D03*
X0028000Y0209000D03*
X0027700Y0201000D03*
X0029700Y0191800D03*
X0028000Y0187000D03*
X0046000Y0215000D03*
X0051000Y0215000D03*
X0068000Y0187000D03*
D18*
X0032700Y0220000D03*
D12*
X0034500Y0205500D02*
X0034100Y0190900D01*
X0034100Y0165000D01*
X0037000Y0162100D01*
X0037100Y0162100D01*
X0051600Y0162100D01*
X0058600Y0162100D01*
X0063100Y0166600D01*
X0063100Y0169300D01*
X0010000Y0252000D02*
G75*
%LPD*%
D15*
X0011300Y0253300D02*
X0011300Y0343800D01*
X0057700Y0343800D01*
X0057700Y0337380D01*
X0057880Y0337200D01*
X0069120Y0337200D01*
X0069300Y0337380D01*
X0069300Y0343800D01*
X0081200Y0343800D01*
X0081200Y0253300D01*
X0011300Y0253300D01*
X0011300Y0253420D02*
X0081200Y0253420D01*
X0081200Y0254010D02*
X0011300Y0254010D01*
X0011300Y0254590D02*
X0081200Y0254590D01*
X0081200Y0255180D02*
X0011300Y0255180D01*
X0011300Y0255760D02*
X0081200Y0255760D01*
X0081200Y0256350D02*
X0011300Y0256350D01*
X0011300Y0256930D02*
X0081200Y0256930D01*
X0081200Y0257520D02*
X0011300Y0257520D01*
X0011300Y0258100D02*
X0081200Y0258100D01*
X0081200Y0258690D02*
X0011300Y0258690D01*
X0011300Y0259270D02*
X0081200Y0259270D01*
X0081200Y0259860D02*
X0011300Y0259860D01*
X0011300Y0260440D02*
X0081200Y0260440D01*
X0081200Y0261030D02*
X0011300Y0261030D01*
X0011300Y0261610D02*
X0081200Y0261610D01*
X0081200Y0262200D02*
X0011300Y0262200D01*
X0011300Y0262780D02*
X0081200Y0262780D01*
X0081200Y0263370D02*
X0011300Y0263370D01*
X0011300Y0263950D02*
X0081200Y0263950D01*
X0081200Y0264540D02*
X0011300Y0264540D01*
X0011300Y0265120D02*
X0081200Y0265120D01*
X0081200Y0265710D02*
X0011300Y0265710D01*
X0011300Y0266290D02*
X0081200Y0266290D01*
X0081200Y0266880D02*
X0011300Y0266880D01*
X0011300Y0267460D02*
X0081200Y0267460D01*
X0081200Y0268050D02*
X0011300Y0268050D01*
X0011300Y0268630D02*
X0081200Y0268630D01*
X0081200Y0269220D02*
X0011300Y0269220D01*
X0011300Y0269800D02*
X0081200Y0269800D01*
X0081200Y0270390D02*
X0011300Y0270390D01*
X0011300Y0270970D02*
X0081200Y0270970D01*
X0081200Y0271560D02*
X0011300Y0271560D01*
X0011300Y0272140D02*
X0081200Y0272140D01*
X0081200Y0272730D02*
X0011300Y0272730D01*
X0011300Y0273310D02*
X0081200Y0273310D01*
X0081200Y0273900D02*
X0011300Y0273900D01*
X0011300Y0274480D02*
X0081200Y0274480D01*
X0081200Y0275070D02*
X0011300Y0275070D01*
X0011300Y0275650D02*
X0081200Y0275650D01*
X0081200Y0276240D02*
X0011300Y0276240D01*
X0011300Y0276820D02*
X0081200Y0276820D01*
X0081200Y0277410D02*
X0011300Y0277410D01*
X0011300Y0277990D02*
X0081200Y0277990D01*
X0081200Y0278580D02*
X0011300Y0278580D01*
X0011300Y0279160D02*
X0081200Y0279160D01*
X0081200Y0279750D02*
X0011300Y0279750D01*
X0011300Y0280330D02*
X0081200Y0280330D01*
X0081200Y0280920D02*
X0011300Y0280920D01*
X0011300Y0281500D02*
X0035730Y0281500D01*
X0036230Y0281000D02*
X0037970Y0281000D01*
X0038370Y0281400D01*
X0050330Y0281400D01*
X0050730Y0281000D01*
X0052470Y0281000D01*
X0052870Y0281400D01*
X0059300Y0281400D01*
X0060300Y0282400D01*
X0064800Y0286900D01*
X0064800Y0289030D01*
X0065200Y0289430D01*
X0065200Y0291170D01*
X0063970Y0292400D01*
X0062230Y0292400D01*
X0061000Y0291170D01*
X0061000Y0289430D01*
X0061400Y0289030D01*
X0061400Y0288300D01*
X0057900Y0284800D01*
X0052870Y0284800D01*
X0052470Y0285200D01*
X0050730Y0285200D01*
X0050330Y0284800D01*
X0038370Y0284800D01*
X0037970Y0285200D01*
X0037300Y0285200D01*
X0035800Y0286700D01*
X0035800Y0311880D01*
X0036160Y0325200D01*
X0036600Y0325630D01*
X0036600Y0327370D01*
X0035370Y0328600D01*
X0033630Y0328600D01*
X0032400Y0327370D01*
X0032400Y0325630D01*
X0032770Y0325260D01*
X0032420Y0312620D01*
X0032400Y0312600D01*
X0032400Y0311920D01*
X0011300Y0311920D01*
X0011300Y0311340D02*
X0032380Y0311340D01*
X0032380Y0311240D02*
X0032400Y0311220D01*
X0032400Y0285300D01*
X0035000Y0282700D01*
X0035000Y0282230D01*
X0036230Y0281000D01*
X0035140Y0282090D02*
X0011300Y0282090D01*
X0011300Y0282670D02*
X0035000Y0282670D01*
X0034440Y0283260D02*
X0011300Y0283260D01*
X0011300Y0283840D02*
X0033860Y0283840D01*
X0033270Y0284430D02*
X0011300Y0284430D01*
X0011300Y0285010D02*
X0032690Y0285010D01*
X0032400Y0285600D02*
X0011300Y0285600D01*
X0011300Y0286180D02*
X0032400Y0286180D01*
X0032400Y0286770D02*
X0011300Y0286770D01*
X0011300Y0287350D02*
X0032400Y0287350D01*
X0032400Y0287940D02*
X0011300Y0287940D01*
X0011300Y0288520D02*
X0032400Y0288520D01*
X0032400Y0289110D02*
X0011300Y0289110D01*
X0011300Y0289690D02*
X0032400Y0289690D01*
X0032400Y0290280D02*
X0011300Y0290280D01*
X0011300Y0290860D02*
X0032400Y0290860D01*
X0032400Y0291450D02*
X0011300Y0291450D01*
X0011300Y0292030D02*
X0032400Y0292030D01*
X0032400Y0292620D02*
X0011300Y0292620D01*
X0011300Y0293200D02*
X0032400Y0293200D01*
X0032400Y0293790D02*
X0011300Y0293790D01*
X0011300Y0294370D02*
X0032400Y0294370D01*
X0032400Y0294960D02*
X0011300Y0294960D01*
X0011300Y0295540D02*
X0032400Y0295540D01*
X0032400Y0296130D02*
X0011300Y0296130D01*
X0011300Y0296710D02*
X0032400Y0296710D01*
X0032400Y0297300D02*
X0011300Y0297300D01*
X0011300Y0297880D02*
X0032400Y0297880D01*
X0032400Y0298470D02*
X0011300Y0298470D01*
X0011300Y0299050D02*
X0032400Y0299050D01*
X0032400Y0299640D02*
X0011300Y0299640D01*
X0011300Y0300220D02*
X0032400Y0300220D01*
X0032400Y0300810D02*
X0011300Y0300810D01*
X0011300Y0301390D02*
X0032400Y0301390D01*
X0032400Y0301980D02*
X0011300Y0301980D01*
X0011300Y0302560D02*
X0032400Y0302560D01*
X0032400Y0303150D02*
X0011300Y0303150D01*
X0011300Y0303730D02*
X0032400Y0303730D01*
X0032400Y0304320D02*
X0011300Y0304320D01*
X0011300Y0304900D02*
X0032400Y0304900D01*
X0032400Y0305490D02*
X0011300Y0305490D01*
X0011300Y0306070D02*
X0032400Y0306070D01*
X0032400Y0306660D02*
X0011300Y0306660D01*
X0011300Y0307240D02*
X0032400Y0307240D01*
X0032400Y0307830D02*
X0011300Y0307830D01*
X0011300Y0308410D02*
X0032400Y0308410D01*
X0032400Y0309000D02*
X0011300Y0309000D01*
X0011300Y0309580D02*
X0032400Y0309580D01*
X0032400Y0310170D02*
X0011300Y0310170D01*
X0011300Y0310750D02*
X0032400Y0310750D01*
X0032380Y0311240D02*
X0032400Y0311920D01*
X0032400Y0312510D02*
X0011300Y0312510D01*
X0011300Y0313090D02*
X0032430Y0313090D01*
X0032450Y0313680D02*
X0011300Y0313680D01*
X0011300Y0314260D02*
X0032460Y0314260D01*
X0032480Y0314850D02*
X0011300Y0314850D01*
X0011300Y0315430D02*
X0032500Y0315430D01*
X0032510Y0316020D02*
X0011300Y0316020D01*
X0011300Y0316600D02*
X0032530Y0316600D01*
X0032540Y0317190D02*
X0011300Y0317190D01*
X0011300Y0317770D02*
X0032560Y0317770D01*
X0032580Y0318360D02*
X0011300Y0318360D01*
X0011300Y0318940D02*
X0032590Y0318940D01*
X0032610Y0319530D02*
X0011300Y0319530D01*
X0011300Y0320110D02*
X0032620Y0320110D01*
X0032640Y0320700D02*
X0011300Y0320700D01*
X0011300Y0321280D02*
X0032660Y0321280D01*
X0032670Y0321870D02*
X0011300Y0321870D01*
X0011300Y0322450D02*
X0032690Y0322450D01*
X0032700Y0323040D02*
X0011300Y0323040D01*
X0011300Y0323620D02*
X0032720Y0323620D01*
X0032740Y0324210D02*
X0011300Y0324210D01*
X0011300Y0324790D02*
X0032750Y0324790D01*
X0032650Y0325380D02*
X0011300Y0325380D01*
X0011300Y0325960D02*
X0032400Y0325960D01*
X0032400Y0326550D02*
X0011300Y0326550D01*
X0011300Y0327130D02*
X0032400Y0327130D01*
X0032750Y0327720D02*
X0011300Y0327720D01*
X0011300Y0328300D02*
X0033330Y0328300D01*
X0035670Y0328300D02*
X0081200Y0328300D01*
X0081200Y0327720D02*
X0036250Y0327720D01*
X0036600Y0327130D02*
X0081200Y0327130D01*
X0081200Y0326550D02*
X0036600Y0326550D01*
X0036600Y0325960D02*
X0081200Y0325960D01*
X0081200Y0325380D02*
X0036350Y0325380D01*
X0036150Y0324790D02*
X0081200Y0324790D01*
X0081200Y0324210D02*
X0036140Y0324210D01*
X0036120Y0323620D02*
X0081200Y0323620D01*
X0081200Y0323040D02*
X0036110Y0323040D01*
X0036090Y0322450D02*
X0081200Y0322450D01*
X0081200Y0321870D02*
X0036070Y0321870D01*
X0036060Y0321280D02*
X0081200Y0321280D01*
X0081200Y0320700D02*
X0036040Y0320700D01*
X0036030Y0320110D02*
X0081200Y0320110D01*
X0081200Y0319530D02*
X0036010Y0319530D01*
X0035990Y0318940D02*
X0081200Y0318940D01*
X0081200Y0318360D02*
X0035980Y0318360D01*
X0035960Y0317770D02*
X0081200Y0317770D01*
X0081200Y0317190D02*
X0035950Y0317190D01*
X0035930Y0316600D02*
X0081200Y0316600D01*
X0081200Y0316020D02*
X0035910Y0316020D01*
X0035900Y0315430D02*
X0081200Y0315430D01*
X0081200Y0314850D02*
X0035880Y0314850D01*
X0035870Y0314260D02*
X0081200Y0314260D01*
X0081200Y0313680D02*
X0035850Y0313680D01*
X0035830Y0313090D02*
X0081200Y0313090D01*
X0081200Y0312510D02*
X0035820Y0312510D01*
X0035800Y0311920D02*
X0081200Y0311920D01*
X0081200Y0311340D02*
X0035800Y0311340D01*
X0035800Y0310750D02*
X0081200Y0310750D01*
X0081200Y0310170D02*
X0035800Y0310170D01*
X0035800Y0309580D02*
X0081200Y0309580D01*
X0081200Y0309000D02*
X0035800Y0309000D01*
X0035800Y0308410D02*
X0081200Y0308410D01*
X0081200Y0307830D02*
X0035800Y0307830D01*
X0035800Y0307240D02*
X0081200Y0307240D01*
X0081200Y0306660D02*
X0035800Y0306660D01*
X0035800Y0306070D02*
X0081200Y0306070D01*
X0081200Y0305490D02*
X0035800Y0305490D01*
X0035800Y0304900D02*
X0081200Y0304900D01*
X0081200Y0304320D02*
X0035800Y0304320D01*
X0035800Y0303730D02*
X0081200Y0303730D01*
X0081200Y0303150D02*
X0035800Y0303150D01*
X0035800Y0302560D02*
X0081200Y0302560D01*
X0081200Y0301980D02*
X0035800Y0301980D01*
X0035800Y0301390D02*
X0081200Y0301390D01*
X0081200Y0300810D02*
X0035800Y0300810D01*
X0035800Y0300220D02*
X0081200Y0300220D01*
X0081200Y0299640D02*
X0035800Y0299640D01*
X0035800Y0299050D02*
X0081200Y0299050D01*
X0081200Y0298470D02*
X0035800Y0298470D01*
X0035800Y0297880D02*
X0081200Y0297880D01*
X0081200Y0297300D02*
X0035800Y0297300D01*
X0035800Y0296710D02*
X0081200Y0296710D01*
X0081200Y0296130D02*
X0035800Y0296130D01*
X0035800Y0295540D02*
X0081200Y0295540D01*
X0081200Y0294960D02*
X0035800Y0294960D01*
X0035800Y0294370D02*
X0081200Y0294370D01*
X0081200Y0293790D02*
X0035800Y0293790D01*
X0035800Y0293200D02*
X0081200Y0293200D01*
X0081200Y0292620D02*
X0035800Y0292620D01*
X0035800Y0292030D02*
X0061860Y0292030D01*
X0061280Y0291450D02*
X0035800Y0291450D01*
X0035800Y0290860D02*
X0061000Y0290860D01*
X0061000Y0290280D02*
X0035800Y0290280D01*
X0035800Y0289690D02*
X0061000Y0289690D01*
X0061320Y0289110D02*
X0035800Y0289110D01*
X0035800Y0288520D02*
X0061400Y0288520D01*
X0061030Y0287940D02*
X0035800Y0287940D01*
X0035800Y0287350D02*
X0060450Y0287350D01*
X0059860Y0286770D02*
X0035800Y0286770D01*
X0036320Y0286180D02*
X0059280Y0286180D01*
X0058690Y0285600D02*
X0036910Y0285600D01*
X0038160Y0285010D02*
X0050540Y0285010D01*
X0052660Y0285010D02*
X0058110Y0285010D01*
X0060570Y0282670D02*
X0081200Y0282670D01*
X0081200Y0282090D02*
X0059990Y0282090D01*
X0059400Y0281500D02*
X0081200Y0281500D01*
X0081200Y0283260D02*
X0061160Y0283260D01*
X0061740Y0283840D02*
X0081200Y0283840D01*
X0081200Y0284430D02*
X0062330Y0284430D01*
X0062910Y0285010D02*
X0081200Y0285010D01*
X0081200Y0285600D02*
X0063500Y0285600D01*
X0064080Y0286180D02*
X0081200Y0286180D01*
X0081200Y0286770D02*
X0064670Y0286770D01*
X0064800Y0287350D02*
X0081200Y0287350D01*
X0081200Y0287940D02*
X0064800Y0287940D01*
X0064800Y0288520D02*
X0081200Y0288520D01*
X0081200Y0289110D02*
X0064880Y0289110D01*
X0065200Y0289690D02*
X0081200Y0289690D01*
X0081200Y0290280D02*
X0065200Y0290280D01*
X0065200Y0290860D02*
X0081200Y0290860D01*
X0081200Y0291450D02*
X0064920Y0291450D01*
X0064340Y0292030D02*
X0081200Y0292030D01*
X0081200Y0328890D02*
X0011300Y0328890D01*
X0011300Y0329470D02*
X0081200Y0329470D01*
X0081200Y0330060D02*
X0011300Y0330060D01*
X0011300Y0330640D02*
X0081200Y0330640D01*
X0081200Y0331230D02*
X0011300Y0331230D01*
X0011300Y0331810D02*
X0081200Y0331810D01*
X0081200Y0332400D02*
X0011300Y0332400D01*
X0011300Y0332980D02*
X0081200Y0332980D01*
X0081200Y0333570D02*
X0011300Y0333570D01*
X0011300Y0334150D02*
X0081200Y0334150D01*
X0081200Y0334740D02*
X0011300Y0334740D01*
X0011300Y0335320D02*
X0081200Y0335320D01*
X0081200Y0335910D02*
X0011300Y0335910D01*
X0011300Y0336490D02*
X0081200Y0336490D01*
X0081200Y0337080D02*
X0011300Y0337080D01*
X0011300Y0337660D02*
X0057700Y0337660D01*
X0057700Y0338250D02*
X0011300Y0338250D01*
X0011300Y0338830D02*
X0057700Y0338830D01*
X0057700Y0339420D02*
X0011300Y0339420D01*
X0011300Y0340000D02*
X0057700Y0340000D01*
X0057700Y0340590D02*
X0011300Y0340590D01*
X0011300Y0341170D02*
X0057700Y0341170D01*
X0057700Y0341760D02*
X0011300Y0341760D01*
X0011300Y0342340D02*
X0057700Y0342340D01*
X0057700Y0342930D02*
X0011300Y0342930D01*
X0011300Y0343510D02*
X0057700Y0343510D01*
X0069300Y0343510D02*
X0081200Y0343510D01*
X0081200Y0342930D02*
X0069300Y0342930D01*
X0069300Y0342340D02*
X0081200Y0342340D01*
X0081200Y0341760D02*
X0069300Y0341760D01*
X0069300Y0341170D02*
X0081200Y0341170D01*
X0081200Y0340590D02*
X0069300Y0340590D01*
X0069300Y0340000D02*
X0081200Y0340000D01*
X0081200Y0339420D02*
X0069300Y0339420D01*
X0069300Y0338830D02*
X0081200Y0338830D01*
X0081200Y0338250D02*
X0069300Y0338250D01*
X0069300Y0337660D02*
X0081200Y0337660D01*
D32*
X0079000Y0336000D03*
X0074500Y0336000D03*
X0070000Y0336000D03*
X0066000Y0336000D03*
X0080000Y0330000D03*
X0080000Y0324000D03*
X0080000Y0316000D03*
X0080000Y0306000D03*
X0080000Y0296000D03*
X0080000Y0286000D03*
X0080000Y0276000D03*
X0080000Y0266000D03*
X0080000Y0256000D03*
X0067900Y0256000D03*
X0068000Y0266000D03*
X0068000Y0276000D03*
X0068000Y0284500D03*
X0067500Y0290500D03*
X0063100Y0290300D03*
X0051600Y0294100D03*
X0048200Y0294100D03*
X0048200Y0297500D03*
X0051600Y0297500D03*
X0051600Y0301000D03*
X0048200Y0301000D03*
X0048200Y0304400D03*
X0051600Y0304400D03*
X0051600Y0307900D03*
X0048200Y0307900D03*
X0044800Y0307900D03*
X0044800Y0304400D03*
X0044800Y0301000D03*
X0044800Y0297500D03*
X0044800Y0294100D03*
X0041400Y0294100D03*
X0041400Y0297500D03*
X0041400Y0301000D03*
X0041400Y0304400D03*
X0041400Y0307900D03*
X0038000Y0307900D03*
X0038000Y0304400D03*
X0038000Y0301000D03*
X0038000Y0297500D03*
X0038000Y0294100D03*
X0030600Y0287600D03*
X0028000Y0292000D03*
X0029100Y0282200D03*
X0037100Y0283100D03*
X0043700Y0270000D03*
X0049400Y0266000D03*
X0051700Y0270000D03*
X0057000Y0276000D03*
X0051600Y0283100D03*
X0031000Y0266800D03*
X0028000Y0256000D03*
X0036000Y0256000D03*
X0049400Y0256000D03*
X0016000Y0256000D03*
X0016000Y0265600D03*
X0016000Y0275600D03*
X0016000Y0285600D03*
X0016000Y0295600D03*
X0016000Y0305600D03*
X0016000Y0315200D03*
X0016000Y0326000D03*
X0016000Y0330000D03*
X0016000Y0336000D03*
X0021000Y0336000D03*
X0026000Y0336000D03*
X0031000Y0336000D03*
X0036000Y0336000D03*
X0041000Y0336000D03*
X0038000Y0330000D03*
X0034500Y0326500D03*
X0028000Y0330000D03*
X0027700Y0322000D03*
X0029700Y0312800D03*
X0028000Y0308000D03*
X0046000Y0336000D03*
X0051000Y0336000D03*
X0068000Y0308000D03*
D18*
X0032700Y0341000D03*
D12*
X0034500Y0326500D02*
X0034100Y0311900D01*
X0034100Y0286000D01*
X0037000Y0283100D01*
X0037100Y0283100D01*
X0051600Y0283100D01*
X0058600Y0283100D01*
X0063100Y0287600D01*
X0063100Y0290300D01*
X0082500Y0010000D02*
G75*
%LPD*%
D15*
X0083800Y0011300D02*
X0083800Y0101800D01*
X0130200Y0101800D01*
X0130200Y0095380D01*
X0130380Y0095200D01*
X0141620Y0095200D01*
X0141800Y0095380D01*
X0141800Y0101800D01*
X0153700Y0101800D01*
X0153700Y0011300D01*
X0083800Y0011300D01*
X0083800Y0011420D02*
X0153700Y0011420D01*
X0153700Y0012010D02*
X0083800Y0012010D01*
X0083800Y0012590D02*
X0153700Y0012590D01*
X0153700Y0013180D02*
X0083800Y0013180D01*
X0083800Y0013760D02*
X0153700Y0013760D01*
X0153700Y0014350D02*
X0083800Y0014350D01*
X0083800Y0014930D02*
X0153700Y0014930D01*
X0153700Y0015520D02*
X0083800Y0015520D01*
X0083800Y0016100D02*
X0153700Y0016100D01*
X0153700Y0016690D02*
X0083800Y0016690D01*
X0083800Y0017270D02*
X0153700Y0017270D01*
X0153700Y0017860D02*
X0083800Y0017860D01*
X0083800Y0018440D02*
X0153700Y0018440D01*
X0153700Y0019030D02*
X0083800Y0019030D01*
X0083800Y0019610D02*
X0153700Y0019610D01*
X0153700Y0020200D02*
X0083800Y0020200D01*
X0083800Y0020780D02*
X0153700Y0020780D01*
X0153700Y0021370D02*
X0083800Y0021370D01*
X0083800Y0021950D02*
X0153700Y0021950D01*
X0153700Y0022540D02*
X0083800Y0022540D01*
X0083800Y0023120D02*
X0153700Y0023120D01*
X0153700Y0023710D02*
X0083800Y0023710D01*
X0083800Y0024290D02*
X0153700Y0024290D01*
X0153700Y0024880D02*
X0083800Y0024880D01*
X0083800Y0025460D02*
X0153700Y0025460D01*
X0153700Y0026050D02*
X0083800Y0026050D01*
X0083800Y0026630D02*
X0153700Y0026630D01*
X0153700Y0027220D02*
X0083800Y0027220D01*
X0083800Y0027800D02*
X0153700Y0027800D01*
X0153700Y0028390D02*
X0083800Y0028390D01*
X0083800Y0028970D02*
X0153700Y0028970D01*
X0153700Y0029560D02*
X0083800Y0029560D01*
X0083800Y0030140D02*
X0153700Y0030140D01*
X0153700Y0030730D02*
X0083800Y0030730D01*
X0083800Y0031310D02*
X0153700Y0031310D01*
X0153700Y0031900D02*
X0083800Y0031900D01*
X0083800Y0032480D02*
X0153700Y0032480D01*
X0153700Y0033070D02*
X0083800Y0033070D01*
X0083800Y0033650D02*
X0153700Y0033650D01*
X0153700Y0034240D02*
X0083800Y0034240D01*
X0083800Y0034820D02*
X0153700Y0034820D01*
X0153700Y0035410D02*
X0083800Y0035410D01*
X0083800Y0035990D02*
X0153700Y0035990D01*
X0153700Y0036580D02*
X0083800Y0036580D01*
X0083800Y0037160D02*
X0153700Y0037160D01*
X0153700Y0037750D02*
X0083800Y0037750D01*
X0083800Y0038330D02*
X0153700Y0038330D01*
X0153700Y0038920D02*
X0083800Y0038920D01*
X0083800Y0039500D02*
X0108230Y0039500D01*
X0108730Y0039000D02*
X0110470Y0039000D01*
X0110870Y0039400D01*
X0122830Y0039400D01*
X0123230Y0039000D01*
X0124970Y0039000D01*
X0125370Y0039400D01*
X0131800Y0039400D01*
X0132800Y0040400D01*
X0137300Y0044900D01*
X0137300Y0047030D01*
X0137700Y0047430D01*
X0137700Y0049170D01*
X0136470Y0050400D01*
X0134730Y0050400D01*
X0133500Y0049170D01*
X0133500Y0047430D01*
X0133900Y0047030D01*
X0133900Y0046300D01*
X0130400Y0042800D01*
X0125370Y0042800D01*
X0124970Y0043200D01*
X0123230Y0043200D01*
X0122830Y0042800D01*
X0110870Y0042800D01*
X0110470Y0043200D01*
X0109800Y0043200D01*
X0108300Y0044700D01*
X0108300Y0069880D01*
X0108660Y0083200D01*
X0109100Y0083630D01*
X0109100Y0085370D01*
X0107870Y0086600D01*
X0106130Y0086600D01*
X0104900Y0085370D01*
X0104900Y0083630D01*
X0105270Y0083260D01*
X0104920Y0070620D01*
X0104900Y0070600D01*
X0104900Y0069920D01*
X0083800Y0069920D01*
X0083800Y0069340D02*
X0104880Y0069340D01*
X0104880Y0069240D02*
X0104900Y0069220D01*
X0104900Y0043300D01*
X0107500Y0040700D01*
X0107500Y0040230D01*
X0108730Y0039000D01*
X0107640Y0040090D02*
X0083800Y0040090D01*
X0083800Y0040670D02*
X0107500Y0040670D01*
X0106940Y0041260D02*
X0083800Y0041260D01*
X0083800Y0041840D02*
X0106360Y0041840D01*
X0105770Y0042430D02*
X0083800Y0042430D01*
X0083800Y0043010D02*
X0105190Y0043010D01*
X0104900Y0043600D02*
X0083800Y0043600D01*
X0083800Y0044180D02*
X0104900Y0044180D01*
X0104900Y0044770D02*
X0083800Y0044770D01*
X0083800Y0045350D02*
X0104900Y0045350D01*
X0104900Y0045940D02*
X0083800Y0045940D01*
X0083800Y0046520D02*
X0104900Y0046520D01*
X0104900Y0047110D02*
X0083800Y0047110D01*
X0083800Y0047690D02*
X0104900Y0047690D01*
X0104900Y0048280D02*
X0083800Y0048280D01*
X0083800Y0048860D02*
X0104900Y0048860D01*
X0104900Y0049450D02*
X0083800Y0049450D01*
X0083800Y0050030D02*
X0104900Y0050030D01*
X0104900Y0050620D02*
X0083800Y0050620D01*
X0083800Y0051200D02*
X0104900Y0051200D01*
X0104900Y0051790D02*
X0083800Y0051790D01*
X0083800Y0052370D02*
X0104900Y0052370D01*
X0104900Y0052960D02*
X0083800Y0052960D01*
X0083800Y0053540D02*
X0104900Y0053540D01*
X0104900Y0054130D02*
X0083800Y0054130D01*
X0083800Y0054710D02*
X0104900Y0054710D01*
X0104900Y0055300D02*
X0083800Y0055300D01*
X0083800Y0055880D02*
X0104900Y0055880D01*
X0104900Y0056470D02*
X0083800Y0056470D01*
X0083800Y0057050D02*
X0104900Y0057050D01*
X0104900Y0057640D02*
X0083800Y0057640D01*
X0083800Y0058220D02*
X0104900Y0058220D01*
X0104900Y0058810D02*
X0083800Y0058810D01*
X0083800Y0059390D02*
X0104900Y0059390D01*
X0104900Y0059980D02*
X0083800Y0059980D01*
X0083800Y0060560D02*
X0104900Y0060560D01*
X0104900Y0061150D02*
X0083800Y0061150D01*
X0083800Y0061730D02*
X0104900Y0061730D01*
X0104900Y0062320D02*
X0083800Y0062320D01*
X0083800Y0062900D02*
X0104900Y0062900D01*
X0104900Y0063490D02*
X0083800Y0063490D01*
X0083800Y0064070D02*
X0104900Y0064070D01*
X0104900Y0064660D02*
X0083800Y0064660D01*
X0083800Y0065240D02*
X0104900Y0065240D01*
X0104900Y0065830D02*
X0083800Y0065830D01*
X0083800Y0066410D02*
X0104900Y0066410D01*
X0104900Y0067000D02*
X0083800Y0067000D01*
X0083800Y0067580D02*
X0104900Y0067580D01*
X0104900Y0068170D02*
X0083800Y0068170D01*
X0083800Y0068750D02*
X0104900Y0068750D01*
X0104880Y0069240D02*
X0104900Y0069920D01*
X0104900Y0070510D02*
X0083800Y0070510D01*
X0083800Y0071090D02*
X0104930Y0071090D01*
X0104950Y0071680D02*
X0083800Y0071680D01*
X0083800Y0072260D02*
X0104960Y0072260D01*
X0104980Y0072850D02*
X0083800Y0072850D01*
X0083800Y0073430D02*
X0105000Y0073430D01*
X0105010Y0074020D02*
X0083800Y0074020D01*
X0083800Y0074600D02*
X0105030Y0074600D01*
X0105040Y0075190D02*
X0083800Y0075190D01*
X0083800Y0075770D02*
X0105060Y0075770D01*
X0105080Y0076360D02*
X0083800Y0076360D01*
X0083800Y0076940D02*
X0105090Y0076940D01*
X0105110Y0077530D02*
X0083800Y0077530D01*
X0083800Y0078110D02*
X0105120Y0078110D01*
X0105140Y0078700D02*
X0083800Y0078700D01*
X0083800Y0079280D02*
X0105160Y0079280D01*
X0105170Y0079870D02*
X0083800Y0079870D01*
X0083800Y0080450D02*
X0105190Y0080450D01*
X0105200Y0081040D02*
X0083800Y0081040D01*
X0083800Y0081620D02*
X0105220Y0081620D01*
X0105240Y0082210D02*
X0083800Y0082210D01*
X0083800Y0082790D02*
X0105250Y0082790D01*
X0105150Y0083380D02*
X0083800Y0083380D01*
X0083800Y0083960D02*
X0104900Y0083960D01*
X0104900Y0084550D02*
X0083800Y0084550D01*
X0083800Y0085130D02*
X0104900Y0085130D01*
X0105250Y0085720D02*
X0083800Y0085720D01*
X0083800Y0086300D02*
X0105830Y0086300D01*
X0108170Y0086300D02*
X0153700Y0086300D01*
X0153700Y0085720D02*
X0108750Y0085720D01*
X0109100Y0085130D02*
X0153700Y0085130D01*
X0153700Y0084550D02*
X0109100Y0084550D01*
X0109100Y0083960D02*
X0153700Y0083960D01*
X0153700Y0083380D02*
X0108850Y0083380D01*
X0108650Y0082790D02*
X0153700Y0082790D01*
X0153700Y0082210D02*
X0108640Y0082210D01*
X0108620Y0081620D02*
X0153700Y0081620D01*
X0153700Y0081040D02*
X0108610Y0081040D01*
X0108590Y0080450D02*
X0153700Y0080450D01*
X0153700Y0079870D02*
X0108570Y0079870D01*
X0108560Y0079280D02*
X0153700Y0079280D01*
X0153700Y0078700D02*
X0108540Y0078700D01*
X0108530Y0078110D02*
X0153700Y0078110D01*
X0153700Y0077530D02*
X0108510Y0077530D01*
X0108490Y0076940D02*
X0153700Y0076940D01*
X0153700Y0076360D02*
X0108480Y0076360D01*
X0108460Y0075770D02*
X0153700Y0075770D01*
X0153700Y0075190D02*
X0108450Y0075190D01*
X0108430Y0074600D02*
X0153700Y0074600D01*
X0153700Y0074020D02*
X0108410Y0074020D01*
X0108400Y0073430D02*
X0153700Y0073430D01*
X0153700Y0072850D02*
X0108380Y0072850D01*
X0108370Y0072260D02*
X0153700Y0072260D01*
X0153700Y0071680D02*
X0108350Y0071680D01*
X0108330Y0071090D02*
X0153700Y0071090D01*
X0153700Y0070510D02*
X0108320Y0070510D01*
X0108300Y0069920D02*
X0153700Y0069920D01*
X0153700Y0069340D02*
X0108300Y0069340D01*
X0108300Y0068750D02*
X0153700Y0068750D01*
X0153700Y0068170D02*
X0108300Y0068170D01*
X0108300Y0067580D02*
X0153700Y0067580D01*
X0153700Y0067000D02*
X0108300Y0067000D01*
X0108300Y0066410D02*
X0153700Y0066410D01*
X0153700Y0065830D02*
X0108300Y0065830D01*
X0108300Y0065240D02*
X0153700Y0065240D01*
X0153700Y0064660D02*
X0108300Y0064660D01*
X0108300Y0064070D02*
X0153700Y0064070D01*
X0153700Y0063490D02*
X0108300Y0063490D01*
X0108300Y0062900D02*
X0153700Y0062900D01*
X0153700Y0062320D02*
X0108300Y0062320D01*
X0108300Y0061730D02*
X0153700Y0061730D01*
X0153700Y0061150D02*
X0108300Y0061150D01*
X0108300Y0060560D02*
X0153700Y0060560D01*
X0153700Y0059980D02*
X0108300Y0059980D01*
X0108300Y0059390D02*
X0153700Y0059390D01*
X0153700Y0058810D02*
X0108300Y0058810D01*
X0108300Y0058220D02*
X0153700Y0058220D01*
X0153700Y0057640D02*
X0108300Y0057640D01*
X0108300Y0057050D02*
X0153700Y0057050D01*
X0153700Y0056470D02*
X0108300Y0056470D01*
X0108300Y0055880D02*
X0153700Y0055880D01*
X0153700Y0055300D02*
X0108300Y0055300D01*
X0108300Y0054710D02*
X0153700Y0054710D01*
X0153700Y0054130D02*
X0108300Y0054130D01*
X0108300Y0053540D02*
X0153700Y0053540D01*
X0153700Y0052960D02*
X0108300Y0052960D01*
X0108300Y0052370D02*
X0153700Y0052370D01*
X0153700Y0051790D02*
X0108300Y0051790D01*
X0108300Y0051200D02*
X0153700Y0051200D01*
X0153700Y0050620D02*
X0108300Y0050620D01*
X0108300Y0050030D02*
X0134360Y0050030D01*
X0133780Y0049450D02*
X0108300Y0049450D01*
X0108300Y0048860D02*
X0133500Y0048860D01*
X0133500Y0048280D02*
X0108300Y0048280D01*
X0108300Y0047690D02*
X0133500Y0047690D01*
X0133820Y0047110D02*
X0108300Y0047110D01*
X0108300Y0046520D02*
X0133900Y0046520D01*
X0133530Y0045940D02*
X0108300Y0045940D01*
X0108300Y0045350D02*
X0132950Y0045350D01*
X0132360Y0044770D02*
X0108300Y0044770D01*
X0108820Y0044180D02*
X0131780Y0044180D01*
X0131190Y0043600D02*
X0109410Y0043600D01*
X0110660Y0043010D02*
X0123040Y0043010D01*
X0125160Y0043010D02*
X0130610Y0043010D01*
X0133070Y0040670D02*
X0153700Y0040670D01*
X0153700Y0040090D02*
X0132490Y0040090D01*
X0131900Y0039500D02*
X0153700Y0039500D01*
X0153700Y0041260D02*
X0133660Y0041260D01*
X0134240Y0041840D02*
X0153700Y0041840D01*
X0153700Y0042430D02*
X0134830Y0042430D01*
X0135410Y0043010D02*
X0153700Y0043010D01*
X0153700Y0043600D02*
X0136000Y0043600D01*
X0136580Y0044180D02*
X0153700Y0044180D01*
X0153700Y0044770D02*
X0137170Y0044770D01*
X0137300Y0045350D02*
X0153700Y0045350D01*
X0153700Y0045940D02*
X0137300Y0045940D01*
X0137300Y0046520D02*
X0153700Y0046520D01*
X0153700Y0047110D02*
X0137380Y0047110D01*
X0137700Y0047690D02*
X0153700Y0047690D01*
X0153700Y0048280D02*
X0137700Y0048280D01*
X0137700Y0048860D02*
X0153700Y0048860D01*
X0153700Y0049450D02*
X0137420Y0049450D01*
X0136840Y0050030D02*
X0153700Y0050030D01*
X0153700Y0086890D02*
X0083800Y0086890D01*
X0083800Y0087470D02*
X0153700Y0087470D01*
X0153700Y0088060D02*
X0083800Y0088060D01*
X0083800Y0088640D02*
X0153700Y0088640D01*
X0153700Y0089230D02*
X0083800Y0089230D01*
X0083800Y0089810D02*
X0153700Y0089810D01*
X0153700Y0090400D02*
X0083800Y0090400D01*
X0083800Y0090980D02*
X0153700Y0090980D01*
X0153700Y0091570D02*
X0083800Y0091570D01*
X0083800Y0092150D02*
X0153700Y0092150D01*
X0153700Y0092740D02*
X0083800Y0092740D01*
X0083800Y0093320D02*
X0153700Y0093320D01*
X0153700Y0093910D02*
X0083800Y0093910D01*
X0083800Y0094490D02*
X0153700Y0094490D01*
X0153700Y0095080D02*
X0083800Y0095080D01*
X0083800Y0095660D02*
X0130200Y0095660D01*
X0130200Y0096250D02*
X0083800Y0096250D01*
X0083800Y0096830D02*
X0130200Y0096830D01*
X0130200Y0097420D02*
X0083800Y0097420D01*
X0083800Y0098000D02*
X0130200Y0098000D01*
X0130200Y0098590D02*
X0083800Y0098590D01*
X0083800Y0099170D02*
X0130200Y0099170D01*
X0130200Y0099760D02*
X0083800Y0099760D01*
X0083800Y0100340D02*
X0130200Y0100340D01*
X0130200Y0100930D02*
X0083800Y0100930D01*
X0083800Y0101510D02*
X0130200Y0101510D01*
X0141800Y0101510D02*
X0153700Y0101510D01*
X0153700Y0100930D02*
X0141800Y0100930D01*
X0141800Y0100340D02*
X0153700Y0100340D01*
X0153700Y0099760D02*
X0141800Y0099760D01*
X0141800Y0099170D02*
X0153700Y0099170D01*
X0153700Y0098590D02*
X0141800Y0098590D01*
X0141800Y0098000D02*
X0153700Y0098000D01*
X0153700Y0097420D02*
X0141800Y0097420D01*
X0141800Y0096830D02*
X0153700Y0096830D01*
X0153700Y0096250D02*
X0141800Y0096250D01*
X0141800Y0095660D02*
X0153700Y0095660D01*
D32*
X0151500Y0094000D03*
X0147000Y0094000D03*
X0142500Y0094000D03*
X0138500Y0094000D03*
X0152500Y0088000D03*
X0152500Y0082000D03*
X0152500Y0074000D03*
X0152500Y0064000D03*
X0152500Y0054000D03*
X0152500Y0044000D03*
X0152500Y0034000D03*
X0152500Y0024000D03*
X0152500Y0014000D03*
X0140400Y0014000D03*
X0140500Y0024000D03*
X0140500Y0034000D03*
X0140500Y0042500D03*
X0140000Y0048500D03*
X0135600Y0048300D03*
X0124100Y0052100D03*
X0120700Y0052100D03*
X0120700Y0055500D03*
X0124100Y0055500D03*
X0124100Y0059000D03*
X0120700Y0059000D03*
X0120700Y0062400D03*
X0124100Y0062400D03*
X0124100Y0065900D03*
X0120700Y0065900D03*
X0117300Y0065900D03*
X0117300Y0062400D03*
X0117300Y0059000D03*
X0117300Y0055500D03*
X0117300Y0052100D03*
X0113900Y0052100D03*
X0113900Y0055500D03*
X0113900Y0059000D03*
X0113900Y0062400D03*
X0113900Y0065900D03*
X0110500Y0065900D03*
X0110500Y0062400D03*
X0110500Y0059000D03*
X0110500Y0055500D03*
X0110500Y0052100D03*
X0103100Y0045600D03*
X0100500Y0050000D03*
X0101600Y0040200D03*
X0109600Y0041100D03*
X0116200Y0028000D03*
X0121900Y0024000D03*
X0124200Y0028000D03*
X0129500Y0034000D03*
X0124100Y0041100D03*
X0103500Y0024800D03*
X0100500Y0014000D03*
X0108500Y0014000D03*
X0121900Y0014000D03*
X0088500Y0014000D03*
X0088500Y0023600D03*
X0088500Y0033600D03*
X0088500Y0043600D03*
X0088500Y0053600D03*
X0088500Y0063600D03*
X0088500Y0073200D03*
X0088500Y0084000D03*
X0088500Y0088000D03*
X0088500Y0094000D03*
X0093500Y0094000D03*
X0098500Y0094000D03*
X0103500Y0094000D03*
X0108500Y0094000D03*
X0113500Y0094000D03*
X0110500Y0088000D03*
X0107000Y0084500D03*
X0100500Y0088000D03*
X0100200Y0080000D03*
X0102200Y0070800D03*
X0100500Y0066000D03*
X0118500Y0094000D03*
X0123500Y0094000D03*
X0140500Y0066000D03*
D18*
X0105200Y0099000D03*
D12*
X0107000Y0084500D02*
X0106600Y0069900D01*
X0106600Y0044000D01*
X0109500Y0041100D01*
X0109600Y0041100D01*
X0124100Y0041100D01*
X0131100Y0041100D01*
X0135600Y0045600D01*
X0135600Y0048300D01*
X0082500Y0131000D02*
G75*
%LPD*%
D15*
X0083800Y0132300D02*
X0083800Y0222800D01*
X0130200Y0222800D01*
X0130200Y0216380D01*
X0130380Y0216200D01*
X0141620Y0216200D01*
X0141800Y0216380D01*
X0141800Y0222800D01*
X0153700Y0222800D01*
X0153700Y0132300D01*
X0083800Y0132300D01*
X0083800Y0132420D02*
X0153700Y0132420D01*
X0153700Y0133010D02*
X0083800Y0133010D01*
X0083800Y0133590D02*
X0153700Y0133590D01*
X0153700Y0134180D02*
X0083800Y0134180D01*
X0083800Y0134760D02*
X0153700Y0134760D01*
X0153700Y0135350D02*
X0083800Y0135350D01*
X0083800Y0135930D02*
X0153700Y0135930D01*
X0153700Y0136520D02*
X0083800Y0136520D01*
X0083800Y0137100D02*
X0153700Y0137100D01*
X0153700Y0137690D02*
X0083800Y0137690D01*
X0083800Y0138270D02*
X0153700Y0138270D01*
X0153700Y0138860D02*
X0083800Y0138860D01*
X0083800Y0139440D02*
X0153700Y0139440D01*
X0153700Y0140030D02*
X0083800Y0140030D01*
X0083800Y0140610D02*
X0153700Y0140610D01*
X0153700Y0141200D02*
X0083800Y0141200D01*
X0083800Y0141780D02*
X0153700Y0141780D01*
X0153700Y0142370D02*
X0083800Y0142370D01*
X0083800Y0142950D02*
X0153700Y0142950D01*
X0153700Y0143540D02*
X0083800Y0143540D01*
X0083800Y0144120D02*
X0153700Y0144120D01*
X0153700Y0144710D02*
X0083800Y0144710D01*
X0083800Y0145290D02*
X0153700Y0145290D01*
X0153700Y0145880D02*
X0083800Y0145880D01*
X0083800Y0146460D02*
X0153700Y0146460D01*
X0153700Y0147050D02*
X0083800Y0147050D01*
X0083800Y0147630D02*
X0153700Y0147630D01*
X0153700Y0148220D02*
X0083800Y0148220D01*
X0083800Y0148800D02*
X0153700Y0148800D01*
X0153700Y0149390D02*
X0083800Y0149390D01*
X0083800Y0149970D02*
X0153700Y0149970D01*
X0153700Y0150560D02*
X0083800Y0150560D01*
X0083800Y0151140D02*
X0153700Y0151140D01*
X0153700Y0151730D02*
X0083800Y0151730D01*
X0083800Y0152310D02*
X0153700Y0152310D01*
X0153700Y0152900D02*
X0083800Y0152900D01*
X0083800Y0153480D02*
X0153700Y0153480D01*
X0153700Y0154070D02*
X0083800Y0154070D01*
X0083800Y0154650D02*
X0153700Y0154650D01*
X0153700Y0155240D02*
X0083800Y0155240D01*
X0083800Y0155820D02*
X0153700Y0155820D01*
X0153700Y0156410D02*
X0083800Y0156410D01*
X0083800Y0156990D02*
X0153700Y0156990D01*
X0153700Y0157580D02*
X0083800Y0157580D01*
X0083800Y0158160D02*
X0153700Y0158160D01*
X0153700Y0158750D02*
X0083800Y0158750D01*
X0083800Y0159330D02*
X0153700Y0159330D01*
X0153700Y0159920D02*
X0083800Y0159920D01*
X0083800Y0160500D02*
X0108230Y0160500D01*
X0108730Y0160000D02*
X0110470Y0160000D01*
X0110870Y0160400D01*
X0122830Y0160400D01*
X0123230Y0160000D01*
X0124970Y0160000D01*
X0125370Y0160400D01*
X0131800Y0160400D01*
X0132800Y0161400D01*
X0137300Y0165900D01*
X0137300Y0168030D01*
X0137700Y0168430D01*
X0137700Y0170170D01*
X0136470Y0171400D01*
X0134730Y0171400D01*
X0133500Y0170170D01*
X0133500Y0168430D01*
X0133900Y0168030D01*
X0133900Y0167300D01*
X0130400Y0163800D01*
X0125370Y0163800D01*
X0124970Y0164200D01*
X0123230Y0164200D01*
X0122830Y0163800D01*
X0110870Y0163800D01*
X0110470Y0164200D01*
X0109800Y0164200D01*
X0108300Y0165700D01*
X0108300Y0190880D01*
X0108660Y0204200D01*
X0109100Y0204630D01*
X0109100Y0206370D01*
X0107870Y0207600D01*
X0106130Y0207600D01*
X0104900Y0206370D01*
X0104900Y0204630D01*
X0105270Y0204260D01*
X0104920Y0191620D01*
X0104900Y0191600D01*
X0104900Y0190920D01*
X0083800Y0190920D01*
X0083800Y0190340D02*
X0104880Y0190340D01*
X0104880Y0190240D02*
X0104900Y0190220D01*
X0104900Y0164300D01*
X0107500Y0161700D01*
X0107500Y0161230D01*
X0108730Y0160000D01*
X0107640Y0161090D02*
X0083800Y0161090D01*
X0083800Y0161670D02*
X0107500Y0161670D01*
X0106940Y0162260D02*
X0083800Y0162260D01*
X0083800Y0162840D02*
X0106360Y0162840D01*
X0105770Y0163430D02*
X0083800Y0163430D01*
X0083800Y0164010D02*
X0105190Y0164010D01*
X0104900Y0164600D02*
X0083800Y0164600D01*
X0083800Y0165180D02*
X0104900Y0165180D01*
X0104900Y0165770D02*
X0083800Y0165770D01*
X0083800Y0166350D02*
X0104900Y0166350D01*
X0104900Y0166940D02*
X0083800Y0166940D01*
X0083800Y0167520D02*
X0104900Y0167520D01*
X0104900Y0168110D02*
X0083800Y0168110D01*
X0083800Y0168690D02*
X0104900Y0168690D01*
X0104900Y0169280D02*
X0083800Y0169280D01*
X0083800Y0169860D02*
X0104900Y0169860D01*
X0104900Y0170450D02*
X0083800Y0170450D01*
X0083800Y0171030D02*
X0104900Y0171030D01*
X0104900Y0171620D02*
X0083800Y0171620D01*
X0083800Y0172200D02*
X0104900Y0172200D01*
X0104900Y0172790D02*
X0083800Y0172790D01*
X0083800Y0173370D02*
X0104900Y0173370D01*
X0104900Y0173960D02*
X0083800Y0173960D01*
X0083800Y0174540D02*
X0104900Y0174540D01*
X0104900Y0175130D02*
X0083800Y0175130D01*
X0083800Y0175710D02*
X0104900Y0175710D01*
X0104900Y0176300D02*
X0083800Y0176300D01*
X0083800Y0176880D02*
X0104900Y0176880D01*
X0104900Y0177470D02*
X0083800Y0177470D01*
X0083800Y0178050D02*
X0104900Y0178050D01*
X0104900Y0178640D02*
X0083800Y0178640D01*
X0083800Y0179220D02*
X0104900Y0179220D01*
X0104900Y0179810D02*
X0083800Y0179810D01*
X0083800Y0180390D02*
X0104900Y0180390D01*
X0104900Y0180980D02*
X0083800Y0180980D01*
X0083800Y0181560D02*
X0104900Y0181560D01*
X0104900Y0182150D02*
X0083800Y0182150D01*
X0083800Y0182730D02*
X0104900Y0182730D01*
X0104900Y0183320D02*
X0083800Y0183320D01*
X0083800Y0183900D02*
X0104900Y0183900D01*
X0104900Y0184490D02*
X0083800Y0184490D01*
X0083800Y0185070D02*
X0104900Y0185070D01*
X0104900Y0185660D02*
X0083800Y0185660D01*
X0083800Y0186240D02*
X0104900Y0186240D01*
X0104900Y0186830D02*
X0083800Y0186830D01*
X0083800Y0187410D02*
X0104900Y0187410D01*
X0104900Y0188000D02*
X0083800Y0188000D01*
X0083800Y0188580D02*
X0104900Y0188580D01*
X0104900Y0189170D02*
X0083800Y0189170D01*
X0083800Y0189750D02*
X0104900Y0189750D01*
X0104880Y0190240D02*
X0104900Y0190920D01*
X0104900Y0191510D02*
X0083800Y0191510D01*
X0083800Y0192090D02*
X0104930Y0192090D01*
X0104950Y0192680D02*
X0083800Y0192680D01*
X0083800Y0193260D02*
X0104960Y0193260D01*
X0104980Y0193850D02*
X0083800Y0193850D01*
X0083800Y0194430D02*
X0105000Y0194430D01*
X0105010Y0195020D02*
X0083800Y0195020D01*
X0083800Y0195600D02*
X0105030Y0195600D01*
X0105040Y0196190D02*
X0083800Y0196190D01*
X0083800Y0196770D02*
X0105060Y0196770D01*
X0105080Y0197360D02*
X0083800Y0197360D01*
X0083800Y0197940D02*
X0105090Y0197940D01*
X0105110Y0198530D02*
X0083800Y0198530D01*
X0083800Y0199110D02*
X0105120Y0199110D01*
X0105140Y0199700D02*
X0083800Y0199700D01*
X0083800Y0200280D02*
X0105160Y0200280D01*
X0105170Y0200870D02*
X0083800Y0200870D01*
X0083800Y0201450D02*
X0105190Y0201450D01*
X0105200Y0202040D02*
X0083800Y0202040D01*
X0083800Y0202620D02*
X0105220Y0202620D01*
X0105240Y0203210D02*
X0083800Y0203210D01*
X0083800Y0203790D02*
X0105250Y0203790D01*
X0105150Y0204380D02*
X0083800Y0204380D01*
X0083800Y0204960D02*
X0104900Y0204960D01*
X0104900Y0205550D02*
X0083800Y0205550D01*
X0083800Y0206130D02*
X0104900Y0206130D01*
X0105250Y0206720D02*
X0083800Y0206720D01*
X0083800Y0207300D02*
X0105830Y0207300D01*
X0108170Y0207300D02*
X0153700Y0207300D01*
X0153700Y0206720D02*
X0108750Y0206720D01*
X0109100Y0206130D02*
X0153700Y0206130D01*
X0153700Y0205550D02*
X0109100Y0205550D01*
X0109100Y0204960D02*
X0153700Y0204960D01*
X0153700Y0204380D02*
X0108850Y0204380D01*
X0108650Y0203790D02*
X0153700Y0203790D01*
X0153700Y0203210D02*
X0108640Y0203210D01*
X0108620Y0202620D02*
X0153700Y0202620D01*
X0153700Y0202040D02*
X0108610Y0202040D01*
X0108590Y0201450D02*
X0153700Y0201450D01*
X0153700Y0200870D02*
X0108570Y0200870D01*
X0108560Y0200280D02*
X0153700Y0200280D01*
X0153700Y0199700D02*
X0108540Y0199700D01*
X0108530Y0199110D02*
X0153700Y0199110D01*
X0153700Y0198530D02*
X0108510Y0198530D01*
X0108490Y0197940D02*
X0153700Y0197940D01*
X0153700Y0197360D02*
X0108480Y0197360D01*
X0108460Y0196770D02*
X0153700Y0196770D01*
X0153700Y0196190D02*
X0108450Y0196190D01*
X0108430Y0195600D02*
X0153700Y0195600D01*
X0153700Y0195020D02*
X0108410Y0195020D01*
X0108400Y0194430D02*
X0153700Y0194430D01*
X0153700Y0193850D02*
X0108380Y0193850D01*
X0108370Y0193260D02*
X0153700Y0193260D01*
X0153700Y0192680D02*
X0108350Y0192680D01*
X0108330Y0192090D02*
X0153700Y0192090D01*
X0153700Y0191510D02*
X0108320Y0191510D01*
X0108300Y0190920D02*
X0153700Y0190920D01*
X0153700Y0190340D02*
X0108300Y0190340D01*
X0108300Y0189750D02*
X0153700Y0189750D01*
X0153700Y0189170D02*
X0108300Y0189170D01*
X0108300Y0188580D02*
X0153700Y0188580D01*
X0153700Y0188000D02*
X0108300Y0188000D01*
X0108300Y0187410D02*
X0153700Y0187410D01*
X0153700Y0186830D02*
X0108300Y0186830D01*
X0108300Y0186240D02*
X0153700Y0186240D01*
X0153700Y0185660D02*
X0108300Y0185660D01*
X0108300Y0185070D02*
X0153700Y0185070D01*
X0153700Y0184490D02*
X0108300Y0184490D01*
X0108300Y0183900D02*
X0153700Y0183900D01*
X0153700Y0183320D02*
X0108300Y0183320D01*
X0108300Y0182730D02*
X0153700Y0182730D01*
X0153700Y0182150D02*
X0108300Y0182150D01*
X0108300Y0181560D02*
X0153700Y0181560D01*
X0153700Y0180980D02*
X0108300Y0180980D01*
X0108300Y0180390D02*
X0153700Y0180390D01*
X0153700Y0179810D02*
X0108300Y0179810D01*
X0108300Y0179220D02*
X0153700Y0179220D01*
X0153700Y0178640D02*
X0108300Y0178640D01*
X0108300Y0178050D02*
X0153700Y0178050D01*
X0153700Y0177470D02*
X0108300Y0177470D01*
X0108300Y0176880D02*
X0153700Y0176880D01*
X0153700Y0176300D02*
X0108300Y0176300D01*
X0108300Y0175710D02*
X0153700Y0175710D01*
X0153700Y0175130D02*
X0108300Y0175130D01*
X0108300Y0174540D02*
X0153700Y0174540D01*
X0153700Y0173960D02*
X0108300Y0173960D01*
X0108300Y0173370D02*
X0153700Y0173370D01*
X0153700Y0172790D02*
X0108300Y0172790D01*
X0108300Y0172200D02*
X0153700Y0172200D01*
X0153700Y0171620D02*
X0108300Y0171620D01*
X0108300Y0171030D02*
X0134360Y0171030D01*
X0133780Y0170450D02*
X0108300Y0170450D01*
X0108300Y0169860D02*
X0133500Y0169860D01*
X0133500Y0169280D02*
X0108300Y0169280D01*
X0108300Y0168690D02*
X0133500Y0168690D01*
X0133820Y0168110D02*
X0108300Y0168110D01*
X0108300Y0167520D02*
X0133900Y0167520D01*
X0133530Y0166940D02*
X0108300Y0166940D01*
X0108300Y0166350D02*
X0132950Y0166350D01*
X0132360Y0165770D02*
X0108300Y0165770D01*
X0108820Y0165180D02*
X0131780Y0165180D01*
X0131190Y0164600D02*
X0109410Y0164600D01*
X0110660Y0164010D02*
X0123040Y0164010D01*
X0125160Y0164010D02*
X0130610Y0164010D01*
X0133070Y0161670D02*
X0153700Y0161670D01*
X0153700Y0161090D02*
X0132490Y0161090D01*
X0131900Y0160500D02*
X0153700Y0160500D01*
X0153700Y0162260D02*
X0133660Y0162260D01*
X0134240Y0162840D02*
X0153700Y0162840D01*
X0153700Y0163430D02*
X0134830Y0163430D01*
X0135410Y0164010D02*
X0153700Y0164010D01*
X0153700Y0164600D02*
X0136000Y0164600D01*
X0136580Y0165180D02*
X0153700Y0165180D01*
X0153700Y0165770D02*
X0137170Y0165770D01*
X0137300Y0166350D02*
X0153700Y0166350D01*
X0153700Y0166940D02*
X0137300Y0166940D01*
X0137300Y0167520D02*
X0153700Y0167520D01*
X0153700Y0168110D02*
X0137380Y0168110D01*
X0137700Y0168690D02*
X0153700Y0168690D01*
X0153700Y0169280D02*
X0137700Y0169280D01*
X0137700Y0169860D02*
X0153700Y0169860D01*
X0153700Y0170450D02*
X0137420Y0170450D01*
X0136840Y0171030D02*
X0153700Y0171030D01*
X0153700Y0207890D02*
X0083800Y0207890D01*
X0083800Y0208470D02*
X0153700Y0208470D01*
X0153700Y0209060D02*
X0083800Y0209060D01*
X0083800Y0209640D02*
X0153700Y0209640D01*
X0153700Y0210230D02*
X0083800Y0210230D01*
X0083800Y0210810D02*
X0153700Y0210810D01*
X0153700Y0211400D02*
X0083800Y0211400D01*
X0083800Y0211980D02*
X0153700Y0211980D01*
X0153700Y0212570D02*
X0083800Y0212570D01*
X0083800Y0213150D02*
X0153700Y0213150D01*
X0153700Y0213740D02*
X0083800Y0213740D01*
X0083800Y0214320D02*
X0153700Y0214320D01*
X0153700Y0214910D02*
X0083800Y0214910D01*
X0083800Y0215490D02*
X0153700Y0215490D01*
X0153700Y0216080D02*
X0083800Y0216080D01*
X0083800Y0216660D02*
X0130200Y0216660D01*
X0130200Y0217250D02*
X0083800Y0217250D01*
X0083800Y0217830D02*
X0130200Y0217830D01*
X0130200Y0218420D02*
X0083800Y0218420D01*
X0083800Y0219000D02*
X0130200Y0219000D01*
X0130200Y0219590D02*
X0083800Y0219590D01*
X0083800Y0220170D02*
X0130200Y0220170D01*
X0130200Y0220760D02*
X0083800Y0220760D01*
X0083800Y0221340D02*
X0130200Y0221340D01*
X0130200Y0221930D02*
X0083800Y0221930D01*
X0083800Y0222510D02*
X0130200Y0222510D01*
X0141800Y0222510D02*
X0153700Y0222510D01*
X0153700Y0221930D02*
X0141800Y0221930D01*
X0141800Y0221340D02*
X0153700Y0221340D01*
X0153700Y0220760D02*
X0141800Y0220760D01*
X0141800Y0220170D02*
X0153700Y0220170D01*
X0153700Y0219590D02*
X0141800Y0219590D01*
X0141800Y0219000D02*
X0153700Y0219000D01*
X0153700Y0218420D02*
X0141800Y0218420D01*
X0141800Y0217830D02*
X0153700Y0217830D01*
X0153700Y0217250D02*
X0141800Y0217250D01*
X0141800Y0216660D02*
X0153700Y0216660D01*
D32*
X0151500Y0215000D03*
X0147000Y0215000D03*
X0142500Y0215000D03*
X0138500Y0215000D03*
X0152500Y0209000D03*
X0152500Y0203000D03*
X0152500Y0195000D03*
X0152500Y0185000D03*
X0152500Y0175000D03*
X0152500Y0165000D03*
X0152500Y0155000D03*
X0152500Y0145000D03*
X0152500Y0135000D03*
X0140400Y0135000D03*
X0140500Y0145000D03*
X0140500Y0155000D03*
X0140500Y0163500D03*
X0140000Y0169500D03*
X0135600Y0169300D03*
X0124100Y0173100D03*
X0120700Y0173100D03*
X0120700Y0176500D03*
X0124100Y0176500D03*
X0124100Y0180000D03*
X0120700Y0180000D03*
X0120700Y0183400D03*
X0124100Y0183400D03*
X0124100Y0186900D03*
X0120700Y0186900D03*
X0117300Y0186900D03*
X0117300Y0183400D03*
X0117300Y0180000D03*
X0117300Y0176500D03*
X0117300Y0173100D03*
X0113900Y0173100D03*
X0113900Y0176500D03*
X0113900Y0180000D03*
X0113900Y0183400D03*
X0113900Y0186900D03*
X0110500Y0186900D03*
X0110500Y0183400D03*
X0110500Y0180000D03*
X0110500Y0176500D03*
X0110500Y0173100D03*
X0103100Y0166600D03*
X0100500Y0171000D03*
X0101600Y0161200D03*
X0109600Y0162100D03*
X0116200Y0149000D03*
X0121900Y0145000D03*
X0124200Y0149000D03*
X0129500Y0155000D03*
X0124100Y0162100D03*
X0103500Y0145800D03*
X0100500Y0135000D03*
X0108500Y0135000D03*
X0121900Y0135000D03*
X0088500Y0135000D03*
X0088500Y0144600D03*
X0088500Y0154600D03*
X0088500Y0164600D03*
X0088500Y0174600D03*
X0088500Y0184600D03*
X0088500Y0194200D03*
X0088500Y0205000D03*
X0088500Y0209000D03*
X0088500Y0215000D03*
X0093500Y0215000D03*
X0098500Y0215000D03*
X0103500Y0215000D03*
X0108500Y0215000D03*
X0113500Y0215000D03*
X0110500Y0209000D03*
X0107000Y0205500D03*
X0100500Y0209000D03*
X0100200Y0201000D03*
X0102200Y0191800D03*
X0100500Y0187000D03*
X0118500Y0215000D03*
X0123500Y0215000D03*
X0140500Y0187000D03*
D18*
X0105200Y0220000D03*
D12*
X0107000Y0205500D02*
X0106600Y0190900D01*
X0106600Y0165000D01*
X0109500Y0162100D01*
X0109600Y0162100D01*
X0124100Y0162100D01*
X0131100Y0162100D01*
X0135600Y0166600D01*
X0135600Y0169300D01*
X0082500Y0252000D02*
G75*
%LPD*%
D15*
X0083800Y0253300D02*
X0083800Y0343800D01*
X0130200Y0343800D01*
X0130200Y0337380D01*
X0130380Y0337200D01*
X0141620Y0337200D01*
X0141800Y0337380D01*
X0141800Y0343800D01*
X0153700Y0343800D01*
X0153700Y0253300D01*
X0083800Y0253300D01*
X0083800Y0253420D02*
X0153700Y0253420D01*
X0153700Y0254010D02*
X0083800Y0254010D01*
X0083800Y0254590D02*
X0153700Y0254590D01*
X0153700Y0255180D02*
X0083800Y0255180D01*
X0083800Y0255760D02*
X0153700Y0255760D01*
X0153700Y0256350D02*
X0083800Y0256350D01*
X0083800Y0256930D02*
X0153700Y0256930D01*
X0153700Y0257520D02*
X0083800Y0257520D01*
X0083800Y0258100D02*
X0153700Y0258100D01*
X0153700Y0258690D02*
X0083800Y0258690D01*
X0083800Y0259270D02*
X0153700Y0259270D01*
X0153700Y0259860D02*
X0083800Y0259860D01*
X0083800Y0260440D02*
X0153700Y0260440D01*
X0153700Y0261030D02*
X0083800Y0261030D01*
X0083800Y0261610D02*
X0153700Y0261610D01*
X0153700Y0262200D02*
X0083800Y0262200D01*
X0083800Y0262780D02*
X0153700Y0262780D01*
X0153700Y0263370D02*
X0083800Y0263370D01*
X0083800Y0263950D02*
X0153700Y0263950D01*
X0153700Y0264540D02*
X0083800Y0264540D01*
X0083800Y0265120D02*
X0153700Y0265120D01*
X0153700Y0265710D02*
X0083800Y0265710D01*
X0083800Y0266290D02*
X0153700Y0266290D01*
X0153700Y0266880D02*
X0083800Y0266880D01*
X0083800Y0267460D02*
X0153700Y0267460D01*
X0153700Y0268050D02*
X0083800Y0268050D01*
X0083800Y0268630D02*
X0153700Y0268630D01*
X0153700Y0269220D02*
X0083800Y0269220D01*
X0083800Y0269800D02*
X0153700Y0269800D01*
X0153700Y0270390D02*
X0083800Y0270390D01*
X0083800Y0270970D02*
X0153700Y0270970D01*
X0153700Y0271560D02*
X0083800Y0271560D01*
X0083800Y0272140D02*
X0153700Y0272140D01*
X0153700Y0272730D02*
X0083800Y0272730D01*
X0083800Y0273310D02*
X0153700Y0273310D01*
X0153700Y0273900D02*
X0083800Y0273900D01*
X0083800Y0274480D02*
X0153700Y0274480D01*
X0153700Y0275070D02*
X0083800Y0275070D01*
X0083800Y0275650D02*
X0153700Y0275650D01*
X0153700Y0276240D02*
X0083800Y0276240D01*
X0083800Y0276820D02*
X0153700Y0276820D01*
X0153700Y0277410D02*
X0083800Y0277410D01*
X0083800Y0277990D02*
X0153700Y0277990D01*
X0153700Y0278580D02*
X0083800Y0278580D01*
X0083800Y0279160D02*
X0153700Y0279160D01*
X0153700Y0279750D02*
X0083800Y0279750D01*
X0083800Y0280330D02*
X0153700Y0280330D01*
X0153700Y0280920D02*
X0083800Y0280920D01*
X0083800Y0281500D02*
X0108230Y0281500D01*
X0108730Y0281000D02*
X0110470Y0281000D01*
X0110870Y0281400D01*
X0122830Y0281400D01*
X0123230Y0281000D01*
X0124970Y0281000D01*
X0125370Y0281400D01*
X0131800Y0281400D01*
X0132800Y0282400D01*
X0137300Y0286900D01*
X0137300Y0289030D01*
X0137700Y0289430D01*
X0137700Y0291170D01*
X0136470Y0292400D01*
X0134730Y0292400D01*
X0133500Y0291170D01*
X0133500Y0289430D01*
X0133900Y0289030D01*
X0133900Y0288300D01*
X0130400Y0284800D01*
X0125370Y0284800D01*
X0124970Y0285200D01*
X0123230Y0285200D01*
X0122830Y0284800D01*
X0110870Y0284800D01*
X0110470Y0285200D01*
X0109800Y0285200D01*
X0108300Y0286700D01*
X0108300Y0311880D01*
X0108660Y0325200D01*
X0109100Y0325630D01*
X0109100Y0327370D01*
X0107870Y0328600D01*
X0106130Y0328600D01*
X0104900Y0327370D01*
X0104900Y0325630D01*
X0105270Y0325260D01*
X0104920Y0312620D01*
X0104900Y0312600D01*
X0104900Y0311920D01*
X0083800Y0311920D01*
X0083800Y0311340D02*
X0104880Y0311340D01*
X0104880Y0311240D02*
X0104900Y0311220D01*
X0104900Y0285300D01*
X0107500Y0282700D01*
X0107500Y0282230D01*
X0108730Y0281000D01*
X0107640Y0282090D02*
X0083800Y0282090D01*
X0083800Y0282670D02*
X0107500Y0282670D01*
X0106940Y0283260D02*
X0083800Y0283260D01*
X0083800Y0283840D02*
X0106360Y0283840D01*
X0105770Y0284430D02*
X0083800Y0284430D01*
X0083800Y0285010D02*
X0105190Y0285010D01*
X0104900Y0285600D02*
X0083800Y0285600D01*
X0083800Y0286180D02*
X0104900Y0286180D01*
X0104900Y0286770D02*
X0083800Y0286770D01*
X0083800Y0287350D02*
X0104900Y0287350D01*
X0104900Y0287940D02*
X0083800Y0287940D01*
X0083800Y0288520D02*
X0104900Y0288520D01*
X0104900Y0289110D02*
X0083800Y0289110D01*
X0083800Y0289690D02*
X0104900Y0289690D01*
X0104900Y0290280D02*
X0083800Y0290280D01*
X0083800Y0290860D02*
X0104900Y0290860D01*
X0104900Y0291450D02*
X0083800Y0291450D01*
X0083800Y0292030D02*
X0104900Y0292030D01*
X0104900Y0292620D02*
X0083800Y0292620D01*
X0083800Y0293200D02*
X0104900Y0293200D01*
X0104900Y0293790D02*
X0083800Y0293790D01*
X0083800Y0294370D02*
X0104900Y0294370D01*
X0104900Y0294960D02*
X0083800Y0294960D01*
X0083800Y0295540D02*
X0104900Y0295540D01*
X0104900Y0296130D02*
X0083800Y0296130D01*
X0083800Y0296710D02*
X0104900Y0296710D01*
X0104900Y0297300D02*
X0083800Y0297300D01*
X0083800Y0297880D02*
X0104900Y0297880D01*
X0104900Y0298470D02*
X0083800Y0298470D01*
X0083800Y0299050D02*
X0104900Y0299050D01*
X0104900Y0299640D02*
X0083800Y0299640D01*
X0083800Y0300220D02*
X0104900Y0300220D01*
X0104900Y0300810D02*
X0083800Y0300810D01*
X0083800Y0301390D02*
X0104900Y0301390D01*
X0104900Y0301980D02*
X0083800Y0301980D01*
X0083800Y0302560D02*
X0104900Y0302560D01*
X0104900Y0303150D02*
X0083800Y0303150D01*
X0083800Y0303730D02*
X0104900Y0303730D01*
X0104900Y0304320D02*
X0083800Y0304320D01*
X0083800Y0304900D02*
X0104900Y0304900D01*
X0104900Y0305490D02*
X0083800Y0305490D01*
X0083800Y0306070D02*
X0104900Y0306070D01*
X0104900Y0306660D02*
X0083800Y0306660D01*
X0083800Y0307240D02*
X0104900Y0307240D01*
X0104900Y0307830D02*
X0083800Y0307830D01*
X0083800Y0308410D02*
X0104900Y0308410D01*
X0104900Y0309000D02*
X0083800Y0309000D01*
X0083800Y0309580D02*
X0104900Y0309580D01*
X0104900Y0310170D02*
X0083800Y0310170D01*
X0083800Y0310750D02*
X0104900Y0310750D01*
X0104880Y0311240D02*
X0104900Y0311920D01*
X0104900Y0312510D02*
X0083800Y0312510D01*
X0083800Y0313090D02*
X0104930Y0313090D01*
X0104950Y0313680D02*
X0083800Y0313680D01*
X0083800Y0314260D02*
X0104960Y0314260D01*
X0104980Y0314850D02*
X0083800Y0314850D01*
X0083800Y0315430D02*
X0105000Y0315430D01*
X0105010Y0316020D02*
X0083800Y0316020D01*
X0083800Y0316600D02*
X0105030Y0316600D01*
X0105040Y0317190D02*
X0083800Y0317190D01*
X0083800Y0317770D02*
X0105060Y0317770D01*
X0105080Y0318360D02*
X0083800Y0318360D01*
X0083800Y0318940D02*
X0105090Y0318940D01*
X0105110Y0319530D02*
X0083800Y0319530D01*
X0083800Y0320110D02*
X0105120Y0320110D01*
X0105140Y0320700D02*
X0083800Y0320700D01*
X0083800Y0321280D02*
X0105160Y0321280D01*
X0105170Y0321870D02*
X0083800Y0321870D01*
X0083800Y0322450D02*
X0105190Y0322450D01*
X0105200Y0323040D02*
X0083800Y0323040D01*
X0083800Y0323620D02*
X0105220Y0323620D01*
X0105240Y0324210D02*
X0083800Y0324210D01*
X0083800Y0324790D02*
X0105250Y0324790D01*
X0105150Y0325380D02*
X0083800Y0325380D01*
X0083800Y0325960D02*
X0104900Y0325960D01*
X0104900Y0326550D02*
X0083800Y0326550D01*
X0083800Y0327130D02*
X0104900Y0327130D01*
X0105250Y0327720D02*
X0083800Y0327720D01*
X0083800Y0328300D02*
X0105830Y0328300D01*
X0108170Y0328300D02*
X0153700Y0328300D01*
X0153700Y0327720D02*
X0108750Y0327720D01*
X0109100Y0327130D02*
X0153700Y0327130D01*
X0153700Y0326550D02*
X0109100Y0326550D01*
X0109100Y0325960D02*
X0153700Y0325960D01*
X0153700Y0325380D02*
X0108850Y0325380D01*
X0108650Y0324790D02*
X0153700Y0324790D01*
X0153700Y0324210D02*
X0108640Y0324210D01*
X0108620Y0323620D02*
X0153700Y0323620D01*
X0153700Y0323040D02*
X0108610Y0323040D01*
X0108590Y0322450D02*
X0153700Y0322450D01*
X0153700Y0321870D02*
X0108570Y0321870D01*
X0108560Y0321280D02*
X0153700Y0321280D01*
X0153700Y0320700D02*
X0108540Y0320700D01*
X0108530Y0320110D02*
X0153700Y0320110D01*
X0153700Y0319530D02*
X0108510Y0319530D01*
X0108490Y0318940D02*
X0153700Y0318940D01*
X0153700Y0318360D02*
X0108480Y0318360D01*
X0108460Y0317770D02*
X0153700Y0317770D01*
X0153700Y0317190D02*
X0108450Y0317190D01*
X0108430Y0316600D02*
X0153700Y0316600D01*
X0153700Y0316020D02*
X0108410Y0316020D01*
X0108400Y0315430D02*
X0153700Y0315430D01*
X0153700Y0314850D02*
X0108380Y0314850D01*
X0108370Y0314260D02*
X0153700Y0314260D01*
X0153700Y0313680D02*
X0108350Y0313680D01*
X0108330Y0313090D02*
X0153700Y0313090D01*
X0153700Y0312510D02*
X0108320Y0312510D01*
X0108300Y0311920D02*
X0153700Y0311920D01*
X0153700Y0311340D02*
X0108300Y0311340D01*
X0108300Y0310750D02*
X0153700Y0310750D01*
X0153700Y0310170D02*
X0108300Y0310170D01*
X0108300Y0309580D02*
X0153700Y0309580D01*
X0153700Y0309000D02*
X0108300Y0309000D01*
X0108300Y0308410D02*
X0153700Y0308410D01*
X0153700Y0307830D02*
X0108300Y0307830D01*
X0108300Y0307240D02*
X0153700Y0307240D01*
X0153700Y0306660D02*
X0108300Y0306660D01*
X0108300Y0306070D02*
X0153700Y0306070D01*
X0153700Y0305490D02*
X0108300Y0305490D01*
X0108300Y0304900D02*
X0153700Y0304900D01*
X0153700Y0304320D02*
X0108300Y0304320D01*
X0108300Y0303730D02*
X0153700Y0303730D01*
X0153700Y0303150D02*
X0108300Y0303150D01*
X0108300Y0302560D02*
X0153700Y0302560D01*
X0153700Y0301980D02*
X0108300Y0301980D01*
X0108300Y0301390D02*
X0153700Y0301390D01*
X0153700Y0300810D02*
X0108300Y0300810D01*
X0108300Y0300220D02*
X0153700Y0300220D01*
X0153700Y0299640D02*
X0108300Y0299640D01*
X0108300Y0299050D02*
X0153700Y0299050D01*
X0153700Y0298470D02*
X0108300Y0298470D01*
X0108300Y0297880D02*
X0153700Y0297880D01*
X0153700Y0297300D02*
X0108300Y0297300D01*
X0108300Y0296710D02*
X0153700Y0296710D01*
X0153700Y0296130D02*
X0108300Y0296130D01*
X0108300Y0295540D02*
X0153700Y0295540D01*
X0153700Y0294960D02*
X0108300Y0294960D01*
X0108300Y0294370D02*
X0153700Y0294370D01*
X0153700Y0293790D02*
X0108300Y0293790D01*
X0108300Y0293200D02*
X0153700Y0293200D01*
X0153700Y0292620D02*
X0108300Y0292620D01*
X0108300Y0292030D02*
X0134360Y0292030D01*
X0133780Y0291450D02*
X0108300Y0291450D01*
X0108300Y0290860D02*
X0133500Y0290860D01*
X0133500Y0290280D02*
X0108300Y0290280D01*
X0108300Y0289690D02*
X0133500Y0289690D01*
X0133820Y0289110D02*
X0108300Y0289110D01*
X0108300Y0288520D02*
X0133900Y0288520D01*
X0133530Y0287940D02*
X0108300Y0287940D01*
X0108300Y0287350D02*
X0132950Y0287350D01*
X0132360Y0286770D02*
X0108300Y0286770D01*
X0108820Y0286180D02*
X0131780Y0286180D01*
X0131190Y0285600D02*
X0109410Y0285600D01*
X0110660Y0285010D02*
X0123040Y0285010D01*
X0125160Y0285010D02*
X0130610Y0285010D01*
X0133070Y0282670D02*
X0153700Y0282670D01*
X0153700Y0282090D02*
X0132490Y0282090D01*
X0131900Y0281500D02*
X0153700Y0281500D01*
X0153700Y0283260D02*
X0133660Y0283260D01*
X0134240Y0283840D02*
X0153700Y0283840D01*
X0153700Y0284430D02*
X0134830Y0284430D01*
X0135410Y0285010D02*
X0153700Y0285010D01*
X0153700Y0285600D02*
X0136000Y0285600D01*
X0136580Y0286180D02*
X0153700Y0286180D01*
X0153700Y0286770D02*
X0137170Y0286770D01*
X0137300Y0287350D02*
X0153700Y0287350D01*
X0153700Y0287940D02*
X0137300Y0287940D01*
X0137300Y0288520D02*
X0153700Y0288520D01*
X0153700Y0289110D02*
X0137380Y0289110D01*
X0137700Y0289690D02*
X0153700Y0289690D01*
X0153700Y0290280D02*
X0137700Y0290280D01*
X0137700Y0290860D02*
X0153700Y0290860D01*
X0153700Y0291450D02*
X0137420Y0291450D01*
X0136840Y0292030D02*
X0153700Y0292030D01*
X0153700Y0328890D02*
X0083800Y0328890D01*
X0083800Y0329470D02*
X0153700Y0329470D01*
X0153700Y0330060D02*
X0083800Y0330060D01*
X0083800Y0330640D02*
X0153700Y0330640D01*
X0153700Y0331230D02*
X0083800Y0331230D01*
X0083800Y0331810D02*
X0153700Y0331810D01*
X0153700Y0332400D02*
X0083800Y0332400D01*
X0083800Y0332980D02*
X0153700Y0332980D01*
X0153700Y0333570D02*
X0083800Y0333570D01*
X0083800Y0334150D02*
X0153700Y0334150D01*
X0153700Y0334740D02*
X0083800Y0334740D01*
X0083800Y0335320D02*
X0153700Y0335320D01*
X0153700Y0335910D02*
X0083800Y0335910D01*
X0083800Y0336490D02*
X0153700Y0336490D01*
X0153700Y0337080D02*
X0083800Y0337080D01*
X0083800Y0337660D02*
X0130200Y0337660D01*
X0130200Y0338250D02*
X0083800Y0338250D01*
X0083800Y0338830D02*
X0130200Y0338830D01*
X0130200Y0339420D02*
X0083800Y0339420D01*
X0083800Y0340000D02*
X0130200Y0340000D01*
X0130200Y0340590D02*
X0083800Y0340590D01*
X0083800Y0341170D02*
X0130200Y0341170D01*
X0130200Y0341760D02*
X0083800Y0341760D01*
X0083800Y0342340D02*
X0130200Y0342340D01*
X0130200Y0342930D02*
X0083800Y0342930D01*
X0083800Y0343510D02*
X0130200Y0343510D01*
X0141800Y0343510D02*
X0153700Y0343510D01*
X0153700Y0342930D02*
X0141800Y0342930D01*
X0141800Y0342340D02*
X0153700Y0342340D01*
X0153700Y0341760D02*
X0141800Y0341760D01*
X0141800Y0341170D02*
X0153700Y0341170D01*
X0153700Y0340590D02*
X0141800Y0340590D01*
X0141800Y0340000D02*
X0153700Y0340000D01*
X0153700Y0339420D02*
X0141800Y0339420D01*
X0141800Y0338830D02*
X0153700Y0338830D01*
X0153700Y0338250D02*
X0141800Y0338250D01*
X0141800Y0337660D02*
X0153700Y0337660D01*
D32*
X0151500Y0336000D03*
X0147000Y0336000D03*
X0142500Y0336000D03*
X0138500Y0336000D03*
X0152500Y0330000D03*
X0152500Y0324000D03*
X0152500Y0316000D03*
X0152500Y0306000D03*
X0152500Y0296000D03*
X0152500Y0286000D03*
X0152500Y0276000D03*
X0152500Y0266000D03*
X0152500Y0256000D03*
X0140400Y0256000D03*
X0140500Y0266000D03*
X0140500Y0276000D03*
X0140500Y0284500D03*
X0140000Y0290500D03*
X0135600Y0290300D03*
X0124100Y0294100D03*
X0120700Y0294100D03*
X0120700Y0297500D03*
X0124100Y0297500D03*
X0124100Y0301000D03*
X0120700Y0301000D03*
X0120700Y0304400D03*
X0124100Y0304400D03*
X0124100Y0307900D03*
X0120700Y0307900D03*
X0117300Y0307900D03*
X0117300Y0304400D03*
X0117300Y0301000D03*
X0117300Y0297500D03*
X0117300Y0294100D03*
X0113900Y0294100D03*
X0113900Y0297500D03*
X0113900Y0301000D03*
X0113900Y0304400D03*
X0113900Y0307900D03*
X0110500Y0307900D03*
X0110500Y0304400D03*
X0110500Y0301000D03*
X0110500Y0297500D03*
X0110500Y0294100D03*
X0103100Y0287600D03*
X0100500Y0292000D03*
X0101600Y0282200D03*
X0109600Y0283100D03*
X0116200Y0270000D03*
X0121900Y0266000D03*
X0124200Y0270000D03*
X0129500Y0276000D03*
X0124100Y0283100D03*
X0103500Y0266800D03*
X0100500Y0256000D03*
X0108500Y0256000D03*
X0121900Y0256000D03*
X0088500Y0256000D03*
X0088500Y0265600D03*
X0088500Y0275600D03*
X0088500Y0285600D03*
X0088500Y0295600D03*
X0088500Y0305600D03*
X0088500Y0315200D03*
X0088500Y0326000D03*
X0088500Y0330000D03*
X0088500Y0336000D03*
X0093500Y0336000D03*
X0098500Y0336000D03*
X0103500Y0336000D03*
X0108500Y0336000D03*
X0113500Y0336000D03*
X0110500Y0330000D03*
X0107000Y0326500D03*
X0100500Y0330000D03*
X0100200Y0322000D03*
X0102200Y0312800D03*
X0100500Y0308000D03*
X0118500Y0336000D03*
X0123500Y0336000D03*
X0140500Y0308000D03*
D18*
X0105200Y0341000D03*
D12*
X0107000Y0326500D02*
X0106600Y0311900D01*
X0106600Y0286000D01*
X0109500Y0283100D01*
X0109600Y0283100D01*
X0124100Y0283100D01*
X0131100Y0283100D01*
X0135600Y0287600D01*
X0135600Y0290300D01*
M02*
