%
T01C0.015000
X3270Y9900
X3270Y22000
X3270Y34100
X10520Y9900
X10520Y22000
X10520Y34100
X17770Y9900
X17770Y22000
X17770Y34100
T02C0.012000
X1600Y1400
X1600Y2360
X1600Y3360
X1600Y4360
X1600Y5360
X1600Y6360
X1600Y7320
X1600Y8400
X1600Y8800
X1600Y9400
X2100Y9400
X2600Y9400
X3100Y9400
X3600Y9400
X4100Y9400
X3800Y8800
X3450Y8450
X2800Y8800
X2770Y8000
X2970Y7080
X2800Y6600
X3800Y6590
X3800Y6240
X3800Y5900
X3800Y5550
X3800Y5210
X4140Y5210
X4140Y5550
X4140Y5900
X4140Y6240
X4140Y6590
X4480Y6590
X4480Y6240
X4480Y5900
X4480Y5550
X4480Y5210
X4820Y5210
X5160Y5210
X5160Y5550
X4820Y5550
X4820Y5900
X5160Y5900
X5160Y6240
X4820Y6240
X4820Y6590
X5160Y6590
X6310Y4830
X6750Y4850
X6800Y4250
X6800Y3400
X6800Y2400
X6790Y1400
X8000Y1400
X8000Y2400
X8000Y3400
X8000Y4400
X8000Y5400
X8000Y6400
X8000Y7400
X8000Y8200
X8000Y8800
X7900Y9400
X7450Y9400
X7000Y9400
X6600Y9400
X5100Y9400
X4600Y9400
X6800Y6600
X5160Y4110
X5700Y3400
X5170Y2800
X4940Y2400
X4370Y2800
X3710Y4110
X3060Y4560
X2800Y5000
X2910Y4020
X3100Y2480
X2800Y1400
X3600Y1400
X4940Y1400
X1600Y13500
X1600Y14460
X1600Y15460
X1600Y16460
X1600Y17460
X1600Y18460
X1600Y19420
X1600Y20500
X1600Y20900
X1600Y21500
X2100Y21500
X2600Y21500
X3100Y21500
X3600Y21500
X4100Y21500
X3800Y20900
X3450Y20550
X2800Y20900
X2770Y20100
X2970Y19180
X2800Y18700
X3800Y18690
X3800Y18340
X3800Y18000
X3800Y17650
X3800Y17310
X4140Y17310
X4140Y17650
X4140Y18000
X4140Y18340
X4140Y18690
X4480Y18690
X4480Y18340
X4480Y18000
X4480Y17650
X4480Y17310
X4820Y17310
X5160Y17310
X5160Y17650
X4820Y17650
X4820Y18000
X5160Y18000
X5160Y18340
X4820Y18340
X4820Y18690
X5160Y18690
X6310Y16930
X6750Y16950
X6800Y16350
X6800Y15500
X6800Y14500
X6790Y13500
X8000Y13500
X8000Y14500
X8000Y15500
X8000Y16500
X8000Y17500
X8000Y18500
X8000Y19500
X8000Y20300
X8000Y20900
X7900Y21500
X7450Y21500
X7000Y21500
X6600Y21500
X5100Y21500
X4600Y21500
X6800Y18700
X5160Y16210
X5700Y15500
X5170Y14900
X4940Y14500
X4370Y14900
X3710Y16210
X3060Y16660
X2800Y17100
X2910Y16120
X3100Y14580
X2800Y13500
X3600Y13500
X4940Y13500
X1600Y25600
X1600Y26560
X1600Y27560
X1600Y28560
X1600Y29560
X1600Y30560
X1600Y31520
X1600Y32600
X1600Y33000
X1600Y33600
X2100Y33600
X2600Y33600
X3100Y33600
X3600Y33600
X4100Y33600
X3800Y33000
X3450Y32650
X2800Y33000
X2770Y32200
X2970Y31280
X2800Y30800
X3800Y30790
X3800Y30440
X3800Y30100
X3800Y29750
X3800Y29410
X4140Y29410
X4140Y29750
X4140Y30100
X4140Y30440
X4140Y30790
X4480Y30790
X4480Y30440
X4480Y30100
X4480Y29750
X4480Y29410
X4820Y29410
X5160Y29410
X5160Y29750
X4820Y29750
X4820Y30100
X5160Y30100
X5160Y30440
X4820Y30440
X4820Y30790
X5160Y30790
X6310Y29030
X6750Y29050
X6800Y28450
X6800Y27600
X6800Y26600
X6790Y25600
X8000Y25600
X8000Y26600
X8000Y27600
X8000Y28600
X8000Y29600
X8000Y30600
X8000Y31600
X8000Y32400
X8000Y33000
X7900Y33600
X7450Y33600
X7000Y33600
X6600Y33600
X5100Y33600
X4600Y33600
X6800Y30800
X5160Y28310
X5700Y27600
X5170Y27000
X4940Y26600
X4370Y27000
X3710Y28310
X3060Y28760
X2800Y29200
X2910Y28220
X3100Y26680
X2800Y25600
X3600Y25600
X4940Y25600
X8850Y1400
X8850Y2360
X8850Y3360
X8850Y4360
X8850Y5360
X8850Y6360
X8850Y7320
X8850Y8400
X8850Y8800
X8850Y9400
X9350Y9400
X9850Y9400
X10350Y9400
X10850Y9400
X11350Y9400
X11050Y8800
X10700Y8450
X10050Y8800
X10020Y8000
X10220Y7080
X10050Y6600
X11050Y6590
X11050Y6240
X11050Y5900
X11050Y5550
X11050Y5210
X11390Y5210
X11390Y5550
X11390Y5900
X11390Y6240
X11390Y6590
X11730Y6590
X11730Y6240
X11730Y5900
X11730Y5550
X11730Y5210
X12070Y5210
X12410Y5210
X12410Y5550
X12070Y5550
X12070Y5900
X12410Y5900
X12410Y6240
X12070Y6240
X12070Y6590
X12410Y6590
X13560Y4830
X14000Y4850
X14050Y4250
X14050Y3400
X14050Y2400
X14040Y1400
X15250Y1400
X15250Y2400
X15250Y3400
X15250Y4400
X15250Y5400
X15250Y6400
X15250Y7400
X15250Y8200
X15250Y8800
X15150Y9400
X14700Y9400
X14250Y9400
X13850Y9400
X12350Y9400
X11850Y9400
X14050Y6600
X12410Y4110
X12950Y3400
X12420Y2800
X12190Y2400
X11620Y2800
X10960Y4110
X10310Y4560
X10050Y5000
X10160Y4020
X10350Y2480
X10050Y1400
X10850Y1400
X12190Y1400
X8850Y13500
X8850Y14460
X8850Y15460
X8850Y16460
X8850Y17460
X8850Y18460
X8850Y19420
X8850Y20500
X8850Y20900
X8850Y21500
X9350Y21500
X9850Y21500
X10350Y21500
X10850Y21500
X11350Y21500
X11050Y20900
X10700Y20550
X10050Y20900
X10020Y20100
X10220Y19180
X10050Y18700
X11050Y18690
X11050Y18340
X11050Y18000
X11050Y17650
X11050Y17310
X11390Y17310
X11390Y17650
X11390Y18000
X11390Y18340
X11390Y18690
X11730Y18690
X11730Y18340
X11730Y18000
X11730Y17650
X11730Y17310
X12070Y17310
X12410Y17310
X12410Y17650
X12070Y17650
X12070Y18000
X12410Y18000
X12410Y18340
X12070Y18340
X12070Y18690
X12410Y18690
X13560Y16930
X14000Y16950
X14050Y16350
X14050Y15500
X14050Y14500
X14040Y13500
X15250Y13500
X15250Y14500
X15250Y15500
X15250Y16500
X15250Y17500
X15250Y18500
X15250Y19500
X15250Y20300
X15250Y20900
X15150Y21500
X14700Y21500
X14250Y21500
X13850Y21500
X12350Y21500
X11850Y21500
X14050Y18700
X12410Y16210
X12950Y15500
X12420Y14900
X12190Y14500
X11620Y14900
X10960Y16210
X10310Y16660
X10050Y17100
X10160Y16120
X10350Y14580
X10050Y13500
X10850Y13500
X12190Y13500
X8850Y25600
X8850Y26560
X8850Y27560
X8850Y28560
X8850Y29560
X8850Y30560
X8850Y31520
X8850Y32600
X8850Y33000
X8850Y33600
X9350Y33600
X9850Y33600
X10350Y33600
X10850Y33600
X11350Y33600
X11050Y33000
X10700Y32650
X10050Y33000
X10020Y32200
X10220Y31280
X10050Y30800
X11050Y30790
X11050Y30440
X11050Y30100
X11050Y29750
X11050Y29410
X11390Y29410
X11390Y29750
X11390Y30100
X11390Y30440
X11390Y30790
X11730Y30790
X11730Y30440
X11730Y30100
X11730Y29750
X11730Y29410
X12070Y29410
X12410Y29410
X12410Y29750
X12070Y29750
X12070Y30100
X12410Y30100
X12410Y30440
X12070Y30440
X12070Y30790
X12410Y30790
X13560Y29030
X14000Y29050
X14050Y28450
X14050Y27600
X14050Y26600
X14040Y25600
X15250Y25600
X15250Y26600
X15250Y27600
X15250Y28600
X15250Y29600
X15250Y30600
X15250Y31600
X15250Y32400
X15250Y33000
X15150Y33600
X14700Y33600
X14250Y33600
X13850Y33600
X12350Y33600
X11850Y33600
X14050Y30800
X12410Y28310
X12950Y27600
X12420Y27000
X12190Y26600
X11620Y27000
X10960Y28310
X10310Y28760
X10050Y29200
X10160Y28220
X10350Y26680
X10050Y25600
X10850Y25600
X12190Y25600
X16100Y1400
X16100Y2360
X16100Y3360
X16100Y4360
X16100Y5360
X16100Y6360
X16100Y7320
X16100Y8400
X16100Y8800
X16100Y9400
X16600Y9400
X17100Y9400
X17600Y9400
X18100Y9400
X18600Y9400
X18300Y8800
X17950Y8450
X17300Y8800
X17270Y8000
X17470Y7080
X17300Y6600
X18300Y6590
X18300Y6240
X18300Y5900
X18300Y5550
X18300Y5210
X18640Y5210
X18640Y5550
X18640Y5900
X18640Y6240
X18640Y6590
X18980Y6590
X18980Y6240
X18980Y5900
X18980Y5550
X18980Y5210
X19320Y5210
X19660Y5210
X19660Y5550
X19320Y5550
X19320Y5900
X19660Y5900
X19660Y6240
X19320Y6240
X19320Y6590
X19660Y6590
X20810Y4830
X21250Y4850
X21300Y4250
X21300Y3400
X21300Y2400
X21290Y1400
X22500Y1400
X22500Y2400
X22500Y3400
X22500Y4400
X22500Y5400
X22500Y6400
X22500Y7400
X22500Y8200
X22500Y8800
X22400Y9400
X21950Y9400
X21500Y9400
X21100Y9400
X19600Y9400
X19100Y9400
X21300Y6600
X19660Y4110
X20200Y3400
X19670Y2800
X19440Y2400
X18870Y2800
X18210Y4110
X17560Y4560
X17300Y5000
X17410Y4020
X17600Y2480
X17300Y1400
X18100Y1400
X19440Y1400
X16100Y13500
X16100Y14460
X16100Y15460
X16100Y16460
X16100Y17460
X16100Y18460
X16100Y19420
X16100Y20500
X16100Y20900
X16100Y21500
X16600Y21500
X17100Y21500
X17600Y21500
X18100Y21500
X18600Y21500
X18300Y20900
X17950Y20550
X17300Y20900
X17270Y20100
X17470Y19180
X17300Y18700
X18300Y18690
X18300Y18340
X18300Y18000
X18300Y17650
X18300Y17310
X18640Y17310
X18640Y17650
X18640Y18000
X18640Y18340
X18640Y18690
X18980Y18690
X18980Y18340
X18980Y18000
X18980Y17650
X18980Y17310
X19320Y17310
X19660Y17310
X19660Y17650
X19320Y17650
X19320Y18000
X19660Y18000
X19660Y18340
X19320Y18340
X19320Y18690
X19660Y18690
X20810Y16930
X21250Y16950
X21300Y16350
X21300Y15500
X21300Y14500
X21290Y13500
X22500Y13500
X22500Y14500
X22500Y15500
X22500Y16500
X22500Y17500
X22500Y18500
X22500Y19500
X22500Y20300
X22500Y20900
X22400Y21500
X21950Y21500
X21500Y21500
X21100Y21500
X19600Y21500
X19100Y21500
X21300Y18700
X19660Y16210
X20200Y15500
X19670Y14900
X19440Y14500
X18870Y14900
X18210Y16210
X17560Y16660
X17300Y17100
X17410Y16120
X17600Y14580
X17300Y13500
X18100Y13500
X19440Y13500
X16100Y25600
X16100Y26560
X16100Y27560
X16100Y28560
X16100Y29560
X16100Y30560
X16100Y31520
X16100Y32600
X16100Y33000
X16100Y33600
X16600Y33600
X17100Y33600
X17600Y33600
X18100Y33600
X18600Y33600
X18300Y33000
X17950Y32650
X17300Y33000
X17270Y32200
X17470Y31280
X17300Y30800
X18300Y30790
X18300Y30440
X18300Y30100
X18300Y29750
X18300Y29410
X18640Y29410
X18640Y29750
X18640Y30100
X18640Y30440
X18640Y30790
X18980Y30790
X18980Y30440
X18980Y30100
X18980Y29750
X18980Y29410
X19320Y29410
X19660Y29410
X19660Y29750
X19320Y29750
X19320Y30100
X19660Y30100
X19660Y30440
X19320Y30440
X19320Y30790
X19660Y30790
X20810Y29030
X21250Y29050
X21300Y28450
X21300Y27600
X21300Y26600
X21290Y25600
X22500Y25600
X22500Y26600
X22500Y27600
X22500Y28600
X22500Y29600
X22500Y30600
X22500Y31600
X22500Y32400
X22500Y33000
X22400Y33600
X21950Y33600
X21500Y33600
X21100Y33600
X19600Y33600
X19100Y33600
X21300Y30800
X19660Y28310
X20200Y27600
X19670Y27000
X19440Y26600
X18870Y27000
X18210Y28310
X17560Y28760
X17300Y29200
X17410Y28220
X17600Y26680
X17300Y25600
X18100Y25600
X19440Y25600
M30
