G75*
G70*
%OFA0B0*%
%FSLAX25Y25*%
%IPPOS*%
%LPD*%
%AMOC8*
5,1,8,0,0,1.08239X$1,22.5*
%
%ADD22C,0.00000*%
X0010000Y0010000D02*
G75*
%LPD*%
D22*
X0010000Y0010000D02*
X0061180Y0010000D01*
X0061180Y0061180D01*
X0010000Y0061180D01*
X0010000Y0010000D01*
X0010000Y0067180D02*
G75*
%LPD*%
D22*
X0010000Y0067180D02*
X0061180Y0067180D01*
X0061180Y0118360D01*
X0010000Y0118360D01*
X0010000Y0067180D01*
X0010000Y0124360D02*
G75*
%LPD*%
D22*
X0010000Y0124360D02*
X0061180Y0124360D01*
X0061180Y0175540D01*
X0010000Y0175540D01*
X0010000Y0124360D01*
X0067180Y0010000D02*
G75*
%LPD*%
D22*
X0067180Y0010000D02*
X0118360Y0010000D01*
X0118360Y0061180D01*
X0067180Y0061180D01*
X0067180Y0010000D01*
X0067180Y0067180D02*
G75*
%LPD*%
D22*
X0067180Y0067180D02*
X0118360Y0067180D01*
X0118360Y0118360D01*
X0067180Y0118360D01*
X0067180Y0067180D01*
X0067180Y0124360D02*
G75*
%LPD*%
D22*
X0067180Y0124360D02*
X0118360Y0124360D01*
X0118360Y0175540D01*
X0067180Y0175540D01*
X0067180Y0124360D01*
X0124360Y0010000D02*
G75*
%LPD*%
D22*
X0124360Y0010000D02*
X0175540Y0010000D01*
X0175540Y0061180D01*
X0124360Y0061180D01*
X0124360Y0010000D01*
X0124360Y0067180D02*
G75*
%LPD*%
D22*
X0124360Y0067180D02*
X0175540Y0067180D01*
X0175540Y0118360D01*
X0124360Y0118360D01*
X0124360Y0067180D01*
X0124360Y0124360D02*
G75*
%LPD*%
D22*
X0124360Y0124360D02*
X0175540Y0124360D01*
X0175540Y0175540D01*
X0124360Y0175540D01*
X0124360Y0124360D01*
M02*
