G75*
G70*
%OFA0B0*%
%FSLAX25Y25*%
%IPPOS*%
%LPD*%
%AMOC8*
5,1,8,0,0,1.08239X$1,22.5*
%
%ADD20R,0.07880X0.04730*%
%ADD29R,0.05400X0.05400*%
%ADD35R,0.05120X0.03550*%
X0010000Y0010000D02*
G75*
%LPD*%
D20*
X0027740Y0013250D03*
X0027740Y0022310D03*
X0042300Y0022310D03*
X0042300Y0013250D03*
D35*
X0013820Y0021540D03*
X0013820Y0028620D03*
D29*
X0014420Y0014280D03*
X0010000Y0067180D02*
G75*
%LPD*%
D20*
X0027740Y0070430D03*
X0027740Y0079490D03*
X0042300Y0079490D03*
X0042300Y0070430D03*
D35*
X0013820Y0078720D03*
X0013820Y0085800D03*
D29*
X0014420Y0071460D03*
X0010000Y0124360D02*
G75*
%LPD*%
D20*
X0027740Y0127610D03*
X0027740Y0136670D03*
X0042300Y0136670D03*
X0042300Y0127610D03*
D35*
X0013820Y0135900D03*
X0013820Y0142980D03*
D29*
X0014420Y0128640D03*
X0067180Y0010000D02*
G75*
%LPD*%
D20*
X0084920Y0013250D03*
X0084920Y0022310D03*
X0099480Y0022310D03*
X0099480Y0013250D03*
D35*
X0071000Y0021540D03*
X0071000Y0028620D03*
D29*
X0071600Y0014280D03*
X0067180Y0067180D02*
G75*
%LPD*%
D20*
X0084920Y0070430D03*
X0084920Y0079490D03*
X0099480Y0079490D03*
X0099480Y0070430D03*
D35*
X0071000Y0078720D03*
X0071000Y0085800D03*
D29*
X0071600Y0071460D03*
X0067180Y0124360D02*
G75*
%LPD*%
D20*
X0084920Y0127610D03*
X0084920Y0136670D03*
X0099480Y0136670D03*
X0099480Y0127610D03*
D35*
X0071000Y0135900D03*
X0071000Y0142980D03*
D29*
X0071600Y0128640D03*
X0124360Y0010000D02*
G75*
%LPD*%
D20*
X0142100Y0013250D03*
X0142100Y0022310D03*
X0156660Y0022310D03*
X0156660Y0013250D03*
D35*
X0128180Y0021540D03*
X0128180Y0028620D03*
D29*
X0128780Y0014280D03*
X0124360Y0067180D02*
G75*
%LPD*%
D20*
X0142100Y0070430D03*
X0142100Y0079490D03*
X0156660Y0079490D03*
X0156660Y0070430D03*
D35*
X0128180Y0078720D03*
X0128180Y0085800D03*
D29*
X0128780Y0071460D03*
X0124360Y0124360D02*
G75*
%LPD*%
D20*
X0142100Y0127610D03*
X0142100Y0136670D03*
X0156660Y0136670D03*
X0156660Y0127610D03*
D35*
X0128180Y0135900D03*
X0128180Y0142980D03*
D29*
X0128780Y0128640D03*
M02*
